M48
;Layer_Color=9474304
;FILE_FORMAT=2:4
INCH,TZ
;TYPE=PLATED
T01F00S00C0.0079
T02F00S00C0.0118
T03F00S00C0.0256
T04F00S00C0.0315
T05F00S00C0.0354
T06F00S00C0.0400
T07F00S00C0.0630
%
T01
X13999Y12006
X14432
Y12439
X13999
Y12872
X14432
T02
X8858Y-16772
X10669Y-17717
X14567Y-17559
X14606Y-16929
X14567Y-18228
X27187Y-17362
X32590Y-16362
X32390Y-14662
X32792Y-13860
X30190Y-13024
X29190Y-12962
X32592Y-7920
X32392Y-6220
X32794Y-5418
X30192Y-4583
X29192Y-4520
X28692
X28892Y-6320
X28822Y-6690
X28891Y-7321
X28822Y-8080
X27592Y-8220
X27189Y-8921
X27392Y-7120
X26192Y-4456
X25889Y-3120
X26392Y-2486
X21892Y-2420
X21872Y-3070
X21892Y-3420
Y-3780
X20712Y-3200
X20442Y-2940
X20422Y-3470
X19826Y-5151
X19192Y-4620
X14750Y-4400
X14000Y-3950
Y-2700
X14070Y-1560
X14000Y-5950
Y-7150
X14030Y-8090
X14750Y-7600
X20440Y-11382
X20710Y-11642
X20420Y-11912
X21890Y-11862
Y-12222
X21870Y-11512
X21890Y-10862
X26390Y-10928
X25887Y-11562
X26190Y-12898
X28690Y-12962
X28890Y-14762
X28820Y-15132
X28889Y-15763
X28820Y-16522
X27590Y-16662
X27390Y-15562
X19824Y-13593
X19190Y-13062
X12677Y-15591
X12244Y-15551
X13200Y-9200
X12350Y-7000
X13100Y-5900
Y-4150
X12350Y-3750
X10000Y-4075
X10000Y-2750
X10274Y-5900
X9988Y-6684
X10001Y-7348
X10000Y-9300
X5260Y-7530
X4180Y-7246
X3460Y-7246
X1650Y-6150
Y-5200
Y-4250
X1954Y-3875
X1650Y-3300
Y-2350
X2050Y-2180
X1650Y-1420
X3520Y-1540
X3690Y-2260
X4500Y-1580
X4410Y1770
X5055Y2085
X5350Y3100
X2800Y3900
X2200Y4250
X1650Y4550
Y5200
X1651Y5776
X1700Y6150
X1750Y6600
X1650Y3600
Y2650
X1947Y2882
X1650Y1750
Y750
X2018Y832
X3480Y1147
X10274Y850
X10000Y-150
Y-800
X12350Y-450
X13100Y850
Y2300
X12350Y2800
X10000Y2454
X10000Y3800
X9981Y5718
X12670Y6406
X11750Y10400
X11350
X11550Y10700
X9650Y10450
X9150Y10600
X8900Y10900
X9150Y11200
X8900Y11500
X7800Y9630
Y13630
X9800
X10550Y13559
X11200Y13600
X11800Y13630
X11500Y13200
X16350Y11450
X18800Y11630
X19800Y13630
X20800Y13900
X23150Y13850
X22800Y11630
X24800
X26400Y5734
X25897Y5100
X26200Y3764
X28700Y3700
X28900Y1900
X28830Y1530
X28899Y899
X28830Y140
X27600Y0
X27197Y-701
X27400Y1100
X21900Y4440
Y4800
X21880Y5150
X21900Y5800
X20720Y5020
X20450Y5280
X20430Y4750
X19834Y3069
X19200Y3600
X14050Y3850
X14049Y4989
X14000Y5850
X14750Y5400
Y2150
X13950Y2600
X14050Y600
X14000Y-600
X14750Y-1100
X17800Y13630
X29200Y3700
X30200Y3638
X32802Y2802
X32400Y2000
X32600Y300
X18800Y15630
X19800Y17630
X17800
X15800
X13800
X14800Y15630
X11450Y15400
X11300Y16130
X10800
X10300
X10550Y16630
X11050
X8800Y15630
X7800Y17630
T03
X29078Y-12282
Y-11782
X29578
Y-12282
X30078
Y-11782
X30080Y-3840
Y-3340
X29580
Y-3840
X29080
Y-3340
X28580
Y-3840
X28080
Y-3340
X27580
Y-3840
X27080
Y-3340
X26580
Y-3840
X26578Y-11782
Y-12282
X27078
Y-11782
X27578
Y-12282
X28078
Y-11782
X28578
Y-12282
X28588Y4380
X28088
X27588
X27088
X26588
Y4880
X27088
X27588
X28088
X28588
X29088
Y4380
X29588
Y4880
X30088
Y4380
T04
X8268Y14035
Y15020
X9035Y17244
X10020
T05
X8512Y-14655
X9512
Y-13655
X8512
Y-12655
X9512
T06
X36102Y-12714
X37102
Y-11714
X36102
Y-4274
X37102
Y-3274
X36102
Y4230
X37102
Y5230
X36102
T07
X19290Y-15562
X21090Y-16662
X21290Y-14262
X22690Y-15162
X24090Y-16062
X24092Y-7620
X22692Y-6720
X21292Y-5820
X21092Y-8220
X21090Y-9762
X19292Y-7120
X17092Y-4220
X17992Y-2820
X21092Y-1320
X17990Y-11262
X17090Y-12662
X9450Y9700
X17600Y9100
X21450Y9200
X21100Y6900
X18000Y5400
X17100Y4000
X19300Y1100
X21100Y0
X21300Y2400
X22700Y1500
X24100Y600
M30
