M48
;Layer_Color=9474304
;FILE_FORMAT=2:5
INCH,TZ
;TYPE=PLATED
T1F00S00C0.00787
T2F00S00C0.01181
T3F00S00C0.02559
T4F00S00C0.03150
T5F00S00C0.03543
T6F00S00C0.04000
T7F00S00C0.06299
%
T01
X271870Y-173625
X325900Y-163620
X323900Y-146620
X327922Y-138601
X301900Y-130245
X291900Y-129620
X325922Y-79201
X323922Y-62201
X327944Y-54182
X301922Y-45826
X291922Y-45201
X286922
X288922Y-63201
X288222Y-66901
X288914Y-73210
X288222Y-80801
X275922Y-82201
X271892Y-89206
X273922Y-71201
X261922Y-44557
X258889Y-31201
X263922Y-24860
X218922Y-24201
X218722Y-30701
X218922Y-34201
Y-37801
X207122Y-32001
X204422Y-29401
X204222Y-34701
X198260Y-51510
X191922Y-46201
X204400Y-113820
X207100Y-116420
X204200Y-119120
X218900Y-118620
Y-122220
X218700Y-115120
X218900Y-108620
X263900Y-109279
X258867Y-115620
X261900Y-128976
X286900Y-129620
X288900Y-147620
X288200Y-151320
X288892Y-157629
X288200Y-165220
X275900Y-166620
X273900Y-155620
X198238Y-135928
X191900Y-130620
X140300Y-80900
X140700Y-15600
X36900Y-22600
X132874Y129272
Y133602
Y137933
X137205
Y133602
Y129272
X140494Y49889
X192000Y36000
X198338Y30691
X204300Y47500
X204500Y52800
X207200Y50200
X218800Y51500
X219000Y48000
Y44400
Y58000
X264000Y57341
X258967Y51000
X262000Y37643
X287000Y37000
X289000Y19000
X288300Y15300
X288992Y8991
X288300Y1400
X276000Y0
X271970Y-7005
X274000Y11000
X292000Y37000
X302000Y36375
X328022Y28019
X324000Y20000
X326000Y3000
T02
X140000Y-71500
Y-59500
Y-39500
X147500Y-44000
X140000Y-27000
X147500Y-76000
X123500Y-70000
X131000Y-59000
Y-41500
X123500Y-37500
X100000Y-40748
X100000Y-27500
X102740Y-59000
X99876Y-66837
X100010Y-73484
X100000Y-93000
X132000Y-92000
X52600Y-75300
X41800Y-72457
X34600Y-72457
X16500Y-61500
Y-52000
Y-42500
X19537Y-38751
X16500Y-33000
Y-23500
X20500Y-21800
X16500Y-14205
X35200Y-15400
X45000Y-15800
X44100Y17700
X50554Y20854
X53500Y31000
X28000Y39000
X22000Y42500
X16500Y45500
Y52000
X16509Y57761
X17000Y61500
X17500Y66000
X16500Y36000
Y26500
X19475Y28819
X16500Y17500
Y7500
X20182Y8316
X34800Y11465
X102740Y8500
X100000Y-1500
Y-8000
X123500Y-4500
X131000Y8500
Y23000
X123500Y28000
X100000Y24543
X100000Y38000
X99806Y57179
X123500Y60500
X118000Y96300
X132500Y108000
X128000Y116300
X108000
X99000Y110000
X94000
X89000
X91500Y107000
X96500
X78000Y96300
X109433Y143882
X115700
X121967
X128233
X134500
X150681Y128760
X160500Y134500
X178000Y136300
X198000
X208000Y139000
X231500Y138500
X228000Y116300
X248000
X188000
X168000
X136000Y108000
Y104500
X140000Y58500
X147500Y54000
X140500Y38500
X139500Y26000
X147500Y21500
X140500Y6000
X140000Y-6000
X147500Y-11000
X168000Y156300
X188000
X198000Y176300
X158000
X138681Y168500
X123000Y166300
X118000
X113000
X108000
X110500Y171300
X115500
X120500
X127500Y154000
X88000Y156300
X78000Y176300
T03
X290778Y-122819
X295778
X300778
Y-117819
X295778
X290778
X290800Y-38400
Y-33400
X295800
Y-38400
X300800
Y-33400
X285800
X280800
X275800
X270800
X265800
Y-38400
X270800
X275800
X280800
X285800
X285778Y-117819
Y-122819
X280778
Y-117819
X275778
Y-122819
X270778
Y-117819
X265778
Y-122819
X265878Y43801
X270878
X275878
X280878
X285878
Y48801
X280878
X275878
X270878
X265878
X290878
X295878
X300878
Y43801
X295878
X290878
T04
X82677Y140354
Y150197
X90354Y172441
X100197
T05
X92600Y-162300
Y-152300
Y-142300
X102600
Y-152300
Y-162300
T06
X361024Y-127139
X371024
Y-117139
X361024
Y-42739
X371024
Y-32739
X361024
Y42301
X371024
Y52301
X361024
T07
X192900Y-155620
X210900Y-166620
X212900Y-142620
X226900Y-151620
X240900Y-160620
X240922Y-76201
X226922Y-67201
X212922Y-58201
X210922Y-82201
X210900Y-97620
X192922Y-71201
X170922Y-42201
X179922Y-28201
X210922Y-13201
X179900Y-112620
X170900Y-126620
X94095Y98032
X180000Y54000
X171000Y40000
X193000Y11000
X211000Y0
X213000Y24000
X227000Y15000
X241000Y6000
X211000Y69000
X174500Y179921
X120079
M30
