M48
;Layer_Color=9474304
;FILE_FORMAT=4:4
METRIC,LZ
;TYPE=PLATED
T1F00S00C0.2000
T2F00S00C0.3000
T3F00S00C0.6500
T4F00S00C0.8000
T5F00S00C0.9000
T6F00S00C1.0160
T7F00S00C1.6000
%
T01
X00690549Y-00441007
X00827786Y-00415594
X00822706Y-00372414
X00832922Y-00352046
X00766826Y-00330821
X00741426Y-00329234
X00827842Y-0020117
X00822762Y-0015799
X00832978Y-00137622
X00766882Y-00116397
X00741482Y-0011481
X00728782
X00733862Y-0016053
X00732084Y-00169928
X00733842Y-00185953
X00732084Y-00205234
X00700842Y-0020879
X00690605Y-00226583
X00695762Y-0018085
X00665282Y-00113176
X00657577Y-0007925
X00670362Y-00063144
X00556062Y-0006147
X00555554Y-0007798
X00556062Y-0008687
Y-00096014
X0052609Y-00081282
X00519232Y-00074678
X00518724Y-0008814
X0050358Y-00130834
X00487482Y-0011735
X00519176Y-00289102
X00526034Y-00295706
X00518668Y-00302564
X00556006Y-00301294
Y-00310438
X00555498Y-00292404
X00556006Y-00275894
X00670306Y-00277568
X00657521Y-00293674
X00665226Y-003276
X00728726Y-00329234
X00733806Y-00374954
X00732028Y-00384352
X00733786Y-00400377
X00732028Y-00419658
X00700786Y-00423214
X00695706Y-00395274
X00503523Y-00345258
X00487426Y-00331774
X00356362Y-00205486
X00357378Y-00039624
X00093726Y-00057404
X003375Y0032835
Y0033935
Y0035035
X003485
Y0033935
Y0032835
X00356855Y00126717
X0048768Y0009144
X00503777Y00077956
X00518922Y0012065
X0051943Y00134112
X00526288Y00127508
X00555752Y0013081
X0055626Y0012192
Y00112776
Y0014732
X0067056Y00145646
X00657775Y0012954
X0066548Y00095614
X0072898Y0009398
X0073406Y0004826
X00732282Y00038862
X0073404Y00022837
X00732282Y00003556
X0070104Y0
X00690803Y-00017793
X0069596Y0002794
X0074168Y0009398
X0076708Y00092393
X00833176Y00071168
X0082296Y000508
X0082804Y0000762
T02
X003556Y-0018161
Y-0015113
Y-0010033
X0037465Y-0011176
X003556Y-0006858
X0037465Y-0019304
X0031369Y-001778
X0033274Y-0014986
Y-0010541
X0031369Y-0009525
X00254Y-001035
X00254Y-0006985
X0026096Y-0014986
X00253684Y-00169765
X00254025Y-00186651
X00254Y-0023622
X0033528Y-0023368
X00133604Y-00191262
X00106172Y-0018404
X00087884Y-0018404
X0004191Y-0015621
Y-0013208
Y-0010795
X00049625Y-00098428
X0004191Y-0008382
Y-0005969
X0005207Y-00055372
X0004191Y-0003608
X00089408Y-00039116
X001143Y-00040132
X00112014Y00044958
X00128408Y0005297
X0013589Y0007874
X0007112Y0009906
X0005588Y0010795
X0004191Y0011557
Y0013208
X00041932Y00146712
X0004318Y0015621
X0004445Y0016764
X0004191Y0009144
Y0006731
X00049465Y000732
X0004191Y0004445
Y0001905
X00051263Y00021122
X00088392Y00029122
X0026096Y0002159
X00254Y-0000381
Y-0002032
X0031369Y-0001143
X0033274Y0002159
Y0005842
X0031369Y0007112
X00254Y00062339
X00254Y0009652
X00253507Y00145236
X0031369Y0015367
X0029972Y00244602
X0033655Y0027432
X0032512Y00295402
X0027432
X0025146Y002794
X0023876
X0022606
X0023241Y0027178
X0024511
X0019812Y00244602
X0027796Y0036546
X00293878
X00309795
X00325713
X0034163
X0038273Y0032705
X0040767Y0034163
X0045212Y00346202
X0050292
X0052832Y0035306
X0058801Y0035179
X0057912Y00295402
X0062992
X0047752
X0042672
X0034544Y0027432
Y0026543
X003556Y0014859
X0037465Y0013716
X0035687Y0009779
X0035433Y0006604
X0037465Y0005461
X0035687Y0001524
X003556Y-0001524
X0037465Y-0002794
X0042672Y00397002
X0047752
X0050292Y00447802
X0040132
X0035225Y0042799
X0031242Y00422402
X0029972
X0028702
X0027432
X0028067Y00435102
X0029337
X0030607
X0032385Y0039116
X0022352Y00397002
X0019812Y00447802
T03
X00738576Y-0031196
X00751276
X00763976
Y-0029926
X00751276
X00738576
X00738632Y-00097536
X00751332
X00764032
Y-00084836
X00751332
X00738632
X00725932
Y-00097536
X00713232
Y-00084836
X00700532
Y-00097536
X00687832
Y-00084836
X00675132
Y-00097536
X00675076Y-0029926
X00687776
X00700476
X00713176
X00725876
Y-0031196
X00713176
X00700476
X00687776
X00675076
X0067533Y00111254
X0068803
X0070073
X0071343
X0072613
Y00123954
X0071343
X0070073
X0068803
X0067533
X0073883
X0075153
X0076423
Y00111254
X0075153
X0073883
T04
X0021Y003565
Y003815
X002295Y00438
X002545
T05
X00235204Y-00412242
Y-00386842
Y-00361442
X00260604
Y-00386842
Y-00412242
T06
X00917Y-00322933
X009424
Y-00297533
X00917
Y-00108556
X009424
Y-00083156
X00917
Y00107444
X009424
Y00132844
X00917
T07
X00489966Y-00395274
X00535686Y-00423214
X00540766Y-00362254
X00576326Y-00385114
X00611886Y-00407974
X00611942Y-0019355
X00576382Y-0017069
X00540822Y-0014783
X00535742Y-0020879
X00535686Y-00247954
X00490022Y-0018085
X00434142Y-0010719
X00457002Y-0007163
X00535742Y-0003353
X00456946Y-00286054
X00434086Y-00321614
X00239Y00249
X004572Y0013716
X0043434Y001016
X0049022Y0002794
X0053594Y0
X0054102Y0006096
X0057658Y000381
X0061214Y0001524
X0053594Y0017526
X0044323Y00457
X00305
M30
