M48
;Layer_Color=9474304
;FILE_FORMAT=4:4
METRIC,LZ
;TYPE=PLATED
T1F00S00C0.2000
T2F00S00C0.3000
T3F00S00C0.5000
T4F00S00C0.5600
T5F00S00C0.7000
T6F00S00C0.8000
%
T01
X0025931Y0004792
X0026531
X0026931Y00064419
X0027531
X0030206Y00079669
Y00085669
X0029206Y0008967
Y00095669
X0025981Y00130949
X0024981
X0046281
X0047281
Y00295949
X0046281
X0047231Y0037792
X0047831
X0048231Y0039442
X0048831
X0050506Y0041967
Y0042567
X0051506Y0041567
Y0040967
X0047281Y0046095
X0046281
X0030206Y0043567
Y0042967
Y0041567
Y0040967
X0029206Y0041967
Y0042567
Y0043967
Y0044567
X0027531Y0046842
X0026931
X0025981Y0046095
X0024981
X0024531Y0046742
X0023931
X0026931Y0039442
X0027531
X0026531Y0037792
X0025931
X0025981Y00295949
X0024981
X0029206Y0026067
Y0025467
X0030206Y0025067
Y0024467
X0027531Y0022942
X0026931
X0026531Y0021292
X0025931
Y0054292
X0026531
X0026931Y0055942
X0027531
X0029206Y0058467
Y0059067
X0030206Y0059467
Y0060067
X0029206Y0060467
Y0061067
X0027531Y0063342
X0026931
X0025981Y0062595
X0024981
X0024531Y0063242
X0023931
X0025931Y0070792
X0026531
X0026931Y0072442
X0027531
X0030206Y0073967
Y0074567
X0029206Y0074967
Y0075567
X0025981Y0079095
X0024981
X0025931Y0087292
X0026531
X0026931Y0088942
X0027531
X0029206Y0091467
Y0092067
X0030206Y0091067
Y0090467
X0046281Y0079095
X0047281
Y0062595
X0046281
X0045831Y0063242
X0045231
X0048231Y0063342
X0048831
X0050506Y0060067
Y0059467
X0051506Y0060467
Y0061067
X0030206Y0058067
Y0057467
X0025981Y0095595
X0024981
X0046281
X0047281
T02
X00021272Y00084919
X00041653Y00078569
X00067123Y00072219
X00163708Y0004392
X00179608Y0004392
X0021381Y00072219
Y00078569
Y00084919
X0022381Y00096919
X0022281Y00105169
X0022381Y00114919
X0022681Y00123919
X0022956Y00073429
X0024281Y00064919
X0024541Y0008577
Y00097769
Y00109769
X0025741
X0026941
Y00097769
X0026931Y00085669
X0025731
X00376708Y0004392
X00392607Y0004392
X0042681Y00072219
Y00078569
Y00084919
X0043681Y00096919
X0043581Y00105169
X0043681Y00114919
X0043981Y00123919
X0045841Y00109769
Y00097769
Y0008577
X0047031Y00085669
X0048231
X0048241Y00097769
Y00109769
X0047041
X0045581Y00064919
X0044256Y00073429
X0047281Y00138149
X0045581Y00229919
X0044256Y00238429
X0042681Y00237219
Y00243569
Y00249919
X0043681Y0026192
X0043581Y0027017
X0043681Y00279919
X0043981Y00288919
X0045841Y0027477
X0047041
X0048241
Y0026277
X0048231Y0025067
X0047031
X0045841Y0025077
Y0026277
X0047281Y0030315
X0045581Y00394919
X0044256Y00403429
X0042681Y00402219
Y00408569
Y00414919
X0043681Y0042692
X0043581Y0043517
X0043681Y00444919
X0043981Y00453919
X0045841Y0043977
X0047041
X0048241
Y0042777
X0048231Y0041567
X0047031
X0045841Y0041577
Y0042777
X0047281Y0046815
X00392607Y0037392
X00376708Y0037392
X0026931Y0041567
X0025731
X0024541Y0041577
Y0042777
Y0043977
X0025741
X0026941
Y0042777
X0025981Y0046815
X0024281Y00394919
X0025981Y0030315
X0025741Y0027477
X0026941
Y0026277
X0026931Y0025067
X0025731
X0024541Y0025077
Y0026277
Y0027477
X0024281Y00229919
X0025981Y00138149
X00376708Y0020892
X00392607Y0020892
X0022956Y00238429
X0021381Y00237219
Y00243569
Y00249919
X0022381Y0026192
X0022281Y0027017
X0022381Y00279919
X0022681Y00288919
X0022956Y00403429
X0021381Y00402219
Y00408569
Y00414919
X0022381Y0042692
X0022281Y0043517
X0022381Y00444919
X0022681Y00453919
X00179608Y0037392
X00163708Y0037392
Y0020892
X00179608Y0020892
X00067123Y00237219
X00041653Y00243569
X00021272Y00249919
X-00067828Y0032842
X-00092038Y0044042
X-0007002Y0046442
X-00091427Y0054442
Y0056842
Y0059242
X-00097227Y0063242
X-00100227Y0064842
Y0065642
Y0066442
Y0067242
X00021272Y0074492
X00041653Y00738569
X00067123Y00732219
X00163708Y0070392
X00179608Y0070392
X0021381Y00732219
Y00738569
Y0074492
X0022381Y0075692
X0022281Y0076517
X0022381Y0077492
X0022681Y0078392
X0022956Y00733429
X0022681Y00618919
X0022381Y00609919
X0022281Y0060017
X0022381Y0059192
X0021381Y00579919
Y00573569
Y00567219
X0022956Y00568429
X00179608Y0053892
X00163708Y0053892
X0010271Y0053242
X00067123Y00567219
X00041653Y00573569
X00021272Y00579919
X0016381Y0086892
X00179709Y0086892
X0021381Y00897219
Y00903569
Y0090992
X0022381Y0092192
X0022956Y00898429
X0024281Y0088992
X0024541Y0091077
X0025731Y0091067
X0026931
X0026941Y0092277
X0024541
X0025981Y0079815
X0025741Y0076977
X0026941
Y0075777
X0026931Y0074567
X0025731
X0024541Y0074577
Y0075777
Y0076977
X0024281Y0072492
X0025981Y0063315
X0025741Y0060477
X0026941
Y0059277
X0026931Y0058067
X0025731
X0024541Y0058077
Y0059277
Y0060477
X0024281Y00559919
X00376708Y0053892
X00392607Y0053892
X0042681Y00567219
Y00573569
Y00579919
X0043681Y0059192
X0043581Y0060017
X0043681Y00609919
X0043981Y00618919
X0045841Y0060477
X0047041
X0048241
Y0059277
X0048231Y0058067
X0047031
X0045841Y0058077
Y0059277
X0045581Y00559919
X0044256Y00568429
X0047281Y0063315
X0045581Y0072492
X0044256Y00733429
X0042681Y00732219
Y00738569
Y0074492
X0043681Y0075692
X0043581Y0076517
X0043681Y0077492
X0043981Y0078392
X0045841Y0076977
X0047041
X0048241
Y0075777
X0048231Y0074567
X0047031
X0045841Y0074577
Y0075777
X0047281Y0079815
X0045581Y0088992
X0044256Y00898429
X0042681Y00897219
Y00903569
Y0090992
X0043681Y0092192
X0045841Y0092277
Y0091077
X0047031Y0091067
X0048231
X0048241Y0092277
X00392607Y0086892
X00376708Y0086892
Y0070392
X00392607Y0070392
X0043581Y0093017
X0043681Y0093992
X0043981Y0094892
X0045841Y0093477
X0047041
X0048241
X0047281Y0096315
X0025981
X0025741Y0093477
X0026941
X0024541
X0022381Y0093992
X0022281Y0093017
X0022681Y0094892
T03
X-00091427Y0052042
X-0005219Y00623919
T04
X012911Y0018877
Y0020147
Y0021417
Y0022687
Y0023957
Y0025227
Y0026497
Y0027767
Y0029037
Y0030307
Y0031577
Y0032847
Y0034117
Y0035387
Y0036657
Y0037927
Y0039197
Y0040467
Y0041737
Y0043007
Y0044277
Y0045547
Y0046817
Y0048087
Y0049357
Y0050627
Y0051897
X013165
Y0050627
Y0049357
Y0048087
Y0046817
Y0045547
Y0044277
Y0043007
Y0041737
Y0040467
Y0039197
Y0037927
Y0036657
Y0035387
Y0034117
Y0032847
Y0031577
Y0030307
Y0029037
Y0027767
Y0026497
Y0025227
Y0023957
Y0022687
Y0021417
Y0020147
Y0018877
X01019455Y0018897
Y0020167
Y0021437
Y0022707
Y0023977
Y0025247
Y0026517
Y0027787
Y0029057
Y0030327
Y0031597
Y0032867
Y0034137
Y0035407
Y0036677
Y0037947
Y0039217
Y0040487
Y0041757
Y0043027
Y0044297
Y0045567
Y0046837
Y0048107
Y0049377
Y0050647
Y0051917
X00994055
Y0050647
Y0049377
Y0048107
Y0046837
Y0045567
Y0044297
Y0043027
Y0041757
Y0040487
Y0039217
Y0037947
Y0036677
Y0035407
Y0034137
Y0032867
Y0031597
Y0030327
Y0029057
Y0027787
Y0026517
Y0025247
Y0023977
Y0022707
Y0021437
Y0020167
Y0018897
X0072241Y0018897
Y0020167
Y0021437
Y0022707
Y0023977
Y0025247
Y0026517
Y0027787
Y0029057
Y0030327
Y0031597
Y0032867
Y0034137
Y0035407
Y0036677
Y0037947
Y0039217
Y0040487
Y0041757
Y0043027
Y0044297
Y0045567
Y0046837
Y0048107
Y0049377
Y0050647
Y0051917
X0069701
Y0050647
Y0049377
Y0048107
Y0046837
Y0045567
Y0044297
Y0043027
Y0041757
Y0040487
Y0039217
Y0037947
Y0036677
Y0035407
Y0034137
Y0032867
Y0031597
Y0030327
Y0029057
Y0027787
Y0026517
Y0025247
Y0023977
Y0022707
Y0021437
Y0020167
Y0018897
Y0053187
Y0054457
Y0055727
Y0056997
Y0058267
Y0059537
Y0060807
Y0062077
Y0063347
Y0064617
Y0065887
Y0067157
Y0068427
Y0069697
Y0070967
Y0072237
Y0073507
Y0074777
Y0076047
Y0077317
Y0078587
Y0079857
Y0081127
X0072241
Y0079857
Y0078587
Y0077317
Y0076047
Y0074777
Y0073507
Y0072237
Y0070967
Y0069697
Y0068427
Y0067157
Y0065887
Y0064617
Y0063347
Y0062077
Y0060807
Y0059537
Y0058267
Y0056997
Y0055727
Y0054457
Y0053187
X00994055Y0053187
Y0054457
Y0055727
Y0056997
Y0058267
Y0059537
Y0060807
Y0062077
Y0063347
Y0064617
Y0065887
Y0067157
Y0068427
Y0069697
Y0070967
Y0072237
Y0073507
Y0074777
Y0076047
Y0077317
Y0078587
Y0079857
Y0081127
X01019455
Y0079857
Y0078587
Y0077317
Y0076047
Y0074777
Y0073507
Y0072237
Y0070967
Y0069697
Y0068427
Y0067157
Y0065887
Y0064617
Y0063347
Y0062077
Y0060807
Y0059537
Y0058267
Y0056997
Y0055727
Y0054457
Y0053187
X012911Y0053167
Y0054437
Y0055707
Y0056977
Y0058247
Y0059517
Y0060787
Y0062057
Y0063327
Y0064597
Y0065867
Y0067137
Y0068407
Y0069677
Y0070947
Y0072217
Y0073487
Y0074757
Y0076027
Y0077297
Y0078567
Y0079837
Y0081107
X013165
Y0079837
Y0078567
Y0077297
Y0076027
Y0074757
Y0073487
Y0072217
Y0070947
Y0069677
Y0068407
Y0067137
Y0065867
Y0064597
Y0063327
Y0062057
Y0060787
Y0059517
Y0058247
Y0056977
Y0055707
Y0054437
Y0053167
T05
X0025741Y00097769
X0047041
X0046281Y00026021
Y00191021
X0047041Y0026277
X0046281Y00356021
X0047041Y0042777
X0046281Y00520919
X0025741Y0042777
Y0026277
X-00047727Y0034812
X-00069227
X-00093228Y0035072
X-00093028Y0036842
Y0039242
Y0041642
X-0004883Y0042553
X-0004844Y00440975
X-0004868Y0045642
X-00053927Y0064092
X-00078927Y0063022
X0010141Y0060142
X0013941
X0013461Y0078722
Y0082572
X0008361
Y0078722
X0004621Y0090122
X0015431Y0092242
X0025741Y0092277
Y0075777
Y0059277
X0047041
X0046281Y00685919
X0047041Y0075777
X0046281Y00850919
X0047041Y0092277
T06
X0005461Y0095242
X0008001
X0010541
M30
