G04*
G04 #@! TF.GenerationSoftware,Altium Limited,Altium Designer,20.0.13 (296)*
G04*
G04 Layer_Color=32896*
%FSLAX25Y25*%
%MOIN*%
G70*
G01*
G75*
%ADD71C,0.00013*%
G36*
X314561Y183876D02*
X314930Y183723D01*
X315246Y183480D01*
X315246Y183479D01*
X315247Y183479D01*
X315490Y183163D01*
X315642Y182794D01*
X315678Y182526D01*
X315694Y182398D01*
X315694Y182265D01*
Y161288D01*
X315683D01*
X315729Y161058D01*
X315859Y160863D01*
X316054Y160733D01*
X316284Y160687D01*
X316287Y160688D01*
X316417Y160698D01*
X330948D01*
Y160696D01*
X331168Y160653D01*
X331355Y160528D01*
X331425Y160423D01*
X331480Y160341D01*
X331524Y160120D01*
X331480Y159899D01*
X331355Y159712D01*
X331251Y159642D01*
X331168Y159587D01*
X330948Y159543D01*
Y159542D01*
X316067D01*
X316067Y159542D01*
X315676Y159594D01*
X315306Y159747D01*
X315083Y159918D01*
X314983Y159998D01*
X314745Y160307D01*
X314592Y160677D01*
X314540Y161074D01*
X314542Y161087D01*
X314541Y161087D01*
X314540Y161088D01*
Y182054D01*
X314551Y182184D01*
X314551Y182184D01*
X314506Y182415D01*
X314375Y182610D01*
X314179Y182741D01*
X313950Y182787D01*
X313950Y182776D01*
X313950Y182776D01*
X296702D01*
X296702Y182776D01*
X296702Y182787D01*
X296474Y182741D01*
X296278Y182610D01*
X296147Y182415D01*
X296101Y182184D01*
X296112Y182184D01*
Y161207D01*
X296112Y161074D01*
X296095Y160944D01*
X296060Y160677D01*
X295907Y160308D01*
X295664Y159990D01*
X295346Y159747D01*
X294977Y159594D01*
X294583Y159542D01*
Y159542D01*
X288329D01*
X288326Y159544D01*
X288326D01*
X288108Y159587D01*
X288021Y159645D01*
X287917Y159718D01*
X287796Y159899D01*
X287775Y160007D01*
X287753Y160126D01*
X287755Y160131D01*
X287777Y160256D01*
X287796Y160352D01*
X287921Y160539D01*
X288108Y160664D01*
X288326Y160707D01*
X288326Y160707D01*
Y160707D01*
X288329Y160709D01*
X294236D01*
X294366Y160699D01*
X294368Y160698D01*
X294598Y160744D01*
X294792Y160874D01*
X294793Y160874D01*
X294924Y161069D01*
X294969Y161299D01*
X294969Y161299D01*
X294958Y161429D01*
Y182265D01*
Y182398D01*
X294975Y182528D01*
X295010Y182794D01*
X295163Y183163D01*
X295406Y183479D01*
X295406Y183479D01*
X295406Y183480D01*
X295723Y183723D01*
X296092Y183876D01*
X296487Y183928D01*
X296487Y183927D01*
X314165D01*
X314166Y183928D01*
X314561Y183876D01*
D02*
G37*
G36*
X337626D02*
X337994Y183723D01*
X338311Y183480D01*
X338311Y183479D01*
X338311Y183479D01*
X338554Y183163D01*
X338707Y182794D01*
X338759Y182399D01*
X338759Y182398D01*
Y167169D01*
X338757D01*
X338713Y166948D01*
X338658Y166866D01*
X338588Y166761D01*
X338401Y166636D01*
X338307Y166617D01*
X338180Y166592D01*
Y166592D01*
X337961Y166636D01*
X337775Y166760D01*
X337650Y166946D01*
X337607Y167166D01*
X337607Y167169D01*
X337605Y167169D01*
X337605Y167169D01*
Y182181D01*
X337616Y182192D01*
X337570Y182423D01*
X337439Y182619D01*
X337243Y182750D01*
X337012Y182796D01*
Y182785D01*
X322011D01*
X321881Y182796D01*
X321879Y182797D01*
X321878Y182797D01*
X321755Y182747D01*
X321704Y182624D01*
X321705Y182623D01*
X321745Y182525D01*
X321828Y182421D01*
X337798Y160779D01*
X337798Y160777D01*
X337798Y160777D01*
X337882Y160721D01*
X337925Y160712D01*
X337927Y160712D01*
X354646D01*
X354776Y160702D01*
X354779Y160701D01*
X355009Y160747D01*
X355203Y160876D01*
X355203D01*
X355204Y160877D01*
X355334Y161072D01*
X355380Y161302D01*
Y161302D01*
X355369Y161432D01*
Y183235D01*
X355371Y183235D01*
X355415Y183455D01*
X355540Y183642D01*
X355727Y183767D01*
X355945Y183811D01*
Y183811D01*
X356074Y183786D01*
X356165Y183767D01*
X356247Y183712D01*
X356352Y183642D01*
X356477Y183455D01*
X356521Y183235D01*
X356523D01*
Y161207D01*
Y161074D01*
X356523D01*
X356506Y160944D01*
X356471Y160677D01*
X356318Y160308D01*
X356074Y159990D01*
X355757Y159747D01*
X355388Y159594D01*
X354994Y159542D01*
Y159542D01*
X337935D01*
X337927Y159549D01*
X337927D01*
X337628Y159589D01*
X337293Y159727D01*
X337006Y159947D01*
X336886Y160104D01*
X336886D01*
X336868Y160107D01*
X320166Y182712D01*
X320166Y182713D01*
X320175Y182720D01*
X320096Y182822D01*
X320023Y182999D01*
X319998Y183189D01*
X320023Y183379D01*
X320096Y183556D01*
X320213Y183707D01*
X320365Y183824D01*
X320542Y183897D01*
X320732Y183922D01*
X320778Y183916D01*
X320779Y183927D01*
X337230D01*
X337230Y183928D01*
X337626Y183876D01*
D02*
G37*
G36*
X306632Y152424D02*
X307428Y152265D01*
X308171Y152013D01*
X308172Y152010D01*
Y152010D01*
X308172Y152010D01*
X308751Y151725D01*
X309308Y151352D01*
X309812Y150910D01*
X310048Y150641D01*
X310049Y150641D01*
X310257Y150404D01*
X310707Y149730D01*
X311066Y149003D01*
X311251Y148457D01*
Y148457D01*
X311259Y148453D01*
X311487Y147541D01*
X311638Y146523D01*
X311689Y145495D01*
X311638Y144467D01*
X311487Y143449D01*
X311259Y142539D01*
X311251Y142534D01*
X311193Y142333D01*
X310919Y141672D01*
X310573Y141046D01*
X310159Y140463D01*
X310042Y140332D01*
X310040Y140333D01*
X309787Y140044D01*
X309294Y139612D01*
X308749Y139248D01*
X308180Y138968D01*
X308169Y138972D01*
D01*
X308169D01*
X308169D01*
X307928Y138872D01*
X307208Y138665D01*
X306469Y138539D01*
X305721Y138497D01*
X304973Y138539D01*
X304234Y138665D01*
X303514Y138872D01*
X303273Y138972D01*
X303263Y138968D01*
X302700Y139246D01*
X302141Y139620D01*
X301635Y140064D01*
X301390Y140342D01*
X301388Y140340D01*
X301282Y140459D01*
X300872Y141036D01*
X300530Y141656D01*
X300259Y142310D01*
X300192Y142543D01*
X300192D01*
X300183Y142547D01*
X299960Y143438D01*
X299809Y144457D01*
X299759Y145487D01*
X299809Y146517D01*
X299960Y147536D01*
X300184Y148428D01*
X300191Y148432D01*
X300191D01*
X300191Y148432D01*
X300375Y148974D01*
X300735Y149704D01*
X301187Y150381D01*
X301396Y150619D01*
X301396Y150619D01*
X301646Y150904D01*
X302148Y151344D01*
X302703Y151715D01*
X303265Y151992D01*
X303276Y151988D01*
X303600Y152121D01*
X304275Y152316D01*
X304968Y152434D01*
X305616Y152470D01*
X305750Y152469D01*
X305884Y152472D01*
X306632Y152424D01*
D02*
G37*
G36*
X336187Y152467D02*
X336320Y152470D01*
X336680Y152454D01*
X336813Y152448D01*
X337148Y152432D01*
X337148Y152431D01*
X337331Y152422D01*
X337591Y152384D01*
X337723Y152366D01*
X338008Y152318D01*
X338008Y152318D01*
Y152318D01*
X338272Y152273D01*
X338402Y152240D01*
X338557Y152209D01*
X338769Y152137D01*
X338769Y152137D01*
X338987Y152063D01*
X339112Y152020D01*
X339129Y152014D01*
X339237Y151973D01*
X339428Y151879D01*
X339551Y151827D01*
X339883Y151624D01*
X339992Y151556D01*
X340094Y151474D01*
X340408Y151206D01*
X340745Y150811D01*
X341031Y150344D01*
X341130Y150104D01*
X341130D01*
X341181Y149981D01*
X341253Y149809D01*
X341247Y149796D01*
X341314Y149598D01*
X341346Y149469D01*
X341372Y149342D01*
X341461Y148896D01*
X341446Y148839D01*
X341374Y148762D01*
X340124D01*
X340104Y148974D01*
X339968Y149421D01*
X339747Y149834D01*
X339451Y150195D01*
X339121Y150466D01*
X339089Y150492D01*
X339009Y150535D01*
Y150535D01*
X338808Y150643D01*
X338811Y150650D01*
X338590Y150742D01*
Y150742D01*
X338356Y150838D01*
X338357Y150840D01*
X338334Y150849D01*
X338230Y150874D01*
X338107Y150904D01*
X338101Y150914D01*
X337948Y150945D01*
X337824Y150969D01*
X337823Y150970D01*
X337822Y150970D01*
X337701Y150994D01*
X337532Y151027D01*
X337527Y151023D01*
X337351Y151053D01*
X337250Y151070D01*
X337221Y151074D01*
Y151074D01*
X337023Y151085D01*
X336890Y151093D01*
X336305Y151122D01*
X336191Y151128D01*
X336173Y151127D01*
X336039Y151126D01*
X335960Y151131D01*
X335252Y151084D01*
X334557Y150946D01*
X334143Y150806D01*
X334141Y150810D01*
X334141Y150811D01*
X334073Y150790D01*
X334017Y150760D01*
X333642Y150559D01*
X333264Y150249D01*
X333104Y150055D01*
X333022Y149954D01*
X332824Y149632D01*
X332650Y149211D01*
X332552Y148802D01*
X332544Y148769D01*
X332536Y148670D01*
X332521Y148537D01*
X332468Y148134D01*
X332426Y147174D01*
X332424Y147128D01*
Y147128D01*
X332428Y147054D01*
X332437Y147049D01*
X332437Y147049D01*
X332442Y147047D01*
X332442Y147047D01*
X332442D01*
X334034Y147047D01*
Y147046D01*
X334044Y147046D01*
X334667Y147026D01*
X334801Y147021D01*
X334934Y147017D01*
X335395Y147000D01*
X335528Y146992D01*
X335661Y146985D01*
X335662Y146985D01*
X336083Y146936D01*
X336215Y146920D01*
X336348Y146905D01*
X336864Y146837D01*
X336864Y146836D01*
X337042Y146812D01*
X337472Y146717D01*
Y146717D01*
X337603Y146690D01*
X338042Y146580D01*
X338042Y146579D01*
Y146579D01*
X338251Y146527D01*
X338571Y146413D01*
X338699Y146373D01*
X339062Y146222D01*
X339185Y146171D01*
X339697Y145918D01*
X339816Y145839D01*
X339924Y145766D01*
X340244Y145570D01*
X340722Y145162D01*
X341129Y144685D01*
X341458Y144149D01*
X341698Y143569D01*
X341844Y142958D01*
X341891Y142361D01*
X341889Y142270D01*
X341885Y142228D01*
X341885D01*
X341885Y142094D01*
X341847Y141616D01*
X341715Y141067D01*
X341613Y140821D01*
X341563Y140699D01*
X341563D01*
X341499Y140546D01*
X341211Y140076D01*
X340853Y139657D01*
X340691Y139518D01*
X340691Y139518D01*
X340430Y139296D01*
X339907Y138975D01*
X339508Y138810D01*
X339381Y138767D01*
X339073Y138662D01*
X338433Y138535D01*
X337875Y138498D01*
X337743Y138495D01*
X337610Y138497D01*
X336791Y138537D01*
X336446Y138589D01*
X336313Y138603D01*
X335670Y138731D01*
X335282Y138863D01*
X335159Y138905D01*
X335033Y138950D01*
X334470Y139184D01*
X333952Y139470D01*
X333838Y139540D01*
X333838D01*
X333442Y139778D01*
X332702Y140326D01*
X332652Y140372D01*
X332560Y140455D01*
X332447Y140558D01*
X332429Y140549D01*
X332427Y140543D01*
X332427Y140395D01*
Y140272D01*
Y138833D01*
X331047D01*
Y147520D01*
X331047Y147520D01*
X331053Y147520D01*
X331048Y147604D01*
X331093Y148408D01*
X331228Y149202D01*
X331338Y149583D01*
X331334Y149584D01*
X331365Y149710D01*
X331593Y150262D01*
X331905Y150771D01*
X332222Y151142D01*
X332316Y151235D01*
X332709Y151571D01*
X333240Y151897D01*
X333800Y152129D01*
X333811Y152124D01*
X334404Y152295D01*
X335205Y152431D01*
X336016Y152476D01*
X336187Y152467D01*
D02*
G37*
G36*
X296402Y138833D02*
X295023D01*
Y148549D01*
X295021Y148553D01*
X295025Y148557D01*
X294459Y149181D01*
X293720Y149850D01*
X293012Y150376D01*
X292919Y150445D01*
X292903Y150454D01*
X292899Y150447D01*
X292504Y150689D01*
X291920Y150931D01*
X291306Y151078D01*
X290702Y151126D01*
Y151126D01*
X290586Y151130D01*
X290569Y151128D01*
X289909Y151076D01*
X289362Y150945D01*
X289247Y150918D01*
X289232Y150911D01*
X289107Y150862D01*
X289097Y150859D01*
X288705Y150650D01*
X288362Y150368D01*
X288262Y150246D01*
X288262Y150245D01*
X288178Y150143D01*
X288107Y150056D01*
X287857Y149588D01*
X287718Y149129D01*
X287717Y149129D01*
X287593Y148400D01*
X287551Y147653D01*
X287549Y147617D01*
X287555Y147520D01*
X287561Y147387D01*
Y138833D01*
X286181D01*
Y147640D01*
X286181Y147640D01*
X286183Y147640D01*
X286182Y147662D01*
X286219Y148426D01*
X286230Y148558D01*
X286230D01*
X286239Y148704D01*
X286331Y149248D01*
X286359Y149379D01*
X286416Y149666D01*
X286564Y150103D01*
X286607Y150230D01*
X286753Y150582D01*
X287027Y151029D01*
X287367Y151427D01*
X287766Y151767D01*
X288206Y152037D01*
X288208Y152037D01*
X288208Y152037D01*
Y152037D01*
X288700Y152241D01*
X288828Y152274D01*
X288957Y152310D01*
X289554Y152429D01*
X290181Y152470D01*
X290294Y152471D01*
X290314Y152470D01*
Y152470D01*
X290446Y152464D01*
X291012Y152432D01*
X291340Y152377D01*
X291471Y152354D01*
X291843Y152280D01*
X292357Y152105D01*
X292482Y152061D01*
X292601Y152005D01*
X293147Y151735D01*
X293708Y151361D01*
X293709Y151355D01*
X293889Y151227D01*
X294593Y150598D01*
X294798Y150368D01*
X294880Y150276D01*
X294992Y150151D01*
X295007Y150156D01*
X295007Y150156D01*
X295012Y150158D01*
X295014Y150163D01*
X295014Y150327D01*
Y150327D01*
X295014Y150451D01*
X295023Y157631D01*
X296402D01*
Y138833D01*
D02*
G37*
G36*
X276506Y152467D02*
Y152467D01*
X276640Y152464D01*
X277181Y152433D01*
X277446Y152388D01*
X277446Y152388D01*
X277446Y152388D01*
D01*
X277456Y152395D01*
X278049Y152252D01*
X278482Y152073D01*
X278482D01*
X278482Y152073D01*
X278992Y151822D01*
X279635Y151392D01*
X279638Y151378D01*
Y151378D01*
X279876Y151201D01*
X280524Y150613D01*
X280747Y150367D01*
X280830Y150276D01*
X280830D01*
X280943Y150151D01*
X280956Y150156D01*
X280957Y150156D01*
X280957Y150156D01*
X280962Y150158D01*
X280962Y150158D01*
X280964Y150163D01*
Y150327D01*
X280964Y150451D01*
Y152133D01*
X282344D01*
Y138833D01*
X280964D01*
Y148515D01*
Y148515D01*
X280962Y148519D01*
X280964Y148521D01*
X280819Y148717D01*
X280176Y149426D01*
X279468Y150068D01*
X278971Y150437D01*
X278975Y150444D01*
X278509Y150729D01*
X277981Y150948D01*
X277425Y151081D01*
X276886Y151124D01*
Y151124D01*
X276787Y151127D01*
X276753Y151124D01*
X276265Y151086D01*
X275756Y150963D01*
X275751Y150961D01*
X275627Y150912D01*
X275567Y150893D01*
X275505Y150860D01*
X275248Y150723D01*
X274969Y150494D01*
X274787Y150272D01*
X274780Y150276D01*
X274780Y150276D01*
X274765Y150258D01*
X274713Y150160D01*
X274508Y149777D01*
X274358Y149284D01*
X274350Y149256D01*
X274340Y149153D01*
X274342Y149152D01*
X274248Y148515D01*
X274205Y147652D01*
X274205Y147638D01*
X274211Y147520D01*
X274216Y147387D01*
Y138828D01*
X272836D01*
Y148510D01*
X272834Y148514D01*
X272835Y148514D01*
X272668Y148740D01*
X272091Y149377D01*
X271454Y149954D01*
X270802Y150438D01*
X270800Y150434D01*
X270380Y150691D01*
X269807Y150928D01*
X269205Y151073D01*
X268762Y151108D01*
X268635Y151119D01*
Y151119D01*
X268631Y151120D01*
X268480Y151110D01*
X268346Y151102D01*
X268073Y151080D01*
Y151080D01*
X267963Y151071D01*
X267941Y151066D01*
X267818Y151036D01*
X267818Y151036D01*
X267579Y150978D01*
X267580Y150975D01*
X267454Y150937D01*
X267356Y150908D01*
X267319Y150895D01*
X267155Y150808D01*
X267155D01*
X267153Y150807D01*
X267153Y150807D01*
X267038Y150745D01*
X266965Y150706D01*
Y150706D01*
X266958Y150700D01*
X266868Y150627D01*
X266865Y150624D01*
X266862Y150621D01*
X266699Y150487D01*
X266522Y150272D01*
X266521Y150273D01*
X266521Y150273D01*
X266484Y150228D01*
X266411Y150091D01*
X266410Y150091D01*
X266410D01*
X266304Y149893D01*
X266308Y149891D01*
X266216Y149670D01*
X266216Y149670D01*
X266173Y149568D01*
X266170Y149556D01*
X266170Y149556D01*
X266168Y149547D01*
X266136Y149427D01*
X266118Y149374D01*
X266102Y149292D01*
X266075Y149162D01*
X266019Y148876D01*
X266019D01*
X266000Y148744D01*
X265992Y148698D01*
X265968Y148570D01*
X265957Y148374D01*
X265949Y148240D01*
X265920Y147652D01*
X265914Y147540D01*
X265915Y147520D01*
X265926Y147390D01*
Y138833D01*
X264641D01*
X264547Y138928D01*
X264563Y147640D01*
X264565Y147640D01*
X264563Y147669D01*
X264600Y148425D01*
X264610Y148558D01*
X264624Y148797D01*
X264700Y149248D01*
X264724Y149380D01*
X264750Y149510D01*
X264809Y149811D01*
X264909Y150104D01*
X264909Y150104D01*
X264909Y150104D01*
X265019Y150427D01*
X265168Y150730D01*
X265227Y150851D01*
X265431Y151185D01*
X265739Y151546D01*
X266100Y151854D01*
X266389Y152031D01*
X266389D01*
X266505Y152099D01*
X266821Y152230D01*
X266943Y152279D01*
X267067Y152308D01*
X267545Y152423D01*
X268148Y152471D01*
X268279Y152472D01*
X268281Y152472D01*
Y152472D01*
X268413Y152465D01*
X268984Y152433D01*
X269454Y152353D01*
X269454Y152352D01*
X269833Y152277D01*
X270477Y152058D01*
X270655Y151970D01*
X270654Y151969D01*
X271071Y151764D01*
X271690Y151350D01*
X271831Y151226D01*
X271830Y151225D01*
X272243Y150863D01*
X272778Y150253D01*
X272925Y150032D01*
X272956Y150039D01*
X272977Y150128D01*
X272990Y150159D01*
X272994Y150171D01*
X273181Y150621D01*
X273458Y151074D01*
X273803Y151478D01*
X274174Y151795D01*
X274287Y151866D01*
X274400Y151936D01*
X274579Y152046D01*
X275153Y152283D01*
X275757Y152428D01*
X276377Y152477D01*
X276506Y152467D01*
D02*
G37*
G36*
X327319Y156268D02*
X315649D01*
X315646Y156267D01*
X315644Y156267D01*
X315644Y156266D01*
X315644Y156266D01*
X315643Y156266D01*
X315642Y156264D01*
X315641Y156262D01*
X315641Y156261D01*
X315641Y156261D01*
X315642Y156259D01*
X315643Y156256D01*
X315743Y156134D01*
X315821Y156039D01*
X328445Y140644D01*
Y138833D01*
X313871D01*
Y140193D01*
X326765D01*
X326889Y140193D01*
X327047D01*
X327049Y140194D01*
X327051Y140195D01*
X327052Y140195D01*
X327052Y140195D01*
X327052Y140195D01*
X327053Y140198D01*
X327054Y140200D01*
X327054Y140200D01*
X327054Y140200D01*
X327054Y140200D01*
X327053Y140203D01*
X327052Y140205D01*
X326952Y140327D01*
Y140327D01*
X326874Y140423D01*
X314228Y155801D01*
Y157631D01*
X327319D01*
Y156268D01*
D02*
G37*
G36*
X356944Y152140D02*
X356946Y152135D01*
X356951Y152133D01*
X358659D01*
Y150773D01*
X356951D01*
X356946Y150770D01*
X356944Y150765D01*
Y142623D01*
X356944Y142623D01*
X356939Y142623D01*
X356943Y142501D01*
X356896Y141310D01*
X356846Y140880D01*
X356845Y140880D01*
X356828Y140662D01*
X356710Y140172D01*
X356540Y139761D01*
X356474Y139644D01*
X356474D01*
X356414Y139532D01*
X356198Y139268D01*
X355934Y139052D01*
X355655Y138903D01*
X355647Y138906D01*
X355424Y138813D01*
X354892Y138686D01*
X354347Y138643D01*
X354208Y138654D01*
X354080Y138644D01*
X354031Y138645D01*
X353972Y138645D01*
X353972D01*
X353929Y138646D01*
X353796Y138662D01*
X353796Y138662D01*
X353621Y138673D01*
X353486Y138670D01*
X353444Y138674D01*
X353326Y138684D01*
X353208Y138695D01*
X353038Y138713D01*
X353036Y139892D01*
X353087Y139958D01*
X353159Y140008D01*
X353164Y140009D01*
X353223Y140007D01*
X353223Y140007D01*
X353253Y140007D01*
X353254Y140007D01*
X353284Y140007D01*
X353340Y140006D01*
X353538D01*
X353669Y139999D01*
X353715Y139995D01*
X353803Y140002D01*
X354301Y140041D01*
X354348Y140053D01*
X354477Y140083D01*
X354544Y140092D01*
X354604Y140116D01*
X354811Y140202D01*
X354985Y140336D01*
X355040Y140378D01*
X355079Y140428D01*
X355077Y140430D01*
X355077Y140430D01*
X355077Y140430D01*
X355078Y140431D01*
X355194Y140573D01*
X355352Y140869D01*
X355449Y141188D01*
X355441Y141189D01*
X355529Y141629D01*
X355577Y142371D01*
X355569Y142507D01*
X355569Y142507D01*
X355569D01*
X355564Y142511D01*
Y150768D01*
X355562Y150773D01*
X355557Y150775D01*
X353364D01*
Y152135D01*
X355557D01*
X355562Y152138D01*
X355564Y152143D01*
Y155624D01*
X356944D01*
Y152140D01*
D02*
G37*
G36*
X382613Y146711D02*
X382612Y146530D01*
X382607Y146525D01*
X382590Y145961D01*
X382590D01*
X382586Y145827D01*
X382574Y145387D01*
X382574Y145387D01*
X382574D01*
X382581Y145379D01*
X382552Y144817D01*
X382539Y144805D01*
X382522Y144445D01*
X382381Y143498D01*
X382236Y142919D01*
X382236Y142918D01*
X382236D01*
X382237Y142918D01*
X382088Y142401D01*
X381787Y141674D01*
X381528Y141205D01*
X381528D01*
Y141205D01*
X381530Y141196D01*
X381207Y140712D01*
X380800Y140249D01*
X380379Y139880D01*
X380271Y139801D01*
X380271D01*
X380162Y139727D01*
X379750Y139453D01*
X379029Y139097D01*
X378287Y138845D01*
X378274Y138852D01*
X377621Y138689D01*
X376608Y138539D01*
X375585Y138488D01*
X375379Y138498D01*
X375378Y138501D01*
X375089Y138487D01*
X374137Y138534D01*
X373195Y138673D01*
X372271Y138905D01*
X371839Y139059D01*
X371838Y139058D01*
X371650Y139122D01*
X371054Y139416D01*
X370502Y139785D01*
X370002Y140223D01*
X369621Y140657D01*
X369622Y140663D01*
X369622Y140663D01*
X369622D01*
X369328Y141076D01*
X368985Y141697D01*
X368714Y142352D01*
X368518Y143034D01*
X368482Y143243D01*
X368483Y143244D01*
X368344Y143944D01*
X368192Y145229D01*
X368141Y146522D01*
X368149Y146708D01*
X368142Y146708D01*
X368142Y146708D01*
Y157631D01*
X369522D01*
Y146766D01*
X369520Y146764D01*
Y146764D01*
X369506Y146424D01*
X369555Y145280D01*
X369705Y144145D01*
X369898Y143273D01*
X369897Y143273D01*
X369916Y143177D01*
X369927Y143143D01*
X370123Y142568D01*
X370408Y141990D01*
X370766Y141454D01*
X370932Y141264D01*
X371018Y141166D01*
X371018Y141166D01*
X371018Y141166D01*
X371013Y141161D01*
X371048Y141119D01*
X371109Y141068D01*
X371499Y140735D01*
X372005Y140425D01*
X372552Y140198D01*
X372859Y140124D01*
X372860Y140124D01*
X372859Y140123D01*
X373211Y140035D01*
X374236Y139883D01*
X375238Y139834D01*
X375272Y139832D01*
X375371Y139837D01*
X375478Y139832D01*
X376485Y139882D01*
X377481Y140030D01*
X377857Y140124D01*
X377987Y140155D01*
X378146Y140194D01*
X378714Y140429D01*
X379239Y140751D01*
X379706Y141149D01*
X379699Y141156D01*
X380000Y141500D01*
X380351Y142025D01*
X380630Y142591D01*
X380815Y143135D01*
X380833Y143188D01*
X380848Y143265D01*
X380848Y143265D01*
X381052Y144189D01*
X381200Y145308D01*
X381249Y146436D01*
X381235Y146764D01*
X381235Y146764D01*
X381235D01*
X381233Y146766D01*
Y157631D01*
X382613D01*
Y146711D01*
D02*
G37*
G36*
X363287Y138833D02*
X361908D01*
Y157631D01*
X363287D01*
Y138833D01*
D02*
G37*
G36*
X344418Y152473D02*
X344418D01*
X345181Y152423D01*
X345333Y152393D01*
X345338Y152396D01*
X345949Y152250D01*
X346376Y152073D01*
X346376Y152073D01*
X346859Y151835D01*
X347382Y151485D01*
X347489Y151405D01*
X347628Y151306D01*
X348227Y150771D01*
X348458Y150512D01*
X348541Y150420D01*
X348655Y150292D01*
X348667Y150295D01*
X348667Y150295D01*
X348672Y150297D01*
X348675Y150302D01*
Y150305D01*
X348675Y150309D01*
X348675Y150310D01*
Y150471D01*
X348675Y150595D01*
Y152133D01*
X350054D01*
Y138833D01*
X348675D01*
Y148362D01*
X348673Y148365D01*
X348678Y148368D01*
X348627Y148460D01*
X348611Y148483D01*
X348187Y149080D01*
X348017Y149270D01*
X347928Y149370D01*
X347928Y149371D01*
X347927Y149371D01*
X347839Y149470D01*
X347642Y149690D01*
X347091Y150183D01*
X346998Y150253D01*
X346977Y150272D01*
X346889Y150330D01*
X346437Y150633D01*
X345937Y150880D01*
X345935Y150875D01*
X345672Y150984D01*
X345237Y151089D01*
X344916Y151114D01*
X344791Y151124D01*
X344786Y151123D01*
X344655Y151116D01*
X344411D01*
X344281Y151125D01*
X344266Y151127D01*
X344148Y151115D01*
X343973Y151098D01*
X343874Y151188D01*
X343887Y152451D01*
X344159Y152476D01*
X344415D01*
X344418Y152473D01*
D02*
G37*
%LPC*%
G36*
X305759Y151126D02*
X305083Y151082D01*
X304419Y150950D01*
X303883Y150768D01*
X303885Y150763D01*
X303607Y150648D01*
X303087Y150329D01*
X302624Y149934D01*
X302522Y149814D01*
X302434Y149714D01*
X302434D01*
Y149714D01*
X302290Y149548D01*
X301935Y149017D01*
X301652Y148444D01*
X301488Y147960D01*
X301488Y147960D01*
X301314Y147268D01*
X301184Y146389D01*
X301140Y145501D01*
X301184Y144613D01*
X301314Y143734D01*
X301488Y143042D01*
X301530Y142918D01*
X301657Y142543D01*
X301949Y141952D01*
X302315Y141404D01*
X302434Y141268D01*
X302435Y141269D01*
X302436Y141269D01*
X302653Y141014D01*
X303108Y140626D01*
X303618Y140313D01*
X303885Y140203D01*
X303882Y140195D01*
X304445Y140004D01*
X305062Y139881D01*
X305617Y139845D01*
X305689Y139840D01*
X305750Y139844D01*
X305819Y139840D01*
X306452Y139882D01*
X307074Y140005D01*
X307635Y140196D01*
X307632Y140203D01*
X307899Y140313D01*
X308409Y140626D01*
X308863Y141014D01*
X309081Y141269D01*
X309082Y141269D01*
X309083Y141269D01*
X309083Y141268D01*
X309199Y141400D01*
X309558Y141938D01*
X309845Y142518D01*
X310022Y143041D01*
X310019Y143042D01*
X310178Y143676D01*
X310313Y144584D01*
X310357Y145501D01*
X310313Y146418D01*
X310178Y147326D01*
X310019Y147960D01*
X310022Y147961D01*
X309850Y148469D01*
X309573Y149031D01*
X309225Y149551D01*
X309082Y149714D01*
X308995Y149814D01*
X308995Y149815D01*
X308893Y149934D01*
X308430Y150329D01*
X307910Y150648D01*
X307632Y150763D01*
X307634Y150768D01*
X307098Y150950D01*
X306434Y151082D01*
X305759Y151126D01*
D02*
G37*
G36*
X303273Y138972D02*
X303273D01*
D01*
X303273D01*
D02*
G37*
G36*
X341247Y149796D02*
Y149796D01*
D01*
Y149796D01*
D02*
G37*
G36*
X334557Y145698D02*
X334528Y145697D01*
X334398Y145687D01*
X332434D01*
X332429Y145685D01*
X332427Y145679D01*
Y142211D01*
X332429Y142206D01*
X332429Y142206D01*
X332673Y141936D01*
X333282Y141384D01*
X333287Y141385D01*
X333455Y141234D01*
X334138Y140750D01*
X334368Y140623D01*
X334368Y140623D01*
X334797Y140386D01*
X335458Y140112D01*
X335626Y140063D01*
Y140063D01*
X335626D01*
X335629Y140065D01*
X335843Y139992D01*
X336411Y139879D01*
X336988Y139841D01*
X337007Y139839D01*
X337010Y139839D01*
X337193Y139849D01*
X337326Y139857D01*
Y139857D01*
X337631Y139874D01*
X337764Y139885D01*
X337881Y139892D01*
X337923Y139901D01*
X337923Y139902D01*
X338069Y139931D01*
X338198Y139956D01*
X338198Y139956D01*
X338199Y139957D01*
Y139957D01*
X338200Y139957D01*
X338330Y139983D01*
X338465Y140009D01*
X338470Y140017D01*
X338705Y140074D01*
X338949Y140175D01*
X338949Y140175D01*
Y140175D01*
X339208Y140282D01*
X339576Y140508D01*
X339578Y140505D01*
X339895Y140765D01*
X340162Y141091D01*
X340361Y141463D01*
X340483Y141866D01*
X340524Y142285D01*
X340521Y142364D01*
X340526Y142412D01*
X340518Y142497D01*
X340474Y142943D01*
X340319Y143453D01*
X340068Y143923D01*
X339730Y144335D01*
X339318Y144673D01*
X339030Y144827D01*
X339029Y144828D01*
X338838Y144945D01*
X338719Y144994D01*
X338597Y145050D01*
X338503Y145096D01*
X338376Y145139D01*
X338376Y145140D01*
X338001Y145267D01*
X338001Y145266D01*
X337598Y145382D01*
X337598Y145383D01*
X337468Y145421D01*
X337169Y145472D01*
X337163Y145480D01*
X336697Y145549D01*
X336697Y145549D01*
X336697Y145549D01*
X336201Y145615D01*
Y145615D01*
X336197Y145612D01*
X335898Y145647D01*
X335807Y145650D01*
X335674Y145658D01*
X334661Y145694D01*
X334557Y145698D01*
D02*
G37*
%LPD*%
D71*
X382589Y145387D02*
G03*
X382610Y145960I-32723J1458D01*
G01*
X315702Y182398D02*
G03*
X315251Y183485I-1536J0D01*
G01*
X356359Y183649D02*
G03*
X355945Y183820I-414J-414D01*
G01*
X320065Y183525D02*
G03*
X320160Y182708I667J-337D01*
G01*
X337426Y182606D02*
G03*
X337012Y182778I-414J-414D01*
G01*
X338766Y182398D02*
G03*
X338316Y183485I-1536J0D01*
G01*
X315251Y183485D02*
G03*
X314165Y183935I-1086J-1086D01*
G01*
X314533Y182184D02*
G03*
X313950Y182769I-586J0D01*
G01*
X320779Y183935D02*
G03*
X320065Y183525I-47J-746D01*
G01*
X321741Y182694D02*
G03*
X321755Y182532I137J-70D01*
G01*
X338316Y183485D02*
G03*
X337230Y183935I-1086J-1086D01*
G01*
X337598Y182192D02*
G03*
X337426Y182606I-586J0D01*
G01*
X355945Y183820D02*
G03*
X355362Y183235I3J-586D01*
G01*
X356530Y183235D02*
G03*
X356359Y183649I-586J0D01*
G01*
X296702Y182769D02*
G03*
X296119Y182184I3J-586D01*
G01*
X321880Y182777D02*
G03*
X321741Y182694I-3J-153D01*
G01*
X296487Y183935D02*
G03*
X295401Y183485I0J-1536D01*
G01*
D02*
G03*
X294951Y182398I1086J-1086D01*
G01*
X333031Y149948D02*
G03*
X332545Y148669I2376J-1633D01*
G01*
X332545D02*
G03*
X332442Y147054I11429J-1541D01*
G01*
X332211Y151153D02*
G03*
X331319Y149589I2774J-2619D01*
G01*
X331319D02*
G03*
X331040Y147520I6909J-1984D01*
G01*
X334146Y150799D02*
G03*
X333031Y149948I882J-2314D01*
G01*
X335629Y140072D02*
G03*
X337007Y139858I1359J4191D01*
G01*
X338946Y140181D02*
G03*
X339569Y140518I-1133J2837D01*
G01*
X339388Y138748D02*
G03*
X340704Y139503I-1257J3713D01*
G01*
X339569Y140518D02*
G03*
X340506Y142364I-1195J1767D01*
G01*
X355072Y140435D02*
G03*
X355434Y141190I-1300J1088D01*
G01*
X355434Y141190D02*
G03*
X355557Y142506I-5547J1181D01*
G01*
X353129Y140019D02*
G03*
X353161Y140017I129J1715D01*
G01*
X353062Y140026D02*
G03*
X353129Y140020I178J1486D01*
G01*
X353028Y140030D02*
G03*
X353062Y140026I195J1331D01*
G01*
X354475Y140092D02*
G03*
X355072Y140435I-217J1068D01*
G01*
X332434Y140543D02*
G03*
X333828Y139523I6219J7033D01*
G01*
X340704Y139503D02*
G03*
X341579Y140691I-2334J2637D01*
G01*
X341579Y140691D02*
G03*
X341900Y142228I-3287J1488D01*
G01*
X332434Y142211D02*
G03*
X333290Y141394I7180J6667D01*
G01*
X339118Y152034D02*
G03*
X338774Y152154I-1864J-4810D01*
G01*
X336889Y151085D02*
G03*
X336173Y151108I-698J-10448D01*
G01*
Y151108D02*
G03*
X334146Y150799I-213J-5397D01*
G01*
X333806Y152140D02*
G03*
X332211Y151153I1237J-3782D01*
G01*
X338096Y150899D02*
G03*
X337823Y150963I-1289J-4884D01*
G01*
X338351Y150823D02*
G03*
X338096Y150899I-1345J-4059D01*
G01*
X337219Y151056D02*
G03*
X336889Y151085I-893J-8226D01*
G01*
X337530Y151015D02*
G03*
X337219Y151056I-1070J-6955D01*
G01*
X337823Y150963D02*
G03*
X337530Y151015I-1199J-5845D01*
G01*
X339999Y151566D02*
G03*
X339437Y151897I-2164J-3030D01*
G01*
X339437Y151897D02*
G03*
X339118Y152034I-1939J-4042D01*
G01*
X340851Y150674D02*
G03*
X339999Y151566I-2784J-1809D01*
G01*
X338587Y150735D02*
G03*
X338351Y150823I-1378J-3358D01*
G01*
X341900Y142228D02*
G03*
X339934Y145783I-4008J105D01*
G01*
X339069Y146240D02*
G03*
X338578Y146431I-2894J-6731D01*
G01*
X308176Y152020D02*
G03*
X305750Y152483I-2353J-5743D01*
G01*
Y152483D02*
G03*
X303269Y152006I-81J-6276D01*
G01*
X336187Y152483D02*
G03*
X333806Y152140I-171J-7248D01*
G01*
X338774Y152154D02*
G03*
X338406Y152255I-1764J-5718D01*
G01*
X338406D02*
G03*
X338012Y152337I-1627J-6781D01*
G01*
X338012D02*
G03*
X337593Y152401I-1440J-8015D01*
G01*
X337593Y152401D02*
G03*
X337150Y152447I-1194J-9437D01*
G01*
X337150Y152447D02*
G03*
X336681Y152474I-875J-11060D01*
G01*
X334802Y147041D02*
G03*
X334034Y147054I-758J-22560D01*
G01*
X336867Y146851D02*
G03*
X336218Y146940I-2233J-13873D01*
G01*
X335673Y145645D02*
G03*
X334528Y145679I-1116J-18102D01*
G01*
X335529Y147003D02*
G03*
X334802Y147041I-1376J-19296D01*
G01*
X336218Y146940D02*
G03*
X335529Y147003I-1862J-16409D01*
G01*
X336200Y145602D02*
G03*
X335673Y145645I-1419J-14156D01*
G01*
X336696Y145542D02*
G03*
X336200Y145602I-1695J-11902D01*
G01*
X336681Y152474D02*
G03*
X336187Y152483I-473J-12901D01*
G01*
X334372Y140630D02*
G03*
X335629Y140072I3194J5506D01*
G01*
X336443Y138569D02*
G03*
X337743Y138483I1281J9449D01*
G01*
X333828Y139523D02*
G03*
X335152Y138887I3817J6255D01*
G01*
X337743Y138483D02*
G03*
X339388Y138748I39J4999D01*
G01*
X337921Y139917D02*
G03*
X338198Y139963I-710J5108D01*
G01*
X335153Y138887D02*
G03*
X336443Y138569I2103J5762D01*
G01*
X338461Y140023D02*
G03*
X338946Y140181I-954J3737D01*
G01*
X338198Y139963D02*
G03*
X338461Y140023I-875J4486D01*
G01*
X337325Y139864D02*
G03*
X337630Y139884I-277J6618D01*
G01*
X337630Y139884D02*
G03*
X337921Y139917I-513J5816D01*
G01*
X337007Y139858D02*
G03*
X337325Y139864I3J7520D01*
G01*
X333290Y141394D02*
G03*
X334372Y140630I4820J5677D01*
G01*
X348667Y150302D02*
G03*
X347499Y151418I-5507J-4599D01*
G01*
X345932Y150868D02*
G03*
X344786Y151108I-1141J-2596D01*
G01*
X346384Y152090D02*
G03*
X345335Y152408I-1772J-3957D01*
G01*
X347923Y149366D02*
G03*
X346989Y150241I-4942J-4336D01*
G01*
X346989D02*
G03*
X345932Y150868I-3038J-3914D01*
G01*
X341361Y149472D02*
G03*
X341266Y149802I-4401J-1095D01*
G01*
X341266D02*
G03*
X341149Y150112I-3881J-1284D01*
G01*
X344281Y151108D02*
G03*
X343866Y151075I-15J-2412D01*
G01*
X347499Y151418D02*
G03*
X346384Y152090I-3661J-4814D01*
G01*
X345335Y152408D02*
G03*
X344418Y152483I-967J-6159D01*
G01*
X341149Y150112D02*
G03*
X340851Y150674I-3334J-1406D01*
G01*
X314977Y159992D02*
G03*
X316067Y159534I1095J1081D01*
G01*
X354994D02*
G03*
X356530Y161074I-3J1539D01*
G01*
X330948Y159534D02*
G03*
X331362Y159706I0J586D01*
G01*
X331533Y160120D02*
G03*
X331362Y160534I-586J0D01*
G01*
D02*
G03*
X330948Y160705I-414J-414D01*
G01*
X331362Y159706D02*
G03*
X331533Y160120I-414J414D01*
G01*
X338180Y166583D02*
G03*
X338595Y166755I0J586D01*
G01*
D02*
G03*
X338766Y167169I-414J414D01*
G01*
X337768Y166755D02*
G03*
X338180Y166583I413J411D01*
G01*
X337598Y167169D02*
G03*
X337768Y166755I583J-3D01*
G01*
X353669Y140014D02*
G03*
X354475Y140092I46J3725D01*
G01*
X355655Y138887D02*
G03*
X356491Y139635I-687J1611D01*
G01*
X356491Y139635D02*
G03*
X356865Y140878I-2834J1529D01*
G01*
X356865D02*
G03*
X356951Y142623I-15101J1623D01*
G01*
X354207Y138636D02*
G03*
X355655Y138887I140J3491D01*
G01*
X353619Y138653D02*
G03*
X353795Y138643I408J5762D01*
G01*
X341487Y148755D02*
G03*
X341361Y149472I-5396J-581D01*
G01*
X348667Y148362D02*
G03*
X347923Y149366I-5778J-3507D01*
G01*
X372861Y140131D02*
G03*
X375371Y139852I2411J10263D01*
G01*
X371832Y139041D02*
G03*
X375379Y138483I3257J9155D01*
G01*
X368464Y143240D02*
G03*
X369607Y140652I6220J1202D01*
G01*
D02*
G03*
X371832Y139041I3987J3162D01*
G01*
X371024Y141171D02*
G03*
X372861Y140131I2696J2619D01*
G01*
X369908Y143276D02*
G03*
X371024Y141171I4764J1176D01*
G01*
X369529Y146764D02*
G03*
X369908Y143276I13101J-341D01*
G01*
X368135Y146708D02*
G03*
X368464Y143240I16489J-186D01*
G01*
X381544Y141196D02*
G03*
X382255Y142913I-6077J3522D01*
G01*
X375371Y139852D02*
G03*
X377855Y140131I108J10246D01*
G01*
X377855Y140131D02*
G03*
X379692Y141162I-921J3793D01*
G01*
X375379Y138483D02*
G03*
X378279Y138834I206J10440D01*
G01*
X378279Y138834D02*
G03*
X380281Y139788I-1604J5947D01*
G01*
X379692Y141163D02*
G03*
X380836Y143268I-3520J3274D01*
G01*
X380836Y143268D02*
G03*
X381226Y146764I-12529J3169D01*
G01*
X380281Y139788D02*
G03*
X381544Y141196I-2811J3792D01*
G01*
X382255Y142913D02*
G03*
X382559Y144804I-9437J2487D01*
G01*
X314533Y161088D02*
G03*
X314977Y159992I1539J-14D01*
G01*
X315873Y160875D02*
G03*
X316287Y160705I411J413D01*
G01*
X315702Y161288D02*
G03*
X315873Y160875I583J0D01*
G01*
X337804Y160784D02*
G03*
X337927Y160719I200J233D01*
G01*
X354776Y160719D02*
G03*
X355190Y160889I3J583D01*
G01*
D02*
G03*
X355362Y161302I-411J413D01*
G01*
X382610Y145960D02*
G03*
X382619Y146525I-28627J773D01*
G01*
X338714Y144984D02*
G03*
X338372Y145130I-2120J-4495D01*
G01*
X287910Y159711D02*
G03*
X288326Y159534I419J409D01*
G01*
X288326Y160717D02*
G03*
X287743Y160131I3J-586D01*
G01*
X294779Y160886D02*
G03*
X294951Y161299I-411J413D01*
G01*
X294366Y160717D02*
G03*
X294779Y160886I3J583D01*
G01*
X294583Y159534D02*
G03*
X296119Y161074I-3J1539D01*
G01*
X336870Y160092D02*
G03*
X337927Y159534I1116J835D01*
G01*
X287743Y160131D02*
G03*
X287910Y159711I585J-11D01*
G01*
X295007Y150163D02*
G03*
X293719Y151368I-6366J-5517D01*
G01*
X292486Y152070D02*
G03*
X291343Y152396I-1948J-4659D01*
G01*
X290314Y152483D02*
G03*
X288824Y152289I-68J-5308D01*
G01*
X290702Y151108D02*
G03*
X289238Y150894I-115J-4312D01*
G01*
X295015Y148549D02*
G03*
X292893Y150439I-7742J-6554D01*
G01*
X291343Y152396D02*
G03*
X290314Y152483I-1053J-6368D01*
G01*
X293719Y151368D02*
G03*
X292486Y152070I-3404J-4539D01*
G01*
X274795Y150266D02*
G03*
X274351Y149151I2279J-1552D01*
G01*
Y149151D02*
G03*
X274223Y147520I8807J-1513D01*
G01*
X287732Y149126D02*
G03*
X287568Y147520I6805J-1508D01*
G01*
X292893Y150439D02*
G03*
X290702Y151108I-2216J-3335D01*
G01*
X301381Y150631D02*
G03*
X300174Y148437I4742J-4039D01*
G01*
X302440Y149708D02*
G03*
X301498Y147958I3723J-3133D01*
G01*
X280957Y148515D02*
G03*
X278966Y150431I-7672J-5981D01*
G01*
X272940Y150043D02*
G03*
X271842Y151239I-5083J-3566D01*
G01*
X278966Y150431D02*
G03*
X276886Y151108I-2110J-2947D01*
G01*
X279649Y151393D02*
G03*
X278489Y152090I-3738J-4906D01*
G01*
X277449Y152408D02*
G03*
X276507Y152483I-969J-6190D01*
G01*
X276507Y152483D02*
G03*
X274276Y151883I-130J-3966D01*
G01*
X274276Y151883D02*
G03*
X272940Y150043I1920J-2798D01*
G01*
X275631Y150902D02*
G03*
X274795Y150266I642J-1713D01*
G01*
X271842Y151239D02*
G03*
X270662Y151987I-3617J-4404D01*
G01*
X276886Y151108D02*
G03*
X275631Y150902I-99J-3319D01*
G01*
X278489Y152090D02*
G03*
X277449Y152408I-1771J-3936D01*
G01*
X280957Y150163D02*
G03*
X279649Y151393I-6735J-5852D01*
G01*
X288203Y152047D02*
G03*
X286546Y150110I1525J-2981D01*
G01*
X289238Y150894D02*
G03*
X288268Y150241I727J-2129D01*
G01*
X286339Y149383D02*
G03*
X286215Y148560I7044J-1484D01*
G01*
X286546Y150110D02*
G03*
X286339Y149383I5055J-1833D01*
G01*
X288824Y152289D02*
G03*
X288203Y152047I1028J-3554D01*
G01*
X288268Y150241D02*
G03*
X287732Y149126I2090J-1690D01*
G01*
X286215Y148560D02*
G03*
X286174Y147640I9702J-898D01*
G01*
X272829Y148510D02*
G03*
X270794Y150425I-6929J-5324D01*
G01*
X266226Y149667D02*
G03*
X266148Y149424I3417J-1226D01*
G01*
X265987Y148568D02*
G03*
X265957Y148240I7801J-875D01*
G01*
X264593Y148560D02*
G03*
X264556Y147640I10776J-891D01*
G01*
X266029Y148875D02*
G03*
X265987Y148568I6431J-1032D01*
G01*
X266148Y149424D02*
G03*
X266083Y149160I4255J-1198D01*
G01*
X264890Y150110D02*
G03*
X264704Y149383I5555J-1809D01*
G01*
X266083Y149160D02*
G03*
X266029Y148875I5254J-1137D01*
G01*
X265957Y148240D02*
G03*
X265934Y147520I10244J-700D01*
G01*
X266417Y150088D02*
G03*
X266315Y149888I2154J-1219D01*
G01*
X266316Y149888D02*
G03*
X266226Y149667I2722J-1230D01*
G01*
X264704Y149383D02*
G03*
X264593Y148560I7803J-1475D01*
G01*
X266530Y150266D02*
G03*
X266417Y150088I1696J-1202D01*
G01*
X270794Y150425D02*
G03*
X268635Y151103I-2207J-3254D01*
G01*
X270662Y151987D02*
G03*
X269458Y152371I-2176J-4735D01*
G01*
X268347Y151094D02*
G03*
X268075Y151069I240J-4094D01*
G01*
X266380Y152047D02*
G03*
X265151Y150739I1495J-2637D01*
G01*
X269458Y152371D02*
G03*
X268281Y152483I-1191J-6301D01*
G01*
X266974Y150693D02*
G03*
X266530Y150266I935J-1416D01*
G01*
X267361Y150893D02*
G03*
X267158Y150802I804J-2040D01*
G01*
X267582Y150969D02*
G03*
X267361Y150893I704J-2422D01*
G01*
X267819Y151027D02*
G03*
X267582Y150969I584J-2887D01*
G01*
X268075Y151069D02*
G03*
X267819Y151027I433J-3442D01*
G01*
X266939Y152289D02*
G03*
X266380Y152047I962J-2987D01*
G01*
X267158Y150802D02*
G03*
X266974Y150693I894J-1729D01*
G01*
X268281Y152483D02*
G03*
X266939Y152289I-60J-4332D01*
G01*
X268635Y151103D02*
G03*
X268347Y151094I-4J-4850D01*
G01*
X265151Y150739D02*
G03*
X264890Y150110I3910J-1987D01*
G01*
X310064Y150654D02*
G03*
X308176Y152020I-3875J-3367D01*
G01*
X311268Y148462D02*
G03*
X310064Y150654I-5928J-1831D01*
G01*
X309076Y149708D02*
G03*
X307629Y150757I-2931J-2523D01*
G01*
X310011Y143045D02*
G03*
X310011Y147958I-9006J2457D01*
G01*
X311268Y142529D02*
G03*
X311268Y148462I-10067J2967D01*
G01*
X310011Y147958D02*
G03*
X309076Y149708I-4584J-1321D01*
G01*
X339003Y150525D02*
G03*
X338805Y150636I-1400J-2276D01*
G01*
X339025Y144821D02*
G03*
X338714Y144984I-2101J-3632D01*
G01*
X337161Y145465D02*
G03*
X336696Y145542I-1890J-9935D01*
G01*
X338805Y150636D02*
G03*
X338587Y150735I-1393J-2767D01*
G01*
X338578Y146431D02*
G03*
X338047Y146596I-2819J-8119D01*
G01*
X337476Y146736D02*
G03*
X336867Y146851I-2505J-11664D01*
G01*
X338047Y146596D02*
G03*
X337476Y146736I-2694J-9754D01*
G01*
X337595Y145370D02*
G03*
X337161Y145465I-2018J-8232D01*
G01*
X337999Y145259D02*
G03*
X337595Y145370I-2091J-6773D01*
G01*
X340118Y148755D02*
G03*
X339003Y150525I-2354J-246D01*
G01*
X339934Y145783D02*
G03*
X339069Y146240I-3165J-4935D01*
G01*
X338372Y145130D02*
G03*
X337999Y145259I-2121J-5535D01*
G01*
X340506Y142364D02*
G03*
X339025Y144821I-2699J48D01*
G01*
X305750Y139858D02*
G03*
X307629Y140209I69J4832D01*
G01*
X303266Y138954D02*
G03*
X308176Y138954I2455J6225D01*
G01*
X300174Y142537D02*
G03*
X301375Y140329I6045J1858D01*
G01*
D02*
G03*
X303266Y138954I3898J3374D01*
G01*
X303888Y140209D02*
G03*
X305750Y139857I1801J4436D01*
G01*
X310055Y140320D02*
G03*
X311268Y142529I-4883J4119D01*
G01*
X308176Y138954D02*
G03*
X310055Y140320I-1932J4632D01*
G01*
X302440Y141274D02*
G03*
X303888Y140209I2907J2434D01*
G01*
X307629D02*
G03*
X309076Y141274I-1460J3500D01*
G01*
X309076Y141274D02*
G03*
X310011Y143045I-3802J3138D01*
G01*
X301498D02*
G03*
X302440Y141274I4812J1425D01*
G01*
X307629Y150757D02*
G03*
X303888Y150757I-1871J-4807D01*
G01*
X303269Y152006D02*
G03*
X301381Y150631I1987J-4712D01*
G01*
X303888Y150757D02*
G03*
X302440Y149708I1484J-3571D01*
G01*
X301498Y147958D02*
G03*
X301498Y143045I8699J-2457D01*
G01*
X300174Y148437D02*
G03*
X300174Y142537I10089J-2950D01*
G01*
X321880Y182777D02*
X337012D01*
X320779Y183935D02*
X337230D01*
X296487D02*
X314165D01*
X296702Y182769D02*
X313950D01*
X331040Y138826D02*
Y147520D01*
X332434Y142211D02*
Y145679D01*
X355362Y161302D02*
Y183235D01*
X356530Y161074D02*
Y183235D01*
X353325Y138676D02*
X353443Y138666D01*
X353561Y138657D01*
X313864Y140200D02*
X327047D01*
X353340Y140014D02*
X353669D01*
X353284Y140014D02*
X353340Y140014D01*
X353254Y140014D02*
X353284Y140014D01*
X353224Y140015D02*
X353254Y140014D01*
X353193Y140016D02*
X353224Y140015D01*
X353161Y140017D02*
X353193Y140016D01*
X353357Y150768D02*
Y152143D01*
X358666Y150765D02*
Y152140D01*
X338766Y167169D02*
Y182398D01*
X337598Y167169D02*
Y182192D01*
X315649Y156261D02*
X328452Y140647D01*
X321755Y182532D02*
X337804Y160784D01*
X320160Y182708D02*
X336870Y160092D01*
X313864Y138826D02*
X328452D01*
X314221Y155798D02*
X327047Y140200D01*
X314221Y155798D02*
Y157638D01*
X327326Y156261D02*
Y157638D01*
X328452Y138826D02*
Y140647D01*
X332434Y138826D02*
Y140543D01*
X331040Y138826D02*
X332434D01*
X343866Y151075D02*
X343880Y152458D01*
X344159Y152483D02*
X344418D01*
X361900Y138826D02*
Y157638D01*
X363295Y138826D02*
Y157638D01*
X355557Y152143D02*
Y155631D01*
X356951Y152140D02*
Y155631D01*
X353972Y138638D02*
X354031Y138637D01*
X353028Y140030D02*
X353031Y138706D01*
X353207Y138687D01*
X353325Y138676D01*
X353561Y138657D02*
X353619Y138653D01*
X353795Y138643D02*
X353854Y138641D01*
X353913Y138639D01*
X353972Y138638D01*
X354031Y138637D02*
X354090Y138637D01*
X354149Y138636D01*
X354207Y138636D01*
X356951Y150765D02*
X358666D01*
X356951Y142623D02*
Y150765D01*
Y152140D02*
X358666D01*
X348667Y150302D02*
Y152140D01*
X344281Y151108D02*
X344786D01*
X343880Y152458D02*
X344159Y152483D01*
X348667Y152140D02*
X350061D01*
X353357Y150768D02*
X355557D01*
X353357Y152143D02*
X355557D01*
X348667Y138826D02*
X350061D01*
Y152140D01*
X355557Y142506D02*
Y150768D01*
X348667Y138826D02*
Y148362D01*
X361900Y138826D02*
X363295D01*
X382559Y144804D02*
X382589Y145387D01*
X316067Y159534D02*
X330948D01*
X316287Y160705D02*
X330948D01*
X337927Y159534D02*
X354994D01*
X337927Y160719D02*
X354776D01*
X314221Y157638D02*
X327326D01*
X315649Y156261D02*
X327326D01*
X295015Y157638D02*
X296409D01*
X355557Y155631D02*
X356951D01*
X361900Y157638D02*
X363295D01*
X368135D02*
X369529D01*
X381226D02*
X382620D01*
X295007Y150163D02*
X295015Y157638D01*
X332442Y147054D02*
X334034D01*
X332434Y145679D02*
X334528D01*
X340118Y148755D02*
X341487D01*
X368135Y146708D02*
Y157638D01*
X369529Y146764D02*
Y157638D01*
X381226Y146764D02*
Y157638D01*
X382620Y146711D02*
Y157638D01*
X382619Y146525D02*
X382620Y146711D01*
X288326Y159534D02*
X294583D01*
X288326Y160717D02*
X294366D01*
X295015Y138826D02*
X296409D01*
X295015D02*
Y148549D01*
X265934Y138826D02*
Y147520D01*
X264539Y138826D02*
X264556Y147640D01*
X274223Y138820D02*
Y147520D01*
X272829Y138820D02*
Y148510D01*
X264539Y138826D02*
X265934D01*
X272829Y138820D02*
X274223D01*
X280957Y150163D02*
Y152140D01*
X282351D01*
X280957Y138826D02*
X282351D01*
X280957D02*
Y148515D01*
X282351Y138826D02*
Y152140D01*
X287568Y138826D02*
Y147520D01*
X286174Y138826D02*
X287568D01*
X286174D02*
Y147640D01*
X314533Y161088D02*
Y182184D01*
X315702Y161288D02*
Y182398D01*
X313864Y138826D02*
Y140200D01*
X296119Y161074D02*
Y182184D01*
X296409Y138826D02*
Y157638D01*
X294951Y161299D02*
Y182398D01*
M02*
