G04*
G04 #@! TF.GenerationSoftware,Altium Limited,Altium Designer,20.0.13 (296)*
G04*
G04 Layer_Physical_Order=1*
G04 Layer_Color=255*
%FSLAX25Y25*%
%MOIN*%
G70*
G01*
G75*
%ADD19C,0.01000*%
%ADD27R,0.03150X0.04724*%
%ADD28R,0.03740X0.08465*%
%ADD29R,0.12795X0.08465*%
%ADD30R,0.06102X0.02362*%
%ADD31R,0.11024X0.02165*%
%ADD32R,0.10236X0.12205*%
%ADD33R,0.03150X0.03150*%
%ADD34R,0.05512X0.01772*%
%ADD35R,0.05906X0.15748*%
%ADD36R,0.08268X0.04724*%
%ADD37R,0.04724X0.02756*%
%ADD38R,0.02756X0.04724*%
%ADD39R,0.04724X0.03150*%
%ADD60C,0.02100*%
%ADD61C,0.00700*%
%ADD62C,0.06000*%
%ADD63C,0.05118*%
%ADD64C,0.03543*%
%ADD65C,0.10000*%
%ADD66R,0.05906X0.05906*%
%ADD67C,0.05906*%
%ADD68C,0.02362*%
%ADD69C,0.01968*%
%ADD70C,0.01772*%
G36*
X202500Y120000D02*
X264500Y120000D01*
Y110500D01*
X163500Y110500D01*
X137133Y84133D01*
X135041Y86224D01*
X135041Y103265D01*
X134883Y103648D01*
X134883Y103648D01*
X134148Y104383D01*
X134148Y104383D01*
X133765Y104541D01*
X133765Y104541D01*
X130500Y104541D01*
X130500Y104541D01*
X130117Y104383D01*
X130117Y104383D01*
X129884Y104150D01*
X129630D01*
Y103895D01*
X129251Y103516D01*
X129093Y103134D01*
X129093Y103134D01*
X129093Y85858D01*
X124117Y80883D01*
X123959Y80500D01*
X123959Y80500D01*
Y78500D01*
X61500D01*
X59865Y80135D01*
X59867Y80153D01*
X60309Y80814D01*
X60464Y81595D01*
X60464Y188976D01*
Y189551D01*
X60689Y190678D01*
X61128Y191740D01*
X61767Y192696D01*
X62580Y193509D01*
X63535Y194147D01*
X64597Y194587D01*
X65724Y194811D01*
X202500D01*
Y120000D01*
D02*
G37*
G36*
X134500Y103265D02*
X134500Y86000D01*
X139000Y81500D01*
Y71500D01*
X135000Y67500D01*
Y53846D01*
X132768D01*
Y51075D01*
Y48516D01*
Y45957D01*
Y43398D01*
Y40839D01*
Y38280D01*
Y35721D01*
X135000D01*
Y21169D01*
X132768D01*
Y18398D01*
Y15839D01*
Y13280D01*
Y10720D01*
Y8161D01*
Y5602D01*
Y3043D01*
X135000D01*
Y-11508D01*
X132768D01*
Y-14279D01*
Y-16839D01*
Y-19398D01*
Y-21957D01*
Y-24516D01*
Y-27075D01*
Y-29634D01*
X135000D01*
Y-44284D01*
X132768D01*
Y-47055D01*
Y-49614D01*
Y-52173D01*
Y-54732D01*
Y-57291D01*
Y-59850D01*
Y-62410D01*
X135000D01*
Y-76862D01*
X132768D01*
Y-77500D01*
X130000Y-77500D01*
Y67500D01*
X128772Y68728D01*
Y70362D01*
X127138D01*
X124500Y73000D01*
Y80500D01*
X129634Y85634D01*
X129634Y103134D01*
X130500Y104000D01*
X133765Y104000D01*
X134500Y103265D01*
D02*
G37*
G36*
X385012Y-183203D02*
X385732Y-183502D01*
X386381Y-183934D01*
X386932Y-184486D01*
X387365Y-185134D01*
X387663Y-185854D01*
X387815Y-186618D01*
Y-187008D01*
Y-187398D01*
X387663Y-188162D01*
X387365Y-188882D01*
X386932Y-189530D01*
X386381Y-190081D01*
X385732Y-190514D01*
X385012Y-190813D01*
X384248Y-190964D01*
X383469D01*
X382704Y-190813D01*
X381984Y-190514D01*
X381336Y-190081D01*
X380785Y-189530D01*
X380352Y-188882D01*
X380054Y-188162D01*
X379902Y-187398D01*
Y-187008D01*
Y-186618D01*
X380054Y-185854D01*
X380352Y-185134D01*
X380785Y-184486D01*
X381336Y-183934D01*
X381984Y-183502D01*
X382704Y-183203D01*
X383469Y-183051D01*
X384248D01*
X385012Y-183203D01*
D02*
G37*
G36*
X70052D02*
X70772Y-183502D01*
X71420Y-183934D01*
X71971Y-184486D01*
X72404Y-185134D01*
X72702Y-185854D01*
X72854Y-186618D01*
Y-187008D01*
Y-187398D01*
X72702Y-188162D01*
X72404Y-188882D01*
X71971Y-189530D01*
X71420Y-190081D01*
X70772Y-190514D01*
X70052Y-190813D01*
X69287Y-190964D01*
X68508D01*
X67743Y-190813D01*
X67023Y-190514D01*
X66375Y-190081D01*
X65824Y-189530D01*
X65391Y-188882D01*
X65093Y-188162D01*
X64941Y-187398D01*
Y-187008D01*
Y-186618D01*
X65093Y-185854D01*
X65391Y-185134D01*
X65824Y-184486D01*
X66375Y-183934D01*
X67023Y-183502D01*
X67743Y-183203D01*
X68508Y-183051D01*
X69287D01*
X70052Y-183203D01*
D02*
G37*
%LPC*%
G36*
X175000Y185901D02*
Y180421D01*
X180480D01*
X180413Y181097D01*
X180070Y182229D01*
X179513Y183271D01*
X178763Y184184D01*
X177849Y184934D01*
X176807Y185491D01*
X175676Y185834D01*
X175000Y185901D01*
D02*
G37*
G36*
X174000D02*
X173324Y185834D01*
X172193Y185491D01*
X171151Y184934D01*
X170237Y184184D01*
X169487Y183271D01*
X168930Y182229D01*
X168587Y181097D01*
X168520Y180421D01*
X174000D01*
Y185901D01*
D02*
G37*
G36*
X69557Y193704D02*
X68238D01*
X66945Y193446D01*
X65726Y192942D01*
X64629Y192209D01*
X63697Y191276D01*
X62964Y190180D01*
X62459Y188961D01*
X62202Y187667D01*
Y186348D01*
X62459Y185055D01*
X62964Y183836D01*
X63697Y182740D01*
X64629Y181807D01*
X65726Y181074D01*
X66945Y180569D01*
X68238Y180312D01*
X69557D01*
X70851Y180569D01*
X72069Y181074D01*
X73166Y181807D01*
X74099Y182740D01*
X74831Y183836D01*
X75336Y185055D01*
X75593Y186348D01*
Y187667D01*
X75336Y188961D01*
X74831Y190180D01*
X74099Y191276D01*
X73166Y192209D01*
X72069Y192942D01*
X70851Y193446D01*
X69557Y193704D01*
D02*
G37*
G36*
X180480Y179421D02*
X175000D01*
Y173942D01*
X175676Y174008D01*
X176807Y174351D01*
X177849Y174908D01*
X178763Y175658D01*
X179513Y176572D01*
X180070Y177614D01*
X180413Y178745D01*
X180480Y179421D01*
D02*
G37*
G36*
X174000D02*
X168520D01*
X168587Y178745D01*
X168930Y177614D01*
X169487Y176572D01*
X170237Y175658D01*
X171151Y174908D01*
X172193Y174351D01*
X173324Y174008D01*
X174000Y173942D01*
Y179421D01*
D02*
G37*
G36*
X90854Y175965D02*
Y172941D01*
X93878D01*
X93822Y173370D01*
X93463Y174236D01*
X92893Y174979D01*
X92149Y175550D01*
X91283Y175908D01*
X90854Y175965D01*
D02*
G37*
G36*
X89854D02*
X89425Y175908D01*
X88560Y175550D01*
X87816Y174979D01*
X87246Y174236D01*
X86887Y173370D01*
X86830Y172941D01*
X89854D01*
Y175965D01*
D02*
G37*
G36*
X93878Y171941D02*
X90854D01*
Y168917D01*
X91283Y168974D01*
X92149Y169332D01*
X92893Y169903D01*
X93463Y170646D01*
X93822Y171512D01*
X93878Y171941D01*
D02*
G37*
G36*
X89854D02*
X86830D01*
X86887Y171512D01*
X87246Y170646D01*
X87816Y169903D01*
X88560Y169332D01*
X89425Y168974D01*
X89854Y168917D01*
Y171941D01*
D02*
G37*
G36*
X83177Y153721D02*
Y150697D01*
X86201D01*
X86145Y151126D01*
X85786Y151992D01*
X85216Y152735D01*
X84472Y153306D01*
X83606Y153664D01*
X83177Y153721D01*
D02*
G37*
G36*
X82177D02*
X81748Y153664D01*
X80882Y153306D01*
X80139Y152735D01*
X79568Y151992D01*
X79210Y151126D01*
X79153Y150697D01*
X82177D01*
Y153721D01*
D02*
G37*
G36*
X107496Y150094D02*
X102862D01*
Y147232D01*
X107496D01*
Y150094D01*
D02*
G37*
G36*
X101862D02*
X97228D01*
Y147232D01*
X101862D01*
Y150094D01*
D02*
G37*
G36*
X86201Y149697D02*
X83177D01*
Y146673D01*
X83606Y146729D01*
X84472Y147088D01*
X85216Y147659D01*
X85786Y148402D01*
X86145Y149268D01*
X86201Y149697D01*
D02*
G37*
G36*
X82177D02*
X79153D01*
X79210Y149268D01*
X79568Y148402D01*
X80139Y147659D01*
X80882Y147088D01*
X81748Y146729D01*
X82177Y146673D01*
Y149697D01*
D02*
G37*
G36*
X126984Y147531D02*
X124122D01*
Y145457D01*
X126984D01*
Y147531D01*
D02*
G37*
G36*
X123122D02*
X120260D01*
Y145457D01*
X123122D01*
Y147531D01*
D02*
G37*
G36*
X107496Y146232D02*
X102862D01*
Y143370D01*
X107496D01*
Y146232D01*
D02*
G37*
G36*
X101862D02*
X97228D01*
Y143370D01*
X101862D01*
Y146232D01*
D02*
G37*
G36*
X119701Y146744D02*
X114567D01*
X109433D01*
Y143882D01*
X112552D01*
X113016Y143795D01*
X113016Y143382D01*
Y141720D01*
X119740D01*
Y143398D01*
X119740Y143795D01*
X119701Y144279D01*
Y146744D01*
D02*
G37*
G36*
X123909Y143283D02*
X120358D01*
Y141602D01*
X123909D01*
Y143283D01*
D02*
G37*
G36*
X102500Y187041D02*
X102117Y186883D01*
Y186883D01*
X95617Y180383D01*
X95459Y180000D01*
X95459Y180000D01*
Y162000D01*
X95617Y161617D01*
X95617Y161617D01*
X106117Y151117D01*
X106500Y150959D01*
X106500Y150959D01*
X109079D01*
X109433Y150606D01*
X109433Y150459D01*
Y147744D01*
X114567D01*
X119701D01*
Y150220D01*
X119982Y150382D01*
X120260Y150222D01*
Y148531D01*
X123622D01*
X126984D01*
Y148597D01*
X127446Y148788D01*
X127959Y148276D01*
Y147000D01*
X127959Y147000D01*
X128117Y146617D01*
X128117Y146617D01*
X128617Y146117D01*
X129000Y145959D01*
X129000Y145959D01*
X135000D01*
X135000Y145959D01*
X135383Y146117D01*
X136883Y147617D01*
X137041Y148000D01*
X137041Y148000D01*
Y165638D01*
X138075D01*
Y166003D01*
X138461Y166320D01*
X138681Y166276D01*
X138936Y166327D01*
X139323Y166010D01*
Y165638D01*
X140959D01*
Y140705D01*
X135539D01*
Y134102D01*
X141157D01*
Y138924D01*
X141619Y139115D01*
X142117Y138617D01*
X142500Y138459D01*
X142500Y138459D01*
X150681D01*
Y137122D01*
X149221D01*
Y137784D01*
X142118D01*
Y134421D01*
X149221D01*
Y135083D01*
X150681D01*
Y134539D01*
X156405D01*
Y138689D01*
X156405D01*
X156273Y139008D01*
X157383Y140117D01*
X157541Y140500D01*
X157541Y140500D01*
Y165000D01*
X157541Y165000D01*
X157383Y165383D01*
X157383Y165383D01*
X151383Y171383D01*
X151000Y171541D01*
X151000Y171541D01*
X145000D01*
X144617Y171383D01*
X144617Y171383D01*
X143541Y170306D01*
X143079Y170497D01*
Y171362D01*
X139323D01*
Y170990D01*
X138936Y170673D01*
X138681Y170724D01*
X138461Y170680D01*
X138075Y170997D01*
Y171362D01*
X137041D01*
Y175000D01*
X137041Y175000D01*
X136883Y175383D01*
X136883Y175383D01*
X125383Y186883D01*
X125000Y187041D01*
X125000Y187041D01*
X102500D01*
X102500Y187041D01*
D02*
G37*
G36*
X156362Y133378D02*
X150638D01*
Y131064D01*
X150527Y130953D01*
X149830Y130814D01*
X149661Y130702D01*
X149221Y130937D01*
Y132783D01*
X142118D01*
Y129421D01*
X148195D01*
X148512Y129035D01*
X148457Y128760D01*
X148552Y128284D01*
X148155Y127784D01*
X142118D01*
Y124421D01*
X149221D01*
Y125024D01*
X150638D01*
Y123323D01*
X152524D01*
Y121862D01*
X151622D01*
Y116138D01*
X155378D01*
Y121862D01*
X154563D01*
Y123323D01*
X156362D01*
Y125024D01*
X157638D01*
Y123413D01*
X163362D01*
Y127563D01*
X157638D01*
Y127063D01*
X156362D01*
Y127079D01*
X152782D01*
X152515Y127579D01*
X152736Y127909D01*
X152905Y128760D01*
X152833Y129122D01*
X153243Y129622D01*
X156362D01*
Y133378D01*
D02*
G37*
G36*
X160500Y136724D02*
X159649Y136555D01*
X158928Y136073D01*
X158446Y135351D01*
X158276Y134500D01*
X158446Y133649D01*
X158535Y133516D01*
X158299Y133075D01*
X157638D01*
Y128925D01*
X163362D01*
Y133075D01*
X162701D01*
X162466Y133516D01*
X162555Y133649D01*
X162724Y134500D01*
X162555Y135351D01*
X162073Y136073D01*
X161351Y136555D01*
X160500Y136724D01*
D02*
G37*
G36*
X141157Y133102D02*
X135539D01*
Y126500D01*
X141157D01*
Y133102D01*
D02*
G37*
G36*
X82677Y144751D02*
X81539Y144601D01*
X80479Y144162D01*
X80322Y144041D01*
X77500D01*
X77117Y143883D01*
X76959Y143500D01*
Y129000D01*
X77117Y128617D01*
X77117Y128617D01*
X81117Y124617D01*
X81500Y124459D01*
X81500Y124459D01*
X105500D01*
X105883Y124617D01*
X106041Y125000D01*
Y129776D01*
X109224Y132959D01*
X120431D01*
X120625Y132879D01*
X120704Y132321D01*
X120505Y132122D01*
X119240D01*
Y132390D01*
X113516D01*
Y129682D01*
X112806Y128972D01*
X112114D01*
Y130815D01*
X108358D01*
Y125091D01*
X112114D01*
Y126933D01*
X113016D01*
Y125303D01*
X115878D01*
Y127378D01*
X114749D01*
X114558Y127840D01*
X114958Y128240D01*
X119240D01*
Y130083D01*
X120858D01*
Y129421D01*
X127961D01*
Y132608D01*
X127961Y132783D01*
X128023Y133258D01*
X128421Y133656D01*
X128921Y133449D01*
Y126500D01*
X134539D01*
Y133602D01*
Y140705D01*
X128921D01*
Y140705D01*
X128461Y140800D01*
Y143283D01*
X124909D01*
Y141102D01*
X124409D01*
Y140602D01*
X120358D01*
Y139041D01*
X119740D01*
Y140720D01*
X113016D01*
Y139041D01*
X91724D01*
X86883Y143883D01*
X86500Y144041D01*
X86500Y144041D01*
X85033D01*
X84876Y144162D01*
X83815Y144601D01*
X82677Y144751D01*
D02*
G37*
G36*
X119740Y127378D02*
X116878D01*
Y125303D01*
X119740D01*
Y127378D01*
D02*
G37*
G36*
X149579Y122362D02*
X147701D01*
Y119500D01*
X149579D01*
Y122362D01*
D02*
G37*
G36*
X146701D02*
X144823D01*
Y119500D01*
X146701D01*
Y122362D01*
D02*
G37*
G36*
X119740Y124303D02*
X116378D01*
X113016D01*
Y122228D01*
X114551D01*
Y119398D01*
X116929D01*
X119307D01*
Y122228D01*
X119740D01*
Y124303D01*
D02*
G37*
G36*
X238449Y119413D02*
X235587D01*
Y117535D01*
X238449D01*
Y119413D01*
D02*
G37*
G36*
X261449D02*
X258587D01*
Y117535D01*
X261449D01*
Y119413D01*
D02*
G37*
G36*
X234587D02*
X231724D01*
Y117535D01*
X234587D01*
Y119413D01*
D02*
G37*
G36*
X257587D02*
X254724D01*
Y117535D01*
X257587D01*
Y119413D01*
D02*
G37*
G36*
X215449Y119413D02*
X212587D01*
Y117535D01*
X215449D01*
Y119413D01*
D02*
G37*
G36*
X211587D02*
X208724D01*
Y117535D01*
X211587D01*
Y119413D01*
D02*
G37*
G36*
X127961Y127784D02*
X120858D01*
Y124421D01*
X123390D01*
Y121760D01*
X121350D01*
Y116035D01*
X125106D01*
Y120318D01*
X125130Y120342D01*
X125351Y120673D01*
X125429Y121063D01*
Y124421D01*
X127961D01*
Y127784D01*
D02*
G37*
G36*
X149579Y118500D02*
X147701D01*
Y115638D01*
X149579D01*
Y118500D01*
D02*
G37*
G36*
X146701D02*
X144823D01*
Y115638D01*
X146701D01*
Y118500D01*
D02*
G37*
G36*
X119307Y118398D02*
X117429D01*
Y115535D01*
X119307D01*
Y118398D01*
D02*
G37*
G36*
X116429D02*
X114551D01*
Y115535D01*
X116429D01*
Y118398D01*
D02*
G37*
G36*
X261449Y116535D02*
X258587D01*
Y114657D01*
X261449D01*
Y116535D01*
D02*
G37*
G36*
X257587D02*
X254724D01*
Y114657D01*
X257587D01*
Y116535D01*
D02*
G37*
G36*
X238449D02*
X235587D01*
Y114657D01*
X238449D01*
Y116535D01*
D02*
G37*
G36*
X234587D02*
X231724D01*
Y114657D01*
X234587D01*
Y116535D01*
D02*
G37*
G36*
X215449Y116535D02*
X212587D01*
Y114657D01*
X215449D01*
Y116535D01*
D02*
G37*
G36*
X211587D02*
X208724D01*
Y114657D01*
X211587D01*
Y116535D01*
D02*
G37*
G36*
X126500Y109541D02*
X114500D01*
X114463Y109526D01*
X114424Y109536D01*
X114276Y109448D01*
X114117Y109383D01*
X114102Y109345D01*
X114067Y109325D01*
X109567Y103325D01*
X109525Y103158D01*
X109459Y103000D01*
Y98500D01*
X109617Y98117D01*
X109617Y98117D01*
X109818Y97916D01*
X110138Y97575D01*
X110138D01*
X110138Y97575D01*
Y95500D01*
X113500D01*
X116862D01*
Y96219D01*
X117324Y96411D01*
X120117Y93617D01*
X120500Y93459D01*
X120500Y93459D01*
X126000D01*
X126000Y93459D01*
X126383Y93617D01*
X126383Y93617D01*
X126883Y94117D01*
X127041Y94500D01*
X127041Y94500D01*
Y109000D01*
X126883Y109383D01*
X126500Y109541D01*
D02*
G37*
G36*
X143925Y104650D02*
X141555D01*
Y99917D01*
X143925D01*
Y104650D01*
D02*
G37*
G36*
X140555D02*
X138185D01*
Y99917D01*
X140555D01*
Y104650D01*
D02*
G37*
G36*
X143925Y98917D02*
X141555D01*
Y94185D01*
X143925D01*
Y98917D01*
D02*
G37*
G36*
X140555D02*
X138185D01*
Y94185D01*
X140555D01*
Y98917D01*
D02*
G37*
G36*
X116862Y94500D02*
X114000D01*
Y92425D01*
X116862D01*
Y94500D01*
D02*
G37*
G36*
X113000D02*
X110138D01*
Y92425D01*
X113000D01*
Y94500D01*
D02*
G37*
G36*
X99000Y119541D02*
X99000Y119541D01*
X88000D01*
X87617Y119383D01*
X87617Y119383D01*
X86117Y117883D01*
X86117Y117883D01*
X85959Y117500D01*
X85959Y117500D01*
X85959Y92500D01*
X85959Y92500D01*
X86117Y92117D01*
X86117Y92117D01*
X88117Y90117D01*
X88500Y89959D01*
X88500Y89959D01*
X101000D01*
X101383Y90117D01*
X101383Y90117D01*
X103883Y92617D01*
X104041Y93000D01*
X104041Y93000D01*
Y114500D01*
X103883Y114883D01*
X99383Y119383D01*
X99000Y119541D01*
D02*
G37*
%LPD*%
G36*
X70052Y190813D02*
X70772Y190514D01*
X71420Y190081D01*
X71971Y189530D01*
X72404Y188882D01*
X72702Y188162D01*
X72854Y187398D01*
Y187008D01*
Y186618D01*
X72702Y185854D01*
X72404Y185134D01*
X71971Y184486D01*
X71420Y183934D01*
X70772Y183502D01*
X70052Y183203D01*
X69287Y183051D01*
X68508D01*
X67743Y183203D01*
X67023Y183502D01*
X66375Y183934D01*
X65824Y184486D01*
X65391Y185134D01*
X65093Y185854D01*
X64941Y186618D01*
Y187008D01*
Y187398D01*
X65093Y188162D01*
X65391Y188882D01*
X65824Y189530D01*
X66375Y190081D01*
X67023Y190514D01*
X67743Y190813D01*
X68508Y190964D01*
X69287D01*
X70052Y190813D01*
D02*
G37*
G36*
X136500Y175000D02*
Y171362D01*
X133925D01*
Y165638D01*
X136500D01*
Y148000D01*
X135000Y146500D01*
X129000D01*
X128500Y147000D01*
Y148500D01*
X125500Y151500D01*
X106500D01*
X96000Y162000D01*
Y180000D01*
X102500Y186500D01*
X125000D01*
X136500Y175000D01*
D02*
G37*
G36*
X157000Y165000D02*
Y140500D01*
X155500Y139000D01*
X142500D01*
X141500Y140000D01*
Y165638D01*
X143079D01*
Y169079D01*
X145000Y171000D01*
X151000D01*
X157000Y165000D01*
D02*
G37*
G36*
X91500Y138500D02*
X127500D01*
X128500Y137500D01*
Y134500D01*
X127500Y133500D01*
X109000D01*
X105500Y130000D01*
Y125000D01*
X81500D01*
X77500Y129000D01*
Y143500D01*
X86500D01*
X91500Y138500D01*
D02*
G37*
G36*
X126500Y94500D02*
X126000Y94000D01*
X120500D01*
X116925Y97575D01*
X111075D01*
X111000Y97500D01*
X110000Y98500D01*
Y103000D01*
X114500Y109000D01*
X126500D01*
Y94500D01*
D02*
G37*
G36*
X103500Y114500D02*
Y93000D01*
X101000Y90500D01*
X88500D01*
X86500Y92500D01*
X86500Y117500D01*
X88000Y119000D01*
X99000D01*
X103500Y114500D01*
D02*
G37*
D19*
X137500Y81500D02*
X160000Y104000D01*
X258000Y123421D02*
X258087Y123335D01*
X258000Y123421D02*
Y131850D01*
X235000Y123421D02*
X235087Y123335D01*
X235000Y123421D02*
Y131850D01*
X212000Y123421D02*
X212087Y123335D01*
X212000Y123421D02*
Y131850D01*
X328557Y-153864D02*
X330428D01*
X210900Y-166620D02*
X210900Y-166620D01*
Y-166620D02*
X212200Y-167920D01*
X306411Y-176011D02*
X328557Y-153864D01*
X266391Y-176011D02*
X306411D01*
X212200Y-167920D02*
X258300D01*
X266391Y-176011D01*
X140620Y-166620D02*
X210900D01*
X34646Y-34646D02*
X37607Y-37607D01*
X29500Y-34646D02*
X34646D01*
X239600Y-159320D02*
X240900Y-160620D01*
X205799Y-159320D02*
X239600D01*
X202199Y-162920D02*
X205799Y-159320D01*
X141520Y-162920D02*
X202199D01*
X9500Y-26798D02*
X31398D01*
X139120Y-155620D02*
X192900D01*
X9500Y-17350D02*
X26850D01*
X232114Y-147642D02*
X269656D01*
X228136Y-151620D02*
X232114Y-147642D01*
X136720Y-148320D02*
X195924D01*
X226900Y-151620D02*
X228136D01*
X195924Y-148320D02*
X199224Y-151620D01*
X226900D01*
X36900Y-22600D02*
X37000D01*
X74700Y-60300D01*
X67500Y-93500D02*
X140620Y-166620D01*
X74700Y-86300D02*
X136720Y-148320D01*
X74700Y-86300D02*
Y-60300D01*
X72250Y-88750D02*
X139120Y-155620D01*
X72250Y-88750D02*
Y-62750D01*
X69800Y-91200D02*
X141520Y-162920D01*
X69800Y-91200D02*
Y-65200D01*
X67500Y-93500D02*
Y-67500D01*
X26850Y-17350D02*
X72250Y-62750D01*
X37607Y-37607D02*
X67500Y-67500D01*
X37607Y-37607D02*
X37607D01*
X31398Y-26798D02*
X69800Y-65200D01*
X136024Y-88484D02*
X136409Y-88870D01*
X138906D01*
X170156Y-120120D01*
Y-125876D02*
Y-120120D01*
Y-125876D02*
X170900Y-126620D01*
X136024Y-85925D02*
X153206D01*
X179900Y-112620D01*
X180306Y-97620D02*
X210900D01*
X166052Y-83366D02*
X180306Y-97620D01*
X136024Y-83366D02*
X166052D01*
X136024Y-80807D02*
X136070Y-80853D01*
X140253D01*
X140300Y-80900D01*
X188201Y-82201D02*
X210922D01*
X136024Y-55905D02*
X161906D01*
X188201Y-82201D01*
X187600Y-78501D02*
X202221D01*
X136024Y-53347D02*
X162446D01*
X187600Y-78501D01*
X164088Y-50787D02*
X165801Y-52500D01*
X173500D02*
X192201Y-71201D01*
X165801Y-52500D02*
X173500D01*
X136024Y-50787D02*
X164088D01*
X167153Y-50300D02*
X185700D01*
X165081Y-48228D02*
X167153Y-50300D01*
X136024Y-48228D02*
X165081D01*
X192201Y-71201D02*
X192922D01*
X185700Y-50300D02*
X202601Y-67201D01*
X226922D01*
X191900Y-130620D02*
X194196D01*
X195271Y-132293D02*
Y-131694D01*
X194196Y-130620D02*
X195271Y-131694D01*
X200783Y-133081D02*
Y-132293D01*
X198385Y-135479D02*
X200783Y-133081D01*
X198385Y-135781D02*
Y-135479D01*
X198238Y-135928D02*
X198385Y-135781D01*
X275900Y-166829D02*
Y-166620D01*
X275305Y-170957D02*
Y-167423D01*
X275900Y-166829D01*
X271673Y-173625D02*
X271870D01*
X269794Y-171745D02*
X271673Y-173625D01*
X269794Y-171745D02*
Y-170957D01*
X324916Y-145604D02*
Y-142191D01*
X323900Y-146620D02*
X324916Y-145604D01*
X330428Y-142191D02*
Y-141403D01*
X328070Y-139045D02*
Y-138748D01*
Y-139045D02*
X330428Y-141403D01*
X327922Y-138601D02*
X328070Y-138748D01*
X289017Y-157753D02*
X292760D01*
X292884Y-157878D01*
X288892Y-157629D02*
X289017Y-157753D01*
X288900Y-147620D02*
X288911Y-147631D01*
X292873D02*
X292884Y-147642D01*
X288911Y-147631D02*
X292873D01*
X269656Y-165555D02*
X269794Y-165693D01*
Y-170957D02*
Y-165693D01*
X269270Y-160823D02*
X269656Y-160437D01*
X266773Y-160823D02*
X269270D01*
X265590Y-162006D02*
X266773Y-160823D01*
X263298Y-164658D02*
X265590Y-162366D01*
Y-162006D01*
X262313Y-164658D02*
X263298D01*
X267786Y-157878D02*
X269656D01*
X267305Y-158359D02*
X267786Y-157878D01*
X262313Y-158359D02*
X267305D01*
X273752Y-155472D02*
X273900Y-155620D01*
X269809Y-155472D02*
X273752D01*
X269656Y-155319D02*
X269809Y-155472D01*
X218900Y-118620D02*
X219048Y-118767D01*
X223182D01*
X223421Y-119006D01*
X218900Y-108620D02*
X218975Y-108695D01*
X223346D02*
X223421Y-108770D01*
X218975Y-108695D02*
X223346D01*
X200193Y-131703D02*
Y-126683D01*
Y-131703D02*
X200783Y-132293D01*
X207086Y-116433D02*
X207100Y-116420D01*
X200206Y-116433D02*
X207086D01*
X200193Y-116447D02*
X200206Y-116433D01*
X330428Y-148864D02*
Y-142191D01*
X330428Y-148864D02*
X330428Y-148864D01*
X330306Y-163742D02*
X330428Y-163864D01*
X326022Y-163742D02*
X330306D01*
X325900Y-163620D02*
X326022Y-163742D01*
X288200Y-165220D02*
X288409D01*
X288744Y-165555D01*
X292884D01*
X292498Y-150587D02*
X292884Y-150201D01*
X288409Y-151320D02*
X289142Y-150587D01*
X292498D01*
X288200Y-151320D02*
X288409D01*
X223035Y-121951D02*
X223421Y-121565D01*
X219378Y-121951D02*
X223035D01*
X219109Y-122220D02*
X219378Y-121951D01*
X218900Y-122220D02*
X219109D01*
X219850Y-116061D02*
X223035D01*
X218700Y-115120D02*
X218909D01*
X223035Y-116061D02*
X223421Y-116447D01*
X218909Y-115120D02*
X219850Y-116061D01*
X204366Y-113854D02*
X204400Y-113820D01*
X200227Y-113854D02*
X204366D01*
X200193Y-113888D02*
X200227Y-113854D01*
X200249Y-119063D02*
X204143D01*
X204200Y-119120D01*
X200193Y-119006D02*
X200249Y-119063D01*
X168465Y-126620D02*
X170900D01*
X136024Y-15453D02*
X136097Y-15526D01*
X140626D01*
X140700Y-15600D01*
X136024Y-23130D02*
X149416D01*
X168487Y-42201D01*
X136024Y-20571D02*
X172292D01*
X179922Y-28201D01*
X136024Y-18012D02*
X172011D01*
X176822Y-13201D01*
X212222Y-83501D02*
X258322D01*
X205821Y-74901D02*
X239622D01*
X306433Y-91592D02*
X328580Y-69445D01*
X266413Y-91592D02*
X306433D01*
X232137Y-63223D02*
X269678D01*
X176822Y-13201D02*
X210922D01*
X258322Y-83501D02*
X266413Y-91592D01*
X239622Y-74901D02*
X240922Y-76201D01*
X328092Y-54627D02*
X330450Y-56984D01*
X328580Y-69445D02*
X330450D01*
X326044Y-79323D02*
X330328D01*
X288922Y-63201D02*
X288933Y-63212D01*
X292895D01*
X288431Y-66901D02*
X289164Y-66168D01*
X292520D01*
X289039Y-73334D02*
X292782D01*
X288914Y-73210D02*
X289039Y-73334D01*
X288431Y-80801D02*
X288766Y-81136D01*
X292906D01*
X269831Y-71053D02*
X273775D01*
X262335Y-73940D02*
X267327D01*
X265612Y-77587D02*
X266795Y-76404D01*
X263320Y-80239D02*
X265612Y-77947D01*
Y-77587D01*
X200228Y-32014D02*
X207108D01*
X200249Y-29435D02*
X204388D01*
X200272Y-34644D02*
X204165D01*
X200215Y-47284D02*
X200805Y-47875D01*
X198407Y-51060D02*
X200805Y-48662D01*
X191922Y-46201D02*
X194219D01*
X200805Y-48662D02*
Y-47875D01*
X168487Y-42201D02*
X170922D01*
X330450Y-64445D02*
Y-57772D01*
X228158Y-67201D02*
X232137Y-63223D01*
X324938Y-61185D02*
Y-57772D01*
X275327Y-86538D02*
Y-83004D01*
X269292Y-76404D02*
X269678Y-76018D01*
X269816Y-86538D02*
Y-81274D01*
X226922Y-67201D02*
X228158D01*
X210922Y-82201D02*
X212222Y-83501D01*
X202221Y-78501D02*
X205821Y-74901D01*
X198407Y-51362D02*
Y-51060D01*
X198260Y-51510D02*
X198407Y-51362D01*
X200215Y-47284D02*
Y-42264D01*
X330450Y-57772D02*
Y-56984D01*
X330450Y-64445D02*
X330450Y-64445D01*
X330328Y-79323D02*
X330450Y-79445D01*
X328092Y-54627D02*
Y-54330D01*
X327944Y-54182D02*
X328092Y-54330D01*
X323922Y-62201D02*
X324938Y-61185D01*
X325922Y-79201D02*
X326044Y-79323D01*
X292895Y-63212D02*
X292906Y-63223D01*
X292520Y-66168D02*
X292906Y-65782D01*
X292782Y-73334D02*
X292906Y-73459D01*
X288222Y-66901D02*
X288431D01*
X288222Y-80801D02*
X288431D01*
X273775Y-71053D02*
X273922Y-71201D01*
X275922Y-82410D02*
Y-82201D01*
X275327Y-83004D02*
X275922Y-82410D01*
X269678Y-70900D02*
X269831Y-71053D01*
X267808Y-73459D02*
X269678D01*
X267327Y-73940D02*
X267808Y-73459D01*
X266795Y-76404D02*
X269292D01*
X269678Y-81136D02*
X269816Y-81274D01*
Y-87326D02*
Y-86538D01*
X271696Y-89206D02*
X271892D01*
X269816Y-87326D02*
X271696Y-89206D01*
X262335Y-80239D02*
X263320D01*
X218922Y-24201D02*
X218997Y-24276D01*
X223368D02*
X223443Y-24351D01*
X218997Y-24276D02*
X223368D01*
X219070Y-34348D02*
X223204D01*
X223443Y-34587D01*
X218922Y-34201D02*
X219070Y-34348D01*
X219872Y-31642D02*
X223057D01*
X218722Y-30701D02*
X218931D01*
X223057Y-31642D02*
X223443Y-32028D01*
X218931Y-30701D02*
X219872Y-31642D01*
X223057Y-37532D02*
X223443Y-37146D01*
X219400Y-37532D02*
X223057D01*
X219131Y-37801D02*
X219400Y-37532D01*
X218922Y-37801D02*
X219131D01*
X210922Y-82201D02*
X210922Y-82201D01*
X207108Y-32014D02*
X207122Y-32001D01*
X204388Y-29435D02*
X204422Y-29401D01*
X204165Y-34644D02*
X204222Y-34701D01*
X200215Y-32028D02*
X200228Y-32014D01*
X200215Y-29469D02*
X200249Y-29435D01*
X200215Y-34587D02*
X200272Y-34644D01*
X194219Y-46201D02*
X195293Y-47276D01*
Y-47875D02*
Y-47276D01*
X288844Y1065D02*
X292984D01*
X288509Y1400D02*
X288844Y1065D01*
X288300Y1400D02*
X288509D01*
X292598Y16033D02*
X292984Y16419D01*
X289242Y16033D02*
X292598D01*
X288509Y15300D02*
X289242Y16033D01*
X288300Y15300D02*
X288509D01*
X266491Y-9391D02*
X306511D01*
X328658Y12756D01*
X330528D01*
X211000Y0D02*
X212300Y-1300D01*
X258400D01*
X266491Y-9391D01*
X232214Y18978D02*
X269756D01*
X228236Y15000D02*
X232214Y18978D01*
X227000Y15000D02*
X228236D01*
X136024Y9547D02*
X163386D01*
X172933Y0D01*
X211000D01*
X211000Y-0D01*
X205899Y7300D02*
X239700D01*
X162949Y12106D02*
X171355Y3700D01*
X202299D01*
X136024Y12106D02*
X162949D01*
X202299Y3700D02*
X205899Y7300D01*
X239700D02*
X241000Y6000D01*
X136024Y14665D02*
X187473D01*
X191138Y11000D01*
X193000D01*
X167690Y18300D02*
X196024D01*
X166614Y17224D02*
X167690Y18300D01*
X136024Y17224D02*
X166614D01*
X196024Y18300D02*
X199324Y15000D01*
X227000D01*
X223135Y44669D02*
X223521Y45055D01*
X219478Y44669D02*
X223135D01*
X219209Y44400D02*
X219478Y44669D01*
X219000Y44400D02*
X219209D01*
X223135Y50559D02*
X223521Y50173D01*
X219950Y50559D02*
X223135D01*
X219009Y51500D02*
X219950Y50559D01*
X218800Y51500D02*
X219009D01*
X200293Y52732D02*
X200327Y52766D01*
X204466D01*
X204500Y52800D01*
X200293Y50173D02*
X200306Y50186D01*
X207186D01*
X207200Y50200D01*
X200293Y47614D02*
X200349Y47557D01*
X204243D01*
X204300Y47500D01*
X136024Y42224D02*
X166340D01*
X168565Y40000D01*
X171000D01*
X136024Y44783D02*
X154805D01*
X164021Y54000D01*
X180000D01*
X176900Y69000D02*
X211000D01*
X155243Y47343D02*
X176900Y69000D01*
X136024Y47343D02*
X155243D01*
X136024Y49902D02*
X136030Y49895D01*
X140488D01*
X140494Y49889D01*
X330405Y2878D02*
X330528Y2756D01*
X326122Y2878D02*
X330405D01*
X326000Y3000D02*
X326122Y2878D01*
X325016Y21016D02*
Y24429D01*
X324000Y20000D02*
X325016Y21016D01*
X330528Y24429D02*
Y25216D01*
X328170Y27574D02*
X330528Y25216D01*
X328170Y27574D02*
Y27871D01*
X328022Y28019D02*
X328170Y27871D01*
X330528Y17756D02*
Y24429D01*
X330528Y17756D02*
X330528Y17756D01*
X292860Y8866D02*
X292984Y8742D01*
X289117Y8866D02*
X292860D01*
X288992Y8991D02*
X289117Y8866D01*
X292973Y18989D02*
X292984Y18978D01*
X289011Y18989D02*
X292973D01*
X289000Y19000D02*
X289011Y18989D01*
X269756Y11301D02*
X269909Y11148D01*
X273852D01*
X274000Y11000D01*
X275405Y-4338D02*
Y-803D01*
X276000Y-209D01*
Y0D01*
X269894Y-5125D02*
Y-4338D01*
Y-5125D02*
X271774Y-7005D01*
X271970D01*
X269894Y-4338D02*
Y927D01*
X269756Y1065D02*
X269894Y927D01*
X262413Y1961D02*
X263398D01*
X265690Y4254D01*
Y4614D01*
X266873Y5797D01*
X269370D01*
X269756Y6183D01*
X262413Y8261D02*
X267405D01*
X267886Y8742D01*
X269756D01*
X223446Y57925D02*
X223521Y57850D01*
X219075Y57925D02*
X223446D01*
X219000Y58000D02*
X219075Y57925D01*
X223282Y47852D02*
X223521Y47614D01*
X219148Y47852D02*
X223282D01*
X219000Y48000D02*
X219148Y47852D01*
X195371Y34326D02*
Y34925D01*
X194297Y36000D02*
X195371Y34925D01*
X192000Y36000D02*
X194297D01*
X200883Y33539D02*
Y34326D01*
X198485Y31141D02*
X200883Y33539D01*
X198485Y30839D02*
Y31141D01*
X198338Y30691D02*
X198485Y30839D01*
X200293Y34917D02*
Y39937D01*
Y34917D02*
X200883Y34326D01*
X44100Y17700D02*
X45200D01*
X82853Y-19953D01*
X71176Y17224D02*
X112795D01*
X9500Y33044D02*
X51753D01*
X52390Y33681D01*
X54719D01*
X71176Y17224D01*
X9500Y1548D02*
X23352D01*
X87600Y-74743D02*
Y-62700D01*
X23352Y1548D02*
X87600Y-62700D01*
X9500Y-20499D02*
X19199D01*
X20500Y-21800D01*
X9500Y-36247D02*
X17033D01*
X19537Y-38751D01*
X34600Y-75151D02*
X34646Y-75197D01*
X34600Y-75151D02*
Y-72457D01*
X41732Y-75197D02*
X41800Y-75129D01*
Y-72457D01*
X48819Y-75197D02*
X48871Y-75248D01*
X52548D01*
X52600Y-75300D01*
X27400Y-69200D02*
X48517D01*
X48819Y-68898D01*
X9500Y-67743D02*
X25943D01*
X27400Y-69200D01*
X23201Y-34646D02*
Y-33661D01*
X22323Y-32783D02*
X23201Y-33661D01*
X21339Y-32783D02*
X22323D01*
X18503Y-29948D02*
X21339Y-32783D01*
X9500Y-29948D02*
X18503D01*
X35200Y-15400D02*
X35500D01*
X84700Y-64600D01*
Y-73964D02*
X95736Y-85000D01*
X84700Y-73964D02*
Y-64600D01*
X96357Y-83500D02*
X107732D01*
X87600Y-74743D02*
X96357Y-83500D01*
X45000Y-15800D02*
X45200D01*
X90900Y-61500D01*
X96979Y-82000D02*
X108791D01*
X90900Y-75921D02*
X96979Y-82000D01*
X90900Y-75921D02*
Y-61500D01*
X95736Y-85000D02*
X107028D01*
X112409Y-88098D02*
X112795Y-88484D01*
X109771Y-88098D02*
X112409D01*
X108777Y-87104D02*
X109771Y-88098D01*
X108777Y-87104D02*
Y-86749D01*
X107028Y-85000D02*
X108777Y-86749D01*
X107732Y-83500D02*
X109771Y-85539D01*
X112409D02*
X112795Y-85925D01*
X109771Y-85539D02*
X112409D01*
X108791Y-82000D02*
X109771Y-82980D01*
X112409D02*
X112795Y-83366D01*
X109771Y-82980D02*
X112409D01*
X93400Y-76300D02*
X97600Y-80500D01*
X112488D02*
X112795Y-80807D01*
X97600Y-80500D02*
X112488D01*
X29876Y3624D02*
X93400Y-59900D01*
Y-76300D02*
Y-59900D01*
X20294Y4698D02*
X21367Y3624D01*
X9500Y4698D02*
X20294D01*
X21367Y3624D02*
X29876D01*
X23201Y7087D02*
Y7438D01*
X22323Y8316D02*
X23201Y7438D01*
X20182Y8316D02*
X22323D01*
X29500Y6102D02*
Y7087D01*
Y6102D02*
X30378Y5224D01*
X31362D01*
X89387Y-52800D01*
X93182Y-51300D02*
X108110D01*
X30886Y10997D02*
X93182Y-51300D01*
X9500Y10997D02*
X30886D01*
X96700Y-49800D02*
X109170D01*
X34800Y11465D02*
X35169D01*
X35747Y10887D01*
X36013D01*
X96700Y-49800D01*
X89387Y-52800D02*
X107407D01*
X112409Y-55520D02*
X112795Y-55905D01*
X109771Y-55520D02*
X112409D01*
X108939Y-54688D02*
X109771Y-55520D01*
X108939Y-54688D02*
Y-54333D01*
X107407Y-52800D02*
X108939Y-54333D01*
X108110Y-51300D02*
X109771Y-52961D01*
X112409D02*
X112795Y-53347D01*
X109771Y-52961D02*
X112409D01*
X109170Y-49800D02*
X109584Y-50214D01*
X109954D01*
X110141Y-50402D01*
X112409D01*
X112795Y-50787D01*
X98328Y-48228D02*
X112795D01*
X9500Y14146D02*
X35954D01*
X98328Y-48228D01*
X9500Y20446D02*
X9854Y20800D01*
X46400D01*
X85653Y-18453D02*
X107879D01*
X46400Y20800D02*
X85653Y-18453D01*
X50554Y20854D02*
X50846D01*
X88653Y-16953D01*
X109098D01*
X90653Y-15453D02*
X112795D01*
X51605Y23595D02*
X90653Y-15453D01*
X9500Y23595D02*
X51605D01*
X82853Y-19953D02*
X107036D01*
X112409Y-22744D02*
X112795Y-23130D01*
X109771Y-22744D02*
X112409D01*
X108939Y-21912D02*
X109771Y-22744D01*
X108939Y-21912D02*
Y-21856D01*
X107036Y-19953D02*
X108939Y-21856D01*
X107879Y-18453D02*
X109424Y-19998D01*
X109954D01*
X110141Y-20185D01*
X112409D01*
X109098Y-16953D02*
X109584Y-17439D01*
X110141Y-17626D02*
X112409D01*
X109954Y-17439D02*
X110141Y-17626D01*
X109584Y-17439D02*
X109954D01*
X112409Y-20185D02*
X112795Y-20571D01*
X112409Y-17626D02*
X112795Y-18012D01*
X29500Y27500D02*
X50879D01*
X65879Y12500D01*
X107560D01*
X17000Y31500D02*
X49000D01*
X66500Y14000D02*
X108181D01*
X49000Y31500D02*
X66500Y14000D01*
X23201Y27500D02*
Y27941D01*
X22323Y28819D02*
X23201Y27941D01*
X19475Y28819D02*
X22323D01*
X15977Y30477D02*
X17000Y31500D01*
X9500Y29895D02*
X10083Y30477D01*
X15977D01*
X108777Y10927D02*
Y11282D01*
Y10927D02*
X109771Y9933D01*
X107560Y12500D02*
X108777Y11282D01*
X108181Y14000D02*
X109689Y12492D01*
X53500Y31000D02*
X69000Y15500D01*
X109322D01*
X109584Y15239D01*
X112409Y15051D02*
X112795Y14665D01*
X110141Y15051D02*
X112409D01*
X109584Y15239D02*
X109954D01*
X110141Y15051D01*
X112409Y12492D02*
X112795Y12106D01*
X109689Y12492D02*
X112409D01*
X109771Y9933D02*
X112409D01*
X112795Y9547D01*
X25402Y49902D02*
X112795D01*
X27902Y48402D02*
X109098D01*
X31402Y46902D02*
X108039D01*
X34402Y45402D02*
X107418D01*
X28000Y39000D02*
X34402Y45402D01*
X112409Y42610D02*
X112795Y42224D01*
X109771Y42610D02*
X112409D01*
X108777Y43604D02*
X109771Y42610D01*
X108777Y43604D02*
Y44042D01*
X107418Y45402D02*
X108777Y44042D01*
X109771Y45169D02*
X112409D01*
X108039Y46902D02*
X109771Y45169D01*
X110141Y47728D02*
X112409D01*
X109954Y47916D02*
X110141Y47728D01*
X109098Y48402D02*
X109584Y47916D01*
X109954D01*
X9500Y39343D02*
X23843D01*
X31402Y46902D01*
X112409Y45169D02*
X112795Y44783D01*
X22000Y42500D02*
X27902Y48402D01*
X112409Y47728D02*
X112795Y47343D01*
X9500Y42493D02*
X17993D01*
X25402Y49902D01*
X100000Y24543D02*
Y27953D01*
Y21133D02*
Y24543D01*
Y8465D02*
X100035Y8500D01*
X102740D01*
X100000Y-40748D02*
Y-37402D01*
Y-44094D02*
Y-40748D01*
Y-57973D02*
Y-56988D01*
Y-57973D02*
X100878Y-58850D01*
X102591D01*
X102740Y-59000D01*
X100000Y-96063D02*
X100000Y-96063D01*
Y-93000D01*
X100000Y-93000D01*
X100000Y-89567D02*
X100000Y-89567D01*
X100000Y-93000D02*
Y-89567D01*
X100000Y-93000D02*
X100000Y-93000D01*
X100010Y-73484D02*
Y-66971D01*
X100000Y-76772D02*
X100005Y-76767D01*
Y-73489D01*
X100010Y-73484D01*
X99876Y-66837D02*
X100010Y-66971D01*
X99938Y-63448D02*
X100000Y-63386D01*
X99938Y-66774D02*
Y-63448D01*
X99876Y-66837D02*
X99938Y-66774D01*
X100000Y-30709D02*
X100000Y-30709D01*
Y-27500D01*
X100000Y-27500D01*
X100000Y-24213D02*
X100000Y-24213D01*
Y-27500D02*
Y-24213D01*
Y-27500D02*
X100000Y-27500D01*
X100000Y-11417D02*
X100000Y-11417D01*
Y-8000D01*
X100000Y-8000D01*
X100000Y-4724D02*
X100000Y-4724D01*
Y-8000D02*
Y-4724D01*
Y-8000D02*
X100000Y-8000D01*
X100000Y-4724D02*
X100000Y-4724D01*
Y-1500D01*
X100000Y-1500D01*
X100000Y1969D02*
X100000Y1969D01*
Y-1500D02*
Y1969D01*
Y-1500D02*
X100000Y-1500D01*
X100000Y34646D02*
X100000Y34646D01*
Y38000D01*
X100000Y38000D01*
X100000Y41142D02*
X100000Y41142D01*
X100000Y38000D02*
Y41142D01*
X100000Y38000D02*
X100000Y38000D01*
X99903Y54009D02*
X100000Y53912D01*
X99903Y54009D02*
Y57082D01*
X99806Y57179D02*
X99903Y57082D01*
Y60533D02*
X100000Y60630D01*
X99903Y57276D02*
Y60533D01*
X99806Y57179D02*
X99903Y57276D01*
X143539Y58500D02*
X143701Y58661D01*
X140000Y58500D02*
X143539D01*
X144551Y54000D02*
X147500D01*
X143701Y53150D02*
X144551Y54000D01*
X136024Y52461D02*
X143012D01*
X143701Y53150D01*
X136024Y39665D02*
X136409Y39279D01*
X139352D01*
X140131Y38500D01*
X140500D01*
X136024Y37106D02*
X137894D01*
X139027Y38239D01*
X140239D01*
X140500Y38500D01*
X126650Y28000D02*
X126697Y27953D01*
X123500Y28000D02*
X126650D01*
X143685Y26000D02*
X143701Y25984D01*
X139500Y26000D02*
X143685D01*
X143701Y20472D02*
X144728Y21500D01*
X147500D01*
X136024Y19783D02*
X143012D01*
X143701Y20472D01*
X136024Y6988D02*
X136409Y6602D01*
X139529D01*
X140131Y6000D01*
X140500D01*
X140239Y5739D02*
X140500Y6000D01*
X137894Y4429D02*
X139204Y5739D01*
X140239D01*
X136024Y4429D02*
X137894D01*
X126472Y-4500D02*
X126697Y-4724D01*
X123500Y-4500D02*
X126472D01*
X143402Y-6000D02*
X143701Y-6299D01*
X140000Y-6000D02*
X143402D01*
X143701Y-11811D02*
X144512Y-11000D01*
X147500D01*
X136024Y-12894D02*
X141831D01*
X142913Y-11811D01*
X143701D01*
X136024Y-25689D02*
X136409Y-26075D01*
X139075D01*
X140000Y-27000D01*
X136024Y-28248D02*
X137894D01*
X138881Y-27261D01*
X139739D01*
X140000Y-27000D01*
X126599Y-37500D02*
X126697Y-37402D01*
X123500Y-37500D02*
X126599D01*
X143571Y-39500D02*
X143701Y-39370D01*
X140000Y-39500D02*
X143571D01*
X143701Y-44882D02*
X144583Y-44000D01*
X147500D01*
X136024Y-45669D02*
X142913D01*
X143701Y-44882D01*
X136024Y-61024D02*
X137894D01*
X138697Y-60220D01*
X139279D01*
X140000Y-59500D01*
X136024Y-58465D02*
X136409Y-58850D01*
X138982D01*
X139631Y-59500D01*
X140000D01*
X126618Y-70000D02*
X126697Y-70079D01*
X123500Y-70000D02*
X126618D01*
X143547Y-71500D02*
X143701Y-71653D01*
X140000Y-71500D02*
X143547D01*
X134153Y-93602D02*
X136024D01*
X132812Y-92261D02*
X134153Y-93602D01*
X132629Y-92261D02*
X132812D01*
X132369Y-92000D02*
X132629Y-92261D01*
X132000Y-92000D02*
X132369D01*
X132940Y-91429D02*
X135638D01*
X132369Y-92000D02*
X132940Y-91429D01*
X135638D02*
X136024Y-91043D01*
X143701Y-77165D02*
X144776Y-76091D01*
X147409D01*
X147500Y-76000D01*
X139839Y-77165D02*
X143701D01*
X139142Y-77862D02*
X139839Y-77165D01*
X136409Y-77862D02*
X139142D01*
X136024Y-78248D02*
X136409Y-77862D01*
X107775Y-93602D02*
X112795D01*
X106299Y-95079D02*
X107775Y-93602D01*
X106299Y-96063D02*
Y-95079D01*
X107177Y-91043D02*
X112795D01*
X106299Y-90165D02*
X107177Y-91043D01*
X106299Y-90165D02*
Y-89567D01*
X107177Y-78248D02*
X112795D01*
X106299Y-77370D02*
X107177Y-78248D01*
X106299Y-77370D02*
Y-76772D01*
X110925Y-75689D02*
X112795D01*
X107177Y-71941D02*
X110925Y-75689D01*
X107177Y-71941D02*
Y-70957D01*
X106299Y-70079D02*
X107177Y-70957D01*
X107677Y-61024D02*
X112795D01*
X106299Y-62402D02*
X107677Y-61024D01*
X106299Y-63386D02*
Y-62402D01*
X107177Y-58465D02*
X112795D01*
X106299Y-57587D02*
X107177Y-58465D01*
X106299Y-57587D02*
Y-56988D01*
X107177Y-45669D02*
X112795D01*
X106299Y-44791D02*
X107177Y-45669D01*
X106299Y-44791D02*
Y-44094D01*
X110925Y-43110D02*
X112795D01*
X107177Y-39362D02*
X110925Y-43110D01*
X107177Y-39362D02*
Y-38280D01*
X106299Y-37402D02*
X107177Y-38280D01*
X107775Y-28248D02*
X112795D01*
X106299Y-29724D02*
X107775Y-28248D01*
X106299Y-30709D02*
Y-29724D01*
X107177Y-25689D02*
X112795D01*
X106299Y-24811D02*
X107177Y-25689D01*
X106299Y-24811D02*
Y-24213D01*
X107177Y-12894D02*
X112795D01*
X106299Y-12016D02*
X107177Y-12894D01*
X106299Y-12016D02*
Y-11417D01*
X110925Y-10335D02*
X112795D01*
X107177Y-6587D02*
X110925Y-10335D01*
X107177Y-6587D02*
X107177D01*
X106299Y-5709D02*
X107177Y-6587D01*
X106299Y-5709D02*
Y-4724D01*
X107775Y4429D02*
X112795D01*
X106299Y2953D02*
X107775Y4429D01*
X106299Y1969D02*
Y2953D01*
X112409Y7374D02*
X112795Y6988D01*
X109771Y7374D02*
X112409D01*
X108681Y8465D02*
X109771Y7374D01*
X106299Y8465D02*
X108681D01*
X106299Y21133D02*
X108807D01*
X109771Y20169D01*
X112409D01*
X112795Y19783D01*
X110925Y22343D02*
X112795D01*
X107177Y26090D02*
X110925Y22343D01*
X107177Y26090D02*
X107177D01*
X106299Y26969D02*
X107177Y26090D01*
X106299Y26969D02*
Y27953D01*
X107775Y37106D02*
X112795D01*
X106299Y35630D02*
X107775Y37106D01*
X106299Y34646D02*
Y35630D01*
X107177Y39665D02*
X112795D01*
X106299Y40543D02*
X107177Y39665D01*
X106299Y40543D02*
Y41142D01*
X110925Y55020D02*
X112795D01*
X107177Y58768D02*
X110925Y55020D01*
X107177Y58768D02*
X107177D01*
X106299Y59646D02*
X107177Y58768D01*
X106299Y59646D02*
Y60630D01*
Y53912D02*
X108706D01*
X109771Y52846D01*
X112409D01*
X112795Y52461D01*
X122648Y141102D02*
X124409D01*
X121967Y141783D02*
X122648Y141102D01*
X121967Y141783D02*
Y143882D01*
X112795Y147244D02*
X114567D01*
X109433Y143882D02*
X112795Y147244D01*
X109433Y143882D02*
X109433D01*
X160000Y104000D02*
X261500D01*
X266500Y109000D02*
Y130087D01*
X261500Y104000D02*
X266500Y109000D01*
X258095Y138492D02*
X258291D01*
X259957Y136827D01*
Y136630D02*
Y136827D01*
Y136630D02*
X266500Y130087D01*
X235252Y138500D02*
X235260Y138492D01*
X231500Y138500D02*
X235252D01*
X211917Y139000D02*
X212032Y138886D01*
X208000Y139000D02*
X211917D01*
X138681Y168500D02*
X141201D01*
X160500Y131000D02*
X160500Y131000D01*
X160500Y131000D02*
Y134500D01*
X136000Y168500D02*
X138681D01*
X141201D02*
X141201Y168500D01*
X152516Y131500D02*
X153500D01*
X150942Y129926D02*
X152516Y131500D01*
X150942Y129021D02*
Y129926D01*
X150681Y128760D02*
X150942Y129021D01*
X145728Y126043D02*
X153150D01*
X145669Y126102D02*
X145728Y126043D01*
X153150D02*
X160571D01*
X145669Y136102D02*
X153032D01*
X153543Y136614D01*
X153150Y126043D02*
X153543Y125650D01*
Y119685D02*
Y125650D01*
X160571Y126043D02*
X160630Y125984D01*
X124409Y121063D02*
Y126102D01*
X123228Y119882D02*
X124409Y121063D01*
X123228Y118898D02*
Y119882D01*
X117165Y131102D02*
X124409D01*
X116378Y130315D02*
X117165Y131102D01*
X110236Y127953D02*
X113228D01*
X115591Y130315D01*
X116378D01*
D27*
X126697Y67500D02*
D03*
X132209D02*
D03*
Y60630D02*
D03*
X126697D02*
D03*
Y27953D02*
D03*
X132209D02*
D03*
X195371Y34326D02*
D03*
X200883D02*
D03*
X195293Y-47875D02*
D03*
X200805D02*
D03*
X195271Y-132293D02*
D03*
X200783D02*
D03*
X275405Y-4338D02*
D03*
X269894D02*
D03*
X275328Y-86539D02*
D03*
X269816D02*
D03*
X275305Y-170958D02*
D03*
X269794D02*
D03*
X325016Y24429D02*
D03*
X330528D02*
D03*
X324938Y-57772D02*
D03*
X330450D02*
D03*
X324916Y-142191D02*
D03*
X330428D02*
D03*
X136000Y168500D02*
D03*
X130488D02*
D03*
X126697Y-4724D02*
D03*
X132209D02*
D03*
X126697Y-37402D02*
D03*
X132209D02*
D03*
X126697Y-70079D02*
D03*
X132209D02*
D03*
D28*
X141055Y99417D02*
D03*
X132000D02*
D03*
X122945D02*
D03*
D29*
X132000Y76583D02*
D03*
D30*
X330528Y2756D02*
D03*
Y7756D02*
D03*
Y12756D02*
D03*
Y17756D02*
D03*
X309268Y2756D02*
D03*
Y7756D02*
D03*
Y12756D02*
D03*
Y17756D02*
D03*
X330450Y-79445D02*
D03*
Y-74445D02*
D03*
Y-69445D02*
D03*
Y-64445D02*
D03*
X309190Y-79445D02*
D03*
Y-74445D02*
D03*
Y-69445D02*
D03*
Y-64445D02*
D03*
X330428Y-163864D02*
D03*
Y-158864D02*
D03*
Y-153864D02*
D03*
Y-148864D02*
D03*
X309168Y-163864D02*
D03*
Y-158864D02*
D03*
Y-153864D02*
D03*
Y-148864D02*
D03*
X145669Y126102D02*
D03*
Y131102D02*
D03*
Y136102D02*
D03*
Y141102D02*
D03*
X124409Y126102D02*
D03*
Y131102D02*
D03*
Y136102D02*
D03*
Y141102D02*
D03*
D31*
X9500Y67690D02*
D03*
Y64540D02*
D03*
Y61391D02*
D03*
Y58241D02*
D03*
Y55091D02*
D03*
Y51942D02*
D03*
Y48792D02*
D03*
Y45643D02*
D03*
Y42493D02*
D03*
Y39343D02*
D03*
Y36194D02*
D03*
Y33044D02*
D03*
Y29895D02*
D03*
Y26745D02*
D03*
Y23595D02*
D03*
Y20446D02*
D03*
Y17296D02*
D03*
Y14146D02*
D03*
Y10997D02*
D03*
Y7847D02*
D03*
Y4698D02*
D03*
Y1548D02*
D03*
Y-14200D02*
D03*
Y-17350D02*
D03*
Y-20499D02*
D03*
Y-23649D02*
D03*
Y-26798D02*
D03*
Y-29948D02*
D03*
Y-33098D02*
D03*
Y-36247D02*
D03*
Y-39397D02*
D03*
Y-42546D02*
D03*
Y-45696D02*
D03*
Y-48846D02*
D03*
Y-51995D02*
D03*
Y-55145D02*
D03*
Y-58294D02*
D03*
Y-61444D02*
D03*
Y-64594D02*
D03*
Y-67743D02*
D03*
D32*
X135039Y133602D02*
D03*
D33*
X212000Y131850D02*
D03*
Y138150D02*
D03*
X235000Y131850D02*
D03*
Y138150D02*
D03*
X258000Y131850D02*
D03*
Y138150D02*
D03*
D34*
X112795Y55020D02*
D03*
Y52461D02*
D03*
Y49902D02*
D03*
Y47343D02*
D03*
Y44783D02*
D03*
Y42224D02*
D03*
Y39665D02*
D03*
Y37106D02*
D03*
X136024Y55020D02*
D03*
Y52461D02*
D03*
Y49902D02*
D03*
Y47343D02*
D03*
Y44783D02*
D03*
Y42224D02*
D03*
Y39665D02*
D03*
Y37106D02*
D03*
X292984Y1065D02*
D03*
Y3624D02*
D03*
Y6183D02*
D03*
Y8742D02*
D03*
Y11301D02*
D03*
Y13860D02*
D03*
Y16419D02*
D03*
Y18978D02*
D03*
X269756Y1065D02*
D03*
Y3624D02*
D03*
Y6183D02*
D03*
Y8742D02*
D03*
Y11301D02*
D03*
Y13860D02*
D03*
Y16419D02*
D03*
Y18978D02*
D03*
X292906Y-81136D02*
D03*
Y-78577D02*
D03*
Y-76018D02*
D03*
Y-73459D02*
D03*
Y-70900D02*
D03*
Y-68341D02*
D03*
Y-65782D02*
D03*
Y-63223D02*
D03*
X269678Y-81136D02*
D03*
Y-78577D02*
D03*
Y-76018D02*
D03*
Y-73459D02*
D03*
Y-70900D02*
D03*
Y-68341D02*
D03*
Y-65782D02*
D03*
Y-63223D02*
D03*
X292884Y-165555D02*
D03*
Y-162996D02*
D03*
Y-160437D02*
D03*
Y-157878D02*
D03*
Y-155319D02*
D03*
Y-152760D02*
D03*
Y-150201D02*
D03*
Y-147642D02*
D03*
X269656Y-165555D02*
D03*
Y-162996D02*
D03*
Y-160437D02*
D03*
Y-157878D02*
D03*
Y-155319D02*
D03*
Y-152760D02*
D03*
Y-150201D02*
D03*
Y-147642D02*
D03*
X223521Y39937D02*
D03*
Y42496D02*
D03*
Y45055D02*
D03*
Y47614D02*
D03*
Y50173D02*
D03*
Y52732D02*
D03*
Y55291D02*
D03*
Y57850D02*
D03*
X200293Y39937D02*
D03*
Y42496D02*
D03*
Y45055D02*
D03*
Y47614D02*
D03*
Y50173D02*
D03*
Y52732D02*
D03*
Y55291D02*
D03*
Y57850D02*
D03*
X223443Y-42264D02*
D03*
Y-39705D02*
D03*
Y-37146D02*
D03*
Y-34587D02*
D03*
Y-32028D02*
D03*
Y-29469D02*
D03*
Y-26910D02*
D03*
Y-24351D02*
D03*
X200215Y-42264D02*
D03*
Y-39705D02*
D03*
Y-37146D02*
D03*
Y-34587D02*
D03*
Y-32028D02*
D03*
Y-29469D02*
D03*
Y-26910D02*
D03*
Y-24351D02*
D03*
X223421Y-126683D02*
D03*
Y-124124D02*
D03*
Y-121565D02*
D03*
Y-119006D02*
D03*
Y-116447D02*
D03*
Y-113888D02*
D03*
Y-111329D02*
D03*
Y-108770D02*
D03*
X200193Y-126683D02*
D03*
Y-124124D02*
D03*
Y-121565D02*
D03*
Y-119006D02*
D03*
Y-116447D02*
D03*
Y-113888D02*
D03*
Y-111329D02*
D03*
Y-108770D02*
D03*
X112795Y22343D02*
D03*
Y19783D02*
D03*
Y17224D02*
D03*
Y14665D02*
D03*
Y12106D02*
D03*
Y9547D02*
D03*
Y6988D02*
D03*
Y4429D02*
D03*
X136024Y22343D02*
D03*
Y19783D02*
D03*
Y17224D02*
D03*
Y14665D02*
D03*
Y12106D02*
D03*
Y9547D02*
D03*
Y6988D02*
D03*
Y4429D02*
D03*
X112795Y-10335D02*
D03*
Y-12894D02*
D03*
Y-15453D02*
D03*
Y-18012D02*
D03*
Y-20571D02*
D03*
Y-23130D02*
D03*
Y-25689D02*
D03*
Y-28248D02*
D03*
X136024Y-10335D02*
D03*
Y-12894D02*
D03*
Y-15453D02*
D03*
Y-18012D02*
D03*
Y-20571D02*
D03*
Y-23130D02*
D03*
Y-25689D02*
D03*
Y-28248D02*
D03*
X112795Y-43110D02*
D03*
Y-45669D02*
D03*
Y-48228D02*
D03*
Y-50787D02*
D03*
Y-53347D02*
D03*
Y-55905D02*
D03*
Y-58465D02*
D03*
Y-61024D02*
D03*
X136024Y-43110D02*
D03*
Y-45669D02*
D03*
Y-48228D02*
D03*
Y-50787D02*
D03*
Y-53347D02*
D03*
Y-55905D02*
D03*
Y-58465D02*
D03*
Y-61024D02*
D03*
X112795Y-75689D02*
D03*
Y-78248D02*
D03*
Y-80807D02*
D03*
Y-83366D02*
D03*
Y-85925D02*
D03*
Y-88484D02*
D03*
Y-91043D02*
D03*
Y-93602D02*
D03*
X136024Y-75689D02*
D03*
Y-78248D02*
D03*
Y-80807D02*
D03*
Y-83366D02*
D03*
Y-85925D02*
D03*
Y-88484D02*
D03*
Y-91043D02*
D03*
Y-93602D02*
D03*
D35*
X146063Y154842D02*
D03*
X131890D02*
D03*
D36*
X92520Y127559D02*
D03*
Y115748D02*
D03*
X114567Y147244D02*
D03*
Y159055D02*
D03*
X102362Y146732D02*
D03*
Y134921D02*
D03*
D37*
X48819Y-68898D02*
D03*
Y-75197D02*
D03*
X34646Y-75197D02*
D03*
Y-68898D02*
D03*
X41732Y-68898D02*
D03*
Y-75197D02*
D03*
X230804Y40232D02*
D03*
Y46531D02*
D03*
X230727Y-41969D02*
D03*
Y-35670D02*
D03*
X230704Y-126388D02*
D03*
Y-120089D02*
D03*
X230804Y57555D02*
D03*
Y51256D02*
D03*
X230727Y-24646D02*
D03*
Y-30945D02*
D03*
X230704Y-109065D02*
D03*
Y-115364D02*
D03*
X193009Y57555D02*
D03*
Y51256D02*
D03*
X192931Y-24646D02*
D03*
Y-30945D02*
D03*
X192909Y-109065D02*
D03*
Y-115364D02*
D03*
X193009Y40232D02*
D03*
Y46531D02*
D03*
X192931Y-41969D02*
D03*
Y-35670D02*
D03*
X192909Y-126388D02*
D03*
Y-120089D02*
D03*
X153500Y125201D02*
D03*
Y131500D02*
D03*
X212087Y117035D02*
D03*
Y123335D02*
D03*
X262413Y1961D02*
D03*
Y8261D02*
D03*
X262335Y-80239D02*
D03*
Y-73940D02*
D03*
X262313Y-164658D02*
D03*
Y-158359D02*
D03*
X235087Y123335D02*
D03*
Y117035D02*
D03*
X258087Y123335D02*
D03*
Y117035D02*
D03*
D38*
X100000Y60630D02*
D03*
X106299D02*
D03*
X100000Y53912D02*
D03*
X106299D02*
D03*
X100000Y41142D02*
D03*
X106299D02*
D03*
X100000Y34646D02*
D03*
X106299D02*
D03*
X29500Y27500D02*
D03*
X23201D02*
D03*
X29500Y7087D02*
D03*
X23201D02*
D03*
X100000Y27953D02*
D03*
X106299D02*
D03*
X100000Y21133D02*
D03*
X106299D02*
D03*
X100000Y8465D02*
D03*
X106299D02*
D03*
X100000Y1969D02*
D03*
X106299D02*
D03*
X23201Y-34646D02*
D03*
X29500D02*
D03*
X100000Y-4724D02*
D03*
X106299D02*
D03*
X100000Y-11417D02*
D03*
X106299D02*
D03*
X100000Y-24512D02*
D03*
X106299D02*
D03*
X100000Y-30709D02*
D03*
X106299D02*
D03*
X100000Y-37402D02*
D03*
X106299D02*
D03*
X100000Y-44094D02*
D03*
X106299D02*
D03*
X110236Y127953D02*
D03*
X103937D02*
D03*
X141201Y168500D02*
D03*
X147500D02*
D03*
X116929Y118898D02*
D03*
X123228D02*
D03*
X147201Y119000D02*
D03*
X153500D02*
D03*
X100000Y-56988D02*
D03*
X106299D02*
D03*
X100000Y-63386D02*
D03*
X106299D02*
D03*
X100000Y-70079D02*
D03*
X106299D02*
D03*
X100000Y-76772D02*
D03*
X106299D02*
D03*
X100000Y-89567D02*
D03*
X106299D02*
D03*
X100000Y-96063D02*
D03*
X106299D02*
D03*
D39*
X153543Y136614D02*
D03*
Y142126D02*
D03*
X123622Y148031D02*
D03*
Y153543D02*
D03*
X116378Y141220D02*
D03*
Y135709D02*
D03*
Y124803D02*
D03*
Y130315D02*
D03*
X160500Y125488D02*
D03*
Y131000D02*
D03*
X113500Y95000D02*
D03*
Y100512D02*
D03*
X143701Y58661D02*
D03*
Y53150D02*
D03*
Y25984D02*
D03*
Y20472D02*
D03*
Y-6299D02*
D03*
Y-11811D02*
D03*
Y-39370D02*
D03*
Y-44882D02*
D03*
Y-71653D02*
D03*
Y-77165D02*
D03*
D60*
X126697Y63697D02*
Y64065D01*
Y60630D02*
Y67500D01*
X126617Y60550D02*
X126697Y60630D01*
X9500Y-61444D02*
X9528Y-61472D01*
X16472D01*
X16500Y-61500D01*
X9500Y-51995D02*
X9505Y-52000D01*
X16500D01*
X9500Y-42546D02*
X9523Y-42523D01*
X16477D01*
X16500Y-42500D01*
X9500Y-33098D02*
X9533Y-33065D01*
X16364D01*
X16429Y-33000D01*
X16500D01*
X9500Y-23649D02*
X9533Y-23616D01*
X16313D01*
X16429Y-23500D01*
X16500D01*
X9500Y-14200D02*
X9502Y-14202D01*
X16498D01*
X16500Y-14205D01*
X9500Y7847D02*
X9533Y7815D01*
X16115D01*
X16429Y7500D01*
X16500D01*
X9500Y17296D02*
X9533Y17329D01*
X16258D01*
X16429Y17500D01*
X16500D01*
X9500Y26745D02*
X9533Y26712D01*
X16217D01*
X16429Y26500D01*
X16500D01*
X9500Y36194D02*
X9533Y36161D01*
X16268D01*
X16429Y36000D01*
X16500D01*
X9500Y45643D02*
X9533Y45610D01*
X16319D01*
X16429Y45500D01*
X16500D01*
X9500Y51942D02*
X9529Y51971D01*
X16471D01*
X16500Y52000D01*
X9500Y58241D02*
X9533Y58208D01*
X15990D01*
X16438Y57761D01*
X16509D01*
X9533Y64573D02*
X15573D01*
X16500Y65500D01*
X9500Y64540D02*
X9533Y64573D01*
Y67657D02*
X15843D01*
X17500Y66000D01*
X9500Y67690D02*
X9533Y67657D01*
X130845Y138655D02*
X130971D01*
X135039Y134587D01*
X124409Y141102D02*
X124541Y140971D01*
X128529D01*
X130845Y138655D01*
X135039Y133602D02*
Y134587D01*
X116378Y141220D02*
Y145932D01*
X115066Y147244D02*
X116378Y145932D01*
X114567Y147244D02*
X115066D01*
X9500Y61391D02*
X9533Y61423D01*
X16852D01*
X16929Y61500D01*
X17000D01*
D61*
X297000Y-134120D02*
Y-133770D01*
X291733D02*
Y-132070D01*
X297318Y-126970D02*
Y-125270D01*
X299109Y-132070D02*
Y-130370D01*
X297318Y-126970D02*
X300313D01*
X294136Y-128670D02*
X300313D01*
X294136Y-130370D02*
X299109D01*
X297000Y-125270D02*
X297318D01*
X291733Y-132070D02*
X299109D01*
X297000Y-125270D02*
Y-124651D01*
X294136Y-130370D02*
Y-128670D01*
X300313D02*
Y-126970D01*
X291733Y-133770D02*
X297000D01*
X277700Y-139770D02*
Y-138070D01*
Y-136370D02*
Y-134670D01*
X272000Y-141470D02*
X277700D01*
X273613Y-134670D02*
X277700D01*
X272000Y-136370D02*
X277700D01*
X277500Y-148620D02*
Y-148270D01*
X273613Y-134670D02*
Y-132970D01*
X273262Y-148270D02*
Y-146570D01*
X277500Y-132970D02*
Y-132460D01*
X272000Y-144870D02*
X277700D01*
X272000Y-138070D02*
X277700D01*
X273262Y-146570D02*
X277700D01*
X272000Y-141470D02*
Y-139770D01*
X277700Y-146570D02*
Y-144870D01*
X272000Y-143170D02*
X277700D01*
Y-141470D01*
X272000Y-139770D02*
X277700D01*
X272000Y-144870D02*
Y-143170D01*
X273613Y-132970D02*
X277500D01*
X273262Y-148270D02*
X277500D01*
X272000Y-138070D02*
Y-136370D01*
X298900Y-149564D02*
Y-148804D01*
X297310Y-143894D02*
X300692D01*
X295300Y-140794D02*
X301272D01*
X293900Y-141374D02*
Y-138514D01*
X294720Y-137694D02*
X298490D01*
X297890Y-146994D02*
X299070D01*
X294720Y-142194D02*
X300692D01*
X296490Y-144714D02*
X297310Y-143894D01*
X301272Y-140794D02*
X302092Y-141614D01*
X295300Y-140794D02*
Y-139094D01*
X298490Y-137694D02*
X298900Y-137284D01*
X293900Y-138514D02*
X294720Y-137694D01*
X300300Y-149564D02*
Y-148224D01*
X298490Y-148394D02*
X298900Y-148804D01*
X297890Y-146994D02*
Y-145294D01*
X297310Y-148394D02*
X298490D01*
X296490Y-147574D02*
X297310Y-148394D01*
X299070Y-139094D02*
X300300Y-137864D01*
X296490Y-147574D02*
Y-144714D01*
X298900Y-137284D02*
Y-136020D01*
X300300Y-137864D02*
Y-136020D01*
X300692Y-143894D02*
Y-142194D01*
X293900Y-141374D02*
X294720Y-142194D01*
X302092Y-144474D02*
Y-141614D01*
X299070Y-146994D02*
X300300Y-148224D01*
X301272Y-145294D02*
X302092Y-144474D01*
X295300Y-139094D02*
X299070D01*
X297890Y-145294D02*
X301272D01*
X212850Y-125590D02*
X215000Y-127740D01*
X204300Y-122145D02*
X206050D01*
X209450Y-122520D02*
X211150D01*
Y-120286D02*
X212850D01*
X206050Y-122345D02*
X207750D01*
X212850Y-125590D02*
Y-120286D01*
X204000Y-122145D02*
X204300D01*
X206050Y-122345D02*
Y-122145D01*
X207750Y-118656D02*
X209450D01*
Y-122520D02*
Y-118656D01*
X211150Y-122520D02*
Y-120286D01*
X207750Y-122345D02*
Y-118656D01*
X315900Y-125990D02*
Y-124290D01*
X307700Y-129090D02*
X316480D01*
X307700Y-133590D02*
X316480D01*
X311630Y-124290D02*
X315900D01*
X309990Y-142890D02*
X310400Y-143300D01*
X317300Y-126570D02*
Y-123710D01*
X309990Y-145220D02*
X310400Y-144810D01*
X307700Y-139790D02*
X316480D01*
X307120Y-125990D02*
X315900D01*
X310400Y-123060D02*
Y-122300D01*
X307700Y-135290D02*
Y-133590D01*
X306300Y-135870D02*
X307120Y-136690D01*
X310400Y-144810D02*
Y-143300D01*
X316480Y-127390D02*
X317300Y-126570D01*
X315900Y-132190D02*
Y-130490D01*
X316480Y-139790D02*
X317300Y-138970D01*
X307700Y-135290D02*
X316480D01*
X306300Y-142070D02*
X307120Y-142890D01*
X307700Y-141490D02*
Y-139790D01*
X307120Y-138390D02*
X315900D01*
Y-136690D01*
X306300Y-126810D02*
X307120Y-125990D01*
Y-130490D02*
X315900D01*
X311800Y-145320D02*
Y-142720D01*
X305950Y-145220D02*
X309990D01*
X306300Y-133010D02*
X307120Y-132190D01*
X316480Y-135290D02*
X317300Y-136110D01*
X311800Y-122480D02*
X312210Y-122890D01*
X317300Y-138970D02*
Y-136110D01*
X309820Y-121720D02*
X310400Y-122300D01*
X306300Y-129670D02*
X307120Y-130490D01*
Y-136690D02*
X315900D01*
X316480Y-133590D02*
X317300Y-132770D01*
X306300Y-142070D02*
Y-139210D01*
X307120Y-132190D02*
X315900D01*
X311800Y-122480D02*
Y-121720D01*
Y-121720D01*
X316480Y-122890D02*
X317300Y-123710D01*
X316480Y-129090D02*
X317300Y-129910D01*
X312210Y-122890D02*
X316480D01*
X307700Y-127390D02*
X316480D01*
X307700Y-141490D02*
X310570D01*
X310400Y-123060D02*
X311630Y-124290D01*
X306300Y-129670D02*
Y-126810D01*
X307700Y-129090D02*
Y-127390D01*
X306300Y-135870D02*
Y-133010D01*
X307120Y-142890D02*
X309990D01*
X306300Y-139210D02*
X307120Y-138390D01*
X310570Y-141490D02*
X311800Y-142720D01*
X317300Y-132770D02*
Y-129910D01*
X242554Y-130430D02*
X243374Y-129610D01*
X236594Y-123816D02*
X239454D01*
X235944Y-130216D02*
X237174Y-128986D01*
Y-125216D01*
X246304Y-130216D02*
X248400D01*
X241974Y-129030D02*
Y-124636D01*
X235364Y-128816D02*
X235774Y-128406D01*
X245654Y-123816D02*
X246474Y-124636D01*
X239694Y-130430D02*
X242554D01*
X238874Y-129610D02*
Y-125216D01*
X246474Y-128406D02*
Y-124636D01*
X235774D02*
X236594Y-123816D01*
X237174Y-125216D02*
X238874D01*
X240274Y-129030D02*
Y-124636D01*
X243374Y-129610D02*
Y-125216D01*
X245074D01*
X235774Y-128406D02*
Y-124636D01*
X240274Y-129030D02*
X241974D01*
X242794Y-123816D02*
X245654D01*
X245074Y-128986D02*
Y-125216D01*
X241974Y-124636D02*
X242794Y-123816D01*
X234604Y-130216D02*
X235944D01*
X246884Y-128816D02*
X248400D01*
X245074Y-128986D02*
X246304Y-130216D01*
X234604Y-128816D02*
X235364D01*
X238874Y-129610D02*
X239694Y-130430D01*
X246474Y-128406D02*
X246884Y-128816D01*
X239454Y-123816D02*
X240274Y-124636D01*
X255611Y-124619D02*
X258471D01*
X257891Y-123219D02*
Y-120849D01*
X251861Y-121019D02*
X253091Y-119789D01*
X259291Y-123799D02*
Y-121429D01*
X253091Y-117533D02*
X254791D01*
X251691Y-119209D02*
Y-116953D01*
X251281Y-119619D02*
X251691Y-119209D01*
X252511Y-116133D02*
X255371D01*
X257891Y-120849D02*
X259121Y-119619D01*
X254791Y-123799D02*
X255611Y-124619D01*
X259701Y-121019D02*
X261600D01*
X256191Y-123219D02*
Y-116953D01*
X258471Y-124619D02*
X259291Y-123799D01*
X250521Y-119619D02*
X251281D01*
X255371Y-116133D02*
X256191Y-116953D01*
X250521Y-119619D02*
X250521Y-119619D01*
X259291Y-121429D02*
X259701Y-121019D01*
X250521Y-119619D02*
Y-119619D01*
X253091Y-119789D02*
Y-117533D01*
X250521Y-121599D02*
X251101Y-121019D01*
X254791Y-123799D02*
Y-117533D01*
X251691Y-116953D02*
X252511Y-116133D01*
X259121Y-119619D02*
X261600D01*
X251101Y-121019D02*
X251861D01*
X256191Y-123219D02*
X257891D01*
X285456Y-142770D02*
Y-141070D01*
X285256Y-135970D02*
Y-135284D01*
X280100Y-147870D02*
X285256D01*
X280100Y-141070D02*
X285456D01*
X280100Y-144470D02*
Y-142770D01*
Y-147870D02*
Y-146170D01*
X285456D02*
Y-144470D01*
X283172Y-137670D02*
Y-135970D01*
X280100Y-144470D02*
X285456D01*
X280100Y-141070D02*
Y-139370D01*
X283172Y-135970D02*
X285256D01*
X280100Y-146170D02*
X285456D01*
Y-139370D02*
Y-137670D01*
X283172D02*
X285456D01*
X280100Y-142770D02*
X285456D01*
X280100Y-139370D02*
X285456D01*
X285256Y-148220D02*
Y-147870D01*
X204650Y-103849D02*
X206350D01*
X208050Y-109549D02*
Y-104770D01*
X209750Y-109349D02*
X211553D01*
X208050Y-104770D02*
X209750D01*
X204300Y-109349D02*
X204650D01*
X206350Y-109549D02*
Y-103849D01*
Y-109549D02*
X208050D01*
X204650Y-109349D02*
Y-103849D01*
X209750Y-109349D02*
Y-104770D01*
X247303Y-123170D02*
X249300D01*
X247303D02*
Y-121470D01*
X249100Y-126920D02*
Y-126570D01*
X249300Y-124870D02*
Y-123170D01*
X247874Y-126570D02*
X249100D01*
X247303Y-121470D02*
X249100D01*
X247874Y-124870D02*
X249300D01*
X249100Y-121470D02*
Y-121040D01*
X250320Y-119820D01*
X247874Y-126570D02*
Y-124870D01*
X263050Y-114502D02*
Y-111515D01*
X257950Y-113006D02*
Y-111515D01*
X259650Y-108767D02*
X261350D01*
Y-114502D02*
X263050D01*
X265020Y-111515D02*
X266400Y-112895D01*
X255900Y-111515D02*
X257950D01*
Y-113006D02*
X259650D01*
X261350Y-114502D02*
Y-108767D01*
X259650Y-113006D02*
Y-108767D01*
X263050Y-111515D02*
X265020D01*
X253800Y-112915D02*
X255900D01*
X241570Y-115115D02*
Y-107630D01*
X254380Y-111515D02*
X255900D01*
X244670Y-115694D02*
Y-108210D01*
X237070Y-111105D02*
Y-107630D01*
X243270D02*
X244090Y-106810D01*
X246370Y-115694D02*
Y-108210D01*
X240170Y-115694D02*
Y-108210D01*
X236660Y-111515D02*
X237070Y-111105D01*
Y-107630D02*
X237890Y-106810D01*
X243850Y-116515D02*
X244670Y-115694D01*
X243270Y-115115D02*
Y-107630D01*
X235900Y-112915D02*
X237240D01*
X240990Y-116515D02*
X243850D01*
X250870Y-108210D02*
X252570D01*
Y-111685D02*
X253800Y-112915D01*
X247770Y-115115D02*
Y-107630D01*
X244670Y-108210D02*
X246370D01*
X241570Y-115115D02*
X243270D01*
X250290Y-106810D02*
X253150D01*
X253970Y-111105D02*
X254380Y-111515D01*
X249470Y-107630D02*
X250290Y-106810D01*
X244090D02*
X246950D01*
X240170Y-115694D02*
X240990Y-116515D01*
X240750Y-106810D02*
X241570Y-107630D01*
X235900Y-111515D02*
X236660D01*
X252570Y-111685D02*
Y-108210D01*
X253150Y-106810D02*
X253970Y-107630D01*
X246950Y-106810D02*
X247770Y-107630D01*
X238470Y-108210D02*
X240170D01*
X247770Y-115115D02*
X249470D01*
X253970Y-111105D02*
Y-107630D01*
X247190Y-116515D02*
X250050D01*
X250870Y-115694D02*
Y-108210D01*
X237890Y-106810D02*
X240750D01*
X249470Y-115115D02*
Y-107630D01*
X250050Y-116515D02*
X250870Y-115694D01*
X238470Y-111685D02*
Y-108210D01*
X246370Y-115694D02*
X247190Y-116515D01*
X237240Y-112915D02*
X238470Y-111685D01*
X290068Y-162417D02*
X290112Y-162460D01*
X295656Y-154783D02*
X295700Y-154739D01*
X295656Y-153296D02*
X295700Y-153339D01*
X272428Y-152224D02*
X272472Y-152180D01*
X272428Y-150737D02*
X272472Y-150780D01*
X223421Y-126683D02*
X230409D01*
X230704Y-126388D01*
X229720Y-120089D02*
X230704D01*
X228692Y-121117D02*
X229720Y-120089D01*
X228692Y-121138D02*
Y-121117D01*
X226241Y-123588D02*
X228692Y-121138D01*
X223957Y-123588D02*
X226241D01*
X223421Y-124124D02*
X223957Y-123588D01*
X226193Y-113352D02*
X226237Y-113308D01*
X226193Y-111865D02*
X226237Y-111908D01*
X202965Y-123588D02*
X203009Y-123545D01*
X197420Y-123588D02*
X199657D01*
X196658Y-123545D02*
X197377D01*
X196265Y-123938D02*
X196658Y-123545D01*
X197377D02*
X197420Y-123588D01*
X199657D02*
X200193Y-124124D01*
X193319Y-123938D02*
X196265D01*
X192909Y-126388D02*
Y-124348D01*
X193319Y-123938D01*
X199657Y-122101D02*
X200193Y-121565D01*
X192909Y-122128D02*
Y-120089D01*
X197420Y-122101D02*
X199657D01*
X196078Y-122145D02*
X197377D01*
X197420Y-122101D01*
X192909Y-122128D02*
X193319Y-122538D01*
X195685D02*
X196078Y-122145D01*
X193319Y-122538D02*
X195685D01*
X202965Y-110793D02*
X203009Y-110749D01*
X199657Y-110793D02*
X200193Y-111329D01*
X197377Y-110749D02*
X197420Y-110793D01*
X196275Y-110749D02*
X197377D01*
X197420Y-110793D02*
X199657D01*
X194465Y-112559D02*
X196275Y-110749D01*
X194465Y-114336D02*
Y-112559D01*
X193438Y-115364D02*
X194465Y-114336D01*
X192909Y-115364D02*
X193438D01*
X202965Y-109306D02*
X203009Y-109349D01*
X199657Y-109306D02*
X200193Y-108770D01*
X197420Y-109306D02*
X199657D01*
X192909Y-109065D02*
X193193Y-109349D01*
X197377D02*
X197420Y-109306D01*
X193193Y-109349D02*
X197377D01*
X261600Y-121019D02*
X263432D01*
X264154Y-121741D01*
X264900D01*
X250500Y-121620D02*
X250521Y-121599D01*
X250500Y-129300D02*
Y-121620D01*
X249584Y-130216D02*
X250500Y-129300D01*
X248400Y-130216D02*
X249584D01*
X222885Y-124660D02*
X223421Y-124124D01*
X220649Y-124660D02*
X222885D01*
X220605Y-124704D02*
X220649Y-124660D01*
X219140Y-124704D02*
X220605D01*
X217910Y-125934D02*
X219140Y-124704D01*
X217910Y-128189D02*
Y-125934D01*
X219937Y-130216D02*
X234604D01*
X217910Y-128189D02*
X219937Y-130216D01*
X263432Y-119619D02*
X264154Y-118897D01*
X264900D01*
X261600Y-119619D02*
X263432D01*
X250320Y-119820D02*
X250521Y-119619D01*
X249100Y-128406D02*
Y-126920D01*
X248690Y-128816D02*
X249100Y-128406D01*
X248400Y-128816D02*
X248690D01*
X219720Y-126147D02*
X222885D01*
X219310Y-126557D02*
X219720Y-126147D01*
X222885D02*
X223421Y-126683D01*
X219310Y-127609D02*
Y-126557D01*
X220517Y-128816D02*
X234604D01*
X219310Y-127609D02*
X220517Y-128816D01*
X255900Y-112915D02*
X256161D01*
X258867Y-115620D01*
X230294Y-112915D02*
X235900D01*
X227929D02*
X230294D01*
X230704Y-113325D01*
X227535Y-113308D02*
X227929Y-112915D01*
X226237Y-113308D02*
X227535D01*
X223957Y-113352D02*
X226193D01*
X230704Y-115364D02*
Y-113325D01*
X223421Y-113888D02*
X223957Y-113352D01*
X266400Y-112895D02*
X270778Y-117273D01*
Y-117819D02*
Y-117273D01*
X230704Y-111105D02*
Y-109065D01*
X227349Y-111515D02*
X230294D01*
X230704Y-111105D01*
X230294Y-111515D02*
X235900D01*
X226955Y-111908D02*
X227349Y-111515D01*
X223421Y-111329D02*
X223957Y-111865D01*
X226237Y-111908D02*
X226955D01*
X223957Y-111865D02*
X226193D01*
X259890Y-105610D02*
X263730Y-109449D01*
X217890Y-105610D02*
X259890D01*
X212750Y-110749D02*
X217890Y-105610D01*
X203009Y-110749D02*
X212750D01*
X200728Y-110793D02*
X202965D01*
X200193Y-111329D02*
X200728Y-110793D01*
X217310Y-104210D02*
X261993D01*
X266900Y-109117D01*
X212170Y-109349D02*
X217310Y-104210D01*
X266900Y-110620D02*
Y-109117D01*
X211553Y-109349D02*
X212170D01*
X275234Y-117275D02*
Y-115954D01*
X273657Y-114377D02*
X275234Y-115954D01*
Y-117275D02*
X275778Y-117819D01*
X269900Y-113620D02*
X272900D01*
X266900Y-110620D02*
X269900Y-113620D01*
X273657Y-114377D02*
X273657D01*
X272900Y-113620D02*
X273657Y-114377D01*
X203009Y-109349D02*
X204300D01*
X200193Y-108770D02*
X200728Y-109306D01*
X202965D01*
X280778Y-123365D02*
Y-122819D01*
X277402Y-126741D02*
X280778Y-123365D01*
X260779Y-126741D02*
X277402D01*
X255890Y-131630D02*
X260779Y-126741D01*
X218890Y-131630D02*
X255890D01*
X215000Y-127740D02*
X218890Y-131630D01*
X200728Y-122101D02*
X202965D01*
X200193Y-121565D02*
X200728Y-122101D01*
X203009Y-122145D02*
X204000D01*
X202965Y-122101D02*
X203009Y-122145D01*
X260543Y-128976D02*
X261900D01*
X256910Y-132610D02*
X260543Y-128976D01*
X256890Y-132610D02*
X256910D01*
X256470Y-133030D02*
X256890Y-132610D01*
X208825Y-123545D02*
X218310Y-133030D01*
X256470D01*
X203009Y-123545D02*
X208825D01*
X200728Y-123588D02*
X202965D01*
X200193Y-124124D02*
X200728Y-123588D01*
X285778Y-125342D02*
Y-122819D01*
X285368Y-125752D02*
X285778Y-125342D01*
X284208Y-125752D02*
X285368D01*
X277500Y-132460D02*
X284208Y-125752D01*
X275339Y-150780D02*
X277500Y-148620D01*
X272472Y-150780D02*
X275339D01*
X270192Y-150737D02*
X272428D01*
X269656Y-150201D02*
X270192Y-150737D01*
X285778Y-128208D02*
X286900Y-129330D01*
X285778Y-128208D02*
Y-127562D01*
X286900Y-129620D02*
Y-129330D01*
X285368Y-127152D02*
X285778Y-127562D01*
X284788Y-127152D02*
X285368D01*
X278900Y-149200D02*
Y-133040D01*
X284788Y-127152D01*
X275919Y-152180D02*
X278900Y-149200D01*
X272472Y-152180D02*
X275919D01*
X269656Y-152760D02*
X270192Y-152224D01*
X272428D01*
X290778Y-126162D02*
Y-122819D01*
X289136Y-131404D02*
Y-127804D01*
X290778Y-126162D01*
X285256Y-135284D02*
X289136Y-131404D01*
X292348Y-162460D02*
X292884Y-162996D01*
X290112Y-162460D02*
X292348D01*
X288498Y-162417D02*
X290068D01*
X284000Y-157918D02*
X288498Y-162417D01*
X284000Y-149476D02*
X285256Y-148220D01*
X284000Y-157918D02*
Y-149476D01*
X292348Y-160973D02*
X292884Y-160437D01*
X291695Y-129825D02*
X291900Y-129620D01*
X291124Y-129825D02*
X291695D01*
X290536Y-130413D02*
X291124Y-129825D01*
X290536Y-131984D02*
Y-130413D01*
X286456Y-136064D02*
X290536Y-131984D01*
X286456Y-146867D02*
X286656Y-146667D01*
X286456Y-136973D02*
X286656Y-137173D01*
Y-146667D02*
Y-137173D01*
X286456Y-136973D02*
Y-136064D01*
Y-148717D02*
Y-146867D01*
X290112Y-160973D02*
X292348D01*
X290068Y-161016D02*
X290112Y-160973D01*
X289078Y-161016D02*
X290068D01*
X285200Y-157138D02*
Y-149973D01*
X286456Y-148717D01*
X285200Y-157138D02*
X289078Y-161016D01*
X297000Y-134120D02*
X298900Y-136020D01*
Y-151129D02*
Y-149564D01*
X296690Y-153339D02*
X298900Y-151129D01*
X295778Y-123428D02*
Y-122819D01*
Y-123428D02*
X297000Y-124651D01*
X295700Y-153339D02*
X296690D01*
X293420Y-153296D02*
X295656D01*
X292884Y-152760D02*
X293420Y-153296D01*
X301900Y-130620D02*
Y-130245D01*
X300300Y-132220D02*
X301900Y-130620D01*
X300300Y-136020D02*
Y-132220D01*
Y-151709D02*
Y-149564D01*
X297270Y-154739D02*
X300300Y-151709D01*
X295700Y-154739D02*
X297270D01*
X293420Y-154783D02*
X295656D01*
X292884Y-155319D02*
X293420Y-154783D01*
X309119Y-121019D02*
X309820Y-121720D01*
X306467Y-153033D02*
Y-152474D01*
X307298Y-153864D02*
X309168D01*
X306467Y-153033D02*
X307298Y-153864D01*
X303124Y-121019D02*
X309119D01*
X300778Y-122819D02*
X301324D01*
X303124Y-121019D01*
X306056Y-152064D02*
X306467Y-152474D01*
X304620Y-145220D02*
X305950D01*
X303292Y-146548D02*
X304620Y-145220D01*
X303292Y-150685D02*
Y-146548D01*
X304671Y-152064D02*
X306056D01*
X303292Y-150685D02*
X304671Y-152064D01*
X309699Y-119619D02*
X311800Y-121720D01*
Y-145389D02*
Y-145320D01*
X310570Y-146620D02*
X311800Y-145389D01*
X303124Y-119619D02*
X309699D01*
X300778Y-117819D02*
X301324D01*
X303124Y-119619D01*
X307298Y-148864D02*
X309168D01*
X305200Y-146620D02*
X310570D01*
X306467Y-149695D02*
X307298Y-148864D01*
X306056Y-150664D02*
X306467Y-150254D01*
X304692Y-150105D02*
Y-147128D01*
X306467Y-150254D02*
Y-149695D01*
X304692Y-147128D02*
X305200Y-146620D01*
X305251Y-150664D02*
X306056D01*
X304692Y-150105D02*
X305251Y-150664D01*
X217332Y-19791D02*
X262015D01*
X217912Y-21191D02*
X259912D01*
X218332Y-48611D02*
X256492D01*
X218912Y-47211D02*
X255912D01*
X212193Y-24930D02*
X217332Y-19791D01*
X208847Y-39126D02*
X218332Y-48611D01*
X303146Y-35200D02*
X309721D01*
X303146Y-36600D02*
X309141D01*
X260801Y-42322D02*
X277424D01*
X305222Y-62201D02*
X310592D01*
X212772Y-26330D02*
X217912Y-21191D01*
X297022Y-49701D02*
X298922Y-51601D01*
X286478Y-51645D02*
X290558Y-47565D01*
X289158Y-46985D02*
Y-43385D01*
X290800Y-41743D01*
X278922Y-48621D02*
X284810Y-42733D01*
X277522Y-48041D02*
X284230Y-41333D01*
X304693Y-67645D02*
X306079D01*
X297292Y-70320D02*
X300322Y-67290D01*
X296712Y-68920D02*
X298922Y-66711D01*
X285222Y-72719D02*
X289100Y-76598D01*
X262015Y-19791D02*
X266922Y-24698D01*
X255912Y-47211D02*
X260801Y-42322D01*
X249122Y-43987D02*
Y-42501D01*
X248712Y-44397D02*
X249122Y-43987D01*
X272494Y-67761D02*
X275941D01*
X223979Y-27446D02*
X226215D01*
X215022Y-43321D02*
X218912Y-47211D01*
X192931Y-37709D02*
Y-35670D01*
X295800Y-39010D02*
X297022Y-40232D01*
X285278Y-50865D02*
X289158Y-46985D01*
X304714Y-62709D02*
X305222Y-62201D01*
X305273Y-66245D02*
X306079D01*
X304714Y-65686D02*
X305273Y-66245D01*
X304642Y-60801D02*
X305972D01*
X295722Y-70320D02*
X297292D01*
X289100Y-76598D02*
X290090D01*
X288520Y-77998D02*
X290090D01*
X269922Y-29201D02*
X272922D01*
X273679Y-29958D01*
X256184Y-28496D02*
X258889Y-31201D01*
X264176Y-34478D02*
X264922D01*
X264176Y-37322D02*
X264922D01*
X256932Y-48191D02*
X260565Y-44557D01*
X256912Y-48191D02*
X256932D01*
X256492Y-48611D02*
X256912Y-48191D01*
X248422Y-45797D02*
X249606D01*
X272494Y-66361D02*
X275361D01*
X230316Y-27096D02*
X235922D01*
X230316Y-28496D02*
X235922D01*
X223979Y-28933D02*
X226215D01*
X223979Y-39169D02*
X226264D01*
X223443Y-42264D02*
X230431D01*
X220539Y-44397D02*
X234626D01*
X219959Y-45797D02*
X234626D01*
X192931Y-24646D02*
X193216Y-24930D01*
X197399D01*
X200750Y-24887D02*
X202987D01*
X203031Y-26330D02*
X212772D01*
X200750Y-26374D02*
X202987D01*
X193460Y-30945D02*
X194488Y-29917D01*
X192931Y-30945D02*
X193460D01*
X192931Y-37709D02*
X193341Y-38119D01*
X195707D01*
X193341Y-39519D02*
X196287D01*
X192931Y-41969D02*
Y-39930D01*
X193341Y-39519D01*
X203031Y-39126D02*
X208847D01*
X200750Y-39169D02*
X202987D01*
X200750Y-37682D02*
X202987D01*
X278922Y-64781D02*
Y-48621D01*
X309721Y-35200D02*
X311822Y-37301D01*
X306079Y-67645D02*
X306489Y-68055D01*
X300322Y-51601D02*
Y-47801D01*
X303314Y-66266D02*
X304693Y-67645D01*
X292370Y-76554D02*
X292906Y-76018D01*
X286678Y-62248D02*
Y-52754D01*
X286478Y-52554D02*
Y-51645D01*
X285800Y-43789D02*
X286922Y-44911D01*
X285800Y-43789D02*
Y-43143D01*
X285222Y-72719D02*
Y-65554D01*
X284022Y-73499D02*
X288520Y-77998D01*
X284022Y-73499D02*
Y-65057D01*
X275941Y-67761D02*
X278922Y-64781D01*
X266922Y-26201D02*
X269922Y-29201D01*
X272450Y-67805D02*
X272494Y-67761D01*
X269678Y-68341D02*
X270214Y-67805D01*
X272450D01*
X250342Y-35401D02*
X250543Y-35200D01*
X250522Y-44881D02*
Y-37201D01*
X226215Y-27446D02*
X226259Y-27490D01*
X226977D02*
X227371Y-27096D01*
X226259Y-27490D02*
X226977D01*
X229742Y-35670D02*
X230727D01*
X228714Y-36698D02*
X229742Y-35670D01*
X223443Y-26910D02*
X223979Y-27446D01*
X219332Y-43190D02*
X220539Y-44397D01*
X217932Y-43770D02*
Y-41515D01*
Y-43770D02*
X219959Y-45797D01*
X194488Y-28141D02*
X196298Y-26330D01*
X309141Y-36600D02*
X309842Y-37301D01*
X311822Y-60971D02*
Y-60901D01*
X310592Y-62201D02*
X311822Y-60971D01*
X307320Y-64445D02*
X309190D01*
X306489Y-65276D02*
X307320Y-64445D01*
X306079Y-66245D02*
X306489Y-65835D01*
Y-65276D01*
Y-68614D02*
Y-68055D01*
X307320Y-69445D02*
X309190D01*
X306489Y-68614D02*
X307320Y-69445D01*
X300800Y-33400D02*
X301346D01*
X303146Y-35200D01*
X300800Y-38400D02*
X301346D01*
X303146Y-36600D01*
X301922Y-46201D02*
Y-45826D01*
X300322Y-47801D02*
X301922Y-46201D01*
X304714Y-65686D02*
Y-62709D01*
X303314Y-62129D02*
X304642Y-60801D01*
X303314Y-66266D02*
Y-62129D01*
X300322Y-67290D02*
Y-65145D01*
X298922Y-66711D02*
Y-65145D01*
X295800Y-39010D02*
Y-38400D01*
X290800Y-41743D02*
Y-38400D01*
X291717Y-45406D02*
X291922Y-45201D01*
X291146Y-45406D02*
X291717D01*
X290558Y-45994D02*
X291146Y-45406D01*
X290558Y-47565D02*
Y-45994D01*
X295678Y-68877D02*
X295722Y-68920D01*
X295678Y-70364D02*
X295722Y-70320D01*
X293442Y-70364D02*
X295678D01*
X292906Y-70900D02*
X293442Y-70364D01*
X295722Y-68920D02*
X296712D01*
X293442Y-68877D02*
X295678D01*
X292906Y-68341D02*
X293442Y-68877D01*
X290090Y-77998D02*
X290134Y-78041D01*
X290134Y-76554D02*
X292370D01*
X290090Y-76598D02*
X290134Y-76554D01*
X292370Y-78041D02*
X292906Y-78577D01*
X290134Y-78041D02*
X292370D01*
X285390Y-42733D02*
X285800Y-43143D01*
X284810Y-42733D02*
X285390D01*
X285800Y-40923D02*
Y-38400D01*
X285390Y-41333D02*
X285800Y-40923D01*
X284230Y-41333D02*
X285390D01*
X286922Y-45201D02*
Y-44911D01*
X286478Y-52554D02*
X286678Y-52754D01*
X286478Y-62448D02*
X286678Y-62248D01*
X286478Y-64298D02*
Y-62448D01*
X285222Y-65554D02*
X286478Y-64298D01*
X284022Y-65057D02*
X285278Y-63801D01*
X275256Y-32856D02*
Y-31535D01*
X273679Y-29958D02*
X275256Y-31535D01*
Y-32856D02*
X275800Y-33400D01*
X273679Y-29958D02*
X273679D01*
X280800Y-38946D02*
Y-38400D01*
X277424Y-42322D02*
X280800Y-38946D01*
X275361Y-66361D02*
X277522Y-64201D01*
X266922Y-26201D02*
Y-24698D01*
X266422Y-28476D02*
X270800Y-32854D01*
Y-33400D02*
Y-32854D01*
X272450Y-66318D02*
X272494Y-66361D01*
X270214Y-66318D02*
X272450D01*
X269678Y-65782D02*
X270214Y-66318D01*
X259912Y-21191D02*
X263752Y-25030D01*
X263454Y-35200D02*
X264176Y-34478D01*
X261622Y-35200D02*
X263454D01*
X261622Y-36600D02*
X263454D01*
X264176Y-37322D01*
X260565Y-44557D02*
X261922D01*
X255922Y-28496D02*
X256184D01*
X250522Y-37201D02*
X250543Y-37180D01*
X249606Y-45797D02*
X250522Y-44881D01*
X248422Y-44397D02*
X248712D01*
X230727Y-26686D02*
Y-24646D01*
X227371Y-27096D02*
X230316D01*
X230727Y-26686D01*
X226215Y-28933D02*
X226259Y-28890D01*
X227951Y-28496D02*
X230316D01*
X230727Y-28906D01*
X227557Y-28890D02*
X227951Y-28496D01*
X226259Y-28890D02*
X227557D01*
X230727Y-30945D02*
Y-28906D01*
X228714Y-36719D02*
Y-36698D01*
X226264Y-39169D02*
X228714Y-36719D01*
X230431Y-42264D02*
X230727Y-41969D01*
X223443Y-29469D02*
X223979Y-28933D01*
X223443Y-39705D02*
X223979Y-39169D01*
X219742Y-41728D02*
X222907D01*
X219332Y-42138D02*
X219742Y-41728D01*
X222907D02*
X223443Y-42264D01*
X219332Y-43190D02*
Y-42138D01*
X222907Y-40241D02*
X223443Y-39705D01*
X220671Y-40241D02*
X222907D01*
X220627Y-40285D02*
X220671Y-40241D01*
X219162Y-40285D02*
X220627D01*
X217932Y-41515D02*
X219162Y-40285D01*
X211575Y-24930D02*
X212193D01*
X202987Y-24887D02*
X203031Y-24930D01*
X202987Y-26374D02*
X203031Y-26330D01*
Y-24930D02*
X204322D01*
X202987Y-39169D02*
X203031Y-39126D01*
Y-37726D02*
X204022D01*
X202987Y-37682D02*
X203031Y-37726D01*
X199679Y-24887D02*
X200215Y-24351D01*
X197442Y-24887D02*
X199679D01*
X197399Y-24930D02*
X197442Y-24887D01*
X199679Y-26374D02*
X200215Y-26910D01*
X197399Y-26330D02*
X197442Y-26374D01*
X196298Y-26330D02*
X197399D01*
X197442Y-26374D02*
X199679D01*
X200215Y-24351D02*
X200750Y-24887D01*
X200215Y-26910D02*
X200750Y-26374D01*
X194488Y-29917D02*
Y-28141D01*
X199679Y-37682D02*
X200215Y-37146D01*
X197442Y-37682D02*
X199679D01*
X197399Y-37726D02*
X197442Y-37682D01*
X196100Y-37726D02*
X197399D01*
X195707Y-38119D02*
X196100Y-37726D01*
X197442Y-39169D02*
X199679D01*
X196680Y-39126D02*
X197399D01*
X196287Y-39519D02*
X196680Y-39126D01*
X197399D02*
X197442Y-39169D01*
X199679D02*
X200215Y-39705D01*
X200750Y-39169D01*
X200215Y-37146D02*
X200750Y-37682D01*
X212872Y-41171D02*
X215022Y-43321D01*
X212872Y-41171D02*
Y-35867D01*
X211172D02*
X212872D01*
X211172Y-38101D02*
Y-35867D01*
X209472Y-38101D02*
X211172D01*
X209472D02*
Y-34237D01*
X207772D02*
X209472D01*
X207772Y-37926D02*
Y-34237D01*
X206072Y-37926D02*
X207772D01*
X206072D02*
Y-37726D01*
X204322D02*
X206072D01*
X204022D02*
X204322D01*
X265042Y-27096D02*
X266422Y-28476D01*
X263072Y-27096D02*
X265042D01*
X263072Y-30083D02*
Y-27096D01*
X261372Y-30083D02*
X263072D01*
X261372D02*
Y-24348D01*
X259672D02*
X261372D01*
X259672Y-28587D02*
Y-24348D01*
X257972Y-28587D02*
X259672D01*
X257972D02*
Y-27096D01*
X255922D02*
X257972D01*
X249122Y-36621D02*
X250342Y-35401D01*
X249122Y-37051D02*
Y-36621D01*
X247325Y-37051D02*
X249122D01*
X247325Y-38751D02*
Y-37051D01*
Y-38751D02*
X249322D01*
Y-40451D02*
Y-38751D01*
X247896Y-40451D02*
X249322D01*
X247896Y-42151D02*
Y-40451D01*
Y-42151D02*
X249122D01*
Y-42501D02*
Y-42151D01*
X259723Y-36600D02*
X261622D01*
X259313Y-37010D02*
X259723Y-36600D01*
X259313Y-39380D02*
Y-37010D01*
X258493Y-40200D02*
X259313Y-39380D01*
X255633Y-40200D02*
X258493D01*
X254813Y-39380D02*
X255633Y-40200D01*
X254813Y-39380D02*
Y-33114D01*
X253113D02*
X254813D01*
X253113Y-35370D02*
Y-33114D01*
X251883Y-36600D02*
X253113Y-35370D01*
X251123Y-36600D02*
X251883D01*
X250543Y-37180D02*
X251123Y-36600D01*
X259143Y-35200D02*
X261622D01*
X257913Y-36430D02*
X259143Y-35200D01*
X257913Y-38800D02*
Y-36430D01*
X256213Y-38800D02*
X257913D01*
X256213D02*
Y-32535D01*
X255393Y-31714D02*
X256213Y-32535D01*
X252533Y-31714D02*
X255393D01*
X251713Y-32535D02*
X252533Y-31714D01*
X251713Y-34790D02*
Y-32535D01*
X251303Y-35200D02*
X251713Y-34790D01*
X250543Y-35200D02*
X251303D01*
X250543Y-35200D02*
X250543Y-35200D01*
X250543Y-35200D02*
Y-35200D01*
X305972Y-60801D02*
X310012D01*
X310422Y-60391D01*
Y-58881D01*
X310012Y-58471D02*
X310422Y-58881D01*
X307142Y-58471D02*
X310012D01*
X306322Y-57651D02*
X307142Y-58471D01*
X306322Y-57651D02*
Y-54791D01*
X307142Y-53971D01*
X315922D01*
Y-52271D01*
X307142D02*
X315922D01*
X306322Y-51451D02*
X307142Y-52271D01*
X306322Y-51451D02*
Y-48591D01*
X307142Y-47771D01*
X315922D01*
Y-46071D01*
X307142D02*
X315922D01*
X306322Y-45251D02*
X307142Y-46071D01*
X306322Y-45251D02*
Y-42391D01*
X307142Y-41571D01*
X315922D01*
Y-39871D01*
X311652D02*
X315922D01*
X310422Y-38641D02*
X311652Y-39871D01*
X310422Y-38641D02*
Y-37881D01*
X309842Y-37301D02*
X310422Y-37881D01*
X311822Y-60901D02*
Y-58301D01*
X310592Y-57071D02*
X311822Y-58301D01*
X307722Y-57071D02*
X310592D01*
X307722D02*
Y-55371D01*
X316502D01*
X317322Y-54551D01*
Y-51691D01*
X316502Y-50871D02*
X317322Y-51691D01*
X307722Y-50871D02*
X316502D01*
X307722D02*
Y-49171D01*
X316502D01*
X317322Y-48351D01*
Y-45491D01*
X316502Y-44671D02*
X317322Y-45491D01*
X307722Y-44671D02*
X316502D01*
X307722D02*
Y-42971D01*
X316502D01*
X317322Y-42151D01*
Y-39291D01*
X316502Y-38471D02*
X317322Y-39291D01*
X312232Y-38471D02*
X316502D01*
X311822Y-38061D02*
X312232Y-38471D01*
X311822Y-38061D02*
Y-37301D01*
Y-37301D01*
X246326Y-45797D02*
X248422D01*
X245096Y-44567D02*
X246326Y-45797D01*
X245096Y-44567D02*
Y-40797D01*
X243396D02*
X245096D01*
X243396Y-45191D02*
Y-40797D01*
X242576Y-46011D02*
X243396Y-45191D01*
X239716Y-46011D02*
X242576D01*
X238896Y-45191D02*
X239716Y-46011D01*
X238896Y-45191D02*
Y-40797D01*
X237196D02*
X238896D01*
X237196Y-44567D02*
Y-40797D01*
X235966Y-45797D02*
X237196Y-44567D01*
X234626Y-45797D02*
X235966D01*
X246906Y-44397D02*
X248422D01*
X246496Y-43987D02*
X246906Y-44397D01*
X246496Y-43987D02*
Y-40217D01*
X245676Y-39397D02*
X246496Y-40217D01*
X242816Y-39397D02*
X245676D01*
X241996Y-40217D02*
X242816Y-39397D01*
X241996Y-44611D02*
Y-40217D01*
X240296Y-44611D02*
X241996D01*
X240296D02*
Y-40217D01*
X239476Y-39397D02*
X240296Y-40217D01*
X236616Y-39397D02*
X239476D01*
X235796Y-40217D02*
X236616Y-39397D01*
X235796Y-43987D02*
Y-40217D01*
X235386Y-44397D02*
X235796Y-43987D01*
X234626Y-44397D02*
X235386D01*
X297022Y-40851D02*
Y-40232D01*
Y-40851D02*
X297340D01*
Y-42551D02*
Y-40851D01*
Y-42551D02*
X300335D01*
Y-44251D02*
Y-42551D01*
X294158Y-44251D02*
X300335D01*
X294158Y-45951D02*
Y-44251D01*
Y-45951D02*
X299131D01*
Y-47651D02*
Y-45951D01*
X291755Y-47651D02*
X299131D01*
X291755Y-49351D02*
Y-47651D01*
Y-49351D02*
X297022D01*
Y-49701D02*
Y-49351D01*
X285278Y-51551D02*
Y-50865D01*
X283195Y-51551D02*
X285278D01*
X283195Y-53251D02*
Y-51551D01*
Y-53251D02*
X285478D01*
Y-54951D02*
Y-53251D01*
X280122Y-54951D02*
X285478D01*
X280122Y-56651D02*
Y-54951D01*
Y-56651D02*
X285478D01*
Y-58351D02*
Y-56651D01*
X280122Y-58351D02*
X285478D01*
X280122Y-60051D02*
Y-58351D01*
Y-60051D02*
X285478D01*
Y-61751D02*
Y-60051D01*
X280122Y-61751D02*
X285478D01*
X280122Y-63451D02*
Y-61751D01*
Y-63451D02*
X285278D01*
Y-63801D02*
Y-63451D01*
X209772Y-24930D02*
X211575D01*
X209772D02*
Y-20351D01*
X208072D02*
X209772D01*
X208072Y-25130D02*
Y-20351D01*
X206372Y-25130D02*
X208072D01*
X206372D02*
Y-19430D01*
X204672D02*
X206372D01*
X204672Y-24930D02*
Y-19430D01*
X204322Y-24930D02*
X204672D01*
X300322Y-53445D02*
Y-51601D01*
X299092Y-54675D02*
X300322Y-53445D01*
X295322Y-54675D02*
X299092D01*
X295322Y-56375D02*
Y-54675D01*
Y-56375D02*
X301294D01*
X302114Y-57196D01*
Y-60055D02*
Y-57196D01*
X301294Y-60875D02*
X302114Y-60055D01*
X297912Y-60875D02*
X301294D01*
X297912Y-62575D02*
Y-60875D01*
Y-62575D02*
X299092D01*
X300322Y-63806D01*
Y-65145D02*
Y-63806D01*
X298922Y-52865D02*
Y-51601D01*
X298512Y-53275D02*
X298922Y-52865D01*
X294742Y-53275D02*
X298512D01*
X293922Y-54096D02*
X294742Y-53275D01*
X293922Y-56955D02*
Y-54096D01*
Y-56955D02*
X294742Y-57775D01*
X300714D01*
Y-59475D02*
Y-57775D01*
X297332Y-59475D02*
X300714D01*
X296512Y-60295D02*
X297332Y-59475D01*
X296512Y-63155D02*
Y-60295D01*
Y-63155D02*
X297332Y-63975D01*
X298512D01*
X298922Y-64385D01*
Y-65145D02*
Y-64385D01*
X277522Y-48551D02*
Y-48041D01*
X273635Y-48551D02*
X277522D01*
X273635Y-50251D02*
Y-48551D01*
Y-50251D02*
X277722D01*
Y-51951D02*
Y-50251D01*
X272022Y-51951D02*
X277722D01*
X272022Y-53651D02*
Y-51951D01*
Y-53651D02*
X277722D01*
Y-55351D02*
Y-53651D01*
X272022Y-55351D02*
X277722D01*
X272022Y-57051D02*
Y-55351D01*
Y-57051D02*
X277722D01*
Y-58751D02*
Y-57051D01*
X272022Y-58751D02*
X277722D01*
X272022Y-60451D02*
Y-58751D01*
Y-60451D02*
X277722D01*
Y-62151D02*
Y-60451D01*
X273284Y-62151D02*
X277722D01*
X273284Y-63851D02*
Y-62151D01*
Y-63851D02*
X277522D01*
Y-64201D02*
Y-63851D01*
X253822Y-28496D02*
X255922D01*
X252592Y-27266D02*
X253822Y-28496D01*
X252592Y-27266D02*
Y-23791D01*
X250892D02*
X252592D01*
X250892Y-31276D02*
Y-23791D01*
X250072Y-32096D02*
X250892Y-31276D01*
X247212Y-32096D02*
X250072D01*
X246392Y-31276D02*
X247212Y-32096D01*
X246392Y-31276D02*
Y-23791D01*
X244692D02*
X246392D01*
X244692Y-31276D02*
Y-23791D01*
X243872Y-32096D02*
X244692Y-31276D01*
X241012Y-32096D02*
X243872D01*
X240192Y-31276D02*
X241012Y-32096D01*
X240192Y-31276D02*
Y-23791D01*
X238492D02*
X240192D01*
X238492Y-27266D02*
Y-23791D01*
X237262Y-28496D02*
X238492Y-27266D01*
X235922Y-28496D02*
X237262D01*
X254402Y-27096D02*
X255922D01*
X253992Y-26686D02*
X254402Y-27096D01*
X253992Y-26686D02*
Y-23211D01*
X253172Y-22391D02*
X253992Y-23211D01*
X250312Y-22391D02*
X253172D01*
X249492Y-23211D02*
X250312Y-22391D01*
X249492Y-30696D02*
Y-23211D01*
X247792Y-30696D02*
X249492D01*
X247792D02*
Y-23211D01*
X246972Y-22391D02*
X247792Y-23211D01*
X244112Y-22391D02*
X246972D01*
X243292Y-23211D02*
X244112Y-22391D01*
X243292Y-30696D02*
Y-23211D01*
X241592Y-30696D02*
X243292D01*
X241592D02*
Y-23211D01*
X240772Y-22391D02*
X241592Y-23211D01*
X237912Y-22391D02*
X240772D01*
X237092Y-23211D02*
X237912Y-22391D01*
X237092Y-26686D02*
Y-23211D01*
X236682Y-27096D02*
X237092Y-26686D01*
X235922Y-27096D02*
X236682D01*
X285300Y16647D02*
X286556Y17903D01*
Y29647D02*
X286756Y29447D01*
X286556Y30556D02*
X290636Y34636D01*
X284100Y17144D02*
X285356Y18400D01*
X286556Y17903D02*
Y19753D01*
Y29647D02*
Y30556D01*
Y19753D02*
X286756Y19953D01*
X285300Y9481D02*
X289178Y5603D01*
X285300Y9481D02*
Y16647D01*
X286756Y19953D02*
Y29447D01*
X284100Y8702D02*
X288598Y4203D01*
X284100Y8702D02*
Y17144D01*
X285356Y31336D02*
X289236Y35216D01*
X212950Y41030D02*
X215100Y38880D01*
X212950Y41030D02*
Y46334D01*
X211250D02*
X212950D01*
X211250Y44099D02*
Y46334D01*
X209550Y44099D02*
X211250D01*
X209550D02*
Y47964D01*
X207850D02*
X209550D01*
X207850Y44275D02*
Y47964D01*
X206150Y44275D02*
X207850D01*
X206150D02*
Y44475D01*
X204400D02*
X206150D01*
X204100D02*
X204400D01*
X215100Y38880D02*
X218990Y34990D01*
X203109Y44475D02*
X204100D01*
X265120Y55105D02*
X266500Y53725D01*
X263150Y55105D02*
X265120D01*
X263150Y52118D02*
Y55105D01*
X261450Y52118D02*
X263150D01*
X261450D02*
Y57853D01*
X259750D02*
X261450D01*
X259750Y53614D02*
Y57853D01*
X258050Y53614D02*
X259750D01*
X258050D02*
Y55105D01*
X256000D02*
X258050D01*
X266500Y53725D02*
X270878Y49347D01*
X256261Y53705D02*
X258967Y51000D01*
X256000Y53705D02*
X256261D01*
X270878Y48801D02*
Y49347D01*
X297100Y41350D02*
Y41969D01*
Y41350D02*
X297418D01*
Y39650D02*
Y41350D01*
Y39650D02*
X300413D01*
Y37950D02*
Y39650D01*
X294236Y37950D02*
X300413D01*
X294236Y36250D02*
Y37950D01*
Y36250D02*
X299209D01*
Y34550D02*
Y36250D01*
X291833Y34550D02*
X299209D01*
X291833Y32850D02*
Y34550D01*
Y32850D02*
X297100D01*
Y32500D02*
Y32850D01*
Y32500D02*
X299000Y30600D01*
X295878Y43191D02*
Y43801D01*
Y43191D02*
X297100Y41969D01*
X285356Y30650D02*
Y31336D01*
X283273Y30650D02*
X285356D01*
X283273Y28950D02*
Y30650D01*
Y28950D02*
X285556D01*
Y27250D02*
Y28950D01*
X280200Y27250D02*
X285556D01*
X280200Y25550D02*
Y27250D01*
Y25550D02*
X285556D01*
Y23850D02*
Y25550D01*
X280200Y23850D02*
X285556D01*
X280200Y22150D02*
Y23850D01*
Y22150D02*
X285556D01*
Y20450D02*
Y22150D01*
X280200Y20450D02*
X285556D01*
X280200Y18750D02*
Y20450D01*
Y18750D02*
X285356D01*
Y18400D02*
Y18750D01*
X277600Y33650D02*
Y34160D01*
X273713Y33650D02*
X277600D01*
X273713Y31950D02*
Y33650D01*
Y31950D02*
X277800D01*
Y30250D02*
Y31950D01*
X272100Y30250D02*
X277800D01*
X272100Y28550D02*
Y30250D01*
Y28550D02*
X277800D01*
Y26850D02*
Y28550D01*
X272100Y26850D02*
X277800D01*
X272100Y25150D02*
Y26850D01*
Y25150D02*
X277800D01*
Y23450D02*
Y25150D01*
X272100Y23450D02*
X277800D01*
X272100Y21750D02*
Y23450D01*
Y21750D02*
X277800D01*
Y20050D02*
Y21750D01*
X273362Y20050D02*
X277800D01*
X273362Y18350D02*
Y20050D01*
Y18350D02*
X277600D01*
Y18000D02*
Y18350D01*
X209850Y57270D02*
X211653D01*
X209850D02*
Y61850D01*
X208150D02*
X209850D01*
X208150Y57070D02*
Y61850D01*
X206450Y57070D02*
X208150D01*
X206450D02*
Y62770D01*
X204750D02*
X206450D01*
X204750Y57270D02*
Y62770D01*
X204400Y57270D02*
X204750D01*
X211653D02*
X212270D01*
X203109D02*
X204400D01*
X306050Y21400D02*
X310090D01*
X310500Y21810D01*
Y23320D01*
X310090Y23730D02*
X310500Y23320D01*
X307220Y23730D02*
X310090D01*
X306400Y24550D02*
X307220Y23730D01*
X306400Y24550D02*
Y27410D01*
X307220Y28230D01*
X316000D01*
Y29930D01*
X307220D02*
X316000D01*
X306400Y30750D02*
X307220Y29930D01*
X306400Y30750D02*
Y33610D01*
X307220Y34430D01*
X316000D01*
Y36130D01*
X307220D02*
X316000D01*
X306400Y36950D02*
X307220Y36130D01*
X306400Y36950D02*
Y39810D01*
X307220Y40630D01*
X316000D01*
Y42330D01*
X311730D02*
X316000D01*
X310500Y43560D02*
X311730Y42330D01*
X310500Y43560D02*
Y44320D01*
X309920Y44900D02*
X310500Y44320D01*
X311900Y21300D02*
Y23900D01*
X310670Y25130D02*
X311900Y23900D01*
X307800Y25130D02*
X310670D01*
X307800D02*
Y26830D01*
X316580D01*
X317400Y27650D01*
Y30510D01*
X316580Y31330D02*
X317400Y30510D01*
X307800Y31330D02*
X316580D01*
X307800D02*
Y33030D01*
X316580D01*
X317400Y33850D01*
Y36710D01*
X316580Y37530D02*
X317400Y36710D01*
X307800Y37530D02*
X316580D01*
X307800D02*
Y39230D01*
X316580D01*
X317400Y40050D01*
Y42910D01*
X316580Y43730D02*
X317400Y42910D01*
X312310Y43730D02*
X316580D01*
X311900Y44140D02*
X312310Y43730D01*
X311900Y44140D02*
Y44900D01*
Y44900D01*
X304720Y21400D02*
X306050D01*
X309219Y45601D02*
X309920Y44900D01*
X311900Y21230D02*
Y21300D01*
X310670Y20000D02*
X311900Y21230D01*
X309799Y47001D02*
X311900Y44900D01*
X301424Y48801D02*
X303224Y47001D01*
X309799D01*
X300878Y48801D02*
X301424D01*
X306567Y16925D02*
X307398Y17756D01*
X309268D01*
X306567Y16366D02*
Y16925D01*
X306156Y15956D02*
X306567Y16366D01*
X305350Y15956D02*
X306156D01*
X304792Y16515D02*
X305350Y15956D01*
X304792Y16515D02*
Y19492D01*
X301424Y43801D02*
X303224Y45601D01*
X309219D01*
X300878Y43801D02*
X301424D01*
X304771Y14556D02*
X306156D01*
X306567Y14146D01*
X307398Y12756D02*
X309268D01*
X306567Y13587D02*
Y14146D01*
Y13587D02*
X307398Y12756D01*
X303392Y15935D02*
X304771Y14556D01*
X303392Y15935D02*
Y20072D01*
X305300Y20000D02*
X310670D01*
X303392Y20072D02*
X304720Y21400D01*
X304792Y19492D02*
X305300Y20000D01*
X300400Y28756D02*
Y30600D01*
X299170Y27525D02*
X300400Y28756D01*
X295400Y27525D02*
X299170D01*
X295400Y25825D02*
Y27525D01*
Y25825D02*
X301372D01*
X302192Y25005D01*
Y22145D02*
Y25005D01*
X301372Y21325D02*
X302192Y22145D01*
X297990Y21325D02*
X301372D01*
X297990Y19625D02*
Y21325D01*
Y19625D02*
X299170D01*
X300400Y18395D01*
Y17055D02*
Y18395D01*
X299000Y29335D02*
Y30600D01*
X298590Y28925D02*
X299000Y29335D01*
X294820Y28925D02*
X298590D01*
X294000Y28105D02*
X294820Y28925D01*
X294000Y25245D02*
Y28105D01*
Y25245D02*
X294820Y24425D01*
X300792D01*
Y22725D02*
Y24425D01*
X297410Y22725D02*
X300792D01*
X296590Y21905D02*
X297410Y22725D01*
X296590Y19046D02*
Y21905D01*
Y19046D02*
X297410Y18225D01*
X298590D01*
X299000Y17815D01*
Y17055D02*
Y17815D01*
X300400Y30600D02*
Y34400D01*
Y14910D02*
Y17055D01*
X299000Y15490D02*
Y17055D01*
X279000Y17420D02*
Y33580D01*
X277600Y34160D02*
X284308Y40868D01*
X217990Y61010D02*
X259990D01*
X217410Y62410D02*
X262093D01*
X218410Y33590D02*
X256570D01*
X218990Y34990D02*
X255990D01*
X249200Y45580D02*
X250420Y46800D01*
X249200Y45150D02*
Y45580D01*
X247403Y45150D02*
X249200D01*
X247403Y43450D02*
Y45150D01*
Y43450D02*
X249400D01*
Y41750D02*
Y43450D01*
X247974Y41750D02*
X249400D01*
X247974Y40050D02*
Y41750D01*
Y40050D02*
X249200D01*
Y39700D02*
Y40050D01*
X250420Y46800D02*
X250621Y47001D01*
X249200Y38214D02*
Y39700D01*
X250600Y37320D02*
Y45000D01*
X249684Y36404D02*
X250600Y37320D01*
X259801Y45601D02*
X261700D01*
X259391Y45191D02*
X259801Y45601D01*
X259391Y42821D02*
Y45191D01*
X258571Y42001D02*
X259391Y42821D01*
X255711Y42001D02*
X258571D01*
X254891Y42821D02*
X255711Y42001D01*
X254891Y42821D02*
Y49086D01*
X253191D02*
X254891D01*
X253191Y46831D02*
Y49086D01*
X251961Y45601D02*
X253191Y46831D01*
X251201Y45601D02*
X251961D01*
X250621Y45021D02*
X251201Y45601D01*
X259221Y47001D02*
X261700D01*
X257991Y45771D02*
X259221Y47001D01*
X257991Y43401D02*
Y45771D01*
X256291Y43401D02*
X257991D01*
X256291D02*
Y49666D01*
X255471Y50486D02*
X256291Y49666D01*
X252611Y50486D02*
X255471D01*
X251791Y49666D02*
X252611Y50486D01*
X251791Y47411D02*
Y49666D01*
X251381Y47001D02*
X251791Y47411D01*
X250621Y47001D02*
X251381D01*
X250621Y47001D02*
X250621Y47001D01*
X250621Y47001D02*
Y47001D01*
X261700Y45601D02*
X263532D01*
X250600Y45000D02*
X250621Y45021D01*
X261700Y47001D02*
X263532D01*
X246404Y36404D02*
X248500D01*
X245174Y37634D02*
X246404Y36404D01*
X245174Y37634D02*
Y41404D01*
X243474D02*
X245174D01*
X243474Y37010D02*
Y41404D01*
X242654Y36190D02*
X243474Y37010D01*
X239794Y36190D02*
X242654D01*
X238974Y37010D02*
X239794Y36190D01*
X238974Y37010D02*
Y41404D01*
X237274D02*
X238974D01*
X237274Y37634D02*
Y41404D01*
X236044Y36404D02*
X237274Y37634D01*
X234703Y36404D02*
X236044D01*
X246984Y37804D02*
X248500D01*
X246574Y38214D02*
X246984Y37804D01*
X246574Y38214D02*
Y41984D01*
X245754Y42804D02*
X246574Y41984D01*
X242894Y42804D02*
X245754D01*
X242074Y41984D02*
X242894Y42804D01*
X242074Y37590D02*
Y41984D01*
X240374Y37590D02*
X242074D01*
X240374D02*
Y41984D01*
X239554Y42804D02*
X240374Y41984D01*
X236694Y42804D02*
X239554D01*
X235874Y41984D02*
X236694Y42804D01*
X235874Y38214D02*
Y41984D01*
X235464Y37804D02*
X235874Y38214D01*
X234703Y37804D02*
X235464D01*
X248500Y36404D02*
X249684D01*
X220037D02*
X234703D01*
X248500Y37804D02*
X248790D01*
X220617D02*
X234703D01*
X264253Y47723D02*
X265000D01*
X263532Y47001D02*
X264253Y47723D01*
X230509Y39937D02*
X230804Y40232D01*
X222985Y40472D02*
X223521Y39937D01*
X230509D01*
X219410Y40062D02*
X219820Y40472D01*
X222985D01*
X219410Y39011D02*
Y40062D01*
Y39011D02*
X220617Y37804D01*
X263532Y45601D02*
X264253Y44879D01*
X265000D01*
X229820Y46531D02*
X230804D01*
X228792Y45503D02*
X229820Y46531D01*
X228792Y45482D02*
Y45503D01*
X226342Y43031D02*
X228792Y45482D01*
X224057Y43031D02*
X226342D01*
X223521Y42496D02*
X224057Y43031D01*
X222985Y41960D02*
X223521Y42496D01*
X220749Y41960D02*
X222985D01*
X220705Y41916D02*
X220749Y41960D01*
X219240Y41916D02*
X220705D01*
X218010Y38431D02*
X220037Y36404D01*
X218010Y40686D02*
X219240Y41916D01*
X218010Y38431D02*
Y40686D01*
X248790Y37804D02*
X249200Y38214D01*
X253900Y53705D02*
X256000D01*
X252670Y54935D02*
X253900Y53705D01*
X252670Y54935D02*
Y58410D01*
X250970D02*
X252670D01*
X250970Y50925D02*
Y58410D01*
X250150Y50105D02*
X250970Y50925D01*
X247290Y50105D02*
X250150D01*
X246470Y50925D02*
X247290Y50105D01*
X246470Y50925D02*
Y58410D01*
X244770D02*
X246470D01*
X244770Y50925D02*
Y58410D01*
X243950Y50105D02*
X244770Y50925D01*
X241090Y50105D02*
X243950D01*
X240270Y50925D02*
X241090Y50105D01*
X240270Y50925D02*
Y58410D01*
X238570D02*
X240270D01*
X238570Y54935D02*
Y58410D01*
X237340Y53705D02*
X238570Y54935D01*
X236000Y53705D02*
X237340D01*
X254480Y55105D02*
X256000D01*
X254070Y55515D02*
X254480Y55105D01*
X254070Y55515D02*
Y58990D01*
X253250Y59810D02*
X254070Y58990D01*
X250390Y59810D02*
X253250D01*
X249570Y58990D02*
X250390Y59810D01*
X249570Y51505D02*
Y58990D01*
X247870Y51505D02*
X249570D01*
X247870D02*
Y58990D01*
X247050Y59810D02*
X247870Y58990D01*
X244190Y59810D02*
X247050D01*
X243370Y58990D02*
X244190Y59810D01*
X243370Y51505D02*
Y58990D01*
X241670Y51505D02*
X243370D01*
X241670D02*
Y58990D01*
X240850Y59810D02*
X241670Y58990D01*
X237990Y59810D02*
X240850D01*
X237170Y58990D02*
X237990Y59810D01*
X237170Y55515D02*
Y58990D01*
X236760Y55105D02*
X237170Y55515D01*
X236000Y55105D02*
X236760D01*
X230394Y53705D02*
X236000D01*
X230394Y55105D02*
X236000D01*
X272528Y15883D02*
X272572Y15839D01*
X269756Y16419D02*
X270292Y15883D01*
X272572Y15839D02*
X275439D01*
X270292Y15883D02*
X272528D01*
X270292Y14396D02*
X272528D01*
X275439Y15839D02*
X277600Y18000D01*
X272572Y14439D02*
X276019D01*
X272528Y14396D02*
X272572Y14439D01*
X269756Y13860D02*
X270292Y14396D01*
X276019Y14439D02*
X279000Y17420D01*
X284308Y40868D02*
X285468D01*
X287000Y37000D02*
Y37290D01*
X279000Y33580D02*
X284888Y39468D01*
X285468Y40868D02*
X285878Y41278D01*
X285468Y39468D02*
X285878Y39058D01*
X284888Y39468D02*
X285468D01*
X285878Y41278D02*
Y43801D01*
Y38412D02*
Y39058D01*
Y38412D02*
X287000Y37290D01*
X290212Y4160D02*
X292448D01*
X288598Y4203D02*
X290168D01*
X292448Y5647D02*
X292984Y6183D01*
X292448Y4160D02*
X292984Y3624D01*
X290212Y5647D02*
X292448D01*
X290168Y4203D02*
X290212Y4160D01*
X290168Y5603D02*
X290212Y5647D01*
X289178Y5603D02*
X290168D01*
X290878Y40458D02*
Y43801D01*
X290636Y34636D02*
Y36206D01*
X291795Y36795D02*
X292000Y37000D01*
X290636Y36206D02*
X291224Y36795D01*
X289236Y35216D02*
Y38816D01*
X291224Y36795D02*
X291795D01*
X289236Y38816D02*
X290878Y40458D01*
X302000Y36000D02*
Y36375D01*
X300400Y34400D02*
X302000Y36000D01*
X295756Y11837D02*
X295800Y11880D01*
X297370D01*
X300400Y14910D01*
X292984Y13860D02*
X293520Y13324D01*
X295756D01*
X295800Y13280D01*
X296790D02*
X299000Y15490D01*
X292984Y11301D02*
X293520Y11837D01*
X295756D01*
X295800Y13280D02*
X296790D01*
X256990Y34010D02*
X257010D01*
X260643Y37643D02*
X262000D01*
X257010Y34010D02*
X260643Y37643D01*
X255990Y34990D02*
X260879Y39879D01*
X277502D01*
X280878Y43255D02*
Y43801D01*
X277502Y39879D02*
X280878Y43255D01*
X203109Y43075D02*
X208925D01*
X203065Y43031D02*
X203109Y43075D01*
X199757Y43031D02*
X200293Y42496D01*
X200828Y43031D02*
X203065D01*
X208925Y43075D02*
X218410Y33590D01*
X200293Y42496D02*
X200828Y43031D01*
X197477Y43075D02*
X197520Y43031D01*
X196758Y43075D02*
X197477D01*
X197520Y43031D02*
X199757D01*
X196364Y42681D02*
X196758Y43075D01*
X193419Y42681D02*
X196364D01*
X193009Y42271D02*
X193419Y42681D01*
X193009Y40232D02*
Y42271D01*
X203065Y44519D02*
X203109Y44475D01*
X200828Y44519D02*
X203065D01*
X199757D02*
X200293Y45055D01*
X200828Y44519D01*
X197520D02*
X199757D01*
X197477Y44475D02*
X197520Y44519D01*
X196178Y44475D02*
X197477D01*
X193009Y44491D02*
Y46531D01*
X195785Y44081D02*
X196178Y44475D01*
X193009Y44491D02*
X193419Y44081D01*
X195785D01*
X256570Y33590D02*
X256990Y34010D01*
X273757Y52243D02*
X273757D01*
X275334Y49345D02*
X275878Y48801D01*
X275334Y49345D02*
Y50666D01*
X273757Y52243D02*
X275334Y50666D01*
X270000Y53000D02*
X273000D01*
X273757Y52243D01*
X267000Y56000D02*
X270000Y53000D01*
X262093Y62410D02*
X267000Y57503D01*
Y56000D02*
Y57503D01*
X259990Y61010D02*
X263830Y57170D01*
X199757Y57314D02*
X200293Y57850D01*
X197520Y57314D02*
X199757D01*
X197477Y57270D02*
X197520Y57314D01*
X193293Y57270D02*
X197477D01*
X193009Y57555D02*
X193293Y57270D01*
X199757Y55827D02*
X200293Y55291D01*
X197477Y55870D02*
X197520Y55827D01*
X199757D01*
X194565Y54060D02*
X196376Y55870D01*
X197477D01*
X194565Y52283D02*
Y54060D01*
X193537Y51256D02*
X194565Y52283D01*
X193009Y51256D02*
X193537D01*
X212270Y57270D02*
X217410Y62410D01*
X200293Y55291D02*
X200828Y55827D01*
X203065D01*
X203109Y55870D02*
X212850D01*
X217990Y61010D01*
X203065Y57314D02*
X203109Y57270D01*
X203065Y55827D02*
X203109Y55870D01*
X200828Y57314D02*
X203065D01*
X200293Y57850D02*
X200828Y57314D01*
X230804Y55515D02*
Y57555D01*
X230394Y55105D02*
X230804Y55515D01*
X227449Y55105D02*
X230394D01*
X227055Y54711D02*
X227449Y55105D01*
X224057Y54755D02*
X226293D01*
X226337Y54711D02*
X227055D01*
X223521Y55291D02*
X224057Y54755D01*
X226293D02*
X226337Y54711D01*
X230394Y53705D02*
X230804Y53295D01*
Y51256D02*
Y53295D01*
X228029Y53705D02*
X230394D01*
X227635Y53311D02*
X228029Y53705D01*
X226337Y53311D02*
X227635D01*
X226293Y53268D02*
X226337Y53311D01*
X224057Y53268D02*
X226293D01*
X223521Y52732D02*
X224057Y53268D01*
D62*
X371024Y42301D02*
D03*
X361024D02*
D03*
X371024Y52301D02*
D03*
X361024D02*
D03*
X371024Y-42739D02*
D03*
X361024D02*
D03*
X371024Y-32739D02*
D03*
X361024D02*
D03*
X371024Y-127139D02*
D03*
X361024D02*
D03*
X371024Y-117139D02*
D03*
X361024D02*
D03*
D63*
X90354Y172441D02*
D03*
X100197D02*
D03*
X82677Y150197D02*
D03*
Y140354D02*
D03*
D64*
X265878Y43801D02*
D03*
Y48801D02*
D03*
X270878Y43801D02*
D03*
Y48801D02*
D03*
X275878Y43801D02*
D03*
Y48801D02*
D03*
X280878Y43801D02*
D03*
Y48801D02*
D03*
X285878Y43801D02*
D03*
Y48801D02*
D03*
X290878Y43801D02*
D03*
Y48801D02*
D03*
X295878Y43801D02*
D03*
Y48801D02*
D03*
X300878Y43801D02*
D03*
Y48801D02*
D03*
X265800Y-38400D02*
D03*
Y-33400D02*
D03*
X270800Y-38400D02*
D03*
Y-33400D02*
D03*
X275800Y-38400D02*
D03*
Y-33400D02*
D03*
X280800Y-38400D02*
D03*
Y-33400D02*
D03*
X285800Y-38400D02*
D03*
Y-33400D02*
D03*
X290800Y-38400D02*
D03*
Y-33400D02*
D03*
X295800Y-38400D02*
D03*
Y-33400D02*
D03*
X300800Y-38400D02*
D03*
Y-33400D02*
D03*
X265778Y-122819D02*
D03*
Y-117819D02*
D03*
X270778Y-122819D02*
D03*
Y-117819D02*
D03*
X275778Y-122819D02*
D03*
Y-117819D02*
D03*
X280778Y-122819D02*
D03*
Y-117819D02*
D03*
X285778Y-122819D02*
D03*
Y-117819D02*
D03*
X290778Y-122819D02*
D03*
Y-117819D02*
D03*
X295778Y-122819D02*
D03*
Y-117819D02*
D03*
X300778Y-122819D02*
D03*
Y-117819D02*
D03*
D65*
X94095Y98032D02*
D03*
X120079Y179921D02*
D03*
X174500D02*
D03*
X193000Y11000D02*
D03*
X192922Y-71201D02*
D03*
X192900Y-155620D02*
D03*
X241000Y6000D02*
D03*
X240922Y-76201D02*
D03*
X240900Y-160620D02*
D03*
X227000Y15000D02*
D03*
X226922Y-67201D02*
D03*
X226900Y-151620D02*
D03*
X213000Y24000D02*
D03*
X212922Y-58201D02*
D03*
X212900Y-142620D02*
D03*
X211000Y69000D02*
D03*
X210922Y-13201D02*
D03*
X210900Y-97620D02*
D03*
X180000Y54000D02*
D03*
X179922Y-28201D02*
D03*
X179900Y-112620D02*
D03*
X171000Y40000D02*
D03*
X170922Y-42201D02*
D03*
X170900Y-126620D02*
D03*
X211000Y0D02*
D03*
X210922Y-82201D02*
D03*
X210900Y-166620D02*
D03*
D66*
X92600Y-142300D02*
D03*
D67*
X102600D02*
D03*
X92600Y-152300D02*
D03*
X102600D02*
D03*
X92600Y-162300D02*
D03*
X102600D02*
D03*
D68*
X115500Y107000D02*
D03*
X117500Y104000D02*
D03*
X113500D02*
D03*
X126697Y64065D02*
D03*
X44100Y17700D02*
D03*
X20500Y-21800D02*
D03*
X19537Y-38751D02*
D03*
X34600Y-72457D02*
D03*
X41800Y-72457D02*
D03*
X52600Y-75300D02*
D03*
X35200Y-15400D02*
D03*
X45000Y-15800D02*
D03*
X20182Y8316D02*
D03*
X34800Y11465D02*
D03*
X50554Y20854D02*
D03*
X131000Y23000D02*
D03*
X19475Y28819D02*
D03*
X53500Y31000D02*
D03*
X28000Y39000D02*
D03*
X22000Y42500D02*
D03*
X100000Y24543D02*
D03*
X16500Y-61500D02*
D03*
Y-52000D02*
D03*
Y-42500D02*
D03*
Y-33000D02*
D03*
Y-23500D02*
D03*
Y-14205D02*
D03*
Y7500D02*
D03*
Y17500D02*
D03*
Y26500D02*
D03*
Y36000D02*
D03*
Y45500D02*
D03*
Y52000D02*
D03*
X16509Y57761D02*
D03*
X17500Y66000D02*
D03*
X131000Y8500D02*
D03*
X102740D02*
D03*
X131000Y-41500D02*
D03*
X100000Y-40748D02*
D03*
X131000Y-59000D02*
D03*
X102740D02*
D03*
X100000Y-93000D02*
D03*
X100010Y-73484D02*
D03*
X99876Y-66837D02*
D03*
X100000Y-27500D02*
D03*
Y-8000D02*
D03*
Y-1500D02*
D03*
Y38000D02*
D03*
X99806Y57179D02*
D03*
X140000Y58500D02*
D03*
X147500Y54000D02*
D03*
X140500Y38500D02*
D03*
X123500Y28000D02*
D03*
X139500Y26000D02*
D03*
X147500Y21500D02*
D03*
X140500Y6000D02*
D03*
X123500Y-4500D02*
D03*
X140000Y-6000D02*
D03*
X147500Y-11000D02*
D03*
X140000Y-27000D02*
D03*
X123500Y-37500D02*
D03*
X140000Y-39500D02*
D03*
X147500Y-44000D02*
D03*
X140000Y-59500D02*
D03*
X123500Y-70000D02*
D03*
X140000Y-71500D02*
D03*
X132000Y-92000D02*
D03*
X147500Y-76000D02*
D03*
X109433Y143882D02*
D03*
X115700D02*
D03*
X121967D02*
D03*
X128233D02*
D03*
X134500D02*
D03*
X248000Y116300D02*
D03*
X228000D02*
D03*
X198000Y176300D02*
D03*
Y136300D02*
D03*
X188000Y156300D02*
D03*
X178000Y136300D02*
D03*
X188000Y116300D02*
D03*
X158000Y176300D02*
D03*
X168000Y156300D02*
D03*
Y116300D02*
D03*
X128000D02*
D03*
X108000D02*
D03*
X78000Y176300D02*
D03*
X88000Y156300D02*
D03*
X78000Y96300D02*
D03*
X123000Y166300D02*
D03*
X120500Y171300D02*
D03*
X118000Y166300D02*
D03*
X115500Y171300D02*
D03*
X113000Y166300D02*
D03*
X110500Y171300D02*
D03*
X108000Y166300D02*
D03*
X231500Y138500D02*
D03*
X208000Y139000D02*
D03*
X160500Y134500D02*
D03*
X138681Y168500D02*
D03*
X150681Y128760D02*
D03*
X96500Y107000D02*
D03*
X91500D02*
D03*
X99000Y110000D02*
D03*
X94000D02*
D03*
X89000D02*
D03*
X17000Y61500D02*
D03*
X127500Y154000D02*
D03*
D69*
X137205Y129272D02*
D03*
X132874D02*
D03*
X137205Y133602D02*
D03*
X132874D02*
D03*
X137205Y137933D02*
D03*
X132874D02*
D03*
D70*
X36900Y-22600D02*
D03*
X140300Y-80900D02*
D03*
X191900Y-130620D02*
D03*
X198238Y-135928D02*
D03*
X275900Y-166620D02*
D03*
X271870Y-173625D02*
D03*
X323900Y-146620D02*
D03*
X327922Y-138601D02*
D03*
X288892Y-157629D02*
D03*
X288900Y-147620D02*
D03*
X273900Y-155620D02*
D03*
X218900Y-118620D02*
D03*
Y-108620D02*
D03*
X207100Y-116420D02*
D03*
X325900Y-163620D02*
D03*
X258867Y-115620D02*
D03*
X263900Y-109279D02*
D03*
X261900Y-128976D02*
D03*
X286900Y-129620D02*
D03*
X291900D02*
D03*
X301900Y-130245D02*
D03*
X288200Y-165220D02*
D03*
Y-151320D02*
D03*
X218900Y-122220D02*
D03*
X218700Y-115120D02*
D03*
X204400Y-113820D02*
D03*
X204200Y-119120D02*
D03*
X140700Y-15600D02*
D03*
X288222Y-66901D02*
D03*
X327944Y-54182D02*
D03*
X288922Y-63201D02*
D03*
X288914Y-73210D02*
D03*
X288222Y-80801D02*
D03*
X263922Y-24860D02*
D03*
X273922Y-71201D02*
D03*
X271892Y-89206D02*
D03*
X191922Y-46201D02*
D03*
X261922Y-44557D02*
D03*
X204222Y-34701D02*
D03*
X198260Y-51510D02*
D03*
X323922Y-62201D02*
D03*
X325922Y-79201D02*
D03*
X301922Y-45826D02*
D03*
X291922Y-45201D02*
D03*
X286922D02*
D03*
X275922Y-82201D02*
D03*
X258889Y-31201D02*
D03*
X218922Y-24201D02*
D03*
Y-34201D02*
D03*
X218722Y-30701D02*
D03*
X218922Y-37801D02*
D03*
X207122Y-32001D02*
D03*
X204422Y-29401D02*
D03*
X288300Y1400D02*
D03*
Y15300D02*
D03*
X219000Y44400D02*
D03*
X218800Y51500D02*
D03*
X204500Y52800D02*
D03*
X207200Y50200D02*
D03*
X204300Y47500D02*
D03*
X140494Y49889D02*
D03*
X258967Y51000D02*
D03*
X292000Y37000D02*
D03*
X287000D02*
D03*
X302000Y36375D02*
D03*
X326000Y3000D02*
D03*
X324000Y20000D02*
D03*
X328022Y28019D02*
D03*
X288992Y8991D02*
D03*
X289000Y19000D02*
D03*
X274000Y11000D02*
D03*
X276000Y0D02*
D03*
X271970Y-7005D02*
D03*
X219000Y58000D02*
D03*
Y48000D02*
D03*
X192000Y36000D02*
D03*
X198338Y30691D02*
D03*
X262000Y37643D02*
D03*
X264000Y57341D02*
D03*
M02*
