G04*
G04 #@! TF.GenerationSoftware,Altium Limited,Altium Designer,20.1.14 (287)*
G04*
G04 Layer_Physical_Order=4*
G04 Layer_Color=16711680*
%FSLAX25Y25*%
%MOIN*%
G70*
G04*
G04 #@! TF.SameCoordinates,19077639-F352-41FD-BFD3-53A20CE8E404*
G04*
G04*
G04 #@! TF.FilePolarity,Positive*
G04*
G01*
G75*
%ADD19C,0.01000*%
%ADD24C,0.02000*%
%ADD33R,0.11024X0.02165*%
%ADD63C,0.02100*%
%ADD64C,0.00700*%
%ADD65C,0.05118*%
%ADD66C,0.06000*%
%ADD67C,0.03543*%
%ADD68C,0.10000*%
%ADD69R,0.05906X0.05906*%
%ADD70C,0.05906*%
%ADD71C,0.02362*%
%ADD72C,0.01968*%
%ADD73C,0.01772*%
G36*
X385500Y62000D02*
Y-132000D01*
X374500Y-143000D01*
X355500D01*
X342000Y-129500D01*
X342000Y51500D01*
X318500Y75000D01*
X214200D01*
X213615Y75313D01*
X212333Y75702D01*
X211000Y75833D01*
X209667Y75702D01*
X208385Y75313D01*
X207800Y75000D01*
X102500D01*
X87000Y59500D01*
X17831D01*
X17360Y59815D01*
X16509Y59984D01*
X16000Y59883D01*
X15500Y60265D01*
Y62958D01*
X15512D01*
Y63165D01*
X15567Y63943D01*
X15993Y64369D01*
X16014D01*
X16649Y63946D01*
X17500Y63776D01*
X18351Y63946D01*
X19072Y64428D01*
X19555Y65149D01*
X19724Y66000D01*
X19555Y66851D01*
X19072Y67572D01*
X18351Y68054D01*
X17500Y68224D01*
X16649Y68054D01*
X16278Y67807D01*
X15867Y68133D01*
X15980Y69713D01*
X19686D01*
X19735Y69723D01*
X19786Y69715D01*
X20172Y69734D01*
X20318Y69771D01*
X20469D01*
X21226Y69922D01*
X21412Y69998D01*
X21609Y70038D01*
X22322Y70333D01*
X22489Y70445D01*
X22674Y70521D01*
X23316Y70950D01*
X23458Y71092D01*
X23625Y71204D01*
X24171Y71750D01*
X24282Y71917D01*
X24424Y72058D01*
X24853Y72700D01*
X24930Y72886D01*
X25042Y73053D01*
X25337Y73766D01*
X25376Y73963D01*
X25453Y74148D01*
X25604Y74905D01*
Y75056D01*
X25640Y75203D01*
X25659Y75589D01*
X25652Y75639D01*
X25662Y75689D01*
Y82162D01*
X28161Y84661D01*
X28700Y84493D01*
X28800Y83991D01*
X28876Y83805D01*
X28916Y83608D01*
X29211Y82895D01*
X29322Y82728D01*
X29399Y82543D01*
X29828Y81901D01*
X29970Y81759D01*
X30082Y81592D01*
X30627Y81046D01*
X30794Y80935D01*
X30936Y80793D01*
X31578Y80364D01*
X31764Y80287D01*
X31931Y80176D01*
X32644Y79880D01*
X32841Y79841D01*
X33026Y79764D01*
X33783Y79614D01*
X33934D01*
X34081Y79577D01*
X34467Y79558D01*
X34517Y79565D01*
X34567Y79555D01*
X58425Y79555D01*
X59206Y79711D01*
X59867Y80153D01*
X60309Y80814D01*
X60464Y81595D01*
Y115515D01*
X60964Y116000D01*
X159837D01*
X161286Y114551D01*
X161276Y114500D01*
X161445Y113649D01*
X161927Y112927D01*
X162649Y112445D01*
X163500Y112276D01*
X164351Y112445D01*
X165073Y112927D01*
X165554Y113649D01*
X165724Y114500D01*
X165554Y115351D01*
X165416Y115559D01*
X165651Y116000D01*
X185836D01*
X185945Y115449D01*
X186427Y114727D01*
X187149Y114245D01*
X188000Y114076D01*
X188851Y114245D01*
X189573Y114727D01*
X190055Y115449D01*
X190164Y116000D01*
X225836D01*
X225945Y115449D01*
X226428Y114727D01*
X227149Y114245D01*
X228000Y114076D01*
X228851Y114245D01*
X229573Y114727D01*
X230055Y115449D01*
X230164Y116000D01*
X245836D01*
X245945Y115449D01*
X246427Y114727D01*
X247149Y114245D01*
X248000Y114076D01*
X248851Y114245D01*
X249572Y114727D01*
X250055Y115449D01*
X250164Y116000D01*
X331500D01*
X385500Y62000D01*
D02*
G37*
%LPC*%
G36*
X115500Y109224D02*
X114649Y109055D01*
X113927Y108572D01*
X113445Y107851D01*
X113276Y107000D01*
X113433Y106210D01*
X112649Y106054D01*
X111927Y105572D01*
X111445Y104851D01*
X111276Y104000D01*
X111445Y103149D01*
X111927Y102427D01*
X112649Y101945D01*
X113500Y101776D01*
X114351Y101945D01*
X115073Y102427D01*
X115250Y102693D01*
X115750D01*
X115928Y102427D01*
X116649Y101945D01*
X117500Y101776D01*
X118351Y101945D01*
X119072Y102427D01*
X119554Y103149D01*
X119724Y104000D01*
X119554Y104851D01*
X119072Y105572D01*
X118351Y106054D01*
X117567Y106210D01*
X117724Y107000D01*
X117554Y107851D01*
X117072Y108572D01*
X116351Y109055D01*
X115500Y109224D01*
D02*
G37*
G36*
X78000Y98524D02*
X77149Y98355D01*
X76428Y97873D01*
X75946Y97151D01*
X75776Y96300D01*
X75946Y95449D01*
X76428Y94727D01*
X77149Y94245D01*
X78000Y94076D01*
X78851Y94245D01*
X79572Y94727D01*
X80054Y95449D01*
X80224Y96300D01*
X80054Y97151D01*
X79572Y97873D01*
X78851Y98355D01*
X78000Y98524D01*
D02*
G37*
G36*
X214500Y98833D02*
X213167Y98702D01*
X211885Y98313D01*
X210704Y97681D01*
X209668Y96832D01*
X208819Y95796D01*
X208187Y94615D01*
X207798Y93333D01*
X207667Y92000D01*
X207798Y90667D01*
X208187Y89385D01*
X208819Y88204D01*
X209668Y87168D01*
X210704Y86319D01*
X211885Y85687D01*
X213167Y85298D01*
X214500Y85167D01*
X215833Y85298D01*
X217115Y85687D01*
X218296Y86319D01*
X219332Y87168D01*
X220181Y88204D01*
X220813Y89385D01*
X221202Y90667D01*
X221333Y92000D01*
X221202Y93333D01*
X220813Y94615D01*
X220181Y95796D01*
X219332Y96832D01*
X218296Y97681D01*
X217115Y98313D01*
X215833Y98702D01*
X214500Y98833D01*
D02*
G37*
G36*
X176000Y97833D02*
X174667Y97702D01*
X173385Y97313D01*
X172204Y96681D01*
X171168Y95832D01*
X170319Y94796D01*
X169687Y93615D01*
X169298Y92333D01*
X169167Y91000D01*
X169298Y89667D01*
X169687Y88385D01*
X170319Y87204D01*
X171168Y86168D01*
X172204Y85319D01*
X173385Y84687D01*
X174667Y84298D01*
X176000Y84167D01*
X177333Y84298D01*
X178615Y84687D01*
X179796Y85319D01*
X180832Y86168D01*
X181681Y87204D01*
X182313Y88385D01*
X182702Y89667D01*
X182833Y91000D01*
X182702Y92333D01*
X182313Y93615D01*
X181681Y94796D01*
X180832Y95832D01*
X179796Y96681D01*
X178615Y97313D01*
X177333Y97702D01*
X176000Y97833D01*
D02*
G37*
G36*
X371024Y57142D02*
X369771Y56977D01*
X368603Y56494D01*
X367600Y55724D01*
X366831Y54721D01*
X366347Y53554D01*
X366276Y53012D01*
X365772D01*
X365700Y53554D01*
X365216Y54721D01*
X364447Y55724D01*
X363444Y56494D01*
X362277Y56977D01*
X361024Y57142D01*
X359771Y56977D01*
X358603Y56494D01*
X357600Y55724D01*
X356831Y54721D01*
X356347Y53554D01*
X356182Y52301D01*
X356347Y51048D01*
X356831Y49880D01*
X357600Y48877D01*
X358603Y48108D01*
X359771Y47624D01*
X361024Y47459D01*
X362277Y47624D01*
X363444Y48108D01*
X364447Y48877D01*
X365216Y49880D01*
X365700Y51048D01*
X365772Y51590D01*
X366276D01*
X366347Y51048D01*
X366831Y49880D01*
X367600Y48877D01*
X368603Y48108D01*
X369771Y47624D01*
X371024Y47459D01*
X372277Y47624D01*
X373444Y48108D01*
X374447Y48877D01*
X375216Y49880D01*
X375700Y51048D01*
X375865Y52301D01*
X375700Y53554D01*
X375216Y54721D01*
X374447Y55724D01*
X373444Y56494D01*
X372277Y56977D01*
X371024Y57142D01*
D02*
G37*
G36*
Y-27897D02*
X369771Y-28062D01*
X368603Y-28546D01*
X367600Y-29315D01*
X366831Y-30318D01*
X366347Y-31486D01*
X366276Y-32028D01*
X365772D01*
X365700Y-31486D01*
X365216Y-30318D01*
X364447Y-29315D01*
X363444Y-28546D01*
X362277Y-28062D01*
X361024Y-27897D01*
X359771Y-28062D01*
X358603Y-28546D01*
X357600Y-29315D01*
X356831Y-30318D01*
X356347Y-31486D01*
X356182Y-32739D01*
X356347Y-33992D01*
X356831Y-35159D01*
X357600Y-36162D01*
X358603Y-36931D01*
X359771Y-37415D01*
X361024Y-37580D01*
X362277Y-37415D01*
X363444Y-36931D01*
X364447Y-36162D01*
X365216Y-35159D01*
X365700Y-33992D01*
X365772Y-33449D01*
X366276D01*
X366347Y-33992D01*
X366831Y-35159D01*
X367600Y-36162D01*
X368603Y-36931D01*
X369771Y-37415D01*
X371024Y-37580D01*
X372277Y-37415D01*
X373444Y-36931D01*
X374447Y-36162D01*
X375216Y-35159D01*
X375700Y-33992D01*
X375865Y-32739D01*
X375700Y-31486D01*
X375216Y-30318D01*
X374447Y-29315D01*
X373444Y-28546D01*
X372277Y-28062D01*
X371024Y-27897D01*
D02*
G37*
G36*
Y-112298D02*
X369771Y-112462D01*
X368603Y-112946D01*
X367600Y-113716D01*
X366831Y-114718D01*
X366347Y-115886D01*
X366276Y-116428D01*
X365772D01*
X365700Y-115886D01*
X365216Y-114718D01*
X364447Y-113716D01*
X363444Y-112946D01*
X362277Y-112462D01*
X361024Y-112298D01*
X359771Y-112462D01*
X358603Y-112946D01*
X357600Y-113716D01*
X356831Y-114718D01*
X356347Y-115886D01*
X356182Y-117139D01*
X356347Y-118392D01*
X356831Y-119560D01*
X357600Y-120562D01*
X358603Y-121332D01*
X359771Y-121815D01*
X361024Y-121980D01*
X362277Y-121815D01*
X363444Y-121332D01*
X364447Y-120562D01*
X365216Y-119560D01*
X365700Y-118392D01*
X365772Y-117850D01*
X366276D01*
X366347Y-118392D01*
X366831Y-119560D01*
X367600Y-120562D01*
X368603Y-121332D01*
X369771Y-121815D01*
X371024Y-121980D01*
X372277Y-121815D01*
X373444Y-121332D01*
X374447Y-120562D01*
X375216Y-119560D01*
X375700Y-118392D01*
X375865Y-117139D01*
X375700Y-115886D01*
X375216Y-114718D01*
X374447Y-113716D01*
X373444Y-112946D01*
X372277Y-112462D01*
X371024Y-112298D01*
D02*
G37*
%LPD*%
D19*
X31650Y-17350D02*
X36900Y-22600D01*
X9500Y-17350D02*
X31650D01*
X177580Y-80900D02*
X218900Y-122220D01*
X140300Y-80900D02*
X177580D01*
X287991Y-165220D02*
X288200D01*
X253177Y-164234D02*
X287005D01*
X287991Y-165220D01*
X249491Y-167920D02*
X253177Y-164234D01*
X192900Y-155620D02*
X213480D01*
X225780Y-167920D01*
X249491D01*
X240900Y-160620D02*
X250200Y-151320D01*
X288200D01*
X212900Y-128220D02*
X218900Y-122220D01*
X212900Y-142620D02*
Y-128220D01*
X212100Y-143420D02*
X212900Y-142620D01*
X210900Y-107320D02*
Y-97620D01*
Y-107320D02*
X218700Y-115120D01*
X204252Y-113672D02*
X204400Y-113820D01*
X180952Y-113672D02*
X204252D01*
X179900Y-112620D02*
X180952Y-113672D01*
X201237Y-122082D02*
X204200Y-119120D01*
X175555Y-122082D02*
X201237D01*
X171018Y-126620D02*
X175555Y-122082D01*
X170900Y-126620D02*
X171018D01*
X140700Y-15600D02*
X157385Y-32285D01*
Y-42464D02*
Y-32285D01*
Y-42464D02*
X173922Y-59001D01*
X225802Y-83501D02*
X249513D01*
X240922Y-76201D02*
X250222Y-66901D01*
X210922Y-22901D02*
X218722Y-30701D01*
X212922Y-43801D02*
X218922Y-37801D01*
X213502Y-71201D02*
X225802Y-83501D01*
X250222Y-66901D02*
X288222D01*
X253199Y-79815D02*
X287028D01*
X180974Y-29253D02*
X204275D01*
X175577Y-37664D02*
X201259D01*
X173922Y-59001D02*
X212122D01*
X192922Y-71201D02*
X213502D01*
X249513Y-83501D02*
X253199Y-79815D01*
X201259Y-37664D02*
X204222Y-34701D01*
X210922Y-22901D02*
Y-13201D01*
X212922Y-58201D02*
Y-43801D01*
X288013Y-80801D02*
X288222D01*
X287028Y-79815D02*
X288013Y-80801D01*
X212122Y-59001D02*
X212922Y-58201D01*
X204275Y-29253D02*
X204422Y-29401D01*
X179922Y-28201D02*
X180974Y-29253D01*
X171040Y-42201D02*
X175577Y-37664D01*
X170922Y-42201D02*
X171040D01*
X213580Y11000D02*
X225880Y-1300D01*
X193000Y11000D02*
X213580D01*
X225880Y-1300D02*
X249591D01*
X253277Y2386D01*
X287105D01*
X288091Y1400D02*
X288300D01*
X287105Y2386D02*
X288091Y1400D01*
X241000Y6000D02*
X250300Y15300D01*
X288300D01*
X171000Y40000D02*
X171118D01*
X175655Y44537D01*
X201337D01*
X204300Y47500D01*
X180000Y54000D02*
X181052Y52948D01*
X204352D01*
X204500Y52800D01*
X211000Y59300D02*
Y69000D01*
Y59300D02*
X218800Y51500D01*
X213000Y24000D02*
Y38400D01*
X219000Y44400D01*
X140494Y49889D02*
X147311D01*
X174000Y23200D02*
X212200D01*
X147311Y49889D02*
X174000Y23200D01*
X212200D02*
X213000Y24000D01*
X41354Y20446D02*
X44100Y17700D01*
X9500Y20446D02*
X41354D01*
X9500Y1548D02*
X23352D01*
X35200Y-15400D02*
Y-10300D01*
X23352Y1548D02*
X35200Y-10300D01*
X102600Y-162300D02*
X113000Y-151900D01*
X101121Y-128500D02*
X113000Y-140379D01*
Y-151900D02*
Y-140379D01*
X87667Y-124700D02*
X91467Y-128500D01*
X101121D01*
X102600Y-152300D02*
X111000Y-143900D01*
Y-140500D01*
X101100Y-130600D02*
X111000Y-140500D01*
X85051Y-124700D02*
X90951Y-130600D01*
X101100D01*
X82930Y-127030D02*
Y-87030D01*
X88739Y-132839D02*
X93139D01*
X82930Y-127030D02*
X88739Y-132839D01*
X93139D02*
X102600Y-142300D01*
X80667Y-130367D02*
X92600Y-142300D01*
X80667Y-130367D02*
Y-87967D01*
X78051Y-137751D02*
X92600Y-152300D01*
X76000Y-145700D02*
X92600Y-162300D01*
X76000Y-145700D02*
Y-89900D01*
X22648Y-29948D02*
X80667Y-87967D01*
X27751Y-38751D02*
X78051Y-89051D01*
X50694Y-64594D02*
X76000Y-89900D01*
X18751Y-19119D02*
X21719D01*
X17371Y-20499D02*
X18751Y-19119D01*
X9500Y-20499D02*
X17371D01*
X20500Y-21800D02*
X20700D01*
X9500Y-26798D02*
X22698D01*
X9500Y-29948D02*
X22648D01*
X19537Y-38751D02*
X27751D01*
X9500Y-64594D02*
X50694D01*
X87667Y-124700D02*
Y-85067D01*
X21719Y-19119D02*
X87667Y-85067D01*
X85051Y-124700D02*
Y-86151D01*
X20700Y-21800D02*
X85051Y-86151D01*
X22698Y-26798D02*
X82930Y-87030D01*
X78051Y-137751D02*
Y-89051D01*
X9500Y-67743D02*
X29887D01*
X34600Y-72457D01*
X9500Y4698D02*
X24502D01*
X45000Y-15800D01*
X9500Y10997D02*
X17501D01*
X20182Y8316D01*
X9500Y14146D02*
X32119D01*
X34800Y11465D01*
X9500Y23595D02*
X47813D01*
X50554Y20854D01*
X101543Y23000D02*
X131000D01*
X100000Y24543D02*
X101543Y23000D01*
X9500Y29895D02*
X18030D01*
X19106Y28819D01*
X19475D01*
X9500Y33044D02*
X51456D01*
X53500Y31000D01*
X9500Y39343D02*
X9672Y39172D01*
X27828D01*
X28000Y39000D01*
X9500Y42493D02*
X9504Y42496D01*
X21996D01*
X22000Y42500D01*
X102740Y8500D02*
X131000D01*
X100000Y-40748D02*
X129879D01*
X130631Y-41500D01*
X131000D01*
X102740Y-59000D02*
X131000D01*
X231500Y115000D02*
Y138500D01*
X231000Y114500D02*
X231500Y115000D01*
D24*
X124000Y154000D02*
X163500Y114500D01*
X114500Y154000D02*
X124000D01*
D33*
X9500Y67690D02*
D03*
Y64540D02*
D03*
Y61391D02*
D03*
Y58241D02*
D03*
Y55091D02*
D03*
Y51942D02*
D03*
Y48792D02*
D03*
Y45643D02*
D03*
Y42493D02*
D03*
Y39343D02*
D03*
Y36194D02*
D03*
Y33044D02*
D03*
Y29895D02*
D03*
Y26745D02*
D03*
Y23595D02*
D03*
Y20446D02*
D03*
Y17296D02*
D03*
Y14146D02*
D03*
Y10997D02*
D03*
Y7847D02*
D03*
Y4698D02*
D03*
Y1548D02*
D03*
Y-14200D02*
D03*
Y-17350D02*
D03*
Y-20499D02*
D03*
Y-23649D02*
D03*
Y-26798D02*
D03*
Y-29948D02*
D03*
Y-33098D02*
D03*
Y-36247D02*
D03*
Y-39397D02*
D03*
Y-42546D02*
D03*
Y-45696D02*
D03*
Y-48846D02*
D03*
Y-51995D02*
D03*
Y-55145D02*
D03*
Y-58294D02*
D03*
Y-61444D02*
D03*
Y-64594D02*
D03*
Y-67743D02*
D03*
D63*
Y-61444D02*
X9528Y-61472D01*
X16472D01*
X16500Y-61500D01*
X9500Y-51995D02*
X9502Y-51998D01*
X16498D01*
X16500Y-52000D01*
X9500Y-42546D02*
X9523Y-42523D01*
X16477D01*
X16500Y-42500D01*
X9500Y-33098D02*
X9533Y-33065D01*
X16364D01*
X16429Y-33000D01*
X16500D01*
X9500Y-23649D02*
X9533Y-23616D01*
X16313D01*
X16429Y-23500D01*
X16500D01*
X9500Y-14200D02*
X9502Y-14202D01*
X16498D01*
X16500Y-14205D01*
X9500Y7847D02*
X9533Y7815D01*
X16115D01*
X16429Y7500D01*
X16500D01*
X9500Y17296D02*
X9533Y17329D01*
X16258D01*
X16429Y17500D01*
X16500D01*
X9500Y26745D02*
X9533Y26712D01*
X16217D01*
X16429Y26500D01*
X16500D01*
X9500Y36194D02*
X9533Y36161D01*
X16268D01*
X16429Y36000D01*
X16500D01*
X9500Y45643D02*
X9533Y45610D01*
X16319D01*
X16429Y45500D01*
X16500D01*
X9500Y51942D02*
X9529Y51971D01*
X16471D01*
X16500Y52000D01*
X9500Y58241D02*
X9533Y58208D01*
X15990D01*
X16438Y57761D01*
X16509D01*
X9500Y64540D02*
X13929D01*
X15339Y65950D01*
X17450D01*
X17500Y66000D01*
X9500Y67690D02*
X13929D01*
X15569Y66050D01*
X17450D01*
X17500Y66000D01*
X9500Y61391D02*
X9533Y61423D01*
X16852D01*
X16929Y61500D01*
X17000D01*
D64*
X258867Y-115620D02*
X259054D01*
X270778Y-123365D02*
Y-122819D01*
X267402Y-126741D02*
X270778Y-123365D01*
X261900Y-124620D02*
X264021Y-126741D01*
X267402D01*
X261856Y-124443D02*
X261900Y-124487D01*
X260000Y-116893D02*
Y-116566D01*
Y-116893D02*
X261856Y-118749D01*
X259054Y-115620D02*
X260000Y-116566D01*
X261900Y-124620D02*
Y-124487D01*
X261856Y-124443D02*
Y-118749D01*
X304699Y-124820D02*
Y-116194D01*
X302402Y-113897D02*
X304699Y-116194D01*
X301900Y-127620D02*
X304699Y-124820D01*
X301900Y-130245D02*
Y-127620D01*
X299153Y-113897D02*
X302402D01*
X295778Y-117273D02*
X299153Y-113897D01*
X295778Y-117819D02*
Y-117273D01*
X295800Y-32854D02*
X299176Y-29478D01*
X264043Y-42322D02*
X267424D01*
X304722Y-40401D02*
Y-31776D01*
X301922Y-45826D02*
Y-43201D01*
X261878Y-40024D02*
Y-34330D01*
X302424Y-29478D02*
X304722Y-31776D01*
X299176Y-29478D02*
X302424D01*
X301922Y-43201D02*
X304722Y-40401D01*
X295800Y-33400D02*
Y-32854D01*
X270800Y-38946D02*
Y-38400D01*
X267424Y-42322D02*
X270800Y-38946D01*
X258889Y-31201D02*
X259076D01*
X260022Y-32474D02*
Y-32147D01*
Y-32474D02*
X261878Y-34330D01*
X259076Y-31201D02*
X260022Y-32147D01*
X261922Y-40201D02*
X264043Y-42322D01*
X261878Y-40024D02*
X261922Y-40068D01*
Y-40201D02*
Y-40068D01*
X261956Y42176D02*
Y47871D01*
X260100Y49727D02*
X261956Y47871D01*
X258967Y51000D02*
X259154D01*
X260100Y50054D01*
Y49727D02*
Y50054D01*
X302000Y36375D02*
Y39000D01*
X304800Y41800D01*
X295878Y48801D02*
Y49347D01*
X299254Y52723D01*
X302502D01*
X304800Y50425D01*
Y41800D02*
Y50425D01*
X261956Y42176D02*
X262000Y42133D01*
Y42000D02*
Y42133D01*
X270878Y43255D02*
Y43801D01*
X267502Y39879D02*
X270878Y43255D01*
X264121Y39879D02*
X267502D01*
X262000Y42000D02*
X264121Y39879D01*
D65*
X82677Y140354D02*
D03*
Y150197D02*
D03*
X100197Y172441D02*
D03*
X90354D02*
D03*
D66*
X371024Y42301D02*
D03*
X361024D02*
D03*
X371024Y52301D02*
D03*
X361024D02*
D03*
X371024Y-42739D02*
D03*
X361024D02*
D03*
X371024Y-32739D02*
D03*
X361024D02*
D03*
X371024Y-127139D02*
D03*
X361024D02*
D03*
X371024Y-117139D02*
D03*
X361024D02*
D03*
D67*
X265878Y43801D02*
D03*
Y48801D02*
D03*
X270878Y43801D02*
D03*
Y48801D02*
D03*
X275878Y43801D02*
D03*
Y48801D02*
D03*
X280878Y43801D02*
D03*
Y48801D02*
D03*
X285878Y43801D02*
D03*
Y48801D02*
D03*
X290878Y43801D02*
D03*
Y48801D02*
D03*
X295878Y43801D02*
D03*
Y48801D02*
D03*
X300878Y43801D02*
D03*
Y48801D02*
D03*
X265800Y-38400D02*
D03*
Y-33400D02*
D03*
X270800Y-38400D02*
D03*
Y-33400D02*
D03*
X275800Y-38400D02*
D03*
Y-33400D02*
D03*
X280800Y-38400D02*
D03*
Y-33400D02*
D03*
X285800Y-38400D02*
D03*
Y-33400D02*
D03*
X290800Y-38400D02*
D03*
Y-33400D02*
D03*
X295800Y-38400D02*
D03*
Y-33400D02*
D03*
X300800Y-38400D02*
D03*
Y-33400D02*
D03*
X265778Y-122819D02*
D03*
Y-117819D02*
D03*
X270778Y-122819D02*
D03*
Y-117819D02*
D03*
X275778Y-122819D02*
D03*
Y-117819D02*
D03*
X280778Y-122819D02*
D03*
Y-117819D02*
D03*
X285778Y-122819D02*
D03*
Y-117819D02*
D03*
X290778Y-122819D02*
D03*
Y-117819D02*
D03*
X295778Y-122819D02*
D03*
Y-117819D02*
D03*
X300778Y-122819D02*
D03*
Y-117819D02*
D03*
D68*
X94500Y97000D02*
D03*
X214500Y92000D02*
D03*
X176000Y91000D02*
D03*
X193000Y11000D02*
D03*
X192922Y-71201D02*
D03*
X192900Y-155620D02*
D03*
X241000Y6000D02*
D03*
X240922Y-76201D02*
D03*
X240900Y-160620D02*
D03*
X227000Y15000D02*
D03*
X226922Y-67201D02*
D03*
X226900Y-151620D02*
D03*
X213000Y24000D02*
D03*
X212922Y-58201D02*
D03*
X212900Y-142620D02*
D03*
X211000Y69000D02*
D03*
X210922Y-13201D02*
D03*
X210900Y-97620D02*
D03*
X180000Y54000D02*
D03*
X179922Y-28201D02*
D03*
X179900Y-112620D02*
D03*
X171000Y40000D02*
D03*
X170922Y-42201D02*
D03*
X170900Y-126620D02*
D03*
X211000Y0D02*
D03*
X210922Y-82201D02*
D03*
X210900Y-166620D02*
D03*
D69*
X92600Y-142300D02*
D03*
D70*
X102600D02*
D03*
X92600Y-152300D02*
D03*
X102600D02*
D03*
X92600Y-162300D02*
D03*
X102600D02*
D03*
D71*
X115000Y132000D02*
D03*
X112000Y136000D02*
D03*
X105500Y135594D02*
D03*
X248000Y116300D02*
D03*
X228000D02*
D03*
X198000Y176300D02*
D03*
Y136300D02*
D03*
X178000Y176300D02*
D03*
X188000Y156300D02*
D03*
X178000Y136300D02*
D03*
X188000Y116300D02*
D03*
X158000Y176300D02*
D03*
X138000D02*
D03*
X148000Y156300D02*
D03*
X118000Y136300D02*
D03*
X98000D02*
D03*
X78000Y176300D02*
D03*
X88000Y156300D02*
D03*
X78000Y136300D02*
D03*
Y96300D02*
D03*
X113000Y161300D02*
D03*
X110500Y166300D02*
D03*
X108000Y161300D02*
D03*
X105500Y166300D02*
D03*
X103000Y161300D02*
D03*
X96500Y104500D02*
D03*
X91500Y106000D02*
D03*
X89000Y109000D02*
D03*
X91500Y112000D02*
D03*
X89000Y115000D02*
D03*
X163500Y114500D02*
D03*
X114500Y154000D02*
D03*
X115500Y107000D02*
D03*
X117500Y104000D02*
D03*
X113500D02*
D03*
X126697Y64065D02*
D03*
X44100Y17700D02*
D03*
X20500Y-21800D02*
D03*
X19537Y-38751D02*
D03*
X34600Y-72457D02*
D03*
X41800Y-72457D02*
D03*
X52600Y-75300D02*
D03*
X35200Y-15400D02*
D03*
X45000Y-15800D02*
D03*
X20182Y8316D02*
D03*
X34800Y11465D02*
D03*
X50554Y20854D02*
D03*
X131000Y23000D02*
D03*
X19475Y28819D02*
D03*
X53500Y31000D02*
D03*
X28000Y39000D02*
D03*
X22000Y42500D02*
D03*
X100000Y24543D02*
D03*
X16500Y-61500D02*
D03*
Y-52000D02*
D03*
Y-42500D02*
D03*
Y-33000D02*
D03*
Y-23500D02*
D03*
Y-14205D02*
D03*
Y7500D02*
D03*
Y17500D02*
D03*
Y26500D02*
D03*
Y36000D02*
D03*
Y45500D02*
D03*
Y52000D02*
D03*
X16509Y57761D02*
D03*
X17500Y66000D02*
D03*
X131000Y8500D02*
D03*
X102740D02*
D03*
X131000Y-41500D02*
D03*
X100000Y-40748D02*
D03*
X131000Y-59000D02*
D03*
X102740D02*
D03*
X100000Y-93000D02*
D03*
X100010Y-73484D02*
D03*
X99876Y-66837D02*
D03*
X100000Y-27500D02*
D03*
Y-8000D02*
D03*
Y-1500D02*
D03*
Y38000D02*
D03*
X99806Y57179D02*
D03*
X140000Y58500D02*
D03*
X147500Y54000D02*
D03*
X140500Y38500D02*
D03*
X123500Y28000D02*
D03*
X139500Y26000D02*
D03*
X147500Y21500D02*
D03*
X140500Y6000D02*
D03*
X123500Y-4500D02*
D03*
X140000Y-6000D02*
D03*
X147500Y-11000D02*
D03*
X140000Y-27000D02*
D03*
X123500Y-37500D02*
D03*
X140000Y-39500D02*
D03*
X147500Y-44000D02*
D03*
X140000Y-59500D02*
D03*
X123500Y-70000D02*
D03*
X140000Y-71500D02*
D03*
X132000Y-92000D02*
D03*
X147500Y-76000D02*
D03*
X231500Y138500D02*
D03*
X208000Y139000D02*
D03*
X17000Y61500D02*
D03*
D72*
X144323Y120055D02*
D03*
X139992D02*
D03*
X144323Y124386D02*
D03*
X139992D02*
D03*
X144323Y128717D02*
D03*
X139992D02*
D03*
D73*
X36900Y-22600D02*
D03*
X140300Y-80900D02*
D03*
X191900Y-130620D02*
D03*
X198238Y-135928D02*
D03*
X275900Y-166620D02*
D03*
X271870Y-173625D02*
D03*
X323900Y-146620D02*
D03*
X327922Y-138601D02*
D03*
X288892Y-157629D02*
D03*
X288900Y-147620D02*
D03*
X273900Y-155620D02*
D03*
X218900Y-118620D02*
D03*
Y-108620D02*
D03*
X207100Y-116420D02*
D03*
X325900Y-163620D02*
D03*
X258867Y-115620D02*
D03*
X263900Y-109279D02*
D03*
X261900Y-128976D02*
D03*
X286900Y-129620D02*
D03*
X291900D02*
D03*
X301900Y-130245D02*
D03*
X288200Y-165220D02*
D03*
Y-151320D02*
D03*
X218900Y-122220D02*
D03*
X218700Y-115120D02*
D03*
X204400Y-113820D02*
D03*
X204200Y-119120D02*
D03*
X140700Y-15600D02*
D03*
X288222Y-66901D02*
D03*
X327944Y-54182D02*
D03*
X288922Y-63201D02*
D03*
X288914Y-73210D02*
D03*
X288222Y-80801D02*
D03*
X263922Y-24860D02*
D03*
X273922Y-71201D02*
D03*
X271892Y-89206D02*
D03*
X191922Y-46201D02*
D03*
X261922Y-44557D02*
D03*
X204222Y-34701D02*
D03*
X198260Y-51510D02*
D03*
X323922Y-62201D02*
D03*
X325922Y-79201D02*
D03*
X301922Y-45826D02*
D03*
X291922Y-45201D02*
D03*
X286922D02*
D03*
X275922Y-82201D02*
D03*
X258889Y-31201D02*
D03*
X218922Y-24201D02*
D03*
Y-34201D02*
D03*
X218722Y-30701D02*
D03*
X218922Y-37801D02*
D03*
X207122Y-32001D02*
D03*
X204422Y-29401D02*
D03*
X288300Y1400D02*
D03*
Y15300D02*
D03*
X219000Y44400D02*
D03*
X218800Y51500D02*
D03*
X204500Y52800D02*
D03*
X207200Y50200D02*
D03*
X204300Y47500D02*
D03*
X140494Y49889D02*
D03*
X258967Y51000D02*
D03*
X292000Y37000D02*
D03*
X287000D02*
D03*
X302000Y36375D02*
D03*
X326000Y3000D02*
D03*
X324000Y20000D02*
D03*
X328022Y28019D02*
D03*
X288992Y8991D02*
D03*
X289000Y19000D02*
D03*
X274000Y11000D02*
D03*
X276000Y0D02*
D03*
X271970Y-7005D02*
D03*
X219000Y58000D02*
D03*
Y48000D02*
D03*
X192000Y36000D02*
D03*
X198338Y30691D02*
D03*
X262000Y37643D02*
D03*
X264000Y57341D02*
D03*
M02*
