G04*
G04 #@! TF.GenerationSoftware,Altium Limited,Altium Designer,25.8.1 (18)*
G04*
G04 Layer_Color=8421504*
%FSLAX25Y25*%
%MOIN*%
G70*
G04*
G04 #@! TF.SameCoordinates,9F8BCBD4-C131-4943-9335-410C9DEDAE1D*
G04*
G04*
G04 #@! TF.FilePolarity,Positive*
G04*
G01*
G75*
%ADD28R,0.06614X0.12362*%
G04:AMPARAMS|DCode=29|XSize=23.62mil|YSize=57.09mil|CornerRadius=2.01mil|HoleSize=0mil|Usage=FLASHONLY|Rotation=90.000|XOffset=0mil|YOffset=0mil|HoleType=Round|Shape=RoundedRectangle|*
%AMROUNDEDRECTD29*
21,1,0.02362,0.05307,0,0,90.0*
21,1,0.01961,0.05709,0,0,90.0*
1,1,0.00402,0.02653,0.00980*
1,1,0.00402,0.02653,-0.00980*
1,1,0.00402,-0.02653,-0.00980*
1,1,0.00402,-0.02653,0.00980*
%
%ADD29ROUNDEDRECTD29*%
%ADD30R,0.02756X0.03543*%
%ADD31R,0.03347X0.03740*%
%ADD32R,0.03200X0.04000*%
%ADD33R,0.03150X0.03150*%
%ADD34R,0.12795X0.08465*%
%ADD35R,0.03740X0.08465*%
%ADD36R,0.11417X0.19685*%
%ADD37R,0.06102X0.02362*%
%ADD38R,0.10236X0.12205*%
%ADD39R,0.05512X0.01772*%
%ADD40R,0.04724X0.08268*%
%ADD41R,0.08268X0.04724*%
%ADD42R,0.04724X0.02756*%
%ADD43R,0.02756X0.04724*%
%ADD44R,0.03150X0.04724*%
%ADD45R,0.04724X0.03150*%
G36*
X142622Y-171118D02*
X141622D01*
X139622Y-169118D01*
X141622Y-167118D01*
X142622D01*
Y-171118D01*
D02*
G37*
G36*
X138622Y-169118D02*
X140622Y-171118D01*
X137622D01*
Y-169118D01*
Y-167118D01*
X140622D01*
X138622Y-169118D01*
D02*
G37*
D28*
X54685Y66142D02*
D03*
X35866D02*
D03*
D29*
X106894Y-164618D02*
D03*
Y-169618D02*
D03*
Y-174618D02*
D03*
Y-179618D02*
D03*
X128350Y-164618D02*
D03*
Y-169618D02*
D03*
Y-174618D02*
D03*
Y-179618D02*
D03*
D30*
X122047Y-158661D02*
D03*
X127559D02*
D03*
D31*
X137733Y-175641D02*
D03*
X142851D02*
D03*
X137733Y-182118D02*
D03*
X142851D02*
D03*
X97835Y-164173D02*
D03*
X92716D02*
D03*
X97835Y-171260D02*
D03*
X92716D02*
D03*
D32*
X136872Y-169118D02*
D03*
X143622D02*
D03*
D33*
X212000Y138150D02*
D03*
Y131850D02*
D03*
X235000D02*
D03*
Y138150D02*
D03*
X258000D02*
D03*
Y131850D02*
D03*
D34*
X132000Y76583D02*
D03*
D35*
X122945Y99417D02*
D03*
X132000D02*
D03*
X141055D02*
D03*
D36*
X124012Y161000D02*
D03*
X162988D02*
D03*
D37*
X330528Y2756D02*
D03*
Y7756D02*
D03*
Y12756D02*
D03*
Y17756D02*
D03*
X309268Y2756D02*
D03*
Y7756D02*
D03*
Y12756D02*
D03*
Y17756D02*
D03*
X330450Y-79445D02*
D03*
Y-74445D02*
D03*
Y-69445D02*
D03*
Y-64445D02*
D03*
X309190Y-79445D02*
D03*
Y-74445D02*
D03*
Y-69445D02*
D03*
Y-64445D02*
D03*
X330428Y-163864D02*
D03*
Y-158864D02*
D03*
Y-153864D02*
D03*
Y-148864D02*
D03*
X309168Y-163864D02*
D03*
Y-158864D02*
D03*
Y-153864D02*
D03*
Y-148864D02*
D03*
X152787Y116886D02*
D03*
Y121886D02*
D03*
Y126886D02*
D03*
Y131886D02*
D03*
X131528Y116886D02*
D03*
Y121886D02*
D03*
Y126886D02*
D03*
Y131886D02*
D03*
D38*
X142157Y124386D02*
D03*
D39*
X112795Y55020D02*
D03*
Y52461D02*
D03*
Y49902D02*
D03*
Y47343D02*
D03*
Y44783D02*
D03*
Y42224D02*
D03*
Y39665D02*
D03*
Y37106D02*
D03*
X136024Y55020D02*
D03*
Y52461D02*
D03*
Y49902D02*
D03*
Y47343D02*
D03*
Y44783D02*
D03*
Y42224D02*
D03*
Y39665D02*
D03*
Y37106D02*
D03*
X292984Y1065D02*
D03*
Y3624D02*
D03*
Y6183D02*
D03*
Y8742D02*
D03*
Y11301D02*
D03*
Y13860D02*
D03*
Y16419D02*
D03*
Y18978D02*
D03*
X269756Y1065D02*
D03*
Y3624D02*
D03*
Y6183D02*
D03*
Y8742D02*
D03*
Y11301D02*
D03*
Y13860D02*
D03*
Y16419D02*
D03*
Y18978D02*
D03*
X292906Y-81136D02*
D03*
Y-78577D02*
D03*
Y-76018D02*
D03*
Y-73459D02*
D03*
Y-70900D02*
D03*
Y-68341D02*
D03*
Y-65782D02*
D03*
Y-63223D02*
D03*
X269678Y-81136D02*
D03*
Y-78577D02*
D03*
Y-76018D02*
D03*
Y-73459D02*
D03*
Y-70900D02*
D03*
Y-68341D02*
D03*
Y-65782D02*
D03*
Y-63223D02*
D03*
X292884Y-165555D02*
D03*
Y-162996D02*
D03*
Y-160437D02*
D03*
Y-157878D02*
D03*
Y-155319D02*
D03*
Y-152760D02*
D03*
Y-150201D02*
D03*
Y-147642D02*
D03*
X269656Y-165555D02*
D03*
Y-162996D02*
D03*
Y-160437D02*
D03*
Y-157878D02*
D03*
Y-155319D02*
D03*
Y-152760D02*
D03*
Y-150201D02*
D03*
Y-147642D02*
D03*
X223521Y39937D02*
D03*
Y42496D02*
D03*
Y45055D02*
D03*
Y47614D02*
D03*
Y50173D02*
D03*
Y52732D02*
D03*
Y55291D02*
D03*
Y57850D02*
D03*
X200293Y39937D02*
D03*
Y42496D02*
D03*
Y45055D02*
D03*
Y47614D02*
D03*
Y50173D02*
D03*
Y52732D02*
D03*
Y55291D02*
D03*
Y57850D02*
D03*
X223443Y-42264D02*
D03*
Y-39705D02*
D03*
Y-37146D02*
D03*
Y-34587D02*
D03*
Y-32028D02*
D03*
Y-29469D02*
D03*
Y-26910D02*
D03*
Y-24351D02*
D03*
X200215Y-42264D02*
D03*
Y-39705D02*
D03*
Y-37146D02*
D03*
Y-34587D02*
D03*
Y-32028D02*
D03*
Y-29469D02*
D03*
Y-26910D02*
D03*
Y-24351D02*
D03*
X223421Y-126683D02*
D03*
Y-124124D02*
D03*
Y-121565D02*
D03*
Y-119006D02*
D03*
Y-116447D02*
D03*
Y-113888D02*
D03*
Y-111329D02*
D03*
Y-108770D02*
D03*
X200193Y-126683D02*
D03*
Y-124124D02*
D03*
Y-121565D02*
D03*
Y-119006D02*
D03*
Y-116447D02*
D03*
Y-113888D02*
D03*
Y-111329D02*
D03*
Y-108770D02*
D03*
X112795Y22343D02*
D03*
Y19783D02*
D03*
Y17224D02*
D03*
Y14665D02*
D03*
Y12106D02*
D03*
Y9547D02*
D03*
Y6988D02*
D03*
Y4429D02*
D03*
X136024Y22343D02*
D03*
Y19783D02*
D03*
Y17224D02*
D03*
Y14665D02*
D03*
Y12106D02*
D03*
Y9547D02*
D03*
Y6988D02*
D03*
Y4429D02*
D03*
X112795Y-10335D02*
D03*
Y-12894D02*
D03*
Y-15453D02*
D03*
Y-18012D02*
D03*
Y-20571D02*
D03*
Y-23130D02*
D03*
Y-25689D02*
D03*
Y-28248D02*
D03*
X136024Y-10335D02*
D03*
Y-12894D02*
D03*
Y-15453D02*
D03*
Y-18012D02*
D03*
Y-20571D02*
D03*
Y-23130D02*
D03*
Y-25689D02*
D03*
Y-28248D02*
D03*
X112795Y-43110D02*
D03*
Y-45669D02*
D03*
Y-48228D02*
D03*
Y-50787D02*
D03*
Y-53347D02*
D03*
Y-55905D02*
D03*
Y-58465D02*
D03*
Y-61024D02*
D03*
X136024Y-43110D02*
D03*
Y-45669D02*
D03*
Y-48228D02*
D03*
Y-50787D02*
D03*
Y-53347D02*
D03*
Y-55905D02*
D03*
Y-58465D02*
D03*
Y-61024D02*
D03*
X112795Y-75689D02*
D03*
Y-78248D02*
D03*
Y-80807D02*
D03*
Y-83366D02*
D03*
Y-85925D02*
D03*
Y-88484D02*
D03*
Y-91043D02*
D03*
Y-93602D02*
D03*
X136024Y-75689D02*
D03*
Y-78248D02*
D03*
Y-80807D02*
D03*
Y-83366D02*
D03*
Y-85925D02*
D03*
Y-88484D02*
D03*
Y-91043D02*
D03*
Y-93602D02*
D03*
D40*
X107500Y111000D02*
D03*
X95689D02*
D03*
D41*
X105500Y139189D02*
D03*
Y151000D02*
D03*
X105500Y132000D02*
D03*
Y120189D02*
D03*
D42*
X48819Y-68898D02*
D03*
Y-75197D02*
D03*
X34646Y-75197D02*
D03*
Y-68898D02*
D03*
X41732Y-68898D02*
D03*
Y-75197D02*
D03*
X230804Y40232D02*
D03*
Y46531D02*
D03*
X230727Y-41969D02*
D03*
Y-35670D02*
D03*
X230704Y-126388D02*
D03*
Y-120089D02*
D03*
X230804Y57555D02*
D03*
Y51256D02*
D03*
X230727Y-24646D02*
D03*
Y-30945D02*
D03*
X230704Y-109065D02*
D03*
Y-115364D02*
D03*
X193009Y57555D02*
D03*
Y51256D02*
D03*
X192931Y-24646D02*
D03*
Y-30945D02*
D03*
X192909Y-109065D02*
D03*
Y-115364D02*
D03*
X193009Y40232D02*
D03*
Y46531D02*
D03*
X192931Y-41969D02*
D03*
Y-35670D02*
D03*
X192909Y-126388D02*
D03*
Y-120089D02*
D03*
X116000Y121295D02*
D03*
Y114996D02*
D03*
X212087Y117035D02*
D03*
Y123335D02*
D03*
X262413Y1961D02*
D03*
Y8261D02*
D03*
X262335Y-80239D02*
D03*
Y-73940D02*
D03*
X262313Y-164658D02*
D03*
Y-158359D02*
D03*
X235087Y123335D02*
D03*
Y117035D02*
D03*
X258087Y123335D02*
D03*
Y117035D02*
D03*
D43*
X100000Y60630D02*
D03*
X106299D02*
D03*
X100000Y53912D02*
D03*
X106299D02*
D03*
X100000Y41142D02*
D03*
X106299D02*
D03*
X100000Y34646D02*
D03*
X106299D02*
D03*
X29500Y27500D02*
D03*
X23201D02*
D03*
X29500Y7087D02*
D03*
X23201D02*
D03*
X100000Y27953D02*
D03*
X106299D02*
D03*
X100000Y21133D02*
D03*
X106299D02*
D03*
X100000Y8465D02*
D03*
X106299D02*
D03*
X100000Y1969D02*
D03*
X106299D02*
D03*
X23201Y-34646D02*
D03*
X29500D02*
D03*
X100000Y-4724D02*
D03*
X106299D02*
D03*
X100000Y-11417D02*
D03*
X106299D02*
D03*
X100000Y-24512D02*
D03*
X106299D02*
D03*
X100000Y-30709D02*
D03*
X106299D02*
D03*
X100000Y-37402D02*
D03*
X106299D02*
D03*
X100000Y-44094D02*
D03*
X106299D02*
D03*
X159909Y114284D02*
D03*
X166209D02*
D03*
X148118Y109783D02*
D03*
X154417D02*
D03*
X100000Y-56988D02*
D03*
X106299D02*
D03*
X100000Y-63386D02*
D03*
X106299D02*
D03*
X100000Y-70079D02*
D03*
X106299D02*
D03*
X100000Y-76772D02*
D03*
X106299D02*
D03*
X100000Y-89567D02*
D03*
X106299D02*
D03*
X100000Y-96063D02*
D03*
X106299D02*
D03*
D44*
X126697Y60630D02*
D03*
X132209D02*
D03*
X126697Y27953D02*
D03*
X132209D02*
D03*
X195371Y34326D02*
D03*
X200883D02*
D03*
X195293Y-47875D02*
D03*
X200805D02*
D03*
X195271Y-132293D02*
D03*
X200783D02*
D03*
X275405Y-4338D02*
D03*
X269894D02*
D03*
X275328Y-86539D02*
D03*
X269816D02*
D03*
X275305Y-170958D02*
D03*
X269794D02*
D03*
X325016Y24429D02*
D03*
X330528D02*
D03*
X324938Y-57772D02*
D03*
X330450D02*
D03*
X324916Y-142191D02*
D03*
X330428D02*
D03*
X165618Y121283D02*
D03*
X160106D02*
D03*
X126697Y67500D02*
D03*
X132209D02*
D03*
X126697Y-4724D02*
D03*
X132209D02*
D03*
X126697Y-37402D02*
D03*
X132209D02*
D03*
X126697Y-70079D02*
D03*
X132209D02*
D03*
D45*
X160661Y127398D02*
D03*
Y132909D02*
D03*
X114000Y139988D02*
D03*
Y145500D02*
D03*
X123496Y132004D02*
D03*
Y126492D02*
D03*
Y115587D02*
D03*
Y121098D02*
D03*
X113500Y95000D02*
D03*
Y100512D02*
D03*
X143701Y58661D02*
D03*
Y53150D02*
D03*
Y25984D02*
D03*
Y20472D02*
D03*
Y-6299D02*
D03*
Y-11811D02*
D03*
Y-39370D02*
D03*
Y-44882D02*
D03*
Y-71653D02*
D03*
Y-77165D02*
D03*
M02*
