G04*
G04 #@! TF.GenerationSoftware,Altium Limited,Altium Designer,20.1.11 (218)*
G04*
G04 Layer_Color=16711935*
%FSLAX25Y25*%
%MOIN*%
G70*
G04*
G04 #@! TF.SameCoordinates,D8C80331-C850-44C6-8BB1-F9321F46C3EB*
G04*
G04*
G04 #@! TF.FilePolarity,Positive*
G04*
G01*
G75*
%ADD12C,0.00500*%
D12*
X23623Y-75689D02*
G03*
X19686Y-71752I-3937J0D01*
G01*
Y71752D02*
G03*
X23623Y75689I0J3937D01*
G01*
X34567Y-81595D02*
G03*
X30630Y-85532I0J-3937D01*
G01*
X20472Y-11024D02*
G03*
X20472Y-1575I0J4724D01*
G01*
X29055Y-89468D02*
G03*
X30630Y-87894I0J1575D01*
G01*
Y85532D02*
G03*
X34567Y81595I3937J0D01*
G01*
X30630Y87894D02*
G03*
X29055Y89468I-1575J0D01*
G01*
X393701Y-196850D02*
Y196850D01*
X58425D02*
X393701D01*
X58425Y-196850D02*
X393701D01*
X58425D02*
Y-81595D01*
Y81595D02*
Y196850D01*
X34567Y-81595D02*
X58425D01*
X3069Y-71752D02*
X19686D01*
X3069Y-11024D02*
X20472D01*
X3069Y-1575D02*
X20472D01*
X3069Y71752D02*
X19686D01*
X34567Y81595D02*
X58425D01*
X23623Y-89468D02*
X29055D01*
X23623Y89468D02*
X29055D01*
X23623Y-89468D02*
Y-75689D01*
X0Y-71752D02*
Y-11024D01*
Y-1575D02*
Y71752D01*
X30630Y85532D02*
Y87894D01*
X23623Y75689D02*
Y89468D01*
X30630Y-87894D02*
Y-85532D01*
X0Y-71752D02*
X3069D01*
X0Y-11024D02*
X3069D01*
X0Y-1575D02*
X3069D01*
X0Y71752D02*
X3069D01*
M02*
