G04*
G04 #@! TF.GenerationSoftware,Altium Limited,Altium Designer,20.1.14 (287)*
G04*
G04 Layer_Color=8388736*
%FSLAX25Y25*%
%MOIN*%
G70*
G04*
G04 #@! TF.SameCoordinates,A7B38415-FFA4-44F0-A537-2F02B4458F4F*
G04*
G04*
G04 #@! TF.FilePolarity,Negative*
G04*
G01*
G75*
%ADD40R,0.03950X0.05524*%
%ADD41R,0.04540X0.09265*%
%ADD42R,0.13595X0.09265*%
%ADD43R,0.06902X0.03162*%
%ADD44R,0.11417X0.02559*%
%ADD45R,0.11036X0.13005*%
%ADD46R,0.03950X0.03950*%
%ADD47R,0.06312X0.02572*%
%ADD48R,0.06706X0.16548*%
%ADD49R,0.09068X0.05524*%
%ADD50R,0.05524X0.03556*%
%ADD51R,0.03556X0.05524*%
%ADD52R,0.05524X0.03950*%
%ADD53C,0.06600*%
%ADD54C,0.05918*%
%ADD55C,0.04343*%
%ADD56C,0.10800*%
%ADD57R,0.06706X0.06706*%
%ADD58C,0.06706*%
%ADD59C,0.02769*%
G36*
X70620Y192686D02*
X71695Y192241D01*
X72662Y191595D01*
X73485Y190772D01*
X74131Y189805D01*
X74576Y188730D01*
X74803Y187590D01*
Y187008D01*
Y186426D01*
X74576Y185285D01*
X74131Y184211D01*
X73485Y183243D01*
X72662Y182421D01*
X71695Y181774D01*
X70620Y181329D01*
X69479Y181102D01*
X68316D01*
X67175Y181329D01*
X66100Y181774D01*
X65133Y182421D01*
X64310Y183243D01*
X63664Y184211D01*
X63219Y185285D01*
X62992Y186426D01*
Y187008D01*
Y187590D01*
X63219Y188730D01*
X63664Y189805D01*
X64310Y190772D01*
X65133Y191595D01*
X66100Y192241D01*
X67175Y192686D01*
X68316Y192913D01*
X69479D01*
X70620Y192686D01*
D02*
G37*
G36*
X385581Y-181329D02*
X386656Y-181774D01*
X387623Y-182421D01*
X388445Y-183243D01*
X389092Y-184211D01*
X389537Y-185285D01*
X389764Y-186426D01*
Y-187008D01*
Y-187590D01*
X389537Y-188730D01*
X389092Y-189805D01*
X388445Y-190772D01*
X387623Y-191595D01*
X386656Y-192241D01*
X385581Y-192686D01*
X384440Y-192913D01*
X383277D01*
X382136Y-192686D01*
X381061Y-192241D01*
X380094Y-191595D01*
X379271Y-190772D01*
X378625Y-189805D01*
X378180Y-188730D01*
X377953Y-187590D01*
Y-187008D01*
Y-186426D01*
X378180Y-185285D01*
X378625Y-184211D01*
X379271Y-183243D01*
X380094Y-182421D01*
X381061Y-181774D01*
X382136Y-181329D01*
X383277Y-181102D01*
X384440D01*
X385581Y-181329D01*
D02*
G37*
G36*
X70620D02*
X71695Y-181774D01*
X72662Y-182421D01*
X73485Y-183243D01*
X74131Y-184211D01*
X74576Y-185285D01*
X74803Y-186426D01*
Y-187008D01*
Y-187590D01*
X74576Y-188730D01*
X74131Y-189805D01*
X73485Y-190772D01*
X72662Y-191595D01*
X71695Y-192241D01*
X70620Y-192686D01*
X69479Y-192913D01*
X68316D01*
X67175Y-192686D01*
X66100Y-192241D01*
X65133Y-191595D01*
X64310Y-190772D01*
X63664Y-189805D01*
X63219Y-188730D01*
X62992Y-187590D01*
Y-187008D01*
Y-186426D01*
X63219Y-185285D01*
X63664Y-184211D01*
X64310Y-183243D01*
X65133Y-182421D01*
X66100Y-181774D01*
X67175Y-181329D01*
X68316Y-181102D01*
X69479D01*
X70620Y-181329D01*
D02*
G37*
D40*
X126697Y67500D02*
D03*
X132209D02*
D03*
Y60630D02*
D03*
X126697D02*
D03*
Y27953D02*
D03*
X132209D02*
D03*
X195371Y34326D02*
D03*
X200883D02*
D03*
X195293Y-47875D02*
D03*
X200805D02*
D03*
X195271Y-132293D02*
D03*
X200783D02*
D03*
X275405Y-4338D02*
D03*
X269894D02*
D03*
X275328Y-86539D02*
D03*
X269816D02*
D03*
X275305Y-170958D02*
D03*
X269794D02*
D03*
X325016Y24429D02*
D03*
X330528D02*
D03*
X324938Y-57772D02*
D03*
X330450D02*
D03*
X324916Y-142191D02*
D03*
X330428D02*
D03*
X136000Y168500D02*
D03*
X130488D02*
D03*
X126697Y-4724D02*
D03*
X132209D02*
D03*
X126697Y-37402D02*
D03*
X132209D02*
D03*
X126697Y-70079D02*
D03*
X132209D02*
D03*
D41*
X141055Y99417D02*
D03*
X132000D02*
D03*
X122945D02*
D03*
D42*
X132000Y76583D02*
D03*
D43*
X330528Y2756D02*
D03*
Y7756D02*
D03*
Y12756D02*
D03*
Y17756D02*
D03*
X309268Y2756D02*
D03*
Y7756D02*
D03*
Y12756D02*
D03*
Y17756D02*
D03*
X330450Y-79445D02*
D03*
Y-74445D02*
D03*
Y-69445D02*
D03*
Y-64445D02*
D03*
X309190Y-79445D02*
D03*
Y-74445D02*
D03*
Y-69445D02*
D03*
Y-64445D02*
D03*
X330428Y-163864D02*
D03*
Y-158864D02*
D03*
Y-153864D02*
D03*
Y-148864D02*
D03*
X309168Y-163864D02*
D03*
Y-158864D02*
D03*
Y-153864D02*
D03*
Y-148864D02*
D03*
X145669Y126102D02*
D03*
Y131102D02*
D03*
Y136102D02*
D03*
Y141102D02*
D03*
X124409Y126102D02*
D03*
Y131102D02*
D03*
Y136102D02*
D03*
Y141102D02*
D03*
D44*
X9500Y67690D02*
D03*
Y64540D02*
D03*
Y61391D02*
D03*
Y58241D02*
D03*
Y55091D02*
D03*
Y51942D02*
D03*
Y48792D02*
D03*
Y45643D02*
D03*
Y42493D02*
D03*
Y39343D02*
D03*
Y36194D02*
D03*
Y33044D02*
D03*
Y29895D02*
D03*
Y26745D02*
D03*
Y23595D02*
D03*
Y20446D02*
D03*
Y17296D02*
D03*
Y14146D02*
D03*
Y10997D02*
D03*
Y7847D02*
D03*
Y4698D02*
D03*
Y1548D02*
D03*
Y-14200D02*
D03*
Y-17350D02*
D03*
Y-20499D02*
D03*
Y-23649D02*
D03*
Y-26798D02*
D03*
Y-29948D02*
D03*
Y-33098D02*
D03*
Y-36247D02*
D03*
Y-39397D02*
D03*
Y-42546D02*
D03*
Y-45696D02*
D03*
Y-48846D02*
D03*
Y-51995D02*
D03*
Y-55145D02*
D03*
Y-58294D02*
D03*
Y-61444D02*
D03*
Y-64594D02*
D03*
Y-67743D02*
D03*
D45*
X135039Y133602D02*
D03*
D46*
X212000Y131850D02*
D03*
Y138150D02*
D03*
X235000Y131850D02*
D03*
Y138150D02*
D03*
X258000Y131850D02*
D03*
Y138150D02*
D03*
D47*
X112795Y55020D02*
D03*
Y52461D02*
D03*
Y49902D02*
D03*
Y47343D02*
D03*
Y44783D02*
D03*
Y42224D02*
D03*
Y39665D02*
D03*
Y37106D02*
D03*
X136024Y55020D02*
D03*
Y52461D02*
D03*
Y49902D02*
D03*
Y47343D02*
D03*
Y44783D02*
D03*
Y42224D02*
D03*
Y39665D02*
D03*
Y37106D02*
D03*
X292984Y1065D02*
D03*
Y3624D02*
D03*
Y6183D02*
D03*
Y8742D02*
D03*
Y11301D02*
D03*
Y13860D02*
D03*
Y16419D02*
D03*
Y18978D02*
D03*
X269756Y1065D02*
D03*
Y3624D02*
D03*
Y6183D02*
D03*
Y8742D02*
D03*
Y11301D02*
D03*
Y13860D02*
D03*
Y16419D02*
D03*
Y18978D02*
D03*
X292906Y-81136D02*
D03*
Y-78577D02*
D03*
Y-76018D02*
D03*
Y-73459D02*
D03*
Y-70900D02*
D03*
Y-68341D02*
D03*
Y-65782D02*
D03*
Y-63223D02*
D03*
X269678Y-81136D02*
D03*
Y-78577D02*
D03*
Y-76018D02*
D03*
Y-73459D02*
D03*
Y-70900D02*
D03*
Y-68341D02*
D03*
Y-65782D02*
D03*
Y-63223D02*
D03*
X292884Y-165555D02*
D03*
Y-162996D02*
D03*
Y-160437D02*
D03*
Y-157878D02*
D03*
Y-155319D02*
D03*
Y-152760D02*
D03*
Y-150201D02*
D03*
Y-147642D02*
D03*
X269656Y-165555D02*
D03*
Y-162996D02*
D03*
Y-160437D02*
D03*
Y-157878D02*
D03*
Y-155319D02*
D03*
Y-152760D02*
D03*
Y-150201D02*
D03*
Y-147642D02*
D03*
X223521Y39937D02*
D03*
Y42496D02*
D03*
Y45055D02*
D03*
Y47614D02*
D03*
Y50173D02*
D03*
Y52732D02*
D03*
Y55291D02*
D03*
Y57850D02*
D03*
X200293Y39937D02*
D03*
Y42496D02*
D03*
Y45055D02*
D03*
Y47614D02*
D03*
Y50173D02*
D03*
Y52732D02*
D03*
Y55291D02*
D03*
Y57850D02*
D03*
X223443Y-42264D02*
D03*
Y-39705D02*
D03*
Y-37146D02*
D03*
Y-34587D02*
D03*
Y-32028D02*
D03*
Y-29469D02*
D03*
Y-26910D02*
D03*
Y-24351D02*
D03*
X200215Y-42264D02*
D03*
Y-39705D02*
D03*
Y-37146D02*
D03*
Y-34587D02*
D03*
Y-32028D02*
D03*
Y-29469D02*
D03*
Y-26910D02*
D03*
Y-24351D02*
D03*
X223421Y-126683D02*
D03*
Y-124124D02*
D03*
Y-121565D02*
D03*
Y-119006D02*
D03*
Y-116447D02*
D03*
Y-113888D02*
D03*
Y-111329D02*
D03*
Y-108770D02*
D03*
X200193Y-126683D02*
D03*
Y-124124D02*
D03*
Y-121565D02*
D03*
Y-119006D02*
D03*
Y-116447D02*
D03*
Y-113888D02*
D03*
Y-111329D02*
D03*
Y-108770D02*
D03*
X112795Y22343D02*
D03*
Y19783D02*
D03*
Y17224D02*
D03*
Y14665D02*
D03*
Y12106D02*
D03*
Y9547D02*
D03*
Y6988D02*
D03*
Y4429D02*
D03*
X136024Y22343D02*
D03*
Y19783D02*
D03*
Y17224D02*
D03*
Y14665D02*
D03*
Y12106D02*
D03*
Y9547D02*
D03*
Y6988D02*
D03*
Y4429D02*
D03*
X112795Y-10335D02*
D03*
Y-12894D02*
D03*
Y-15453D02*
D03*
Y-18012D02*
D03*
Y-20571D02*
D03*
Y-23130D02*
D03*
Y-25689D02*
D03*
Y-28248D02*
D03*
X136024Y-10335D02*
D03*
Y-12894D02*
D03*
Y-15453D02*
D03*
Y-18012D02*
D03*
Y-20571D02*
D03*
Y-23130D02*
D03*
Y-25689D02*
D03*
Y-28248D02*
D03*
X112795Y-43110D02*
D03*
Y-45669D02*
D03*
Y-48228D02*
D03*
Y-50787D02*
D03*
Y-53347D02*
D03*
Y-55905D02*
D03*
Y-58465D02*
D03*
Y-61024D02*
D03*
X136024Y-43110D02*
D03*
Y-45669D02*
D03*
Y-48228D02*
D03*
Y-50787D02*
D03*
Y-53347D02*
D03*
Y-55905D02*
D03*
Y-58465D02*
D03*
Y-61024D02*
D03*
X112795Y-75689D02*
D03*
Y-78248D02*
D03*
Y-80807D02*
D03*
Y-83366D02*
D03*
Y-85925D02*
D03*
Y-88484D02*
D03*
Y-91043D02*
D03*
Y-93602D02*
D03*
X136024Y-75689D02*
D03*
Y-78248D02*
D03*
Y-80807D02*
D03*
Y-83366D02*
D03*
Y-85925D02*
D03*
Y-88484D02*
D03*
Y-91043D02*
D03*
Y-93602D02*
D03*
D48*
X146063Y154842D02*
D03*
X131890D02*
D03*
D49*
X92520Y127559D02*
D03*
Y115748D02*
D03*
X114567Y147244D02*
D03*
Y159055D02*
D03*
X102362Y146732D02*
D03*
Y134921D02*
D03*
D50*
X48819Y-68898D02*
D03*
Y-75197D02*
D03*
X34646Y-75197D02*
D03*
Y-68898D02*
D03*
X41732Y-68898D02*
D03*
Y-75197D02*
D03*
X230804Y40232D02*
D03*
Y46531D02*
D03*
X230727Y-41969D02*
D03*
Y-35670D02*
D03*
X230704Y-126388D02*
D03*
Y-120089D02*
D03*
X230804Y57555D02*
D03*
Y51256D02*
D03*
X230727Y-24646D02*
D03*
Y-30945D02*
D03*
X230704Y-109065D02*
D03*
Y-115364D02*
D03*
X193009Y57555D02*
D03*
Y51256D02*
D03*
X192931Y-24646D02*
D03*
Y-30945D02*
D03*
X192909Y-109065D02*
D03*
Y-115364D02*
D03*
X193009Y40232D02*
D03*
Y46531D02*
D03*
X192931Y-41969D02*
D03*
Y-35670D02*
D03*
X192909Y-126388D02*
D03*
Y-120089D02*
D03*
X153500Y125201D02*
D03*
Y131500D02*
D03*
X212087Y117035D02*
D03*
Y123335D02*
D03*
X262413Y1961D02*
D03*
Y8261D02*
D03*
X262335Y-80239D02*
D03*
Y-73940D02*
D03*
X262313Y-164658D02*
D03*
Y-158359D02*
D03*
X235087Y123335D02*
D03*
Y117035D02*
D03*
X258087Y123335D02*
D03*
Y117035D02*
D03*
D51*
X100000Y60630D02*
D03*
X106299D02*
D03*
X100000Y53912D02*
D03*
X106299D02*
D03*
X100000Y41142D02*
D03*
X106299D02*
D03*
X100000Y34646D02*
D03*
X106299D02*
D03*
X29500Y27500D02*
D03*
X23201D02*
D03*
X29500Y7087D02*
D03*
X23201D02*
D03*
X100000Y27953D02*
D03*
X106299D02*
D03*
X100000Y21133D02*
D03*
X106299D02*
D03*
X100000Y8465D02*
D03*
X106299D02*
D03*
X100000Y1969D02*
D03*
X106299D02*
D03*
X23201Y-34646D02*
D03*
X29500D02*
D03*
X100000Y-4724D02*
D03*
X106299D02*
D03*
X100000Y-11417D02*
D03*
X106299D02*
D03*
X100000Y-24512D02*
D03*
X106299D02*
D03*
X100000Y-30709D02*
D03*
X106299D02*
D03*
X100000Y-37402D02*
D03*
X106299D02*
D03*
X100000Y-44094D02*
D03*
X106299D02*
D03*
X110236Y127953D02*
D03*
X103937D02*
D03*
X141201Y168500D02*
D03*
X147500D02*
D03*
X116929Y118898D02*
D03*
X123228D02*
D03*
X147201Y119000D02*
D03*
X153500D02*
D03*
X100000Y-56988D02*
D03*
X106299D02*
D03*
X100000Y-63386D02*
D03*
X106299D02*
D03*
X100000Y-70079D02*
D03*
X106299D02*
D03*
X100000Y-76772D02*
D03*
X106299D02*
D03*
X100000Y-89567D02*
D03*
X106299D02*
D03*
X100000Y-96063D02*
D03*
X106299D02*
D03*
D52*
X153543Y136614D02*
D03*
Y142126D02*
D03*
X123622Y148031D02*
D03*
Y153543D02*
D03*
X116378Y141220D02*
D03*
Y135709D02*
D03*
Y124803D02*
D03*
Y130315D02*
D03*
X160500Y125488D02*
D03*
Y131000D02*
D03*
X113500Y95000D02*
D03*
Y100512D02*
D03*
X143701Y58661D02*
D03*
Y53150D02*
D03*
Y25984D02*
D03*
Y20472D02*
D03*
Y-6299D02*
D03*
Y-11811D02*
D03*
Y-39370D02*
D03*
Y-44882D02*
D03*
Y-71653D02*
D03*
Y-77165D02*
D03*
D53*
X371024Y42301D02*
D03*
X361024D02*
D03*
X371024Y52301D02*
D03*
X361024D02*
D03*
X371024Y-42739D02*
D03*
X361024D02*
D03*
X371024Y-32739D02*
D03*
X361024D02*
D03*
X371024Y-127139D02*
D03*
X361024D02*
D03*
X371024Y-117139D02*
D03*
X361024D02*
D03*
D54*
X90354Y172441D02*
D03*
X100197D02*
D03*
X82677Y150197D02*
D03*
Y140354D02*
D03*
D55*
X265878Y43801D02*
D03*
Y48801D02*
D03*
X270878Y43801D02*
D03*
Y48801D02*
D03*
X275878Y43801D02*
D03*
Y48801D02*
D03*
X280878Y43801D02*
D03*
Y48801D02*
D03*
X285878Y43801D02*
D03*
Y48801D02*
D03*
X290878Y43801D02*
D03*
Y48801D02*
D03*
X295878Y43801D02*
D03*
Y48801D02*
D03*
X300878Y43801D02*
D03*
Y48801D02*
D03*
X265800Y-38400D02*
D03*
Y-33400D02*
D03*
X270800Y-38400D02*
D03*
Y-33400D02*
D03*
X275800Y-38400D02*
D03*
Y-33400D02*
D03*
X280800Y-38400D02*
D03*
Y-33400D02*
D03*
X285800Y-38400D02*
D03*
Y-33400D02*
D03*
X290800Y-38400D02*
D03*
Y-33400D02*
D03*
X295800Y-38400D02*
D03*
Y-33400D02*
D03*
X300800Y-38400D02*
D03*
Y-33400D02*
D03*
X265778Y-122819D02*
D03*
Y-117819D02*
D03*
X270778Y-122819D02*
D03*
Y-117819D02*
D03*
X275778Y-122819D02*
D03*
Y-117819D02*
D03*
X280778Y-122819D02*
D03*
Y-117819D02*
D03*
X285778Y-122819D02*
D03*
Y-117819D02*
D03*
X290778Y-122819D02*
D03*
Y-117819D02*
D03*
X295778Y-122819D02*
D03*
Y-117819D02*
D03*
X300778Y-122819D02*
D03*
Y-117819D02*
D03*
D56*
X94095Y98032D02*
D03*
X120079Y179921D02*
D03*
X174500D02*
D03*
X193000Y11000D02*
D03*
X192922Y-71201D02*
D03*
X192900Y-155620D02*
D03*
X241000Y6000D02*
D03*
X240922Y-76201D02*
D03*
X240900Y-160620D02*
D03*
X227000Y15000D02*
D03*
X226922Y-67201D02*
D03*
X226900Y-151620D02*
D03*
X213000Y24000D02*
D03*
X212922Y-58201D02*
D03*
X212900Y-142620D02*
D03*
X211000Y69000D02*
D03*
X210922Y-13201D02*
D03*
X210900Y-97620D02*
D03*
X180000Y54000D02*
D03*
X179922Y-28201D02*
D03*
X179900Y-112620D02*
D03*
X171000Y40000D02*
D03*
X170922Y-42201D02*
D03*
X170900Y-126620D02*
D03*
X211000Y0D02*
D03*
X210922Y-82201D02*
D03*
X210900Y-166620D02*
D03*
D57*
X92600Y-142300D02*
D03*
D58*
X102600D02*
D03*
X92600Y-152300D02*
D03*
X102600D02*
D03*
X92600Y-162300D02*
D03*
X102600D02*
D03*
D59*
X137205Y129272D02*
D03*
X132874D02*
D03*
X137205Y133602D02*
D03*
X132874D02*
D03*
X137205Y137933D02*
D03*
X132874D02*
D03*
M02*
