G04*
G04 #@! TF.GenerationSoftware,Altium Limited,Altium Designer,20.1.11 (218)*
G04*
G04 Layer_Color=16711935*
%FSLAX44Y44*%
%MOMM*%
G71*
G04*
G04 #@! TF.SameCoordinates,6A4551F0-0C6C-4C7A-9067-02AC85F7A24C*
G04*
G04*
G04 #@! TF.FilePolarity,Positive*
G04*
G01*
G75*
%ADD14C,0.1270*%
D14*
X60002Y-192250D02*
G03*
X50001Y-182250I-10000J0D01*
G01*
Y182250D02*
G03*
X60002Y192250I0J10000D01*
G01*
X87800Y-207250D02*
G03*
X77800Y-217250I0J-10000D01*
G01*
X52000Y-28000D02*
G03*
X52000Y-4000I0J12000D01*
G01*
X73800Y-227250D02*
G03*
X77800Y-223250I0J4000D01*
G01*
Y217250D02*
G03*
X87800Y207250I10000J0D01*
G01*
X77800Y223250D02*
G03*
X73800Y227250I-4000J0D01*
G01*
X1000000Y-500000D02*
Y500000D01*
X148400D02*
X1000000D01*
X148400Y-500000D02*
X1000000D01*
X148400D02*
Y-207250D01*
Y207250D02*
Y500000D01*
X87800Y-207250D02*
X148400D01*
X7794Y-182250D02*
X50001D01*
X7794Y-28000D02*
X52000D01*
X7794Y-4000D02*
X52000D01*
X7794Y182250D02*
X50001D01*
X87800Y207250D02*
X148400D01*
X60002Y-227250D02*
X73800D01*
X60002Y227250D02*
X73800D01*
X60002Y-227250D02*
Y-192250D01*
X0Y-182250D02*
Y-28000D01*
Y-4000D02*
Y182250D01*
X77800Y217250D02*
Y223250D01*
X60002Y192250D02*
Y227250D01*
X77800Y-223250D02*
Y-217250D01*
X0Y-182250D02*
X7794D01*
X0Y-28000D02*
X7794D01*
X0Y-4000D02*
X7794D01*
X0Y182250D02*
X7794D01*
M02*
