G04*
G04 #@! TF.GenerationSoftware,Altium Limited,Altium Designer,20.1.11 (218)*
G04*
G04 Layer_Physical_Order=3*
G04 Layer_Color=16440176*
%FSLAX44Y44*%
%MOMM*%
G71*
G04*
G04 #@! TF.SameCoordinates,6A4551F0-0C6C-4C7A-9067-02AC85F7A24C*
G04*
G04*
G04 #@! TF.FilePolarity,Positive*
G04*
G01*
G75*
%ADD56C,0.1778*%
%ADD58C,0.9000*%
%ADD59C,2.5400*%
%ADD63C,1.3000*%
%ADD64C,0.4500*%
%ADD65C,0.6000*%
G36*
X994821Y-494821D02*
X153579D01*
Y-207250D01*
X153185Y-205268D01*
X152062Y-203588D01*
X150382Y-202465D01*
X148400Y-202071D01*
X87800D01*
X87673Y-202096D01*
X87546Y-202077D01*
X86566Y-202125D01*
X86193Y-202218D01*
X85809D01*
X83887Y-202601D01*
X83415Y-202796D01*
X82915Y-202896D01*
X81104Y-203646D01*
X80680Y-203929D01*
X80208Y-204124D01*
X78579Y-205214D01*
X78218Y-205574D01*
X77794Y-205858D01*
X76407Y-207244D01*
X76124Y-207668D01*
X75763Y-208029D01*
X74674Y-209659D01*
X74479Y-210130D01*
X74196Y-210554D01*
X73445Y-212365D01*
X73346Y-212865D01*
X73151Y-213337D01*
X72768Y-215259D01*
Y-215643D01*
X72675Y-216016D01*
X72627Y-216996D01*
X72646Y-217124D01*
X72621Y-217250D01*
Y-222071D01*
X65181D01*
Y-192250D01*
X65156Y-192123D01*
X65175Y-191996D01*
X65126Y-191016D01*
X65033Y-190643D01*
Y-190259D01*
X64651Y-188337D01*
X64455Y-187865D01*
X64356Y-187365D01*
X63606Y-185554D01*
X63322Y-185130D01*
X63127Y-184659D01*
X62038Y-183029D01*
X61677Y-182668D01*
X61394Y-182244D01*
X60008Y-180858D01*
X59584Y-180574D01*
X59223Y-180214D01*
X57593Y-179124D01*
X57122Y-178929D01*
X56697Y-178646D01*
X54886Y-177896D01*
X54386Y-177796D01*
X53915Y-177601D01*
X51992Y-177218D01*
X51608D01*
X51236Y-177125D01*
X50256Y-177077D01*
X50128Y-177096D01*
X50001Y-177071D01*
X5179D01*
Y-33179D01*
X35774D01*
X36586Y-34449D01*
X36261Y-36080D01*
X36691Y-38242D01*
X37916Y-40074D01*
X39748Y-41298D01*
X41910Y-41728D01*
X44072Y-41298D01*
X45904Y-40074D01*
X47129Y-38242D01*
X47558Y-36080D01*
X47234Y-34449D01*
X48046Y-33179D01*
X52000D01*
X52168Y-33146D01*
X52339Y-33168D01*
X53905Y-33066D01*
X54398Y-32934D01*
X54907Y-32900D01*
X57933Y-32089D01*
X58540Y-31790D01*
X59182Y-31572D01*
X61895Y-30006D01*
X62404Y-29559D01*
X62968Y-29183D01*
X65183Y-26967D01*
X65559Y-26404D01*
X66006Y-25895D01*
X67572Y-23182D01*
X67790Y-22540D01*
X68089Y-21933D01*
X68900Y-18907D01*
X68945Y-18231D01*
X69077Y-17566D01*
Y-14434D01*
X68945Y-13769D01*
X68900Y-13093D01*
X68089Y-10067D01*
X67790Y-9460D01*
X67572Y-8818D01*
X66006Y-6105D01*
X65559Y-5596D01*
X65183Y-5033D01*
X62968Y-2817D01*
X62404Y-2441D01*
X61895Y-1994D01*
X59182Y-428D01*
X58540Y-210D01*
X57933Y89D01*
X54907Y900D01*
X54398Y934D01*
X53905Y1066D01*
X52339Y1168D01*
X52168Y1146D01*
X52000Y1179D01*
X5179D01*
Y177071D01*
X50001D01*
X50128Y177096D01*
X50255Y177077D01*
X51236Y177125D01*
X51608Y177218D01*
X51992D01*
X53915Y177601D01*
X54386Y177796D01*
X54886Y177896D01*
X56697Y178646D01*
X57122Y178929D01*
X57593Y179124D01*
X59223Y180213D01*
X59584Y180574D01*
X60008Y180858D01*
X61394Y182244D01*
X61677Y182668D01*
X62038Y183029D01*
X63127Y184658D01*
X63322Y185130D01*
X63606Y185554D01*
X64356Y187365D01*
X64455Y187865D01*
X64651Y188337D01*
X65033Y190259D01*
Y190643D01*
X65126Y191016D01*
X65175Y191996D01*
X65156Y192123D01*
X65181Y192250D01*
Y222071D01*
X72621D01*
Y217250D01*
X72646Y217124D01*
X72627Y216996D01*
X72675Y216016D01*
X72768Y215643D01*
Y215259D01*
X73151Y213337D01*
X73346Y212865D01*
X73445Y212365D01*
X74196Y210554D01*
X74479Y210130D01*
X74674Y209658D01*
X75763Y208029D01*
X76124Y207668D01*
X76407Y207244D01*
X77794Y205858D01*
X78218Y205574D01*
X78579Y205213D01*
X80208Y204124D01*
X80680Y203929D01*
X81104Y203646D01*
X82915Y202896D01*
X83415Y202796D01*
X83887Y202601D01*
X85809Y202218D01*
X86193D01*
X86566Y202125D01*
X87546Y202077D01*
X87674Y202096D01*
X87800Y202071D01*
X148400D01*
X150382Y202465D01*
X152062Y203588D01*
X153185Y205268D01*
X153579Y207250D01*
Y494821D01*
X994821D01*
Y-494821D01*
D02*
G37*
%LPC*%
G36*
X502920Y453451D02*
X500758Y453021D01*
X498926Y451796D01*
X497701Y449964D01*
X497271Y447802D01*
X497701Y445640D01*
X498926Y443808D01*
X500758Y442583D01*
X502920Y442154D01*
X505082Y442583D01*
X506914Y443808D01*
X508139Y445640D01*
X508568Y447802D01*
X508139Y449964D01*
X506914Y451796D01*
X505082Y453021D01*
X502920Y453451D01*
D02*
G37*
G36*
X401320D02*
X399158Y453021D01*
X397326Y451796D01*
X396101Y449964D01*
X395672Y447802D01*
X396101Y445640D01*
X397326Y443808D01*
X399158Y442583D01*
X401320Y442154D01*
X403482Y442583D01*
X405314Y443808D01*
X406539Y445640D01*
X406968Y447802D01*
X406539Y449964D01*
X405314Y451796D01*
X403482Y453021D01*
X401320Y453451D01*
D02*
G37*
G36*
X198120D02*
X195958Y453021D01*
X194126Y451796D01*
X192901Y449964D01*
X192472Y447802D01*
X192901Y445640D01*
X194126Y443808D01*
X195958Y442583D01*
X198120Y442154D01*
X200282Y442583D01*
X202114Y443808D01*
X203339Y445640D01*
X203769Y447802D01*
X203339Y449964D01*
X202114Y451796D01*
X200282Y453021D01*
X198120Y453451D01*
D02*
G37*
G36*
X443230Y474356D02*
X439844Y474022D01*
X436588Y473035D01*
X433588Y471431D01*
X430958Y469272D01*
X428799Y466642D01*
X427196Y463642D01*
X426208Y460386D01*
X425874Y457000D01*
X426208Y453614D01*
X427196Y450358D01*
X428799Y447358D01*
X430958Y444728D01*
X433588Y442569D01*
X436588Y440965D01*
X439844Y439978D01*
X443230Y439644D01*
X446616Y439978D01*
X449872Y440965D01*
X452872Y442569D01*
X455502Y444728D01*
X457661Y447358D01*
X459264Y450358D01*
X460252Y453614D01*
X460586Y457000D01*
X460252Y460386D01*
X459264Y463642D01*
X457661Y466642D01*
X455502Y469272D01*
X452872Y471431D01*
X449872Y473035D01*
X446616Y474022D01*
X443230Y474356D01*
D02*
G37*
G36*
X229500Y449168D02*
X226610Y448787D01*
X223916Y447671D01*
X221603Y445897D01*
X219829Y443584D01*
X218713Y440890D01*
X218333Y438000D01*
X218713Y435110D01*
X219829Y432416D01*
X221603Y430103D01*
X223916Y428329D01*
X226610Y427213D01*
X229500Y426833D01*
X232390Y427213D01*
X235084Y428329D01*
X237397Y430103D01*
X239171Y432416D01*
X240287Y435110D01*
X240667Y438000D01*
X240287Y440890D01*
X239171Y443584D01*
X237397Y445897D01*
X235084Y447671D01*
X232390Y448787D01*
X229500Y449168D01*
D02*
G37*
G36*
X352250Y433638D02*
X350089Y433209D01*
X348256Y431984D01*
X347032Y430152D01*
X346602Y427990D01*
X347032Y425828D01*
X348256Y423996D01*
X350089Y422771D01*
X352250Y422341D01*
X354412Y422771D01*
X356244Y423996D01*
X357469Y425828D01*
X357899Y427990D01*
X357469Y430152D01*
X356244Y431984D01*
X354412Y433209D01*
X352250Y433638D01*
D02*
G37*
G36*
X477520Y402650D02*
X475358Y402221D01*
X473526Y400996D01*
X472301Y399164D01*
X471871Y397002D01*
X472301Y394840D01*
X473526Y393008D01*
X475358Y391783D01*
X477520Y391353D01*
X479682Y391783D01*
X481514Y393008D01*
X482739Y394840D01*
X483168Y397002D01*
X482739Y399164D01*
X481514Y400996D01*
X479682Y402221D01*
X477520Y402650D01*
D02*
G37*
G36*
X426720D02*
X424558Y402221D01*
X422726Y400996D01*
X421501Y399164D01*
X421072Y397002D01*
X421501Y394840D01*
X422726Y393008D01*
X424558Y391783D01*
X426720Y391353D01*
X428882Y391783D01*
X430714Y393008D01*
X431939Y394840D01*
X432369Y397002D01*
X431939Y399164D01*
X430714Y400996D01*
X428882Y402221D01*
X426720Y402650D01*
D02*
G37*
G36*
X223520D02*
X221358Y402221D01*
X219526Y400996D01*
X218301Y399164D01*
X217871Y397002D01*
X218301Y394840D01*
X219526Y393008D01*
X221358Y391783D01*
X223520Y391353D01*
X225682Y391783D01*
X227514Y393008D01*
X228739Y394840D01*
X229168Y397002D01*
X228739Y399164D01*
X227514Y400996D01*
X225682Y402221D01*
X223520Y402650D01*
D02*
G37*
G36*
X210000Y392668D02*
X207110Y392287D01*
X204416Y391171D01*
X202103Y389397D01*
X200329Y387084D01*
X199213Y384390D01*
X198832Y381500D01*
X199213Y378610D01*
X200329Y375916D01*
X202103Y373603D01*
X204416Y371829D01*
X207110Y370713D01*
X210000Y370332D01*
X212890Y370713D01*
X215584Y371829D01*
X217897Y373603D01*
X219671Y375916D01*
X220787Y378610D01*
X221168Y381500D01*
X220787Y384390D01*
X219671Y387084D01*
X217897Y389397D01*
X215584Y391171D01*
X212890Y392287D01*
X210000Y392668D01*
D02*
G37*
G36*
X341630Y371109D02*
X339468Y370679D01*
X337636Y369454D01*
X336411Y367622D01*
X335981Y365460D01*
X336411Y363298D01*
X337636Y361466D01*
X339468Y360242D01*
X341630Y359812D01*
X343792Y360242D01*
X345624Y361466D01*
X346848Y363298D01*
X347279Y365460D01*
X346848Y367622D01*
X345624Y369454D01*
X343792Y370679D01*
X341630Y371109D01*
D02*
G37*
G36*
X325713D02*
X323551Y370679D01*
X321718Y369454D01*
X320494Y367622D01*
X320064Y365460D01*
X320494Y363298D01*
X321718Y361466D01*
X323551Y360242D01*
X325713Y359812D01*
X327874Y360242D01*
X329707Y361466D01*
X330931Y363298D01*
X331361Y365460D01*
X330931Y367622D01*
X329707Y369454D01*
X327874Y370679D01*
X325713Y371109D01*
D02*
G37*
G36*
X309795D02*
X307633Y370679D01*
X305801Y369454D01*
X304576Y367622D01*
X304146Y365460D01*
X304576Y363298D01*
X305801Y361466D01*
X307633Y360242D01*
X309795Y359812D01*
X311957Y360242D01*
X313789Y361466D01*
X315014Y363298D01*
X315443Y365460D01*
X315014Y367622D01*
X313789Y369454D01*
X311957Y370679D01*
X309795Y371109D01*
D02*
G37*
G36*
X293878D02*
X291716Y370679D01*
X289883Y369454D01*
X288659Y367622D01*
X288229Y365460D01*
X288659Y363298D01*
X289883Y361466D01*
X291716Y360242D01*
X293878Y359812D01*
X296039Y360242D01*
X297872Y361466D01*
X299096Y363298D01*
X299526Y365460D01*
X299096Y367622D01*
X297872Y369454D01*
X296039Y370679D01*
X293878Y371109D01*
D02*
G37*
G36*
X277960D02*
X275798Y370679D01*
X273966Y369454D01*
X272741Y367622D01*
X272311Y365460D01*
X272741Y363298D01*
X273966Y361466D01*
X275798Y360242D01*
X277960Y359812D01*
X280122Y360242D01*
X281954Y361466D01*
X283179Y363298D01*
X283608Y365460D01*
X283179Y367622D01*
X281954Y369454D01*
X280122Y370679D01*
X277960Y371109D01*
D02*
G37*
G36*
X348500Y355489D02*
X346534Y355098D01*
X344866Y353984D01*
X343752Y352317D01*
X343647Y351789D01*
X342353D01*
X342248Y352317D01*
X341134Y353984D01*
X339467Y355098D01*
X337500Y355489D01*
X335533Y355098D01*
X333866Y353984D01*
X332752Y352317D01*
X332361Y350350D01*
X332752Y348383D01*
X333866Y346716D01*
X335533Y345602D01*
X336061Y345497D01*
Y344203D01*
X335533Y344098D01*
X333866Y342984D01*
X332752Y341316D01*
X332361Y339350D01*
X332752Y337383D01*
X333866Y335716D01*
X335533Y334602D01*
X336061Y334497D01*
Y333203D01*
X335533Y333098D01*
X333866Y331984D01*
X332752Y330317D01*
X332361Y328350D01*
X332752Y326384D01*
X333866Y324716D01*
X335533Y323602D01*
X337500Y323211D01*
X339467Y323602D01*
X341134Y324716D01*
X342248Y326384D01*
X342353Y326911D01*
X343647D01*
X343752Y326384D01*
X344866Y324716D01*
X346534Y323602D01*
X348500Y323211D01*
X350466Y323602D01*
X352134Y324716D01*
X353248Y326384D01*
X353639Y328350D01*
X353248Y330317D01*
X352134Y331984D01*
X350466Y333098D01*
X349939Y333203D01*
Y334497D01*
X350466Y334602D01*
X352134Y335716D01*
X353248Y337383D01*
X353639Y339350D01*
X353248Y341316D01*
X352134Y342984D01*
X350466Y344098D01*
X349939Y344203D01*
Y345497D01*
X350466Y345602D01*
X352134Y346716D01*
X353248Y348383D01*
X353639Y350350D01*
X353248Y352317D01*
X352134Y353984D01*
X350466Y355098D01*
X348500Y355489D01*
D02*
G37*
G36*
X588010Y357439D02*
X585848Y357009D01*
X584016Y355784D01*
X582791Y353952D01*
X582361Y351790D01*
X582791Y349628D01*
X584016Y347796D01*
X585848Y346571D01*
X588010Y346142D01*
X590172Y346571D01*
X592004Y347796D01*
X593229Y349628D01*
X593658Y351790D01*
X593229Y353952D01*
X592004Y355784D01*
X590172Y357009D01*
X588010Y357439D01*
D02*
G37*
G36*
X210000Y367668D02*
X207110Y367287D01*
X204416Y366171D01*
X202103Y364397D01*
X200329Y362084D01*
X199213Y359390D01*
X198832Y356500D01*
X199213Y353610D01*
X200329Y350916D01*
X202103Y348603D01*
X204416Y346829D01*
X207110Y345713D01*
X210000Y345332D01*
X212890Y345713D01*
X215584Y346829D01*
X217897Y348603D01*
X219671Y350916D01*
X220787Y353610D01*
X221168Y356500D01*
X220787Y359390D01*
X219671Y362084D01*
X217897Y364397D01*
X215584Y366171D01*
X212890Y367287D01*
X210000Y367668D01*
D02*
G37*
G36*
X502920Y351851D02*
X500758Y351421D01*
X498926Y350196D01*
X497701Y348364D01*
X497271Y346202D01*
X497701Y344040D01*
X498926Y342208D01*
X500758Y340983D01*
X502920Y340554D01*
X505082Y340983D01*
X506914Y342208D01*
X508139Y344040D01*
X508568Y346202D01*
X508139Y348364D01*
X506914Y350196D01*
X505082Y351421D01*
X502920Y351851D01*
D02*
G37*
G36*
X452120D02*
X449958Y351421D01*
X448126Y350196D01*
X446901Y348364D01*
X446471Y346202D01*
X446901Y344040D01*
X448126Y342208D01*
X449958Y340983D01*
X452120Y340554D01*
X454282Y340983D01*
X456114Y342208D01*
X457339Y344040D01*
X457769Y346202D01*
X457339Y348364D01*
X456114Y350196D01*
X454282Y351421D01*
X452120Y351851D01*
D02*
G37*
G36*
X407670Y347279D02*
X405508Y346849D01*
X403676Y345624D01*
X402451Y343792D01*
X402021Y341630D01*
X402451Y339468D01*
X403676Y337636D01*
X405508Y336411D01*
X407670Y335981D01*
X409832Y336411D01*
X411664Y337636D01*
X412889Y339468D01*
X413318Y341630D01*
X412889Y343792D01*
X411664Y345624D01*
X409832Y346849D01*
X407670Y347279D01*
D02*
G37*
G36*
X387350Y331470D02*
X378460D01*
Y322580D01*
X387350D01*
Y331470D01*
D02*
G37*
G36*
X629920Y301050D02*
X627758Y300621D01*
X625926Y299396D01*
X624701Y297564D01*
X624272Y295402D01*
X624701Y293240D01*
X625926Y291408D01*
X627758Y290183D01*
X629920Y289753D01*
X632082Y290183D01*
X633914Y291408D01*
X635139Y293240D01*
X635569Y295402D01*
X635139Y297564D01*
X633914Y299396D01*
X632082Y300621D01*
X629920Y301050D01*
D02*
G37*
G36*
X579120D02*
X576958Y300621D01*
X575126Y299396D01*
X573901Y297564D01*
X573471Y295402D01*
X573901Y293240D01*
X575126Y291408D01*
X576958Y290183D01*
X579120Y289753D01*
X581282Y290183D01*
X583114Y291408D01*
X584339Y293240D01*
X584768Y295402D01*
X584339Y297564D01*
X583114Y299396D01*
X581282Y300621D01*
X579120Y301050D01*
D02*
G37*
G36*
X477520D02*
X475358Y300621D01*
X473526Y299396D01*
X472301Y297564D01*
X471871Y295402D01*
X472301Y293240D01*
X473526Y291408D01*
X475358Y290183D01*
X477520Y289753D01*
X479682Y290183D01*
X481514Y291408D01*
X482739Y293240D01*
X483168Y295402D01*
X482739Y297564D01*
X481514Y299396D01*
X479682Y300621D01*
X477520Y301050D01*
D02*
G37*
G36*
X426720D02*
X424558Y300621D01*
X422726Y299396D01*
X421501Y297564D01*
X421072Y295402D01*
X421501Y293240D01*
X422726Y291408D01*
X424558Y290183D01*
X426720Y289753D01*
X428882Y290183D01*
X430714Y291408D01*
X431939Y293240D01*
X432369Y295402D01*
X431939Y297564D01*
X430714Y299396D01*
X428882Y300621D01*
X426720Y301050D01*
D02*
G37*
G36*
X325120D02*
X322958Y300621D01*
X321126Y299396D01*
X319901Y297564D01*
X319471Y295402D01*
X319901Y293240D01*
X321126Y291408D01*
X322958Y290183D01*
X325120Y289753D01*
X327282Y290183D01*
X329114Y291408D01*
X330339Y293240D01*
X330769Y295402D01*
X330339Y297564D01*
X329114Y299396D01*
X327282Y300621D01*
X325120Y301050D01*
D02*
G37*
G36*
X274320D02*
X272158Y300621D01*
X270326Y299396D01*
X269101Y297564D01*
X268671Y295402D01*
X269101Y293240D01*
X270326Y291408D01*
X272158Y290183D01*
X274320Y289753D01*
X276482Y290183D01*
X278314Y291408D01*
X279539Y293240D01*
X279968Y295402D01*
X279539Y297564D01*
X278314Y299396D01*
X276482Y300621D01*
X274320Y301050D01*
D02*
G37*
G36*
X251460Y285049D02*
X249298Y284619D01*
X247466Y283394D01*
X246241Y281562D01*
X245812Y279400D01*
X245110Y278622D01*
X244408Y279400D01*
X243979Y281562D01*
X242754Y283394D01*
X240922Y284619D01*
X238760Y285049D01*
X236598Y284619D01*
X234766Y283394D01*
X233541Y281562D01*
X233111Y279400D01*
X232410Y278622D01*
X231709Y279400D01*
X231279Y281562D01*
X230054Y283394D01*
X228222Y284619D01*
X226060Y285049D01*
X223898Y284619D01*
X222066Y283394D01*
X220841Y281562D01*
X220411Y279400D01*
X220841Y277238D01*
X222066Y275406D01*
X223898Y274181D01*
X225961Y273771D01*
X226060Y273751D01*
X226931Y272630D01*
X226761Y271780D01*
X227191Y269618D01*
X228416Y267786D01*
X230248Y266561D01*
X231956Y266222D01*
X232112Y265760D01*
X232103Y264898D01*
X229358Y263431D01*
X226728Y261272D01*
X224569Y258642D01*
X222966Y255642D01*
X221978Y252386D01*
X221644Y249000D01*
X221978Y245614D01*
X222966Y242358D01*
X224569Y239358D01*
X226728Y236728D01*
X229358Y234569D01*
X232358Y232966D01*
X235614Y231978D01*
X239000Y231644D01*
X242386Y231978D01*
X245642Y232966D01*
X248642Y234569D01*
X251272Y236728D01*
X253431Y239358D01*
X255035Y242358D01*
X256022Y245614D01*
X256356Y249000D01*
X256022Y252386D01*
X255035Y255642D01*
X253431Y258642D01*
X251272Y261272D01*
X248642Y263431D01*
X245767Y264967D01*
X245704Y265351D01*
X245889Y266287D01*
X247272Y266561D01*
X249104Y267786D01*
X250329Y269618D01*
X250758Y271780D01*
X250590Y272630D01*
X251460Y273751D01*
X251559Y273771D01*
X253622Y274181D01*
X255454Y275406D01*
X256679Y277238D01*
X257108Y279400D01*
X256679Y281562D01*
X255454Y283394D01*
X253622Y284619D01*
X251460Y285049D01*
D02*
G37*
G36*
X299720Y250250D02*
X297558Y249821D01*
X295726Y248596D01*
X294501Y246764D01*
X294072Y244602D01*
X294501Y242440D01*
X295726Y240608D01*
X297558Y239383D01*
X299720Y238953D01*
X301882Y239383D01*
X303714Y240608D01*
X304939Y242440D01*
X305368Y244602D01*
X304939Y246764D01*
X303714Y248596D01*
X301882Y249821D01*
X299720Y250250D01*
D02*
G37*
G36*
X198120D02*
X195958Y249821D01*
X194126Y248596D01*
X192901Y246764D01*
X192472Y244602D01*
X192901Y242440D01*
X194126Y240608D01*
X195958Y239383D01*
X198120Y238953D01*
X200282Y239383D01*
X202114Y240608D01*
X203339Y242440D01*
X203769Y244602D01*
X203339Y246764D01*
X202114Y248596D01*
X200282Y249821D01*
X198120Y250250D01*
D02*
G37*
G36*
X535940Y192616D02*
X532554Y192282D01*
X529298Y191294D01*
X526298Y189691D01*
X523668Y187532D01*
X521509Y184902D01*
X519906Y181902D01*
X518918Y178646D01*
X518584Y175260D01*
X518918Y171874D01*
X519906Y168618D01*
X521509Y165618D01*
X523668Y162988D01*
X526298Y160829D01*
X529298Y159226D01*
X532554Y158238D01*
X535940Y157904D01*
X539326Y158238D01*
X542582Y159226D01*
X545582Y160829D01*
X548212Y162988D01*
X550371Y165618D01*
X551974Y168618D01*
X552962Y171874D01*
X553296Y175260D01*
X552962Y178646D01*
X551974Y181902D01*
X550371Y184902D01*
X548212Y187532D01*
X545582Y189691D01*
X542582Y191294D01*
X539326Y192282D01*
X535940Y192616D01*
D02*
G37*
G36*
X313690Y159319D02*
X311528Y158889D01*
X309696Y157664D01*
X308471Y155832D01*
X308041Y153670D01*
X308471Y151508D01*
X309696Y149676D01*
X311528Y148451D01*
X313690Y148021D01*
X315852Y148451D01*
X317684Y149676D01*
X318909Y151508D01*
X319338Y153670D01*
X318909Y155832D01*
X317684Y157664D01*
X315852Y158889D01*
X313690Y159319D01*
D02*
G37*
G36*
X355600Y154239D02*
X353438Y153809D01*
X351606Y152584D01*
X350381Y150752D01*
X349952Y148590D01*
X350381Y146428D01*
X351606Y144596D01*
X353438Y143371D01*
X355600Y142942D01*
X357762Y143371D01*
X359594Y144596D01*
X360819Y146428D01*
X361249Y148590D01*
X360819Y150752D01*
X359594Y152584D01*
X357762Y153809D01*
X355600Y154239D01*
D02*
G37*
G36*
X556260Y152204D02*
X554391Y151832D01*
X552807Y150773D01*
X551748Y149189D01*
X551376Y147320D01*
X551748Y145451D01*
X552807Y143867D01*
X554391Y142808D01*
X556260Y142436D01*
X558129Y142808D01*
X559713Y143867D01*
X560772Y145451D01*
X561144Y147320D01*
X560772Y149189D01*
X559713Y150773D01*
X558129Y151832D01*
X556260Y152204D01*
D02*
G37*
G36*
X44450Y173288D02*
X42288Y172859D01*
X40456Y171634D01*
X39231Y169802D01*
X38802Y167640D01*
X39231Y165478D01*
X40456Y163646D01*
X41649Y162849D01*
X41381Y161501D01*
X41018Y161429D01*
X39186Y160204D01*
X37961Y158372D01*
X37531Y156210D01*
X37961Y154048D01*
X38793Y152804D01*
X38636Y151172D01*
X37938Y150706D01*
X36713Y148873D01*
X36283Y146712D01*
X36713Y144550D01*
X37938Y142718D01*
X39770Y141493D01*
X41932Y141063D01*
X44093Y141493D01*
X45926Y142718D01*
X47150Y144550D01*
X47580Y146712D01*
X47150Y148873D01*
X46319Y150117D01*
X46476Y151749D01*
X47174Y152216D01*
X48399Y154048D01*
X48829Y156210D01*
X48399Y158372D01*
X47174Y160204D01*
X45981Y161001D01*
X46249Y162349D01*
X46612Y162421D01*
X48444Y163646D01*
X49669Y165478D01*
X50099Y167640D01*
X49669Y169802D01*
X48444Y171634D01*
X46612Y172859D01*
X44450Y173288D01*
D02*
G37*
G36*
X253507Y150884D02*
X251346Y150454D01*
X249513Y149230D01*
X248289Y147397D01*
X247859Y145236D01*
X248289Y143074D01*
X249513Y141242D01*
X251346Y140017D01*
X253507Y139587D01*
X255669Y140017D01*
X257501Y141242D01*
X258726Y143074D01*
X259156Y145236D01*
X258726Y147397D01*
X257501Y149230D01*
X255669Y150454D01*
X253507Y150884D01*
D02*
G37*
G36*
X942400Y145141D02*
X939217Y144722D01*
X936251Y143494D01*
X933705Y141539D01*
X931750Y138993D01*
X930522Y136027D01*
X930340Y134649D01*
X929060D01*
X928878Y136027D01*
X927650Y138993D01*
X925695Y141539D01*
X923149Y143494D01*
X920183Y144722D01*
X917000Y145141D01*
X913817Y144722D01*
X910851Y143494D01*
X908305Y141539D01*
X906350Y138993D01*
X905122Y136027D01*
X904703Y132844D01*
X905122Y129661D01*
X906350Y126695D01*
X908305Y124149D01*
X910851Y122194D01*
X913817Y120966D01*
X915195Y120785D01*
Y119503D01*
X913817Y119322D01*
X910851Y118094D01*
X908305Y116139D01*
X906350Y113593D01*
X905122Y110627D01*
X904703Y107444D01*
X905122Y104261D01*
X906350Y101295D01*
X908305Y98749D01*
X910851Y96794D01*
X913817Y95566D01*
X917000Y95147D01*
X920183Y95566D01*
X923149Y96794D01*
X925695Y98749D01*
X927650Y101295D01*
X928878Y104261D01*
X929060Y105639D01*
X930340D01*
X930522Y104261D01*
X931750Y101295D01*
X933705Y98749D01*
X936251Y96794D01*
X939217Y95566D01*
X942400Y95147D01*
X945583Y95566D01*
X948549Y96794D01*
X951095Y98749D01*
X953050Y101295D01*
X954278Y104261D01*
X954697Y107444D01*
X954278Y110627D01*
X953050Y113593D01*
X951095Y116139D01*
X948549Y118094D01*
X945583Y119322D01*
X944205Y119503D01*
Y120785D01*
X945583Y120966D01*
X948549Y122194D01*
X951095Y124149D01*
X953050Y126695D01*
X954278Y129661D01*
X954697Y132844D01*
X954278Y136027D01*
X953050Y138993D01*
X951095Y141539D01*
X948549Y143494D01*
X945583Y144722D01*
X942400Y145141D01*
D02*
G37*
G36*
X670560Y150530D02*
X668691Y150158D01*
X667107Y149099D01*
X666048Y147515D01*
X665676Y145646D01*
X666048Y143777D01*
X667107Y142192D01*
X668359Y141356D01*
Y134788D01*
X663812Y130242D01*
X662466Y130512D01*
X662287Y131409D01*
X661228Y132993D01*
X659644Y134052D01*
X657775Y134424D01*
X655906Y134052D01*
X654322Y132993D01*
X653263Y131409D01*
X652891Y129540D01*
X653263Y127671D01*
X654322Y126087D01*
X655906Y125028D01*
X657775Y124656D01*
X659644Y125028D01*
X661228Y126087D01*
X661898Y127088D01*
X663167Y126702D01*
Y107128D01*
X663335Y106286D01*
X663812Y105571D01*
X668498Y100886D01*
X667689Y99899D01*
X667349Y100126D01*
X665480Y100498D01*
X663611Y100126D01*
X662027Y99067D01*
X660968Y97483D01*
X660596Y95614D01*
X660968Y93745D01*
X662027Y92161D01*
X663611Y91102D01*
X665480Y90730D01*
X667349Y91102D01*
X668933Y92161D01*
X669992Y93745D01*
X670364Y95614D01*
X669992Y97483D01*
X669394Y98378D01*
X670309Y99294D01*
X670361Y99259D01*
X671204Y99092D01*
X692156D01*
X692998Y99259D01*
X693712Y99736D01*
X696969Y102993D01*
X698362Y102416D01*
X700730Y102104D01*
X703098Y102416D01*
X705305Y103330D01*
X707080Y104692D01*
X708855Y103330D01*
X711062Y102416D01*
X713430Y102104D01*
X715798Y102416D01*
X718005Y103330D01*
X719780Y104692D01*
X721555Y103330D01*
X723762Y102416D01*
X726130Y102104D01*
X728498Y102416D01*
X730705Y103330D01*
X732480Y104692D01*
X734255Y103330D01*
X736462Y102416D01*
X738830Y102104D01*
X741198Y102416D01*
X743405Y103330D01*
X745180Y104692D01*
X746955Y103330D01*
X748882Y102531D01*
X748630Y101261D01*
X746760D01*
X745918Y101094D01*
X745203Y100617D01*
X743157Y98570D01*
X741680Y98864D01*
X739811Y98492D01*
X738227Y97433D01*
X737168Y95849D01*
X736796Y93980D01*
X737168Y92111D01*
X738227Y90527D01*
X739811Y89468D01*
X741680Y89096D01*
X743549Y89468D01*
X745133Y90527D01*
X746192Y92111D01*
X746564Y93980D01*
X746270Y95457D01*
X747672Y96859D01*
X763030D01*
X763455Y95589D01*
X762568Y94262D01*
X762196Y92393D01*
X762568Y90524D01*
X763627Y88939D01*
X765211Y87880D01*
X767080Y87509D01*
X768949Y87880D01*
X770533Y88939D01*
X771592Y90524D01*
X771964Y92393D01*
X771592Y94262D01*
X770533Y95846D01*
X769449Y96570D01*
X769206Y97944D01*
X769249Y98116D01*
X775747Y104614D01*
X776225Y105329D01*
X776392Y106171D01*
Y128080D01*
X776225Y128922D01*
X775747Y129636D01*
X769912Y135472D01*
X769198Y135949D01*
X768356Y136116D01*
X747404D01*
X746562Y135949D01*
X745847Y135472D01*
X742591Y132215D01*
X741198Y132793D01*
X738830Y133104D01*
X736462Y132793D01*
X734255Y131878D01*
X732480Y130517D01*
X730705Y131878D01*
X728498Y132793D01*
X726130Y133104D01*
X723762Y132793D01*
X721555Y131878D01*
X719780Y130517D01*
X718005Y131878D01*
X715798Y132793D01*
X713430Y133104D01*
X711062Y132793D01*
X708855Y131878D01*
X707080Y130517D01*
X705305Y131878D01*
X703098Y132793D01*
X700730Y133104D01*
X698362Y132793D01*
X696155Y131878D01*
X694380Y130517D01*
X692605Y131878D01*
X690398Y132793D01*
X688030Y133104D01*
X685662Y132793D01*
X683455Y131878D01*
X681680Y130517D01*
X679905Y131878D01*
X677698Y132793D01*
X675330Y133104D01*
X673864Y132911D01*
X672887Y133766D01*
X672761Y134032D01*
Y141356D01*
X674013Y142192D01*
X675072Y143777D01*
X675444Y145646D01*
X675072Y147515D01*
X674013Y149099D01*
X672429Y150158D01*
X670560Y150530D01*
D02*
G37*
G36*
X41910Y137729D02*
X39748Y137299D01*
X37916Y136074D01*
X36691Y134242D01*
X36261Y132080D01*
X36691Y129918D01*
X37916Y128086D01*
X39748Y126861D01*
X41910Y126432D01*
X44072Y126861D01*
X45904Y128086D01*
X47129Y129918D01*
X47558Y132080D01*
X47129Y134242D01*
X45904Y136074D01*
X44072Y137299D01*
X41910Y137729D01*
D02*
G37*
G36*
X555752Y135694D02*
X553883Y135322D01*
X552299Y134263D01*
X551240Y132679D01*
X550868Y130810D01*
X551240Y128941D01*
X552299Y127357D01*
X553883Y126298D01*
X555752Y125926D01*
X557621Y126298D01*
X559205Y127357D01*
X560264Y128941D01*
X560636Y130810D01*
X560264Y132679D01*
X559205Y134263D01*
X557621Y135322D01*
X555752Y135694D01*
D02*
G37*
G36*
X519430Y138996D02*
X517561Y138624D01*
X515977Y137565D01*
X514918Y135981D01*
X514546Y134112D01*
X514918Y132243D01*
X515977Y130659D01*
X517561Y129600D01*
X519430Y129228D01*
X520494Y129440D01*
X521576Y128374D01*
X521404Y127508D01*
X521686Y126091D01*
X521176Y125562D01*
X520667Y125187D01*
X518922Y125534D01*
X517053Y125162D01*
X515469Y124103D01*
X514410Y122519D01*
X514038Y120650D01*
X514410Y118781D01*
X515469Y117197D01*
X517053Y116138D01*
X518922Y115766D01*
X520791Y116138D01*
X522375Y117197D01*
X523434Y118781D01*
X523806Y120650D01*
X523524Y122066D01*
X524034Y122596D01*
X524543Y122971D01*
X526288Y122624D01*
X528157Y122996D01*
X529741Y124055D01*
X530800Y125639D01*
X531172Y127508D01*
X530800Y129377D01*
X529741Y130961D01*
X528157Y132020D01*
X526288Y132392D01*
X525224Y132180D01*
X524142Y133246D01*
X524314Y134112D01*
X523942Y135981D01*
X522883Y137565D01*
X521299Y138624D01*
X519430Y138996D01*
D02*
G37*
G36*
X356855Y131601D02*
X354986Y131229D01*
X353402Y130170D01*
X352343Y128586D01*
X351972Y126717D01*
X352343Y124848D01*
X353402Y123264D01*
X354986Y122205D01*
X356855Y121833D01*
X358724Y122205D01*
X360309Y123264D01*
X361367Y124848D01*
X361739Y126717D01*
X361367Y128586D01*
X360309Y130170D01*
X358724Y131229D01*
X356855Y131601D01*
D02*
G37*
G36*
X457200Y154516D02*
X453814Y154182D01*
X450558Y153195D01*
X447558Y151591D01*
X444928Y149432D01*
X442769Y146802D01*
X441166Y143802D01*
X440178Y140546D01*
X439844Y137160D01*
X440178Y133774D01*
X441166Y130518D01*
X442769Y127518D01*
X444928Y124888D01*
X447558Y122729D01*
X450558Y121125D01*
X453814Y120138D01*
X457200Y119804D01*
X460586Y120138D01*
X463842Y121125D01*
X466842Y122729D01*
X469472Y124888D01*
X471631Y127518D01*
X473234Y130518D01*
X474222Y133774D01*
X474556Y137160D01*
X474222Y140546D01*
X473234Y143802D01*
X471631Y146802D01*
X469472Y149432D01*
X466842Y151591D01*
X463842Y153195D01*
X460586Y154182D01*
X457200Y154516D01*
D02*
G37*
G36*
X41910Y121219D02*
X39748Y120789D01*
X37916Y119564D01*
X36691Y117732D01*
X36261Y115570D01*
X36691Y113408D01*
X37916Y111576D01*
X39748Y110351D01*
X41910Y109922D01*
X44072Y110351D01*
X45904Y111576D01*
X47129Y113408D01*
X47558Y115570D01*
X47129Y117732D01*
X45904Y119564D01*
X44072Y120789D01*
X41910Y121219D01*
D02*
G37*
G36*
X556260Y117660D02*
X554391Y117288D01*
X552807Y116229D01*
X551748Y114645D01*
X551376Y112776D01*
X551748Y110907D01*
X552807Y109323D01*
X554391Y108264D01*
X556260Y107892D01*
X558129Y108264D01*
X559713Y109323D01*
X560772Y110907D01*
X561144Y112776D01*
X560772Y114645D01*
X559713Y116229D01*
X558129Y117288D01*
X556260Y117660D01*
D02*
G37*
G36*
X55880Y113598D02*
X53718Y113169D01*
X51886Y111944D01*
X50661Y110112D01*
X50231Y107950D01*
X50661Y105788D01*
X51886Y103956D01*
X53718Y102731D01*
X55880Y102302D01*
X58042Y102731D01*
X59874Y103956D01*
X61099Y105788D01*
X61529Y107950D01*
X61099Y110112D01*
X59874Y111944D01*
X58042Y113169D01*
X55880Y113598D01*
D02*
G37*
G36*
X71120Y104708D02*
X68958Y104279D01*
X67126Y103054D01*
X65901Y101222D01*
X65472Y99060D01*
X65901Y96898D01*
X67126Y95066D01*
X68958Y93841D01*
X71120Y93412D01*
X73282Y93841D01*
X75114Y95066D01*
X76339Y96898D01*
X76768Y99060D01*
X76339Y101222D01*
X75114Y103054D01*
X73282Y104279D01*
X71120Y104708D01*
D02*
G37*
G36*
X356870Y103439D02*
X354708Y103009D01*
X352876Y101784D01*
X351651Y99952D01*
X351222Y97790D01*
X351651Y95628D01*
X352876Y93796D01*
X354708Y92571D01*
X356870Y92142D01*
X359032Y92571D01*
X360864Y93796D01*
X362089Y95628D01*
X362519Y97790D01*
X362089Y99952D01*
X360864Y101784D01*
X359032Y103009D01*
X356870Y103439D01*
D02*
G37*
G36*
X254000Y102169D02*
X251838Y101739D01*
X250006Y100514D01*
X248781Y98682D01*
X248351Y96520D01*
X248781Y94358D01*
X250006Y92526D01*
X251838Y91301D01*
X254000Y90871D01*
X256162Y91301D01*
X257994Y92526D01*
X259219Y94358D01*
X259648Y96520D01*
X259219Y98682D01*
X257994Y100514D01*
X256162Y101739D01*
X254000Y102169D01*
D02*
G37*
G36*
X728980Y98864D02*
X727111Y98492D01*
X725527Y97433D01*
X724468Y95849D01*
X724096Y93980D01*
X724468Y92111D01*
X725527Y90527D01*
X727111Y89468D01*
X728980Y89096D01*
X730849Y89468D01*
X732433Y90527D01*
X733492Y92111D01*
X733864Y93980D01*
X733492Y95849D01*
X732433Y97433D01*
X730849Y98492D01*
X728980Y98864D01*
D02*
G37*
G36*
X487680Y96324D02*
X485811Y95952D01*
X484227Y94893D01*
X483168Y93309D01*
X482796Y91440D01*
X483168Y89571D01*
X484227Y87987D01*
X485811Y86928D01*
X487680Y86556D01*
X489549Y86928D01*
X491133Y87987D01*
X492192Y89571D01*
X492564Y91440D01*
X492192Y93309D01*
X491133Y94893D01*
X489549Y95952D01*
X487680Y96324D01*
D02*
G37*
G36*
X41910Y97088D02*
X39748Y96659D01*
X37916Y95434D01*
X36691Y93602D01*
X36261Y91440D01*
X36691Y89278D01*
X37916Y87446D01*
X39748Y86221D01*
X41910Y85792D01*
X44072Y86221D01*
X45904Y87446D01*
X47129Y89278D01*
X47558Y91440D01*
X47129Y93602D01*
X45904Y95434D01*
X44072Y96659D01*
X41910Y97088D01*
D02*
G37*
G36*
X434340Y118956D02*
X430954Y118622D01*
X427698Y117634D01*
X424698Y116031D01*
X422068Y113872D01*
X419909Y111242D01*
X418306Y108242D01*
X417318Y104986D01*
X416984Y101600D01*
X417318Y98214D01*
X418306Y94958D01*
X419909Y91958D01*
X422068Y89328D01*
X424698Y87169D01*
X427698Y85566D01*
X430954Y84578D01*
X434340Y84244D01*
X437726Y84578D01*
X440982Y85566D01*
X443982Y87169D01*
X446612Y89328D01*
X448771Y91958D01*
X450374Y94958D01*
X451362Y98214D01*
X451696Y101600D01*
X451362Y104986D01*
X450374Y108242D01*
X448771Y111242D01*
X446612Y113872D01*
X443982Y116031D01*
X440982Y117634D01*
X437726Y118622D01*
X434340Y118956D01*
D02*
G37*
G36*
X135890Y84389D02*
X133728Y83959D01*
X131896Y82734D01*
X130671Y80902D01*
X130241Y78740D01*
X130671Y76578D01*
X131896Y74746D01*
X133728Y73521D01*
X135890Y73092D01*
X138052Y73521D01*
X139884Y74746D01*
X141109Y76578D01*
X141538Y78740D01*
X141109Y80902D01*
X139884Y82734D01*
X138052Y83959D01*
X135890Y84389D01*
D02*
G37*
G36*
X49465Y78849D02*
X47304Y78419D01*
X45471Y77194D01*
X44247Y75362D01*
X43817Y73200D01*
X43299Y72682D01*
X41910Y72958D01*
X39748Y72529D01*
X37916Y71304D01*
X36691Y69472D01*
X36261Y67310D01*
X36691Y65148D01*
X37916Y63316D01*
X39748Y62091D01*
X41910Y61662D01*
X44072Y62091D01*
X45904Y63316D01*
X47129Y65148D01*
X47558Y67310D01*
X48076Y67828D01*
X49465Y67551D01*
X51627Y67981D01*
X53460Y69206D01*
X54684Y71038D01*
X55114Y73200D01*
X54684Y75362D01*
X53460Y77194D01*
X51627Y78419D01*
X49465Y78849D01*
D02*
G37*
G36*
X313690Y76768D02*
X311528Y76339D01*
X309696Y75114D01*
X308471Y73282D01*
X308041Y71120D01*
X308471Y68958D01*
X309696Y67126D01*
X311528Y65901D01*
X313690Y65472D01*
X315852Y65901D01*
X317684Y67126D01*
X318909Y68958D01*
X319338Y71120D01*
X318909Y73282D01*
X317684Y75114D01*
X315852Y76339D01*
X313690Y76768D01*
D02*
G37*
G36*
X354330Y71688D02*
X352168Y71259D01*
X350336Y70034D01*
X349111Y68202D01*
X348681Y66040D01*
X349111Y63878D01*
X350336Y62046D01*
X352168Y60821D01*
X354330Y60392D01*
X356492Y60821D01*
X358324Y62046D01*
X359549Y63878D01*
X359978Y66040D01*
X359549Y68202D01*
X358324Y70034D01*
X356492Y71259D01*
X354330Y71688D01*
D02*
G37*
G36*
X254000Y67988D02*
X251838Y67558D01*
X250006Y66333D01*
X248781Y64501D01*
X248351Y62339D01*
X248781Y60178D01*
X250006Y58345D01*
X251838Y57121D01*
X254000Y56691D01*
X256161Y57121D01*
X257994Y58345D01*
X259219Y60178D01*
X259648Y62339D01*
X259219Y64501D01*
X257994Y66333D01*
X256161Y67558D01*
X254000Y67988D01*
D02*
G37*
G36*
X332740Y64068D02*
X330578Y63639D01*
X328746Y62414D01*
X327521Y60582D01*
X327091Y58420D01*
X327521Y56258D01*
X328746Y54426D01*
X330578Y53201D01*
X332740Y52772D01*
X334902Y53201D01*
X336734Y54426D01*
X337959Y56258D01*
X338388Y58420D01*
X337959Y60582D01*
X336734Y62414D01*
X334902Y63639D01*
X332740Y64068D01*
D02*
G37*
G36*
X128408Y58618D02*
X126246Y58188D01*
X124413Y56964D01*
X123189Y55131D01*
X122759Y52970D01*
X123189Y50808D01*
X124413Y48976D01*
X126246Y47751D01*
X128408Y47321D01*
X130569Y47751D01*
X132402Y48976D01*
X133626Y50808D01*
X134056Y52970D01*
X133626Y55131D01*
X132402Y56964D01*
X130569Y58188D01*
X128408Y58618D01*
D02*
G37*
G36*
X822960Y55684D02*
X821091Y55312D01*
X819507Y54253D01*
X818448Y52669D01*
X818076Y50800D01*
X818448Y48931D01*
X819507Y47347D01*
X821091Y46288D01*
X822960Y45916D01*
X824829Y46288D01*
X826413Y47347D01*
X827472Y48931D01*
X827844Y50800D01*
X827472Y52669D01*
X826413Y54253D01*
X824829Y55312D01*
X822960Y55684D01*
D02*
G37*
G36*
X541020Y78316D02*
X537634Y77982D01*
X534378Y76995D01*
X531378Y75391D01*
X528748Y73232D01*
X526589Y70602D01*
X524986Y67602D01*
X523998Y64346D01*
X523664Y60960D01*
X523998Y57574D01*
X524986Y54318D01*
X526589Y51318D01*
X528748Y48688D01*
X531378Y46529D01*
X534378Y44925D01*
X537634Y43938D01*
X541020Y43604D01*
X544406Y43938D01*
X547662Y44925D01*
X550662Y46529D01*
X553292Y48688D01*
X555451Y51318D01*
X557054Y54318D01*
X558042Y57574D01*
X558376Y60960D01*
X558042Y64346D01*
X557054Y67602D01*
X555451Y70602D01*
X553292Y73232D01*
X550662Y75391D01*
X547662Y76995D01*
X544406Y77982D01*
X541020Y78316D01*
D02*
G37*
G36*
X112014Y50606D02*
X109852Y50177D01*
X108020Y48952D01*
X106795Y47120D01*
X106365Y44958D01*
X106795Y42796D01*
X108020Y40964D01*
X109852Y39739D01*
X112014Y39309D01*
X114176Y39739D01*
X116008Y40964D01*
X117233Y42796D01*
X117662Y44958D01*
X117233Y47120D01*
X116008Y48952D01*
X114176Y50177D01*
X112014Y50606D01*
D02*
G37*
G36*
X41910Y50099D02*
X39748Y49669D01*
X37916Y48444D01*
X36691Y46612D01*
X36261Y44450D01*
X36691Y42288D01*
X37916Y40456D01*
X39748Y39231D01*
X41910Y38802D01*
X44072Y39231D01*
X45904Y40456D01*
X47129Y42288D01*
X47558Y44450D01*
X47129Y46612D01*
X45904Y48444D01*
X44072Y49669D01*
X41910Y50099D01*
D02*
G37*
G36*
X734060Y53144D02*
X732191Y52772D01*
X730607Y51713D01*
X729548Y50129D01*
X729176Y48260D01*
X729548Y46391D01*
X730607Y44807D01*
X730721Y44730D01*
X730453Y43382D01*
X730413Y43374D01*
X728829Y42315D01*
X727770Y40731D01*
X727398Y38862D01*
X727770Y36993D01*
X728829Y35409D01*
X730413Y34350D01*
X732282Y33978D01*
X734151Y34350D01*
X735735Y35409D01*
X736794Y36993D01*
X737166Y38862D01*
X736794Y40731D01*
X735735Y42315D01*
X735621Y42392D01*
X735889Y43740D01*
X735929Y43748D01*
X737513Y44807D01*
X738572Y46391D01*
X738944Y48260D01*
X738572Y50129D01*
X737513Y51713D01*
X735929Y52772D01*
X734060Y53144D01*
D02*
G37*
G36*
X88392Y34771D02*
X86230Y34341D01*
X84398Y33116D01*
X83173Y31284D01*
X82744Y29122D01*
X83173Y26960D01*
X84398Y25128D01*
X86230Y23904D01*
X88392Y23473D01*
X90554Y23904D01*
X92386Y25128D01*
X93611Y26960D01*
X94040Y29122D01*
X93611Y31284D01*
X92386Y33116D01*
X90554Y34341D01*
X88392Y34771D01*
D02*
G37*
G36*
X51263Y26771D02*
X49102Y26341D01*
X47269Y25116D01*
X46045Y23284D01*
X44915Y23705D01*
X44072Y24269D01*
X41910Y24699D01*
X39748Y24269D01*
X37916Y23044D01*
X36691Y21212D01*
X36261Y19050D01*
X36691Y16888D01*
X37916Y15056D01*
X39748Y13831D01*
X41910Y13401D01*
X44072Y13831D01*
X45904Y15056D01*
X47129Y16888D01*
X48258Y16467D01*
X49102Y15903D01*
X51263Y15474D01*
X53425Y15903D01*
X55257Y17128D01*
X56482Y18960D01*
X56912Y21122D01*
X56482Y23284D01*
X55257Y25116D01*
X53425Y26341D01*
X51263Y26771D01*
D02*
G37*
G36*
X695960Y32824D02*
X694091Y32452D01*
X692507Y31393D01*
X691448Y29809D01*
X691076Y27940D01*
X691448Y26071D01*
X692507Y24487D01*
X694091Y23428D01*
X695960Y23056D01*
X697829Y23428D01*
X699413Y24487D01*
X700472Y26071D01*
X700844Y27940D01*
X700472Y29809D01*
X699413Y31393D01*
X697829Y32452D01*
X695960Y32824D01*
D02*
G37*
G36*
X576580Y55456D02*
X573194Y55122D01*
X569938Y54134D01*
X566938Y52531D01*
X564308Y50372D01*
X562149Y47742D01*
X560546Y44742D01*
X559558Y41486D01*
X559224Y38100D01*
X559558Y34714D01*
X560546Y31458D01*
X562149Y28458D01*
X564308Y25828D01*
X566938Y23669D01*
X569938Y22065D01*
X573194Y21078D01*
X576580Y20744D01*
X579966Y21078D01*
X583222Y22065D01*
X586222Y23669D01*
X588852Y25828D01*
X591011Y28458D01*
X592615Y31458D01*
X593602Y34714D01*
X593936Y38100D01*
X593602Y41486D01*
X592615Y44742D01*
X591011Y47742D01*
X588852Y50372D01*
X586222Y52531D01*
X583222Y54134D01*
X579966Y55122D01*
X576580Y55456D01*
D02*
G37*
G36*
X332740Y27239D02*
X330578Y26809D01*
X328746Y25584D01*
X327521Y23752D01*
X327091Y21590D01*
X327521Y19428D01*
X328746Y17596D01*
X330578Y16371D01*
X332740Y15941D01*
X334902Y16371D01*
X336734Y17596D01*
X337959Y19428D01*
X338388Y21590D01*
X337959Y23752D01*
X336734Y25584D01*
X334902Y26809D01*
X332740Y27239D01*
D02*
G37*
G36*
X260960D02*
X258798Y26809D01*
X256966Y25584D01*
X255741Y23752D01*
X255311Y21590D01*
X255741Y19428D01*
X256966Y17596D01*
X258798Y16371D01*
X260960Y15941D01*
X263121Y16371D01*
X264954Y17596D01*
X266178Y19428D01*
X266608Y21590D01*
X266178Y23752D01*
X264954Y25584D01*
X263121Y26809D01*
X260960Y27239D01*
D02*
G37*
G36*
X490220Y45296D02*
X486834Y44962D01*
X483578Y43974D01*
X480578Y42371D01*
X477948Y40212D01*
X475789Y37582D01*
X474185Y34582D01*
X473198Y31326D01*
X472864Y27940D01*
X473198Y24554D01*
X474185Y21298D01*
X475789Y18298D01*
X477948Y15668D01*
X480578Y13509D01*
X483578Y11905D01*
X486834Y10918D01*
X490220Y10584D01*
X493606Y10918D01*
X496862Y11905D01*
X499862Y13509D01*
X502492Y15668D01*
X504651Y18298D01*
X506255Y21298D01*
X507242Y24554D01*
X507576Y27940D01*
X507242Y31326D01*
X506255Y34582D01*
X504651Y37582D01*
X502492Y40212D01*
X499862Y42371D01*
X496862Y43974D01*
X493606Y44962D01*
X490220Y45296D01*
D02*
G37*
G36*
X356870Y20889D02*
X354708Y20459D01*
X352876Y19234D01*
X351651Y17402D01*
X351222Y15240D01*
X351651Y13078D01*
X352876Y11246D01*
X354708Y10021D01*
X356870Y9592D01*
X359032Y10021D01*
X360864Y11246D01*
X362089Y13078D01*
X362519Y15240D01*
X362089Y17402D01*
X360864Y19234D01*
X359032Y20459D01*
X356870Y20889D01*
D02*
G37*
G36*
X828040Y12504D02*
X826171Y12132D01*
X824587Y11073D01*
X823528Y9489D01*
X823156Y7620D01*
X823528Y5751D01*
X824587Y4167D01*
X826171Y3108D01*
X828040Y2736D01*
X829909Y3108D01*
X831493Y4167D01*
X832552Y5751D01*
X832924Y7620D01*
X832552Y9489D01*
X831493Y11073D01*
X829909Y12132D01*
X828040Y12504D01*
D02*
G37*
G36*
X732282Y8440D02*
X730413Y8068D01*
X728829Y7009D01*
X727770Y5425D01*
X727398Y3556D01*
X727770Y1687D01*
X728829Y103D01*
X730413Y-956D01*
X732282Y-1328D01*
X734151Y-956D01*
X735735Y103D01*
X736794Y1687D01*
X737166Y3556D01*
X736794Y5425D01*
X735735Y7009D01*
X734151Y8068D01*
X732282Y8440D01*
D02*
G37*
G36*
X612140Y32596D02*
X608754Y32262D01*
X605498Y31274D01*
X602498Y29671D01*
X599868Y27512D01*
X597709Y24882D01*
X596105Y21882D01*
X595118Y18626D01*
X594784Y15240D01*
X595118Y11854D01*
X596105Y8598D01*
X597709Y5598D01*
X599868Y2968D01*
X602498Y809D01*
X605498Y-794D01*
X608754Y-1782D01*
X612140Y-2116D01*
X615526Y-1782D01*
X618782Y-794D01*
X621782Y809D01*
X624412Y2968D01*
X626571Y5598D01*
X628175Y8598D01*
X629162Y11854D01*
X629496Y15240D01*
X629162Y18626D01*
X628175Y21882D01*
X626571Y24882D01*
X624412Y27512D01*
X621782Y29671D01*
X618782Y31274D01*
X615526Y32262D01*
X612140Y32596D01*
D02*
G37*
G36*
X701040Y4884D02*
X699171Y4512D01*
X697587Y3453D01*
X696528Y1869D01*
X696156Y0D01*
X696528Y-1869D01*
X697587Y-3453D01*
X699171Y-4512D01*
X701040Y-4884D01*
X702909Y-4512D01*
X704493Y-3453D01*
X705552Y-1869D01*
X705924Y0D01*
X705552Y1869D01*
X704493Y3453D01*
X702909Y4512D01*
X701040Y4884D01*
D02*
G37*
G36*
X254000Y1839D02*
X251838Y1409D01*
X250006Y184D01*
X248781Y-1648D01*
X248351Y-3810D01*
X248781Y-5972D01*
X250006Y-7804D01*
X251838Y-9029D01*
X254000Y-9459D01*
X256162Y-9029D01*
X257994Y-7804D01*
X259219Y-5972D01*
X259648Y-3810D01*
X259219Y-1648D01*
X257994Y184D01*
X256162Y1409D01*
X254000Y1839D01*
D02*
G37*
G36*
X313690Y-5781D02*
X311528Y-6211D01*
X309696Y-7436D01*
X308471Y-9268D01*
X308041Y-11430D01*
X308471Y-13592D01*
X309696Y-15424D01*
X311528Y-16649D01*
X313690Y-17078D01*
X315852Y-16649D01*
X317684Y-15424D01*
X318909Y-13592D01*
X319338Y-11430D01*
X318909Y-9268D01*
X317684Y-7436D01*
X315852Y-6211D01*
X313690Y-5781D01*
D02*
G37*
G36*
X355600Y-9592D02*
X353438Y-10021D01*
X351606Y-11246D01*
X350381Y-13078D01*
X349952Y-15240D01*
X350381Y-17402D01*
X351606Y-19234D01*
X353438Y-20459D01*
X355600Y-20889D01*
X357762Y-20459D01*
X359594Y-19234D01*
X360819Y-17402D01*
X361249Y-15240D01*
X360819Y-13078D01*
X359594Y-11246D01*
X357762Y-10021D01*
X355600Y-9592D01*
D02*
G37*
G36*
X254000Y-14671D02*
X251838Y-15101D01*
X250006Y-16326D01*
X248781Y-18158D01*
X248351Y-20320D01*
X248781Y-22482D01*
X250006Y-24314D01*
X251838Y-25539D01*
X254000Y-25968D01*
X256162Y-25539D01*
X257994Y-24314D01*
X259219Y-22482D01*
X259648Y-20320D01*
X259219Y-18158D01*
X257994Y-16326D01*
X256162Y-15101D01*
X254000Y-14671D01*
D02*
G37*
G36*
X357378Y-34740D02*
X355509Y-35112D01*
X353925Y-36171D01*
X352866Y-37755D01*
X352494Y-39624D01*
X352866Y-41493D01*
X353925Y-43077D01*
X355509Y-44136D01*
X357378Y-44508D01*
X359247Y-44136D01*
X360831Y-43077D01*
X361890Y-41493D01*
X362262Y-39624D01*
X361890Y-37755D01*
X360831Y-36171D01*
X359247Y-35112D01*
X357378Y-34740D01*
D02*
G37*
G36*
X89408Y-33468D02*
X87246Y-33897D01*
X85414Y-35122D01*
X84189Y-36954D01*
X83759Y-39116D01*
X84189Y-41278D01*
X85414Y-43110D01*
X87246Y-44335D01*
X89408Y-44764D01*
X91570Y-44335D01*
X93402Y-43110D01*
X94627Y-41278D01*
X95056Y-39116D01*
X94627Y-36954D01*
X93402Y-35122D01*
X91570Y-33897D01*
X89408Y-33468D01*
D02*
G37*
G36*
X114300Y-34483D02*
X112138Y-34913D01*
X110306Y-36138D01*
X109081Y-37970D01*
X108652Y-40132D01*
X109081Y-42294D01*
X110306Y-44126D01*
X112138Y-45351D01*
X114300Y-45781D01*
X116462Y-45351D01*
X118294Y-44126D01*
X119519Y-42294D01*
X119949Y-40132D01*
X119519Y-37970D01*
X118294Y-36138D01*
X116462Y-34913D01*
X114300Y-34483D01*
D02*
G37*
G36*
X535940Y17356D02*
X532554Y17022D01*
X529298Y16034D01*
X526298Y14431D01*
X523668Y12272D01*
X521509Y9642D01*
X519906Y6642D01*
X518918Y3386D01*
X518584Y0D01*
X518918Y-3386D01*
X519906Y-6642D01*
X521509Y-9642D01*
X523668Y-12272D01*
X526298Y-14431D01*
X529298Y-16034D01*
X529514Y-16100D01*
Y-17370D01*
X529100Y-17496D01*
X526100Y-19099D01*
X523470Y-21258D01*
X521311Y-23888D01*
X519708Y-26888D01*
X518720Y-30144D01*
X518387Y-33530D01*
X518720Y-36916D01*
X519708Y-40172D01*
X521311Y-43172D01*
X523470Y-45802D01*
X526100Y-47961D01*
X529100Y-49564D01*
X532356Y-50552D01*
X535742Y-50886D01*
X539128Y-50552D01*
X542384Y-49564D01*
X545384Y-47961D01*
X548014Y-45802D01*
X550173Y-43172D01*
X551777Y-40172D01*
X552764Y-36916D01*
X553098Y-33530D01*
X552764Y-30144D01*
X551777Y-26888D01*
X550173Y-23888D01*
X548014Y-21258D01*
X545384Y-19099D01*
X542384Y-17496D01*
X542168Y-17430D01*
Y-16160D01*
X542582Y-16034D01*
X545582Y-14431D01*
X548212Y-12272D01*
X550371Y-9642D01*
X551974Y-6642D01*
X552962Y-3386D01*
X553296Y0D01*
X552962Y3386D01*
X551974Y6642D01*
X550371Y9642D01*
X548212Y12272D01*
X545582Y14431D01*
X542582Y16034D01*
X539326Y17022D01*
X535940Y17356D01*
D02*
G37*
G36*
X52070Y-49724D02*
X49908Y-50153D01*
X48076Y-51378D01*
X46851Y-53210D01*
X46572Y-54615D01*
X45195Y-55222D01*
X44072Y-54471D01*
X41910Y-54042D01*
X39748Y-54471D01*
X37916Y-55696D01*
X36691Y-57528D01*
X36261Y-59690D01*
X36691Y-61852D01*
X37916Y-63684D01*
X39748Y-64909D01*
X41910Y-65339D01*
X44072Y-64909D01*
X45904Y-63684D01*
X47129Y-61852D01*
X47408Y-60447D01*
X48785Y-59840D01*
X49908Y-60591D01*
X52070Y-61020D01*
X54232Y-60591D01*
X56064Y-59366D01*
X57289Y-57534D01*
X57719Y-55372D01*
X57289Y-53210D01*
X56064Y-51378D01*
X54232Y-50153D01*
X52070Y-49724D01*
D02*
G37*
G36*
X93726Y-52520D02*
X91857Y-52892D01*
X90273Y-53951D01*
X89214Y-55535D01*
X88842Y-57404D01*
X89214Y-59273D01*
X90273Y-60857D01*
X91857Y-61916D01*
X93726Y-62288D01*
X95595Y-61916D01*
X97179Y-60857D01*
X98238Y-59273D01*
X98610Y-57404D01*
X98238Y-55535D01*
X97179Y-53951D01*
X95595Y-52892D01*
X93726Y-52520D01*
D02*
G37*
G36*
X556062Y-56586D02*
X554193Y-56958D01*
X552609Y-58017D01*
X551550Y-59601D01*
X551178Y-61470D01*
X551550Y-63339D01*
X552609Y-64923D01*
X554193Y-65982D01*
X556062Y-66354D01*
X557931Y-65982D01*
X559515Y-64923D01*
X560574Y-63339D01*
X560946Y-61470D01*
X560574Y-59601D01*
X559515Y-58017D01*
X557931Y-56958D01*
X556062Y-56586D01*
D02*
G37*
G36*
X355600Y-62931D02*
X353438Y-63361D01*
X351606Y-64586D01*
X350381Y-66418D01*
X349952Y-68580D01*
X350381Y-70742D01*
X351606Y-72574D01*
X353438Y-73799D01*
X355600Y-74229D01*
X357762Y-73799D01*
X359594Y-72574D01*
X360819Y-70742D01*
X361249Y-68580D01*
X360819Y-66418D01*
X359594Y-64586D01*
X357762Y-63361D01*
X355600Y-62931D01*
D02*
G37*
G36*
X254000Y-64201D02*
X251838Y-64631D01*
X250006Y-65856D01*
X248781Y-67688D01*
X248351Y-69850D01*
X248781Y-72012D01*
X250006Y-73844D01*
X251838Y-75069D01*
X254000Y-75498D01*
X256162Y-75069D01*
X257994Y-73844D01*
X259219Y-72012D01*
X259648Y-69850D01*
X259219Y-67688D01*
X257994Y-65856D01*
X256162Y-64631D01*
X254000Y-64201D01*
D02*
G37*
G36*
X670362Y-58260D02*
X668493Y-58632D01*
X666909Y-59691D01*
X665850Y-61275D01*
X665478Y-63144D01*
X665850Y-65013D01*
X666909Y-66598D01*
X668161Y-67434D01*
Y-74002D01*
X663614Y-78548D01*
X662268Y-78278D01*
X662089Y-77381D01*
X661031Y-75797D01*
X659446Y-74738D01*
X657577Y-74366D01*
X655708Y-74738D01*
X654124Y-75797D01*
X653065Y-77381D01*
X652693Y-79250D01*
X653065Y-81119D01*
X654124Y-82703D01*
X655708Y-83762D01*
X657577Y-84134D01*
X659446Y-83762D01*
X661031Y-82703D01*
X661700Y-81702D01*
X662970Y-82087D01*
Y-101662D01*
X663137Y-102504D01*
X663614Y-103218D01*
X668300Y-107904D01*
X667491Y-108891D01*
X667151Y-108664D01*
X665282Y-108292D01*
X663413Y-108664D01*
X661829Y-109723D01*
X660770Y-111307D01*
X660398Y-113176D01*
X660770Y-115045D01*
X661829Y-116629D01*
X663413Y-117688D01*
X665282Y-118060D01*
X667151Y-117688D01*
X668736Y-116629D01*
X669794Y-115045D01*
X670166Y-113176D01*
X669794Y-111307D01*
X669196Y-110412D01*
X670111Y-109496D01*
X670164Y-109531D01*
X671006Y-109698D01*
X691958D01*
X692800Y-109531D01*
X693514Y-109054D01*
X696771Y-105798D01*
X698164Y-106375D01*
X700532Y-106686D01*
X702900Y-106375D01*
X705107Y-105460D01*
X706882Y-104099D01*
X708657Y-105460D01*
X710864Y-106375D01*
X713232Y-106686D01*
X715600Y-106375D01*
X717807Y-105460D01*
X719582Y-104099D01*
X721357Y-105460D01*
X723564Y-106375D01*
X725932Y-106686D01*
X728300Y-106375D01*
X730507Y-105460D01*
X732282Y-104099D01*
X734057Y-105460D01*
X736264Y-106375D01*
X738632Y-106686D01*
X741000Y-106375D01*
X743207Y-105460D01*
X744982Y-104099D01*
X746757Y-105460D01*
X748684Y-106259D01*
X748432Y-107529D01*
X746562D01*
X745720Y-107696D01*
X745006Y-108174D01*
X742959Y-110220D01*
X741482Y-109926D01*
X739613Y-110298D01*
X738029Y-111357D01*
X736970Y-112941D01*
X736598Y-114810D01*
X736970Y-116679D01*
X738029Y-118263D01*
X739613Y-119322D01*
X741482Y-119694D01*
X743351Y-119322D01*
X744936Y-118263D01*
X745994Y-116679D01*
X746366Y-114810D01*
X746072Y-113333D01*
X747474Y-111931D01*
X762833D01*
X763257Y-113201D01*
X762370Y-114529D01*
X761998Y-116397D01*
X762370Y-118266D01*
X763429Y-119851D01*
X765013Y-120910D01*
X766882Y-121281D01*
X768751Y-120910D01*
X770335Y-119851D01*
X771394Y-118266D01*
X771766Y-116397D01*
X771394Y-114529D01*
X770335Y-112944D01*
X769252Y-112220D01*
X769008Y-110846D01*
X769051Y-110674D01*
X775550Y-104176D01*
X776027Y-103462D01*
X776194Y-102619D01*
Y-80710D01*
X776027Y-79868D01*
X775550Y-79153D01*
X769715Y-73318D01*
X769000Y-72841D01*
X768158Y-72674D01*
X747206D01*
X746364Y-72841D01*
X745649Y-73318D01*
X742393Y-76575D01*
X741000Y-75998D01*
X738632Y-75686D01*
X736264Y-75998D01*
X734057Y-76912D01*
X732282Y-78274D01*
X730507Y-76912D01*
X728300Y-75998D01*
X725932Y-75686D01*
X723564Y-75998D01*
X721357Y-76912D01*
X719582Y-78274D01*
X717807Y-76912D01*
X715600Y-75998D01*
X713232Y-75686D01*
X710864Y-75998D01*
X708657Y-76912D01*
X706882Y-78274D01*
X705107Y-76912D01*
X702900Y-75998D01*
X700532Y-75686D01*
X698164Y-75998D01*
X695957Y-76912D01*
X694182Y-78274D01*
X692407Y-76912D01*
X690200Y-75998D01*
X687832Y-75686D01*
X685464Y-75998D01*
X683257Y-76912D01*
X681482Y-78274D01*
X679707Y-76912D01*
X677500Y-75998D01*
X675132Y-75686D01*
X673666Y-75879D01*
X672689Y-75024D01*
X672563Y-74758D01*
Y-67434D01*
X673816Y-66598D01*
X674874Y-65013D01*
X675246Y-63144D01*
X674874Y-61275D01*
X673816Y-59691D01*
X672231Y-58632D01*
X670362Y-58260D01*
D02*
G37*
G36*
X942400Y-70859D02*
X939217Y-71278D01*
X936251Y-72506D01*
X933705Y-74461D01*
X931750Y-77007D01*
X930522Y-79973D01*
X930340Y-81351D01*
X929060D01*
X928878Y-79973D01*
X927650Y-77007D01*
X925695Y-74461D01*
X923149Y-72506D01*
X920183Y-71278D01*
X917000Y-70859D01*
X913817Y-71278D01*
X910851Y-72506D01*
X908305Y-74461D01*
X906350Y-77007D01*
X905122Y-79973D01*
X904703Y-83156D01*
X905122Y-86339D01*
X906350Y-89305D01*
X908305Y-91851D01*
X910851Y-93806D01*
X913817Y-95034D01*
X915195Y-95216D01*
Y-96496D01*
X913817Y-96678D01*
X910851Y-97906D01*
X908305Y-99860D01*
X906350Y-102407D01*
X905122Y-105373D01*
X904703Y-108556D01*
X905122Y-111739D01*
X906350Y-114705D01*
X908305Y-117251D01*
X910851Y-119206D01*
X913817Y-120434D01*
X917000Y-120853D01*
X920183Y-120434D01*
X923149Y-119206D01*
X925695Y-117251D01*
X927650Y-114705D01*
X928878Y-111739D01*
X929060Y-110361D01*
X930340D01*
X930522Y-111739D01*
X931750Y-114705D01*
X933705Y-117251D01*
X936251Y-119206D01*
X939217Y-120434D01*
X942400Y-120853D01*
X945583Y-120434D01*
X948549Y-119206D01*
X951095Y-117251D01*
X953050Y-114705D01*
X954278Y-111739D01*
X954697Y-108556D01*
X954278Y-105373D01*
X953050Y-102407D01*
X951095Y-99860D01*
X948549Y-97906D01*
X945583Y-96678D01*
X944205Y-96496D01*
Y-95216D01*
X945583Y-95034D01*
X948549Y-93806D01*
X951095Y-91851D01*
X953050Y-89305D01*
X954278Y-86339D01*
X954697Y-83156D01*
X954278Y-79973D01*
X953050Y-77007D01*
X951095Y-74461D01*
X948549Y-72506D01*
X945583Y-71278D01*
X942400Y-70859D01*
D02*
G37*
G36*
X555554Y-73096D02*
X553685Y-73468D01*
X552101Y-74527D01*
X551042Y-76111D01*
X550670Y-77980D01*
X551042Y-79849D01*
X552101Y-81433D01*
X553685Y-82492D01*
X555554Y-82864D01*
X557423Y-82492D01*
X559007Y-81433D01*
X560066Y-79849D01*
X560438Y-77980D01*
X560066Y-76111D01*
X559007Y-74527D01*
X557423Y-73468D01*
X555554Y-73096D01*
D02*
G37*
G36*
X519232Y-69794D02*
X517363Y-70166D01*
X515779Y-71225D01*
X514720Y-72809D01*
X514348Y-74678D01*
X514720Y-76547D01*
X515779Y-78131D01*
X517363Y-79190D01*
X519232Y-79562D01*
X520296Y-79350D01*
X521379Y-80416D01*
X521206Y-81282D01*
X521488Y-82698D01*
X520978Y-83228D01*
X520469Y-83603D01*
X518724Y-83256D01*
X516855Y-83628D01*
X515271Y-84687D01*
X514212Y-86271D01*
X513840Y-88140D01*
X514212Y-90009D01*
X515271Y-91593D01*
X516855Y-92652D01*
X518724Y-93024D01*
X520593Y-92652D01*
X522178Y-91593D01*
X523236Y-90009D01*
X523608Y-88140D01*
X523326Y-86724D01*
X523836Y-86194D01*
X524345Y-85819D01*
X526090Y-86166D01*
X527959Y-85794D01*
X529543Y-84735D01*
X530602Y-83151D01*
X530974Y-81282D01*
X530602Y-79413D01*
X529543Y-77829D01*
X527959Y-76770D01*
X526090Y-76398D01*
X525027Y-76610D01*
X523944Y-75544D01*
X524116Y-74678D01*
X523744Y-72809D01*
X522686Y-71225D01*
X521101Y-70166D01*
X519232Y-69794D01*
D02*
G37*
G36*
X457002Y-54275D02*
X453616Y-54608D01*
X450360Y-55596D01*
X447360Y-57199D01*
X444730Y-59358D01*
X442571Y-61988D01*
X440968Y-64988D01*
X439980Y-68244D01*
X439647Y-71630D01*
X439980Y-75016D01*
X440968Y-78272D01*
X442571Y-81272D01*
X444730Y-83902D01*
X447360Y-86061D01*
X450360Y-87664D01*
X453616Y-88652D01*
X457002Y-88986D01*
X460388Y-88652D01*
X463644Y-87664D01*
X466644Y-86061D01*
X469274Y-83902D01*
X471433Y-81272D01*
X473037Y-78272D01*
X474024Y-75016D01*
X474358Y-71630D01*
X474024Y-68244D01*
X473037Y-64988D01*
X471433Y-61988D01*
X469274Y-59358D01*
X466644Y-57199D01*
X463644Y-55596D01*
X460388Y-54608D01*
X457002Y-54275D01*
D02*
G37*
G36*
X41910Y-78172D02*
X39748Y-78601D01*
X37916Y-79826D01*
X36691Y-81658D01*
X36261Y-83820D01*
X36691Y-85982D01*
X37916Y-87814D01*
X39748Y-89039D01*
X41910Y-89468D01*
X44072Y-89039D01*
X45904Y-87814D01*
X47129Y-85982D01*
X47558Y-83820D01*
X47129Y-81658D01*
X45904Y-79826D01*
X44072Y-78601D01*
X41910Y-78172D01*
D02*
G37*
G36*
X556062Y-91130D02*
X554193Y-91502D01*
X552609Y-92561D01*
X551550Y-94145D01*
X551178Y-96014D01*
X551550Y-97883D01*
X552609Y-99467D01*
X554193Y-100526D01*
X556062Y-100898D01*
X557931Y-100526D01*
X559515Y-99467D01*
X560574Y-97883D01*
X560946Y-96014D01*
X560574Y-94145D01*
X559515Y-92561D01*
X557931Y-91502D01*
X556062Y-91130D01*
D02*
G37*
G36*
X313690Y-89601D02*
X311528Y-90031D01*
X309696Y-91256D01*
X308471Y-93088D01*
X308041Y-95250D01*
X308471Y-97412D01*
X309696Y-99244D01*
X311528Y-100469D01*
X313690Y-100899D01*
X315852Y-100469D01*
X317684Y-99244D01*
X318909Y-97412D01*
X319338Y-95250D01*
X318909Y-93088D01*
X317684Y-91256D01*
X315852Y-90031D01*
X313690Y-89601D01*
D02*
G37*
G36*
X49625Y-92780D02*
X47463Y-93210D01*
X45631Y-94434D01*
X44406Y-96267D01*
X43976Y-98428D01*
X44406Y-100590D01*
X45418Y-102104D01*
X44502Y-103019D01*
X44072Y-102731D01*
X41910Y-102302D01*
X39748Y-102731D01*
X37916Y-103956D01*
X36691Y-105788D01*
X36261Y-107950D01*
X36691Y-110112D01*
X37916Y-111944D01*
X39748Y-113169D01*
X41910Y-113598D01*
X44072Y-113169D01*
X45904Y-111944D01*
X47129Y-110112D01*
X47558Y-107950D01*
X47129Y-105788D01*
X46117Y-104275D01*
X47033Y-103359D01*
X47463Y-103647D01*
X49625Y-104077D01*
X51787Y-103647D01*
X53619Y-102422D01*
X54844Y-100590D01*
X55274Y-98428D01*
X54844Y-96267D01*
X53619Y-94434D01*
X51787Y-93210D01*
X49625Y-92780D01*
D02*
G37*
G36*
X355600Y-94682D02*
X353438Y-95111D01*
X351606Y-96336D01*
X350381Y-98168D01*
X349952Y-100330D01*
X350381Y-102492D01*
X351606Y-104324D01*
X353438Y-105549D01*
X355600Y-105978D01*
X357762Y-105549D01*
X359594Y-104324D01*
X360819Y-102492D01*
X361249Y-100330D01*
X360819Y-98168D01*
X359594Y-96336D01*
X357762Y-95111D01*
X355600Y-94682D01*
D02*
G37*
G36*
X254000Y-97851D02*
X251838Y-98281D01*
X250006Y-99506D01*
X248781Y-101338D01*
X248351Y-103500D01*
X248781Y-105662D01*
X250006Y-107494D01*
X251838Y-108719D01*
X254000Y-109149D01*
X256161Y-108719D01*
X257994Y-107494D01*
X259219Y-105662D01*
X259648Y-103500D01*
X259219Y-101338D01*
X257994Y-99506D01*
X256161Y-98281D01*
X254000Y-97851D01*
D02*
G37*
G36*
X332740Y-99761D02*
X330578Y-100191D01*
X328746Y-101416D01*
X327521Y-103248D01*
X327091Y-105410D01*
X327521Y-107572D01*
X328746Y-109404D01*
X330578Y-110629D01*
X332740Y-111059D01*
X334902Y-110629D01*
X336734Y-109404D01*
X337959Y-107572D01*
X338388Y-105410D01*
X337959Y-103248D01*
X336734Y-101416D01*
X334902Y-100191D01*
X332740Y-99761D01*
D02*
G37*
G36*
X728782Y-109926D02*
X726913Y-110298D01*
X725329Y-111357D01*
X724270Y-112941D01*
X723898Y-114810D01*
X724270Y-116679D01*
X725329Y-118263D01*
X726913Y-119322D01*
X728782Y-119694D01*
X730651Y-119322D01*
X732235Y-118263D01*
X733294Y-116679D01*
X733666Y-114810D01*
X733294Y-112941D01*
X732235Y-111357D01*
X730651Y-110298D01*
X728782Y-109926D01*
D02*
G37*
G36*
X487482Y-112466D02*
X485613Y-112838D01*
X484029Y-113897D01*
X482970Y-115481D01*
X482598Y-117350D01*
X482970Y-119219D01*
X484029Y-120803D01*
X485613Y-121862D01*
X487482Y-122234D01*
X489351Y-121862D01*
X490936Y-120803D01*
X491994Y-119219D01*
X492366Y-117350D01*
X491994Y-115481D01*
X490936Y-113897D01*
X489351Y-112838D01*
X487482Y-112466D01*
D02*
G37*
G36*
X434142Y-89834D02*
X430756Y-90168D01*
X427500Y-91156D01*
X424500Y-92759D01*
X421870Y-94918D01*
X419711Y-97548D01*
X418108Y-100548D01*
X417120Y-103804D01*
X416787Y-107190D01*
X417120Y-110576D01*
X418108Y-113832D01*
X419711Y-116832D01*
X421870Y-119462D01*
X424500Y-121621D01*
X427500Y-123224D01*
X430756Y-124212D01*
X434142Y-124546D01*
X437528Y-124212D01*
X440784Y-123224D01*
X443784Y-121621D01*
X446414Y-119462D01*
X448573Y-116832D01*
X450177Y-113832D01*
X451164Y-110576D01*
X451498Y-107190D01*
X451164Y-103804D01*
X450177Y-100548D01*
X448573Y-97548D01*
X446414Y-94918D01*
X443784Y-92759D01*
X440784Y-91156D01*
X437528Y-90168D01*
X434142Y-89834D01*
D02*
G37*
G36*
X41910Y-126432D02*
X39748Y-126861D01*
X37916Y-128086D01*
X36691Y-129918D01*
X36261Y-132080D01*
X36691Y-134242D01*
X37916Y-136074D01*
X39748Y-137299D01*
X41910Y-137729D01*
X44072Y-137299D01*
X45904Y-136074D01*
X47129Y-134242D01*
X47558Y-132080D01*
X47129Y-129918D01*
X45904Y-128086D01*
X44072Y-126861D01*
X41910Y-126432D01*
D02*
G37*
G36*
X332740Y-144212D02*
X330578Y-144641D01*
X328746Y-145866D01*
X327521Y-147698D01*
X327091Y-149860D01*
X327521Y-152022D01*
X328746Y-153854D01*
X330578Y-155079D01*
X332740Y-155508D01*
X334902Y-155079D01*
X336734Y-153854D01*
X337959Y-152022D01*
X338388Y-149860D01*
X337959Y-147698D01*
X336734Y-145866D01*
X334902Y-144641D01*
X332740Y-144212D01*
D02*
G37*
G36*
X260960D02*
X258798Y-144641D01*
X256966Y-145866D01*
X255741Y-147698D01*
X255311Y-149860D01*
X255741Y-152022D01*
X256966Y-153854D01*
X258798Y-155079D01*
X260960Y-155508D01*
X263121Y-155079D01*
X264954Y-153854D01*
X266178Y-152022D01*
X266608Y-149860D01*
X266178Y-147698D01*
X264954Y-145866D01*
X263121Y-144641D01*
X260960Y-144212D01*
D02*
G37*
G36*
X355600Y-145482D02*
X353438Y-145911D01*
X351606Y-147136D01*
X350381Y-148968D01*
X349952Y-151130D01*
X350381Y-153292D01*
X351606Y-155124D01*
X353438Y-156349D01*
X355600Y-156778D01*
X357762Y-156349D01*
X359594Y-155124D01*
X360819Y-153292D01*
X361249Y-151130D01*
X360819Y-148968D01*
X359594Y-147136D01*
X357762Y-145911D01*
X355600Y-145482D01*
D02*
G37*
G36*
X41910Y-150562D02*
X39748Y-150991D01*
X37916Y-152216D01*
X36691Y-154048D01*
X36261Y-156210D01*
X36691Y-158372D01*
X37916Y-160204D01*
X39748Y-161429D01*
X41910Y-161859D01*
X44072Y-161429D01*
X45904Y-160204D01*
X47129Y-158372D01*
X47558Y-156210D01*
X47129Y-154048D01*
X45904Y-152216D01*
X44072Y-150991D01*
X41910Y-150562D01*
D02*
G37*
G36*
X822762Y-153106D02*
X820893Y-153478D01*
X819309Y-154537D01*
X818250Y-156121D01*
X817878Y-157990D01*
X818250Y-159859D01*
X819309Y-161443D01*
X820893Y-162502D01*
X822762Y-162874D01*
X824631Y-162502D01*
X826216Y-161443D01*
X827274Y-159859D01*
X827646Y-157990D01*
X827274Y-156121D01*
X826216Y-154537D01*
X824631Y-153478D01*
X822762Y-153106D01*
D02*
G37*
G36*
X540822Y-130475D02*
X537436Y-130808D01*
X534180Y-131796D01*
X531180Y-133399D01*
X528550Y-135558D01*
X526391Y-138188D01*
X524788Y-141188D01*
X523800Y-144444D01*
X523467Y-147830D01*
X523800Y-151216D01*
X524788Y-154472D01*
X526391Y-157472D01*
X528550Y-160102D01*
X531180Y-162261D01*
X534180Y-163864D01*
X537436Y-164852D01*
X540822Y-165186D01*
X544208Y-164852D01*
X547464Y-163864D01*
X550464Y-162261D01*
X553094Y-160102D01*
X555253Y-157472D01*
X556857Y-154472D01*
X557844Y-151216D01*
X558178Y-147830D01*
X557844Y-144444D01*
X556857Y-141188D01*
X555253Y-138188D01*
X553094Y-135558D01*
X550464Y-133399D01*
X547464Y-131796D01*
X544208Y-130808D01*
X540822Y-130475D01*
D02*
G37*
G36*
X733862Y-155646D02*
X731993Y-156018D01*
X730409Y-157077D01*
X729350Y-158661D01*
X728978Y-160530D01*
X729350Y-162399D01*
X730409Y-163983D01*
X730523Y-164060D01*
X730255Y-165408D01*
X730215Y-165416D01*
X728631Y-166475D01*
X727572Y-168059D01*
X727200Y-169928D01*
X727572Y-171797D01*
X728631Y-173381D01*
X730215Y-174440D01*
X732084Y-174812D01*
X733953Y-174440D01*
X735537Y-173381D01*
X736596Y-171797D01*
X736968Y-169928D01*
X736596Y-168059D01*
X735537Y-166475D01*
X735423Y-166398D01*
X735691Y-165050D01*
X735731Y-165042D01*
X737316Y-163983D01*
X738374Y-162399D01*
X738746Y-160530D01*
X738374Y-158661D01*
X737316Y-157077D01*
X735731Y-156018D01*
X733862Y-155646D01*
D02*
G37*
G36*
X253684Y-164116D02*
X251522Y-164547D01*
X249690Y-165771D01*
X248465Y-167603D01*
X248036Y-169765D01*
X248465Y-171927D01*
X249690Y-173759D01*
X251522Y-174984D01*
X253684Y-175414D01*
X255846Y-174984D01*
X257678Y-173759D01*
X258903Y-171927D01*
X259333Y-169765D01*
X258903Y-167603D01*
X257678Y-165771D01*
X255846Y-164547D01*
X253684Y-164116D01*
D02*
G37*
G36*
X313690Y-172152D02*
X311528Y-172581D01*
X309696Y-173806D01*
X308471Y-175638D01*
X308041Y-177800D01*
X308471Y-179962D01*
X309696Y-181794D01*
X311528Y-183019D01*
X313690Y-183449D01*
X315852Y-183019D01*
X317684Y-181794D01*
X318909Y-179962D01*
X319338Y-177800D01*
X318909Y-175638D01*
X317684Y-173806D01*
X315852Y-172581D01*
X313690Y-172152D01*
D02*
G37*
G36*
X695762Y-175966D02*
X693893Y-176338D01*
X692309Y-177397D01*
X691250Y-178981D01*
X690878Y-180850D01*
X691250Y-182719D01*
X692309Y-184303D01*
X693893Y-185362D01*
X695762Y-185734D01*
X697631Y-185362D01*
X699215Y-184303D01*
X700274Y-182719D01*
X700646Y-180850D01*
X700274Y-178981D01*
X699215Y-177397D01*
X697631Y-176338D01*
X695762Y-175966D01*
D02*
G37*
G36*
X355600Y-175961D02*
X353438Y-176391D01*
X351606Y-177616D01*
X350381Y-179448D01*
X349952Y-181610D01*
X350381Y-183772D01*
X351606Y-185604D01*
X353438Y-186829D01*
X355600Y-187258D01*
X357762Y-186829D01*
X359594Y-185604D01*
X360819Y-183772D01*
X361249Y-181610D01*
X360819Y-179448D01*
X359594Y-177616D01*
X357762Y-176391D01*
X355600Y-175961D01*
D02*
G37*
G36*
X576382Y-153335D02*
X572996Y-153668D01*
X569740Y-154656D01*
X566740Y-156259D01*
X564110Y-158418D01*
X561951Y-161048D01*
X560348Y-164048D01*
X559360Y-167304D01*
X559027Y-170690D01*
X559360Y-174076D01*
X560348Y-177332D01*
X561951Y-180332D01*
X564110Y-182962D01*
X566740Y-185121D01*
X569740Y-186724D01*
X572996Y-187712D01*
X576382Y-188046D01*
X579768Y-187712D01*
X583024Y-186724D01*
X586024Y-185121D01*
X588654Y-182962D01*
X590813Y-180332D01*
X592417Y-177332D01*
X593404Y-174076D01*
X593738Y-170690D01*
X593404Y-167304D01*
X592417Y-164048D01*
X590813Y-161048D01*
X588654Y-158418D01*
X586024Y-156259D01*
X583024Y-154656D01*
X579768Y-153668D01*
X576382Y-153335D01*
D02*
G37*
G36*
X87884Y-178391D02*
X85722Y-178822D01*
X83890Y-180046D01*
X82665Y-181879D01*
X82235Y-184040D01*
X82665Y-186202D01*
X83890Y-188034D01*
X85722Y-189259D01*
X87884Y-189689D01*
X90046Y-189259D01*
X91878Y-188034D01*
X93103Y-186202D01*
X93532Y-184040D01*
X93103Y-181879D01*
X91878Y-180046D01*
X90046Y-178822D01*
X87884Y-178391D01*
D02*
G37*
G36*
X106172Y-178391D02*
X104010Y-178822D01*
X102178Y-180046D01*
X100953Y-181879D01*
X100524Y-184040D01*
X100953Y-186202D01*
X102178Y-188034D01*
X104010Y-189259D01*
X106172Y-189689D01*
X108334Y-189259D01*
X110166Y-188034D01*
X111391Y-186202D01*
X111820Y-184040D01*
X111391Y-181879D01*
X110166Y-180046D01*
X108334Y-178822D01*
X106172Y-178391D01*
D02*
G37*
G36*
X254025Y-181002D02*
X251863Y-181432D01*
X250030Y-182656D01*
X248806Y-184489D01*
X248376Y-186651D01*
X248806Y-188812D01*
X250030Y-190645D01*
X251863Y-191869D01*
X254025Y-192299D01*
X256186Y-191869D01*
X258019Y-190645D01*
X259243Y-188812D01*
X259673Y-186651D01*
X259243Y-184489D01*
X258019Y-182656D01*
X256186Y-181432D01*
X254025Y-181002D01*
D02*
G37*
G36*
X490022Y-163494D02*
X486636Y-163828D01*
X483381Y-164816D01*
X480380Y-166419D01*
X477750Y-168578D01*
X475592Y-171208D01*
X473988Y-174208D01*
X473000Y-177464D01*
X472667Y-180850D01*
X473000Y-184236D01*
X473988Y-187492D01*
X475592Y-190492D01*
X477750Y-193122D01*
X480380Y-195281D01*
X483381Y-196884D01*
X486636Y-197872D01*
X490022Y-198206D01*
X493408Y-197872D01*
X496664Y-196884D01*
X499664Y-195281D01*
X502294Y-193122D01*
X504453Y-190492D01*
X506057Y-187492D01*
X507044Y-184236D01*
X507378Y-180850D01*
X507044Y-177464D01*
X506057Y-174208D01*
X504453Y-171208D01*
X502294Y-168578D01*
X499664Y-166419D01*
X496664Y-164816D01*
X493408Y-163828D01*
X490022Y-163494D01*
D02*
G37*
G36*
X827842Y-196286D02*
X825973Y-196658D01*
X824389Y-197717D01*
X823330Y-199301D01*
X822958Y-201170D01*
X823330Y-203039D01*
X824389Y-204623D01*
X825973Y-205682D01*
X827842Y-206054D01*
X829711Y-205682D01*
X831295Y-204623D01*
X832354Y-203039D01*
X832726Y-201170D01*
X832354Y-199301D01*
X831295Y-197717D01*
X829711Y-196658D01*
X827842Y-196286D01*
D02*
G37*
G36*
X732084Y-200350D02*
X730215Y-200722D01*
X728631Y-201781D01*
X727572Y-203365D01*
X727200Y-205234D01*
X727572Y-207103D01*
X728631Y-208687D01*
X730215Y-209746D01*
X732084Y-210118D01*
X733953Y-209746D01*
X735537Y-208687D01*
X736596Y-207103D01*
X736968Y-205234D01*
X736596Y-203365D01*
X735537Y-201781D01*
X733953Y-200722D01*
X732084Y-200350D01*
D02*
G37*
G36*
X356362Y-200602D02*
X354493Y-200974D01*
X352909Y-202033D01*
X351850Y-203617D01*
X351478Y-205486D01*
X351850Y-207355D01*
X352909Y-208939D01*
X354493Y-209998D01*
X356362Y-210370D01*
X358231Y-209998D01*
X359815Y-208939D01*
X360874Y-207355D01*
X361246Y-205486D01*
X360874Y-203617D01*
X359815Y-202033D01*
X358231Y-200974D01*
X356362Y-200602D01*
D02*
G37*
G36*
X611942Y-176194D02*
X608556Y-176528D01*
X605300Y-177516D01*
X602300Y-179119D01*
X599670Y-181278D01*
X597511Y-183908D01*
X595908Y-186908D01*
X594920Y-190164D01*
X594587Y-193550D01*
X594920Y-196936D01*
X595908Y-200192D01*
X597511Y-203192D01*
X599670Y-205822D01*
X602300Y-207981D01*
X605300Y-209585D01*
X608556Y-210572D01*
X611942Y-210906D01*
X615328Y-210572D01*
X618584Y-209585D01*
X621584Y-207981D01*
X624214Y-205822D01*
X626373Y-203192D01*
X627977Y-200192D01*
X628964Y-196936D01*
X629298Y-193550D01*
X628964Y-190164D01*
X627977Y-186908D01*
X626373Y-183908D01*
X624214Y-181278D01*
X621584Y-179119D01*
X618584Y-177516D01*
X615328Y-176528D01*
X611942Y-176194D01*
D02*
G37*
G36*
X700842Y-203906D02*
X698973Y-204278D01*
X697389Y-205337D01*
X696330Y-206921D01*
X695958Y-208790D01*
X696330Y-210659D01*
X697389Y-212243D01*
X698973Y-213302D01*
X700842Y-213674D01*
X702711Y-213302D01*
X704296Y-212243D01*
X705354Y-210659D01*
X705726Y-208790D01*
X705354Y-206921D01*
X704296Y-205337D01*
X702711Y-204278D01*
X700842Y-203906D01*
D02*
G37*
G36*
X535742Y-191434D02*
X532356Y-191768D01*
X529100Y-192756D01*
X526100Y-194359D01*
X523470Y-196518D01*
X521311Y-199148D01*
X519708Y-202148D01*
X518720Y-205404D01*
X518387Y-208790D01*
X518720Y-212176D01*
X519708Y-215432D01*
X521311Y-218432D01*
X523470Y-221062D01*
X526100Y-223221D01*
X529100Y-224825D01*
X532356Y-225812D01*
X535742Y-226146D01*
X539128Y-225812D01*
X542384Y-224825D01*
X545384Y-223221D01*
X548014Y-221062D01*
X550173Y-218432D01*
X551777Y-215432D01*
X552764Y-212176D01*
X553098Y-208790D01*
X552764Y-205404D01*
X551777Y-202148D01*
X550173Y-199148D01*
X548014Y-196518D01*
X545384Y-194359D01*
X542384Y-192756D01*
X539128Y-191768D01*
X535742Y-191434D01*
D02*
G37*
G36*
X335280Y-228032D02*
X333118Y-228461D01*
X331286Y-229686D01*
X330061Y-231518D01*
X329632Y-233680D01*
X330061Y-235842D01*
X331286Y-237674D01*
X333118Y-238899D01*
X335280Y-239328D01*
X337442Y-238899D01*
X339274Y-237674D01*
X340499Y-235842D01*
X340928Y-233680D01*
X340499Y-231518D01*
X339274Y-229686D01*
X337442Y-228461D01*
X335280Y-228032D01*
D02*
G37*
G36*
X254000Y-230571D02*
X251838Y-231001D01*
X250006Y-232226D01*
X248781Y-234058D01*
X248351Y-236220D01*
X248781Y-238382D01*
X250006Y-240214D01*
X251838Y-241439D01*
X254000Y-241868D01*
X256162Y-241439D01*
X257994Y-240214D01*
X259219Y-238382D01*
X259648Y-236220D01*
X259219Y-234058D01*
X257994Y-232226D01*
X256162Y-231001D01*
X254000Y-230571D01*
D02*
G37*
G36*
X535686Y-230598D02*
X532300Y-230932D01*
X529044Y-231920D01*
X526044Y-233523D01*
X523414Y-235682D01*
X521255Y-238312D01*
X519651Y-241312D01*
X518664Y-244568D01*
X518330Y-247954D01*
X518664Y-251340D01*
X519651Y-254596D01*
X521255Y-257596D01*
X523414Y-260226D01*
X526044Y-262385D01*
X529044Y-263988D01*
X532300Y-264976D01*
X535686Y-265310D01*
X539072Y-264976D01*
X542328Y-263988D01*
X545328Y-262385D01*
X547958Y-260226D01*
X550117Y-257596D01*
X551721Y-254596D01*
X552708Y-251340D01*
X553042Y-247954D01*
X552708Y-244568D01*
X551721Y-241312D01*
X550117Y-238312D01*
X547958Y-235682D01*
X545328Y-233523D01*
X542328Y-231920D01*
X539072Y-230932D01*
X535686Y-230598D01*
D02*
G37*
G36*
X556006Y-271010D02*
X554137Y-271382D01*
X552553Y-272441D01*
X551494Y-274025D01*
X551122Y-275894D01*
X551494Y-277763D01*
X552553Y-279347D01*
X554137Y-280406D01*
X556006Y-280778D01*
X557875Y-280406D01*
X559459Y-279347D01*
X560518Y-277763D01*
X560890Y-275894D01*
X560518Y-274025D01*
X559459Y-272441D01*
X557875Y-271382D01*
X556006Y-271010D01*
D02*
G37*
G36*
X670306Y-272684D02*
X668437Y-273056D01*
X666853Y-274115D01*
X665794Y-275699D01*
X665422Y-277568D01*
X665794Y-279437D01*
X666853Y-281021D01*
X668105Y-281858D01*
Y-288426D01*
X663558Y-292972D01*
X662212Y-292702D01*
X662033Y-291805D01*
X660975Y-290221D01*
X659390Y-289162D01*
X657521Y-288790D01*
X655652Y-289162D01*
X654068Y-290221D01*
X653009Y-291805D01*
X652637Y-293674D01*
X653009Y-295543D01*
X654068Y-297127D01*
X655652Y-298186D01*
X657521Y-298558D01*
X659390Y-298186D01*
X660975Y-297127D01*
X661644Y-296126D01*
X662914Y-296511D01*
Y-316086D01*
X663081Y-316928D01*
X663558Y-317642D01*
X668244Y-322328D01*
X667435Y-323315D01*
X667095Y-323088D01*
X665226Y-322716D01*
X663357Y-323088D01*
X661773Y-324147D01*
X660714Y-325731D01*
X660342Y-327600D01*
X660714Y-329469D01*
X661773Y-331053D01*
X663357Y-332112D01*
X665226Y-332484D01*
X667095Y-332112D01*
X668679Y-331053D01*
X669738Y-329469D01*
X670110Y-327600D01*
X669738Y-325731D01*
X669140Y-324836D01*
X670055Y-323920D01*
X670107Y-323955D01*
X670950Y-324122D01*
X691902D01*
X692744Y-323955D01*
X693458Y-323478D01*
X696714Y-320221D01*
X698108Y-320798D01*
X700476Y-321110D01*
X702844Y-320798D01*
X705051Y-319884D01*
X706826Y-318522D01*
X708601Y-319884D01*
X710808Y-320798D01*
X713176Y-321110D01*
X715544Y-320798D01*
X717751Y-319884D01*
X719526Y-318522D01*
X721301Y-319884D01*
X723508Y-320798D01*
X725876Y-321110D01*
X728244Y-320798D01*
X730451Y-319884D01*
X732226Y-318522D01*
X734001Y-319884D01*
X736208Y-320798D01*
X738576Y-321110D01*
X740944Y-320798D01*
X743151Y-319884D01*
X744926Y-318522D01*
X746701Y-319884D01*
X748628Y-320683D01*
X748376Y-321953D01*
X746506D01*
X745664Y-322120D01*
X744949Y-322598D01*
X742903Y-324644D01*
X741426Y-324350D01*
X739557Y-324722D01*
X737973Y-325781D01*
X736914Y-327365D01*
X736542Y-329234D01*
X736914Y-331103D01*
X737973Y-332687D01*
X739557Y-333746D01*
X741426Y-334118D01*
X743295Y-333746D01*
X744879Y-332687D01*
X745938Y-331103D01*
X746310Y-329234D01*
X746016Y-327757D01*
X747418Y-326355D01*
X762776D01*
X763201Y-327625D01*
X762314Y-328953D01*
X761942Y-330821D01*
X762314Y-332691D01*
X763373Y-334275D01*
X764957Y-335334D01*
X766826Y-335705D01*
X768695Y-335334D01*
X770279Y-334275D01*
X771338Y-332691D01*
X771710Y-330821D01*
X771338Y-328953D01*
X770279Y-327368D01*
X769195Y-326644D01*
X768952Y-325270D01*
X768995Y-325098D01*
X775493Y-318600D01*
X775971Y-317885D01*
X776138Y-317043D01*
Y-295134D01*
X775971Y-294292D01*
X775493Y-293577D01*
X769658Y-287742D01*
X768944Y-287265D01*
X768102Y-287098D01*
X747150D01*
X746308Y-287265D01*
X745593Y-287742D01*
X742337Y-290998D01*
X740944Y-290422D01*
X738576Y-290110D01*
X736208Y-290422D01*
X734001Y-291336D01*
X732226Y-292698D01*
X730451Y-291336D01*
X728244Y-290422D01*
X725876Y-290110D01*
X723508Y-290422D01*
X721301Y-291336D01*
X719526Y-292698D01*
X717751Y-291336D01*
X715544Y-290422D01*
X713176Y-290110D01*
X710808Y-290422D01*
X708601Y-291336D01*
X706826Y-292698D01*
X705051Y-291336D01*
X702844Y-290422D01*
X700476Y-290110D01*
X698108Y-290422D01*
X695901Y-291336D01*
X694126Y-292698D01*
X692351Y-291336D01*
X690144Y-290422D01*
X687776Y-290110D01*
X685408Y-290422D01*
X683201Y-291336D01*
X681426Y-292698D01*
X679651Y-291336D01*
X677444Y-290422D01*
X675076Y-290110D01*
X673610Y-290303D01*
X672633Y-289448D01*
X672507Y-289182D01*
Y-281858D01*
X673759Y-281021D01*
X674818Y-279437D01*
X675190Y-277568D01*
X674818Y-275699D01*
X673759Y-274115D01*
X672175Y-273056D01*
X670306Y-272684D01*
D02*
G37*
G36*
X942400Y-285236D02*
X939217Y-285655D01*
X936251Y-286883D01*
X933705Y-288838D01*
X931750Y-291384D01*
X930522Y-294350D01*
X930340Y-295728D01*
X929060D01*
X928878Y-294350D01*
X927650Y-291384D01*
X925695Y-288838D01*
X923149Y-286883D01*
X920183Y-285655D01*
X917000Y-285236D01*
X913817Y-285655D01*
X910851Y-286883D01*
X908305Y-288838D01*
X906350Y-291384D01*
X905122Y-294350D01*
X904703Y-297533D01*
X905122Y-300716D01*
X906350Y-303682D01*
X908305Y-306228D01*
X910851Y-308183D01*
X913817Y-309411D01*
X915195Y-309592D01*
Y-310874D01*
X913817Y-311055D01*
X910851Y-312283D01*
X908305Y-314238D01*
X906350Y-316784D01*
X905122Y-319750D01*
X904703Y-322933D01*
X905122Y-326116D01*
X906350Y-329082D01*
X908305Y-331628D01*
X910851Y-333583D01*
X913817Y-334811D01*
X917000Y-335230D01*
X920183Y-334811D01*
X923149Y-333583D01*
X925695Y-331628D01*
X927650Y-329082D01*
X928878Y-326116D01*
X929060Y-324738D01*
X930340D01*
X930522Y-326116D01*
X931750Y-329082D01*
X933705Y-331628D01*
X936251Y-333583D01*
X939217Y-334811D01*
X942400Y-335230D01*
X945583Y-334811D01*
X948549Y-333583D01*
X951095Y-331628D01*
X953050Y-329082D01*
X954278Y-326116D01*
X954697Y-322933D01*
X954278Y-319750D01*
X953050Y-316784D01*
X951095Y-314238D01*
X948549Y-312283D01*
X945583Y-311055D01*
X944205Y-310874D01*
Y-309592D01*
X945583Y-309411D01*
X948549Y-308183D01*
X951095Y-306228D01*
X953050Y-303682D01*
X954278Y-300716D01*
X954697Y-297533D01*
X954278Y-294350D01*
X953050Y-291384D01*
X951095Y-288838D01*
X948549Y-286883D01*
X945583Y-285655D01*
X942400Y-285236D01*
D02*
G37*
G36*
X555498Y-287520D02*
X553629Y-287892D01*
X552045Y-288951D01*
X550986Y-290535D01*
X550614Y-292404D01*
X550986Y-294273D01*
X552045Y-295857D01*
X553629Y-296916D01*
X555498Y-297288D01*
X557367Y-296916D01*
X558951Y-295857D01*
X560010Y-294273D01*
X560382Y-292404D01*
X560010Y-290535D01*
X558951Y-288951D01*
X557367Y-287892D01*
X555498Y-287520D01*
D02*
G37*
G36*
X519176Y-284218D02*
X517307Y-284590D01*
X515723Y-285649D01*
X514664Y-287233D01*
X514292Y-289102D01*
X514664Y-290971D01*
X515723Y-292555D01*
X517307Y-293614D01*
X519176Y-293986D01*
X520239Y-293774D01*
X521323Y-294840D01*
X521150Y-295706D01*
X521432Y-297122D01*
X520922Y-297652D01*
X520413Y-298027D01*
X518668Y-297680D01*
X516799Y-298052D01*
X515215Y-299111D01*
X514156Y-300695D01*
X513784Y-302564D01*
X514156Y-304433D01*
X515215Y-306017D01*
X516799Y-307076D01*
X518668Y-307448D01*
X520537Y-307076D01*
X522121Y-306017D01*
X523180Y-304433D01*
X523552Y-302564D01*
X523270Y-301147D01*
X523780Y-300618D01*
X524289Y-300243D01*
X526034Y-300590D01*
X527903Y-300218D01*
X529487Y-299159D01*
X530546Y-297575D01*
X530918Y-295706D01*
X530546Y-293837D01*
X529487Y-292253D01*
X527903Y-291194D01*
X526034Y-290822D01*
X524971Y-291034D01*
X523887Y-289968D01*
X524060Y-289102D01*
X523688Y-287233D01*
X522629Y-285649D01*
X521045Y-284590D01*
X519176Y-284218D01*
D02*
G37*
G36*
X456946Y-268698D02*
X453560Y-269032D01*
X450304Y-270020D01*
X447304Y-271623D01*
X444674Y-273782D01*
X442515Y-276412D01*
X440911Y-279412D01*
X439924Y-282668D01*
X439590Y-286054D01*
X439924Y-289440D01*
X440911Y-292696D01*
X442515Y-295696D01*
X444674Y-298326D01*
X447304Y-300485D01*
X450304Y-302089D01*
X453560Y-303076D01*
X456946Y-303410D01*
X460332Y-303076D01*
X463588Y-302089D01*
X466588Y-300485D01*
X469218Y-298326D01*
X471377Y-295696D01*
X472980Y-292696D01*
X473968Y-289440D01*
X474302Y-286054D01*
X473968Y-282668D01*
X472980Y-279412D01*
X471377Y-276412D01*
X469218Y-273782D01*
X466588Y-271623D01*
X463588Y-270020D01*
X460332Y-269032D01*
X456946Y-268698D01*
D02*
G37*
G36*
X556006Y-305554D02*
X554137Y-305926D01*
X552553Y-306985D01*
X551494Y-308569D01*
X551122Y-310438D01*
X551494Y-312307D01*
X552553Y-313891D01*
X554137Y-314950D01*
X556006Y-315322D01*
X557875Y-314950D01*
X559459Y-313891D01*
X560518Y-312307D01*
X560890Y-310438D01*
X560518Y-308569D01*
X559459Y-306985D01*
X557875Y-305926D01*
X556006Y-305554D01*
D02*
G37*
G36*
X728726Y-324350D02*
X726857Y-324722D01*
X725273Y-325781D01*
X724214Y-327365D01*
X723842Y-329234D01*
X724214Y-331103D01*
X725273Y-332687D01*
X726857Y-333746D01*
X728726Y-334118D01*
X730595Y-333746D01*
X732179Y-332687D01*
X733238Y-331103D01*
X733610Y-329234D01*
X733238Y-327365D01*
X732179Y-325781D01*
X730595Y-324722D01*
X728726Y-324350D01*
D02*
G37*
G36*
X487426Y-326890D02*
X485557Y-327262D01*
X483973Y-328321D01*
X482914Y-329905D01*
X482542Y-331774D01*
X482914Y-333643D01*
X483973Y-335227D01*
X485557Y-336286D01*
X487426Y-336658D01*
X489295Y-336286D01*
X490879Y-335227D01*
X491938Y-333643D01*
X492310Y-331774D01*
X491938Y-329905D01*
X490879Y-328321D01*
X489295Y-327262D01*
X487426Y-326890D01*
D02*
G37*
G36*
X434086Y-304258D02*
X430700Y-304592D01*
X427444Y-305580D01*
X424444Y-307183D01*
X421814Y-309342D01*
X419655Y-311972D01*
X418051Y-314972D01*
X417064Y-318228D01*
X416730Y-321614D01*
X417064Y-325000D01*
X418051Y-328256D01*
X419655Y-331256D01*
X421814Y-333886D01*
X424444Y-336045D01*
X427444Y-337649D01*
X430700Y-338636D01*
X434086Y-338970D01*
X437472Y-338636D01*
X440728Y-337649D01*
X443728Y-336045D01*
X446358Y-333886D01*
X448517Y-331256D01*
X450121Y-328256D01*
X451108Y-325000D01*
X451442Y-321614D01*
X451108Y-318228D01*
X450121Y-314972D01*
X448517Y-311972D01*
X446358Y-309342D01*
X443728Y-307183D01*
X440728Y-305580D01*
X437472Y-304592D01*
X434086Y-304258D01*
D02*
G37*
G36*
X260604Y-349266D02*
X257453Y-349681D01*
X254516Y-350897D01*
X251994Y-352832D01*
X250059Y-355354D01*
X248843Y-358291D01*
X248546Y-360545D01*
X247276Y-360461D01*
Y-349370D01*
X223132D01*
Y-373514D01*
X234223D01*
X234307Y-374784D01*
X232053Y-375081D01*
X229116Y-376297D01*
X226594Y-378232D01*
X224659Y-380754D01*
X223443Y-383691D01*
X223028Y-386842D01*
X223443Y-389993D01*
X224659Y-392930D01*
X226594Y-395452D01*
X229116Y-397387D01*
X232053Y-398603D01*
X234318Y-398901D01*
Y-400182D01*
X232053Y-400481D01*
X229116Y-401697D01*
X226594Y-403632D01*
X224659Y-406154D01*
X223443Y-409091D01*
X223028Y-412242D01*
X223443Y-415393D01*
X224659Y-418330D01*
X226594Y-420852D01*
X229116Y-422787D01*
X232053Y-424003D01*
X235204Y-424418D01*
X238355Y-424003D01*
X241292Y-422787D01*
X243814Y-420852D01*
X245749Y-418330D01*
X246965Y-415393D01*
X247264Y-413128D01*
X248545D01*
X248843Y-415393D01*
X250059Y-418330D01*
X251994Y-420852D01*
X254516Y-422787D01*
X257453Y-424003D01*
X260604Y-424418D01*
X263755Y-424003D01*
X266692Y-422787D01*
X269214Y-420852D01*
X271149Y-418330D01*
X272365Y-415393D01*
X272780Y-412242D01*
X272365Y-409091D01*
X271149Y-406154D01*
X269214Y-403632D01*
X266692Y-401697D01*
X263755Y-400481D01*
X261490Y-400182D01*
Y-398901D01*
X263755Y-398603D01*
X266692Y-397387D01*
X269214Y-395452D01*
X271149Y-392930D01*
X272365Y-389993D01*
X272780Y-386842D01*
X272365Y-383691D01*
X271149Y-380754D01*
X269214Y-378232D01*
X266692Y-376297D01*
X263755Y-375081D01*
X261490Y-374782D01*
Y-373502D01*
X263755Y-373203D01*
X266692Y-371987D01*
X269214Y-370052D01*
X271149Y-367530D01*
X272365Y-364593D01*
X272780Y-361442D01*
X272365Y-358291D01*
X271149Y-355354D01*
X269214Y-352832D01*
X266692Y-350897D01*
X263755Y-349681D01*
X260604Y-349266D01*
D02*
G37*
G36*
X822706Y-367530D02*
X820837Y-367902D01*
X819253Y-368961D01*
X818194Y-370545D01*
X817822Y-372414D01*
X818194Y-374283D01*
X819253Y-375867D01*
X820837Y-376926D01*
X822706Y-377298D01*
X824575Y-376926D01*
X826159Y-375867D01*
X827218Y-374283D01*
X827590Y-372414D01*
X827218Y-370545D01*
X826159Y-368961D01*
X824575Y-367902D01*
X822706Y-367530D01*
D02*
G37*
G36*
X540766Y-344898D02*
X537380Y-345232D01*
X534124Y-346220D01*
X531124Y-347823D01*
X528494Y-349982D01*
X526335Y-352612D01*
X524731Y-355612D01*
X523744Y-358868D01*
X523410Y-362254D01*
X523744Y-365640D01*
X524731Y-368896D01*
X526335Y-371896D01*
X528494Y-374526D01*
X531124Y-376685D01*
X534124Y-378288D01*
X537380Y-379276D01*
X540766Y-379610D01*
X544152Y-379276D01*
X547408Y-378288D01*
X550408Y-376685D01*
X553038Y-374526D01*
X555197Y-371896D01*
X556800Y-368896D01*
X557788Y-365640D01*
X558122Y-362254D01*
X557788Y-358868D01*
X556800Y-355612D01*
X555197Y-352612D01*
X553038Y-349982D01*
X550408Y-347823D01*
X547408Y-346220D01*
X544152Y-345232D01*
X540766Y-344898D01*
D02*
G37*
G36*
X733806Y-370070D02*
X731937Y-370442D01*
X730353Y-371501D01*
X729294Y-373085D01*
X728922Y-374954D01*
X729294Y-376823D01*
X730353Y-378407D01*
X730467Y-378484D01*
X730199Y-379832D01*
X730159Y-379840D01*
X728575Y-380899D01*
X727516Y-382483D01*
X727144Y-384352D01*
X727516Y-386221D01*
X728575Y-387805D01*
X730159Y-388864D01*
X732028Y-389236D01*
X733897Y-388864D01*
X735481Y-387805D01*
X736540Y-386221D01*
X736912Y-384352D01*
X736540Y-382483D01*
X735481Y-380899D01*
X735367Y-380822D01*
X735635Y-379474D01*
X735675Y-379466D01*
X737259Y-378407D01*
X738318Y-376823D01*
X738690Y-374954D01*
X738318Y-373085D01*
X737259Y-371501D01*
X735675Y-370442D01*
X733806Y-370070D01*
D02*
G37*
G36*
X695706Y-390390D02*
X693837Y-390762D01*
X692253Y-391821D01*
X691194Y-393405D01*
X690822Y-395274D01*
X691194Y-397143D01*
X692253Y-398727D01*
X693837Y-399786D01*
X695706Y-400158D01*
X697575Y-399786D01*
X699159Y-398727D01*
X700218Y-397143D01*
X700590Y-395274D01*
X700218Y-393405D01*
X699159Y-391821D01*
X697575Y-390762D01*
X695706Y-390390D01*
D02*
G37*
G36*
X576326Y-367758D02*
X572940Y-368092D01*
X569684Y-369080D01*
X566684Y-370683D01*
X564054Y-372842D01*
X561895Y-375472D01*
X560291Y-378472D01*
X559304Y-381728D01*
X558970Y-385114D01*
X559304Y-388500D01*
X560291Y-391756D01*
X561895Y-394756D01*
X564054Y-397386D01*
X566684Y-399545D01*
X569684Y-401148D01*
X572940Y-402136D01*
X576326Y-402470D01*
X579712Y-402136D01*
X582968Y-401148D01*
X585968Y-399545D01*
X588598Y-397386D01*
X590757Y-394756D01*
X592360Y-391756D01*
X593348Y-388500D01*
X593682Y-385114D01*
X593348Y-381728D01*
X592360Y-378472D01*
X590757Y-375472D01*
X588598Y-372842D01*
X585968Y-370683D01*
X582968Y-369080D01*
X579712Y-368092D01*
X576326Y-367758D01*
D02*
G37*
G36*
X489966Y-377918D02*
X486580Y-378252D01*
X483324Y-379240D01*
X480324Y-380843D01*
X477694Y-383002D01*
X475535Y-385632D01*
X473932Y-388632D01*
X472944Y-391888D01*
X472610Y-395274D01*
X472944Y-398660D01*
X473932Y-401916D01*
X475535Y-404916D01*
X477694Y-407546D01*
X480324Y-409705D01*
X483324Y-411309D01*
X486580Y-412296D01*
X489966Y-412630D01*
X493352Y-412296D01*
X496608Y-411309D01*
X499608Y-409705D01*
X502238Y-407546D01*
X504397Y-404916D01*
X506001Y-401916D01*
X506988Y-398660D01*
X507322Y-395274D01*
X506988Y-391888D01*
X506001Y-388632D01*
X504397Y-385632D01*
X502238Y-383002D01*
X499608Y-380843D01*
X496608Y-379240D01*
X493352Y-378252D01*
X489966Y-377918D01*
D02*
G37*
G36*
X827786Y-410710D02*
X825917Y-411082D01*
X824333Y-412141D01*
X823274Y-413725D01*
X822902Y-415594D01*
X823274Y-417463D01*
X824333Y-419047D01*
X825917Y-420106D01*
X827786Y-420478D01*
X829655Y-420106D01*
X831239Y-419047D01*
X832298Y-417463D01*
X832670Y-415594D01*
X832298Y-413725D01*
X831239Y-412141D01*
X829655Y-411082D01*
X827786Y-410710D01*
D02*
G37*
G36*
X732028Y-414774D02*
X730159Y-415146D01*
X728575Y-416205D01*
X727516Y-417789D01*
X727144Y-419658D01*
X727516Y-421527D01*
X728575Y-423111D01*
X730159Y-424170D01*
X732028Y-424542D01*
X733897Y-424170D01*
X735481Y-423111D01*
X736540Y-421527D01*
X736912Y-419658D01*
X736540Y-417789D01*
X735481Y-416205D01*
X733897Y-415146D01*
X732028Y-414774D01*
D02*
G37*
G36*
X611886Y-390618D02*
X608500Y-390952D01*
X605244Y-391940D01*
X602244Y-393543D01*
X599614Y-395702D01*
X597455Y-398332D01*
X595852Y-401332D01*
X594864Y-404588D01*
X594530Y-407974D01*
X594864Y-411360D01*
X595852Y-414616D01*
X597455Y-417616D01*
X599614Y-420246D01*
X602244Y-422405D01*
X605244Y-424008D01*
X608500Y-424996D01*
X611886Y-425330D01*
X615272Y-424996D01*
X618528Y-424008D01*
X621528Y-422405D01*
X624158Y-420246D01*
X626317Y-417616D01*
X627920Y-414616D01*
X628908Y-411360D01*
X629242Y-407974D01*
X628908Y-404588D01*
X627920Y-401332D01*
X626317Y-398332D01*
X624158Y-395702D01*
X621528Y-393543D01*
X618528Y-391940D01*
X615272Y-390952D01*
X611886Y-390618D01*
D02*
G37*
G36*
X700786Y-418330D02*
X698917Y-418702D01*
X697333Y-419761D01*
X696274Y-421345D01*
X695902Y-423214D01*
X696274Y-425083D01*
X697333Y-426667D01*
X698917Y-427726D01*
X700786Y-428098D01*
X702655Y-427726D01*
X704239Y-426667D01*
X705298Y-425083D01*
X705670Y-423214D01*
X705298Y-421345D01*
X704239Y-419761D01*
X702655Y-418702D01*
X700786Y-418330D01*
D02*
G37*
G36*
X535686Y-405858D02*
X532300Y-406192D01*
X529044Y-407180D01*
X526044Y-408783D01*
X523414Y-410942D01*
X521255Y-413572D01*
X519651Y-416572D01*
X518664Y-419828D01*
X518330Y-423214D01*
X518664Y-426600D01*
X519651Y-429856D01*
X521255Y-432856D01*
X523414Y-435486D01*
X526044Y-437645D01*
X529044Y-439249D01*
X532300Y-440236D01*
X535686Y-440570D01*
X539072Y-440236D01*
X542328Y-439249D01*
X545328Y-437645D01*
X547958Y-435486D01*
X550117Y-432856D01*
X551721Y-429856D01*
X552708Y-426600D01*
X553042Y-423214D01*
X552708Y-419828D01*
X551721Y-416572D01*
X550117Y-413572D01*
X547958Y-410942D01*
X545328Y-408783D01*
X542328Y-407180D01*
X539072Y-406192D01*
X535686Y-405858D01*
D02*
G37*
%LPD*%
G36*
X930522Y129661D02*
X931750Y126695D01*
X933705Y124149D01*
X936251Y122194D01*
X939217Y120966D01*
X940595Y120785D01*
Y119503D01*
X939217Y119322D01*
X936251Y118094D01*
X933705Y116139D01*
X931750Y113593D01*
X930522Y110627D01*
X930340Y109249D01*
X929060D01*
X928878Y110627D01*
X927650Y113593D01*
X925695Y116139D01*
X923149Y118094D01*
X920183Y119322D01*
X918805Y119503D01*
Y120785D01*
X920183Y120966D01*
X923149Y122194D01*
X925695Y124149D01*
X927650Y126695D01*
X928878Y129661D01*
X929060Y131039D01*
X930340D01*
X930522Y129661D01*
D02*
G37*
G36*
Y-86339D02*
X931750Y-89305D01*
X933705Y-91851D01*
X936251Y-93806D01*
X939217Y-95034D01*
X940595Y-95216D01*
Y-96496D01*
X939217Y-96678D01*
X936251Y-97906D01*
X933705Y-99860D01*
X931750Y-102407D01*
X930522Y-105373D01*
X930340Y-106751D01*
X929060D01*
X928878Y-105373D01*
X927650Y-102407D01*
X925695Y-99860D01*
X923149Y-97906D01*
X920183Y-96678D01*
X918805Y-96496D01*
Y-95216D01*
X920183Y-95034D01*
X923149Y-93806D01*
X925695Y-91851D01*
X927650Y-89305D01*
X928878Y-86339D01*
X929060Y-84961D01*
X930340D01*
X930522Y-86339D01*
D02*
G37*
G36*
Y-300716D02*
X931750Y-303682D01*
X933705Y-306228D01*
X936251Y-308183D01*
X939217Y-309411D01*
X940595Y-309592D01*
Y-310874D01*
X939217Y-311055D01*
X936251Y-312283D01*
X933705Y-314238D01*
X931750Y-316784D01*
X930522Y-319750D01*
X930340Y-321128D01*
X929060D01*
X928878Y-319750D01*
X927650Y-316784D01*
X925695Y-314238D01*
X923149Y-312283D01*
X920183Y-311055D01*
X918805Y-310874D01*
Y-309592D01*
X920183Y-309411D01*
X923149Y-308183D01*
X925695Y-306228D01*
X927650Y-303682D01*
X928878Y-300716D01*
X929060Y-299338D01*
X930340D01*
X930522Y-300716D01*
D02*
G37*
G36*
X248843Y-389993D02*
X250059Y-392930D01*
X251994Y-395452D01*
X254516Y-397387D01*
X257453Y-398603D01*
X259718Y-398901D01*
Y-400182D01*
X257453Y-400481D01*
X254516Y-401697D01*
X251994Y-403632D01*
X250059Y-406154D01*
X248843Y-409091D01*
X248545Y-411356D01*
X247264D01*
X246965Y-409091D01*
X245749Y-406154D01*
X243814Y-403632D01*
X241292Y-401697D01*
X238355Y-400481D01*
X236090Y-400182D01*
Y-398901D01*
X238355Y-398603D01*
X241292Y-397387D01*
X243814Y-395452D01*
X245749Y-392930D01*
X246965Y-389993D01*
X247264Y-387728D01*
X248545D01*
X248843Y-389993D01*
D02*
G37*
D56*
X670306Y-289338D02*
Y-277568D01*
X665115Y-294529D02*
X670306Y-289338D01*
X700476Y-313347D02*
Y-311960D01*
X691902Y-321921D02*
X700476Y-313347D01*
X665115Y-316086D02*
X670950Y-321921D01*
X665115Y-316086D02*
Y-294529D01*
X670950Y-321921D02*
X691902D01*
X768102Y-289299D02*
X773937Y-295134D01*
X747150Y-289299D02*
X768102D01*
X773937Y-317043D02*
Y-295134D01*
X766826Y-324154D02*
X773937Y-317043D01*
X738576Y-299260D02*
Y-297873D01*
X747150Y-289299D01*
X746506Y-324154D02*
X766826D01*
X741426Y-329234D02*
X746506Y-324154D01*
X747206Y-74875D02*
X768158D01*
X746562Y-109730D02*
X766882D01*
X691958Y-107497D02*
X700532Y-98923D01*
X671006Y-107497D02*
X691958D01*
X773993Y-102619D02*
Y-80710D01*
X665171Y-101662D02*
Y-80105D01*
X741482Y-114810D02*
X746562Y-109730D01*
X670362Y-74914D02*
Y-63144D01*
X768158Y-74875D02*
X773993Y-80710D01*
X766882Y-109730D02*
X773993Y-102619D01*
X738632Y-84836D02*
Y-83449D01*
X747206Y-74875D01*
X700532Y-98923D02*
Y-97536D01*
X665171Y-80105D02*
X670362Y-74914D01*
X665171Y-101662D02*
X671006Y-107497D01*
X774191Y106171D02*
Y128080D01*
X767080Y99060D02*
X774191Y106171D01*
X747404Y133915D02*
X768356D01*
X774191Y128080D01*
X746760Y99060D02*
X767080D01*
X738830Y125341D02*
X747404Y133915D01*
X738830Y123954D02*
Y125341D01*
X741680Y93980D02*
X746760Y99060D01*
X670560Y133876D02*
Y145646D01*
X665369Y128685D02*
X670560Y133876D01*
X665369Y107128D02*
Y128685D01*
Y107128D02*
X671204Y101293D01*
X692156D01*
X700730Y109867D01*
Y111254D01*
D58*
X738632Y-84836D02*
D03*
X700532Y-97536D02*
D03*
X738830Y123954D02*
D03*
X700730Y111254D02*
D03*
X738576Y-299260D02*
D03*
X700476Y-311960D02*
D03*
D59*
X305000Y457000D02*
D03*
D63*
X254500Y438000D02*
D03*
D64*
X503523Y-345258D02*
D03*
X690549Y-441007D02*
D03*
X832922Y-352046D02*
D03*
X733786Y-400377D02*
D03*
X556006Y-301294D02*
D03*
X670306Y-277568D02*
D03*
X741426Y-329234D02*
D03*
X832978Y-137622D02*
D03*
X733842Y-185953D02*
D03*
X670362Y-63144D02*
D03*
X690605Y-226583D02*
D03*
X503580Y-130834D02*
D03*
X741482Y-114810D02*
D03*
X556062Y-86870D02*
D03*
X741680Y93980D02*
D03*
X833176Y71168D02*
D03*
X734040Y22837D02*
D03*
X690803Y-17793D02*
D03*
X556260Y121920D02*
D03*
X503777Y77956D02*
D03*
X670560Y145646D02*
D03*
D65*
X133604Y-191262D02*
D03*
X374650Y137160D02*
D03*
Y54610D02*
D03*
Y-27940D02*
D03*
Y-111760D02*
D03*
Y-193040D02*
D03*
X312420Y422402D02*
D03*
X306070Y435102D02*
D03*
X299720Y422402D02*
D03*
X293370Y435102D02*
D03*
X287020Y422402D02*
D03*
X280670Y435102D02*
D03*
X274320Y422402D02*
D03*
X528320Y353060D02*
D03*
X345440Y265430D02*
D03*
Y274320D02*
D03*
X336550D02*
D03*
X323850Y391160D02*
D03*
M02*
