G04*
G04 #@! TF.GenerationSoftware,Altium Limited,Altium Designer,20.1.11 (218)*
G04*
G04 Layer_Color=16711935*
%FSLAX44Y44*%
%MOMM*%
G71*
G04*
G04 #@! TF.SameCoordinates,6A4551F0-0C6C-4C7A-9067-02AC85F7A24C*
G04*
G04*
G04 #@! TF.FilePolarity,Positive*
G04*
G01*
G75*
%ADD14C,0.1270*%
%ADD20C,0.2540*%
%ADD67C,0.1524*%
%ADD68C,0.1000*%
%ADD69C,0.0508*%
G36*
X197747Y398019D02*
X199198Y398632D01*
X202206Y399561D01*
X205292Y400186D01*
X208426Y400500D01*
X211574Y400500D01*
X214708Y400186D01*
X217794Y399561D01*
X220802Y398632D01*
X222253Y398019D01*
X222253Y398019D01*
X218867Y390005D01*
X218848Y390013D01*
X216714Y390789D01*
X212268Y391687D01*
X207732D01*
X203286Y390789D01*
X201152Y390013D01*
Y390013D01*
X201133Y390005D01*
X197747Y398019D01*
D02*
G37*
G36*
X212981Y425747D02*
X212368Y427198D01*
X211439Y430206D01*
X210814Y433293D01*
X210500Y436426D01*
X210500Y439574D01*
X210814Y442707D01*
X211439Y445794D01*
X212368Y448802D01*
X212981Y450253D01*
Y450253D01*
X220995Y446867D01*
X220987Y446848D01*
X220211Y444714D01*
X219313Y440268D01*
Y435732D01*
X220211Y431286D01*
X220987Y429152D01*
D01*
X220995Y429133D01*
X212981Y425747D01*
D02*
G37*
G36*
X567628Y422040D02*
Y457040D01*
X532628D01*
Y422040D01*
X567628D01*
D02*
G37*
D14*
X596392Y-124714D02*
Y-57658D01*
X842772Y-124714D02*
Y-57658D01*
X596392Y-124714D02*
X842772D01*
X596392Y-57658D02*
X842772D01*
X643382Y-124206D02*
Y-58166D01*
X795782Y-124206D02*
Y-58166D01*
X596590Y84076D02*
Y151132D01*
X842970Y84076D02*
Y151132D01*
X596590Y84076D02*
X842970D01*
X596590Y151132D02*
X842970D01*
X643580Y84584D02*
Y150624D01*
X795980Y84584D02*
Y150624D01*
X596336Y-339138D02*
Y-272082D01*
X842716Y-339138D02*
Y-272082D01*
X596336Y-339138D02*
X842716D01*
X596336Y-272082D02*
X842716D01*
X643326Y-338630D02*
Y-272590D01*
X795726Y-338630D02*
Y-272590D01*
D20*
X902268Y-278483D02*
X910650D01*
X942400Y-352143D02*
Y-341983D01*
X957132D01*
X896680Y-273403D02*
X902268D01*
Y-278483D02*
Y-273403D01*
X957132Y-347063D02*
Y-341983D01*
X896680Y-347063D02*
Y-273403D01*
X957132Y-347063D02*
X962720D01*
X957132Y-273403D02*
X962720D01*
Y-347063D02*
Y-273403D01*
X896680Y-347063D02*
X902268D01*
X957132Y-278483D02*
Y-273403D01*
X902268Y-347063D02*
Y-341983D01*
X917000D01*
X948750Y-278483D02*
X957132D01*
X917000Y-352143D02*
Y-341983D01*
X910650Y-273403D02*
X948750D01*
Y-278483D02*
Y-273403D01*
X910650Y-278483D02*
Y-273403D01*
X917000Y-352143D02*
X942400D01*
X902268Y-64106D02*
X910650D01*
X942400Y-137766D02*
Y-127606D01*
X957132D01*
X896680Y-59026D02*
X902268D01*
Y-64106D02*
Y-59026D01*
X957132Y-132686D02*
Y-127606D01*
X896680Y-132686D02*
Y-59026D01*
X957132Y-132686D02*
X962720D01*
X957132Y-59026D02*
X962720D01*
Y-132686D02*
Y-59026D01*
X896680Y-132686D02*
X902268D01*
X957132Y-64106D02*
Y-59026D01*
X902268Y-132686D02*
Y-127606D01*
X917000D01*
X948750Y-64106D02*
X957132D01*
X917000Y-137766D02*
Y-127606D01*
X910650Y-59026D02*
X948750D01*
Y-64106D02*
Y-59026D01*
X910650Y-64106D02*
Y-59026D01*
X917000Y-137766D02*
X942400D01*
X902268Y151894D02*
X910650D01*
X942400Y78234D02*
Y88394D01*
X957132D01*
X896680Y156974D02*
X902268D01*
Y151894D02*
Y156974D01*
X957132Y83314D02*
Y88394D01*
X896680Y83314D02*
Y156974D01*
X957132Y83314D02*
X962720D01*
X957132Y156974D02*
X962720D01*
Y83314D02*
Y156974D01*
X896680Y83314D02*
X902268D01*
X957132Y151894D02*
Y156974D01*
X902268Y83314D02*
Y88394D01*
X917000D01*
X948750Y151894D02*
X957132D01*
X917000Y78234D02*
Y88394D01*
X910650Y156974D02*
X948750D01*
Y151894D02*
Y156974D01*
X910650Y151894D02*
Y156974D01*
X917000Y78234D02*
X942400D01*
X711947Y-203656D02*
X724643D01*
X727182Y-201117D01*
Y-196038D01*
X724643Y-193499D01*
X711947D01*
X727182Y-178264D02*
Y-188421D01*
X717025Y-178264D01*
X714486D01*
X711947Y-180803D01*
Y-185882D01*
X714486Y-188421D01*
X711947Y-173186D02*
X727182D01*
Y-165568D01*
X724643Y-163029D01*
X722104D01*
X719564Y-165568D01*
Y-173186D01*
Y-165568D01*
X717025Y-163029D01*
X714486D01*
X711947Y-165568D01*
Y-173186D01*
X535510Y-104921D02*
X548206D01*
X550745Y-102382D01*
Y-97304D01*
X548206Y-94764D01*
X535510D01*
X538049Y-89686D02*
X535510Y-87147D01*
Y-82069D01*
X538049Y-79530D01*
X540589D01*
X543128Y-82069D01*
Y-84608D01*
Y-82069D01*
X545667Y-79530D01*
X548206D01*
X550745Y-82069D01*
Y-87147D01*
X548206Y-89686D01*
X535510Y-74451D02*
X550745D01*
Y-66834D01*
X548206Y-64294D01*
X545667D01*
X543128Y-66834D01*
Y-74451D01*
Y-66834D01*
X540589Y-64294D01*
X538049D01*
X535510Y-66834D01*
Y-74451D01*
X812337Y-162420D02*
X799641D01*
X797102Y-164959D01*
Y-170037D01*
X799641Y-172577D01*
X812337D01*
X797102Y-185273D02*
X812337D01*
X804720Y-177655D01*
Y-187812D01*
X812337Y-192890D02*
X797102D01*
Y-200508D01*
X799641Y-203047D01*
X802180D01*
X804720Y-200508D01*
Y-192890D01*
Y-200508D01*
X807259Y-203047D01*
X809798D01*
X812337Y-200508D01*
Y-192890D01*
X667512Y-83571D02*
X677669Y-98806D01*
Y-83571D02*
X667512Y-98806D01*
X692904D02*
X682747D01*
X692904Y-88649D01*
Y-86110D01*
X690365Y-83571D01*
X685286D01*
X682747Y-86110D01*
X697982Y-83571D02*
Y-98806D01*
X705600D01*
X708139Y-96267D01*
Y-93728D01*
X705600Y-91188D01*
X697982D01*
X705600D01*
X708139Y-88649D01*
Y-86110D01*
X705600Y-83571D01*
X697982D01*
X667710Y125219D02*
X677867Y109984D01*
Y125219D02*
X667710Y109984D01*
X693102D02*
X682945D01*
X693102Y120141D01*
Y122680D01*
X690562Y125219D01*
X685484D01*
X682945Y122680D01*
X698180Y109984D02*
Y120141D01*
X703258Y125219D01*
X708337Y120141D01*
Y109984D01*
Y117602D01*
X698180D01*
X535708Y103869D02*
X548404D01*
X550943Y106408D01*
Y111486D01*
X548404Y114025D01*
X535708D01*
X538247Y119104D02*
X535708Y121643D01*
Y126721D01*
X538247Y129261D01*
X540786D01*
X543326Y126721D01*
Y124182D01*
Y126721D01*
X545865Y129261D01*
X548404D01*
X550943Y126721D01*
Y121643D01*
X548404Y119104D01*
X550943Y134339D02*
X540786D01*
X535708Y139417D01*
X540786Y144496D01*
X550943D01*
X543326D01*
Y134339D01*
X712145Y5134D02*
X724840D01*
X727380Y7673D01*
Y12751D01*
X724840Y15291D01*
X712145D01*
X727380Y30526D02*
Y20369D01*
X717223Y30526D01*
X714684D01*
X712145Y27987D01*
Y22908D01*
X714684Y20369D01*
X727380Y35604D02*
X717223D01*
X712145Y40683D01*
X717223Y45761D01*
X727380D01*
X719762D01*
Y35604D01*
X812535Y46370D02*
X799839D01*
X797300Y43831D01*
Y38753D01*
X799839Y36213D01*
X812535D01*
X797300Y23517D02*
X812535D01*
X804918Y31135D01*
Y20978D01*
X797300Y15900D02*
X807457D01*
X812535Y10821D01*
X807457Y5743D01*
X797300D01*
X804918D01*
Y15900D01*
X667456Y-297995D02*
X677613Y-313230D01*
Y-297995D02*
X667456Y-313230D01*
X692848D02*
X682691D01*
X692848Y-303073D01*
Y-300534D01*
X690308Y-297995D01*
X685230D01*
X682691Y-300534D01*
X708083D02*
X705544Y-297995D01*
X700465D01*
X697926Y-300534D01*
Y-310691D01*
X700465Y-313230D01*
X705544D01*
X708083Y-310691D01*
X353155Y359670D02*
X340459D01*
X337920Y357131D01*
Y352052D01*
X340459Y349513D01*
X353155D01*
Y334278D02*
Y344435D01*
X345538D01*
X348077Y339357D01*
Y336817D01*
X345538Y334278D01*
X340459D01*
X337920Y336817D01*
Y341896D01*
X340459Y344435D01*
X318535Y-111930D02*
X305839D01*
X303300Y-114469D01*
Y-119548D01*
X305839Y-122087D01*
X318535D01*
X305839Y-127165D02*
X303300Y-129704D01*
Y-134783D01*
X305839Y-137322D01*
X315996D01*
X318535Y-134783D01*
Y-129704D01*
X315996Y-127165D01*
X313457D01*
X310918Y-129704D01*
Y-137322D01*
X711891Y-418080D02*
X724586D01*
X727126Y-415541D01*
Y-410462D01*
X724586Y-407923D01*
X711891D01*
X727126Y-392688D02*
Y-402845D01*
X716969Y-392688D01*
X714430D01*
X711891Y-395227D01*
Y-400306D01*
X714430Y-402845D01*
Y-377453D02*
X711891Y-379992D01*
Y-385071D01*
X714430Y-387610D01*
X724586D01*
X727126Y-385071D01*
Y-379992D01*
X724586Y-377453D01*
X535454Y-319345D02*
X548150D01*
X550689Y-316806D01*
Y-311728D01*
X548150Y-309189D01*
X535454D01*
X537993Y-304110D02*
X535454Y-301571D01*
Y-296493D01*
X537993Y-293953D01*
X540532D01*
X543072Y-296493D01*
Y-299032D01*
Y-296493D01*
X545611Y-293953D01*
X548150D01*
X550689Y-296493D01*
Y-301571D01*
X548150Y-304110D01*
X537993Y-278718D02*
X535454Y-281258D01*
Y-286336D01*
X537993Y-288875D01*
X548150D01*
X550689Y-286336D01*
Y-281258D01*
X548150Y-278718D01*
X812281Y-376844D02*
X799585D01*
X797046Y-379383D01*
Y-384462D01*
X799585Y-387001D01*
X812281D01*
X797046Y-399697D02*
X812281D01*
X804664Y-392079D01*
Y-402236D01*
X809742Y-417471D02*
X812281Y-414932D01*
Y-409853D01*
X809742Y-407314D01*
X799585D01*
X797046Y-409853D01*
Y-414932D01*
X799585Y-417471D01*
X318535Y-194680D02*
X305839D01*
X303300Y-197219D01*
Y-202298D01*
X305839Y-204837D01*
X318535D01*
X303300Y-209915D02*
Y-214993D01*
Y-212454D01*
X318535D01*
X315996Y-209915D01*
Y-222611D02*
X318535Y-225150D01*
Y-230229D01*
X315996Y-232768D01*
X305839D01*
X303300Y-230229D01*
Y-225150D01*
X305839Y-222611D01*
X315996D01*
X318535Y-28680D02*
X305839D01*
X303300Y-31219D01*
Y-36298D01*
X305839Y-38837D01*
X318535D01*
X315996Y-43915D02*
X318535Y-46454D01*
Y-51533D01*
X315996Y-54072D01*
X313457D01*
X310918Y-51533D01*
X308378Y-54072D01*
X305839D01*
X303300Y-51533D01*
Y-46454D01*
X305839Y-43915D01*
X308378D01*
X310918Y-46454D01*
X313457Y-43915D01*
X315996D01*
X310918Y-46454D02*
Y-51533D01*
X318535Y54320D02*
X305839D01*
X303300Y51781D01*
Y46702D01*
X305839Y44163D01*
X318535D01*
Y39085D02*
Y28928D01*
X315996D01*
X305839Y39085D01*
X303300D01*
X318535Y137320D02*
X305839D01*
X303300Y134781D01*
Y129703D01*
X305839Y127163D01*
X318535D01*
X303300Y122085D02*
Y117007D01*
Y119546D01*
X318535D01*
X315996Y122085D01*
X372050Y390765D02*
Y406000D01*
X361893D01*
X356815D02*
X351737D01*
X354276D01*
Y390765D01*
X356815Y393304D01*
X222947Y457046D02*
X220408Y459585D01*
X215329D01*
X212790Y457046D01*
Y446889D01*
X215329Y444350D01*
X220408D01*
X222947Y446889D01*
X228025Y457046D02*
X230564Y459585D01*
X235643D01*
X238182Y457046D01*
Y454507D01*
X235643Y451968D01*
X238182Y449428D01*
Y446889D01*
X235643Y444350D01*
X230564D01*
X228025Y446889D01*
Y449428D01*
X230564Y451968D01*
X228025Y454507D01*
Y457046D01*
X230564Y451968D02*
X235643D01*
X229046Y388053D02*
X231585Y390592D01*
Y395671D01*
X229046Y398210D01*
X218889D01*
X216350Y395671D01*
Y390592D01*
X218889Y388053D01*
Y382975D02*
X216350Y380436D01*
Y375357D01*
X218889Y372818D01*
X229046D01*
X231585Y375357D01*
Y380436D01*
X229046Y382975D01*
X226507D01*
X223968Y380436D01*
Y372818D01*
D67*
X924700Y-307616D02*
X929778Y-315233D01*
Y-307616D02*
X924700Y-315233D01*
X937396Y-307616D02*
X932318D01*
Y-311424D01*
X934857Y-310155D01*
X936126D01*
X937396Y-311424D01*
Y-313963D01*
X936126Y-315233D01*
X933587D01*
X932318Y-313963D01*
X924700Y-93238D02*
X929778Y-100856D01*
Y-93238D02*
X924700Y-100856D01*
X936126D02*
Y-93238D01*
X932318Y-97047D01*
X937396D01*
X924700Y122762D02*
X929778Y115144D01*
Y122762D02*
X924700Y115144D01*
X932318Y121492D02*
X933587Y122762D01*
X936126D01*
X937396Y121492D01*
Y120222D01*
X936126Y118953D01*
X934857D01*
X936126D01*
X937396Y117683D01*
Y116414D01*
X936126Y115144D01*
X933587D01*
X932318Y116414D01*
D68*
X732982Y-199836D02*
G03*
X732982Y-199836I-5000J0D01*
G01*
X556545Y-101101D02*
G03*
X556545Y-101101I-5000J0D01*
G01*
X806342Y-166740D02*
G03*
X806342Y-166740I-5000J0D01*
G01*
X556743Y107689D02*
G03*
X556743Y107689I-5000J0D01*
G01*
X733180Y8954D02*
G03*
X733180Y8954I-5000J0D01*
G01*
X806540Y42050D02*
G03*
X806540Y42050I-5000J0D01*
G01*
X337000Y355350D02*
G03*
X337000Y355350I-5000J0D01*
G01*
X307500Y-115750D02*
G03*
X307500Y-115750I-5000J0D01*
G01*
X732926Y-414260D02*
G03*
X732926Y-414260I-5000J0D01*
G01*
X556489Y-315525D02*
G03*
X556489Y-315525I-5000J0D01*
G01*
X806286Y-381164D02*
G03*
X806286Y-381164I-5000J0D01*
G01*
X307500Y-198500D02*
G03*
X307500Y-198500I-5000J0D01*
G01*
Y-32500D02*
G03*
X307500Y-32500I-5000J0D01*
G01*
Y50500D02*
G03*
X307500Y50500I-5000J0D01*
G01*
Y133500D02*
G03*
X307500Y133500I-5000J0D01*
G01*
X273500Y438000D02*
G03*
X273500Y438000I-31500J0D01*
G01*
X264800D02*
G03*
X264800Y438000I-22800J0D01*
G01*
X241500Y369000D02*
G03*
X241500Y369000I-31500J0D01*
G01*
X232800D02*
G03*
X232800Y369000I-22800J0D01*
G01*
X736982Y-208836D02*
Y-157836D01*
X691982D02*
X736982D01*
X691982Y-208836D02*
X736982D01*
X691982D02*
Y-157836D01*
X560545Y-110101D02*
Y-59101D01*
X515545D02*
X560545D01*
X515545Y-110101D02*
X560545D01*
X515545D02*
Y-59101D01*
X792342Y-207740D02*
Y-157740D01*
X832342D01*
X792342Y-207740D02*
X832342D01*
Y-157740D01*
X560743Y98689D02*
Y149689D01*
X515743D02*
X560743D01*
X515743Y98689D02*
X560743D01*
X515743D02*
Y149689D01*
X737180Y-46D02*
Y50954D01*
X692180D02*
X737180D01*
X692180Y-46D02*
X737180D01*
X692180D02*
Y50954D01*
X792540Y1050D02*
Y51050D01*
X832540D01*
X792540Y1050D02*
X832540D01*
Y51050D01*
X518628Y415540D02*
X581628D01*
X518628D02*
Y478540D01*
X581628D01*
Y415540D02*
Y478540D01*
X323000Y314350D02*
X363000D01*
X323000Y364350D02*
X363000D01*
Y314350D02*
Y364350D01*
X323000Y314350D02*
Y364350D01*
X338500Y-157750D02*
Y-106750D01*
X293500D02*
X338500D01*
X293500Y-157750D02*
X338500D01*
X293500D02*
Y-106750D01*
X691926Y-423260D02*
Y-372260D01*
Y-423260D02*
X736926D01*
X691926Y-372260D02*
X736926D01*
Y-423260D02*
Y-372260D01*
X515489Y-324525D02*
Y-273525D01*
Y-324525D02*
X560489D01*
X515489Y-273525D02*
X560489D01*
Y-324525D02*
Y-273525D01*
X832286Y-422164D02*
Y-372164D01*
X792286Y-422164D02*
X832286D01*
X792286Y-372164D02*
X832286D01*
X792286Y-422164D02*
Y-372164D01*
X338500Y-240500D02*
Y-189500D01*
X293500D02*
X338500D01*
X293500Y-240500D02*
X338500D01*
X293500D02*
Y-189500D01*
X338500Y-74500D02*
Y-23500D01*
X293500D02*
X338500D01*
X293500Y-74500D02*
X338500D01*
X293500D02*
Y-23500D01*
X338500Y8500D02*
Y59500D01*
X293500D02*
X338500D01*
X293500Y8500D02*
X338500D01*
X293500D02*
Y59500D01*
X338500Y91500D02*
Y142500D01*
X293500D02*
X338500D01*
X293500Y91500D02*
X338500D01*
X293500D02*
Y142500D01*
X529793Y469871D02*
X528627Y471038D01*
X526294D01*
X525128Y469871D01*
Y468705D01*
X526294Y467539D01*
X528627D01*
X529793Y466373D01*
Y465206D01*
X528627Y464040D01*
X526294D01*
X525128Y465206D01*
X535625Y464040D02*
X533292D01*
X532126Y465206D01*
Y467539D01*
X533292Y468705D01*
X535625D01*
X536791Y467539D01*
Y466373D01*
X532126D01*
X539123Y468705D02*
Y464040D01*
Y466373D01*
X540290Y467539D01*
X541456Y468705D01*
X542622D01*
X546121Y464040D02*
X548454D01*
X547288D01*
Y468705D01*
X546121D01*
X553119D02*
X555452D01*
X556618Y467539D01*
Y464040D01*
X553119D01*
X551953Y465206D01*
X553119Y466373D01*
X556618D01*
X558951Y464040D02*
X561283D01*
X560117D01*
Y471038D01*
X558951D01*
X564782Y464040D02*
Y471038D01*
X569447Y464040D01*
Y471038D01*
X571780Y468705D02*
Y464040D01*
Y466373D01*
X572946Y467539D01*
X574112Y468705D01*
X575279D01*
D69*
X377130Y369170D02*
Y417430D01*
X328870D02*
X377130D01*
X328870Y369170D02*
X377130D01*
X328870D02*
Y417430D01*
M02*
