G04*
G04 #@! TF.GenerationSoftware,Altium Limited,Altium Designer,20.1.11 (218)*
G04*
G04 Layer_Color=0*
%FSLAX44Y44*%
%MOMM*%
G71*
G04*
G04 #@! TF.SameCoordinates,6A4551F0-0C6C-4C7A-9067-02AC85F7A24C*
G04*
G04*
G04 #@! TF.FilePolarity,Positive*
G04*
G01*
G75*
%ADD71C,0.0254*%
D71*
X158530Y-182318D02*
G03*
X148530Y-192318I0J-10000D01*
G01*
X87930Y-207318D02*
G03*
X77930Y-217318I0J-10000D01*
G01*
X73930Y-227318D02*
G03*
X77930Y-223318I0J4000D01*
G01*
X60132Y-192318D02*
G03*
X50131Y-182318I-10000J0D01*
G01*
X52130Y-28068D02*
G03*
X52130Y-4068I0J12000D01*
G01*
X50131Y182182D02*
G03*
X60132Y192182I0J10000D01*
G01*
X77930Y223182D02*
G03*
X73930Y227182I-4000J0D01*
G01*
X77930Y217182D02*
G03*
X87930Y207182I10000J0D01*
G01*
X148530Y192182D02*
G03*
X158530Y182182I10000J0D01*
G01*
Y-182318D02*
X185793D01*
X148530Y-207318D02*
Y-192318D01*
X87930Y-207318D02*
X148530D01*
X77930Y-223318D02*
Y-217318D01*
X60132Y-227318D02*
X73930D01*
X60132D02*
Y-192318D01*
X7924Y-182318D02*
X50131D01*
X130D02*
X7924D01*
X130D02*
Y-28068D01*
X7924D01*
X52130D01*
X7924Y-4068D02*
X52130D01*
X130D02*
X7924D01*
X130D02*
Y182182D01*
X7924D01*
X50131D01*
X60132Y192182D02*
Y227182D01*
X73930D01*
X77930Y217182D02*
Y223182D01*
X87930Y207182D02*
X148530D01*
Y192182D02*
Y207182D01*
X158530Y182182D02*
X185793D01*
M02*
