G04*
G04 #@! TF.GenerationSoftware,Altium Limited,Altium Designer,20.1.11 (218)*
G04*
G04 Layer_Physical_Order=4*
G04 Layer_Color=16711680*
%FSLAX44Y44*%
%MOMM*%
G71*
G04*
G04 #@! TF.SameCoordinates,6A4551F0-0C6C-4C7A-9067-02AC85F7A24C*
G04*
G04*
G04 #@! TF.FilePolarity,Positive*
G04*
G01*
G75*
%ADD17C,0.5080*%
%ADD20C,0.2540*%
%ADD37R,2.8000X0.5500*%
%ADD56C,0.1778*%
%ADD57C,0.5334*%
%ADD58C,0.9000*%
%ADD59C,2.5400*%
%ADD60C,1.5240*%
%ADD61R,1.5000X1.5000*%
%ADD62C,1.5000*%
%ADD63C,1.3000*%
%ADD64C,0.4500*%
%ADD65C,0.6000*%
%ADD66C,0.5000*%
G36*
X979170Y157480D02*
Y-335280D01*
X951230Y-363220D01*
X902970D01*
X868680Y-328930D01*
X868680Y130810D01*
X808990Y190500D01*
X544068D01*
X542582Y191294D01*
X539326Y192282D01*
X535940Y192616D01*
X532554Y192282D01*
X529298Y191294D01*
X527812Y190500D01*
X260350D01*
X220980Y151130D01*
X45291D01*
X44093Y151930D01*
X41932Y152360D01*
X40640Y152103D01*
X39370Y153074D01*
Y159912D01*
X39400D01*
Y160440D01*
X39541Y162416D01*
X40623Y163498D01*
X40676D01*
X42288Y162421D01*
X44450Y161992D01*
X46612Y162421D01*
X48444Y163646D01*
X49669Y165478D01*
X50099Y167640D01*
X49669Y169802D01*
X48444Y171634D01*
X46612Y172859D01*
X44450Y173288D01*
X42288Y172859D01*
X41347Y172230D01*
X40301Y173058D01*
X40588Y177071D01*
X50001D01*
X50128Y177096D01*
X50255Y177077D01*
X51236Y177125D01*
X51608Y177218D01*
X51992D01*
X53915Y177601D01*
X54386Y177796D01*
X54886Y177896D01*
X56697Y178646D01*
X57122Y178929D01*
X57593Y179124D01*
X59223Y180213D01*
X59584Y180574D01*
X60008Y180858D01*
X61394Y182244D01*
X61677Y182668D01*
X62038Y183029D01*
X63127Y184658D01*
X63322Y185130D01*
X63606Y185554D01*
X64356Y187365D01*
X64455Y187865D01*
X64651Y188337D01*
X65033Y190259D01*
Y190643D01*
X65126Y191016D01*
X65175Y191996D01*
X65156Y192123D01*
X65181Y192250D01*
Y208691D01*
X71528Y215038D01*
X72897Y214611D01*
X73151Y213337D01*
X73346Y212865D01*
X73445Y212365D01*
X74196Y210554D01*
X74479Y210130D01*
X74674Y209658D01*
X75763Y208029D01*
X76124Y207668D01*
X76407Y207244D01*
X77794Y205858D01*
X78218Y205574D01*
X78579Y205213D01*
X80208Y204124D01*
X80680Y203929D01*
X81104Y203646D01*
X82915Y202896D01*
X83415Y202796D01*
X83887Y202601D01*
X85809Y202218D01*
X86193D01*
X86566Y202125D01*
X87546Y202077D01*
X87674Y202096D01*
X87800Y202071D01*
X148400D01*
X150382Y202465D01*
X152062Y203588D01*
X153185Y205268D01*
X153579Y207250D01*
Y294603D01*
X153670Y294640D01*
X268823D01*
X269101Y293240D01*
X270326Y291408D01*
X272158Y290183D01*
X274320Y289753D01*
X276482Y290183D01*
X278314Y291408D01*
X279539Y293240D01*
X279817Y294640D01*
X319623D01*
X319901Y293240D01*
X321126Y291408D01*
X322958Y290183D01*
X325120Y289753D01*
X327282Y290183D01*
X329114Y291408D01*
X330339Y293240D01*
X330617Y294640D01*
X421223D01*
X421501Y293240D01*
X422726Y291408D01*
X424558Y290183D01*
X426720Y289753D01*
X428882Y290183D01*
X430714Y291408D01*
X431939Y293240D01*
X432217Y294640D01*
X472023D01*
X472301Y293240D01*
X473526Y291408D01*
X475358Y290183D01*
X477520Y289753D01*
X479682Y290183D01*
X481514Y291408D01*
X482739Y293240D01*
X483017Y294640D01*
X573623D01*
X573901Y293240D01*
X575126Y291408D01*
X576958Y290183D01*
X579120Y289753D01*
X581282Y290183D01*
X583114Y291408D01*
X584339Y293240D01*
X584617Y294640D01*
X624423D01*
X624701Y293240D01*
X625926Y291408D01*
X627758Y290183D01*
X629920Y289753D01*
X632082Y290183D01*
X633914Y291408D01*
X635139Y293240D01*
X635417Y294640D01*
X842010D01*
X979170Y157480D01*
D02*
G37*
%LPC*%
G36*
X345440Y279968D02*
X343278Y279539D01*
X341446Y278314D01*
X340544D01*
X338712Y279539D01*
X336550Y279968D01*
X334388Y279539D01*
X332556Y278314D01*
X331331Y276482D01*
X330901Y274320D01*
X331331Y272158D01*
X332556Y270326D01*
X334388Y269101D01*
X336550Y268671D01*
X338712Y269101D01*
X339772Y269810D01*
X340426Y269606D01*
X340826Y268497D01*
X340221Y267592D01*
X339791Y265430D01*
X340221Y263268D01*
X341446Y261436D01*
X343278Y260211D01*
X345440Y259781D01*
X347602Y260211D01*
X349434Y261436D01*
X350659Y263268D01*
X351088Y265430D01*
X350659Y267592D01*
X349434Y269424D01*
Y270326D01*
X350659Y272158D01*
X351088Y274320D01*
X350659Y276482D01*
X349434Y278314D01*
X347602Y279539D01*
X345440Y279968D01*
D02*
G37*
G36*
X299720Y250250D02*
X297558Y249821D01*
X295726Y248596D01*
X294501Y246764D01*
X294072Y244602D01*
X294501Y242440D01*
X295726Y240608D01*
X297558Y239383D01*
X299720Y238953D01*
X301882Y239383D01*
X303714Y240608D01*
X304939Y242440D01*
X305368Y244602D01*
X304939Y246764D01*
X303714Y248596D01*
X301882Y249821D01*
X299720Y250250D01*
D02*
G37*
G36*
X198120D02*
X195958Y249821D01*
X194126Y248596D01*
X192901Y246764D01*
X192472Y244602D01*
X192901Y242440D01*
X194126Y240608D01*
X195958Y239383D01*
X198120Y238953D01*
X200282Y239383D01*
X202114Y240608D01*
X203339Y242440D01*
X203769Y244602D01*
X203339Y246764D01*
X202114Y248596D01*
X200282Y249821D01*
X198120Y250250D01*
D02*
G37*
G36*
X942400Y145141D02*
X939217Y144722D01*
X936251Y143494D01*
X933705Y141539D01*
X931750Y138993D01*
X930522Y136027D01*
X930340Y134649D01*
X929060D01*
X928878Y136027D01*
X927650Y138993D01*
X925695Y141539D01*
X923149Y143494D01*
X920183Y144722D01*
X917000Y145141D01*
X913817Y144722D01*
X910851Y143494D01*
X908305Y141539D01*
X906350Y138993D01*
X905122Y136027D01*
X904703Y132844D01*
X905122Y129661D01*
X906350Y126695D01*
X908305Y124149D01*
X910851Y122194D01*
X913817Y120966D01*
X917000Y120547D01*
X920183Y120966D01*
X923149Y122194D01*
X925695Y124149D01*
X927650Y126695D01*
X928878Y129661D01*
X929060Y131039D01*
X930340D01*
X930522Y129661D01*
X931750Y126695D01*
X933705Y124149D01*
X936251Y122194D01*
X939217Y120966D01*
X942400Y120547D01*
X945583Y120966D01*
X948549Y122194D01*
X951095Y124149D01*
X953050Y126695D01*
X954278Y129661D01*
X954697Y132844D01*
X954278Y136027D01*
X953050Y138993D01*
X951095Y141539D01*
X948549Y143494D01*
X945583Y144722D01*
X942400Y145141D01*
D02*
G37*
G36*
Y-70859D02*
X939217Y-71278D01*
X936251Y-72506D01*
X933705Y-74461D01*
X931750Y-77007D01*
X930522Y-79973D01*
X930340Y-81351D01*
X929060D01*
X928878Y-79973D01*
X927650Y-77007D01*
X925695Y-74461D01*
X923149Y-72506D01*
X920183Y-71278D01*
X917000Y-70859D01*
X913817Y-71278D01*
X910851Y-72506D01*
X908305Y-74461D01*
X906350Y-77007D01*
X905122Y-79973D01*
X904703Y-83156D01*
X905122Y-86339D01*
X906350Y-89305D01*
X908305Y-91851D01*
X910851Y-93806D01*
X913817Y-95034D01*
X917000Y-95453D01*
X920183Y-95034D01*
X923149Y-93806D01*
X925695Y-91851D01*
X927650Y-89305D01*
X928878Y-86339D01*
X929060Y-84961D01*
X930340D01*
X930522Y-86339D01*
X931750Y-89305D01*
X933705Y-91851D01*
X936251Y-93806D01*
X939217Y-95034D01*
X942400Y-95453D01*
X945583Y-95034D01*
X948549Y-93806D01*
X951095Y-91851D01*
X953050Y-89305D01*
X954278Y-86339D01*
X954697Y-83156D01*
X954278Y-79973D01*
X953050Y-77007D01*
X951095Y-74461D01*
X948549Y-72506D01*
X945583Y-71278D01*
X942400Y-70859D01*
D02*
G37*
G36*
Y-285236D02*
X939217Y-285655D01*
X936251Y-286883D01*
X933705Y-288838D01*
X931750Y-291384D01*
X930522Y-294350D01*
X930340Y-295728D01*
X929060D01*
X928878Y-294350D01*
X927650Y-291384D01*
X925695Y-288838D01*
X923149Y-286883D01*
X920183Y-285655D01*
X917000Y-285236D01*
X913817Y-285655D01*
X910851Y-286883D01*
X908305Y-288838D01*
X906350Y-291384D01*
X905122Y-294350D01*
X904703Y-297533D01*
X905122Y-300716D01*
X906350Y-303682D01*
X908305Y-306228D01*
X910851Y-308183D01*
X913817Y-309411D01*
X917000Y-309830D01*
X920183Y-309411D01*
X923149Y-308183D01*
X925695Y-306228D01*
X927650Y-303682D01*
X928878Y-300716D01*
X929060Y-299338D01*
X930340D01*
X930522Y-300716D01*
X931750Y-303682D01*
X933705Y-306228D01*
X936251Y-308183D01*
X939217Y-309411D01*
X942400Y-309830D01*
X945583Y-309411D01*
X948549Y-308183D01*
X951095Y-306228D01*
X953050Y-303682D01*
X954278Y-300716D01*
X954697Y-297533D01*
X954278Y-294350D01*
X953050Y-291384D01*
X951095Y-288838D01*
X948549Y-286883D01*
X945583Y-285655D01*
X942400Y-285236D01*
D02*
G37*
%LPD*%
D17*
X382730Y327050D02*
Y336598D01*
X323850Y391160D02*
X324026Y390984D01*
X328344D01*
X382730Y336598D01*
D20*
X80390Y-44068D02*
X93726Y-57404D01*
X24130Y-44068D02*
X80390D01*
X451054Y-205486D02*
X556006Y-310438D01*
X356362Y-205486D02*
X451054D01*
X731498Y-419658D02*
X732028D01*
X643069Y-417154D02*
X728994D01*
X731498Y-419658D01*
X633707Y-426516D02*
X643069Y-417154D01*
X489966Y-395274D02*
X542238D01*
X573480Y-426516D01*
X633707D01*
X611886Y-407974D02*
X635508Y-384352D01*
X732028D01*
X540766Y-325678D02*
X556006Y-310438D01*
X540766Y-362254D02*
Y-325678D01*
X538734Y-364286D02*
X540766Y-362254D01*
X535686Y-272592D02*
Y-247954D01*
Y-272592D02*
X555498Y-292404D01*
X518801Y-288727D02*
X519176Y-289102D01*
X459619Y-288727D02*
X518801D01*
X456946Y-286054D02*
X459619Y-288727D01*
X511143Y-310089D02*
X518668Y-302564D01*
X445910Y-310089D02*
X511143D01*
X434386Y-321614D02*
X445910Y-310089D01*
X434086Y-321614D02*
X434386D01*
X357378Y-39624D02*
X399758Y-82004D01*
Y-107858D02*
Y-82004D01*
Y-107858D02*
X441762Y-149862D01*
X573536Y-212092D02*
X633763D01*
X611942Y-193550D02*
X635564Y-169928D01*
X535742Y-58168D02*
X555554Y-77980D01*
X540822Y-111254D02*
X556062Y-96014D01*
X542294Y-180850D02*
X573536Y-212092D01*
X635564Y-169928D02*
X732084D01*
X643125Y-202730D02*
X729050D01*
X459675Y-74303D02*
X518857D01*
X445966Y-95666D02*
X511199D01*
X441762Y-149862D02*
X538790D01*
X490022Y-180850D02*
X542294D01*
X633763Y-212092D02*
X643125Y-202730D01*
X511199Y-95666D02*
X518724Y-88140D01*
X535742Y-58168D02*
Y-33530D01*
X540822Y-147830D02*
Y-111254D01*
X731554Y-205234D02*
X732084D01*
X729050Y-202730D02*
X731554Y-205234D01*
X538790Y-149862D02*
X540822Y-147830D01*
X518857Y-74303D02*
X519232Y-74678D01*
X457002Y-71630D02*
X459675Y-74303D01*
X434442Y-107190D02*
X445966Y-95666D01*
X434142Y-107190D02*
X434442D01*
X542492Y27940D02*
X573734Y-3302D01*
X490220Y27940D02*
X542492D01*
X573734Y-3302D02*
X633961D01*
X643323Y6060D01*
X729248D01*
X731752Y3556D02*
X732282D01*
X729248Y6060D02*
X731752Y3556D01*
X612140Y15240D02*
X635762Y38862D01*
X732282D01*
X434340Y101600D02*
X434640D01*
X446164Y113125D01*
X511396D01*
X518922Y120650D01*
X457200Y137160D02*
X459873Y134487D01*
X519055D01*
X519430Y134112D01*
X535940Y150622D02*
Y175260D01*
Y150622D02*
X555752Y130810D01*
X541020Y60960D02*
Y97536D01*
X556260Y112776D01*
X356855Y126717D02*
X374171D01*
X441960Y58928D02*
X538988D01*
X374171Y126717D02*
X441960Y58928D01*
X538988D02*
X541020Y60960D01*
X105040Y51932D02*
X112014Y44958D01*
X24130Y51932D02*
X105040D01*
X24130Y3932D02*
X59314D01*
X89408Y-39116D02*
Y-26162D01*
X59314Y3932D02*
X89408Y-26162D01*
X260604Y-412242D02*
X287020Y-385826D01*
X256848Y-326390D02*
X287020Y-356562D01*
Y-385826D02*
Y-356562D01*
X222675Y-316738D02*
X232327Y-326390D01*
X256848D01*
X260604Y-386842D02*
X281940Y-365506D01*
Y-356870D01*
X256794Y-331724D02*
X281940Y-356870D01*
X216029Y-316738D02*
X231015Y-331724D01*
X256794D01*
X210641Y-322655D02*
Y-221055D01*
X225396Y-337410D02*
X236572D01*
X210641Y-322655D02*
X225396Y-337410D01*
X236572D02*
X260604Y-361442D01*
X204894Y-331132D02*
X235204Y-361442D01*
X204894Y-331132D02*
Y-223436D01*
X198249Y-349887D02*
X235204Y-386842D01*
X193040Y-370078D02*
X235204Y-412242D01*
X193040Y-370078D02*
Y-228346D01*
X57526Y-76068D02*
X204894Y-223436D01*
X70488Y-98428D02*
X198249Y-226189D01*
X128762Y-164068D02*
X193040Y-228346D01*
X47628Y-48562D02*
X55166D01*
X44122Y-52068D02*
X47628Y-48562D01*
X24130Y-52068D02*
X44122D01*
X52070Y-55372D02*
X52578D01*
X24130Y-68068D02*
X57654D01*
X24130Y-76068D02*
X57526D01*
X49625Y-98428D02*
X70488D01*
X24130Y-164068D02*
X128762D01*
X222675Y-316738D02*
Y-216071D01*
X55166Y-48562D02*
X222675Y-216071D01*
X216029Y-316738D02*
Y-218824D01*
X52578Y-55372D02*
X216029Y-218824D01*
X57654Y-68068D02*
X210641Y-221055D01*
X198249Y-349887D02*
Y-226189D01*
X24130Y-172068D02*
X75912D01*
X87884Y-184040D01*
X24130Y11932D02*
X62236D01*
X114300Y-40132D01*
X24130Y27932D02*
X44453D01*
X51263Y21122D01*
X24130Y35932D02*
X81582D01*
X88392Y29122D01*
X24130Y59932D02*
X121445D01*
X128408Y52970D01*
X257919Y58420D02*
X332740D01*
X254000Y62339D02*
X257919Y58420D01*
X24130Y75932D02*
X45797D01*
X48529Y73200D01*
X49465D01*
X24130Y83932D02*
X130698D01*
X135890Y78740D01*
X24130Y99932D02*
X24566Y99496D01*
X70684D01*
X71120Y99060D01*
X24130Y107932D02*
X24139Y107941D01*
X55871D01*
X55880Y107950D01*
X260960Y21590D02*
X332740D01*
X254000Y-103500D02*
X329894D01*
X331804Y-105410D01*
X332740D01*
X260960Y-149860D02*
X332740D01*
X588010Y292100D02*
Y351790D01*
X586740Y290830D02*
X588010Y292100D01*
X352250Y427990D02*
X407670Y372570D01*
Y341630D02*
Y372570D01*
D37*
X24130Y-172068D02*
D03*
Y-164068D02*
D03*
Y-156068D02*
D03*
Y-148068D02*
D03*
Y-140068D02*
D03*
Y-132068D02*
D03*
Y-124068D02*
D03*
Y-116068D02*
D03*
Y-108068D02*
D03*
Y-100068D02*
D03*
Y-92068D02*
D03*
Y-84068D02*
D03*
Y-76068D02*
D03*
Y-68068D02*
D03*
Y-60068D02*
D03*
Y-52068D02*
D03*
Y-44068D02*
D03*
Y-36068D02*
D03*
Y3932D02*
D03*
Y11932D02*
D03*
Y19932D02*
D03*
Y27932D02*
D03*
Y35932D02*
D03*
Y43932D02*
D03*
Y51932D02*
D03*
Y59932D02*
D03*
Y67932D02*
D03*
Y75932D02*
D03*
Y83932D02*
D03*
Y91932D02*
D03*
Y99932D02*
D03*
Y107932D02*
D03*
Y115932D02*
D03*
Y123932D02*
D03*
Y131932D02*
D03*
Y139932D02*
D03*
Y147932D02*
D03*
Y155932D02*
D03*
Y163932D02*
D03*
Y171932D02*
D03*
D56*
X657521Y-293674D02*
X657997D01*
X687776Y-313347D02*
Y-311960D01*
X679202Y-321921D02*
X687776Y-313347D01*
X665226Y-316534D02*
X670613Y-321921D01*
X679202D01*
X665115Y-316086D02*
X665226Y-316197D01*
X660400Y-296907D02*
Y-296077D01*
Y-296907D02*
X665115Y-301622D01*
X657997Y-293674D02*
X660400Y-296077D01*
X665226Y-316534D02*
Y-316197D01*
X665115Y-316086D02*
Y-301622D01*
X773937Y-317043D02*
Y-295134D01*
X768102Y-289299D02*
X773937Y-295134D01*
X766826Y-324154D02*
X773937Y-317043D01*
X766826Y-330821D02*
Y-324154D01*
X759850Y-289299D02*
X768102D01*
X751276Y-297873D02*
X759850Y-289299D01*
X751276Y-299260D02*
Y-297873D01*
X751332Y-83449D02*
X759906Y-74875D01*
X670669Y-107497D02*
X679258D01*
X773993Y-102619D02*
Y-80710D01*
X766882Y-116397D02*
Y-109730D01*
X665171Y-101662D02*
Y-87198D01*
X768158Y-74875D02*
X773993Y-80710D01*
X759906Y-74875D02*
X768158D01*
X766882Y-109730D02*
X773993Y-102619D01*
X751332Y-84836D02*
Y-83449D01*
X687832Y-98923D02*
Y-97536D01*
X679258Y-107497D02*
X687832Y-98923D01*
X657577Y-79250D02*
X658054D01*
X660456Y-82483D02*
Y-81653D01*
Y-82483D02*
X665171Y-87198D01*
X658054Y-79250D02*
X660456Y-81653D01*
X665282Y-102110D02*
X670669Y-107497D01*
X665171Y-101662D02*
X665282Y-101773D01*
Y-102110D02*
Y-101773D01*
X665369Y107128D02*
Y121592D01*
X660654Y126307D02*
X665369Y121592D01*
X657775Y129540D02*
X658251D01*
X660654Y127137D01*
Y126307D02*
Y127137D01*
X767080Y92393D02*
Y99060D01*
X774191Y106171D01*
X751530Y123954D02*
Y125341D01*
X760104Y133915D01*
X768356D01*
X774191Y128080D01*
Y106171D02*
Y128080D01*
X665369Y107128D02*
X665480Y107017D01*
Y106680D02*
Y107017D01*
X688030Y109867D02*
Y111254D01*
X679456Y101293D02*
X688030Y109867D01*
X670867Y101293D02*
X679456D01*
X665480Y106680D02*
X670867Y101293D01*
D57*
X24130Y-156068D02*
X24201Y-156139D01*
X41839D01*
X41910Y-156210D01*
X24130Y-132068D02*
X24136Y-132074D01*
X41904D01*
X41910Y-132080D01*
X24130Y-108068D02*
X24189Y-108009D01*
X41851D01*
X41910Y-107950D01*
X24130Y-84068D02*
X24213Y-83985D01*
X41565D01*
X41730Y-83820D01*
X41910D01*
X24130Y-60068D02*
X24213Y-59985D01*
X41435D01*
X41730Y-59690D01*
X41910D01*
X24130Y-36068D02*
X24136Y-36074D01*
X41904D01*
X41910Y-36080D01*
X24130Y19932D02*
X24213Y19849D01*
X40931D01*
X41730Y19050D01*
X41910D01*
X24130Y43932D02*
X24213Y44015D01*
X41295D01*
X41730Y44450D01*
X41910D01*
X24130Y67932D02*
X24213Y67849D01*
X41191D01*
X41730Y67310D01*
X41910D01*
X24130Y91932D02*
X24213Y91849D01*
X41321D01*
X41730Y91440D01*
X41910D01*
X24130Y115932D02*
X24213Y115849D01*
X41451D01*
X41730Y115570D01*
X41910D01*
X24130Y131932D02*
X24204Y132006D01*
X41836D01*
X41910Y132080D01*
X24130Y147932D02*
X24213Y147849D01*
X40614D01*
X41751Y146712D01*
X41932D01*
X24130Y163932D02*
X35380D01*
X38961Y167513D01*
X44323D01*
X44450Y167640D01*
X24130Y171932D02*
X35380D01*
X39545Y167767D01*
X44323D01*
X44450Y167640D01*
X24130Y155932D02*
X24213Y156015D01*
X42805D01*
X43000Y156210D01*
X43180D01*
D58*
X764032Y-84836D02*
D03*
Y-97536D02*
D03*
X751332Y-84836D02*
D03*
Y-97536D02*
D03*
X738632Y-84836D02*
D03*
Y-97536D02*
D03*
X725932Y-84836D02*
D03*
Y-97536D02*
D03*
X713232Y-84836D02*
D03*
Y-97536D02*
D03*
X700532Y-84836D02*
D03*
Y-97536D02*
D03*
X687832Y-84836D02*
D03*
Y-97536D02*
D03*
X675132Y-84836D02*
D03*
Y-97536D02*
D03*
X764230Y123954D02*
D03*
Y111254D02*
D03*
X751530Y123954D02*
D03*
Y111254D02*
D03*
X738830Y123954D02*
D03*
Y111254D02*
D03*
X726130Y123954D02*
D03*
Y111254D02*
D03*
X713430Y123954D02*
D03*
Y111254D02*
D03*
X700730Y123954D02*
D03*
Y111254D02*
D03*
X688030Y123954D02*
D03*
Y111254D02*
D03*
X675330Y123954D02*
D03*
Y111254D02*
D03*
X763976Y-299260D02*
D03*
Y-311960D02*
D03*
X751276Y-299260D02*
D03*
Y-311960D02*
D03*
X738576Y-299260D02*
D03*
Y-311960D02*
D03*
X725876Y-299260D02*
D03*
Y-311960D02*
D03*
X713176Y-299260D02*
D03*
Y-311960D02*
D03*
X700476Y-299260D02*
D03*
Y-311960D02*
D03*
X687776Y-299260D02*
D03*
Y-311960D02*
D03*
X675076Y-299260D02*
D03*
Y-311960D02*
D03*
D59*
X490022Y-180850D02*
D03*
X611942Y-193550D02*
D03*
X576382Y-170690D02*
D03*
X540822Y-147830D02*
D03*
X535742Y-33530D02*
D03*
X457002Y-71630D02*
D03*
X434142Y-107190D02*
D03*
X535742Y-208790D02*
D03*
X457200Y137160D02*
D03*
X535940Y175260D02*
D03*
Y0D02*
D03*
X434340Y101600D02*
D03*
X576580Y38100D02*
D03*
X541020Y60960D02*
D03*
X490220Y27940D02*
D03*
X612140Y15240D02*
D03*
X434086Y-321614D02*
D03*
X456946Y-286054D02*
D03*
X576326Y-385114D02*
D03*
X535686Y-247954D02*
D03*
X540766Y-362254D02*
D03*
X611886Y-407974D02*
D03*
X489966Y-395274D02*
D03*
X535686Y-423214D02*
D03*
X305000Y457000D02*
D03*
X239000Y249000D02*
D03*
X443230Y457000D02*
D03*
D60*
X942400Y-322933D02*
D03*
X917000D02*
D03*
X942400Y-297533D02*
D03*
X917000D02*
D03*
X942400Y-108556D02*
D03*
X917000D02*
D03*
X942400Y-83156D02*
D03*
X917000D02*
D03*
X942400Y107444D02*
D03*
X917000D02*
D03*
X942400Y132844D02*
D03*
X917000D02*
D03*
D61*
X235204Y-361442D02*
D03*
D62*
X260604D02*
D03*
X235204Y-386842D02*
D03*
X260604D02*
D03*
X235204Y-412242D02*
D03*
X260604D02*
D03*
D63*
X229500Y438000D02*
D03*
X254500D02*
D03*
X210000Y381500D02*
D03*
Y356500D02*
D03*
D64*
X93726Y-57404D02*
D03*
X356362Y-205486D02*
D03*
X487426Y-331774D02*
D03*
X503523Y-345258D02*
D03*
X700786Y-423214D02*
D03*
X690549Y-441007D02*
D03*
X822706Y-372414D02*
D03*
X832922Y-352046D02*
D03*
X733786Y-400377D02*
D03*
X733806Y-374954D02*
D03*
X695706Y-395274D02*
D03*
X556006Y-301294D02*
D03*
Y-275894D02*
D03*
X526034Y-295706D02*
D03*
X827786Y-415594D02*
D03*
X657521Y-293674D02*
D03*
X670306Y-277568D02*
D03*
X665226Y-327600D02*
D03*
X728726Y-329234D02*
D03*
X741426D02*
D03*
X766826Y-330821D02*
D03*
X732028Y-419658D02*
D03*
Y-384352D02*
D03*
X556006Y-310438D02*
D03*
X555498Y-292404D02*
D03*
X519176Y-289102D02*
D03*
X518668Y-302564D02*
D03*
X357378Y-39624D02*
D03*
X732084Y-169928D02*
D03*
X832978Y-137622D02*
D03*
X733862Y-160530D02*
D03*
X733842Y-185953D02*
D03*
X732084Y-205234D02*
D03*
X670362Y-63144D02*
D03*
X695762Y-180850D02*
D03*
X690605Y-226583D02*
D03*
X487482Y-117350D02*
D03*
X665282Y-113176D02*
D03*
X518724Y-88140D02*
D03*
X503580Y-130834D02*
D03*
X822762Y-157990D02*
D03*
X827842Y-201170D02*
D03*
X766882Y-116397D02*
D03*
X741482Y-114810D02*
D03*
X728782D02*
D03*
X700842Y-208790D02*
D03*
X657577Y-79250D02*
D03*
X556062Y-61470D02*
D03*
Y-86870D02*
D03*
X555554Y-77980D02*
D03*
X556062Y-96014D02*
D03*
X526090Y-81282D02*
D03*
X519232Y-74678D02*
D03*
X732282Y3556D02*
D03*
Y38862D02*
D03*
X556260Y112776D02*
D03*
X555752Y130810D02*
D03*
X519430Y134112D02*
D03*
X526288Y127508D02*
D03*
X518922Y120650D02*
D03*
X356855Y126717D02*
D03*
X657775Y129540D02*
D03*
X741680Y93980D02*
D03*
X728980D02*
D03*
X767080Y92393D02*
D03*
X828040Y7620D02*
D03*
X822960Y50800D02*
D03*
X833176Y71168D02*
D03*
X734040Y22837D02*
D03*
X734060Y48260D02*
D03*
X695960Y27940D02*
D03*
X701040Y0D02*
D03*
X690803Y-17793D02*
D03*
X556260Y147320D02*
D03*
Y121920D02*
D03*
X487680Y91440D02*
D03*
X503777Y77956D02*
D03*
X665480Y95614D02*
D03*
X670560Y145646D02*
D03*
D65*
X112014Y44958D02*
D03*
X52070Y-55372D02*
D03*
X49625Y-98428D02*
D03*
X87884Y-184040D02*
D03*
X106172Y-184040D02*
D03*
X133604Y-191262D02*
D03*
X89408Y-39116D02*
D03*
X114300Y-40132D02*
D03*
X51263Y21122D02*
D03*
X88392Y29122D02*
D03*
X128408Y52970D02*
D03*
X332740Y58420D02*
D03*
X49465Y73200D02*
D03*
X135890Y78740D02*
D03*
X71120Y99060D02*
D03*
X55880Y107950D02*
D03*
X254000Y62339D02*
D03*
X41910Y-156210D02*
D03*
Y-132080D02*
D03*
Y-107950D02*
D03*
Y-83820D02*
D03*
Y-59690D02*
D03*
Y-36080D02*
D03*
Y19050D02*
D03*
Y44450D02*
D03*
Y67310D02*
D03*
Y91440D02*
D03*
Y115570D02*
D03*
Y132080D02*
D03*
X41932Y146712D02*
D03*
X44450Y167640D02*
D03*
X332740Y21590D02*
D03*
X260960D02*
D03*
X332740Y-105410D02*
D03*
X254000Y-103500D02*
D03*
X332740Y-149860D02*
D03*
X260960D02*
D03*
X254000Y-236220D02*
D03*
X254025Y-186651D02*
D03*
X253684Y-169765D02*
D03*
X254000Y-69850D02*
D03*
Y-20320D02*
D03*
Y-3810D02*
D03*
Y96520D02*
D03*
X253507Y145236D02*
D03*
X313690Y153670D02*
D03*
X355600Y148590D02*
D03*
X374650Y137160D02*
D03*
X356870Y97790D02*
D03*
X313690Y71120D02*
D03*
X354330Y66040D02*
D03*
X374650Y54610D02*
D03*
X356870Y15240D02*
D03*
X313690Y-11430D02*
D03*
X355600Y-15240D02*
D03*
X374650Y-27940D02*
D03*
X355600Y-68580D02*
D03*
X313690Y-95250D02*
D03*
X355600Y-100330D02*
D03*
X374650Y-111760D02*
D03*
X355600Y-151130D02*
D03*
X313690Y-177800D02*
D03*
X355600Y-181610D02*
D03*
X335280Y-233680D02*
D03*
X374650Y-193040D02*
D03*
X277960Y365460D02*
D03*
X293878D02*
D03*
X309795D02*
D03*
X325713D02*
D03*
X341630D02*
D03*
X629920Y295402D02*
D03*
X579120D02*
D03*
X502920Y447802D02*
D03*
Y346202D02*
D03*
X477520Y397002D02*
D03*
X452120Y346202D02*
D03*
X477520Y295402D02*
D03*
X401320Y447802D02*
D03*
X426720Y397002D02*
D03*
Y295402D02*
D03*
X325120D02*
D03*
X299720Y244602D02*
D03*
X274320Y295402D02*
D03*
X198120Y447802D02*
D03*
X223520Y397002D02*
D03*
X198120Y244602D02*
D03*
X312420Y422402D02*
D03*
X306070Y435102D02*
D03*
X299720Y422402D02*
D03*
X293370Y435102D02*
D03*
X287020Y422402D02*
D03*
X280670Y435102D02*
D03*
X274320Y422402D02*
D03*
X588010Y351790D02*
D03*
X528320Y353060D02*
D03*
X407670Y341630D02*
D03*
X352250Y427990D02*
D03*
X382730Y327050D02*
D03*
X345440Y265430D02*
D03*
Y274320D02*
D03*
X336550D02*
D03*
X245110Y271780D02*
D03*
X232410D02*
D03*
X251460Y279400D02*
D03*
X238760D02*
D03*
X226060D02*
D03*
X43180Y156210D02*
D03*
X323850Y391160D02*
D03*
D66*
X348500Y328350D02*
D03*
X337500D02*
D03*
X348500Y339350D02*
D03*
X337500D02*
D03*
X348500Y350350D02*
D03*
X337500D02*
D03*
M02*
