G04*
G04 #@! TF.GenerationSoftware,Altium Limited,Altium Designer,20.1.11 (218)*
G04*
G04 Layer_Color=16711935*
%FSLAX44Y44*%
%MOMM*%
G71*
G04*
G04 #@! TF.SameCoordinates,6A4551F0-0C6C-4C7A-9067-02AC85F7A24C*
G04*
G04*
G04 #@! TF.FilePolarity,Negative*
G04*
G01*
G75*
%ADD49R,2.9000X0.6500*%
%ADD50C,1.1032*%
%ADD51C,2.7432*%
%ADD52C,1.6764*%
%ADD53R,1.7032X1.7032*%
%ADD54C,1.7032*%
%ADD55C,1.5032*%
D49*
X24130Y-172068D02*
D03*
Y-164068D02*
D03*
Y-156068D02*
D03*
Y-148068D02*
D03*
Y-140068D02*
D03*
Y-132068D02*
D03*
Y-124068D02*
D03*
Y-116068D02*
D03*
Y-108068D02*
D03*
Y-100068D02*
D03*
Y-92068D02*
D03*
Y-84068D02*
D03*
Y-76068D02*
D03*
Y-68068D02*
D03*
Y-60068D02*
D03*
Y-52068D02*
D03*
Y-44068D02*
D03*
Y-36068D02*
D03*
Y3932D02*
D03*
Y11932D02*
D03*
Y19932D02*
D03*
Y27932D02*
D03*
Y35932D02*
D03*
Y43932D02*
D03*
Y51932D02*
D03*
Y59932D02*
D03*
Y67932D02*
D03*
Y75932D02*
D03*
Y83932D02*
D03*
Y91932D02*
D03*
Y99932D02*
D03*
Y107932D02*
D03*
Y115932D02*
D03*
Y123932D02*
D03*
Y131932D02*
D03*
Y139932D02*
D03*
Y147932D02*
D03*
Y155932D02*
D03*
Y163932D02*
D03*
Y171932D02*
D03*
D50*
X764032Y-84836D02*
D03*
Y-97536D02*
D03*
X751332Y-84836D02*
D03*
Y-97536D02*
D03*
X738632Y-84836D02*
D03*
Y-97536D02*
D03*
X725932Y-84836D02*
D03*
Y-97536D02*
D03*
X713232Y-84836D02*
D03*
Y-97536D02*
D03*
X700532Y-84836D02*
D03*
Y-97536D02*
D03*
X687832Y-84836D02*
D03*
Y-97536D02*
D03*
X675132Y-84836D02*
D03*
Y-97536D02*
D03*
X764230Y123954D02*
D03*
Y111254D02*
D03*
X751530Y123954D02*
D03*
Y111254D02*
D03*
X738830Y123954D02*
D03*
Y111254D02*
D03*
X726130Y123954D02*
D03*
Y111254D02*
D03*
X713430Y123954D02*
D03*
Y111254D02*
D03*
X700730Y123954D02*
D03*
Y111254D02*
D03*
X688030Y123954D02*
D03*
Y111254D02*
D03*
X675330Y123954D02*
D03*
Y111254D02*
D03*
X763976Y-299260D02*
D03*
Y-311960D02*
D03*
X751276Y-299260D02*
D03*
Y-311960D02*
D03*
X738576Y-299260D02*
D03*
Y-311960D02*
D03*
X725876Y-299260D02*
D03*
Y-311960D02*
D03*
X713176Y-299260D02*
D03*
Y-311960D02*
D03*
X700476Y-299260D02*
D03*
Y-311960D02*
D03*
X687776Y-299260D02*
D03*
Y-311960D02*
D03*
X675076Y-299260D02*
D03*
Y-311960D02*
D03*
D51*
X490022Y-180850D02*
D03*
X611942Y-193550D02*
D03*
X576382Y-170690D02*
D03*
X540822Y-147830D02*
D03*
X535742Y-33530D02*
D03*
X457002Y-71630D02*
D03*
X434142Y-107190D02*
D03*
X535742Y-208790D02*
D03*
X457200Y137160D02*
D03*
X535940Y175260D02*
D03*
Y0D02*
D03*
X434340Y101600D02*
D03*
X576580Y38100D02*
D03*
X541020Y60960D02*
D03*
X490220Y27940D02*
D03*
X612140Y15240D02*
D03*
X434086Y-321614D02*
D03*
X456946Y-286054D02*
D03*
X576326Y-385114D02*
D03*
X535686Y-247954D02*
D03*
X540766Y-362254D02*
D03*
X611886Y-407974D02*
D03*
X489966Y-395274D02*
D03*
X535686Y-423214D02*
D03*
X305000Y457000D02*
D03*
X239000Y249000D02*
D03*
X443230Y457000D02*
D03*
D52*
X942400Y-322933D02*
D03*
X917000D02*
D03*
X942400Y-297533D02*
D03*
X917000D02*
D03*
X942400Y-108556D02*
D03*
X917000D02*
D03*
X942400Y-83156D02*
D03*
X917000D02*
D03*
X942400Y107444D02*
D03*
X917000D02*
D03*
X942400Y132844D02*
D03*
X917000D02*
D03*
D53*
X235204Y-361442D02*
D03*
D54*
X260604D02*
D03*
X235204Y-386842D02*
D03*
X260604D02*
D03*
X235204Y-412242D02*
D03*
X260604D02*
D03*
D55*
X229500Y438000D02*
D03*
X254500D02*
D03*
X210000Y381500D02*
D03*
Y356500D02*
D03*
M02*
