G04 Layer_Color=8421504*
%FSLAX44Y44*%
%MOMM*%
G71*
G01*
G75*
%ADD11O,0.7500X0.2500*%
%ADD12O,0.2500X0.7500*%
%ADD14R,1.2000X0.7000*%
%ADD15R,2.8000X0.5500*%
%ADD16R,1.2000X1.1000*%
%ADD17R,0.8000X1.2000*%
%ADD18R,1.2000X0.8000*%
%ADD19R,0.7000X1.2000*%
%ADD41R,0.0000X0.0000*%
G36*
X480310Y939670D02*
Y933670D01*
X481310Y932670D01*
X487310D01*
X488310Y931670D01*
Y925670D01*
X487310Y924670D01*
X473310D01*
X472310Y925670D01*
Y939670D01*
X473310Y940670D01*
X479310D01*
X480310Y939670D01*
D02*
G37*
G36*
X468310D02*
Y925670D01*
X467310Y924670D01*
X453310D01*
X452310Y925670D01*
Y931670D01*
X453310Y932670D01*
X459310D01*
X460310Y933670D01*
Y939670D01*
X461310Y940670D01*
X467310D01*
X468310Y939670D01*
D02*
G37*
G36*
X267310D02*
Y933670D01*
X268310Y932670D01*
X274310D01*
X275310Y931670D01*
Y925670D01*
X274310Y924670D01*
X260310D01*
X259310Y925670D01*
Y939670D01*
X260310Y940670D01*
X266310D01*
X267310Y939670D01*
D02*
G37*
G36*
X255310D02*
Y925670D01*
X254310Y924670D01*
X240310D01*
X239310Y925670D01*
Y931670D01*
X240310Y932670D01*
X246310D01*
X247310Y933670D01*
Y939670D01*
X248310Y940670D01*
X254310D01*
X255310Y939670D01*
D02*
G37*
G36*
X488310Y919670D02*
Y913670D01*
X487310Y912670D01*
X481310D01*
X480310Y911670D01*
Y905670D01*
X479310Y904670D01*
X473310D01*
X472310Y905670D01*
Y919670D01*
X473310Y920670D01*
X487310D01*
X488310Y919670D01*
D02*
G37*
G36*
X468310D02*
Y905670D01*
X467310Y904670D01*
X461310D01*
X460310Y905670D01*
Y911670D01*
X459310Y912670D01*
X453310D01*
X452310Y913670D01*
Y919670D01*
X453310Y920670D01*
X467310D01*
X468310Y919670D01*
D02*
G37*
G36*
X275310D02*
Y913670D01*
X274310Y912670D01*
X268310D01*
X267310Y911670D01*
Y905670D01*
X266310Y904670D01*
X260310D01*
X259310Y905670D01*
Y919670D01*
X260310Y920670D01*
X274310D01*
X275310Y919670D01*
D02*
G37*
G36*
X255310D02*
Y905670D01*
X254310Y904670D01*
X248310D01*
X247310Y905670D01*
Y911670D01*
X246310Y912670D01*
X240310D01*
X239310Y913670D01*
Y919670D01*
X240310Y920670D01*
X254310D01*
X255310Y919670D01*
D02*
G37*
G36*
X480310Y774670D02*
Y768670D01*
X481310Y767670D01*
X487310D01*
X488310Y766670D01*
Y760670D01*
X487310Y759670D01*
X473310D01*
X472310Y760670D01*
Y774670D01*
X473310Y775670D01*
X479310D01*
X480310Y774670D01*
D02*
G37*
G36*
X468310D02*
Y760670D01*
X467310Y759670D01*
X453310D01*
X452310Y760670D01*
Y766670D01*
X453310Y767670D01*
X459310D01*
X460310Y768670D01*
Y774670D01*
X461310Y775670D01*
X467310D01*
X468310Y774670D01*
D02*
G37*
G36*
X267310D02*
Y768670D01*
X268310Y767670D01*
X274310D01*
X275310Y766670D01*
Y760670D01*
X274310Y759670D01*
X260310D01*
X259310Y760670D01*
Y774670D01*
X260310Y775670D01*
X266310D01*
X267310Y774670D01*
D02*
G37*
G36*
X255310D02*
Y760670D01*
X254310Y759670D01*
X240310D01*
X239310Y760670D01*
Y766670D01*
X240310Y767670D01*
X246310D01*
X247310Y768670D01*
Y774670D01*
X248310Y775670D01*
X254310D01*
X255310Y774670D01*
D02*
G37*
G36*
X488310Y754670D02*
Y748670D01*
X487310Y747670D01*
X481310D01*
X480310Y746670D01*
Y740670D01*
X479310Y739670D01*
X473310D01*
X472310Y740670D01*
Y754670D01*
X473310Y755670D01*
X487310D01*
X488310Y754670D01*
D02*
G37*
G36*
X468310D02*
Y740670D01*
X467310Y739670D01*
X461310D01*
X460310Y740670D01*
Y746670D01*
X459310Y747670D01*
X453310D01*
X452310Y748670D01*
Y754670D01*
X453310Y755670D01*
X467310D01*
X468310Y754670D01*
D02*
G37*
G36*
X275310D02*
Y748670D01*
X274310Y747670D01*
X268310D01*
X267310Y746670D01*
Y740670D01*
X266310Y739670D01*
X260310D01*
X259310Y740670D01*
Y754670D01*
X260310Y755670D01*
X274310D01*
X275310Y754670D01*
D02*
G37*
G36*
X255310D02*
Y740670D01*
X254310Y739670D01*
X248310D01*
X247310Y740670D01*
Y746670D01*
X246310Y747670D01*
X240310D01*
X239310Y748670D01*
Y754670D01*
X240310Y755670D01*
X254310D01*
X255310Y754670D01*
D02*
G37*
G36*
X480310Y609670D02*
Y603670D01*
X481310Y602670D01*
X487310D01*
X488310Y601670D01*
Y595670D01*
X487310Y594670D01*
X473310D01*
X472310Y595670D01*
Y609670D01*
X473310Y610670D01*
X479310D01*
X480310Y609670D01*
D02*
G37*
G36*
X468310D02*
Y595670D01*
X467310Y594670D01*
X453310D01*
X452310Y595670D01*
Y601670D01*
X453310Y602670D01*
X459310D01*
X460310Y603670D01*
Y609670D01*
X461310Y610670D01*
X467310D01*
X468310Y609670D01*
D02*
G37*
G36*
X267310D02*
Y603670D01*
X268310Y602670D01*
X274310D01*
X275310Y601670D01*
Y595670D01*
X274310Y594670D01*
X260310D01*
X259310Y595670D01*
Y609670D01*
X260310Y610670D01*
X266310D01*
X267310Y609670D01*
D02*
G37*
G36*
X255310D02*
Y595670D01*
X254310Y594670D01*
X240310D01*
X239310Y595670D01*
Y601670D01*
X240310Y602670D01*
X246310D01*
X247310Y603670D01*
Y609670D01*
X248310Y610670D01*
X254310D01*
X255310Y609670D01*
D02*
G37*
G36*
X488310Y589670D02*
Y583670D01*
X487310Y582670D01*
X481310D01*
X480310Y581670D01*
Y575670D01*
X479310Y574670D01*
X473310D01*
X472310Y575670D01*
Y589670D01*
X473310Y590670D01*
X487310D01*
X488310Y589670D01*
D02*
G37*
G36*
X468310D02*
Y575670D01*
X467310Y574670D01*
X461310D01*
X460310Y575670D01*
Y581670D01*
X459310Y582670D01*
X453310D01*
X452310Y583670D01*
Y589670D01*
X453310Y590670D01*
X467310D01*
X468310Y589670D01*
D02*
G37*
G36*
X275310D02*
Y583670D01*
X274310Y582670D01*
X268310D01*
X267310Y581670D01*
Y575670D01*
X266310Y574670D01*
X260310D01*
X259310Y575670D01*
Y589670D01*
X260310Y590670D01*
X274310D01*
X275310Y589670D01*
D02*
G37*
G36*
X255310D02*
Y575670D01*
X254310Y574670D01*
X248310D01*
X247310Y575670D01*
Y581670D01*
X246310Y582670D01*
X240310D01*
X239310Y583670D01*
Y589670D01*
X240310Y590670D01*
X254310D01*
X255310Y589670D01*
D02*
G37*
G36*
X480310Y444670D02*
Y438670D01*
X481310Y437670D01*
X487310D01*
X488310Y436670D01*
Y430670D01*
X487310Y429670D01*
X473310D01*
X472310Y430670D01*
Y444670D01*
X473310Y445670D01*
X479310D01*
X480310Y444670D01*
D02*
G37*
G36*
X468310D02*
Y430670D01*
X467310Y429670D01*
X453310D01*
X452310Y430670D01*
Y436670D01*
X453310Y437670D01*
X459310D01*
X460310Y438670D01*
Y444670D01*
X461310Y445670D01*
X467310D01*
X468310Y444670D01*
D02*
G37*
G36*
X267310D02*
Y438670D01*
X268310Y437670D01*
X274310D01*
X275310Y436670D01*
Y430670D01*
X274310Y429670D01*
X260310D01*
X259310Y430670D01*
Y444670D01*
X260310Y445670D01*
X266310D01*
X267310Y444670D01*
D02*
G37*
G36*
X255310D02*
Y430670D01*
X254310Y429670D01*
X240310D01*
X239310Y430670D01*
Y436670D01*
X240310Y437670D01*
X246310D01*
X247310Y438670D01*
Y444670D01*
X248310Y445670D01*
X254310D01*
X255310Y444670D01*
D02*
G37*
G36*
X488310Y424670D02*
Y418670D01*
X487310Y417670D01*
X481310D01*
X480310Y416670D01*
Y410670D01*
X479310Y409670D01*
X473310D01*
X472310Y410670D01*
Y424670D01*
X473310Y425670D01*
X487310D01*
X488310Y424670D01*
D02*
G37*
G36*
X468310D02*
Y410670D01*
X467310Y409670D01*
X461310D01*
X460310Y410670D01*
Y416670D01*
X459310Y417670D01*
X453310D01*
X452310Y418670D01*
Y424670D01*
X453310Y425670D01*
X467310D01*
X468310Y424670D01*
D02*
G37*
G36*
X275310D02*
Y418670D01*
X274310Y417670D01*
X268310D01*
X267310Y416670D01*
Y410670D01*
X266310Y409670D01*
X260310D01*
X259310Y410670D01*
Y424670D01*
X260310Y425670D01*
X274310D01*
X275310Y424670D01*
D02*
G37*
G36*
X255310D02*
Y410670D01*
X254310Y409670D01*
X248310D01*
X247310Y410670D01*
Y416670D01*
X246310Y417670D01*
X240310D01*
X239310Y418670D01*
Y424670D01*
X240310Y425670D01*
X254310D01*
X255310Y424670D01*
D02*
G37*
G36*
X480310Y279669D02*
Y273670D01*
X481310Y272670D01*
X487310D01*
X488310Y271670D01*
Y265669D01*
X487310Y264669D01*
X473310D01*
X472310Y265669D01*
Y279669D01*
X473310Y280669D01*
X479310D01*
X480310Y279669D01*
D02*
G37*
G36*
X468310D02*
Y265669D01*
X467310Y264669D01*
X453310D01*
X452310Y265669D01*
Y271670D01*
X453310Y272670D01*
X459310D01*
X460310Y273670D01*
Y279669D01*
X461310Y280669D01*
X467310D01*
X468310Y279669D01*
D02*
G37*
G36*
X267310D02*
Y273670D01*
X268310Y272670D01*
X274310D01*
X275310Y271670D01*
Y265669D01*
X274310Y264669D01*
X260310D01*
X259310Y265669D01*
Y279669D01*
X260310Y280669D01*
X266310D01*
X267310Y279669D01*
D02*
G37*
G36*
X255310D02*
Y265669D01*
X254310Y264669D01*
X240310D01*
X239310Y265669D01*
Y271670D01*
X240310Y272670D01*
X246310D01*
X247310Y273670D01*
Y279669D01*
X248310Y280669D01*
X254310D01*
X255310Y279669D01*
D02*
G37*
G36*
X488310Y259670D02*
Y253669D01*
X487310Y252670D01*
X481310D01*
X480310Y251670D01*
Y245670D01*
X479310Y244670D01*
X473310D01*
X472310Y245670D01*
Y259670D01*
X473310Y260670D01*
X487310D01*
X488310Y259670D01*
D02*
G37*
G36*
X468310D02*
Y245670D01*
X467310Y244670D01*
X461310D01*
X460310Y245670D01*
Y251670D01*
X459310Y252670D01*
X453310D01*
X452310Y253669D01*
Y259670D01*
X453310Y260670D01*
X467310D01*
X468310Y259670D01*
D02*
G37*
G36*
X275310D02*
Y253669D01*
X274310Y252670D01*
X268310D01*
X267310Y251670D01*
Y245670D01*
X266310Y244670D01*
X260310D01*
X259310Y245670D01*
Y259670D01*
X260310Y260670D01*
X274310D01*
X275310Y259670D01*
D02*
G37*
G36*
X255310D02*
Y245670D01*
X254310Y244670D01*
X248310D01*
X247310Y245670D01*
Y251670D01*
X246310Y252670D01*
X240310D01*
X239310Y253669D01*
Y259670D01*
X240310Y260670D01*
X254310D01*
X255310Y259670D01*
D02*
G37*
G36*
X480310Y114670D02*
Y108670D01*
X481310Y107669D01*
X487310D01*
X488310Y106670D01*
Y100669D01*
X487310Y99670D01*
X473310D01*
X472310Y100669D01*
Y114670D01*
X473310Y115669D01*
X479310D01*
X480310Y114670D01*
D02*
G37*
G36*
X468310D02*
Y100669D01*
X467310Y99670D01*
X453310D01*
X452310Y100669D01*
Y106670D01*
X453310Y107669D01*
X459310D01*
X460310Y108670D01*
Y114670D01*
X461310Y115669D01*
X467310D01*
X468310Y114670D01*
D02*
G37*
G36*
X267310D02*
Y108670D01*
X268310Y107669D01*
X274310D01*
X275310Y106670D01*
Y100669D01*
X274310Y99670D01*
X260310D01*
X259310Y100669D01*
Y114670D01*
X260310Y115669D01*
X266310D01*
X267310Y114670D01*
D02*
G37*
G36*
X255310D02*
Y100669D01*
X254310Y99670D01*
X240310D01*
X239310Y100669D01*
Y106670D01*
X240310Y107669D01*
X246310D01*
X247310Y108670D01*
Y114670D01*
X248310Y115669D01*
X254310D01*
X255310Y114670D01*
D02*
G37*
G36*
X488310Y94670D02*
Y88670D01*
X487310Y87669D01*
X481310D01*
X480310Y86670D01*
Y80669D01*
X479310Y79669D01*
X473310D01*
X472310Y80669D01*
Y94670D01*
X473310Y95669D01*
X487310D01*
X488310Y94670D01*
D02*
G37*
G36*
X468310D02*
Y80669D01*
X467310Y79669D01*
X461310D01*
X460310Y80669D01*
Y86670D01*
X459310Y87669D01*
X453310D01*
X452310Y88670D01*
Y94670D01*
X453310Y95669D01*
X467310D01*
X468310Y94670D01*
D02*
G37*
G36*
X275310D02*
Y88670D01*
X274310Y87669D01*
X268310D01*
X267310Y86670D01*
Y80669D01*
X266310Y79669D01*
X260310D01*
X259310Y80669D01*
Y94670D01*
X260310Y95669D01*
X274310D01*
X275310Y94670D01*
D02*
G37*
G36*
X255310D02*
Y80669D01*
X254310Y79669D01*
X248310D01*
X247310Y80669D01*
Y86670D01*
X246310Y87669D01*
X240310D01*
X239310Y88670D01*
Y94670D01*
X240310Y95669D01*
X254310D01*
X255310Y94670D01*
D02*
G37*
D11*
X495060Y85169D02*
D03*
Y90169D02*
D03*
Y95169D02*
D03*
Y100169D02*
D03*
Y105169D02*
D03*
Y110169D02*
D03*
Y80169D02*
D03*
Y115169D02*
D03*
X445560D02*
D03*
Y110169D02*
D03*
Y105169D02*
D03*
Y100169D02*
D03*
Y95169D02*
D03*
Y90169D02*
D03*
Y85169D02*
D03*
Y80169D02*
D03*
X232560D02*
D03*
Y85169D02*
D03*
Y90169D02*
D03*
Y95169D02*
D03*
Y100169D02*
D03*
Y105169D02*
D03*
Y110169D02*
D03*
Y115169D02*
D03*
X282060D02*
D03*
Y80169D02*
D03*
Y110169D02*
D03*
Y105169D02*
D03*
Y100169D02*
D03*
Y95169D02*
D03*
Y90169D02*
D03*
Y85169D02*
D03*
Y910170D02*
D03*
Y915170D02*
D03*
Y920170D02*
D03*
Y925170D02*
D03*
Y930170D02*
D03*
Y935170D02*
D03*
Y905170D02*
D03*
Y940170D02*
D03*
X232560D02*
D03*
Y935170D02*
D03*
Y930170D02*
D03*
Y925170D02*
D03*
Y920170D02*
D03*
Y915170D02*
D03*
Y910170D02*
D03*
Y905170D02*
D03*
X445560D02*
D03*
Y910170D02*
D03*
Y915170D02*
D03*
Y920170D02*
D03*
Y925170D02*
D03*
Y930170D02*
D03*
Y935170D02*
D03*
Y940170D02*
D03*
X495060D02*
D03*
Y905170D02*
D03*
Y935170D02*
D03*
Y930170D02*
D03*
Y925170D02*
D03*
Y920170D02*
D03*
Y915170D02*
D03*
Y910170D02*
D03*
X282060Y745170D02*
D03*
Y750170D02*
D03*
Y755170D02*
D03*
Y760170D02*
D03*
Y765170D02*
D03*
Y770170D02*
D03*
Y740170D02*
D03*
Y775170D02*
D03*
X232560D02*
D03*
Y770170D02*
D03*
Y765170D02*
D03*
Y760170D02*
D03*
Y755170D02*
D03*
Y750170D02*
D03*
Y745170D02*
D03*
Y740170D02*
D03*
X445560D02*
D03*
Y745170D02*
D03*
Y750170D02*
D03*
Y755170D02*
D03*
Y760170D02*
D03*
Y765170D02*
D03*
Y770170D02*
D03*
Y775170D02*
D03*
X495060D02*
D03*
Y740170D02*
D03*
Y770170D02*
D03*
Y765170D02*
D03*
Y760170D02*
D03*
Y755170D02*
D03*
Y750170D02*
D03*
Y745170D02*
D03*
X282060Y580170D02*
D03*
Y585170D02*
D03*
Y590170D02*
D03*
Y595170D02*
D03*
Y600170D02*
D03*
Y605170D02*
D03*
Y575170D02*
D03*
Y610170D02*
D03*
X232560D02*
D03*
Y605170D02*
D03*
Y600170D02*
D03*
Y595170D02*
D03*
Y590170D02*
D03*
Y585170D02*
D03*
Y580170D02*
D03*
Y575170D02*
D03*
X445560D02*
D03*
Y580170D02*
D03*
Y585170D02*
D03*
Y590170D02*
D03*
Y595170D02*
D03*
Y600170D02*
D03*
Y605170D02*
D03*
Y610170D02*
D03*
X495060D02*
D03*
Y575170D02*
D03*
Y605170D02*
D03*
Y600170D02*
D03*
Y595170D02*
D03*
Y590170D02*
D03*
Y585170D02*
D03*
Y580170D02*
D03*
X282060Y415170D02*
D03*
Y420170D02*
D03*
Y425170D02*
D03*
Y430170D02*
D03*
Y435170D02*
D03*
Y440170D02*
D03*
Y410170D02*
D03*
Y445170D02*
D03*
X232560D02*
D03*
Y440170D02*
D03*
Y435170D02*
D03*
Y430170D02*
D03*
Y425170D02*
D03*
Y420170D02*
D03*
Y415170D02*
D03*
Y410170D02*
D03*
X445560D02*
D03*
Y415170D02*
D03*
Y420170D02*
D03*
Y425170D02*
D03*
Y430170D02*
D03*
Y435170D02*
D03*
Y440170D02*
D03*
Y445170D02*
D03*
X495060D02*
D03*
Y410170D02*
D03*
Y440170D02*
D03*
Y435170D02*
D03*
Y430170D02*
D03*
Y425170D02*
D03*
Y420170D02*
D03*
Y415170D02*
D03*
X282060Y250170D02*
D03*
Y255170D02*
D03*
Y260170D02*
D03*
Y265170D02*
D03*
Y270170D02*
D03*
Y275170D02*
D03*
Y245170D02*
D03*
Y280170D02*
D03*
X232560D02*
D03*
Y275170D02*
D03*
Y270170D02*
D03*
Y265170D02*
D03*
Y260170D02*
D03*
Y255170D02*
D03*
Y250170D02*
D03*
Y245170D02*
D03*
X445560D02*
D03*
Y250170D02*
D03*
Y255170D02*
D03*
Y260170D02*
D03*
Y265170D02*
D03*
Y270170D02*
D03*
Y275170D02*
D03*
Y280170D02*
D03*
X495060D02*
D03*
Y245170D02*
D03*
Y275170D02*
D03*
Y270170D02*
D03*
Y265170D02*
D03*
Y260170D02*
D03*
Y255170D02*
D03*
Y250170D02*
D03*
D12*
X487810Y122420D02*
D03*
X482810D02*
D03*
X477810D02*
D03*
X472810D02*
D03*
X467810D02*
D03*
X462810D02*
D03*
X457810D02*
D03*
X452810D02*
D03*
Y72920D02*
D03*
X457810D02*
D03*
X462810D02*
D03*
X467810D02*
D03*
X472810D02*
D03*
X477810D02*
D03*
X482810D02*
D03*
X487810D02*
D03*
X274810D02*
D03*
X269810D02*
D03*
X264810D02*
D03*
X259810D02*
D03*
X254810D02*
D03*
X249810D02*
D03*
X244810D02*
D03*
X239810D02*
D03*
Y122420D02*
D03*
X244810D02*
D03*
X249810D02*
D03*
X254810D02*
D03*
X259810D02*
D03*
X264810D02*
D03*
X269810D02*
D03*
X274810D02*
D03*
Y947420D02*
D03*
X269810D02*
D03*
X264810D02*
D03*
X259810D02*
D03*
X254810D02*
D03*
X249810D02*
D03*
X244810D02*
D03*
X239810D02*
D03*
Y897920D02*
D03*
X244810D02*
D03*
X249810D02*
D03*
X254810D02*
D03*
X259810D02*
D03*
X264810D02*
D03*
X269810D02*
D03*
X274810D02*
D03*
X487810D02*
D03*
X482810D02*
D03*
X477810D02*
D03*
X472810D02*
D03*
X467810D02*
D03*
X462810D02*
D03*
X457810D02*
D03*
X452810D02*
D03*
Y947420D02*
D03*
X457810D02*
D03*
X462810D02*
D03*
X467810D02*
D03*
X472810D02*
D03*
X477810D02*
D03*
X482810D02*
D03*
X487810D02*
D03*
X274810Y782420D02*
D03*
X269810D02*
D03*
X264810D02*
D03*
X259810D02*
D03*
X254810D02*
D03*
X249810D02*
D03*
X244810D02*
D03*
X239810D02*
D03*
Y732920D02*
D03*
X244810D02*
D03*
X249810D02*
D03*
X254810D02*
D03*
X259810D02*
D03*
X264810D02*
D03*
X269810D02*
D03*
X274810D02*
D03*
X487810D02*
D03*
X482810D02*
D03*
X477810D02*
D03*
X472810D02*
D03*
X467810D02*
D03*
X462810D02*
D03*
X457810D02*
D03*
X452810D02*
D03*
Y782420D02*
D03*
X457810D02*
D03*
X462810D02*
D03*
X467810D02*
D03*
X472810D02*
D03*
X477810D02*
D03*
X482810D02*
D03*
X487810D02*
D03*
X274810Y617420D02*
D03*
X269810D02*
D03*
X264810D02*
D03*
X259810D02*
D03*
X254810D02*
D03*
X249810D02*
D03*
X244810D02*
D03*
X239810D02*
D03*
Y567920D02*
D03*
X244810D02*
D03*
X249810D02*
D03*
X254810D02*
D03*
X259810D02*
D03*
X264810D02*
D03*
X269810D02*
D03*
X274810D02*
D03*
X487810D02*
D03*
X482810D02*
D03*
X477810D02*
D03*
X472810D02*
D03*
X467810D02*
D03*
X462810D02*
D03*
X457810D02*
D03*
X452810D02*
D03*
Y617420D02*
D03*
X457810D02*
D03*
X462810D02*
D03*
X467810D02*
D03*
X472810D02*
D03*
X477810D02*
D03*
X482810D02*
D03*
X487810D02*
D03*
X274810Y452420D02*
D03*
X269810D02*
D03*
X264810D02*
D03*
X259810D02*
D03*
X254810D02*
D03*
X249810D02*
D03*
X244810D02*
D03*
X239810D02*
D03*
Y402920D02*
D03*
X244810D02*
D03*
X249810D02*
D03*
X254810D02*
D03*
X259810D02*
D03*
X264810D02*
D03*
X269810D02*
D03*
X274810D02*
D03*
X487810D02*
D03*
X482810D02*
D03*
X477810D02*
D03*
X472810D02*
D03*
X467810D02*
D03*
X462810D02*
D03*
X457810D02*
D03*
X452810D02*
D03*
Y452420D02*
D03*
X457810D02*
D03*
X462810D02*
D03*
X467810D02*
D03*
X472810D02*
D03*
X477810D02*
D03*
X482810D02*
D03*
X487810D02*
D03*
X274810Y287420D02*
D03*
X269810D02*
D03*
X264810D02*
D03*
X259810D02*
D03*
X254810D02*
D03*
X249810D02*
D03*
X244810D02*
D03*
X239810D02*
D03*
Y237920D02*
D03*
X244810D02*
D03*
X249810D02*
D03*
X254810D02*
D03*
X259810D02*
D03*
X264810D02*
D03*
X269810D02*
D03*
X274810D02*
D03*
X487810D02*
D03*
X482810D02*
D03*
X477810D02*
D03*
X472810D02*
D03*
X467810D02*
D03*
X462810D02*
D03*
X457810D02*
D03*
X452810D02*
D03*
Y287420D02*
D03*
X457810D02*
D03*
X462810D02*
D03*
X467810D02*
D03*
X472810D02*
D03*
X477810D02*
D03*
X482810D02*
D03*
X487810D02*
D03*
D14*
X121110Y548520D02*
D03*
Y532520D02*
D03*
X-26228Y378820D02*
D03*
Y362820D02*
D03*
X-69227Y362820D02*
D03*
Y378820D02*
D03*
X-47727Y362820D02*
D03*
Y378820D02*
D03*
X83010Y548520D02*
D03*
Y532520D02*
D03*
X249810Y863920D02*
D03*
Y879920D02*
D03*
X462810Y863920D02*
D03*
Y879920D02*
D03*
X249810Y714920D02*
D03*
Y698920D02*
D03*
X462810Y714920D02*
D03*
Y698920D02*
D03*
X249810Y549920D02*
D03*
Y533920D02*
D03*
X462810Y549920D02*
D03*
Y533920D02*
D03*
X249810Y384920D02*
D03*
Y368920D02*
D03*
X462810Y384920D02*
D03*
Y368920D02*
D03*
X249810Y219920D02*
D03*
Y203920D02*
D03*
X462810Y219920D02*
D03*
Y203920D02*
D03*
Y38920D02*
D03*
Y54920D02*
D03*
X249810Y38920D02*
D03*
Y54920D02*
D03*
D15*
X-124528Y672420D02*
D03*
Y664420D02*
D03*
Y656420D02*
D03*
Y648420D02*
D03*
Y640420D02*
D03*
Y632420D02*
D03*
Y624420D02*
D03*
Y616420D02*
D03*
Y608420D02*
D03*
Y600420D02*
D03*
Y592420D02*
D03*
Y584420D02*
D03*
Y576420D02*
D03*
Y568420D02*
D03*
Y560420D02*
D03*
Y552420D02*
D03*
Y544420D02*
D03*
Y536420D02*
D03*
Y528420D02*
D03*
Y520420D02*
D03*
Y512420D02*
D03*
Y504420D02*
D03*
Y464420D02*
D03*
Y456420D02*
D03*
Y448420D02*
D03*
Y440420D02*
D03*
Y432420D02*
D03*
Y424420D02*
D03*
Y416420D02*
D03*
Y408420D02*
D03*
Y400420D02*
D03*
Y392420D02*
D03*
Y384420D02*
D03*
Y376420D02*
D03*
Y368420D02*
D03*
Y360420D02*
D03*
Y352420D02*
D03*
Y344420D02*
D03*
Y336420D02*
D03*
Y328420D02*
D03*
D16*
X121010Y601420D02*
D03*
Y580420D02*
D03*
X83010Y601420D02*
D03*
Y580420D02*
D03*
D17*
X233810Y880920D02*
D03*
X219810D02*
D03*
X233810Y864920D02*
D03*
X219810D02*
D03*
X446810D02*
D03*
X432810D02*
D03*
X446810Y880920D02*
D03*
X432810D02*
D03*
X219810Y699920D02*
D03*
X233810D02*
D03*
X219810Y715920D02*
D03*
X233810D02*
D03*
X432810Y699920D02*
D03*
X446810D02*
D03*
X432810Y715920D02*
D03*
X446810D02*
D03*
X219810Y534920D02*
D03*
X233810D02*
D03*
X219810Y550920D02*
D03*
X233810D02*
D03*
X432810Y534920D02*
D03*
X446810D02*
D03*
X432810Y550920D02*
D03*
X446810D02*
D03*
X219810Y369920D02*
D03*
X233810D02*
D03*
X219810Y385920D02*
D03*
X233810D02*
D03*
X432810Y369920D02*
D03*
X446810D02*
D03*
X432810Y385920D02*
D03*
X446810D02*
D03*
X219810Y204920D02*
D03*
X233810D02*
D03*
X219810Y220920D02*
D03*
X233810D02*
D03*
X432810Y204920D02*
D03*
X446810D02*
D03*
X432810Y220920D02*
D03*
X446810D02*
D03*
Y55919D02*
D03*
X432810D02*
D03*
X446810Y39920D02*
D03*
X432810D02*
D03*
X233810Y55919D02*
D03*
X219810D02*
D03*
X233810Y39920D02*
D03*
X219810D02*
D03*
D18*
X194810Y935920D02*
D03*
Y921920D02*
D03*
X211810Y935920D02*
D03*
Y921920D02*
D03*
X177810Y935920D02*
D03*
Y921920D02*
D03*
X390810Y935920D02*
D03*
Y921920D02*
D03*
X407810Y935920D02*
D03*
Y921920D02*
D03*
X424810Y935920D02*
D03*
Y921920D02*
D03*
X177810Y770920D02*
D03*
Y756920D02*
D03*
X194810Y770920D02*
D03*
Y756920D02*
D03*
X211810Y770920D02*
D03*
Y756920D02*
D03*
X390810Y770920D02*
D03*
Y756920D02*
D03*
X407810Y770920D02*
D03*
Y756920D02*
D03*
X424810Y770920D02*
D03*
Y756920D02*
D03*
X177810Y605920D02*
D03*
Y591920D02*
D03*
X194810Y605920D02*
D03*
Y591920D02*
D03*
X211810Y605920D02*
D03*
Y591920D02*
D03*
X390810Y605920D02*
D03*
Y591920D02*
D03*
X407810Y605920D02*
D03*
Y591920D02*
D03*
X424810Y605920D02*
D03*
Y591920D02*
D03*
X177810Y440920D02*
D03*
Y426920D02*
D03*
X194810Y440920D02*
D03*
Y426920D02*
D03*
X211810Y440920D02*
D03*
Y426920D02*
D03*
X390810Y440920D02*
D03*
Y426920D02*
D03*
X407810Y440920D02*
D03*
Y426920D02*
D03*
X424810Y440920D02*
D03*
Y426920D02*
D03*
X177810Y275919D02*
D03*
Y261920D02*
D03*
X194810Y275920D02*
D03*
Y261920D02*
D03*
X211810Y275919D02*
D03*
Y261920D02*
D03*
X390810Y275919D02*
D03*
Y261920D02*
D03*
X407810Y275920D02*
D03*
Y261920D02*
D03*
X424810Y275919D02*
D03*
Y261920D02*
D03*
Y96919D02*
D03*
Y110920D02*
D03*
X407810Y96919D02*
D03*
Y110920D02*
D03*
X390810Y96919D02*
D03*
Y110920D02*
D03*
X211810Y96919D02*
D03*
Y110920D02*
D03*
X194810Y96919D02*
D03*
Y110920D02*
D03*
X177810Y96919D02*
D03*
Y110920D02*
D03*
D19*
X163810Y881920D02*
D03*
X179810D02*
D03*
X376810D02*
D03*
X392810D02*
D03*
X163810Y716920D02*
D03*
X179810D02*
D03*
X376810D02*
D03*
X392810D02*
D03*
X163810Y551920D02*
D03*
X179810D02*
D03*
X376810D02*
D03*
X392810D02*
D03*
X163810Y386920D02*
D03*
X179810D02*
D03*
X376810D02*
D03*
X392810D02*
D03*
X163810Y221920D02*
D03*
X179810D02*
D03*
X376810D02*
D03*
X392810D02*
D03*
Y56919D02*
D03*
X376810D02*
D03*
X179810D02*
D03*
X163810D02*
D03*
D41*
X470310Y97669D02*
D03*
X257310D02*
D03*
Y922670D02*
D03*
X470310D02*
D03*
X257310Y757670D02*
D03*
X470310D02*
D03*
X257310Y592670D02*
D03*
X470310D02*
D03*
X257310Y427670D02*
D03*
X470310D02*
D03*
X257310Y262670D02*
D03*
X470310D02*
D03*
M02*
