G04 Layer_Color=0*
%FSLAX44Y44*%
%MOMM*%
G71*
G01*
G75*
%ADD61C,0.0500*%
%ADD63C,0.0254*%
D61*
X748280Y149130D02*
Y851110D01*
X671140D02*
X748280D01*
X671140Y149130D02*
Y851110D01*
Y149130D02*
X748280D01*
X1045325Y149130D02*
Y851110D01*
X968185D02*
X1045325D01*
X968185Y149130D02*
Y851110D01*
Y149130D02*
X1045325D01*
X1342370Y148930D02*
Y850910D01*
X1265230D02*
X1342370D01*
X1265230Y148930D02*
Y850910D01*
Y148930D02*
X1342370D01*
D63*
X-127Y692670D02*
G03*
X9872Y682670I10000J0D01*
G01*
X-70728Y717670D02*
G03*
X-60728Y707670I10000J0D01*
G01*
X-70728Y723670D02*
G03*
X-74728Y727670I-4000J0D01*
G01*
X-98526Y682670D02*
G03*
X-88526Y692670I0J10000D01*
G01*
X-96528Y472420D02*
G03*
X-96528Y496420I0J12000D01*
G01*
X-88526Y308170D02*
G03*
X-98526Y318170I-10000J0D01*
G01*
X-74728Y273170D02*
G03*
X-70728Y277170I0J4000D01*
G01*
X-60728Y293170D02*
G03*
X-70728Y283170I0J-10000D01*
G01*
X9872Y318170D02*
G03*
X-127Y308170I0J-10000D01*
G01*
X9872Y682670D02*
X37135D01*
X-127Y692670D02*
Y707670D01*
X-60728D02*
X-127D01*
X-70728Y717670D02*
Y723670D01*
X-88526Y727670D02*
X-74728D01*
X-88526Y692670D02*
Y727670D01*
X-140733Y682670D02*
X-98526D01*
X-148527D02*
X-140733D01*
X-148527Y496420D02*
Y682670D01*
Y496420D02*
X-140733D01*
X-96528D01*
X-140733Y472420D02*
X-96528D01*
X-148527D02*
X-140733D01*
X-148527Y318170D02*
Y472420D01*
Y318170D02*
X-140733D01*
X-98526D01*
X-88526Y273170D02*
Y308170D01*
Y273170D02*
X-74728D01*
X-70728Y277170D02*
Y283170D01*
X-60728Y293170D02*
X-127D01*
Y308170D01*
X9872Y318170D02*
X37135D01*
M02*
