G04 Layer_Color=32896*
%FSLAX44Y44*%
%MOMM*%
G71*
G01*
G75*
%ADD10C,0.1270*%
G36*
X30529Y973889D02*
X30568Y973869D01*
X30587Y973850D01*
X30626Y973811D01*
X30666Y973752D01*
X30685Y973713D01*
Y973694D01*
X30705Y973596D01*
X30724Y973499D01*
X30744Y973440D01*
Y973401D01*
X30763Y973265D01*
Y973148D01*
Y973030D01*
Y973011D01*
Y972991D01*
Y972835D01*
X30744Y972679D01*
Y972562D01*
X30724Y972484D01*
X30705Y972406D01*
Y972348D01*
X30685Y972328D01*
Y972309D01*
X30646Y972231D01*
X30607Y972192D01*
X30529Y972114D01*
X30451Y972094D01*
X26081D01*
X29729Y964018D01*
X29768Y963921D01*
X29788Y963843D01*
X29807Y963804D01*
Y963784D01*
X29768Y963726D01*
X29729Y963687D01*
X29690Y963648D01*
X29671Y963628D01*
X29573Y963589D01*
X29456Y963569D01*
X29359Y963550D01*
X29320D01*
X29105Y963531D01*
X28422D01*
X28266Y963550D01*
X28130D01*
X27993Y963569D01*
X27876D01*
X27798Y963589D01*
X27778D01*
X27681Y963609D01*
X27622Y963628D01*
X27583Y963667D01*
X27564D01*
X27466Y963784D01*
X27427Y963823D01*
Y963843D01*
X24033Y971724D01*
X23994Y971841D01*
X23955Y971938D01*
X23936Y971997D01*
Y972016D01*
X23897Y972114D01*
X23877Y972211D01*
X23858Y972270D01*
Y972289D01*
X23838Y972406D01*
X23819Y972504D01*
X23799Y972582D01*
Y972601D01*
X23779Y972738D01*
Y972875D01*
Y972972D01*
Y972991D01*
Y973011D01*
Y973206D01*
X23799Y973362D01*
X23819Y973440D01*
Y973479D01*
X23838Y973596D01*
X23858Y973674D01*
X23877Y973733D01*
X23897Y973752D01*
X23936Y973811D01*
X23994Y973850D01*
X24033Y973869D01*
X24053D01*
X24209Y973908D01*
X30490D01*
X30529Y973889D01*
D02*
G37*
G36*
X125052Y974084D02*
X125364Y974065D01*
X125637Y974026D01*
X125891Y973967D01*
X126086Y973909D01*
X126242Y973870D01*
X126320Y973850D01*
X126359Y973831D01*
X126613Y973733D01*
X126827Y973616D01*
X127042Y973499D01*
X127217Y973402D01*
X127354Y973304D01*
X127451Y973226D01*
X127529Y973168D01*
X127549Y973148D01*
X127725Y972972D01*
X127881Y972816D01*
X128017Y972641D01*
X128134Y972485D01*
X128232Y972348D01*
X128290Y972231D01*
X128329Y972153D01*
X128349Y972134D01*
X128563Y971705D01*
X128641Y971490D01*
X128700Y971295D01*
X128758Y971139D01*
X128798Y971022D01*
X128836Y970944D01*
Y970905D01*
X128934Y970437D01*
X128973Y970222D01*
X128993Y970027D01*
X129031Y969851D01*
Y969734D01*
X129051Y969656D01*
Y969617D01*
X129090Y969149D01*
Y968934D01*
X129110Y968739D01*
Y968583D01*
Y968447D01*
Y968369D01*
Y968349D01*
Y968076D01*
Y967823D01*
X129090Y967589D01*
Y967393D01*
Y967218D01*
X129071Y967081D01*
Y967003D01*
Y966964D01*
X129051Y966730D01*
X129012Y966516D01*
X128973Y966301D01*
X128954Y966125D01*
X128914Y965989D01*
X128895Y965872D01*
X128876Y965794D01*
Y965774D01*
X128739Y965384D01*
X128680Y965228D01*
X128602Y965072D01*
X128563Y964955D01*
X128505Y964857D01*
X128485Y964799D01*
X128466Y964780D01*
X128251Y964487D01*
X128154Y964350D01*
X128056Y964253D01*
X127959Y964155D01*
X127881Y964097D01*
X127842Y964058D01*
X127822Y964038D01*
X127510Y963843D01*
X127217Y963687D01*
X127100Y963629D01*
X126983Y963609D01*
X126925Y963570D01*
X126905D01*
X126476Y963473D01*
X126262Y963453D01*
X126066Y963434D01*
X125891Y963414D01*
X125637D01*
X125325Y963434D01*
X125033Y963453D01*
X124760Y963492D01*
X124545Y963550D01*
X124350Y963609D01*
X124213Y963648D01*
X124135Y963668D01*
X124096Y963687D01*
X123843Y963804D01*
X123628Y963921D01*
X123433Y964038D01*
X123257Y964155D01*
X123121Y964272D01*
X123023Y964350D01*
X122965Y964409D01*
X122945Y964428D01*
X122789Y964623D01*
X122633Y964818D01*
X122516Y965014D01*
X122419Y965189D01*
X122341Y965345D01*
X122282Y965462D01*
X122262Y965560D01*
X122243Y965579D01*
X122165Y965833D01*
X122087Y966106D01*
X122048Y966340D01*
X122029Y966574D01*
X122009Y966769D01*
X121989Y966906D01*
Y967003D01*
Y967042D01*
Y967296D01*
X122009Y967530D01*
X122048Y967745D01*
X122067Y967920D01*
X122107Y968076D01*
X122146Y968193D01*
X122165Y968271D01*
Y968291D01*
X122243Y968486D01*
X122321Y968681D01*
X122399Y968837D01*
X122497Y968974D01*
X122575Y969091D01*
X122633Y969169D01*
X122672Y969227D01*
X122692Y969247D01*
X122828Y969383D01*
X122984Y969520D01*
X123277Y969715D01*
X123413Y969773D01*
X123511Y969832D01*
X123589Y969871D01*
X123609D01*
X123823Y969949D01*
X124038Y970007D01*
X124272Y970046D01*
X124467Y970086D01*
X124662D01*
X124798Y970105D01*
X125189D01*
X125403Y970086D01*
X125481Y970066D01*
X125540D01*
X125579Y970046D01*
X125598D01*
X125813Y970007D01*
X126008Y969949D01*
X126086Y969929D01*
X126145D01*
X126164Y969910D01*
X126184D01*
X126359Y969851D01*
X126515Y969793D01*
X126632Y969734D01*
X126652Y969715D01*
X126671D01*
X126827Y969637D01*
X126964Y969578D01*
X127042Y969520D01*
X127081Y969500D01*
X127042Y969929D01*
X127022Y970125D01*
X127003Y970300D01*
X126983Y970456D01*
X126964Y970554D01*
X126944Y970632D01*
Y970651D01*
X126827Y971041D01*
X126749Y971197D01*
X126691Y971334D01*
X126632Y971451D01*
X126574Y971529D01*
X126554Y971588D01*
X126535Y971607D01*
X126300Y971880D01*
X126066Y972075D01*
X125969Y972153D01*
X125891Y972212D01*
X125832Y972231D01*
X125813Y972251D01*
X125637Y972329D01*
X125462Y972407D01*
X125267Y972446D01*
X125091Y972465D01*
X124955Y972485D01*
X124818Y972504D01*
X124447D01*
X124233Y972485D01*
X124155Y972465D01*
X124096D01*
X124057Y972446D01*
X124038D01*
X123843Y972407D01*
X123667Y972368D01*
X123569Y972348D01*
X123531Y972329D01*
X123394Y972290D01*
X123277Y972251D01*
X123199Y972231D01*
X123179Y972212D01*
X123082Y972192D01*
X122984Y972173D01*
X122926D01*
X122828Y972192D01*
X122789Y972212D01*
X122731Y972290D01*
X122711Y972309D01*
Y972329D01*
X122692Y972407D01*
X122672Y972485D01*
X122653Y972563D01*
Y972582D01*
X122633Y972719D01*
Y972856D01*
Y972972D01*
Y972992D01*
Y973011D01*
Y973109D01*
Y973207D01*
X122653Y973246D01*
Y973265D01*
Y973343D01*
Y973402D01*
X122672Y973441D01*
Y973460D01*
X122711Y973558D01*
X122731Y973597D01*
X122789Y973675D01*
X122809Y973714D01*
X122828D01*
X122887Y973753D01*
X122984Y973792D01*
X123043Y973831D01*
X123082D01*
X123218Y973889D01*
X123375Y973928D01*
X123491Y973967D01*
X123531D01*
X123726Y974006D01*
X123901Y974045D01*
X123979D01*
X124038Y974065D01*
X124096D01*
X124311Y974084D01*
X124506Y974104D01*
X124701D01*
X125052Y974084D01*
D02*
G37*
G36*
X106781Y890439D02*
X106917Y890380D01*
X106995Y890322D01*
X107034Y890302D01*
X107132Y890166D01*
X107190Y889990D01*
Y889912D01*
X107210Y889854D01*
Y889815D01*
Y889795D01*
Y880783D01*
Y880646D01*
X107190Y880549D01*
X107112Y880373D01*
X107054Y880295D01*
X107034Y880256D01*
X106898Y880178D01*
X106761Y880139D01*
X106644Y880120D01*
X103621D01*
X103406Y880139D01*
X103230D01*
X103055Y880159D01*
X102918D01*
X102821Y880178D01*
X102723D01*
X102353Y880256D01*
X102197Y880295D01*
X102060Y880334D01*
X101943Y880354D01*
X101845Y880393D01*
X101787Y880412D01*
X101767D01*
X101455Y880549D01*
X101319Y880627D01*
X101182Y880685D01*
X101085Y880744D01*
X101007Y880783D01*
X100968Y880802D01*
X100948Y880822D01*
X100695Y881017D01*
X100480Y881212D01*
X100402Y881290D01*
X100343Y881349D01*
X100324Y881388D01*
X100304Y881407D01*
X100129Y881680D01*
X99992Y881934D01*
X99934Y882051D01*
X99895Y882129D01*
X99875Y882187D01*
Y882207D01*
X99778Y882558D01*
X99758Y882734D01*
X99739Y882890D01*
X99719Y883026D01*
Y883124D01*
Y883202D01*
Y883221D01*
X99739Y883592D01*
X99778Y883748D01*
X99797Y883885D01*
X99836Y884002D01*
X99875Y884080D01*
X99895Y884138D01*
Y884158D01*
X100031Y884450D01*
X100090Y884587D01*
X100168Y884684D01*
X100226Y884782D01*
X100285Y884840D01*
X100304Y884879D01*
X100324Y884899D01*
X100539Y885114D01*
X100753Y885270D01*
X100851Y885328D01*
X100929Y885367D01*
X100968Y885406D01*
X100987D01*
X101260Y885543D01*
X101533Y885640D01*
X101631Y885660D01*
X101709Y885679D01*
X101767Y885699D01*
X101787D01*
X101553Y885816D01*
X101358Y885913D01*
X101280Y885952D01*
X101221Y885991D01*
X101202Y886030D01*
X101182D01*
X100987Y886206D01*
X100851Y886362D01*
X100772Y886479D01*
X100733Y886498D01*
Y886518D01*
X100597Y886733D01*
X100519Y886928D01*
X100480Y887006D01*
X100460Y887064D01*
X100441Y887103D01*
Y887123D01*
X100382Y887376D01*
X100363Y887591D01*
X100343Y887688D01*
Y887766D01*
Y887805D01*
Y887825D01*
X100363Y888059D01*
X100382Y888293D01*
X100421Y888488D01*
X100460Y888644D01*
X100519Y888781D01*
X100558Y888898D01*
X100577Y888956D01*
X100597Y888976D01*
X100695Y889152D01*
X100792Y889327D01*
X100909Y889464D01*
X101026Y889581D01*
X101124Y889678D01*
X101202Y889737D01*
X101260Y889776D01*
X101280Y889795D01*
X101455Y889912D01*
X101650Y890010D01*
X101826Y890088D01*
X102001Y890166D01*
X102158Y890224D01*
X102275Y890263D01*
X102353Y890283D01*
X102392D01*
X102645Y890341D01*
X102918Y890380D01*
X103191Y890419D01*
X103445Y890439D01*
X103679Y890459D01*
X106605D01*
X106781Y890439D01*
D02*
G37*
G36*
X35055Y974064D02*
X35406Y974025D01*
X35737Y973967D01*
X36030Y973908D01*
X36284Y973830D01*
X36459Y973772D01*
X36576Y973733D01*
X36596Y973713D01*
X36615D01*
X36927Y973577D01*
X37220Y973401D01*
X37474Y973226D01*
X37688Y973050D01*
X37864Y972894D01*
X38000Y972777D01*
X38098Y972699D01*
X38117Y972660D01*
X38332Y972387D01*
X38527Y972094D01*
X38702Y971802D01*
X38839Y971528D01*
X38956Y971294D01*
X39034Y971099D01*
X39054Y971021D01*
X39073Y970963D01*
X39093Y970943D01*
Y970924D01*
X39210Y970534D01*
X39288Y970144D01*
X39366Y969753D01*
X39405Y969383D01*
X39424Y969071D01*
Y968934D01*
X39444Y968817D01*
Y968739D01*
Y968661D01*
Y968622D01*
Y968602D01*
X39424Y968134D01*
X39385Y967686D01*
X39346Y967315D01*
X39288Y966964D01*
X39229Y966691D01*
X39171Y966496D01*
X39151Y966418D01*
Y966359D01*
X39132Y966340D01*
Y966320D01*
X38995Y965969D01*
X38859Y965657D01*
X38702Y965364D01*
X38547Y965130D01*
X38429Y964935D01*
X38312Y964799D01*
X38234Y964721D01*
X38215Y964681D01*
X37981Y964447D01*
X37727Y964252D01*
X37493Y964096D01*
X37259Y963960D01*
X37064Y963843D01*
X36908Y963765D01*
X36810Y963726D01*
X36771Y963706D01*
X36440Y963609D01*
X36108Y963531D01*
X35776Y963472D01*
X35484Y963433D01*
X35230Y963413D01*
X35016Y963394D01*
X34840D01*
X34450Y963413D01*
X34274Y963433D01*
X34118Y963453D01*
X34001D01*
X33904Y963472D01*
X33845Y963492D01*
X33826D01*
X33494Y963550D01*
X33358Y963589D01*
X33240Y963628D01*
X33143Y963648D01*
X33065Y963667D01*
X33026Y963687D01*
X33006D01*
X32753Y963784D01*
X32558Y963882D01*
X32480Y963901D01*
X32421Y963940D01*
X32402Y963960D01*
X32382D01*
X32226Y964057D01*
X32129Y964135D01*
X32070Y964174D01*
X32051Y964194D01*
X31992Y964252D01*
X31953Y964311D01*
X31914Y964330D01*
Y964350D01*
X31875Y964467D01*
X31855Y964506D01*
Y964525D01*
X31836Y964681D01*
X31816Y964740D01*
Y964760D01*
X31797Y964876D01*
Y964994D01*
Y965072D01*
Y965111D01*
Y965306D01*
Y965442D01*
X31816Y965540D01*
Y965559D01*
X31836Y965676D01*
X31855Y965754D01*
X31875Y965813D01*
Y965832D01*
X31895Y965891D01*
X31914Y965930D01*
X31934Y965969D01*
X31953D01*
X32031Y966008D01*
X32070D01*
X32168Y965988D01*
X32265Y965949D01*
X32343Y965891D01*
X32382Y965871D01*
X32538Y965774D01*
X32675Y965676D01*
X32792Y965598D01*
X32831Y965579D01*
X32850D01*
X33084Y965462D01*
X33319Y965384D01*
X33416Y965345D01*
X33475Y965306D01*
X33533Y965286D01*
X33553D01*
X33884Y965228D01*
X34196Y965189D01*
X34333Y965169D01*
X34528D01*
X34957Y965208D01*
X35152Y965228D01*
X35308Y965267D01*
X35445Y965306D01*
X35542Y965325D01*
X35620Y965364D01*
X35640D01*
X35815Y965462D01*
X35972Y965559D01*
X36128Y965657D01*
X36245Y965774D01*
X36342Y965852D01*
X36420Y965930D01*
X36459Y965988D01*
X36479Y966008D01*
X36596Y966183D01*
X36693Y966379D01*
X36791Y966554D01*
X36869Y966730D01*
X36927Y966886D01*
X36966Y967003D01*
X37005Y967100D01*
Y967120D01*
X37064Y967374D01*
X37103Y967647D01*
X37142Y967920D01*
X37161Y968154D01*
Y968368D01*
X37181Y968544D01*
Y968661D01*
Y968680D01*
Y968700D01*
Y969012D01*
X37161Y969285D01*
X37122Y969539D01*
X37083Y969773D01*
X37064Y969948D01*
X37025Y970085D01*
X37005Y970163D01*
Y970202D01*
X36927Y970436D01*
X36849Y970651D01*
X36771Y970846D01*
X36693Y971021D01*
X36615Y971158D01*
X36557Y971255D01*
X36518Y971314D01*
X36498Y971333D01*
X36362Y971509D01*
X36225Y971646D01*
X36089Y971763D01*
X35972Y971880D01*
X35854Y971958D01*
X35757Y972016D01*
X35698Y972036D01*
X35679Y972055D01*
X35484Y972133D01*
X35308Y972211D01*
X35113Y972250D01*
X34957Y972270D01*
X34801Y972289D01*
X34684Y972309D01*
X34391D01*
X34196Y972289D01*
X34040Y972270D01*
X33904Y972231D01*
X33787Y972211D01*
X33709Y972172D01*
X33650Y972153D01*
X33631D01*
X33338Y972055D01*
X33124Y971938D01*
X33045Y971899D01*
X32987Y971880D01*
X32948Y971841D01*
X32928D01*
X32733Y971724D01*
X32577Y971646D01*
X32499Y971568D01*
X32460Y971548D01*
X32324Y971470D01*
X32226Y971431D01*
X32168Y971411D01*
X32148D01*
X32051Y971431D01*
X32011Y971451D01*
X31972Y971489D01*
X31934Y971528D01*
X31914Y971568D01*
Y971587D01*
X31895Y971684D01*
X31875Y971763D01*
X31855Y971841D01*
Y971860D01*
X31836Y971997D01*
Y972133D01*
Y972250D01*
Y972270D01*
Y972289D01*
Y972445D01*
Y972562D01*
X31855Y972640D01*
Y972660D01*
X31875Y972757D01*
Y972855D01*
X31895Y972894D01*
Y972914D01*
X31914Y972991D01*
X31934Y973050D01*
X31953Y973089D01*
Y973109D01*
X31992Y973167D01*
X32051Y973226D01*
X32090Y973265D01*
X32109Y973284D01*
X32207Y973382D01*
X32324Y973460D01*
X32441Y973518D01*
X32460Y973538D01*
X32480D01*
X32694Y973655D01*
X32889Y973733D01*
X32987Y973772D01*
X33045Y973791D01*
X33084Y973811D01*
X33104D01*
X33358Y973889D01*
X33592Y973947D01*
X33689Y973967D01*
X33767Y973986D01*
X33826Y974006D01*
X33845D01*
X34138Y974045D01*
X34391Y974084D01*
X34664D01*
X35055Y974064D01*
D02*
G37*
G36*
X95545Y890614D02*
X95779Y890595D01*
X95974Y890556D01*
X96149Y890517D01*
X96266Y890498D01*
X96344Y890459D01*
X96383D01*
X96617Y890380D01*
X96813Y890302D01*
X97008Y890205D01*
X97164Y890127D01*
X97300Y890049D01*
X97398Y889971D01*
X97456Y889932D01*
X97476Y889912D01*
X97632Y889776D01*
X97788Y889620D01*
X97924Y889444D01*
X98022Y889307D01*
X98100Y889171D01*
X98159Y889073D01*
X98198Y888995D01*
X98217Y888976D01*
X98315Y888761D01*
X98373Y888527D01*
X98432Y888313D01*
X98451Y888118D01*
X98471Y887942D01*
X98490Y887786D01*
Y887708D01*
Y887669D01*
Y887435D01*
X98471Y887220D01*
X98432Y887025D01*
X98393Y886869D01*
X98373Y886733D01*
X98334Y886635D01*
X98315Y886577D01*
Y886557D01*
X98159Y886225D01*
X98061Y886089D01*
X97983Y885972D01*
X97924Y885874D01*
X97866Y885796D01*
X97827Y885757D01*
X97807Y885738D01*
X97573Y885504D01*
X97339Y885328D01*
X97242Y885250D01*
X97164Y885191D01*
X97125Y885172D01*
X97105Y885153D01*
X96813Y884996D01*
X96559Y884860D01*
X96461Y884801D01*
X96383Y884762D01*
X96325Y884723D01*
X96305D01*
X96013Y884587D01*
X95759Y884470D01*
X95642Y884411D01*
X95564Y884392D01*
X95525Y884353D01*
X95506D01*
X95232Y884236D01*
X94998Y884119D01*
X94920Y884080D01*
X94862Y884041D01*
X94823Y884002D01*
X94803D01*
X94589Y883846D01*
X94433Y883709D01*
X94335Y883592D01*
X94296Y883572D01*
Y883553D01*
X94179Y883358D01*
X94121Y883163D01*
X94101Y883065D01*
Y883007D01*
Y882968D01*
Y882948D01*
X94121Y882734D01*
X94160Y882558D01*
X94199Y882421D01*
X94218Y882402D01*
Y882383D01*
X94316Y882226D01*
X94433Y882090D01*
X94511Y882012D01*
X94530Y881973D01*
X94550D01*
X94725Y881875D01*
X94901Y881797D01*
X94959Y881758D01*
X95018Y881739D01*
X95057Y881719D01*
X95076D01*
X95310Y881680D01*
X95525Y881661D01*
X95603Y881641D01*
X95954D01*
X96149Y881661D01*
X96325Y881680D01*
X96481Y881700D01*
X96598Y881719D01*
X96695Y881739D01*
X96754Y881758D01*
X96774D01*
X97086Y881856D01*
X97203Y881914D01*
X97320Y881953D01*
X97417Y881992D01*
X97476Y882031D01*
X97515Y882051D01*
X97534D01*
X97749Y882168D01*
X97905Y882265D01*
X98022Y882324D01*
X98041Y882344D01*
X98061D01*
X98198Y882421D01*
X98295Y882460D01*
X98354Y882480D01*
X98432D01*
X98471Y882460D01*
X98490Y882441D01*
X98510Y882421D01*
X98549Y882383D01*
X98588Y882324D01*
X98607Y882285D01*
Y882265D01*
X98627Y882187D01*
X98646Y882090D01*
X98666Y882031D01*
Y881992D01*
Y881856D01*
Y881739D01*
Y881622D01*
Y881602D01*
Y881583D01*
Y881349D01*
X98646Y881173D01*
X98627Y881076D01*
Y881037D01*
X98588Y880900D01*
X98549Y880802D01*
X98510Y880744D01*
X98490Y880724D01*
X98393Y880646D01*
X98276Y880568D01*
X98178Y880510D01*
X98139Y880490D01*
X97944Y880393D01*
X97749Y880315D01*
X97671Y880276D01*
X97612Y880256D01*
X97573Y880237D01*
X97554D01*
X97281Y880159D01*
X97027Y880100D01*
X96910Y880081D01*
X96832Y880061D01*
X96774Y880042D01*
X96754D01*
X96403Y879983D01*
X96227Y879964D01*
X96071D01*
X95954Y879944D01*
X95467D01*
X95194Y879983D01*
X94940Y880003D01*
X94725Y880042D01*
X94530Y880081D01*
X94394Y880100D01*
X94316Y880139D01*
X94277D01*
X94023Y880237D01*
X93789Y880334D01*
X93594Y880432D01*
X93399Y880529D01*
X93262Y880627D01*
X93165Y880705D01*
X93087Y880744D01*
X93067Y880763D01*
X92872Y880919D01*
X92716Y881095D01*
X92560Y881271D01*
X92443Y881427D01*
X92345Y881563D01*
X92287Y881680D01*
X92248Y881758D01*
X92228Y881778D01*
X92131Y882012D01*
X92053Y882265D01*
X91994Y882519D01*
X91955Y882734D01*
X91936Y882929D01*
X91916Y883085D01*
Y883182D01*
Y883221D01*
Y883455D01*
X91955Y883651D01*
X91975Y883826D01*
X92014Y884002D01*
X92053Y884119D01*
X92072Y884216D01*
X92111Y884275D01*
Y884294D01*
X92267Y884626D01*
X92365Y884762D01*
X92443Y884879D01*
X92501Y884957D01*
X92560Y885035D01*
X92599Y885074D01*
X92619Y885094D01*
X92853Y885328D01*
X93087Y885523D01*
X93184Y885582D01*
X93262Y885640D01*
X93321Y885660D01*
X93340Y885679D01*
X93633Y885855D01*
X93886Y885991D01*
X94003Y886030D01*
X94082Y886069D01*
X94140Y886108D01*
X94160D01*
X94452Y886245D01*
X94725Y886362D01*
X94823Y886421D01*
X94901Y886440D01*
X94959Y886479D01*
X94979D01*
X95252Y886616D01*
X95467Y886733D01*
X95564Y886772D01*
X95623Y886811D01*
X95662Y886850D01*
X95681D01*
X95896Y887006D01*
X96052Y887142D01*
X96149Y887259D01*
X96188Y887279D01*
Y887298D01*
X96286Y887493D01*
X96344Y887688D01*
Y887786D01*
X96364Y887844D01*
Y887884D01*
Y887903D01*
X96344Y888059D01*
X96325Y888196D01*
X96305Y888293D01*
X96286Y888332D01*
X96208Y888469D01*
X96130Y888586D01*
X96052Y888664D01*
X96032Y888683D01*
X95896Y888781D01*
X95759Y888859D01*
X95642Y888898D01*
X95623Y888917D01*
X95603D01*
X95408Y888976D01*
X95213Y888995D01*
X95115Y889015D01*
X94998D01*
X94686Y888995D01*
X94550Y888976D01*
X94433Y888956D01*
X94335Y888937D01*
X94257Y888917D01*
X94218Y888898D01*
X94199D01*
X93945Y888800D01*
X93730Y888722D01*
X93652Y888703D01*
X93594Y888664D01*
X93574Y888644D01*
X93555D01*
X93360Y888566D01*
X93223Y888488D01*
X93126Y888430D01*
X93087Y888410D01*
X92950Y888352D01*
X92872Y888332D01*
X92814Y888313D01*
X92794D01*
X92697Y888332D01*
X92677Y888352D01*
X92638Y888391D01*
X92619Y888430D01*
X92599Y888469D01*
Y888488D01*
X92579Y888586D01*
X92560Y888664D01*
X92541Y888742D01*
Y888761D01*
X92521Y888898D01*
Y889015D01*
Y889112D01*
Y889152D01*
Y889288D01*
Y889405D01*
X92541Y889483D01*
Y889503D01*
Y889600D01*
Y889678D01*
X92560Y889717D01*
Y889737D01*
X92599Y889854D01*
X92619Y889873D01*
Y889893D01*
X92638Y889932D01*
X92677Y889990D01*
X92697Y890010D01*
X92716Y890029D01*
X92794Y890088D01*
X92911Y890166D01*
X93009Y890205D01*
X93028Y890224D01*
X93048D01*
X93243Y890302D01*
X93418Y890380D01*
X93496Y890400D01*
X93555Y890419D01*
X93594Y890439D01*
X93613D01*
X93848Y890498D01*
X94062Y890556D01*
X94160Y890575D01*
X94238D01*
X94277Y890595D01*
X94296D01*
X94569Y890634D01*
X94803Y890654D01*
X95037D01*
X95545Y890614D01*
D02*
G37*
G36*
X87215Y890517D02*
X87410D01*
X87469Y890498D01*
X87605D01*
X87625Y890478D01*
X87644D01*
X87722Y890439D01*
X87742Y890419D01*
X89966Y888976D01*
X90083Y888898D01*
X90102Y888878D01*
X90122Y888859D01*
X90180Y888761D01*
X90200Y888722D01*
Y888703D01*
X90239Y888586D01*
Y888527D01*
Y888508D01*
Y888410D01*
Y888313D01*
Y888235D01*
Y888196D01*
Y887981D01*
X90219Y887844D01*
Y887747D01*
Y887708D01*
X90200Y887610D01*
X90180Y887532D01*
X90141Y887493D01*
Y887474D01*
X90083Y887435D01*
X89946D01*
X89848Y887454D01*
X89751Y887493D01*
X89673Y887532D01*
X89653Y887552D01*
X87976Y888469D01*
Y881739D01*
X89966D01*
X90005Y881719D01*
X90024Y881700D01*
X90044Y881680D01*
X90083Y881641D01*
X90122Y881602D01*
X90141Y881563D01*
Y881544D01*
X90161Y881466D01*
X90180Y881388D01*
X90200Y881310D01*
Y881290D01*
X90219Y881173D01*
Y881037D01*
Y880939D01*
Y880919D01*
Y880900D01*
Y880744D01*
X90200Y880627D01*
Y880549D01*
Y880529D01*
X90180Y880432D01*
X90161Y880354D01*
X90141Y880295D01*
Y880276D01*
X90083Y880198D01*
X90044Y880159D01*
X89966Y880120D01*
X84211D01*
X84113Y880139D01*
X84074Y880159D01*
X83996Y880237D01*
X83977Y880256D01*
Y880276D01*
X83957Y880354D01*
X83938Y880432D01*
X83918Y880510D01*
Y880529D01*
X83899Y880646D01*
X83879Y880783D01*
Y880861D01*
Y880900D01*
Y881056D01*
X83899Y881192D01*
X83918Y881271D01*
Y881290D01*
X83938Y881388D01*
X83957Y881485D01*
X83977Y881524D01*
Y881544D01*
X84016Y881602D01*
X84035Y881641D01*
X84055Y881680D01*
X84074D01*
X84113Y881719D01*
X84172Y881739D01*
X85889D01*
Y890283D01*
X85908Y890361D01*
X85928Y890380D01*
X85967Y890419D01*
X86006Y890439D01*
X86045Y890459D01*
X86064D01*
X86142Y890478D01*
X86240Y890498D01*
X86318Y890517D01*
X86357D01*
X86513Y890536D01*
X87118D01*
X87215Y890517D01*
D02*
G37*
G36*
X133421Y974084D02*
X133772Y974045D01*
X134103Y973987D01*
X134396Y973928D01*
X134650Y973850D01*
X134825Y973792D01*
X134942Y973753D01*
X134962Y973733D01*
X134981D01*
X135293Y973597D01*
X135586Y973421D01*
X135840Y973246D01*
X136054Y973070D01*
X136230Y972914D01*
X136366Y972797D01*
X136464Y972719D01*
X136483Y972680D01*
X136698Y972407D01*
X136893Y972114D01*
X137069Y971822D01*
X137205Y971548D01*
X137322Y971314D01*
X137400Y971119D01*
X137420Y971041D01*
X137439Y970983D01*
X137459Y970963D01*
Y970944D01*
X137576Y970554D01*
X137654Y970163D01*
X137732Y969773D01*
X137771Y969403D01*
X137790Y969091D01*
Y968954D01*
X137810Y968837D01*
Y968759D01*
Y968681D01*
Y968642D01*
Y968622D01*
X137790Y968154D01*
X137751Y967706D01*
X137712Y967335D01*
X137654Y966984D01*
X137595Y966711D01*
X137537Y966516D01*
X137517Y966438D01*
Y966379D01*
X137498Y966360D01*
Y966340D01*
X137361Y965989D01*
X137225Y965677D01*
X137069Y965384D01*
X136912Y965150D01*
X136795Y964955D01*
X136678Y964818D01*
X136600Y964741D01*
X136581Y964702D01*
X136347Y964467D01*
X136093Y964272D01*
X135859Y964116D01*
X135625Y963980D01*
X135430Y963863D01*
X135274Y963785D01*
X135176Y963746D01*
X135137Y963726D01*
X134806Y963629D01*
X134474Y963550D01*
X134142Y963492D01*
X133850Y963453D01*
X133596Y963434D01*
X133382Y963414D01*
X133206D01*
X132816Y963434D01*
X132640Y963453D01*
X132484Y963473D01*
X132367D01*
X132270Y963492D01*
X132211Y963512D01*
X132192D01*
X131860Y963570D01*
X131723Y963609D01*
X131607Y963648D01*
X131509Y963668D01*
X131431Y963687D01*
X131392Y963707D01*
X131372D01*
X131119Y963804D01*
X130924Y963902D01*
X130846Y963921D01*
X130787Y963960D01*
X130768Y963980D01*
X130748D01*
X130592Y964077D01*
X130495Y964155D01*
X130436Y964194D01*
X130417Y964214D01*
X130358Y964272D01*
X130319Y964331D01*
X130280Y964350D01*
Y964370D01*
X130241Y964487D01*
X130222Y964526D01*
Y964545D01*
X130202Y964702D01*
X130183Y964760D01*
Y964780D01*
X130163Y964896D01*
Y965014D01*
Y965092D01*
Y965131D01*
Y965326D01*
Y965462D01*
X130183Y965560D01*
Y965579D01*
X130202Y965696D01*
X130222Y965774D01*
X130241Y965833D01*
Y965852D01*
X130260Y965911D01*
X130280Y965950D01*
X130300Y965989D01*
X130319D01*
X130397Y966028D01*
X130436D01*
X130534Y966009D01*
X130631Y965969D01*
X130709Y965911D01*
X130748Y965891D01*
X130904Y965794D01*
X131041Y965696D01*
X131158Y965618D01*
X131197Y965599D01*
X131216D01*
X131450Y965482D01*
X131685Y965404D01*
X131782Y965365D01*
X131841Y965326D01*
X131899Y965306D01*
X131919D01*
X132250Y965248D01*
X132562Y965209D01*
X132699Y965189D01*
X132894D01*
X133323Y965228D01*
X133518Y965248D01*
X133674Y965287D01*
X133811Y965326D01*
X133908Y965345D01*
X133986Y965384D01*
X134006D01*
X134181Y965482D01*
X134338Y965579D01*
X134494Y965677D01*
X134611Y965794D01*
X134708Y965872D01*
X134786Y965950D01*
X134825Y966009D01*
X134845Y966028D01*
X134962Y966204D01*
X135059Y966399D01*
X135157Y966574D01*
X135235Y966750D01*
X135293Y966906D01*
X135332Y967023D01*
X135371Y967120D01*
Y967140D01*
X135430Y967393D01*
X135469Y967667D01*
X135508Y967940D01*
X135527Y968174D01*
Y968388D01*
X135547Y968564D01*
Y968681D01*
Y968700D01*
Y968720D01*
Y969032D01*
X135527Y969305D01*
X135488Y969559D01*
X135449Y969793D01*
X135430Y969968D01*
X135391Y970105D01*
X135371Y970183D01*
Y970222D01*
X135293Y970456D01*
X135215Y970671D01*
X135137Y970866D01*
X135059Y971041D01*
X134981Y971178D01*
X134923Y971275D01*
X134884Y971334D01*
X134864Y971353D01*
X134728Y971529D01*
X134591Y971665D01*
X134454Y971783D01*
X134338Y971900D01*
X134221Y971978D01*
X134123Y972036D01*
X134064Y972056D01*
X134045Y972075D01*
X133850Y972153D01*
X133674Y972231D01*
X133479Y972270D01*
X133323Y972290D01*
X133167Y972309D01*
X133050Y972329D01*
X132757D01*
X132562Y972309D01*
X132406Y972290D01*
X132270Y972251D01*
X132153Y972231D01*
X132075Y972192D01*
X132016Y972173D01*
X131997D01*
X131704Y972075D01*
X131489Y971958D01*
X131411Y971919D01*
X131353Y971900D01*
X131314Y971861D01*
X131294D01*
X131099Y971744D01*
X130943Y971665D01*
X130865Y971588D01*
X130826Y971568D01*
X130690Y971490D01*
X130592Y971451D01*
X130534Y971432D01*
X130514D01*
X130417Y971451D01*
X130378Y971470D01*
X130338Y971509D01*
X130300Y971548D01*
X130280Y971588D01*
Y971607D01*
X130260Y971705D01*
X130241Y971783D01*
X130222Y971861D01*
Y971880D01*
X130202Y972017D01*
Y972153D01*
Y972270D01*
Y972290D01*
Y972309D01*
Y972465D01*
Y972582D01*
X130222Y972660D01*
Y972680D01*
X130241Y972777D01*
Y972875D01*
X130260Y972914D01*
Y972934D01*
X130280Y973011D01*
X130300Y973070D01*
X130319Y973109D01*
Y973129D01*
X130358Y973187D01*
X130417Y973246D01*
X130456Y973285D01*
X130475Y973304D01*
X130573Y973402D01*
X130690Y973480D01*
X130807Y973538D01*
X130826Y973558D01*
X130846D01*
X131060Y973675D01*
X131255Y973753D01*
X131353Y973792D01*
X131411Y973811D01*
X131450Y973831D01*
X131470D01*
X131723Y973909D01*
X131958Y973967D01*
X132055Y973987D01*
X132133Y974006D01*
X132192Y974026D01*
X132211D01*
X132504Y974065D01*
X132757Y974104D01*
X133031D01*
X133421Y974084D01*
D02*
G37*
G36*
X57239Y890634D02*
X57415Y890614D01*
X57571Y890595D01*
X57708Y890575D01*
X57805Y890556D01*
X57883Y890536D01*
X57902D01*
X58234Y890459D01*
X58390Y890419D01*
X58507Y890380D01*
X58624Y890341D01*
X58702Y890302D01*
X58741Y890283D01*
X58761D01*
X59014Y890185D01*
X59209Y890088D01*
X59288Y890049D01*
X59346Y890010D01*
X59366Y889990D01*
X59385D01*
X59541Y889893D01*
X59639Y889834D01*
X59697Y889795D01*
X59717Y889776D01*
X59795Y889678D01*
X59834Y889639D01*
Y889620D01*
X59873Y889522D01*
X59892Y889483D01*
Y889464D01*
X59912Y889405D01*
Y889327D01*
Y889268D01*
Y889249D01*
Y889152D01*
Y889034D01*
Y888956D01*
Y888937D01*
Y888917D01*
Y888761D01*
Y888644D01*
Y888547D01*
Y888527D01*
X59892Y888430D01*
Y888352D01*
X59873Y888313D01*
Y888293D01*
X59834Y888254D01*
X59814Y888215D01*
X59795Y888196D01*
X59697Y888176D01*
X59658D01*
X59580Y888196D01*
X59483Y888235D01*
X59405Y888274D01*
X59366Y888293D01*
X59209Y888391D01*
X59054Y888488D01*
X58917Y888547D01*
X58897Y888566D01*
X58878D01*
X58644Y888683D01*
X58429Y888761D01*
X58351Y888800D01*
X58273Y888820D01*
X58234Y888839D01*
X58215D01*
X57941Y888917D01*
X57688Y888956D01*
X57590Y888976D01*
X57434D01*
X57181Y888956D01*
X56966Y888917D01*
X56888Y888898D01*
X56830Y888878D01*
X56810Y888859D01*
X56791D01*
X56596Y888781D01*
X56459Y888683D01*
X56381Y888625D01*
X56342Y888586D01*
X56225Y888469D01*
X56147Y888332D01*
X56108Y888235D01*
X56088Y888215D01*
Y888196D01*
X56030Y888020D01*
X56010Y887864D01*
X55991Y887728D01*
Y887708D01*
Y887688D01*
X56010Y887454D01*
X56049Y887259D01*
X56088Y887181D01*
X56108Y887123D01*
X56127Y887084D01*
Y887064D01*
X56244Y886869D01*
X56361Y886733D01*
X56459Y886635D01*
X56479Y886596D01*
X56498D01*
X56693Y886460D01*
X56888Y886362D01*
X56966Y886323D01*
X57044Y886303D01*
X57083Y886284D01*
X57103D01*
X57376Y886225D01*
X57649Y886206D01*
X57747Y886186D01*
X58819D01*
X58936Y886167D01*
X58975Y886147D01*
X58995D01*
X59073Y886069D01*
X59092Y886050D01*
Y886030D01*
X59112Y885952D01*
X59131Y885894D01*
X59151Y885816D01*
Y885796D01*
X59170Y885679D01*
Y885562D01*
Y885465D01*
Y885445D01*
Y885426D01*
Y885250D01*
X59151Y885133D01*
Y885035D01*
Y885016D01*
X59131Y884918D01*
X59112Y884840D01*
X59092Y884782D01*
Y884762D01*
X59054Y884723D01*
X59014Y884684D01*
X58995Y884665D01*
X58975D01*
X58858Y884645D01*
X57902D01*
X57512Y884626D01*
X57356Y884606D01*
X57220Y884587D01*
X57103Y884567D01*
X57025Y884548D01*
X56966Y884528D01*
X56947D01*
X56654Y884431D01*
X56537Y884372D01*
X56439Y884314D01*
X56361Y884275D01*
X56283Y884236D01*
X56264Y884216D01*
X56244Y884197D01*
X56069Y884041D01*
X55932Y883885D01*
X55854Y883767D01*
X55835Y883728D01*
Y883709D01*
X55737Y883494D01*
X55698Y883280D01*
X55679Y883202D01*
Y883124D01*
Y883085D01*
Y883065D01*
X55698Y882831D01*
X55737Y882636D01*
X55757Y882558D01*
X55776Y882499D01*
X55796Y882480D01*
Y882460D01*
X55893Y882285D01*
X56010Y882148D01*
X56108Y882051D01*
X56127Y882012D01*
X56147D01*
X56342Y881875D01*
X56518Y881797D01*
X56615Y881758D01*
X56674Y881739D01*
X56713Y881719D01*
X56732D01*
X56986Y881661D01*
X57239Y881641D01*
X57337Y881622D01*
X57493D01*
X57863Y881641D01*
X58020Y881661D01*
X58156Y881680D01*
X58273D01*
X58351Y881700D01*
X58410Y881719D01*
X58429D01*
X58702Y881797D01*
X58917Y881875D01*
X59014Y881914D01*
X59073Y881934D01*
X59112Y881953D01*
X59131D01*
X59327Y882031D01*
X59483Y882109D01*
X59580Y882168D01*
X59619Y882187D01*
X59736Y882265D01*
X59834Y882285D01*
X59873Y882305D01*
X59892D01*
X59970Y882285D01*
X60048Y882226D01*
X60068Y882168D01*
X60087Y882148D01*
X60107Y882090D01*
X60126Y881992D01*
X60146Y881836D01*
Y881739D01*
Y881680D01*
Y881641D01*
Y881622D01*
Y881466D01*
Y881329D01*
Y881251D01*
Y881212D01*
X60126Y881095D01*
Y881017D01*
X60107Y880958D01*
Y880939D01*
X60068Y880822D01*
X60048Y880783D01*
Y880763D01*
X59970Y880666D01*
X59951Y880646D01*
X59931Y880627D01*
X59853Y880568D01*
X59756Y880510D01*
X59678Y880451D01*
X59639Y880432D01*
X59444Y880354D01*
X59248Y880276D01*
X59170Y880237D01*
X59112Y880217D01*
X59073Y880198D01*
X59054D01*
X58761Y880139D01*
X58507Y880081D01*
X58390Y880061D01*
X58312Y880042D01*
X58254Y880022D01*
X58234D01*
X57883Y879983D01*
X57708Y879964D01*
X57551D01*
X57434Y879944D01*
X56927D01*
X56615Y879983D01*
X56342Y880003D01*
X56108Y880042D01*
X55913Y880081D01*
X55757Y880100D01*
X55679Y880139D01*
X55640D01*
X55367Y880237D01*
X55132Y880334D01*
X54918Y880432D01*
X54723Y880529D01*
X54586Y880627D01*
X54469Y880705D01*
X54391Y880744D01*
X54372Y880763D01*
X54177Y880919D01*
X54021Y881095D01*
X53884Y881271D01*
X53767Y881427D01*
X53670Y881563D01*
X53611Y881680D01*
X53572Y881758D01*
X53552Y881778D01*
X53455Y882012D01*
X53377Y882246D01*
X53318Y882480D01*
X53279Y882695D01*
X53260Y882870D01*
X53240Y883007D01*
Y883104D01*
Y883143D01*
X53260Y883475D01*
X53299Y883631D01*
X53318Y883767D01*
X53357Y883865D01*
X53396Y883943D01*
X53416Y884002D01*
Y884021D01*
X53552Y884314D01*
X53689Y884528D01*
X53767Y884626D01*
X53806Y884684D01*
X53845Y884723D01*
X53864Y884743D01*
X54099Y884957D01*
X54352Y885133D01*
X54450Y885191D01*
X54528Y885230D01*
X54586Y885270D01*
X54606D01*
X54937Y885406D01*
X55093Y885465D01*
X55250Y885504D01*
X55367Y885523D01*
X55464Y885543D01*
X55542Y885562D01*
X55562D01*
Y885582D01*
X55250Y885679D01*
X55113Y885738D01*
X54996Y885796D01*
X54898Y885835D01*
X54820Y885874D01*
X54781Y885913D01*
X54762D01*
X54528Y886089D01*
X54352Y886264D01*
X54274Y886323D01*
X54235Y886382D01*
X54196Y886421D01*
Y886440D01*
X54040Y886694D01*
X53923Y886928D01*
X53884Y887025D01*
X53864Y887103D01*
X53845Y887162D01*
Y887181D01*
X53767Y887493D01*
X53728Y887766D01*
X53709Y887884D01*
Y887981D01*
Y888040D01*
Y888059D01*
Y888274D01*
X53748Y888488D01*
X53767Y888664D01*
X53806Y888839D01*
X53845Y888956D01*
X53884Y889073D01*
X53903Y889132D01*
X53923Y889152D01*
X54001Y889327D01*
X54099Y889483D01*
X54196Y889620D01*
X54294Y889737D01*
X54391Y889834D01*
X54469Y889912D01*
X54508Y889951D01*
X54528Y889971D01*
X54840Y890185D01*
X55152Y890341D01*
X55289Y890400D01*
X55406Y890439D01*
X55484Y890478D01*
X55503D01*
X55952Y890575D01*
X56166Y890614D01*
X56381Y890634D01*
X56557Y890654D01*
X56830D01*
X57239Y890634D01*
D02*
G37*
G36*
X64945Y890614D02*
X65179Y890595D01*
X65374Y890556D01*
X65549Y890517D01*
X65666Y890498D01*
X65744Y890459D01*
X65783D01*
X66017Y890380D01*
X66213Y890302D01*
X66408Y890205D01*
X66564Y890127D01*
X66700Y890049D01*
X66798Y889971D01*
X66856Y889932D01*
X66876Y889912D01*
X67032Y889776D01*
X67188Y889620D01*
X67325Y889444D01*
X67422Y889307D01*
X67500Y889171D01*
X67559Y889073D01*
X67598Y888995D01*
X67617Y888976D01*
X67715Y888761D01*
X67773Y888527D01*
X67832Y888313D01*
X67851Y888118D01*
X67871Y887942D01*
X67890Y887786D01*
Y887708D01*
Y887669D01*
Y887435D01*
X67871Y887220D01*
X67832Y887025D01*
X67793Y886869D01*
X67773Y886733D01*
X67734Y886635D01*
X67715Y886577D01*
Y886557D01*
X67559Y886225D01*
X67461Y886089D01*
X67383Y885972D01*
X67325Y885874D01*
X67266Y885796D01*
X67227Y885757D01*
X67207Y885738D01*
X66973Y885504D01*
X66739Y885328D01*
X66642Y885250D01*
X66564Y885191D01*
X66525Y885172D01*
X66505Y885153D01*
X66213Y884996D01*
X65959Y884860D01*
X65862Y884801D01*
X65783Y884762D01*
X65725Y884723D01*
X65705D01*
X65413Y884587D01*
X65159Y884470D01*
X65042Y884411D01*
X64964Y884392D01*
X64925Y884353D01*
X64906D01*
X64633Y884236D01*
X64398Y884119D01*
X64320Y884080D01*
X64262Y884041D01*
X64223Y884002D01*
X64203D01*
X63989Y883846D01*
X63833Y883709D01*
X63735Y883592D01*
X63696Y883572D01*
Y883553D01*
X63579Y883358D01*
X63521Y883163D01*
X63501Y883065D01*
Y883007D01*
Y882968D01*
Y882948D01*
X63521Y882734D01*
X63560Y882558D01*
X63599Y882421D01*
X63618Y882402D01*
Y882383D01*
X63716Y882226D01*
X63833Y882090D01*
X63911Y882012D01*
X63930Y881973D01*
X63950D01*
X64125Y881875D01*
X64301Y881797D01*
X64359Y881758D01*
X64418Y881739D01*
X64457Y881719D01*
X64476D01*
X64710Y881680D01*
X64925Y881661D01*
X65003Y881641D01*
X65354D01*
X65549Y881661D01*
X65725Y881680D01*
X65881Y881700D01*
X65998Y881719D01*
X66095Y881739D01*
X66154Y881758D01*
X66174D01*
X66486Y881856D01*
X66603Y881914D01*
X66720Y881953D01*
X66817Y881992D01*
X66876Y882031D01*
X66915Y882051D01*
X66934D01*
X67149Y882168D01*
X67305Y882265D01*
X67422Y882324D01*
X67442Y882344D01*
X67461D01*
X67598Y882421D01*
X67695Y882460D01*
X67754Y882480D01*
X67832D01*
X67871Y882460D01*
X67890Y882441D01*
X67910Y882421D01*
X67949Y882383D01*
X67988Y882324D01*
X68007Y882285D01*
Y882265D01*
X68027Y882187D01*
X68046Y882090D01*
X68066Y882031D01*
Y881992D01*
Y881856D01*
Y881739D01*
Y881622D01*
Y881602D01*
Y881583D01*
Y881349D01*
X68046Y881173D01*
X68027Y881076D01*
Y881037D01*
X67988Y880900D01*
X67949Y880802D01*
X67910Y880744D01*
X67890Y880724D01*
X67793Y880646D01*
X67676Y880568D01*
X67578Y880510D01*
X67539Y880490D01*
X67344Y880393D01*
X67149Y880315D01*
X67071Y880276D01*
X67012Y880256D01*
X66973Y880237D01*
X66954D01*
X66681Y880159D01*
X66427Y880100D01*
X66310Y880081D01*
X66232Y880061D01*
X66174Y880042D01*
X66154D01*
X65803Y879983D01*
X65627Y879964D01*
X65471D01*
X65354Y879944D01*
X64867D01*
X64594Y879983D01*
X64340Y880003D01*
X64125Y880042D01*
X63930Y880081D01*
X63794Y880100D01*
X63716Y880139D01*
X63677D01*
X63423Y880237D01*
X63189Y880334D01*
X62994Y880432D01*
X62799Y880529D01*
X62662Y880627D01*
X62565Y880705D01*
X62487Y880744D01*
X62467Y880763D01*
X62272Y880919D01*
X62116Y881095D01*
X61960Y881271D01*
X61843Y881427D01*
X61745Y881563D01*
X61687Y881680D01*
X61648Y881758D01*
X61628Y881778D01*
X61531Y882012D01*
X61453Y882265D01*
X61394Y882519D01*
X61355Y882734D01*
X61336Y882929D01*
X61316Y883085D01*
Y883182D01*
Y883221D01*
Y883455D01*
X61355Y883651D01*
X61375Y883826D01*
X61414Y884002D01*
X61453Y884119D01*
X61472Y884216D01*
X61511Y884275D01*
Y884294D01*
X61667Y884626D01*
X61765Y884762D01*
X61843Y884879D01*
X61901Y884957D01*
X61960Y885035D01*
X61999Y885074D01*
X62018Y885094D01*
X62253Y885328D01*
X62487Y885523D01*
X62584Y885582D01*
X62662Y885640D01*
X62721Y885660D01*
X62740Y885679D01*
X63033Y885855D01*
X63286Y885991D01*
X63404Y886030D01*
X63482Y886069D01*
X63540Y886108D01*
X63560D01*
X63852Y886245D01*
X64125Y886362D01*
X64223Y886421D01*
X64301Y886440D01*
X64359Y886479D01*
X64379D01*
X64652Y886616D01*
X64867Y886733D01*
X64964Y886772D01*
X65023Y886811D01*
X65062Y886850D01*
X65081D01*
X65296Y887006D01*
X65452Y887142D01*
X65549Y887259D01*
X65588Y887279D01*
Y887298D01*
X65686Y887493D01*
X65744Y887688D01*
Y887786D01*
X65764Y887844D01*
Y887884D01*
Y887903D01*
X65744Y888059D01*
X65725Y888196D01*
X65705Y888293D01*
X65686Y888332D01*
X65608Y888469D01*
X65530Y888586D01*
X65452Y888664D01*
X65432Y888683D01*
X65296Y888781D01*
X65159Y888859D01*
X65042Y888898D01*
X65023Y888917D01*
X65003D01*
X64808Y888976D01*
X64613Y888995D01*
X64516Y889015D01*
X64398D01*
X64086Y888995D01*
X63950Y888976D01*
X63833Y888956D01*
X63735Y888937D01*
X63657Y888917D01*
X63618Y888898D01*
X63599D01*
X63345Y888800D01*
X63130Y888722D01*
X63052Y888703D01*
X62994Y888664D01*
X62974Y888644D01*
X62955D01*
X62760Y888566D01*
X62623Y888488D01*
X62526Y888430D01*
X62487Y888410D01*
X62350Y888352D01*
X62272Y888332D01*
X62214Y888313D01*
X62194D01*
X62097Y888332D01*
X62077Y888352D01*
X62038Y888391D01*
X62018Y888430D01*
X61999Y888469D01*
Y888488D01*
X61979Y888586D01*
X61960Y888664D01*
X61940Y888742D01*
Y888761D01*
X61921Y888898D01*
Y889015D01*
Y889112D01*
Y889152D01*
Y889288D01*
Y889405D01*
X61940Y889483D01*
Y889503D01*
Y889600D01*
Y889678D01*
X61960Y889717D01*
Y889737D01*
X61999Y889854D01*
X62018Y889873D01*
Y889893D01*
X62038Y889932D01*
X62077Y889990D01*
X62097Y890010D01*
X62116Y890029D01*
X62194Y890088D01*
X62311Y890166D01*
X62409Y890205D01*
X62428Y890224D01*
X62448D01*
X62643Y890302D01*
X62818Y890380D01*
X62896Y890400D01*
X62955Y890419D01*
X62994Y890439D01*
X63013D01*
X63247Y890498D01*
X63462Y890556D01*
X63560Y890575D01*
X63638D01*
X63677Y890595D01*
X63696D01*
X63969Y890634D01*
X64203Y890654D01*
X64437D01*
X64945Y890614D01*
D02*
G37*
G36*
X76181Y890439D02*
X76317Y890380D01*
X76395Y890322D01*
X76434Y890302D01*
X76532Y890166D01*
X76590Y889990D01*
Y889912D01*
X76610Y889854D01*
Y889815D01*
Y889795D01*
Y880783D01*
Y880646D01*
X76590Y880549D01*
X76512Y880373D01*
X76454Y880295D01*
X76434Y880256D01*
X76298Y880178D01*
X76161Y880139D01*
X76044Y880120D01*
X73021D01*
X72806Y880139D01*
X72631D01*
X72455Y880159D01*
X72318D01*
X72221Y880178D01*
X72123D01*
X71753Y880256D01*
X71597Y880295D01*
X71460Y880334D01*
X71343Y880354D01*
X71245Y880393D01*
X71187Y880412D01*
X71167D01*
X70855Y880549D01*
X70719Y880627D01*
X70582Y880685D01*
X70485Y880744D01*
X70407Y880783D01*
X70368Y880802D01*
X70348Y880822D01*
X70094Y881017D01*
X69880Y881212D01*
X69802Y881290D01*
X69743Y881349D01*
X69724Y881388D01*
X69704Y881407D01*
X69529Y881680D01*
X69392Y881934D01*
X69334Y882051D01*
X69295Y882129D01*
X69275Y882187D01*
Y882207D01*
X69178Y882558D01*
X69158Y882734D01*
X69139Y882890D01*
X69119Y883026D01*
Y883124D01*
Y883202D01*
Y883221D01*
X69139Y883592D01*
X69178Y883748D01*
X69197Y883885D01*
X69236Y884002D01*
X69275Y884080D01*
X69295Y884138D01*
Y884158D01*
X69431Y884450D01*
X69490Y884587D01*
X69568Y884684D01*
X69626Y884782D01*
X69685Y884840D01*
X69704Y884879D01*
X69724Y884899D01*
X69939Y885114D01*
X70153Y885270D01*
X70251Y885328D01*
X70329Y885367D01*
X70368Y885406D01*
X70387D01*
X70660Y885543D01*
X70933Y885640D01*
X71031Y885660D01*
X71109Y885679D01*
X71167Y885699D01*
X71187D01*
X70953Y885816D01*
X70758Y885913D01*
X70680Y885952D01*
X70621Y885991D01*
X70602Y886030D01*
X70582D01*
X70387Y886206D01*
X70251Y886362D01*
X70173Y886479D01*
X70134Y886498D01*
Y886518D01*
X69997Y886733D01*
X69919Y886928D01*
X69880Y887006D01*
X69860Y887064D01*
X69841Y887103D01*
Y887123D01*
X69782Y887376D01*
X69763Y887591D01*
X69743Y887688D01*
Y887766D01*
Y887805D01*
Y887825D01*
X69763Y888059D01*
X69782Y888293D01*
X69821Y888488D01*
X69860Y888644D01*
X69919Y888781D01*
X69958Y888898D01*
X69977Y888956D01*
X69997Y888976D01*
X70094Y889152D01*
X70192Y889327D01*
X70309Y889464D01*
X70426Y889581D01*
X70524Y889678D01*
X70602Y889737D01*
X70660Y889776D01*
X70680Y889795D01*
X70855Y889912D01*
X71050Y890010D01*
X71226Y890088D01*
X71402Y890166D01*
X71558Y890224D01*
X71675Y890263D01*
X71753Y890283D01*
X71792D01*
X72045Y890341D01*
X72318Y890380D01*
X72591Y890419D01*
X72845Y890439D01*
X73079Y890459D01*
X76005D01*
X76181Y890439D01*
D02*
G37*
%LPC*%
G36*
X125559Y968505D02*
X125423D01*
X125169Y968486D01*
X124974Y968447D01*
X124896Y968427D01*
X124838Y968408D01*
X124818Y968388D01*
X124798D01*
X124623Y968291D01*
X124486Y968174D01*
X124389Y968096D01*
X124369Y968076D01*
Y968057D01*
X124272Y967901D01*
X124194Y967725D01*
X124155Y967608D01*
X124135Y967569D01*
Y967550D01*
X124096Y967315D01*
X124057Y967081D01*
Y966984D01*
Y966906D01*
Y966867D01*
Y966847D01*
X124077Y966574D01*
X124096Y966340D01*
X124116Y966243D01*
X124135Y966184D01*
X124155Y966145D01*
Y966125D01*
X124233Y965891D01*
X124330Y965716D01*
X124389Y965638D01*
X124408Y965579D01*
X124447Y965560D01*
Y965540D01*
X124584Y965365D01*
X124740Y965248D01*
X124857Y965170D01*
X124876Y965150D01*
X124896D01*
X125111Y965092D01*
X125325Y965053D01*
X125403Y965033D01*
X125540D01*
X125793Y965053D01*
X126008Y965111D01*
X126086Y965131D01*
X126145Y965150D01*
X126184Y965170D01*
X126203D01*
X126398Y965306D01*
X126535Y965462D01*
X126632Y965579D01*
X126671Y965618D01*
Y965638D01*
X126730Y965774D01*
X126788Y965911D01*
X126866Y966204D01*
X126905Y966340D01*
X126925Y966438D01*
X126944Y966516D01*
Y966535D01*
X126964Y966750D01*
X126983Y967003D01*
X127003Y967237D01*
Y967452D01*
X127022Y967667D01*
Y967823D01*
Y967920D01*
Y967959D01*
X126905Y968037D01*
X126788Y968115D01*
X126710Y968154D01*
X126671Y968174D01*
X126535Y968232D01*
X126398Y968291D01*
X126320Y968310D01*
X126281Y968330D01*
X126125Y968388D01*
X125988Y968427D01*
X125891Y968447D01*
X125852D01*
X125696Y968486D01*
X125559Y968505D01*
D02*
G37*
G36*
X105142Y884665D02*
X103699D01*
X103523Y884645D01*
X103367Y884626D01*
X103230Y884606D01*
X103113Y884587D01*
X103035Y884567D01*
X102996Y884548D01*
X102977D01*
X102723Y884470D01*
X102548Y884372D01*
X102431Y884294D01*
X102392Y884255D01*
X102236Y884099D01*
X102119Y883943D01*
X102060Y883826D01*
X102041Y883787D01*
Y883767D01*
X101962Y883553D01*
X101924Y883358D01*
X101904Y883260D01*
Y883202D01*
Y883163D01*
Y883143D01*
X101924Y882890D01*
X101962Y882695D01*
X102001Y882617D01*
X102021Y882578D01*
X102041Y882539D01*
Y882519D01*
X102138Y882344D01*
X102255Y882187D01*
X102353Y882109D01*
X102372Y882070D01*
X102392D01*
X102567Y881953D01*
X102723Y881875D01*
X102840Y881817D01*
X102879Y881797D01*
X102899D01*
X103133Y881758D01*
X103386Y881739D01*
X103484Y881719D01*
X105142D01*
Y884665D01*
D02*
G37*
G36*
Y888878D02*
X104089D01*
X103777Y888859D01*
X103640Y888839D01*
X103523D01*
X103445Y888820D01*
X103386Y888800D01*
X103348Y888781D01*
X103328D01*
X103133Y888703D01*
X102977Y888625D01*
X102879Y888566D01*
X102840Y888527D01*
X102704Y888391D01*
X102626Y888274D01*
X102567Y888157D01*
X102548Y888137D01*
Y888118D01*
X102489Y887942D01*
X102470Y887766D01*
X102450Y887688D01*
Y887630D01*
Y887591D01*
Y887571D01*
X102470Y887357D01*
X102489Y887181D01*
X102528Y887064D01*
X102548Y887045D01*
Y887025D01*
X102626Y886869D01*
X102704Y886733D01*
X102782Y886635D01*
X102821Y886596D01*
X102957Y886479D01*
X103113Y886382D01*
X103230Y886323D01*
X103250Y886303D01*
X103270D01*
X103367Y886264D01*
X103484Y886245D01*
X103718Y886225D01*
X103835Y886206D01*
X105142D01*
Y888878D01*
D02*
G37*
G36*
X74542Y884665D02*
X73099D01*
X72923Y884645D01*
X72767Y884626D01*
X72631Y884606D01*
X72513Y884587D01*
X72435Y884567D01*
X72396Y884548D01*
X72377D01*
X72123Y884470D01*
X71948Y884372D01*
X71831Y884294D01*
X71792Y884255D01*
X71636Y884099D01*
X71519Y883943D01*
X71460Y883826D01*
X71441Y883787D01*
Y883767D01*
X71363Y883553D01*
X71323Y883358D01*
X71304Y883260D01*
Y883202D01*
Y883163D01*
Y883143D01*
X71323Y882890D01*
X71363Y882695D01*
X71402Y882617D01*
X71421Y882578D01*
X71441Y882539D01*
Y882519D01*
X71538Y882344D01*
X71655Y882187D01*
X71753Y882109D01*
X71772Y882070D01*
X71792D01*
X71967Y881953D01*
X72123Y881875D01*
X72240Y881817D01*
X72279Y881797D01*
X72299D01*
X72533Y881758D01*
X72786Y881739D01*
X72884Y881719D01*
X74542D01*
Y884665D01*
D02*
G37*
G36*
Y888878D02*
X73489D01*
X73177Y888859D01*
X73040Y888839D01*
X72923D01*
X72845Y888820D01*
X72786Y888800D01*
X72748Y888781D01*
X72728D01*
X72533Y888703D01*
X72377Y888625D01*
X72279Y888566D01*
X72240Y888527D01*
X72104Y888391D01*
X72026Y888274D01*
X71967Y888157D01*
X71948Y888137D01*
Y888118D01*
X71889Y887942D01*
X71870Y887766D01*
X71850Y887688D01*
Y887630D01*
Y887591D01*
Y887571D01*
X71870Y887357D01*
X71889Y887181D01*
X71928Y887064D01*
X71948Y887045D01*
Y887025D01*
X72026Y886869D01*
X72104Y886733D01*
X72182Y886635D01*
X72221Y886596D01*
X72357Y886479D01*
X72513Y886382D01*
X72631Y886323D01*
X72650Y886303D01*
X72670D01*
X72767Y886264D01*
X72884Y886245D01*
X73118Y886225D01*
X73235Y886206D01*
X74542D01*
Y888878D01*
D02*
G37*
%LPD*%
D10*
X52810Y893620D02*
Y938820D01*
X77210D01*
X52810Y893620D02*
X77210D01*
Y938820D01*
X82810Y893620D02*
Y938820D01*
X107210D01*
X82810Y893620D02*
X107210D01*
Y938820D01*
X43910Y914820D02*
Y960020D01*
X19510Y914820D02*
X43910D01*
X19510Y960020D02*
X43910D01*
X19510Y914820D02*
Y960020D01*
X142010Y914820D02*
Y960020D01*
X117610Y914820D02*
X142010D01*
X117610Y960020D02*
X142010D01*
X117610Y914820D02*
Y960020D01*
M02*
