G04 Layer_Color=255*
%FSLAX44Y44*%
%MOMM*%
G71*
G01*
G75*
%ADD15R,2.8000X0.5500*%
%ADD24C,1.6000*%
%ADD25C,0.8900*%
%ADD26R,0.8900X0.8900*%
%ADD34R,2.1000X1.2000*%
D15*
X-124528Y672420D02*
D03*
Y664420D02*
D03*
Y656420D02*
D03*
Y648420D02*
D03*
Y640420D02*
D03*
Y632420D02*
D03*
Y624420D02*
D03*
Y616420D02*
D03*
Y608420D02*
D03*
Y600420D02*
D03*
Y592420D02*
D03*
Y584420D02*
D03*
Y576420D02*
D03*
Y568420D02*
D03*
Y560420D02*
D03*
Y552420D02*
D03*
Y544420D02*
D03*
Y536420D02*
D03*
Y528420D02*
D03*
Y520420D02*
D03*
Y512420D02*
D03*
Y504420D02*
D03*
Y464420D02*
D03*
Y456420D02*
D03*
Y448420D02*
D03*
Y440420D02*
D03*
Y432420D02*
D03*
Y424420D02*
D03*
Y416420D02*
D03*
Y408420D02*
D03*
Y400420D02*
D03*
Y392420D02*
D03*
Y384420D02*
D03*
Y376420D02*
D03*
Y368420D02*
D03*
Y360420D02*
D03*
Y352420D02*
D03*
Y344420D02*
D03*
Y336420D02*
D03*
Y328420D02*
D03*
D24*
X54610Y952420D02*
D03*
X80010D02*
D03*
X105410D02*
D03*
D25*
X722410Y811270D02*
D03*
Y798570D02*
D03*
Y785870D02*
D03*
Y773170D02*
D03*
Y760470D02*
D03*
Y747770D02*
D03*
Y735070D02*
D03*
Y722370D02*
D03*
Y709670D02*
D03*
Y696970D02*
D03*
Y684270D02*
D03*
Y671570D02*
D03*
Y658870D02*
D03*
Y646170D02*
D03*
Y633470D02*
D03*
Y620770D02*
D03*
Y608070D02*
D03*
Y595370D02*
D03*
Y582670D02*
D03*
Y569970D02*
D03*
Y557270D02*
D03*
Y544570D02*
D03*
Y531870D02*
D03*
Y519170D02*
D03*
Y506470D02*
D03*
Y493770D02*
D03*
Y481070D02*
D03*
Y468370D02*
D03*
Y455670D02*
D03*
Y442970D02*
D03*
Y430270D02*
D03*
Y417570D02*
D03*
Y404870D02*
D03*
Y392170D02*
D03*
Y379470D02*
D03*
Y366770D02*
D03*
Y354070D02*
D03*
Y341370D02*
D03*
Y328670D02*
D03*
Y315970D02*
D03*
Y303270D02*
D03*
Y290570D02*
D03*
Y277870D02*
D03*
Y265170D02*
D03*
Y252470D02*
D03*
Y239770D02*
D03*
Y227070D02*
D03*
Y214370D02*
D03*
Y201670D02*
D03*
Y188970D02*
D03*
X697010Y811270D02*
D03*
Y798570D02*
D03*
Y785870D02*
D03*
Y773170D02*
D03*
Y760470D02*
D03*
Y747770D02*
D03*
Y735070D02*
D03*
Y722370D02*
D03*
Y709670D02*
D03*
Y696970D02*
D03*
Y684270D02*
D03*
Y671570D02*
D03*
Y658870D02*
D03*
Y646170D02*
D03*
Y633470D02*
D03*
Y620770D02*
D03*
Y608070D02*
D03*
Y595370D02*
D03*
Y582670D02*
D03*
Y569970D02*
D03*
Y557270D02*
D03*
Y544570D02*
D03*
Y531870D02*
D03*
Y519170D02*
D03*
Y506470D02*
D03*
Y493770D02*
D03*
Y481070D02*
D03*
Y468370D02*
D03*
Y455670D02*
D03*
Y442970D02*
D03*
Y430270D02*
D03*
Y417570D02*
D03*
Y404870D02*
D03*
Y392170D02*
D03*
Y379470D02*
D03*
Y366770D02*
D03*
Y354070D02*
D03*
Y341370D02*
D03*
Y328670D02*
D03*
Y315970D02*
D03*
Y303270D02*
D03*
Y290570D02*
D03*
Y277870D02*
D03*
Y265170D02*
D03*
Y252470D02*
D03*
Y239770D02*
D03*
Y227070D02*
D03*
Y214370D02*
D03*
Y201670D02*
D03*
X1019455Y811270D02*
D03*
Y798570D02*
D03*
Y785870D02*
D03*
Y773170D02*
D03*
Y760470D02*
D03*
Y747770D02*
D03*
Y735070D02*
D03*
Y722370D02*
D03*
Y709670D02*
D03*
Y696970D02*
D03*
Y684270D02*
D03*
Y671570D02*
D03*
Y658870D02*
D03*
Y646170D02*
D03*
Y633470D02*
D03*
Y620770D02*
D03*
Y608070D02*
D03*
Y595370D02*
D03*
Y582670D02*
D03*
Y569970D02*
D03*
Y557270D02*
D03*
Y544570D02*
D03*
Y531870D02*
D03*
Y519170D02*
D03*
Y506470D02*
D03*
Y493770D02*
D03*
Y481070D02*
D03*
Y468370D02*
D03*
Y455670D02*
D03*
Y442970D02*
D03*
Y430270D02*
D03*
Y417570D02*
D03*
Y404870D02*
D03*
Y392170D02*
D03*
Y379470D02*
D03*
Y366770D02*
D03*
Y354070D02*
D03*
Y341370D02*
D03*
Y328670D02*
D03*
Y315970D02*
D03*
Y303270D02*
D03*
Y290570D02*
D03*
Y277870D02*
D03*
Y265170D02*
D03*
Y252470D02*
D03*
Y239770D02*
D03*
Y227070D02*
D03*
Y214370D02*
D03*
Y201670D02*
D03*
Y188970D02*
D03*
X994055Y811270D02*
D03*
Y798570D02*
D03*
Y785870D02*
D03*
Y773170D02*
D03*
Y760470D02*
D03*
Y747770D02*
D03*
Y735070D02*
D03*
Y722370D02*
D03*
Y709670D02*
D03*
Y696970D02*
D03*
Y684270D02*
D03*
Y671570D02*
D03*
Y658870D02*
D03*
Y646170D02*
D03*
Y633470D02*
D03*
Y620770D02*
D03*
Y608070D02*
D03*
Y595370D02*
D03*
Y582670D02*
D03*
Y569970D02*
D03*
Y557270D02*
D03*
Y544570D02*
D03*
Y531870D02*
D03*
Y519170D02*
D03*
Y506470D02*
D03*
Y493770D02*
D03*
Y481070D02*
D03*
Y468370D02*
D03*
Y455670D02*
D03*
Y442970D02*
D03*
Y430270D02*
D03*
Y417570D02*
D03*
Y404870D02*
D03*
Y392170D02*
D03*
Y379470D02*
D03*
Y366770D02*
D03*
Y354070D02*
D03*
Y341370D02*
D03*
Y328670D02*
D03*
Y315970D02*
D03*
Y303270D02*
D03*
Y290570D02*
D03*
Y277870D02*
D03*
Y265170D02*
D03*
Y252470D02*
D03*
Y239770D02*
D03*
Y227070D02*
D03*
Y214370D02*
D03*
Y201670D02*
D03*
X1316500Y811070D02*
D03*
Y798370D02*
D03*
Y785670D02*
D03*
Y772970D02*
D03*
Y760270D02*
D03*
Y747570D02*
D03*
Y734870D02*
D03*
Y722170D02*
D03*
Y709470D02*
D03*
Y696770D02*
D03*
Y684070D02*
D03*
Y671370D02*
D03*
Y658670D02*
D03*
Y645970D02*
D03*
Y633270D02*
D03*
Y620570D02*
D03*
Y607870D02*
D03*
Y595170D02*
D03*
Y582470D02*
D03*
Y569770D02*
D03*
Y557070D02*
D03*
Y544370D02*
D03*
Y531670D02*
D03*
Y518970D02*
D03*
Y506270D02*
D03*
Y493570D02*
D03*
Y480870D02*
D03*
Y468170D02*
D03*
Y455470D02*
D03*
Y442770D02*
D03*
Y430070D02*
D03*
Y417370D02*
D03*
Y404670D02*
D03*
Y391970D02*
D03*
Y379270D02*
D03*
Y366570D02*
D03*
Y353870D02*
D03*
Y341170D02*
D03*
Y328470D02*
D03*
Y315770D02*
D03*
Y303070D02*
D03*
Y290370D02*
D03*
Y277670D02*
D03*
Y264970D02*
D03*
Y252270D02*
D03*
Y239570D02*
D03*
Y226870D02*
D03*
Y214170D02*
D03*
Y201470D02*
D03*
Y188770D02*
D03*
X1291100Y811070D02*
D03*
Y798370D02*
D03*
Y785670D02*
D03*
Y772970D02*
D03*
Y760270D02*
D03*
Y747570D02*
D03*
Y734870D02*
D03*
Y722170D02*
D03*
Y709470D02*
D03*
Y696770D02*
D03*
Y684070D02*
D03*
Y671370D02*
D03*
Y658670D02*
D03*
Y645970D02*
D03*
Y633270D02*
D03*
Y620570D02*
D03*
Y607870D02*
D03*
Y595170D02*
D03*
Y582470D02*
D03*
Y569770D02*
D03*
Y557070D02*
D03*
Y544370D02*
D03*
Y531670D02*
D03*
Y518970D02*
D03*
Y506270D02*
D03*
Y493570D02*
D03*
Y480870D02*
D03*
Y468170D02*
D03*
Y455470D02*
D03*
Y442770D02*
D03*
Y430070D02*
D03*
Y417370D02*
D03*
Y404670D02*
D03*
Y391970D02*
D03*
Y379270D02*
D03*
Y366570D02*
D03*
Y353870D02*
D03*
Y341170D02*
D03*
Y328470D02*
D03*
Y315770D02*
D03*
Y303070D02*
D03*
Y290370D02*
D03*
Y277670D02*
D03*
Y264970D02*
D03*
Y252270D02*
D03*
Y239570D02*
D03*
Y226870D02*
D03*
Y214170D02*
D03*
Y201470D02*
D03*
D26*
X697010Y188970D02*
D03*
X994055Y188970D02*
D03*
X1291100Y188770D02*
D03*
D34*
X65010Y901220D02*
D03*
Y931220D02*
D03*
X95010Y901220D02*
D03*
Y931220D02*
D03*
X31710Y952420D02*
D03*
Y922420D02*
D03*
X129810Y952420D02*
D03*
Y922420D02*
D03*
M02*
