G04 Layer_Color=16711935*
%FSLAX44Y44*%
%MOMM*%
G71*
G01*
G75*
%ADD47R,2.9000X0.6500*%
%ADD52C,1.8032*%
%ADD53C,1.0932*%
%ADD54R,1.0932X1.0932*%
%ADD55C,1.5032*%
%ADD56C,0.6532*%
%ADD57C,0.7032*%
%ADD58C,0.9032*%
%ADD59C,1.2032*%
%ADD60R,2.3032X1.4032*%
D47*
X-124528Y672420D02*
D03*
Y664420D02*
D03*
Y656420D02*
D03*
Y648420D02*
D03*
Y640420D02*
D03*
Y632420D02*
D03*
Y624420D02*
D03*
Y616420D02*
D03*
Y608420D02*
D03*
Y600420D02*
D03*
Y592420D02*
D03*
Y584420D02*
D03*
Y576420D02*
D03*
Y568420D02*
D03*
Y560420D02*
D03*
Y552420D02*
D03*
Y544420D02*
D03*
Y536420D02*
D03*
Y528420D02*
D03*
Y520420D02*
D03*
Y512420D02*
D03*
Y504420D02*
D03*
Y464420D02*
D03*
Y456420D02*
D03*
Y448420D02*
D03*
Y440420D02*
D03*
Y432420D02*
D03*
Y424420D02*
D03*
Y416420D02*
D03*
Y408420D02*
D03*
Y400420D02*
D03*
Y392420D02*
D03*
Y384420D02*
D03*
Y376420D02*
D03*
Y368420D02*
D03*
Y360420D02*
D03*
Y352420D02*
D03*
Y344420D02*
D03*
Y336420D02*
D03*
Y328420D02*
D03*
D52*
X54610Y952420D02*
D03*
X80010D02*
D03*
X105410D02*
D03*
D53*
X722410Y811270D02*
D03*
Y798570D02*
D03*
Y785870D02*
D03*
Y773170D02*
D03*
Y760470D02*
D03*
Y747770D02*
D03*
Y735070D02*
D03*
Y722370D02*
D03*
Y709670D02*
D03*
Y696970D02*
D03*
Y684270D02*
D03*
Y671570D02*
D03*
Y658870D02*
D03*
Y646170D02*
D03*
Y633470D02*
D03*
Y620770D02*
D03*
Y608070D02*
D03*
Y595370D02*
D03*
Y582670D02*
D03*
Y569970D02*
D03*
Y557270D02*
D03*
Y544570D02*
D03*
Y531870D02*
D03*
Y519170D02*
D03*
Y506470D02*
D03*
Y493770D02*
D03*
Y481070D02*
D03*
Y468370D02*
D03*
Y455670D02*
D03*
Y442970D02*
D03*
Y430270D02*
D03*
Y417570D02*
D03*
Y404870D02*
D03*
Y392170D02*
D03*
Y379470D02*
D03*
Y366770D02*
D03*
Y354070D02*
D03*
Y341370D02*
D03*
Y328670D02*
D03*
Y315970D02*
D03*
Y303270D02*
D03*
Y290570D02*
D03*
Y277870D02*
D03*
Y265170D02*
D03*
Y252470D02*
D03*
Y239770D02*
D03*
Y227070D02*
D03*
Y214370D02*
D03*
Y201670D02*
D03*
Y188970D02*
D03*
X697010Y811270D02*
D03*
Y798570D02*
D03*
Y785870D02*
D03*
Y773170D02*
D03*
Y760470D02*
D03*
Y747770D02*
D03*
Y735070D02*
D03*
Y722370D02*
D03*
Y709670D02*
D03*
Y696970D02*
D03*
Y684270D02*
D03*
Y671570D02*
D03*
Y658870D02*
D03*
Y646170D02*
D03*
Y633470D02*
D03*
Y620770D02*
D03*
Y608070D02*
D03*
Y595370D02*
D03*
Y582670D02*
D03*
Y569970D02*
D03*
Y557270D02*
D03*
Y544570D02*
D03*
Y531870D02*
D03*
Y519170D02*
D03*
Y506470D02*
D03*
Y493770D02*
D03*
Y481070D02*
D03*
Y468370D02*
D03*
Y455670D02*
D03*
Y442970D02*
D03*
Y430270D02*
D03*
Y417570D02*
D03*
Y404870D02*
D03*
Y392170D02*
D03*
Y379470D02*
D03*
Y366770D02*
D03*
Y354070D02*
D03*
Y341370D02*
D03*
Y328670D02*
D03*
Y315970D02*
D03*
Y303270D02*
D03*
Y290570D02*
D03*
Y277870D02*
D03*
Y265170D02*
D03*
Y252470D02*
D03*
Y239770D02*
D03*
Y227070D02*
D03*
Y214370D02*
D03*
Y201670D02*
D03*
X1019455Y811270D02*
D03*
Y798570D02*
D03*
Y785870D02*
D03*
Y773170D02*
D03*
Y760470D02*
D03*
Y747770D02*
D03*
Y735070D02*
D03*
Y722370D02*
D03*
Y709670D02*
D03*
Y696970D02*
D03*
Y684270D02*
D03*
Y671570D02*
D03*
Y658870D02*
D03*
Y646170D02*
D03*
Y633470D02*
D03*
Y620770D02*
D03*
Y608070D02*
D03*
Y595370D02*
D03*
Y582670D02*
D03*
Y569970D02*
D03*
Y557270D02*
D03*
Y544570D02*
D03*
Y531870D02*
D03*
Y519170D02*
D03*
Y506470D02*
D03*
Y493770D02*
D03*
Y481070D02*
D03*
Y468370D02*
D03*
Y455670D02*
D03*
Y442970D02*
D03*
Y430270D02*
D03*
Y417570D02*
D03*
Y404870D02*
D03*
Y392170D02*
D03*
Y379470D02*
D03*
Y366770D02*
D03*
Y354070D02*
D03*
Y341370D02*
D03*
Y328670D02*
D03*
Y315970D02*
D03*
Y303270D02*
D03*
Y290570D02*
D03*
Y277870D02*
D03*
Y265170D02*
D03*
Y252470D02*
D03*
Y239770D02*
D03*
Y227070D02*
D03*
Y214370D02*
D03*
Y201670D02*
D03*
Y188970D02*
D03*
X994055Y811270D02*
D03*
Y798570D02*
D03*
Y785870D02*
D03*
Y773170D02*
D03*
Y760470D02*
D03*
Y747770D02*
D03*
Y735070D02*
D03*
Y722370D02*
D03*
Y709670D02*
D03*
Y696970D02*
D03*
Y684270D02*
D03*
Y671570D02*
D03*
Y658870D02*
D03*
Y646170D02*
D03*
Y633470D02*
D03*
Y620770D02*
D03*
Y608070D02*
D03*
Y595370D02*
D03*
Y582670D02*
D03*
Y569970D02*
D03*
Y557270D02*
D03*
Y544570D02*
D03*
Y531870D02*
D03*
Y519170D02*
D03*
Y506470D02*
D03*
Y493770D02*
D03*
Y481070D02*
D03*
Y468370D02*
D03*
Y455670D02*
D03*
Y442970D02*
D03*
Y430270D02*
D03*
Y417570D02*
D03*
Y404870D02*
D03*
Y392170D02*
D03*
Y379470D02*
D03*
Y366770D02*
D03*
Y354070D02*
D03*
Y341370D02*
D03*
Y328670D02*
D03*
Y315970D02*
D03*
Y303270D02*
D03*
Y290570D02*
D03*
Y277870D02*
D03*
Y265170D02*
D03*
Y252470D02*
D03*
Y239770D02*
D03*
Y227070D02*
D03*
Y214370D02*
D03*
Y201670D02*
D03*
X1316500Y811070D02*
D03*
Y798370D02*
D03*
Y785670D02*
D03*
Y772970D02*
D03*
Y760270D02*
D03*
Y747570D02*
D03*
Y734870D02*
D03*
Y722170D02*
D03*
Y709470D02*
D03*
Y696770D02*
D03*
Y684070D02*
D03*
Y671370D02*
D03*
Y658670D02*
D03*
Y645970D02*
D03*
Y633270D02*
D03*
Y620570D02*
D03*
Y607870D02*
D03*
Y595170D02*
D03*
Y582470D02*
D03*
Y569770D02*
D03*
Y557070D02*
D03*
Y544370D02*
D03*
Y531670D02*
D03*
Y518970D02*
D03*
Y506270D02*
D03*
Y493570D02*
D03*
Y480870D02*
D03*
Y468170D02*
D03*
Y455470D02*
D03*
Y442770D02*
D03*
Y430070D02*
D03*
Y417370D02*
D03*
Y404670D02*
D03*
Y391970D02*
D03*
Y379270D02*
D03*
Y366570D02*
D03*
Y353870D02*
D03*
Y341170D02*
D03*
Y328470D02*
D03*
Y315770D02*
D03*
Y303070D02*
D03*
Y290370D02*
D03*
Y277670D02*
D03*
Y264970D02*
D03*
Y252270D02*
D03*
Y239570D02*
D03*
Y226870D02*
D03*
Y214170D02*
D03*
Y201470D02*
D03*
Y188770D02*
D03*
X1291100Y811070D02*
D03*
Y798370D02*
D03*
Y785670D02*
D03*
Y772970D02*
D03*
Y760270D02*
D03*
Y747570D02*
D03*
Y734870D02*
D03*
Y722170D02*
D03*
Y709470D02*
D03*
Y696770D02*
D03*
Y684070D02*
D03*
Y671370D02*
D03*
Y658670D02*
D03*
Y645970D02*
D03*
Y633270D02*
D03*
Y620570D02*
D03*
Y607870D02*
D03*
Y595170D02*
D03*
Y582470D02*
D03*
Y569770D02*
D03*
Y557070D02*
D03*
Y544370D02*
D03*
Y531670D02*
D03*
Y518970D02*
D03*
Y506270D02*
D03*
Y493570D02*
D03*
Y480870D02*
D03*
Y468170D02*
D03*
Y455470D02*
D03*
Y442770D02*
D03*
Y430070D02*
D03*
Y417370D02*
D03*
Y404670D02*
D03*
Y391970D02*
D03*
Y379270D02*
D03*
Y366570D02*
D03*
Y353870D02*
D03*
Y341170D02*
D03*
Y328470D02*
D03*
Y315770D02*
D03*
Y303070D02*
D03*
Y290370D02*
D03*
Y277670D02*
D03*
Y264970D02*
D03*
Y252270D02*
D03*
Y239570D02*
D03*
Y226870D02*
D03*
Y214170D02*
D03*
Y201470D02*
D03*
D54*
X697010Y188970D02*
D03*
X994055Y188970D02*
D03*
X1291100Y188770D02*
D03*
D55*
X134610Y787220D02*
D03*
Y825720D02*
D03*
X83610D02*
D03*
Y787220D02*
D03*
X470410Y97769D02*
D03*
X257410D02*
D03*
Y922770D02*
D03*
X470410D02*
D03*
X257410Y757770D02*
D03*
X470410D02*
D03*
X257410Y592770D02*
D03*
X470410D02*
D03*
X257410Y427770D02*
D03*
X470410D02*
D03*
X257410Y262770D02*
D03*
X470410D02*
D03*
X46210Y901220D02*
D03*
X101410Y601420D02*
D03*
X139410D02*
D03*
X154310Y922420D02*
D03*
X-69227Y348120D02*
D03*
X-47727D02*
D03*
X-93228Y350720D02*
D03*
X-93028Y368420D02*
D03*
Y392420D02*
D03*
Y416420D02*
D03*
X-53927Y640920D02*
D03*
X-78927Y630220D02*
D03*
X462810Y850919D02*
D03*
Y685919D02*
D03*
Y520919D02*
D03*
X462810Y356021D02*
D03*
Y191021D02*
D03*
Y26021D02*
D03*
X-48830Y425530D02*
D03*
X-48440Y440975D02*
D03*
X-48680Y456420D02*
D03*
D56*
X482310Y633420D02*
D03*
X488310D02*
D03*
X269310D02*
D03*
X275310D02*
D03*
X472310Y377920D02*
D03*
X478310D02*
D03*
X259310Y47920D02*
D03*
X265310D02*
D03*
X259310Y212920D02*
D03*
X265310D02*
D03*
X259310Y377920D02*
D03*
X265310D02*
D03*
Y542920D02*
D03*
X259310D02*
D03*
X269310Y559420D02*
D03*
X275310D02*
D03*
X259310Y707920D02*
D03*
X265310D02*
D03*
X472810Y295949D02*
D03*
X462810D02*
D03*
X302060Y429670D02*
D03*
Y435670D02*
D03*
X245310Y467420D02*
D03*
X239310D02*
D03*
X292060Y445670D02*
D03*
Y439670D02*
D03*
X302060Y409670D02*
D03*
Y415670D02*
D03*
X292060Y425670D02*
D03*
Y419670D02*
D03*
X269310Y468420D02*
D03*
X275310D02*
D03*
X292060Y584670D02*
D03*
Y590670D02*
D03*
X302060Y580670D02*
D03*
Y574670D02*
D03*
X488310Y394420D02*
D03*
X482310D02*
D03*
X505060Y419670D02*
D03*
Y425670D02*
D03*
X515060Y415670D02*
D03*
Y409670D02*
D03*
X239310Y632420D02*
D03*
X245310D02*
D03*
X302060Y594670D02*
D03*
Y600670D02*
D03*
X462810Y955950D02*
D03*
X472810D02*
D03*
X249810D02*
D03*
X259810D02*
D03*
X249810Y790950D02*
D03*
X259810D02*
D03*
X462810D02*
D03*
X472810D02*
D03*
X249810Y625950D02*
D03*
X259810D02*
D03*
X462810D02*
D03*
X472810D02*
D03*
X249810Y460950D02*
D03*
X259810D02*
D03*
X462810D02*
D03*
X472810D02*
D03*
X249810Y295949D02*
D03*
X259810D02*
D03*
X462810Y130949D02*
D03*
X472810D02*
D03*
X249810D02*
D03*
X259810D02*
D03*
X302060Y79669D02*
D03*
Y85669D02*
D03*
X292060Y95669D02*
D03*
Y89670D02*
D03*
X275310Y64419D02*
D03*
X269310D02*
D03*
Y889420D02*
D03*
X275310D02*
D03*
X292060Y914670D02*
D03*
Y920670D02*
D03*
X265310Y872920D02*
D03*
X259310D02*
D03*
X302060Y910670D02*
D03*
Y904670D02*
D03*
X269310Y394420D02*
D03*
X275310D02*
D03*
X292060Y254670D02*
D03*
Y260670D02*
D03*
X302060Y739670D02*
D03*
Y745670D02*
D03*
X292060Y755670D02*
D03*
Y749670D02*
D03*
X275310Y724420D02*
D03*
X269310D02*
D03*
X302060Y250670D02*
D03*
Y244670D02*
D03*
X275310Y229420D02*
D03*
X269310D02*
D03*
X505060Y594670D02*
D03*
Y600670D02*
D03*
X515060Y610670D02*
D03*
Y604670D02*
D03*
X292060D02*
D03*
Y610670D02*
D03*
X458310Y632420D02*
D03*
X452310D02*
D03*
D57*
X455810Y724920D02*
D03*
Y889920D02*
D03*
Y559919D02*
D03*
Y394919D02*
D03*
Y229919D02*
D03*
Y64919D02*
D03*
X242810D02*
D03*
Y229919D02*
D03*
Y394919D02*
D03*
Y559919D02*
D03*
Y724920D02*
D03*
X435810Y600170D02*
D03*
Y435170D02*
D03*
Y270170D02*
D03*
Y105169D02*
D03*
X222810D02*
D03*
Y270170D02*
D03*
Y435170D02*
D03*
Y600170D02*
D03*
Y765170D02*
D03*
X435810D02*
D03*
Y930170D02*
D03*
X223810Y921920D02*
D03*
Y426920D02*
D03*
Y261920D02*
D03*
Y96919D02*
D03*
X436810D02*
D03*
Y261920D02*
D03*
Y426920D02*
D03*
Y591920D02*
D03*
X223810D02*
D03*
Y756920D02*
D03*
X436810D02*
D03*
Y921920D02*
D03*
X-100227Y648420D02*
D03*
Y656420D02*
D03*
Y664420D02*
D03*
Y672420D02*
D03*
X426810Y243569D02*
D03*
Y249919D02*
D03*
X439810Y288919D02*
D03*
X436810Y279919D02*
D03*
X472810Y303150D02*
D03*
X426810Y237219D02*
D03*
X-92038Y440420D02*
D03*
X-70020Y464420D02*
D03*
X-97227Y632420D02*
D03*
X242810Y889920D02*
D03*
X222810Y930170D02*
D03*
X472810Y963150D02*
D03*
X439810Y948920D02*
D03*
X436810Y939920D02*
D03*
X426810Y909920D02*
D03*
Y903569D02*
D03*
Y897219D02*
D03*
X442560Y898429D02*
D03*
X213810Y579919D02*
D03*
Y243569D02*
D03*
Y78569D02*
D03*
X259810Y963150D02*
D03*
X226810Y948920D02*
D03*
X223810Y939920D02*
D03*
X213810Y909920D02*
D03*
Y903569D02*
D03*
Y897219D02*
D03*
X229560Y898429D02*
D03*
X259810Y798150D02*
D03*
X226810Y783920D02*
D03*
X223810Y774920D02*
D03*
X213810Y744920D02*
D03*
Y738569D02*
D03*
Y732219D02*
D03*
X229560Y733429D02*
D03*
X472810Y798150D02*
D03*
X439810Y783920D02*
D03*
X436810Y774920D02*
D03*
X426810Y744920D02*
D03*
Y738569D02*
D03*
Y732219D02*
D03*
X442560Y733429D02*
D03*
X259810Y633150D02*
D03*
X226810Y618919D02*
D03*
X223810Y609919D02*
D03*
X213810Y573569D02*
D03*
Y567219D02*
D03*
X229560Y568429D02*
D03*
X472810Y633150D02*
D03*
X439810Y618919D02*
D03*
X436810Y609919D02*
D03*
X426810Y579919D02*
D03*
Y573569D02*
D03*
Y567219D02*
D03*
X442560Y568429D02*
D03*
X259810Y468150D02*
D03*
X226810Y453919D02*
D03*
X223810Y444919D02*
D03*
X213810Y414919D02*
D03*
Y408569D02*
D03*
Y402219D02*
D03*
X229560Y403429D02*
D03*
X472810Y468150D02*
D03*
X439810Y453919D02*
D03*
X436810Y444919D02*
D03*
X426810Y414919D02*
D03*
Y408569D02*
D03*
Y402219D02*
D03*
X442560Y403429D02*
D03*
X259810Y303150D02*
D03*
X226810Y288919D02*
D03*
X223810Y279919D02*
D03*
X213810Y249919D02*
D03*
Y237219D02*
D03*
X229560Y238429D02*
D03*
X442560D02*
D03*
X472810Y138149D02*
D03*
X439810Y123919D02*
D03*
X436810Y114919D02*
D03*
X426810Y84919D02*
D03*
Y78569D02*
D03*
Y72219D02*
D03*
X442560Y73429D02*
D03*
X259810Y138149D02*
D03*
X226810Y123919D02*
D03*
X223810Y114919D02*
D03*
X213810Y84919D02*
D03*
Y72219D02*
D03*
X229560Y73429D02*
D03*
D58*
X482310Y85669D02*
D03*
X470310D02*
D03*
X458410Y85770D02*
D03*
Y97769D02*
D03*
X482410D02*
D03*
Y109769D02*
D03*
X470410D02*
D03*
X458410D02*
D03*
X245410D02*
D03*
X257410D02*
D03*
X269410D02*
D03*
Y97769D02*
D03*
X245410D02*
D03*
Y85770D02*
D03*
X257310Y85669D02*
D03*
X269310D02*
D03*
Y910670D02*
D03*
X257310D02*
D03*
X245410Y910770D02*
D03*
Y922770D02*
D03*
X269410D02*
D03*
Y934770D02*
D03*
X257410D02*
D03*
X245410D02*
D03*
X458410D02*
D03*
X470410D02*
D03*
X482410D02*
D03*
Y922770D02*
D03*
X458410D02*
D03*
Y910770D02*
D03*
X470310Y910670D02*
D03*
X482310D02*
D03*
X269310Y745670D02*
D03*
X257310D02*
D03*
X245410Y745770D02*
D03*
Y757770D02*
D03*
X269410D02*
D03*
Y769770D02*
D03*
X257410D02*
D03*
X245410D02*
D03*
X458410D02*
D03*
X470410D02*
D03*
X482410D02*
D03*
Y757770D02*
D03*
X458410D02*
D03*
Y745770D02*
D03*
X470310Y745670D02*
D03*
X482310D02*
D03*
X269310Y580670D02*
D03*
X257310D02*
D03*
X245410Y580770D02*
D03*
Y592770D02*
D03*
X269410D02*
D03*
Y604770D02*
D03*
X257410D02*
D03*
X245410D02*
D03*
X458410D02*
D03*
X470410D02*
D03*
X482410D02*
D03*
Y592770D02*
D03*
X458410D02*
D03*
Y580770D02*
D03*
X470310Y580670D02*
D03*
X482310D02*
D03*
X269310Y415670D02*
D03*
X257310D02*
D03*
X245410Y415770D02*
D03*
Y427770D02*
D03*
X269410D02*
D03*
Y439770D02*
D03*
X257410D02*
D03*
X245410D02*
D03*
X458410D02*
D03*
X470410D02*
D03*
X482410D02*
D03*
Y427770D02*
D03*
X458410D02*
D03*
Y415770D02*
D03*
X470310Y415670D02*
D03*
X482310D02*
D03*
X269310Y250670D02*
D03*
X257310D02*
D03*
X245410Y250770D02*
D03*
Y262770D02*
D03*
X269410D02*
D03*
Y274770D02*
D03*
X257410D02*
D03*
X245410D02*
D03*
X458410D02*
D03*
X470410D02*
D03*
X482410D02*
D03*
Y262770D02*
D03*
X458410D02*
D03*
Y250770D02*
D03*
X470310Y250670D02*
D03*
X482310D02*
D03*
X163708Y703920D02*
D03*
X179608Y703920D02*
D03*
X163708Y538920D02*
D03*
X179608Y538920D02*
D03*
X163708Y373920D02*
D03*
X179608Y373920D02*
D03*
X163708Y208920D02*
D03*
X179608Y208920D02*
D03*
X163708Y43920D02*
D03*
X179608Y43920D02*
D03*
X376708Y43920D02*
D03*
X392607Y43920D02*
D03*
X376708Y208920D02*
D03*
X392607Y208920D02*
D03*
X376708Y373920D02*
D03*
X392607Y373920D02*
D03*
X376708Y538920D02*
D03*
X392607Y538920D02*
D03*
X376708Y703920D02*
D03*
X392607Y703920D02*
D03*
X376708Y868920D02*
D03*
X392607Y868920D02*
D03*
X179709Y868920D02*
D03*
X163810Y868920D02*
D03*
X102710Y532420D02*
D03*
X-67828Y328420D02*
D03*
X-91427Y544420D02*
D03*
Y568420D02*
D03*
Y592420D02*
D03*
X21272Y744920D02*
D03*
X41653Y738569D02*
D03*
X67123Y732219D02*
D03*
Y567219D02*
D03*
X41653Y573569D02*
D03*
X21272Y579919D02*
D03*
X67123Y237219D02*
D03*
X41653Y243569D02*
D03*
X21272Y249919D02*
D03*
X67123Y72219D02*
D03*
X41653Y78569D02*
D03*
X21272Y84919D02*
D03*
D59*
X-91427Y520420D02*
D03*
X-52190Y623919D02*
D03*
D60*
X65010Y901220D02*
D03*
Y931220D02*
D03*
X95010Y901220D02*
D03*
Y931220D02*
D03*
X31710Y952420D02*
D03*
Y922420D02*
D03*
X129810Y952420D02*
D03*
Y922420D02*
D03*
M02*
