G04 Layer_Color=16711935*
%FSLAX44Y44*%
%MOMM*%
G71*
G01*
G75*
%ADD61C,0.0500*%
%ADD62C,0.1000*%
D61*
X493035Y80169D02*
G03*
X493035Y80169I-1250J0D01*
G01*
X280035D02*
G03*
X280035Y80169I-1250J0D01*
G01*
Y905170D02*
G03*
X280035Y905170I-1250J0D01*
G01*
X493035D02*
G03*
X493035Y905170I-1250J0D01*
G01*
X280035Y740170D02*
G03*
X280035Y740170I-1250J0D01*
G01*
X493035D02*
G03*
X493035Y740170I-1250J0D01*
G01*
X280035Y575170D02*
G03*
X280035Y575170I-1250J0D01*
G01*
X493035D02*
G03*
X493035Y575170I-1250J0D01*
G01*
X280035Y410170D02*
G03*
X280035Y410170I-1250J0D01*
G01*
X493035D02*
G03*
X493035Y410170I-1250J0D01*
G01*
X280035Y245170D02*
G03*
X280035Y245170I-1250J0D01*
G01*
X493035D02*
G03*
X493035Y245170I-1250J0D01*
G01*
X495560Y78920D02*
X495760D01*
Y81419D01*
X495560D02*
X495760D01*
Y83919D02*
Y86419D01*
X495560Y83919D02*
X495760D01*
X495560Y86419D02*
X495760D01*
Y88919D02*
Y91419D01*
X495560Y88919D02*
X495760D01*
X495560Y91419D02*
X495760D01*
Y93919D02*
Y96419D01*
X495560Y93919D02*
X495760D01*
X495560Y96419D02*
X495760D01*
X444860Y116419D02*
X445060D01*
X444860Y113919D02*
Y116419D01*
Y113919D02*
X445060D01*
X495760Y98919D02*
Y101419D01*
X495560Y98919D02*
X495760D01*
X495560Y101419D02*
X495760D01*
X444860Y111419D02*
X445060D01*
X444860Y108919D02*
Y111419D01*
Y108919D02*
X445060D01*
X495760Y103919D02*
Y106419D01*
X495560Y103919D02*
X495760D01*
X495560Y106419D02*
X495760D01*
X444860D02*
X445060D01*
X444860Y103919D02*
Y106419D01*
Y103919D02*
X445060D01*
X495760Y108919D02*
Y111419D01*
X495560Y108919D02*
X495760D01*
X495560Y111419D02*
X495760D01*
X444860Y101419D02*
X445060D01*
X444860Y98919D02*
Y101419D01*
Y98919D02*
X445060D01*
X444860Y78920D02*
Y81419D01*
X445060D01*
X444860Y78920D02*
X445060D01*
X444860Y96419D02*
X445060D01*
X444860Y93919D02*
Y96419D01*
Y93919D02*
X445060D01*
X451560Y123119D02*
X454060D01*
Y122920D02*
Y123119D01*
X451560Y122920D02*
Y123119D01*
X444860Y91419D02*
X445060D01*
X444860Y88919D02*
Y91419D01*
Y88919D02*
X445060D01*
X495560Y113919D02*
X495760D01*
Y116419D01*
X495560D02*
X495760D01*
X444860Y86419D02*
X445060D01*
X444860Y83919D02*
Y86419D01*
Y83919D02*
X445060D01*
X451560Y72220D02*
Y72420D01*
Y72220D02*
X454060D01*
Y72420D01*
X489060Y122920D02*
Y123119D01*
X486560D02*
X489060D01*
X486560Y122920D02*
Y123119D01*
X456560Y72220D02*
Y72420D01*
Y72220D02*
X459060D01*
Y72420D01*
X484060Y122920D02*
Y123119D01*
X481560D02*
X484060D01*
X481560Y122920D02*
Y123119D01*
X461560Y72220D02*
Y72420D01*
Y72220D02*
X464060D01*
Y72420D01*
X479060Y122920D02*
Y123119D01*
X476560D02*
X479060D01*
X476560Y122920D02*
Y123119D01*
X466560Y72220D02*
Y72420D01*
Y72220D02*
X469060D01*
Y72420D01*
X474060Y122920D02*
Y123119D01*
X471560D02*
X474060D01*
X471560Y122920D02*
Y123119D01*
Y72220D02*
Y72420D01*
Y72220D02*
X474060D01*
Y72420D01*
X469060Y122920D02*
Y123119D01*
X466560D02*
X469060D01*
X466560Y122920D02*
Y123119D01*
X476560Y72220D02*
Y72420D01*
Y72220D02*
X479060D01*
Y72420D01*
X464060Y122920D02*
Y123119D01*
X461560D02*
X464060D01*
X461560Y122920D02*
Y123119D01*
X481560Y72220D02*
Y72420D01*
Y72220D02*
X484060D01*
Y72420D01*
X459060Y122920D02*
Y123119D01*
X456560D02*
X459060D01*
X456560Y122920D02*
Y123119D01*
X486560Y72220D02*
Y72420D01*
Y72220D02*
X489060D01*
Y72420D01*
X445060D02*
Y122920D01*
X495560D01*
Y72420D02*
Y122920D01*
X445060Y72420D02*
X495560D01*
X232060D02*
X282560D01*
Y122920D01*
X232060D02*
X282560D01*
X232060Y72420D02*
Y122920D01*
X276060Y72220D02*
Y72420D01*
X273560Y72220D02*
X276060D01*
X273560D02*
Y72420D01*
X243560Y122920D02*
Y123119D01*
X246060D01*
Y122920D02*
Y123119D01*
X271060Y72220D02*
Y72420D01*
X268560Y72220D02*
X271060D01*
X268560D02*
Y72420D01*
X248560Y122920D02*
Y123119D01*
X251060D01*
Y122920D02*
Y123119D01*
X266060Y72220D02*
Y72420D01*
X263560Y72220D02*
X266060D01*
X263560D02*
Y72420D01*
X253560Y122920D02*
Y123119D01*
X256060D01*
Y122920D02*
Y123119D01*
X261060Y72220D02*
Y72420D01*
X258560Y72220D02*
X261060D01*
X258560D02*
Y72420D01*
Y122920D02*
Y123119D01*
X261060D01*
Y122920D02*
Y123119D01*
X256060Y72220D02*
Y72420D01*
X253560Y72220D02*
X256060D01*
X253560D02*
Y72420D01*
X263560Y122920D02*
Y123119D01*
X266060D01*
Y122920D02*
Y123119D01*
X251060Y72220D02*
Y72420D01*
X248560Y72220D02*
X251060D01*
X248560D02*
Y72420D01*
X268560Y122920D02*
Y123119D01*
X271060D01*
Y122920D02*
Y123119D01*
X246060Y72220D02*
Y72420D01*
X243560Y72220D02*
X246060D01*
X243560D02*
Y72420D01*
X273560Y122920D02*
Y123119D01*
X276060D01*
Y122920D02*
Y123119D01*
X241060Y72220D02*
Y72420D01*
X238560Y72220D02*
X241060D01*
X238560D02*
Y72420D01*
X231860Y83919D02*
X232060D01*
X231860D02*
Y86419D01*
X232060D01*
X282560Y116419D02*
X282760D01*
Y113919D02*
Y116419D01*
X282560Y113919D02*
X282760D01*
X231860Y88919D02*
X232060D01*
X231860D02*
Y91419D01*
X232060D01*
X238560Y122920D02*
Y123119D01*
X241060Y122920D02*
Y123119D01*
X238560D02*
X241060D01*
X231860Y93919D02*
X232060D01*
X231860D02*
Y96419D01*
X232060D01*
X231860Y78920D02*
X232060D01*
X231860Y81419D02*
X232060D01*
X231860Y78920D02*
Y81419D01*
Y98919D02*
X232060D01*
X231860D02*
Y101419D01*
X232060D01*
X282560Y111419D02*
X282760D01*
X282560Y108919D02*
X282760D01*
Y111419D01*
X231860Y103919D02*
X232060D01*
X231860D02*
Y106419D01*
X232060D01*
X282560D02*
X282760D01*
X282560Y103919D02*
X282760D01*
Y106419D01*
X231860Y108919D02*
X232060D01*
X231860D02*
Y111419D01*
X232060D01*
X282560Y101419D02*
X282760D01*
X282560Y98919D02*
X282760D01*
Y101419D01*
X231860Y113919D02*
X232060D01*
X231860D02*
Y116419D01*
X232060D01*
X282560Y96419D02*
X282760D01*
X282560Y93919D02*
X282760D01*
Y96419D01*
X282560Y91419D02*
X282760D01*
X282560Y88919D02*
X282760D01*
Y91419D01*
X282560Y86419D02*
X282760D01*
X282560Y83919D02*
X282760D01*
Y86419D01*
X282560Y81419D02*
X282760D01*
Y78920D02*
Y81419D01*
X282560Y78920D02*
X282760D01*
X282560Y903920D02*
X282760D01*
Y906420D01*
X282560D02*
X282760D01*
Y908920D02*
Y911420D01*
X282560Y908920D02*
X282760D01*
X282560Y911420D02*
X282760D01*
Y913920D02*
Y916420D01*
X282560Y913920D02*
X282760D01*
X282560Y916420D02*
X282760D01*
Y918920D02*
Y921420D01*
X282560Y918920D02*
X282760D01*
X282560Y921420D02*
X282760D01*
X231860Y941420D02*
X232060D01*
X231860Y938920D02*
Y941420D01*
Y938920D02*
X232060D01*
X282760Y923920D02*
Y926420D01*
X282560Y923920D02*
X282760D01*
X282560Y926420D02*
X282760D01*
X231860Y936420D02*
X232060D01*
X231860Y933920D02*
Y936420D01*
Y933920D02*
X232060D01*
X282760Y928920D02*
Y931420D01*
X282560Y928920D02*
X282760D01*
X282560Y931420D02*
X282760D01*
X231860D02*
X232060D01*
X231860Y928920D02*
Y931420D01*
Y928920D02*
X232060D01*
X282760Y933920D02*
Y936420D01*
X282560Y933920D02*
X282760D01*
X282560Y936420D02*
X282760D01*
X231860Y926420D02*
X232060D01*
X231860Y923920D02*
Y926420D01*
Y923920D02*
X232060D01*
X231860Y903920D02*
Y906420D01*
X232060D01*
X231860Y903920D02*
X232060D01*
X231860Y921420D02*
X232060D01*
X231860Y918920D02*
Y921420D01*
Y918920D02*
X232060D01*
X238560Y948120D02*
X241060D01*
Y947920D02*
Y948120D01*
X238560Y947920D02*
Y948120D01*
X231860Y916420D02*
X232060D01*
X231860Y913920D02*
Y916420D01*
Y913920D02*
X232060D01*
X282560Y938920D02*
X282760D01*
Y941420D01*
X282560D02*
X282760D01*
X231860Y911420D02*
X232060D01*
X231860Y908920D02*
Y911420D01*
Y908920D02*
X232060D01*
X238560Y897220D02*
Y897420D01*
Y897220D02*
X241060D01*
Y897420D01*
X276060Y947920D02*
Y948120D01*
X273560D02*
X276060D01*
X273560Y947920D02*
Y948120D01*
X243560Y897220D02*
Y897420D01*
Y897220D02*
X246060D01*
Y897420D01*
X271060Y947920D02*
Y948120D01*
X268560D02*
X271060D01*
X268560Y947920D02*
Y948120D01*
X248560Y897220D02*
Y897420D01*
Y897220D02*
X251060D01*
Y897420D01*
X266060Y947920D02*
Y948120D01*
X263560D02*
X266060D01*
X263560Y947920D02*
Y948120D01*
X253560Y897220D02*
Y897420D01*
Y897220D02*
X256060D01*
Y897420D01*
X261060Y947920D02*
Y948120D01*
X258560D02*
X261060D01*
X258560Y947920D02*
Y948120D01*
Y897220D02*
Y897420D01*
Y897220D02*
X261060D01*
Y897420D01*
X256060Y947920D02*
Y948120D01*
X253560D02*
X256060D01*
X253560Y947920D02*
Y948120D01*
X263560Y897220D02*
Y897420D01*
Y897220D02*
X266060D01*
Y897420D01*
X251060Y947920D02*
Y948120D01*
X248560D02*
X251060D01*
X248560Y947920D02*
Y948120D01*
X268560Y897220D02*
Y897420D01*
Y897220D02*
X271060D01*
Y897420D01*
X246060Y947920D02*
Y948120D01*
X243560D02*
X246060D01*
X243560Y947920D02*
Y948120D01*
X273560Y897220D02*
Y897420D01*
Y897220D02*
X276060D01*
Y897420D01*
X232060D02*
Y947920D01*
X282560D01*
Y897420D02*
Y947920D01*
X232060Y897420D02*
X282560D01*
X445060D02*
X495560D01*
Y947920D01*
X445060D02*
X495560D01*
X445060Y897420D02*
Y947920D01*
X489060Y897220D02*
Y897420D01*
X486560Y897220D02*
X489060D01*
X486560D02*
Y897420D01*
X456560Y947920D02*
Y948120D01*
X459060D01*
Y947920D02*
Y948120D01*
X484060Y897220D02*
Y897420D01*
X481560Y897220D02*
X484060D01*
X481560D02*
Y897420D01*
X461560Y947920D02*
Y948120D01*
X464060D01*
Y947920D02*
Y948120D01*
X479060Y897220D02*
Y897420D01*
X476560Y897220D02*
X479060D01*
X476560D02*
Y897420D01*
X466560Y947920D02*
Y948120D01*
X469060D01*
Y947920D02*
Y948120D01*
X474060Y897220D02*
Y897420D01*
X471560Y897220D02*
X474060D01*
X471560D02*
Y897420D01*
Y947920D02*
Y948120D01*
X474060D01*
Y947920D02*
Y948120D01*
X469060Y897220D02*
Y897420D01*
X466560Y897220D02*
X469060D01*
X466560D02*
Y897420D01*
X476560Y947920D02*
Y948120D01*
X479060D01*
Y947920D02*
Y948120D01*
X464060Y897220D02*
Y897420D01*
X461560Y897220D02*
X464060D01*
X461560D02*
Y897420D01*
X481560Y947920D02*
Y948120D01*
X484060D01*
Y947920D02*
Y948120D01*
X459060Y897220D02*
Y897420D01*
X456560Y897220D02*
X459060D01*
X456560D02*
Y897420D01*
X486560Y947920D02*
Y948120D01*
X489060D01*
Y947920D02*
Y948120D01*
X454060Y897220D02*
Y897420D01*
X451560Y897220D02*
X454060D01*
X451560D02*
Y897420D01*
X444860Y908920D02*
X445060D01*
X444860D02*
Y911420D01*
X445060D01*
X495560Y941420D02*
X495760D01*
Y938920D02*
Y941420D01*
X495560Y938920D02*
X495760D01*
X444860Y913920D02*
X445060D01*
X444860D02*
Y916420D01*
X445060D01*
X451560Y947920D02*
Y948120D01*
X454060Y947920D02*
Y948120D01*
X451560D02*
X454060D01*
X444860Y918920D02*
X445060D01*
X444860D02*
Y921420D01*
X445060D01*
X444860Y903920D02*
X445060D01*
X444860Y906420D02*
X445060D01*
X444860Y903920D02*
Y906420D01*
Y923920D02*
X445060D01*
X444860D02*
Y926420D01*
X445060D01*
X495560Y936420D02*
X495760D01*
X495560Y933920D02*
X495760D01*
Y936420D01*
X444860Y928920D02*
X445060D01*
X444860D02*
Y931420D01*
X445060D01*
X495560D02*
X495760D01*
X495560Y928920D02*
X495760D01*
Y931420D01*
X444860Y933920D02*
X445060D01*
X444860D02*
Y936420D01*
X445060D01*
X495560Y926420D02*
X495760D01*
X495560Y923920D02*
X495760D01*
Y926420D01*
X444860Y938920D02*
X445060D01*
X444860D02*
Y941420D01*
X445060D01*
X495560Y921420D02*
X495760D01*
X495560Y918920D02*
X495760D01*
Y921420D01*
X495560Y916420D02*
X495760D01*
X495560Y913920D02*
X495760D01*
Y916420D01*
X495560Y911420D02*
X495760D01*
X495560Y908920D02*
X495760D01*
Y911420D01*
X495560Y906420D02*
X495760D01*
Y903920D02*
Y906420D01*
X495560Y903920D02*
X495760D01*
X282560Y738920D02*
X282760D01*
Y741420D01*
X282560D02*
X282760D01*
Y743920D02*
Y746420D01*
X282560Y743920D02*
X282760D01*
X282560Y746420D02*
X282760D01*
Y748920D02*
Y751420D01*
X282560Y748920D02*
X282760D01*
X282560Y751420D02*
X282760D01*
Y753920D02*
Y756420D01*
X282560Y753920D02*
X282760D01*
X282560Y756420D02*
X282760D01*
X231860Y776420D02*
X232060D01*
X231860Y773920D02*
Y776420D01*
Y773920D02*
X232060D01*
X282760Y758920D02*
Y761420D01*
X282560Y758920D02*
X282760D01*
X282560Y761420D02*
X282760D01*
X231860Y771420D02*
X232060D01*
X231860Y768920D02*
Y771420D01*
Y768920D02*
X232060D01*
X282760Y763920D02*
Y766420D01*
X282560Y763920D02*
X282760D01*
X282560Y766420D02*
X282760D01*
X231860D02*
X232060D01*
X231860Y763920D02*
Y766420D01*
Y763920D02*
X232060D01*
X282760Y768920D02*
Y771420D01*
X282560Y768920D02*
X282760D01*
X282560Y771420D02*
X282760D01*
X231860Y761420D02*
X232060D01*
X231860Y758920D02*
Y761420D01*
Y758920D02*
X232060D01*
X231860Y738920D02*
Y741420D01*
X232060D01*
X231860Y738920D02*
X232060D01*
X231860Y756420D02*
X232060D01*
X231860Y753920D02*
Y756420D01*
Y753920D02*
X232060D01*
X238560Y783120D02*
X241060D01*
Y782920D02*
Y783120D01*
X238560Y782920D02*
Y783120D01*
X231860Y751420D02*
X232060D01*
X231860Y748920D02*
Y751420D01*
Y748920D02*
X232060D01*
X282560Y773920D02*
X282760D01*
Y776420D01*
X282560D02*
X282760D01*
X231860Y746420D02*
X232060D01*
X231860Y743920D02*
Y746420D01*
Y743920D02*
X232060D01*
X238560Y732220D02*
Y732420D01*
Y732220D02*
X241060D01*
Y732420D01*
X276060Y782920D02*
Y783120D01*
X273560D02*
X276060D01*
X273560Y782920D02*
Y783120D01*
X243560Y732220D02*
Y732420D01*
Y732220D02*
X246060D01*
Y732420D01*
X271060Y782920D02*
Y783120D01*
X268560D02*
X271060D01*
X268560Y782920D02*
Y783120D01*
X248560Y732220D02*
Y732420D01*
Y732220D02*
X251060D01*
Y732420D01*
X266060Y782920D02*
Y783120D01*
X263560D02*
X266060D01*
X263560Y782920D02*
Y783120D01*
X253560Y732220D02*
Y732420D01*
Y732220D02*
X256060D01*
Y732420D01*
X261060Y782920D02*
Y783120D01*
X258560D02*
X261060D01*
X258560Y782920D02*
Y783120D01*
Y732220D02*
Y732420D01*
Y732220D02*
X261060D01*
Y732420D01*
X256060Y782920D02*
Y783120D01*
X253560D02*
X256060D01*
X253560Y782920D02*
Y783120D01*
X263560Y732220D02*
Y732420D01*
Y732220D02*
X266060D01*
Y732420D01*
X251060Y782920D02*
Y783120D01*
X248560D02*
X251060D01*
X248560Y782920D02*
Y783120D01*
X268560Y732220D02*
Y732420D01*
Y732220D02*
X271060D01*
Y732420D01*
X246060Y782920D02*
Y783120D01*
X243560D02*
X246060D01*
X243560Y782920D02*
Y783120D01*
X273560Y732220D02*
Y732420D01*
Y732220D02*
X276060D01*
Y732420D01*
X232060D02*
Y782920D01*
X282560D01*
Y732420D02*
Y782920D01*
X232060Y732420D02*
X282560D01*
X445060D02*
X495560D01*
Y782920D01*
X445060D02*
X495560D01*
X445060Y732420D02*
Y782920D01*
X489060Y732220D02*
Y732420D01*
X486560Y732220D02*
X489060D01*
X486560D02*
Y732420D01*
X456560Y782920D02*
Y783120D01*
X459060D01*
Y782920D02*
Y783120D01*
X484060Y732220D02*
Y732420D01*
X481560Y732220D02*
X484060D01*
X481560D02*
Y732420D01*
X461560Y782920D02*
Y783120D01*
X464060D01*
Y782920D02*
Y783120D01*
X479060Y732220D02*
Y732420D01*
X476560Y732220D02*
X479060D01*
X476560D02*
Y732420D01*
X466560Y782920D02*
Y783120D01*
X469060D01*
Y782920D02*
Y783120D01*
X474060Y732220D02*
Y732420D01*
X471560Y732220D02*
X474060D01*
X471560D02*
Y732420D01*
Y782920D02*
Y783120D01*
X474060D01*
Y782920D02*
Y783120D01*
X469060Y732220D02*
Y732420D01*
X466560Y732220D02*
X469060D01*
X466560D02*
Y732420D01*
X476560Y782920D02*
Y783120D01*
X479060D01*
Y782920D02*
Y783120D01*
X464060Y732220D02*
Y732420D01*
X461560Y732220D02*
X464060D01*
X461560D02*
Y732420D01*
X481560Y782920D02*
Y783120D01*
X484060D01*
Y782920D02*
Y783120D01*
X459060Y732220D02*
Y732420D01*
X456560Y732220D02*
X459060D01*
X456560D02*
Y732420D01*
X486560Y782920D02*
Y783120D01*
X489060D01*
Y782920D02*
Y783120D01*
X454060Y732220D02*
Y732420D01*
X451560Y732220D02*
X454060D01*
X451560D02*
Y732420D01*
X444860Y743920D02*
X445060D01*
X444860D02*
Y746420D01*
X445060D01*
X495560Y776420D02*
X495760D01*
Y773920D02*
Y776420D01*
X495560Y773920D02*
X495760D01*
X444860Y748920D02*
X445060D01*
X444860D02*
Y751420D01*
X445060D01*
X451560Y782920D02*
Y783120D01*
X454060Y782920D02*
Y783120D01*
X451560D02*
X454060D01*
X444860Y753920D02*
X445060D01*
X444860D02*
Y756420D01*
X445060D01*
X444860Y738920D02*
X445060D01*
X444860Y741420D02*
X445060D01*
X444860Y738920D02*
Y741420D01*
Y758920D02*
X445060D01*
X444860D02*
Y761420D01*
X445060D01*
X495560Y771420D02*
X495760D01*
X495560Y768920D02*
X495760D01*
Y771420D01*
X444860Y763920D02*
X445060D01*
X444860D02*
Y766420D01*
X445060D01*
X495560D02*
X495760D01*
X495560Y763920D02*
X495760D01*
Y766420D01*
X444860Y768920D02*
X445060D01*
X444860D02*
Y771420D01*
X445060D01*
X495560Y761420D02*
X495760D01*
X495560Y758920D02*
X495760D01*
Y761420D01*
X444860Y773920D02*
X445060D01*
X444860D02*
Y776420D01*
X445060D01*
X495560Y756420D02*
X495760D01*
X495560Y753920D02*
X495760D01*
Y756420D01*
X495560Y751420D02*
X495760D01*
X495560Y748920D02*
X495760D01*
Y751420D01*
X495560Y746420D02*
X495760D01*
X495560Y743920D02*
X495760D01*
Y746420D01*
X495560Y741420D02*
X495760D01*
Y738920D02*
Y741420D01*
X495560Y738920D02*
X495760D01*
X282560Y573920D02*
X282760D01*
Y576420D01*
X282560D02*
X282760D01*
Y578920D02*
Y581420D01*
X282560Y578920D02*
X282760D01*
X282560Y581420D02*
X282760D01*
Y583920D02*
Y586420D01*
X282560Y583920D02*
X282760D01*
X282560Y586420D02*
X282760D01*
Y588920D02*
Y591420D01*
X282560Y588920D02*
X282760D01*
X282560Y591420D02*
X282760D01*
X231860Y611420D02*
X232060D01*
X231860Y608920D02*
Y611420D01*
Y608920D02*
X232060D01*
X282760Y593920D02*
Y596420D01*
X282560Y593920D02*
X282760D01*
X282560Y596420D02*
X282760D01*
X231860Y606420D02*
X232060D01*
X231860Y603920D02*
Y606420D01*
Y603920D02*
X232060D01*
X282760Y598920D02*
Y601420D01*
X282560Y598920D02*
X282760D01*
X282560Y601420D02*
X282760D01*
X231860D02*
X232060D01*
X231860Y598920D02*
Y601420D01*
Y598920D02*
X232060D01*
X282760Y603920D02*
Y606420D01*
X282560Y603920D02*
X282760D01*
X282560Y606420D02*
X282760D01*
X231860Y596420D02*
X232060D01*
X231860Y593920D02*
Y596420D01*
Y593920D02*
X232060D01*
X231860Y573920D02*
Y576420D01*
X232060D01*
X231860Y573920D02*
X232060D01*
X231860Y591420D02*
X232060D01*
X231860Y588920D02*
Y591420D01*
Y588920D02*
X232060D01*
X238560Y618120D02*
X241060D01*
Y617920D02*
Y618120D01*
X238560Y617920D02*
Y618120D01*
X231860Y586420D02*
X232060D01*
X231860Y583920D02*
Y586420D01*
Y583920D02*
X232060D01*
X282560Y608920D02*
X282760D01*
Y611420D01*
X282560D02*
X282760D01*
X231860Y581420D02*
X232060D01*
X231860Y578920D02*
Y581420D01*
Y578920D02*
X232060D01*
X238560Y567220D02*
Y567420D01*
Y567220D02*
X241060D01*
Y567420D01*
X276060Y617920D02*
Y618120D01*
X273560D02*
X276060D01*
X273560Y617920D02*
Y618120D01*
X243560Y567220D02*
Y567420D01*
Y567220D02*
X246060D01*
Y567420D01*
X271060Y617920D02*
Y618120D01*
X268560D02*
X271060D01*
X268560Y617920D02*
Y618120D01*
X248560Y567220D02*
Y567420D01*
Y567220D02*
X251060D01*
Y567420D01*
X266060Y617920D02*
Y618120D01*
X263560D02*
X266060D01*
X263560Y617920D02*
Y618120D01*
X253560Y567220D02*
Y567420D01*
Y567220D02*
X256060D01*
Y567420D01*
X261060Y617920D02*
Y618120D01*
X258560D02*
X261060D01*
X258560Y617920D02*
Y618120D01*
Y567220D02*
Y567420D01*
Y567220D02*
X261060D01*
Y567420D01*
X256060Y617920D02*
Y618120D01*
X253560D02*
X256060D01*
X253560Y617920D02*
Y618120D01*
X263560Y567220D02*
Y567420D01*
Y567220D02*
X266060D01*
Y567420D01*
X251060Y617920D02*
Y618120D01*
X248560D02*
X251060D01*
X248560Y617920D02*
Y618120D01*
X268560Y567220D02*
Y567420D01*
Y567220D02*
X271060D01*
Y567420D01*
X246060Y617920D02*
Y618120D01*
X243560D02*
X246060D01*
X243560Y617920D02*
Y618120D01*
X273560Y567220D02*
Y567420D01*
Y567220D02*
X276060D01*
Y567420D01*
X232060D02*
Y617920D01*
X282560D01*
Y567420D02*
Y617920D01*
X232060Y567420D02*
X282560D01*
X445060D02*
X495560D01*
Y617920D01*
X445060D02*
X495560D01*
X445060Y567420D02*
Y617920D01*
X489060Y567220D02*
Y567420D01*
X486560Y567220D02*
X489060D01*
X486560D02*
Y567420D01*
X456560Y617920D02*
Y618120D01*
X459060D01*
Y617920D02*
Y618120D01*
X484060Y567220D02*
Y567420D01*
X481560Y567220D02*
X484060D01*
X481560D02*
Y567420D01*
X461560Y617920D02*
Y618120D01*
X464060D01*
Y617920D02*
Y618120D01*
X479060Y567220D02*
Y567420D01*
X476560Y567220D02*
X479060D01*
X476560D02*
Y567420D01*
X466560Y617920D02*
Y618120D01*
X469060D01*
Y617920D02*
Y618120D01*
X474060Y567220D02*
Y567420D01*
X471560Y567220D02*
X474060D01*
X471560D02*
Y567420D01*
Y617920D02*
Y618120D01*
X474060D01*
Y617920D02*
Y618120D01*
X469060Y567220D02*
Y567420D01*
X466560Y567220D02*
X469060D01*
X466560D02*
Y567420D01*
X476560Y617920D02*
Y618120D01*
X479060D01*
Y617920D02*
Y618120D01*
X464060Y567220D02*
Y567420D01*
X461560Y567220D02*
X464060D01*
X461560D02*
Y567420D01*
X481560Y617920D02*
Y618120D01*
X484060D01*
Y617920D02*
Y618120D01*
X459060Y567220D02*
Y567420D01*
X456560Y567220D02*
X459060D01*
X456560D02*
Y567420D01*
X486560Y617920D02*
Y618120D01*
X489060D01*
Y617920D02*
Y618120D01*
X454060Y567220D02*
Y567420D01*
X451560Y567220D02*
X454060D01*
X451560D02*
Y567420D01*
X444860Y578920D02*
X445060D01*
X444860D02*
Y581420D01*
X445060D01*
X495560Y611420D02*
X495760D01*
Y608920D02*
Y611420D01*
X495560Y608920D02*
X495760D01*
X444860Y583920D02*
X445060D01*
X444860D02*
Y586420D01*
X445060D01*
X451560Y617920D02*
Y618120D01*
X454060Y617920D02*
Y618120D01*
X451560D02*
X454060D01*
X444860Y588920D02*
X445060D01*
X444860D02*
Y591420D01*
X445060D01*
X444860Y573920D02*
X445060D01*
X444860Y576420D02*
X445060D01*
X444860Y573920D02*
Y576420D01*
Y593920D02*
X445060D01*
X444860D02*
Y596420D01*
X445060D01*
X495560Y606420D02*
X495760D01*
X495560Y603920D02*
X495760D01*
Y606420D01*
X444860Y598920D02*
X445060D01*
X444860D02*
Y601420D01*
X445060D01*
X495560D02*
X495760D01*
X495560Y598920D02*
X495760D01*
Y601420D01*
X444860Y603920D02*
X445060D01*
X444860D02*
Y606420D01*
X445060D01*
X495560Y596420D02*
X495760D01*
X495560Y593920D02*
X495760D01*
Y596420D01*
X444860Y608920D02*
X445060D01*
X444860D02*
Y611420D01*
X445060D01*
X495560Y591420D02*
X495760D01*
X495560Y588920D02*
X495760D01*
Y591420D01*
X495560Y586420D02*
X495760D01*
X495560Y583920D02*
X495760D01*
Y586420D01*
X495560Y581420D02*
X495760D01*
X495560Y578920D02*
X495760D01*
Y581420D01*
X495560Y576420D02*
X495760D01*
Y573920D02*
Y576420D01*
X495560Y573920D02*
X495760D01*
X282560Y408920D02*
X282760D01*
Y411420D01*
X282560D02*
X282760D01*
Y413920D02*
Y416420D01*
X282560Y413920D02*
X282760D01*
X282560Y416420D02*
X282760D01*
Y418920D02*
Y421420D01*
X282560Y418920D02*
X282760D01*
X282560Y421420D02*
X282760D01*
Y423920D02*
Y426420D01*
X282560Y423920D02*
X282760D01*
X282560Y426420D02*
X282760D01*
X231860Y446420D02*
X232060D01*
X231860Y443920D02*
Y446420D01*
Y443920D02*
X232060D01*
X282760Y428920D02*
Y431420D01*
X282560Y428920D02*
X282760D01*
X282560Y431420D02*
X282760D01*
X231860Y441420D02*
X232060D01*
X231860Y438920D02*
Y441420D01*
Y438920D02*
X232060D01*
X282760Y433920D02*
Y436420D01*
X282560Y433920D02*
X282760D01*
X282560Y436420D02*
X282760D01*
X231860D02*
X232060D01*
X231860Y433920D02*
Y436420D01*
Y433920D02*
X232060D01*
X282760Y438920D02*
Y441420D01*
X282560Y438920D02*
X282760D01*
X282560Y441420D02*
X282760D01*
X231860Y431420D02*
X232060D01*
X231860Y428920D02*
Y431420D01*
Y428920D02*
X232060D01*
X231860Y408920D02*
Y411420D01*
X232060D01*
X231860Y408920D02*
X232060D01*
X231860Y426420D02*
X232060D01*
X231860Y423920D02*
Y426420D01*
Y423920D02*
X232060D01*
X238560Y453120D02*
X241060D01*
Y452920D02*
Y453120D01*
X238560Y452920D02*
Y453120D01*
X231860Y421420D02*
X232060D01*
X231860Y418920D02*
Y421420D01*
Y418920D02*
X232060D01*
X282560Y443920D02*
X282760D01*
Y446420D01*
X282560D02*
X282760D01*
X231860Y416420D02*
X232060D01*
X231860Y413920D02*
Y416420D01*
Y413920D02*
X232060D01*
X238560Y402220D02*
Y402420D01*
Y402220D02*
X241060D01*
Y402420D01*
X276060Y452920D02*
Y453120D01*
X273560D02*
X276060D01*
X273560Y452920D02*
Y453120D01*
X243560Y402220D02*
Y402420D01*
Y402220D02*
X246060D01*
Y402420D01*
X271060Y452920D02*
Y453120D01*
X268560D02*
X271060D01*
X268560Y452920D02*
Y453120D01*
X248560Y402220D02*
Y402420D01*
Y402220D02*
X251060D01*
Y402420D01*
X266060Y452920D02*
Y453120D01*
X263560D02*
X266060D01*
X263560Y452920D02*
Y453120D01*
X253560Y402220D02*
Y402420D01*
Y402220D02*
X256060D01*
Y402420D01*
X261060Y452920D02*
Y453120D01*
X258560D02*
X261060D01*
X258560Y452920D02*
Y453120D01*
Y402220D02*
Y402420D01*
Y402220D02*
X261060D01*
Y402420D01*
X256060Y452920D02*
Y453120D01*
X253560D02*
X256060D01*
X253560Y452920D02*
Y453120D01*
X263560Y402220D02*
Y402420D01*
Y402220D02*
X266060D01*
Y402420D01*
X251060Y452920D02*
Y453120D01*
X248560D02*
X251060D01*
X248560Y452920D02*
Y453120D01*
X268560Y402220D02*
Y402420D01*
Y402220D02*
X271060D01*
Y402420D01*
X246060Y452920D02*
Y453120D01*
X243560D02*
X246060D01*
X243560Y452920D02*
Y453120D01*
X273560Y402220D02*
Y402420D01*
Y402220D02*
X276060D01*
Y402420D01*
X232060D02*
Y452920D01*
X282560D01*
Y402420D02*
Y452920D01*
X232060Y402420D02*
X282560D01*
X445060D02*
X495560D01*
Y452920D01*
X445060D02*
X495560D01*
X445060Y402420D02*
Y452920D01*
X489060Y402220D02*
Y402420D01*
X486560Y402220D02*
X489060D01*
X486560D02*
Y402420D01*
X456560Y452920D02*
Y453120D01*
X459060D01*
Y452920D02*
Y453120D01*
X484060Y402220D02*
Y402420D01*
X481560Y402220D02*
X484060D01*
X481560D02*
Y402420D01*
X461560Y452920D02*
Y453120D01*
X464060D01*
Y452920D02*
Y453120D01*
X479060Y402220D02*
Y402420D01*
X476560Y402220D02*
X479060D01*
X476560D02*
Y402420D01*
X466560Y452920D02*
Y453120D01*
X469060D01*
Y452920D02*
Y453120D01*
X474060Y402220D02*
Y402420D01*
X471560Y402220D02*
X474060D01*
X471560D02*
Y402420D01*
Y452920D02*
Y453120D01*
X474060D01*
Y452920D02*
Y453120D01*
X469060Y402220D02*
Y402420D01*
X466560Y402220D02*
X469060D01*
X466560D02*
Y402420D01*
X476560Y452920D02*
Y453120D01*
X479060D01*
Y452920D02*
Y453120D01*
X464060Y402220D02*
Y402420D01*
X461560Y402220D02*
X464060D01*
X461560D02*
Y402420D01*
X481560Y452920D02*
Y453120D01*
X484060D01*
Y452920D02*
Y453120D01*
X459060Y402220D02*
Y402420D01*
X456560Y402220D02*
X459060D01*
X456560D02*
Y402420D01*
X486560Y452920D02*
Y453120D01*
X489060D01*
Y452920D02*
Y453120D01*
X454060Y402220D02*
Y402420D01*
X451560Y402220D02*
X454060D01*
X451560D02*
Y402420D01*
X444860Y413920D02*
X445060D01*
X444860D02*
Y416420D01*
X445060D01*
X495560Y446420D02*
X495760D01*
Y443920D02*
Y446420D01*
X495560Y443920D02*
X495760D01*
X444860Y418920D02*
X445060D01*
X444860D02*
Y421420D01*
X445060D01*
X451560Y452920D02*
Y453120D01*
X454060Y452920D02*
Y453120D01*
X451560D02*
X454060D01*
X444860Y423920D02*
X445060D01*
X444860D02*
Y426420D01*
X445060D01*
X444860Y408920D02*
X445060D01*
X444860Y411420D02*
X445060D01*
X444860Y408920D02*
Y411420D01*
Y428920D02*
X445060D01*
X444860D02*
Y431420D01*
X445060D01*
X495560Y441420D02*
X495760D01*
X495560Y438920D02*
X495760D01*
Y441420D01*
X444860Y433920D02*
X445060D01*
X444860D02*
Y436420D01*
X445060D01*
X495560D02*
X495760D01*
X495560Y433920D02*
X495760D01*
Y436420D01*
X444860Y438920D02*
X445060D01*
X444860D02*
Y441420D01*
X445060D01*
X495560Y431420D02*
X495760D01*
X495560Y428920D02*
X495760D01*
Y431420D01*
X444860Y443920D02*
X445060D01*
X444860D02*
Y446420D01*
X445060D01*
X495560Y426420D02*
X495760D01*
X495560Y423920D02*
X495760D01*
Y426420D01*
X495560Y421420D02*
X495760D01*
X495560Y418920D02*
X495760D01*
Y421420D01*
X495560Y416420D02*
X495760D01*
X495560Y413920D02*
X495760D01*
Y416420D01*
X495560Y411420D02*
X495760D01*
Y408920D02*
Y411420D01*
X495560Y408920D02*
X495760D01*
X282560Y243920D02*
X282760D01*
Y246420D01*
X282560D02*
X282760D01*
Y248920D02*
Y251420D01*
X282560Y248920D02*
X282760D01*
X282560Y251420D02*
X282760D01*
Y253920D02*
Y256420D01*
X282560Y253920D02*
X282760D01*
X282560Y256420D02*
X282760D01*
Y258920D02*
Y261420D01*
X282560Y258920D02*
X282760D01*
X282560Y261420D02*
X282760D01*
X231860Y281420D02*
X232060D01*
X231860Y278920D02*
Y281420D01*
Y278920D02*
X232060D01*
X282760Y263920D02*
Y266420D01*
X282560Y263920D02*
X282760D01*
X282560Y266420D02*
X282760D01*
X231860Y276420D02*
X232060D01*
X231860Y273920D02*
Y276420D01*
Y273920D02*
X232060D01*
X282760Y268920D02*
Y271420D01*
X282560Y268920D02*
X282760D01*
X282560Y271420D02*
X282760D01*
X231860D02*
X232060D01*
X231860Y268920D02*
Y271420D01*
Y268920D02*
X232060D01*
X282760Y273920D02*
Y276420D01*
X282560Y273920D02*
X282760D01*
X282560Y276420D02*
X282760D01*
X231860Y266420D02*
X232060D01*
X231860Y263920D02*
Y266420D01*
Y263920D02*
X232060D01*
X231860Y243920D02*
Y246420D01*
X232060D01*
X231860Y243920D02*
X232060D01*
X231860Y261420D02*
X232060D01*
X231860Y258920D02*
Y261420D01*
Y258920D02*
X232060D01*
X238560Y288120D02*
X241060D01*
Y287920D02*
Y288120D01*
X238560Y287920D02*
Y288120D01*
X231860Y256420D02*
X232060D01*
X231860Y253920D02*
Y256420D01*
Y253920D02*
X232060D01*
X282560Y278920D02*
X282760D01*
Y281420D01*
X282560D02*
X282760D01*
X231860Y251420D02*
X232060D01*
X231860Y248920D02*
Y251420D01*
Y248920D02*
X232060D01*
X238560Y237220D02*
Y237419D01*
Y237220D02*
X241060D01*
Y237419D01*
X276060Y287920D02*
Y288120D01*
X273560D02*
X276060D01*
X273560Y287920D02*
Y288120D01*
X243560Y237220D02*
Y237419D01*
Y237220D02*
X246060D01*
Y237419D01*
X271060Y287920D02*
Y288120D01*
X268560D02*
X271060D01*
X268560Y287920D02*
Y288120D01*
X248560Y237220D02*
Y237419D01*
Y237220D02*
X251060D01*
Y237419D01*
X266060Y287920D02*
Y288120D01*
X263560D02*
X266060D01*
X263560Y287920D02*
Y288120D01*
X253560Y237220D02*
Y237419D01*
Y237220D02*
X256060D01*
Y237419D01*
X261060Y287920D02*
Y288120D01*
X258560D02*
X261060D01*
X258560Y287920D02*
Y288120D01*
Y237220D02*
Y237419D01*
Y237220D02*
X261060D01*
Y237419D01*
X256060Y287920D02*
Y288120D01*
X253560D02*
X256060D01*
X253560Y287920D02*
Y288120D01*
X263560Y237220D02*
Y237419D01*
Y237220D02*
X266060D01*
Y237419D01*
X251060Y287920D02*
Y288120D01*
X248560D02*
X251060D01*
X248560Y287920D02*
Y288120D01*
X268560Y237220D02*
Y237419D01*
Y237220D02*
X271060D01*
Y237419D01*
X246060Y287920D02*
Y288120D01*
X243560D02*
X246060D01*
X243560Y287920D02*
Y288120D01*
X273560Y237220D02*
Y237419D01*
Y237220D02*
X276060D01*
Y237419D01*
X232060D02*
Y287920D01*
X282560D01*
Y237419D02*
Y287920D01*
X232060Y237419D02*
X282560D01*
X445060D02*
X495560D01*
Y287920D01*
X445060D02*
X495560D01*
X445060Y237419D02*
Y287920D01*
X489060Y237220D02*
Y237419D01*
X486560Y237220D02*
X489060D01*
X486560D02*
Y237419D01*
X456560Y287920D02*
Y288120D01*
X459060D01*
Y287920D02*
Y288120D01*
X484060Y237220D02*
Y237419D01*
X481560Y237220D02*
X484060D01*
X481560D02*
Y237419D01*
X461560Y287920D02*
Y288120D01*
X464060D01*
Y287920D02*
Y288120D01*
X479060Y237220D02*
Y237419D01*
X476560Y237220D02*
X479060D01*
X476560D02*
Y237419D01*
X466560Y287920D02*
Y288120D01*
X469060D01*
Y287920D02*
Y288120D01*
X474060Y237220D02*
Y237419D01*
X471560Y237220D02*
X474060D01*
X471560D02*
Y237419D01*
Y287920D02*
Y288120D01*
X474060D01*
Y287920D02*
Y288120D01*
X469060Y237220D02*
Y237419D01*
X466560Y237220D02*
X469060D01*
X466560D02*
Y237419D01*
X476560Y287920D02*
Y288120D01*
X479060D01*
Y287920D02*
Y288120D01*
X464060Y237220D02*
Y237419D01*
X461560Y237220D02*
X464060D01*
X461560D02*
Y237419D01*
X481560Y287920D02*
Y288120D01*
X484060D01*
Y287920D02*
Y288120D01*
X459060Y237220D02*
Y237419D01*
X456560Y237220D02*
X459060D01*
X456560D02*
Y237419D01*
X486560Y287920D02*
Y288120D01*
X489060D01*
Y287920D02*
Y288120D01*
X454060Y237220D02*
Y237419D01*
X451560Y237220D02*
X454060D01*
X451560D02*
Y237419D01*
X444860Y248920D02*
X445060D01*
X444860D02*
Y251420D01*
X445060D01*
X495560Y281420D02*
X495760D01*
Y278920D02*
Y281420D01*
X495560Y278920D02*
X495760D01*
X444860Y253920D02*
X445060D01*
X444860D02*
Y256420D01*
X445060D01*
X451560Y287920D02*
Y288120D01*
X454060Y287920D02*
Y288120D01*
X451560D02*
X454060D01*
X444860Y258920D02*
X445060D01*
X444860D02*
Y261420D01*
X445060D01*
X444860Y243920D02*
X445060D01*
X444860Y246420D02*
X445060D01*
X444860Y243920D02*
Y246420D01*
Y263920D02*
X445060D01*
X444860D02*
Y266420D01*
X445060D01*
X495560Y276420D02*
X495760D01*
X495560Y273920D02*
X495760D01*
Y276420D01*
X444860Y268920D02*
X445060D01*
X444860D02*
Y271420D01*
X445060D01*
X495560D02*
X495760D01*
X495560Y268920D02*
X495760D01*
Y271420D01*
X444860Y273920D02*
X445060D01*
X444860D02*
Y276420D01*
X445060D01*
X495560Y266420D02*
X495760D01*
X495560Y263920D02*
X495760D01*
Y266420D01*
X444860Y278920D02*
X445060D01*
X444860D02*
Y281420D01*
X445060D01*
X495560Y261420D02*
X495760D01*
X495560Y258920D02*
X495760D01*
Y261420D01*
X495560Y256420D02*
X495760D01*
X495560Y253920D02*
X495760D01*
Y256420D01*
X495560Y251420D02*
X495760D01*
X495560Y248920D02*
X495760D01*
Y251420D01*
X495560Y246420D02*
X495760D01*
Y243920D02*
Y246420D01*
X495560Y243920D02*
X495760D01*
D62*
X114260Y601420D02*
X127760D01*
X114260Y580420D02*
X127760D01*
Y601420D01*
X114260Y580420D02*
Y601420D01*
X76260D02*
X89760D01*
X76260Y580420D02*
X89760D01*
Y601420D01*
X76260Y580420D02*
Y601420D01*
M02*
