G04 Layer_Physical_Order=6*
G04 Layer_Color=16711680*
%FSLAX44Y44*%
%MOMM*%
G71*
G01*
G75*
%ADD15R,2.8000X0.5500*%
%ADD20C,0.4000*%
%ADD21C,0.2000*%
%ADD22C,0.5000*%
%ADD24C,1.6000*%
%ADD25C,0.8900*%
%ADD26R,0.8900X0.8900*%
%ADD27C,1.3000*%
%ADD28C,0.4500*%
%ADD29C,0.5000*%
%ADD30C,0.7000*%
%ADD31C,1.0000*%
%ADD32C,0.2500*%
%ADD34R,2.1000X1.2000*%
%ADD35C,1.0000*%
G36*
X119341Y946450D02*
X119241Y946634D01*
X118941Y946799D01*
X118441Y946945D01*
X117741Y947071D01*
X116841Y947177D01*
X114441Y947332D01*
X114310Y947335D01*
X112258Y947204D01*
X111850Y947126D01*
X111524Y947036D01*
X111282Y946934D01*
X111123Y946820D01*
Y947389D01*
X109341Y947420D01*
Y957420D01*
X111123Y957429D01*
Y958020D01*
X111282Y957906D01*
X111524Y957804D01*
X111850Y957714D01*
X112258Y957636D01*
X112750Y957570D01*
X113050Y957546D01*
X118441Y957895D01*
X118941Y958040D01*
X119241Y958205D01*
X119341Y958389D01*
Y946450D01*
D02*
G37*
G36*
X472568Y958187D02*
X470567Y956132D01*
X470562Y956230D01*
X470531Y956318D01*
X470473Y956396D01*
X470388Y956463D01*
X470277Y956520D01*
X470139Y956567D01*
X469975Y956603D01*
X469784Y956629D01*
X469566Y956645D01*
X469322Y956650D01*
X469986Y958650D01*
X472568Y958187D01*
D02*
G37*
G36*
X466298Y956650D02*
X466054Y956645D01*
X465645Y956603D01*
X465481Y956567D01*
X465343Y956520D01*
X465232Y956463D01*
X465147Y956396D01*
X465089Y956318D01*
X465057Y956230D01*
X465052Y956132D01*
X463052Y958187D01*
X465634Y958650D01*
X466298Y956650D01*
D02*
G37*
G36*
X259568Y958187D02*
X257567Y956132D01*
X257563Y956230D01*
X257531Y956318D01*
X257473Y956396D01*
X257388Y956463D01*
X257277Y956520D01*
X257139Y956567D01*
X256975Y956603D01*
X256784Y956629D01*
X256566Y956645D01*
X256322Y956650D01*
X256986Y958650D01*
X259568Y958187D01*
D02*
G37*
G36*
X253298Y956650D02*
X253054Y956645D01*
X252645Y956603D01*
X252481Y956567D01*
X252343Y956520D01*
X252232Y956463D01*
X252147Y956396D01*
X252089Y956318D01*
X252057Y956230D01*
X252052Y956132D01*
X250052Y958187D01*
X252634Y958650D01*
X253298Y956650D01*
D02*
G37*
G36*
X42280Y958205D02*
X42580Y958040D01*
X43080Y957895D01*
X43780Y957769D01*
X44680Y957662D01*
X46416Y957550D01*
X47761Y957636D01*
X48170Y957714D01*
X48495Y957804D01*
X48738Y957906D01*
X48897Y958020D01*
Y957476D01*
X52180Y957420D01*
Y947420D01*
X50280Y947410D01*
X48897Y947321D01*
Y946820D01*
X48738Y946934D01*
X48495Y947036D01*
X48170Y947126D01*
X47761Y947204D01*
X47543Y947233D01*
X43080Y946945D01*
X42580Y946799D01*
X42280Y946634D01*
X42180Y946450D01*
Y958389D01*
X42280Y958205D01*
D02*
G37*
G36*
X85496Y946547D02*
X85394Y946305D01*
X85304Y945980D01*
X85226Y945571D01*
X85160Y945079D01*
X85064Y943847D01*
X85010Y941375D01*
X75010D01*
X75004Y942282D01*
X74794Y945571D01*
X74716Y945980D01*
X74626Y946305D01*
X74524Y946547D01*
X74410Y946706D01*
X85610D01*
X85496Y946547D01*
D02*
G37*
G36*
X84540Y936236D02*
X85479Y936220D01*
Y926220D01*
X84540Y926215D01*
Y925250D01*
X84440Y925434D01*
X84140Y925599D01*
X83640Y925744D01*
X82940Y925871D01*
X82040Y925977D01*
X81010Y926044D01*
X76379Y925744D01*
X75879Y925599D01*
X75579Y925434D01*
X75479Y925250D01*
Y926204D01*
X74540Y926220D01*
Y936220D01*
X75479Y936224D01*
Y937189D01*
X75579Y937005D01*
X75879Y936840D01*
X76379Y936695D01*
X77079Y936569D01*
X77979Y936462D01*
X79010Y936395D01*
X83640Y936695D01*
X84140Y936840D01*
X84440Y937005D01*
X84540Y937189D01*
Y936236D01*
D02*
G37*
G36*
X140380Y928205D02*
X140680Y928040D01*
X141180Y927895D01*
X141880Y927769D01*
X142780Y927662D01*
X145180Y927507D01*
X150280Y927420D01*
Y917420D01*
X148380Y917410D01*
X141180Y916945D01*
X140680Y916799D01*
X140380Y916634D01*
X140280Y916450D01*
Y928389D01*
X140380Y928205D01*
D02*
G37*
G36*
X137983Y916450D02*
X137002Y916813D01*
X135926Y916939D01*
X134753Y916826D01*
X133483Y916476D01*
X132117Y915888D01*
X130654Y915062D01*
X129096Y913998D01*
X127440Y912696D01*
X125689Y911157D01*
X123841Y909379D01*
X112269Y911950D01*
X114452Y914203D01*
X117833Y918150D01*
X119032Y919844D01*
X119903Y921352D01*
X120446Y922673D01*
X120662Y923807D01*
X120549Y924755D01*
X120109Y925517D01*
X119341Y926092D01*
X137983Y916450D01*
D02*
G37*
G36*
X40760Y916350D02*
X39910Y916050D01*
X39160Y915550D01*
X38510Y914850D01*
X37960Y913950D01*
X37510Y912850D01*
X37160Y911550D01*
X36910Y910050D01*
X36760Y908350D01*
X36710Y906450D01*
X26710D01*
X26660Y908350D01*
X26510Y910050D01*
X26260Y911550D01*
X25910Y912850D01*
X25460Y913950D01*
X24910Y914850D01*
X24260Y915550D01*
X23510Y916050D01*
X22660Y916350D01*
X21710Y916450D01*
X41710D01*
X40760Y916350D01*
D02*
G37*
G36*
X54540Y895250D02*
X54440Y895434D01*
X54140Y895599D01*
X53640Y895745D01*
X52940Y895871D01*
X52040Y895977D01*
X49640Y896132D01*
X44540Y896220D01*
Y906220D01*
X46440Y906229D01*
X53640Y906695D01*
X54140Y906840D01*
X54440Y907005D01*
X54540Y907189D01*
Y895250D01*
D02*
G37*
G36*
X472568Y793187D02*
X470567Y791132D01*
X470562Y791230D01*
X470531Y791318D01*
X470473Y791396D01*
X470388Y791463D01*
X470277Y791520D01*
X470139Y791567D01*
X469975Y791603D01*
X469784Y791629D01*
X469566Y791645D01*
X469322Y791650D01*
X469986Y793650D01*
X472568Y793187D01*
D02*
G37*
G36*
X466298Y791650D02*
X466054Y791645D01*
X465645Y791603D01*
X465481Y791567D01*
X465343Y791520D01*
X465232Y791463D01*
X465147Y791396D01*
X465089Y791318D01*
X465057Y791230D01*
X465052Y791132D01*
X463052Y793187D01*
X465634Y793650D01*
X466298Y791650D01*
D02*
G37*
G36*
X259568Y793187D02*
X257567Y791132D01*
X257563Y791230D01*
X257531Y791318D01*
X257473Y791396D01*
X257388Y791463D01*
X257277Y791520D01*
X257139Y791567D01*
X256975Y791603D01*
X256784Y791629D01*
X256566Y791645D01*
X256322Y791650D01*
X256986Y793650D01*
X259568Y793187D01*
D02*
G37*
G36*
X253298Y791650D02*
X253054Y791645D01*
X252645Y791603D01*
X252481Y791567D01*
X252343Y791520D01*
X252232Y791463D01*
X252147Y791396D01*
X252089Y791318D01*
X252057Y791230D01*
X252052Y791132D01*
X250052Y793187D01*
X252634Y793650D01*
X253298Y791650D01*
D02*
G37*
G36*
X458168Y681369D02*
X457664Y681854D01*
X457150Y682288D01*
X456628Y682670D01*
X456097Y683001D01*
X455558Y683282D01*
X455009Y683512D01*
X454451Y683690D01*
X453885Y683818D01*
X453310Y683894D01*
X452725Y683920D01*
Y687919D01*
X453310Y687945D01*
X453885Y688021D01*
X454451Y688149D01*
X455009Y688327D01*
X455558Y688557D01*
X456097Y688838D01*
X456628Y689169D01*
X457150Y689551D01*
X457664Y689985D01*
X458168Y690470D01*
Y681369D01*
D02*
G37*
G36*
X-110508Y675098D02*
X-110358Y675060D01*
X-110108Y675027D01*
X-109308Y674975D01*
X-105558Y674920D01*
Y669920D01*
X-110558Y669700D01*
Y675139D01*
X-110508Y675098D01*
D02*
G37*
G36*
Y667098D02*
X-110358Y667060D01*
X-110108Y667027D01*
X-109308Y666975D01*
X-105558Y666920D01*
Y661920D01*
X-110558Y661700D01*
Y667139D01*
X-110508Y667098D01*
D02*
G37*
G36*
Y659098D02*
X-110358Y659060D01*
X-110108Y659027D01*
X-109308Y658975D01*
X-105558Y658920D01*
Y653920D01*
X-110558Y653700D01*
Y659139D01*
X-110508Y659098D01*
D02*
G37*
G36*
Y651098D02*
X-110358Y651060D01*
X-110108Y651028D01*
X-109308Y650975D01*
X-105558Y650920D01*
Y645920D01*
X-110558Y645700D01*
Y651139D01*
X-110508Y651098D01*
D02*
G37*
G36*
X-60112Y638919D02*
X-60294Y639375D01*
X-60529Y639783D01*
X-60816Y640143D01*
X-61157Y640455D01*
X-61551Y640720D01*
X-61998Y640936D01*
X-62498Y641104D01*
X-63051Y641224D01*
X-63656Y641296D01*
X-64315Y641320D01*
X-61445Y646320D01*
X-60784Y646327D01*
X-58438Y646494D01*
X-57928Y646570D01*
X-56997Y646764D01*
X-56577Y646882D01*
X-56188Y647014D01*
X-60112Y638919D01*
D02*
G37*
G36*
X-110508Y643098D02*
X-110358Y643060D01*
X-110108Y643027D01*
X-109308Y642975D01*
X-105558Y642920D01*
Y637920D01*
X-110558Y637700D01*
Y643139D01*
X-110508Y643098D01*
D02*
G37*
G36*
Y635098D02*
X-110358Y635060D01*
X-110108Y635027D01*
X-109308Y634975D01*
X-105558Y634920D01*
Y629920D01*
X-110558Y629700D01*
Y635139D01*
X-110508Y635098D01*
D02*
G37*
G36*
X472568Y628187D02*
X470567Y626132D01*
X470562Y626230D01*
X470531Y626318D01*
X470473Y626396D01*
X470388Y626463D01*
X470277Y626520D01*
X470139Y626567D01*
X469975Y626603D01*
X469784Y626629D01*
X469566Y626645D01*
X469322Y626650D01*
X469986Y628650D01*
X472568Y628187D01*
D02*
G37*
G36*
X466298Y626650D02*
X466054Y626645D01*
X465645Y626603D01*
X465481Y626567D01*
X465343Y626520D01*
X465232Y626463D01*
X465147Y626396D01*
X465089Y626318D01*
X465057Y626230D01*
X465052Y626132D01*
X463052Y628187D01*
X465634Y628650D01*
X466298Y626650D01*
D02*
G37*
G36*
X259568Y628187D02*
X257567Y626132D01*
X257563Y626230D01*
X257531Y626318D01*
X257473Y626396D01*
X257388Y626463D01*
X257277Y626520D01*
X257139Y626567D01*
X256975Y626603D01*
X256784Y626629D01*
X256566Y626645D01*
X256322Y626650D01*
X256986Y628650D01*
X259568Y628187D01*
D02*
G37*
G36*
X253298Y626650D02*
X253054Y626645D01*
X252645Y626603D01*
X252481Y626567D01*
X252343Y626520D01*
X252232Y626463D01*
X252147Y626396D01*
X252089Y626318D01*
X252057Y626230D01*
X252052Y626132D01*
X250052Y628187D01*
X252634Y628650D01*
X253298Y626650D01*
D02*
G37*
G36*
X-110508Y627098D02*
X-110358Y627060D01*
X-110108Y627027D01*
X-109308Y626975D01*
X-105558Y626920D01*
Y621920D01*
X-110558Y621700D01*
Y627139D01*
X-110508Y627098D01*
D02*
G37*
G36*
X-52240Y618920D02*
X-52526Y618903D01*
X-52823Y618846D01*
X-53131Y618750D01*
X-53451Y618614D01*
X-53781Y618439D01*
X-54124Y618224D01*
X-54477Y617970D01*
X-54842Y617676D01*
X-55606Y616969D01*
X-59141Y620504D01*
X-58768Y620891D01*
X-58140Y621632D01*
X-57885Y621986D01*
X-57671Y622328D01*
X-57495Y622659D01*
X-57359Y622979D01*
X-57263Y623287D01*
X-57207Y623584D01*
X-57190Y623870D01*
X-52240Y618920D01*
D02*
G37*
G36*
X-110508Y619098D02*
X-110358Y619060D01*
X-110108Y619027D01*
X-109308Y618975D01*
X-105558Y618920D01*
Y613920D01*
X-110558Y613700D01*
Y619139D01*
X-110508Y619098D01*
D02*
G37*
G36*
X-110518Y611003D02*
X-110398Y610880D01*
X-110198Y610772D01*
X-109918Y610679D01*
X-109558Y610600D01*
X-109118Y610535D01*
X-107998Y610449D01*
X-106558Y610420D01*
Y606420D01*
X-107318Y606413D01*
X-109558Y606240D01*
X-109918Y606161D01*
X-110198Y606067D01*
X-110398Y605959D01*
X-110518Y605837D01*
X-110558Y605700D01*
Y611139D01*
X-110518Y611003D01*
D02*
G37*
G36*
X-106558Y599420D02*
X-107318Y599403D01*
X-107998Y599351D01*
X-108598Y599265D01*
X-109118Y599145D01*
X-109558Y598990D01*
X-109918Y598801D01*
X-110198Y598577D01*
X-110398Y598319D01*
X-110518Y598027D01*
X-110558Y597700D01*
Y603139D01*
X-106558Y603420D01*
Y599420D01*
D02*
G37*
G36*
X-110508Y595098D02*
X-110358Y595060D01*
X-110108Y595027D01*
X-109308Y594975D01*
X-105558Y594920D01*
Y589920D01*
X-110558Y589700D01*
Y595139D01*
X-110508Y595098D01*
D02*
G37*
G36*
X-110518Y587003D02*
X-110398Y586880D01*
X-110198Y586772D01*
X-109918Y586679D01*
X-109558Y586600D01*
X-109118Y586535D01*
X-107998Y586449D01*
X-106558Y586420D01*
Y582420D01*
X-107318Y582413D01*
X-109558Y582240D01*
X-109918Y582161D01*
X-110198Y582067D01*
X-110398Y581959D01*
X-110518Y581837D01*
X-110558Y581700D01*
Y587139D01*
X-110518Y587003D01*
D02*
G37*
G36*
Y579003D02*
X-110398Y578880D01*
X-110198Y578772D01*
X-109918Y578679D01*
X-109558Y578600D01*
X-109118Y578535D01*
X-107998Y578449D01*
X-106558Y578420D01*
Y574420D01*
X-107318Y574413D01*
X-109558Y574240D01*
X-109918Y574161D01*
X-110198Y574067D01*
X-110398Y573959D01*
X-110518Y573837D01*
X-110558Y573700D01*
Y579139D01*
X-110518Y579003D01*
D02*
G37*
G36*
X-110508Y571098D02*
X-110358Y571060D01*
X-110108Y571027D01*
X-109308Y570975D01*
X-105558Y570920D01*
Y565920D01*
X-110558Y565700D01*
Y571139D01*
X-110508Y571098D01*
D02*
G37*
G36*
X-110518Y563003D02*
X-110398Y562880D01*
X-110198Y562772D01*
X-109918Y562679D01*
X-109558Y562600D01*
X-109118Y562535D01*
X-107998Y562449D01*
X-106558Y562420D01*
Y558420D01*
X-107318Y558413D01*
X-109558Y558240D01*
X-109918Y558161D01*
X-110198Y558067D01*
X-110398Y557959D01*
X-110518Y557837D01*
X-110558Y557700D01*
Y563139D01*
X-110518Y563003D01*
D02*
G37*
G36*
Y555003D02*
X-110398Y554880D01*
X-110198Y554772D01*
X-109918Y554679D01*
X-109558Y554600D01*
X-109118Y554535D01*
X-107998Y554449D01*
X-106558Y554420D01*
Y550420D01*
X-107318Y550413D01*
X-109558Y550240D01*
X-109918Y550161D01*
X-110198Y550067D01*
X-110398Y549959D01*
X-110518Y549837D01*
X-110558Y549700D01*
Y555139D01*
X-110518Y555003D01*
D02*
G37*
G36*
X-110508Y547098D02*
X-110358Y547060D01*
X-110108Y547027D01*
X-109308Y546975D01*
X-105558Y546920D01*
Y541920D01*
X-110558Y541700D01*
Y547139D01*
X-110508Y547098D01*
D02*
G37*
G36*
Y523098D02*
X-110358Y523060D01*
X-110108Y523027D01*
X-109308Y522975D01*
X-105558Y522920D01*
Y517920D01*
X-110558Y517700D01*
Y523139D01*
X-110508Y523098D01*
D02*
G37*
G36*
X-94998Y516920D02*
X-95212Y517110D01*
X-95462Y517280D01*
X-95748Y517430D01*
X-96070Y517560D01*
X-96428Y517670D01*
X-96822Y517760D01*
X-97252Y517830D01*
X-97718Y517880D01*
X-98758Y517920D01*
Y522920D01*
X-98220Y522930D01*
X-97252Y523010D01*
X-96822Y523080D01*
X-96428Y523170D01*
X-96070Y523280D01*
X-95748Y523410D01*
X-95462Y523560D01*
X-95212Y523730D01*
X-94998Y523920D01*
Y516920D01*
D02*
G37*
G36*
X458168Y516369D02*
X457664Y516854D01*
X457150Y517287D01*
X456628Y517670D01*
X456097Y518001D01*
X455558Y518282D01*
X455009Y518511D01*
X454451Y518690D01*
X453885Y518817D01*
X453310Y518894D01*
X452725Y518919D01*
Y522919D01*
X453310Y522945D01*
X453885Y523021D01*
X454451Y523149D01*
X455009Y523327D01*
X455558Y523557D01*
X456097Y523837D01*
X456628Y524169D01*
X457150Y524551D01*
X457664Y524985D01*
X458168Y525469D01*
Y516369D01*
D02*
G37*
G36*
X-110508Y467098D02*
X-110358Y467060D01*
X-110108Y467027D01*
X-109308Y466975D01*
X-105558Y466920D01*
Y461920D01*
X-110558Y461700D01*
Y467139D01*
X-110508Y467098D01*
D02*
G37*
G36*
X472568Y463186D02*
X470567Y461132D01*
X470562Y461230D01*
X470531Y461318D01*
X470473Y461396D01*
X470388Y461463D01*
X470277Y461520D01*
X470139Y461567D01*
X469975Y461603D01*
X469784Y461629D01*
X469566Y461644D01*
X469322Y461650D01*
X469986Y463650D01*
X472568Y463186D01*
D02*
G37*
G36*
X466298Y461650D02*
X466054Y461644D01*
X465645Y461603D01*
X465481Y461567D01*
X465343Y461520D01*
X465232Y461463D01*
X465147Y461396D01*
X465089Y461318D01*
X465057Y461230D01*
X465052Y461132D01*
X463052Y463186D01*
X465634Y463650D01*
X466298Y461650D01*
D02*
G37*
G36*
X259568Y463186D02*
X257567Y461132D01*
X257563Y461230D01*
X257531Y461318D01*
X257473Y461396D01*
X257388Y461463D01*
X257277Y461520D01*
X257139Y461567D01*
X256975Y461603D01*
X256784Y461629D01*
X256566Y461644D01*
X256322Y461650D01*
X256986Y463650D01*
X259568Y463186D01*
D02*
G37*
G36*
X253298Y461650D02*
X253054Y461644D01*
X252645Y461603D01*
X252481Y461567D01*
X252343Y461520D01*
X252232Y461463D01*
X252147Y461396D01*
X252089Y461318D01*
X252057Y461230D01*
X252052Y461132D01*
X250052Y463186D01*
X252634Y463650D01*
X253298Y461650D01*
D02*
G37*
G36*
X-110518Y459003D02*
X-110398Y458880D01*
X-110198Y458772D01*
X-109918Y458679D01*
X-109558Y458600D01*
X-109118Y458535D01*
X-107998Y458449D01*
X-106558Y458420D01*
Y454420D01*
X-107318Y454413D01*
X-109558Y454240D01*
X-109918Y454161D01*
X-110198Y454067D01*
X-110398Y453959D01*
X-110518Y453837D01*
X-110558Y453700D01*
Y459139D01*
X-110518Y459003D01*
D02*
G37*
G36*
X-53322Y451870D02*
X-53827Y452354D01*
X-54340Y452788D01*
X-54862Y453170D01*
X-55393Y453502D01*
X-55933Y453782D01*
X-56481Y454012D01*
X-57039Y454190D01*
X-57606Y454318D01*
X-58181Y454394D01*
X-58765Y454420D01*
Y458420D01*
X-58181Y458445D01*
X-57606Y458522D01*
X-57039Y458649D01*
X-56481Y458828D01*
X-55933Y459057D01*
X-55393Y459338D01*
X-54862Y459669D01*
X-54340Y460052D01*
X-53827Y460485D01*
X-53322Y460970D01*
Y451870D01*
D02*
G37*
G36*
X-110508Y443098D02*
X-110358Y443060D01*
X-110108Y443027D01*
X-109308Y442975D01*
X-105558Y442920D01*
Y437920D01*
X-110558Y437700D01*
Y443139D01*
X-110508Y443098D01*
D02*
G37*
G36*
Y419098D02*
X-110358Y419060D01*
X-110108Y419027D01*
X-109308Y418975D01*
X-105558Y418920D01*
Y413920D01*
X-110558Y413700D01*
Y419139D01*
X-110508Y419098D01*
D02*
G37*
G36*
X-97669Y411870D02*
X-98084Y412259D01*
X-98523Y412608D01*
X-98987Y412915D01*
X-99475Y413182D01*
X-99989Y413407D01*
X-100527Y413592D01*
X-101090Y413735D01*
X-101678Y413838D01*
X-102290Y413899D01*
X-102928Y413920D01*
Y418920D01*
X-102290Y418940D01*
X-101678Y419002D01*
X-101090Y419104D01*
X-100527Y419248D01*
X-99989Y419432D01*
X-99475Y419658D01*
X-98987Y419924D01*
X-98523Y420232D01*
X-98084Y420580D01*
X-97669Y420970D01*
Y411870D01*
D02*
G37*
G36*
X-110508Y395098D02*
X-110358Y395060D01*
X-110108Y395027D01*
X-109308Y394975D01*
X-105558Y394920D01*
Y389920D01*
X-110558Y389700D01*
Y395139D01*
X-110508Y395098D01*
D02*
G37*
G36*
X-97669Y387870D02*
X-98084Y388259D01*
X-98523Y388608D01*
X-98987Y388915D01*
X-99475Y389182D01*
X-99989Y389407D01*
X-100527Y389592D01*
X-101090Y389735D01*
X-101678Y389838D01*
X-102290Y389899D01*
X-102928Y389920D01*
Y394920D01*
X-102290Y394940D01*
X-101678Y395002D01*
X-101090Y395104D01*
X-100527Y395248D01*
X-99989Y395432D01*
X-99475Y395658D01*
X-98987Y395924D01*
X-98523Y396232D01*
X-98084Y396580D01*
X-97669Y396970D01*
Y387870D01*
D02*
G37*
G36*
X-110508Y371098D02*
X-110358Y371060D01*
X-110108Y371027D01*
X-109308Y370975D01*
X-105558Y370920D01*
Y365920D01*
X-110558Y365700D01*
Y371139D01*
X-110508Y371098D01*
D02*
G37*
G36*
X-97669Y363870D02*
X-98084Y364259D01*
X-98523Y364608D01*
X-98987Y364915D01*
X-99475Y365182D01*
X-99989Y365407D01*
X-100527Y365592D01*
X-101090Y365735D01*
X-101678Y365838D01*
X-102290Y365899D01*
X-102928Y365920D01*
Y370920D01*
X-102290Y370940D01*
X-101678Y371002D01*
X-101090Y371104D01*
X-100527Y371248D01*
X-99989Y371432D01*
X-99475Y371658D01*
X-98987Y371924D01*
X-98523Y372232D01*
X-98084Y372580D01*
X-97669Y372970D01*
Y363870D01*
D02*
G37*
G36*
X458168Y351471D02*
X457664Y351955D01*
X457150Y352389D01*
X456628Y352771D01*
X456097Y353103D01*
X455558Y353383D01*
X455009Y353613D01*
X454451Y353792D01*
X453885Y353919D01*
X453310Y353996D01*
X452725Y354021D01*
Y358021D01*
X453310Y358046D01*
X453885Y358123D01*
X454451Y358251D01*
X455009Y358429D01*
X455558Y358658D01*
X456097Y358939D01*
X456628Y359271D01*
X457150Y359653D01*
X457664Y360087D01*
X458168Y360571D01*
Y351471D01*
D02*
G37*
G36*
X-95384Y344588D02*
X-95466Y344589D01*
X-95583Y344547D01*
X-95735Y344462D01*
X-95920Y344333D01*
X-96141Y344161D01*
X-96685Y343688D01*
X-97760Y342652D01*
X-101295Y346188D01*
X-100907Y346581D01*
X-99486Y348213D01*
X-99400Y348364D01*
X-99358Y348481D01*
X-99360Y348564D01*
X-95384Y344588D01*
D02*
G37*
G36*
X-110508Y347098D02*
X-110358Y347060D01*
X-110108Y347027D01*
X-109308Y346975D01*
X-105558Y346920D01*
Y341920D01*
X-110558Y341700D01*
Y347139D01*
X-110508Y347098D01*
D02*
G37*
G36*
Y331098D02*
X-110358Y331060D01*
X-110108Y331027D01*
X-109308Y330975D01*
X-105558Y330920D01*
Y325920D01*
X-110558Y325700D01*
Y331139D01*
X-110508Y331098D01*
D02*
G37*
G36*
X472568Y298186D02*
X470567Y296132D01*
X470562Y296230D01*
X470531Y296318D01*
X470473Y296396D01*
X470388Y296463D01*
X470277Y296520D01*
X470139Y296567D01*
X469975Y296603D01*
X469784Y296629D01*
X469566Y296644D01*
X469322Y296649D01*
X469986Y298650D01*
X472568Y298186D01*
D02*
G37*
G36*
X466298Y296649D02*
X466054Y296644D01*
X465645Y296603D01*
X465481Y296567D01*
X465343Y296520D01*
X465232Y296463D01*
X465147Y296396D01*
X465089Y296318D01*
X465057Y296230D01*
X465052Y296132D01*
X463052Y298186D01*
X465634Y298650D01*
X466298Y296649D01*
D02*
G37*
G36*
X259568Y298186D02*
X257567Y296132D01*
X257563Y296230D01*
X257531Y296318D01*
X257473Y296396D01*
X257388Y296463D01*
X257277Y296520D01*
X257139Y296567D01*
X256975Y296603D01*
X256784Y296629D01*
X256566Y296644D01*
X256322Y296649D01*
X256986Y298650D01*
X259568Y298186D01*
D02*
G37*
G36*
X253298Y296649D02*
X253054Y296644D01*
X252645Y296603D01*
X252481Y296567D01*
X252343Y296520D01*
X252232Y296463D01*
X252147Y296396D01*
X252089Y296318D01*
X252057Y296230D01*
X252052Y296132D01*
X250052Y298186D01*
X252634Y298650D01*
X253298Y296649D01*
D02*
G37*
G36*
X458168Y186471D02*
X457664Y186955D01*
X457150Y187389D01*
X456628Y187771D01*
X456097Y188103D01*
X455558Y188383D01*
X455009Y188613D01*
X454451Y188791D01*
X453885Y188919D01*
X453310Y188995D01*
X452725Y189021D01*
Y193021D01*
X453310Y193046D01*
X453885Y193123D01*
X454451Y193250D01*
X455009Y193429D01*
X455558Y193658D01*
X456097Y193939D01*
X456628Y194270D01*
X457150Y194653D01*
X457664Y195086D01*
X458168Y195571D01*
Y186471D01*
D02*
G37*
G36*
X472568Y133186D02*
X470567Y131132D01*
X470562Y131230D01*
X470531Y131318D01*
X470473Y131396D01*
X470388Y131463D01*
X470277Y131520D01*
X470139Y131567D01*
X469975Y131603D01*
X469784Y131629D01*
X469566Y131644D01*
X469322Y131650D01*
X469986Y133650D01*
X472568Y133186D01*
D02*
G37*
G36*
X466298Y131650D02*
X466054Y131644D01*
X465645Y131603D01*
X465481Y131567D01*
X465343Y131520D01*
X465232Y131463D01*
X465147Y131396D01*
X465089Y131318D01*
X465057Y131230D01*
X465052Y131132D01*
X463052Y133186D01*
X465634Y133650D01*
X466298Y131650D01*
D02*
G37*
G36*
X259568Y133186D02*
X257567Y131132D01*
X257563Y131230D01*
X257531Y131318D01*
X257473Y131396D01*
X257388Y131463D01*
X257277Y131520D01*
X257139Y131567D01*
X256975Y131603D01*
X256784Y131629D01*
X256566Y131644D01*
X256322Y131650D01*
X256986Y133650D01*
X259568Y133186D01*
D02*
G37*
G36*
X253298Y131650D02*
X253054Y131644D01*
X252645Y131603D01*
X252481Y131567D01*
X252343Y131520D01*
X252232Y131463D01*
X252147Y131396D01*
X252089Y131318D01*
X252057Y131230D01*
X252052Y131132D01*
X250052Y133186D01*
X252634Y133650D01*
X253298Y131650D01*
D02*
G37*
G36*
X458168Y21471D02*
X457664Y21955D01*
X457150Y22389D01*
X456628Y22771D01*
X456097Y23103D01*
X455558Y23383D01*
X455009Y23613D01*
X454451Y23791D01*
X453885Y23919D01*
X453310Y23995D01*
X452725Y24021D01*
Y28021D01*
X453310Y28046D01*
X453885Y28123D01*
X454451Y28250D01*
X455009Y28429D01*
X455558Y28658D01*
X456097Y28939D01*
X456628Y29270D01*
X457150Y29653D01*
X457664Y30086D01*
X458168Y30571D01*
Y21471D01*
D02*
G37*
D15*
X-124528Y672420D02*
D03*
Y664420D02*
D03*
Y656420D02*
D03*
Y648420D02*
D03*
Y640420D02*
D03*
Y632420D02*
D03*
Y624420D02*
D03*
Y616420D02*
D03*
Y608420D02*
D03*
Y600420D02*
D03*
Y592420D02*
D03*
Y584420D02*
D03*
Y576420D02*
D03*
Y568420D02*
D03*
Y560420D02*
D03*
Y552420D02*
D03*
Y544420D02*
D03*
Y536420D02*
D03*
Y528420D02*
D03*
Y520420D02*
D03*
Y512420D02*
D03*
Y504420D02*
D03*
Y464420D02*
D03*
Y456420D02*
D03*
Y448420D02*
D03*
Y440420D02*
D03*
Y432420D02*
D03*
Y424420D02*
D03*
Y416420D02*
D03*
Y408420D02*
D03*
Y400420D02*
D03*
Y392420D02*
D03*
Y384420D02*
D03*
Y376420D02*
D03*
Y368420D02*
D03*
Y360420D02*
D03*
Y352420D02*
D03*
Y344420D02*
D03*
Y336420D02*
D03*
Y328420D02*
D03*
D20*
X125010Y850919D02*
X462810D01*
X97810Y823720D02*
X125010Y850919D01*
X97810Y668920D02*
Y823720D01*
X-124528Y608420D02*
X37310D01*
X97810Y668920D01*
X-124528Y600420D02*
Y601420D01*
X61310D01*
X-124528Y584420D02*
X-11690D01*
X-124528Y576420D02*
X-39690D01*
X92810Y443919D01*
Y374920D02*
Y443919D01*
Y374920D02*
X111708Y356021D01*
X462810D01*
X-11690Y584420D02*
X51810Y520919D01*
X462810D01*
X61310Y601420D02*
X145810Y685919D01*
X462810D01*
X-124528Y560420D02*
X-47690D01*
X93708Y191021D02*
X462810D01*
X-124528Y552420D02*
X-55690D01*
X-124528Y456420D02*
X-48680D01*
X79243Y205487D02*
X93708Y191021D01*
X79243Y205487D02*
Y433487D01*
X-47690Y560420D02*
X79243Y433487D01*
X-55690Y552420D02*
X52692Y444037D01*
Y70020D02*
Y444037D01*
Y70020D02*
X96692Y26021D01*
X462810D01*
D21*
X489231Y634341D02*
Y637698D01*
X789310Y768577D02*
Y836562D01*
X773353Y752620D02*
X789310Y768577D01*
X694910Y847620D02*
X778253D01*
X789310Y836562D01*
X722410Y747770D02*
X727260Y752620D01*
X773353D01*
X492060Y644770D02*
X694910Y847620D01*
X777010Y844620D02*
X786310Y835320D01*
Y769820D02*
Y835320D01*
X696152Y844620D02*
X777010D01*
X772110Y755620D02*
X786310Y769820D01*
X727260Y755620D02*
X772110D01*
X722410Y760470D02*
X727260Y755620D01*
X494181Y642648D02*
X696152Y844620D01*
X489231Y637698D02*
X494181Y642648D01*
X494181D01*
X482310Y635020D02*
X492060Y644770D01*
X492060D01*
X727260Y323820D02*
X751052D01*
X722410Y328670D02*
X727260Y323820D01*
X751052D02*
X781310Y293562D01*
X550910Y500320D02*
X660610Y390620D01*
X781310Y195677D02*
Y293562D01*
X752153Y166520D02*
X781310Y195677D01*
X683267Y166520D02*
X752153D01*
X660610Y189177D02*
Y390620D01*
Y189177D02*
X683267Y166520D01*
X290010Y500320D02*
X550910D01*
X273810Y484120D02*
X290010Y500320D01*
X273810Y469920D02*
Y484120D01*
X727260Y320820D02*
X749810D01*
X722410Y315970D02*
X727260Y320820D01*
X749810D02*
X778310Y292320D01*
X552152Y503320D02*
X663610Y391862D01*
X778310Y196920D02*
Y292320D01*
X750910Y169520D02*
X778310Y196920D01*
X684510Y169520D02*
X750910D01*
X663610Y190420D02*
Y391862D01*
Y190420D02*
X684510Y169520D01*
X288767Y503320D02*
X552152D01*
X270810Y485362D02*
X288767Y503320D01*
X270810Y469920D02*
Y485362D01*
X273810Y469920D02*
X275310Y468420D01*
X269310D02*
X270810Y469920D01*
Y634920D02*
Y647762D01*
X273810Y634920D02*
Y646520D01*
Y634920D02*
X275310Y633420D01*
X269310D02*
X270810Y634920D01*
Y647762D02*
X289367Y666320D01*
X273810Y646520D02*
X290610Y663320D01*
X1322229Y272820D02*
X1348692D01*
X1316500Y277670D02*
X1321350Y272820D01*
X1348692D02*
X1377100Y244412D01*
X419442Y158170D02*
X485217D01*
X1377100Y129227D02*
Y244412D01*
X1289492Y41620D02*
X1377100Y129227D01*
X601767Y41620D02*
X1289492D01*
X300443Y39170D02*
X419442Y158170D01*
X485217D02*
X601767Y41620D01*
X263417Y39170D02*
X300443D01*
X1321350Y269820D02*
X1347450D01*
X1316500Y264970D02*
X1321350Y269820D01*
X1347450D02*
X1374100Y243170D01*
X418200Y161170D02*
X486460D01*
X1374100Y130470D02*
Y243170D01*
X1288250Y44620D02*
X1374100Y130470D01*
X603010Y44620D02*
X1288250D01*
X299200Y42170D02*
X418200Y161170D01*
X486460D02*
X603010Y44620D01*
X264660Y42170D02*
X299200D01*
X260810Y41777D02*
X263417Y39170D01*
X263810Y43020D02*
X264660Y42170D01*
X263810Y43020D02*
Y46420D01*
X265310Y47920D01*
X260810Y41777D02*
Y46420D01*
X259310Y47920D02*
X260810Y46420D01*
X267410Y202720D02*
X457864D01*
X266167Y199720D02*
X459106D01*
X260810Y205077D02*
X266167Y199720D01*
X263810Y206320D02*
X267410Y202720D01*
X263810Y206320D02*
Y211420D01*
X265310Y212920D01*
X260810Y205077D02*
Y211420D01*
X259310Y212920D02*
X260810Y211420D01*
X266460Y700670D02*
X307200D01*
X260810Y702077D02*
X265217Y697670D01*
X263810Y703320D02*
X266460Y700670D01*
X263810Y703320D02*
Y706420D01*
X265310Y707920D01*
X260810Y702077D02*
Y706420D01*
X259310Y707920D02*
X260810Y706420D01*
X266167Y862020D02*
X302523D01*
X267410Y865020D02*
X301280D01*
X260810Y867377D02*
X266167Y862020D01*
X263810Y868620D02*
X267410Y865020D01*
X263810Y868620D02*
Y871420D01*
X265310Y872920D01*
X260810Y867377D02*
Y871420D01*
X259310Y872920D02*
X260810Y871420D01*
X1345963Y979420D02*
X1378350Y947032D01*
X415680Y979420D02*
X1345963D01*
X1378350Y738587D02*
Y947032D01*
X301280Y865020D02*
X415680Y979420D01*
X1378350Y729677D02*
Y738587D01*
X1350293Y701620D02*
X1378350Y729677D01*
X1321350Y701620D02*
X1350293D01*
X1316500Y696770D02*
X1321350Y701620D01*
X467757Y202720D02*
X552110D01*
X467685Y202791D02*
X467757Y202720D01*
X457935Y202791D02*
X467685D01*
X457864Y202720D02*
X457935Y202791D01*
X466514Y199720D02*
X550867D01*
X466443Y199791D02*
X466514Y199720D01*
X459177Y199791D02*
X466443D01*
X459106Y199720D02*
X459177Y199791D01*
X550867Y199720D02*
X673167Y77420D01*
X552110Y202720D02*
X674410Y80420D01*
X556310Y508420D02*
X675210Y389520D01*
Y189077D02*
Y389520D01*
X557553Y511420D02*
X678210Y390762D01*
Y190320D02*
Y390762D01*
Y190320D02*
X689010Y179520D01*
X546410Y491320D02*
X646010Y391720D01*
Y189117D02*
Y391720D01*
X547653Y494320D02*
X649010Y392962D01*
Y190360D02*
Y392962D01*
Y190360D02*
X677550Y161820D01*
X544110Y478220D02*
X631410Y390920D01*
Y184377D02*
Y390920D01*
X545353Y481220D02*
X634410Y392162D01*
Y185620D02*
Y392162D01*
Y185620D02*
X668310Y151720D01*
X675210Y189077D02*
X687767Y176520D01*
X689010Y179520D02*
X743010D01*
X646010Y189117D02*
X676307Y158820D01*
X677550Y161820D02*
X759210D01*
X631410Y184377D02*
X667067Y148720D01*
X668310Y151720D02*
X771110D01*
X473667Y312920D02*
X693967Y92620D01*
X377293Y312920D02*
X473667D01*
X695210Y95620D02*
X976350D01*
X474910Y315920D02*
X695210Y95620D01*
X376050Y315920D02*
X474910D01*
X549217Y218970D02*
X682367Y85820D01*
X275567Y218970D02*
X549217D01*
X683610Y88820D02*
X985550D01*
X550460Y221970D02*
X683610Y88820D01*
X276810Y221970D02*
X550460D01*
X674410Y80420D02*
X994150D01*
X476210Y323120D02*
X698510Y100820D01*
X367193Y323120D02*
X476210D01*
X300243Y256170D02*
X367193Y323120D01*
X477453Y326120D02*
X699753Y103820D01*
X365950Y326120D02*
X477453D01*
X299000Y259170D02*
X365950Y326120D01*
X310542Y246170D02*
X377293Y312920D01*
X309300Y249170D02*
X376050Y315920D01*
X757010Y371620D02*
X806210Y322420D01*
X722410Y379470D02*
X727260Y374620D01*
X722410Y366770D02*
X727260Y371620D01*
X758253Y374620D02*
X809210Y323662D01*
X727260Y374620D02*
X758253D01*
X727260Y371620D02*
X757010D01*
X360003Y478220D02*
X544110D01*
X312952Y431170D02*
X360003Y478220D01*
X303560Y431170D02*
X312952D01*
X302060Y429670D02*
X303560Y431170D01*
X358760Y481220D02*
X545353D01*
X311710Y434170D02*
X358760Y481220D01*
X303560Y434170D02*
X311710D01*
X302060Y435670D02*
X303560Y434170D01*
X809210Y185577D02*
Y323662D01*
X806210Y186820D02*
Y322420D01*
X772353Y148720D02*
X809210Y185577D01*
X667067Y148720D02*
X772353D01*
X771110Y151720D02*
X806210Y186820D01*
X676307Y158820D02*
X760452D01*
X758310Y346220D02*
X791110Y313420D01*
X722410Y354070D02*
X727260Y349220D01*
X722410Y341370D02*
X727260Y346220D01*
X759553Y349220D02*
X794110Y314662D01*
X727260Y349220D02*
X759553D01*
X727260Y346220D02*
X758310D01*
X794110Y192477D02*
Y314662D01*
X760452Y158820D02*
X794110Y192477D01*
X791110Y193720D02*
Y313420D01*
X759210Y161820D02*
X791110Y193720D01*
X350403Y491320D02*
X546410D01*
X300252Y441170D02*
X350403Y491320D01*
X293560Y441170D02*
X300252D01*
X349160Y494320D02*
X547653D01*
X299010Y444170D02*
X349160Y494320D01*
X293560Y444170D02*
X299010D01*
X292060Y445670D02*
X293560Y444170D01*
X292060Y439670D02*
X293560Y441170D01*
X722410Y303270D02*
X727260Y298420D01*
X722410Y290570D02*
X727260Y295420D01*
X762810Y195077D02*
Y272462D01*
X759810Y196320D02*
Y271220D01*
X736852Y298420D02*
X762810Y272462D01*
X727260Y298420D02*
X736852D01*
X735610Y295420D02*
X759810Y271220D01*
X727260Y295420D02*
X735610D01*
X243810Y468920D02*
X245310Y467420D01*
X243810Y468920D02*
Y474820D01*
X240810Y468920D02*
Y476062D01*
X239310Y467420D02*
X240810Y468920D01*
X744252Y176520D02*
X762810Y195077D01*
X687767Y176520D02*
X744252D01*
X743010Y179520D02*
X759810Y196320D01*
X276167Y511420D02*
X557553D01*
X277410Y508420D02*
X556310D01*
X240810Y476062D02*
X276167Y511420D01*
X243810Y474820D02*
X277410Y508420D01*
X275567Y53970D02*
X299600D01*
X269310Y64419D02*
X270810Y62920D01*
Y58727D02*
X275567Y53970D01*
X270810Y58727D02*
Y62920D01*
X273810Y59970D02*
Y62920D01*
Y59970D02*
X276810Y56970D01*
X273810Y62920D02*
X275310Y64419D01*
X276810Y56970D02*
X298357D01*
X786310Y853120D02*
X804610Y834820D01*
Y758720D02*
Y834820D01*
X776110Y730220D02*
X804610Y758720D01*
X787553Y856120D02*
X807610Y836062D01*
Y757477D02*
Y836062D01*
X777353Y727220D02*
X807610Y757477D01*
X761810Y835320D02*
X774510Y822620D01*
X699053Y835320D02*
X761810D01*
X527310Y663577D02*
X699053Y835320D01*
X763053Y838320D02*
X777510Y823862D01*
X697810Y838320D02*
X763053D01*
X524310Y664820D02*
X697810Y838320D01*
X692110Y856120D02*
X787553D01*
X480810Y644820D02*
X692110Y856120D01*
X693353Y853120D02*
X786310D01*
X482053Y641820D02*
X693353Y853120D01*
X867810Y692777D02*
Y848962D01*
X813952Y902820D02*
X867810Y848962D01*
X864810Y694020D02*
Y847720D01*
X812710Y899820D02*
X864810Y847720D01*
X716953Y899820D02*
X812710D01*
X879710Y676377D02*
Y852762D01*
X821852Y910620D02*
X879710Y852762D01*
X876710Y677620D02*
Y851520D01*
X820610Y907620D02*
X876710Y851520D01*
X713552Y907620D02*
X820610D01*
X896910Y654577D02*
Y854562D01*
X832852Y918620D02*
X896910Y854562D01*
X709610Y918620D02*
X832852D01*
X893910Y655820D02*
Y853320D01*
X831610Y915620D02*
X893910Y853320D01*
X710853Y915620D02*
X831610D01*
X766352Y524020D02*
X896910Y654577D01*
X466710Y675720D02*
X709610Y918620D01*
X263067Y675720D02*
X466710D01*
X727260Y524020D02*
X766352D01*
X722410Y519170D02*
X727260Y524020D01*
X240810Y633920D02*
Y653462D01*
X263067Y675720D01*
X239310Y632420D02*
X240810Y633920D01*
X467952Y672720D02*
X710853Y915620D01*
X264310Y672720D02*
X467952D01*
X727260Y527020D02*
X765110D01*
X722410Y531870D02*
X727260Y527020D01*
X243810Y652220D02*
X264310Y672720D01*
X243810Y633920D02*
X245310Y632420D01*
X243810Y633920D02*
Y652220D01*
X765110Y527020D02*
X893910Y655820D01*
X712310Y910620D02*
X821852D01*
X469253Y663320D02*
X713552Y907620D01*
X468010Y666320D02*
X712310Y910620D01*
X289367Y666320D02*
X468010D01*
X473153Y656020D02*
X716953Y899820D01*
X715710Y902820D02*
X813952D01*
X471910Y659020D02*
X715710Y902820D01*
X348960Y659020D02*
X471910D01*
X720053Y890620D02*
X805310D01*
X477853Y648420D02*
X720053Y890620D01*
X718810Y893620D02*
X806553D01*
X476610Y651420D02*
X718810Y893620D01*
X391910Y651420D02*
X476610D01*
X290610Y663320D02*
X469253D01*
X350203Y656020D02*
X473153D01*
X300353Y606170D02*
X350203Y656020D01*
X299110Y609170D02*
X348960Y659020D01*
X393153Y648420D02*
X477853D01*
X340903Y596170D02*
X393153Y648420D01*
X339660Y599170D02*
X391910Y651420D01*
X461510Y641820D02*
X482053D01*
X456810Y637120D02*
X461510Y641820D01*
X460267Y644820D02*
X480810D01*
X453810Y638362D02*
X460267Y644820D01*
X722410Y595370D02*
X727260Y600220D01*
X750453D01*
X727260Y603220D02*
X749210D01*
X750453Y600220D02*
X853410Y703177D01*
Y846762D01*
X806553Y893620D02*
X853410Y846762D01*
X749210Y603220D02*
X850410Y704420D01*
Y845520D01*
X805310Y890620D02*
X850410Y845520D01*
X303560Y596170D02*
X340903D01*
X303560Y599170D02*
X339660D01*
X302060Y600670D02*
X303560Y599170D01*
X302060Y594670D02*
X303560Y596170D01*
X722410Y569970D02*
X727260Y574820D01*
X722410Y582670D02*
X727260Y577820D01*
Y574820D02*
X749853D01*
X727260Y577820D02*
X748610D01*
X749853Y574820D02*
X867810Y692777D01*
X748610Y577820D02*
X864810Y694020D01*
X293560Y606170D02*
X300353D01*
X293560Y609170D02*
X299110D01*
X292060Y610670D02*
X293560Y609170D01*
X292060Y604670D02*
X293560Y606170D01*
X722410Y544570D02*
X727260Y549420D01*
X722410Y557270D02*
X727260Y552420D01*
Y549420D02*
X752753D01*
X727260Y552420D02*
X751510D01*
X752753Y549420D02*
X879710Y676377D01*
X751510Y552420D02*
X876710Y677620D01*
X462810Y957650D02*
X472810D01*
X249810D02*
X259810D01*
X249810Y792650D02*
X259810D01*
X462810D02*
X472810D01*
X249810Y627650D02*
X259810D01*
X462810D02*
X472810D01*
X249810Y462650D02*
X259810D01*
X462810D02*
X472810D01*
X249810Y297649D02*
X259810D01*
X462810D02*
X472810D01*
X462810Y132649D02*
X472810D01*
X249810D02*
X259810D01*
X302060Y904670D02*
X303560Y906170D01*
X309083D01*
X302060Y910670D02*
X303560Y909170D01*
X307840D01*
X390060Y991390D01*
X1367522D01*
X309083Y906170D02*
X391303Y988390D01*
X1366280D01*
X269310Y889420D02*
X270810Y887920D01*
Y882647D02*
Y887920D01*
X273810D02*
X275310Y889420D01*
X273810Y883890D02*
Y887920D01*
Y883890D02*
X276390Y881310D01*
X270810Y882647D02*
X275147Y878310D01*
X300943D01*
X276390Y881310D02*
X299700D01*
X300943Y878310D02*
X405093Y982460D01*
X299700Y881310D02*
X403850Y985460D01*
X405093Y982460D02*
X1359160D01*
X403850Y985460D02*
X1360403D01*
X302523Y862020D02*
X416923Y976420D01*
X1344720D01*
X1360970Y653820D02*
X1392250Y685100D01*
Y962420D01*
X1366280Y988390D02*
X1392250Y962420D01*
X1395250Y683857D02*
Y963662D01*
X1362213Y650820D02*
X1395250Y683857D01*
X1367522Y991390D02*
X1395250Y963662D01*
X1362970Y679220D02*
X1383240Y699490D01*
Y958380D01*
X1359160Y982460D02*
X1383240Y958380D01*
X1386240Y698247D02*
Y959622D01*
X1364212Y676220D02*
X1386240Y698247D01*
X1360403Y985460D02*
X1386240Y959622D01*
X1344720Y976420D02*
X1375350Y945790D01*
Y730920D02*
Y945790D01*
X1321350Y704620D02*
X1349050D01*
X1375350Y730920D01*
X1316500Y709470D02*
X1321350Y704620D01*
Y679220D02*
X1362970D01*
X1321350Y676220D02*
X1364212D01*
X1316500Y684070D02*
X1321350Y679220D01*
X1316500Y671370D02*
X1321350Y676220D01*
Y653820D02*
X1360970D01*
X1321350Y650820D02*
X1362213D01*
X1316500Y658670D02*
X1321350Y653820D01*
X1316500Y645970D02*
X1321350Y650820D01*
X292060Y920670D02*
X293560Y919170D01*
X297260D01*
X375510Y997420D02*
X1376203D01*
X297260Y919170D02*
X375510Y997420D01*
X1321350Y625420D02*
X1369252D01*
X1316500Y620570D02*
X1321350Y625420D01*
X1376203Y997420D02*
X1404890Y968732D01*
X1369252Y625420D02*
X1404890Y661057D01*
Y968732D01*
X292060Y914670D02*
X293560Y916170D01*
X298503D01*
X376753Y994420D02*
X1374960D01*
X298503Y916170D02*
X376753Y994420D01*
X1316500Y633270D02*
X1321350Y628420D01*
X1368010D01*
X1401890Y662300D01*
Y967490D01*
X1374960Y994420D02*
X1401890Y967490D01*
X1321350Y193620D02*
X1325850D01*
X1321350Y196620D02*
X1327092D01*
X1316500Y188770D02*
X1321350Y193620D01*
X293560Y94170D02*
X298600D01*
X292060Y95669D02*
X293560Y94170D01*
X298600D02*
X385700Y181270D01*
X616910Y70020D02*
X1261150D01*
X505660Y181270D02*
X616910Y70020D01*
X385700Y181270D02*
X505660D01*
X1316500Y201470D02*
X1321350Y196620D01*
X292060Y89670D02*
X293560Y91170D01*
X299842D01*
X386943Y178270D01*
X615667Y67020D02*
X1262393D01*
X504417Y178270D02*
X615667Y67020D01*
X386943Y178270D02*
X504417D01*
X1262393Y67020D02*
X1336500Y141127D01*
Y187212D01*
X1327092Y196620D02*
X1336500Y187212D01*
X1261150Y70020D02*
X1333500Y142370D01*
Y185970D01*
X1325850Y193620D02*
X1333500Y185970D01*
X302060Y79669D02*
X303560Y81170D01*
X302060Y85669D02*
X303560Y84170D01*
X308700D01*
X398700Y174170D01*
X303560Y81170D02*
X309942D01*
X399943Y171170D01*
X499117D01*
X398700Y174170D02*
X500360D01*
X611910Y62620D01*
X1268350D01*
X1351400Y145670D01*
X499117Y171170D02*
X610667Y59620D01*
X1269593D01*
X1351400Y145670D02*
Y200170D01*
X1269593Y59620D02*
X1354400Y144427D01*
Y201412D01*
X1333793Y222020D02*
X1354400Y201412D01*
X1332550Y219020D02*
X1351400Y200170D01*
X1321350Y219020D02*
X1332550D01*
X1322229Y222020D02*
X1333793D01*
X1316500Y214170D02*
X1321350Y219020D01*
X1316500Y226870D02*
X1321350Y222020D01*
X491306Y165281D02*
X607067Y49520D01*
X492549Y168281D02*
X608310Y52520D01*
X1277650D01*
X607067Y49520D02*
X1278893D01*
X1277650Y52520D02*
X1360400Y135270D01*
X1278893Y49520D02*
X1363400Y134027D01*
X1360400Y135270D02*
Y225670D01*
X1363400Y134027D02*
Y226912D01*
X1341650Y244420D02*
X1360400Y225670D01*
X1321350Y244420D02*
X1341650D01*
X1342892Y247420D02*
X1363400Y226912D01*
X1322229Y247420D02*
X1342892D01*
X1316500Y239570D02*
X1321350Y244420D01*
X1316500Y252270D02*
X1321350Y247420D01*
X299600Y53970D02*
X410911Y165281D01*
X491306D01*
X298357Y56970D02*
X409668Y168281D01*
X492549D01*
X292060Y749670D02*
X293560Y751170D01*
X308242D01*
X292060Y755670D02*
X293560Y754170D01*
X307000D01*
X308242Y751170D02*
X392743Y835670D01*
X307000Y754170D02*
X391500Y838670D01*
X1019455Y658870D02*
X1024305Y654020D01*
X1019455Y684270D02*
X1024305Y679420D01*
X1019455Y709670D02*
X1024305Y704820D01*
Y628620D02*
X1078850D01*
X1024305Y625620D02*
X1080092D01*
X1019455Y633470D02*
X1024305Y628620D01*
X1019455Y620770D02*
X1024305Y625620D01*
X1078850Y628620D02*
X1097500Y647270D01*
Y888570D01*
X1100500Y646027D02*
Y889812D01*
X1080092Y625620D02*
X1100500Y646027D01*
X302060Y739670D02*
X303560Y741170D01*
X302060Y745670D02*
X303560Y744170D01*
X310800D01*
X303560Y741170D02*
X312043D01*
X398143Y827270D01*
X310800Y744170D02*
X396900Y830270D01*
X1087200Y672470D02*
Y879970D01*
X1068750Y654020D02*
X1087200Y672470D01*
X1090200Y671227D02*
Y881212D01*
X1069992Y651020D02*
X1090200Y671227D01*
X1024305Y654020D02*
X1068750D01*
X1024350Y651020D02*
X1069992D01*
X1024300Y650970D02*
X1024350Y651020D01*
X1024255Y650970D02*
X1024300D01*
X1019455Y646170D02*
X1024255Y650970D01*
X269310Y724420D02*
X270810Y722920D01*
Y718727D02*
Y722920D01*
X273810D02*
X275310Y724420D01*
X273810Y719970D02*
Y722920D01*
Y719970D02*
X278410Y715370D01*
X270810Y718727D02*
X277167Y712370D01*
X305842D01*
X278410Y715370D02*
X304600D01*
X305842Y712370D02*
X406421Y812948D01*
X304600Y715370D02*
X405179Y815948D01*
X1076100Y696770D02*
Y872070D01*
X1058750Y679420D02*
X1076100Y696770D01*
X1079100Y695527D02*
Y873312D01*
X1059992Y676420D02*
X1079100Y695527D01*
X1024305Y679420D02*
X1058750D01*
X1024305Y676420D02*
X1059992D01*
X1019455Y671570D02*
X1024305Y676420D01*
X265217Y697670D02*
X308442D01*
X415821Y805048D01*
X307200Y700670D02*
X414579Y808048D01*
X1062100Y717470D02*
Y863470D01*
X1049450Y704820D02*
X1062100Y717470D01*
X1065100Y716227D02*
Y864712D01*
X1050692Y701820D02*
X1065100Y716227D01*
X1024305Y704820D02*
X1049450D01*
X1024305Y701820D02*
X1050692D01*
X1019455Y696970D02*
X1024305Y701820D01*
X292060Y254670D02*
X293560Y256170D01*
X292060Y260670D02*
X293560Y259170D01*
X299000D01*
X293560Y256170D02*
X300243D01*
X699753Y103820D02*
X970350D01*
X1037900Y171370D01*
X698510Y100820D02*
X971592D01*
X1040900Y170127D01*
X1024305Y193820D02*
X1030750D01*
X1037900Y186670D01*
X1024305Y196820D02*
X1031993D01*
X1040900Y187912D01*
X1037900Y171370D02*
Y186670D01*
X1040900Y170127D02*
Y187912D01*
X1019455Y188970D02*
X1024305Y193820D01*
X1019455Y201670D02*
X1024305Y196820D01*
X302060Y244670D02*
X303560Y246170D01*
X302060Y250670D02*
X303560Y249170D01*
X309300D01*
X303560Y246170D02*
X310542D01*
X693967Y92620D02*
X977592D01*
X976350Y95620D02*
X1050600Y169870D01*
Y206670D01*
X1024305Y219220D02*
X1038050D01*
X1050600Y206670D01*
X1024305Y222220D02*
X1039293D01*
X1053600Y207912D01*
X1019455Y214370D02*
X1024305Y219220D01*
X1019455Y227070D02*
X1024305Y222220D01*
X977592Y92620D02*
X1053600Y168627D01*
Y207912D01*
X682367Y85820D02*
X986793D01*
X985550Y88820D02*
X1063300Y166570D01*
Y221570D01*
X986793Y85820D02*
X1066300Y165327D01*
Y222812D01*
X273810Y227920D02*
X275310Y229420D01*
X273810Y224970D02*
X276810Y221970D01*
X273810Y224970D02*
Y227920D01*
X270810Y223727D02*
Y227920D01*
Y223727D02*
X275567Y218970D01*
X269310Y229420D02*
X270810Y227920D01*
X1024305Y244620D02*
X1040250D01*
X1063300Y221570D01*
X1024305Y247620D02*
X1041493D01*
X1066300Y222812D01*
X1019455Y239770D02*
X1024305Y244620D01*
X1019455Y252470D02*
X1024305Y247620D01*
X673167Y77420D02*
X995393D01*
X994150Y80420D02*
X1073400Y159670D01*
Y240670D01*
X995393Y77420D02*
X1076400Y158427D01*
Y241912D01*
X1024305Y270020D02*
X1044050D01*
X1073400Y240670D01*
X1024305Y273020D02*
X1045293D01*
X1076400Y241912D01*
X1019455Y265170D02*
X1024305Y270020D01*
X1019455Y277870D02*
X1024305Y273020D01*
X515060Y604670D02*
X516560Y606170D01*
X515060Y610670D02*
X516560Y609170D01*
X520810D01*
X524310Y612670D01*
X516560Y606170D02*
X522053D01*
X527310Y611427D01*
X722410Y773170D02*
X727260Y778020D01*
X753252D01*
X777510Y802277D01*
Y823862D01*
X727260Y781020D02*
X752010D01*
X722410Y785870D02*
X727260Y781020D01*
X752010D02*
X774510Y803520D01*
Y822620D01*
X505060Y594670D02*
X506560Y596170D01*
X505060Y600670D02*
X506560Y599170D01*
X527060D01*
X506560Y596170D02*
X528303D01*
X527060Y599170D02*
X544510Y616620D01*
X528303Y596170D02*
X547510Y615377D01*
X745660Y826270D02*
X753010Y818920D01*
Y812120D02*
Y818920D01*
X747310Y806420D02*
X753010Y812120D01*
X746902Y829270D02*
X756010Y820162D01*
Y810877D02*
Y820162D01*
X748552Y803420D02*
X756010Y810877D01*
X727260Y806420D02*
X747310D01*
X722410Y811270D02*
X727260Y806420D01*
Y803420D02*
X748552D01*
X722410Y798570D02*
X727260Y803420D01*
X1020150Y965920D02*
X1097500Y888570D01*
X1021393Y968920D02*
X1100500Y889812D01*
X1012150Y955020D02*
X1087200Y879970D01*
X1013392Y958020D02*
X1090200Y881212D01*
X1004850Y943320D02*
X1076100Y872070D01*
X1006093Y946320D02*
X1079100Y873312D01*
X990150Y935420D02*
X1062100Y863470D01*
X991393Y938420D02*
X1065100Y864712D01*
X392743Y835670D02*
X492660D01*
X622910Y965920D01*
X1020150D01*
X391500Y838670D02*
X491417D01*
X621667Y968920D01*
X1021393D01*
X398143Y827270D02*
X493760D01*
X621510Y955020D01*
X1012150D01*
X396900Y830270D02*
X492517D01*
X620267Y958020D01*
X1013392D01*
X406421Y812948D02*
X489439D01*
X619810Y943320D01*
X1004850D01*
X405179Y815948D02*
X488196D01*
X618567Y946320D01*
X1006093D01*
X415821Y805048D02*
X493539D01*
X623910Y935420D01*
X990150D01*
X414579Y808048D02*
X492296D01*
X622667Y938420D01*
X991393D01*
X544510Y616620D02*
Y675720D01*
X698060Y829270D01*
X746902D01*
X547510Y615377D02*
Y674477D01*
X699303Y826270D01*
X745660D01*
X524310Y612670D02*
Y664820D01*
X527310Y611427D02*
Y663577D01*
X453810Y633920D02*
Y638362D01*
X456810Y633920D02*
X458310Y632420D01*
X722410Y735070D02*
X727260Y730220D01*
X776110D01*
X452310Y632420D02*
X453810Y633920D01*
X727260Y727220D02*
X777353D01*
X722410Y722370D02*
X727260Y727220D01*
X456810Y633920D02*
Y637120D01*
X722410Y608070D02*
X727260Y603220D01*
D22*
X-84727Y624420D02*
X-78927Y630220D01*
X-124528Y624420D02*
X-84727D01*
X-124528Y648420D02*
X-100227D01*
X-124528Y656420D02*
X-100227D01*
X-124528Y664420D02*
X-100227D01*
X-124528Y440420D02*
X-92038D01*
X-124528Y344420D02*
X-99528D01*
X-93228Y350720D01*
X-124528Y368420D02*
X-93028D01*
X-124528Y392420D02*
X-93028D01*
X-124528Y416420D02*
X-93028D01*
X-124528Y464420D02*
X-70020D01*
X-124528Y328420D02*
X-67828D01*
X-124528Y520420D02*
X-91427D01*
X-124528Y544420D02*
X-91427D01*
X-124528Y568420D02*
X-91427D01*
X-124528Y592420D02*
X-91427D01*
X-124528Y640420D02*
X-124327Y640220D01*
X-124528Y640420D02*
X-92028D01*
X-88628Y643820D01*
X-56828D01*
X-53927Y640920D01*
X-124528Y632420D02*
X-97227D01*
X-124528Y672420D02*
X-100227D01*
X-124528Y616420D02*
X-59690D01*
X-52190Y623919D01*
D24*
X54610Y952420D02*
D03*
X80010D02*
D03*
X105410D02*
D03*
D25*
X722410Y811270D02*
D03*
Y798570D02*
D03*
Y785870D02*
D03*
Y773170D02*
D03*
Y760470D02*
D03*
Y747770D02*
D03*
Y735070D02*
D03*
Y722370D02*
D03*
Y709670D02*
D03*
Y696970D02*
D03*
Y684270D02*
D03*
Y671570D02*
D03*
Y658870D02*
D03*
Y646170D02*
D03*
Y633470D02*
D03*
Y620770D02*
D03*
Y608070D02*
D03*
Y595370D02*
D03*
Y582670D02*
D03*
Y569970D02*
D03*
Y557270D02*
D03*
Y544570D02*
D03*
Y531870D02*
D03*
Y519170D02*
D03*
Y506470D02*
D03*
Y493770D02*
D03*
Y481070D02*
D03*
Y468370D02*
D03*
Y455670D02*
D03*
Y442970D02*
D03*
Y430270D02*
D03*
Y417570D02*
D03*
Y404870D02*
D03*
Y392170D02*
D03*
Y379470D02*
D03*
Y366770D02*
D03*
Y354070D02*
D03*
Y341370D02*
D03*
Y328670D02*
D03*
Y315970D02*
D03*
Y303270D02*
D03*
Y290570D02*
D03*
Y277870D02*
D03*
Y265170D02*
D03*
Y252470D02*
D03*
Y239770D02*
D03*
Y227070D02*
D03*
Y214370D02*
D03*
Y201670D02*
D03*
Y188970D02*
D03*
X697010Y811270D02*
D03*
Y798570D02*
D03*
Y785870D02*
D03*
Y773170D02*
D03*
Y760470D02*
D03*
Y747770D02*
D03*
Y735070D02*
D03*
Y722370D02*
D03*
Y709670D02*
D03*
Y696970D02*
D03*
Y684270D02*
D03*
Y671570D02*
D03*
Y658870D02*
D03*
Y646170D02*
D03*
Y633470D02*
D03*
Y620770D02*
D03*
Y608070D02*
D03*
Y595370D02*
D03*
Y582670D02*
D03*
Y569970D02*
D03*
Y557270D02*
D03*
Y544570D02*
D03*
Y531870D02*
D03*
Y519170D02*
D03*
Y506470D02*
D03*
Y493770D02*
D03*
Y481070D02*
D03*
Y468370D02*
D03*
Y455670D02*
D03*
Y442970D02*
D03*
Y430270D02*
D03*
Y417570D02*
D03*
Y404870D02*
D03*
Y392170D02*
D03*
Y379470D02*
D03*
Y366770D02*
D03*
Y354070D02*
D03*
Y341370D02*
D03*
Y328670D02*
D03*
Y315970D02*
D03*
Y303270D02*
D03*
Y290570D02*
D03*
Y277870D02*
D03*
Y265170D02*
D03*
Y252470D02*
D03*
Y239770D02*
D03*
Y227070D02*
D03*
Y214370D02*
D03*
Y201670D02*
D03*
X1019455Y811270D02*
D03*
Y798570D02*
D03*
Y785870D02*
D03*
Y773170D02*
D03*
Y760470D02*
D03*
Y747770D02*
D03*
Y735070D02*
D03*
Y722370D02*
D03*
Y709670D02*
D03*
Y696970D02*
D03*
Y684270D02*
D03*
Y671570D02*
D03*
Y658870D02*
D03*
Y646170D02*
D03*
Y633470D02*
D03*
Y620770D02*
D03*
Y608070D02*
D03*
Y595370D02*
D03*
Y582670D02*
D03*
Y569970D02*
D03*
Y557270D02*
D03*
Y544570D02*
D03*
Y531870D02*
D03*
Y519170D02*
D03*
Y506470D02*
D03*
Y493770D02*
D03*
Y481070D02*
D03*
Y468370D02*
D03*
Y455670D02*
D03*
Y442970D02*
D03*
Y430270D02*
D03*
Y417570D02*
D03*
Y404870D02*
D03*
Y392170D02*
D03*
Y379470D02*
D03*
Y366770D02*
D03*
Y354070D02*
D03*
Y341370D02*
D03*
Y328670D02*
D03*
Y315970D02*
D03*
Y303270D02*
D03*
Y290570D02*
D03*
Y277870D02*
D03*
Y265170D02*
D03*
Y252470D02*
D03*
Y239770D02*
D03*
Y227070D02*
D03*
Y214370D02*
D03*
Y201670D02*
D03*
Y188970D02*
D03*
X994055Y811270D02*
D03*
Y798570D02*
D03*
Y785870D02*
D03*
Y773170D02*
D03*
Y760470D02*
D03*
Y747770D02*
D03*
Y735070D02*
D03*
Y722370D02*
D03*
Y709670D02*
D03*
Y696970D02*
D03*
Y684270D02*
D03*
Y671570D02*
D03*
Y658870D02*
D03*
Y646170D02*
D03*
Y633470D02*
D03*
Y620770D02*
D03*
Y608070D02*
D03*
Y595370D02*
D03*
Y582670D02*
D03*
Y569970D02*
D03*
Y557270D02*
D03*
Y544570D02*
D03*
Y531870D02*
D03*
Y519170D02*
D03*
Y506470D02*
D03*
Y493770D02*
D03*
Y481070D02*
D03*
Y468370D02*
D03*
Y455670D02*
D03*
Y442970D02*
D03*
Y430270D02*
D03*
Y417570D02*
D03*
Y404870D02*
D03*
Y392170D02*
D03*
Y379470D02*
D03*
Y366770D02*
D03*
Y354070D02*
D03*
Y341370D02*
D03*
Y328670D02*
D03*
Y315970D02*
D03*
Y303270D02*
D03*
Y290570D02*
D03*
Y277870D02*
D03*
Y265170D02*
D03*
Y252470D02*
D03*
Y239770D02*
D03*
Y227070D02*
D03*
Y214370D02*
D03*
Y201670D02*
D03*
X1316500Y811070D02*
D03*
Y798370D02*
D03*
Y785670D02*
D03*
Y772970D02*
D03*
Y760270D02*
D03*
Y747570D02*
D03*
Y734870D02*
D03*
Y722170D02*
D03*
Y709470D02*
D03*
Y696770D02*
D03*
Y684070D02*
D03*
Y671370D02*
D03*
Y658670D02*
D03*
Y645970D02*
D03*
Y633270D02*
D03*
Y620570D02*
D03*
Y607870D02*
D03*
Y595170D02*
D03*
Y582470D02*
D03*
Y569770D02*
D03*
Y557070D02*
D03*
Y544370D02*
D03*
Y531670D02*
D03*
Y518970D02*
D03*
Y506270D02*
D03*
Y493570D02*
D03*
Y480870D02*
D03*
Y468170D02*
D03*
Y455470D02*
D03*
Y442770D02*
D03*
Y430070D02*
D03*
Y417370D02*
D03*
Y404670D02*
D03*
Y391970D02*
D03*
Y379270D02*
D03*
Y366570D02*
D03*
Y353870D02*
D03*
Y341170D02*
D03*
Y328470D02*
D03*
Y315770D02*
D03*
Y303070D02*
D03*
Y290370D02*
D03*
Y277670D02*
D03*
Y264970D02*
D03*
Y252270D02*
D03*
Y239570D02*
D03*
Y226870D02*
D03*
Y214170D02*
D03*
Y201470D02*
D03*
Y188770D02*
D03*
X1291100Y811070D02*
D03*
Y798370D02*
D03*
Y785670D02*
D03*
Y772970D02*
D03*
Y760270D02*
D03*
Y747570D02*
D03*
Y734870D02*
D03*
Y722170D02*
D03*
Y709470D02*
D03*
Y696770D02*
D03*
Y684070D02*
D03*
Y671370D02*
D03*
Y658670D02*
D03*
Y645970D02*
D03*
Y633270D02*
D03*
Y620570D02*
D03*
Y607870D02*
D03*
Y595170D02*
D03*
Y582470D02*
D03*
Y569770D02*
D03*
Y557070D02*
D03*
Y544370D02*
D03*
Y531670D02*
D03*
Y518970D02*
D03*
Y506270D02*
D03*
Y493570D02*
D03*
Y480870D02*
D03*
Y468170D02*
D03*
Y455470D02*
D03*
Y442770D02*
D03*
Y430070D02*
D03*
Y417370D02*
D03*
Y404670D02*
D03*
Y391970D02*
D03*
Y379270D02*
D03*
Y366570D02*
D03*
Y353870D02*
D03*
Y341170D02*
D03*
Y328470D02*
D03*
Y315770D02*
D03*
Y303070D02*
D03*
Y290370D02*
D03*
Y277670D02*
D03*
Y264970D02*
D03*
Y252270D02*
D03*
Y239570D02*
D03*
Y226870D02*
D03*
Y214170D02*
D03*
Y201470D02*
D03*
D26*
X697010Y188970D02*
D03*
X994055Y188970D02*
D03*
X1291100Y188770D02*
D03*
D27*
X134610Y787220D02*
D03*
Y825720D02*
D03*
X83610D02*
D03*
Y787220D02*
D03*
X470410Y97769D02*
D03*
X257410D02*
D03*
Y922770D02*
D03*
X470410D02*
D03*
X257410Y757770D02*
D03*
X470410D02*
D03*
X257410Y592770D02*
D03*
X470410D02*
D03*
X257410Y427770D02*
D03*
X470410D02*
D03*
X257410Y262770D02*
D03*
X470410D02*
D03*
X46210Y901220D02*
D03*
X101410Y601420D02*
D03*
X139410D02*
D03*
X154310Y922420D02*
D03*
X-69227Y348120D02*
D03*
X-47727D02*
D03*
X-93228Y350720D02*
D03*
X-93028Y368420D02*
D03*
Y392420D02*
D03*
Y416420D02*
D03*
X-53927Y640920D02*
D03*
X-78927Y630220D02*
D03*
X462810Y850919D02*
D03*
Y685919D02*
D03*
Y520919D02*
D03*
X462810Y356021D02*
D03*
Y191021D02*
D03*
Y26021D02*
D03*
X-48830Y425530D02*
D03*
X-48440Y440975D02*
D03*
X-48680Y456420D02*
D03*
D28*
X482310Y633420D02*
D03*
X488310D02*
D03*
X269310D02*
D03*
X275310D02*
D03*
X472310Y377920D02*
D03*
X478310D02*
D03*
X259310Y47920D02*
D03*
X265310D02*
D03*
X259310Y212920D02*
D03*
X265310D02*
D03*
X259310Y377920D02*
D03*
X265310D02*
D03*
Y542920D02*
D03*
X259310D02*
D03*
X269310Y559420D02*
D03*
X275310D02*
D03*
X259310Y707920D02*
D03*
X265310D02*
D03*
X472810Y295949D02*
D03*
X462810D02*
D03*
X302060Y429670D02*
D03*
Y435670D02*
D03*
X245310Y467420D02*
D03*
X239310D02*
D03*
X292060Y445670D02*
D03*
Y439670D02*
D03*
X302060Y409670D02*
D03*
Y415670D02*
D03*
X292060Y425670D02*
D03*
Y419670D02*
D03*
X269310Y468420D02*
D03*
X275310D02*
D03*
X292060Y584670D02*
D03*
Y590670D02*
D03*
X302060Y580670D02*
D03*
Y574670D02*
D03*
X488310Y394420D02*
D03*
X482310D02*
D03*
X505060Y419670D02*
D03*
Y425670D02*
D03*
X515060Y415670D02*
D03*
Y409670D02*
D03*
X239310Y632420D02*
D03*
X245310D02*
D03*
X302060Y594670D02*
D03*
Y600670D02*
D03*
X462810Y955950D02*
D03*
X472810D02*
D03*
X249810D02*
D03*
X259810D02*
D03*
X249810Y790950D02*
D03*
X259810D02*
D03*
X462810D02*
D03*
X472810D02*
D03*
X249810Y625950D02*
D03*
X259810D02*
D03*
X462810D02*
D03*
X472810D02*
D03*
X249810Y460950D02*
D03*
X259810D02*
D03*
X462810D02*
D03*
X472810D02*
D03*
X249810Y295949D02*
D03*
X259810D02*
D03*
X462810Y130949D02*
D03*
X472810D02*
D03*
X249810D02*
D03*
X259810D02*
D03*
X302060Y79669D02*
D03*
Y85669D02*
D03*
X292060Y95669D02*
D03*
Y89670D02*
D03*
X275310Y64419D02*
D03*
X269310D02*
D03*
Y889420D02*
D03*
X275310D02*
D03*
X292060Y914670D02*
D03*
Y920670D02*
D03*
X265310Y872920D02*
D03*
X259310D02*
D03*
X302060Y910670D02*
D03*
Y904670D02*
D03*
X269310Y394420D02*
D03*
X275310D02*
D03*
X292060Y254670D02*
D03*
Y260670D02*
D03*
X302060Y739670D02*
D03*
Y745670D02*
D03*
X292060Y755670D02*
D03*
Y749670D02*
D03*
X275310Y724420D02*
D03*
X269310D02*
D03*
X302060Y250670D02*
D03*
Y244670D02*
D03*
X275310Y229420D02*
D03*
X269310D02*
D03*
X505060Y594670D02*
D03*
Y600670D02*
D03*
X515060Y610670D02*
D03*
Y604670D02*
D03*
X292060D02*
D03*
Y610670D02*
D03*
X458310Y632420D02*
D03*
X452310D02*
D03*
D29*
X455810Y724920D02*
D03*
Y889920D02*
D03*
Y559919D02*
D03*
Y394919D02*
D03*
Y229919D02*
D03*
Y64919D02*
D03*
X242810D02*
D03*
Y229919D02*
D03*
Y394919D02*
D03*
Y559919D02*
D03*
Y724920D02*
D03*
X435810Y600170D02*
D03*
Y435170D02*
D03*
Y270170D02*
D03*
Y105169D02*
D03*
X222810D02*
D03*
Y270170D02*
D03*
Y435170D02*
D03*
Y600170D02*
D03*
Y765170D02*
D03*
X435810D02*
D03*
Y930170D02*
D03*
X223810Y921920D02*
D03*
Y426920D02*
D03*
Y261920D02*
D03*
Y96919D02*
D03*
X436810D02*
D03*
Y261920D02*
D03*
Y426920D02*
D03*
Y591920D02*
D03*
X223810D02*
D03*
Y756920D02*
D03*
X436810D02*
D03*
Y921920D02*
D03*
X-100227Y648420D02*
D03*
Y656420D02*
D03*
Y664420D02*
D03*
Y672420D02*
D03*
X426810Y243569D02*
D03*
Y249919D02*
D03*
X439810Y288919D02*
D03*
X436810Y279919D02*
D03*
X472810Y303150D02*
D03*
X426810Y237219D02*
D03*
X-92038Y440420D02*
D03*
X-70020Y464420D02*
D03*
X-97227Y632420D02*
D03*
X242810Y889920D02*
D03*
X222810Y930170D02*
D03*
X472810Y963150D02*
D03*
X439810Y948920D02*
D03*
X436810Y939920D02*
D03*
X426810Y909920D02*
D03*
Y903569D02*
D03*
Y897219D02*
D03*
X442560Y898429D02*
D03*
X213810Y579919D02*
D03*
Y243569D02*
D03*
Y78569D02*
D03*
X259810Y963150D02*
D03*
X226810Y948920D02*
D03*
X223810Y939920D02*
D03*
X213810Y909920D02*
D03*
Y903569D02*
D03*
Y897219D02*
D03*
X229560Y898429D02*
D03*
X259810Y798150D02*
D03*
X226810Y783920D02*
D03*
X223810Y774920D02*
D03*
X213810Y744920D02*
D03*
Y738569D02*
D03*
Y732219D02*
D03*
X229560Y733429D02*
D03*
X472810Y798150D02*
D03*
X439810Y783920D02*
D03*
X436810Y774920D02*
D03*
X426810Y744920D02*
D03*
Y738569D02*
D03*
Y732219D02*
D03*
X442560Y733429D02*
D03*
X259810Y633150D02*
D03*
X226810Y618919D02*
D03*
X223810Y609919D02*
D03*
X213810Y573569D02*
D03*
Y567219D02*
D03*
X229560Y568429D02*
D03*
X472810Y633150D02*
D03*
X439810Y618919D02*
D03*
X436810Y609919D02*
D03*
X426810Y579919D02*
D03*
Y573569D02*
D03*
Y567219D02*
D03*
X442560Y568429D02*
D03*
X259810Y468150D02*
D03*
X226810Y453919D02*
D03*
X223810Y444919D02*
D03*
X213810Y414919D02*
D03*
Y408569D02*
D03*
Y402219D02*
D03*
X229560Y403429D02*
D03*
X472810Y468150D02*
D03*
X439810Y453919D02*
D03*
X436810Y444919D02*
D03*
X426810Y414919D02*
D03*
Y408569D02*
D03*
Y402219D02*
D03*
X442560Y403429D02*
D03*
X259810Y303150D02*
D03*
X226810Y288919D02*
D03*
X223810Y279919D02*
D03*
X213810Y249919D02*
D03*
Y237219D02*
D03*
X229560Y238429D02*
D03*
X442560D02*
D03*
X472810Y138149D02*
D03*
X439810Y123919D02*
D03*
X436810Y114919D02*
D03*
X426810Y84919D02*
D03*
Y78569D02*
D03*
Y72219D02*
D03*
X442560Y73429D02*
D03*
X259810Y138149D02*
D03*
X226810Y123919D02*
D03*
X223810Y114919D02*
D03*
X213810Y84919D02*
D03*
Y72219D02*
D03*
X229560Y73429D02*
D03*
D30*
X482310Y85669D02*
D03*
X470310D02*
D03*
X458410Y85770D02*
D03*
Y97769D02*
D03*
X482410D02*
D03*
Y109769D02*
D03*
X470410D02*
D03*
X458410D02*
D03*
X245410D02*
D03*
X257410D02*
D03*
X269410D02*
D03*
Y97769D02*
D03*
X245410D02*
D03*
Y85770D02*
D03*
X257310Y85669D02*
D03*
X269310D02*
D03*
Y910670D02*
D03*
X257310D02*
D03*
X245410Y910770D02*
D03*
Y922770D02*
D03*
X269410D02*
D03*
Y934770D02*
D03*
X257410D02*
D03*
X245410D02*
D03*
X458410D02*
D03*
X470410D02*
D03*
X482410D02*
D03*
Y922770D02*
D03*
X458410D02*
D03*
Y910770D02*
D03*
X470310Y910670D02*
D03*
X482310D02*
D03*
X269310Y745670D02*
D03*
X257310D02*
D03*
X245410Y745770D02*
D03*
Y757770D02*
D03*
X269410D02*
D03*
Y769770D02*
D03*
X257410D02*
D03*
X245410D02*
D03*
X458410D02*
D03*
X470410D02*
D03*
X482410D02*
D03*
Y757770D02*
D03*
X458410D02*
D03*
Y745770D02*
D03*
X470310Y745670D02*
D03*
X482310D02*
D03*
X269310Y580670D02*
D03*
X257310D02*
D03*
X245410Y580770D02*
D03*
Y592770D02*
D03*
X269410D02*
D03*
Y604770D02*
D03*
X257410D02*
D03*
X245410D02*
D03*
X458410D02*
D03*
X470410D02*
D03*
X482410D02*
D03*
Y592770D02*
D03*
X458410D02*
D03*
Y580770D02*
D03*
X470310Y580670D02*
D03*
X482310D02*
D03*
X269310Y415670D02*
D03*
X257310D02*
D03*
X245410Y415770D02*
D03*
Y427770D02*
D03*
X269410D02*
D03*
Y439770D02*
D03*
X257410D02*
D03*
X245410D02*
D03*
X458410D02*
D03*
X470410D02*
D03*
X482410D02*
D03*
Y427770D02*
D03*
X458410D02*
D03*
Y415770D02*
D03*
X470310Y415670D02*
D03*
X482310D02*
D03*
X269310Y250670D02*
D03*
X257310D02*
D03*
X245410Y250770D02*
D03*
Y262770D02*
D03*
X269410D02*
D03*
Y274770D02*
D03*
X257410D02*
D03*
X245410D02*
D03*
X458410D02*
D03*
X470410D02*
D03*
X482410D02*
D03*
Y262770D02*
D03*
X458410D02*
D03*
Y250770D02*
D03*
X470310Y250670D02*
D03*
X482310D02*
D03*
X163708Y703920D02*
D03*
X179608Y703920D02*
D03*
X163708Y538920D02*
D03*
X179608Y538920D02*
D03*
X163708Y373920D02*
D03*
X179608Y373920D02*
D03*
X163708Y208920D02*
D03*
X179608Y208920D02*
D03*
X163708Y43920D02*
D03*
X179608Y43920D02*
D03*
X376708Y43920D02*
D03*
X392607Y43920D02*
D03*
X376708Y208920D02*
D03*
X392607Y208920D02*
D03*
X376708Y373920D02*
D03*
X392607Y373920D02*
D03*
X376708Y538920D02*
D03*
X392607Y538920D02*
D03*
X376708Y703920D02*
D03*
X392607Y703920D02*
D03*
X376708Y868920D02*
D03*
X392607Y868920D02*
D03*
X179709Y868920D02*
D03*
X163810Y868920D02*
D03*
X102710Y532420D02*
D03*
X-67828Y328420D02*
D03*
X-91427Y544420D02*
D03*
Y568420D02*
D03*
Y592420D02*
D03*
X21272Y744920D02*
D03*
X41653Y738569D02*
D03*
X67123Y732219D02*
D03*
Y567219D02*
D03*
X41653Y573569D02*
D03*
X21272Y579919D02*
D03*
X67123Y237219D02*
D03*
X41653Y243569D02*
D03*
X21272Y249919D02*
D03*
X67123Y72219D02*
D03*
X41653Y78569D02*
D03*
X21272Y84919D02*
D03*
D31*
X-91427Y520420D02*
D03*
X-52190Y623919D02*
D03*
D32*
X-124528Y454670D02*
Y456420D01*
D34*
X65010Y901220D02*
D03*
Y931220D02*
D03*
X95010Y901220D02*
D03*
Y931220D02*
D03*
X31710Y952420D02*
D03*
Y922420D02*
D03*
X129810Y952420D02*
D03*
Y922420D02*
D03*
D35*
X154310D01*
X108610Y901220D02*
X129810Y922420D01*
X95010Y901220D02*
X108610D01*
X31710Y905519D02*
Y922420D01*
Y905519D02*
X36010Y901220D01*
X65010D01*
Y931220D02*
X95010D01*
X80010Y931920D02*
Y952420D01*
X105410D02*
X129810D01*
X129810Y952420D01*
X31710D02*
X54610D01*
X31710D02*
X31710Y952420D01*
M02*
