G04 Layer_Color=8388736*
%FSLAX44Y44*%
%MOMM*%
G71*
G01*
G75*
%ADD20C,0.4000*%
%ADD42R,0.6000X3.6000*%
%ADD43R,3.6000X0.6000*%
%ADD44O,0.9000X0.4000*%
%ADD45O,0.4000X0.9000*%
%ADD46R,1.4032X0.9032*%
%ADD47R,2.9000X0.6500*%
%ADD48R,1.4032X1.3032*%
%ADD49R,1.0032X1.4032*%
%ADD50R,1.4032X1.0032*%
%ADD51R,0.9032X1.4032*%
%ADD52C,1.8032*%
%ADD53C,1.0932*%
%ADD54R,1.0932X1.0932*%
%ADD55C,1.5032*%
%ADD56C,0.6532*%
%ADD57C,0.7032*%
%ADD58C,0.9032*%
%ADD59C,1.2032*%
G36*
X488428Y941413D02*
X488542Y941385D01*
X488652Y941340D01*
X488752Y941278D01*
X488842Y941202D01*
X488919Y941112D01*
X488980Y941011D01*
X489025Y940902D01*
X489053Y940787D01*
X489062Y940670D01*
Y906670D01*
X489053Y906552D01*
X489039Y906492D01*
X489025Y906437D01*
X488999Y906373D01*
X488980Y906328D01*
X488980Y906328D01*
Y906328D01*
X488918Y906227D01*
X488842Y906138D01*
X486842Y904138D01*
X486752Y904061D01*
X486651Y903999D01*
X486619Y903986D01*
X486542Y903954D01*
X486428Y903927D01*
X486310Y903917D01*
X452310D01*
X452192Y903927D01*
X452077Y903954D01*
X451968Y903999D01*
X451868Y904061D01*
X451778Y904138D01*
X451701Y904228D01*
X451640Y904328D01*
X451594Y904437D01*
X451567Y904552D01*
X451558Y904670D01*
Y906670D01*
Y938670D01*
Y940670D01*
X451567Y940787D01*
X451594Y940902D01*
X451640Y941011D01*
X451701Y941112D01*
X451778Y941202D01*
X451868Y941278D01*
X451968Y941340D01*
X452077Y941385D01*
X452192Y941413D01*
X452310Y941422D01*
X488310D01*
X488428Y941413D01*
D02*
G37*
G36*
X275428D02*
X275542Y941385D01*
X275651Y941340D01*
X275752Y941278D01*
X275842Y941202D01*
X275919Y941112D01*
X275980Y941011D01*
X276025Y940902D01*
X276053Y940787D01*
X276062Y940670D01*
Y906670D01*
X276053Y906552D01*
X276039Y906492D01*
X276025Y906437D01*
X275999Y906373D01*
X275980Y906328D01*
X275980Y906328D01*
Y906328D01*
X275919Y906227D01*
X275842Y906138D01*
X273842Y904138D01*
X273752Y904061D01*
X273652Y903999D01*
X273619Y903986D01*
X273542Y903954D01*
X273428Y903927D01*
X273310Y903917D01*
X239310D01*
X239192Y903927D01*
X239077Y903954D01*
X238968Y903999D01*
X238868Y904061D01*
X238778Y904138D01*
X238701Y904228D01*
X238640Y904328D01*
X238594Y904437D01*
X238567Y904552D01*
X238558Y904670D01*
Y906670D01*
Y938670D01*
Y940670D01*
X238567Y940787D01*
X238594Y940902D01*
X238640Y941011D01*
X238701Y941112D01*
X238778Y941202D01*
X238868Y941278D01*
X238968Y941340D01*
X239077Y941385D01*
X239192Y941413D01*
X239310Y941422D01*
X275310D01*
X275428Y941413D01*
D02*
G37*
G36*
X488428Y776413D02*
X488542Y776385D01*
X488652Y776340D01*
X488752Y776278D01*
X488842Y776202D01*
X488919Y776112D01*
X488980Y776011D01*
X489025Y775902D01*
X489053Y775787D01*
X489062Y775670D01*
Y741670D01*
X489053Y741552D01*
X489039Y741492D01*
X489025Y741437D01*
X488999Y741373D01*
X488980Y741328D01*
X488980Y741328D01*
Y741328D01*
X488918Y741227D01*
X488842Y741138D01*
X486842Y739138D01*
X486752Y739061D01*
X486651Y738999D01*
X486619Y738986D01*
X486542Y738954D01*
X486428Y738927D01*
X486310Y738917D01*
X452310D01*
X452192Y738927D01*
X452077Y738954D01*
X451968Y738999D01*
X451868Y739061D01*
X451778Y739138D01*
X451701Y739228D01*
X451640Y739328D01*
X451594Y739437D01*
X451567Y739552D01*
X451558Y739670D01*
Y741670D01*
Y773670D01*
Y775670D01*
X451567Y775787D01*
X451594Y775902D01*
X451640Y776011D01*
X451701Y776112D01*
X451778Y776202D01*
X451868Y776278D01*
X451968Y776340D01*
X452077Y776385D01*
X452192Y776413D01*
X452310Y776422D01*
X488310D01*
X488428Y776413D01*
D02*
G37*
G36*
X275428D02*
X275542Y776385D01*
X275651Y776340D01*
X275752Y776278D01*
X275842Y776202D01*
X275919Y776112D01*
X275980Y776011D01*
X276025Y775902D01*
X276053Y775787D01*
X276062Y775670D01*
Y741670D01*
X276053Y741552D01*
X276039Y741492D01*
X276025Y741437D01*
X275999Y741373D01*
X275980Y741328D01*
X275980Y741328D01*
Y741328D01*
X275919Y741227D01*
X275842Y741138D01*
X273842Y739138D01*
X273752Y739061D01*
X273652Y738999D01*
X273619Y738986D01*
X273542Y738954D01*
X273428Y738927D01*
X273310Y738917D01*
X239310D01*
X239192Y738927D01*
X239077Y738954D01*
X238968Y738999D01*
X238868Y739061D01*
X238778Y739138D01*
X238701Y739228D01*
X238640Y739328D01*
X238594Y739437D01*
X238567Y739552D01*
X238558Y739670D01*
Y741670D01*
Y773670D01*
Y775670D01*
X238567Y775787D01*
X238594Y775902D01*
X238640Y776011D01*
X238701Y776112D01*
X238778Y776202D01*
X238868Y776278D01*
X238968Y776340D01*
X239077Y776385D01*
X239192Y776413D01*
X239310Y776422D01*
X275310D01*
X275428Y776413D01*
D02*
G37*
G36*
X488428Y611413D02*
X488542Y611385D01*
X488652Y611340D01*
X488752Y611278D01*
X488842Y611202D01*
X488919Y611112D01*
X488980Y611011D01*
X489025Y610902D01*
X489053Y610787D01*
X489062Y610670D01*
Y576670D01*
X489053Y576552D01*
X489039Y576492D01*
X489025Y576437D01*
X488999Y576373D01*
X488980Y576328D01*
X488980Y576328D01*
Y576328D01*
X488918Y576227D01*
X488842Y576138D01*
X486842Y574138D01*
X486752Y574061D01*
X486651Y573999D01*
X486619Y573986D01*
X486542Y573954D01*
X486428Y573927D01*
X486310Y573917D01*
X452310D01*
X452192Y573927D01*
X452077Y573954D01*
X451968Y573999D01*
X451868Y574061D01*
X451778Y574138D01*
X451701Y574227D01*
X451640Y574328D01*
X451594Y574437D01*
X451567Y574552D01*
X451558Y574670D01*
Y576670D01*
Y608670D01*
Y610670D01*
X451567Y610787D01*
X451594Y610902D01*
X451640Y611011D01*
X451701Y611112D01*
X451778Y611202D01*
X451868Y611278D01*
X451968Y611340D01*
X452077Y611385D01*
X452192Y611413D01*
X452310Y611422D01*
X488310D01*
X488428Y611413D01*
D02*
G37*
G36*
X275428D02*
X275542Y611385D01*
X275651Y611340D01*
X275752Y611278D01*
X275842Y611202D01*
X275919Y611112D01*
X275980Y611011D01*
X276025Y610902D01*
X276053Y610787D01*
X276062Y610670D01*
Y576670D01*
X276053Y576552D01*
X276039Y576492D01*
X276025Y576437D01*
X275999Y576373D01*
X275980Y576328D01*
X275980Y576328D01*
Y576328D01*
X275919Y576227D01*
X275842Y576138D01*
X273842Y574138D01*
X273752Y574061D01*
X273652Y573999D01*
X273619Y573986D01*
X273542Y573954D01*
X273428Y573927D01*
X273310Y573917D01*
X239310D01*
X239192Y573927D01*
X239077Y573954D01*
X238968Y573999D01*
X238868Y574061D01*
X238778Y574138D01*
X238701Y574227D01*
X238640Y574328D01*
X238594Y574437D01*
X238567Y574552D01*
X238558Y574670D01*
Y576670D01*
Y608670D01*
Y610670D01*
X238567Y610787D01*
X238594Y610902D01*
X238640Y611011D01*
X238701Y611112D01*
X238778Y611202D01*
X238868Y611278D01*
X238968Y611340D01*
X239077Y611385D01*
X239192Y611413D01*
X239310Y611422D01*
X275310D01*
X275428Y611413D01*
D02*
G37*
G36*
X488428Y446413D02*
X488542Y446385D01*
X488652Y446340D01*
X488752Y446278D01*
X488842Y446202D01*
X488919Y446112D01*
X488980Y446011D01*
X489025Y445902D01*
X489053Y445787D01*
X489062Y445670D01*
Y411670D01*
X489053Y411552D01*
X489039Y411492D01*
X489025Y411437D01*
X488999Y411373D01*
X488980Y411328D01*
X488980Y411328D01*
Y411328D01*
X488918Y411227D01*
X488842Y411138D01*
X486842Y409138D01*
X486752Y409061D01*
X486651Y408999D01*
X486619Y408986D01*
X486542Y408954D01*
X486428Y408927D01*
X486310Y408917D01*
X452310D01*
X452192Y408927D01*
X452077Y408954D01*
X451968Y408999D01*
X451868Y409061D01*
X451778Y409138D01*
X451701Y409227D01*
X451640Y409328D01*
X451594Y409437D01*
X451567Y409552D01*
X451558Y409670D01*
Y411670D01*
Y443670D01*
Y445670D01*
X451567Y445787D01*
X451594Y445902D01*
X451640Y446011D01*
X451701Y446112D01*
X451778Y446202D01*
X451868Y446278D01*
X451968Y446340D01*
X452077Y446385D01*
X452192Y446413D01*
X452310Y446422D01*
X488310D01*
X488428Y446413D01*
D02*
G37*
G36*
X275428D02*
X275542Y446385D01*
X275651Y446340D01*
X275752Y446278D01*
X275842Y446202D01*
X275919Y446112D01*
X275980Y446011D01*
X276025Y445902D01*
X276053Y445787D01*
X276062Y445670D01*
Y411670D01*
X276053Y411552D01*
X276039Y411492D01*
X276025Y411437D01*
X275999Y411373D01*
X275980Y411328D01*
X275980Y411328D01*
Y411328D01*
X275919Y411227D01*
X275842Y411138D01*
X273842Y409138D01*
X273752Y409061D01*
X273652Y408999D01*
X273619Y408986D01*
X273542Y408954D01*
X273428Y408927D01*
X273310Y408917D01*
X239310D01*
X239192Y408927D01*
X239077Y408954D01*
X238968Y408999D01*
X238868Y409061D01*
X238778Y409138D01*
X238701Y409227D01*
X238640Y409328D01*
X238594Y409437D01*
X238567Y409552D01*
X238558Y409670D01*
Y411670D01*
Y443670D01*
Y445670D01*
X238567Y445787D01*
X238594Y445902D01*
X238640Y446011D01*
X238701Y446112D01*
X238778Y446202D01*
X238868Y446278D01*
X238968Y446340D01*
X239077Y446385D01*
X239192Y446413D01*
X239310Y446422D01*
X275310D01*
X275428Y446413D01*
D02*
G37*
G36*
X488428Y281413D02*
X488542Y281385D01*
X488652Y281340D01*
X488752Y281278D01*
X488842Y281201D01*
X488919Y281112D01*
X488980Y281011D01*
X489025Y280902D01*
X489053Y280787D01*
X489062Y280669D01*
Y246670D01*
X489053Y246552D01*
X489039Y246492D01*
X489025Y246437D01*
X488999Y246373D01*
X488980Y246328D01*
X488980Y246328D01*
Y246328D01*
X488918Y246227D01*
X488842Y246138D01*
X486842Y244138D01*
X486752Y244061D01*
X486651Y243999D01*
X486619Y243986D01*
X486542Y243954D01*
X486428Y243927D01*
X486310Y243917D01*
X452310D01*
X452192Y243927D01*
X452077Y243954D01*
X451968Y243999D01*
X451868Y244061D01*
X451778Y244138D01*
X451701Y244227D01*
X451640Y244328D01*
X451594Y244437D01*
X451567Y244552D01*
X451558Y244670D01*
Y246670D01*
Y278669D01*
Y280669D01*
X451567Y280787D01*
X451594Y280902D01*
X451640Y281011D01*
X451701Y281112D01*
X451778Y281201D01*
X451868Y281278D01*
X451968Y281340D01*
X452077Y281385D01*
X452192Y281413D01*
X452310Y281422D01*
X488310D01*
X488428Y281413D01*
D02*
G37*
G36*
X275428D02*
X275542Y281385D01*
X275651Y281340D01*
X275752Y281278D01*
X275842Y281201D01*
X275919Y281112D01*
X275980Y281011D01*
X276025Y280902D01*
X276053Y280787D01*
X276062Y280669D01*
Y246670D01*
X276053Y246552D01*
X276039Y246492D01*
X276025Y246437D01*
X275999Y246373D01*
X275980Y246328D01*
X275980Y246328D01*
Y246328D01*
X275919Y246227D01*
X275842Y246138D01*
X273842Y244138D01*
X273752Y244061D01*
X273652Y243999D01*
X273619Y243986D01*
X273542Y243954D01*
X273428Y243927D01*
X273310Y243917D01*
X239310D01*
X239192Y243927D01*
X239077Y243954D01*
X238968Y243999D01*
X238868Y244061D01*
X238778Y244138D01*
X238701Y244227D01*
X238640Y244328D01*
X238594Y244437D01*
X238567Y244552D01*
X238558Y244670D01*
Y246670D01*
Y278669D01*
Y280669D01*
X238567Y280787D01*
X238594Y280902D01*
X238640Y281011D01*
X238701Y281112D01*
X238778Y281201D01*
X238868Y281278D01*
X238968Y281340D01*
X239077Y281385D01*
X239192Y281413D01*
X239310Y281422D01*
X275310D01*
X275428Y281413D01*
D02*
G37*
G36*
X488428Y116412D02*
X488542Y116385D01*
X488652Y116340D01*
X488752Y116278D01*
X488842Y116201D01*
X488919Y116112D01*
X488980Y116011D01*
X489025Y115902D01*
X489053Y115787D01*
X489062Y115669D01*
Y81670D01*
X489053Y81552D01*
X489039Y81492D01*
X489025Y81437D01*
X488999Y81373D01*
X488980Y81328D01*
X488980Y81328D01*
Y81328D01*
X488918Y81227D01*
X488842Y81138D01*
X486842Y79138D01*
X486752Y79061D01*
X486651Y78999D01*
X486619Y78986D01*
X486542Y78954D01*
X486428Y78926D01*
X486310Y78917D01*
X452310D01*
X452192Y78927D01*
X452077Y78954D01*
X451968Y78999D01*
X451868Y79061D01*
X451778Y79138D01*
X451701Y79227D01*
X451640Y79328D01*
X451594Y79437D01*
X451567Y79552D01*
X451558Y79669D01*
Y81670D01*
Y113670D01*
Y115669D01*
X451567Y115787D01*
X451594Y115902D01*
X451640Y116011D01*
X451701Y116112D01*
X451778Y116201D01*
X451868Y116278D01*
X451968Y116340D01*
X452077Y116385D01*
X452192Y116412D01*
X452310Y116422D01*
X488310D01*
X488428Y116412D01*
D02*
G37*
G36*
X275428D02*
X275542Y116385D01*
X275651Y116340D01*
X275752Y116278D01*
X275842Y116201D01*
X275919Y116112D01*
X275980Y116011D01*
X276025Y115902D01*
X276053Y115787D01*
X276062Y115669D01*
Y81670D01*
X276053Y81552D01*
X276039Y81492D01*
X276025Y81437D01*
X275999Y81373D01*
X275980Y81328D01*
X275980Y81328D01*
Y81328D01*
X275919Y81227D01*
X275842Y81138D01*
X273842Y79138D01*
X273752Y79061D01*
X273652Y78999D01*
X273619Y78986D01*
X273542Y78954D01*
X273428Y78926D01*
X273310Y78917D01*
X239310D01*
X239192Y78927D01*
X239077Y78954D01*
X238968Y78999D01*
X238868Y79061D01*
X238778Y79138D01*
X238701Y79227D01*
X238640Y79328D01*
X238594Y79437D01*
X238567Y79552D01*
X238558Y79669D01*
Y81670D01*
Y113670D01*
Y115669D01*
X238567Y115787D01*
X238594Y115902D01*
X238640Y116011D01*
X238701Y116112D01*
X238778Y116201D01*
X238868Y116278D01*
X238968Y116340D01*
X239077Y116385D01*
X239192Y116412D01*
X239310Y116422D01*
X275310D01*
X275428Y116412D01*
D02*
G37*
%LPC*%
G36*
X485558Y937917D02*
X455062Y937917D01*
X455062Y907422D01*
X485558Y907422D01*
X485558Y937917D01*
D02*
G37*
G36*
X272558D02*
X242062Y937917D01*
X242062Y907422D01*
X272558Y907422D01*
X272558Y937917D01*
D02*
G37*
G36*
X485558Y772917D02*
X455062Y772917D01*
X455062Y742422D01*
X485558Y742422D01*
X485558Y772917D01*
D02*
G37*
G36*
X272558D02*
X242062Y772917D01*
X242062Y742422D01*
X272558Y742422D01*
X272558Y772917D01*
D02*
G37*
G36*
X485558Y607917D02*
X455062Y607917D01*
X455062Y577422D01*
X485558Y577422D01*
X485558Y607917D01*
D02*
G37*
G36*
X272558D02*
X242062Y607917D01*
X242062Y577422D01*
X272558Y577422D01*
X272558Y607917D01*
D02*
G37*
G36*
X485558Y442917D02*
X455062Y442917D01*
X455062Y412422D01*
X485558Y412422D01*
X485558Y442917D01*
D02*
G37*
G36*
X272558D02*
X242062Y442917D01*
X242062Y412422D01*
X272558Y412422D01*
X272558Y442917D01*
D02*
G37*
G36*
X485558Y277917D02*
X455062Y277917D01*
X455062Y247422D01*
X485558Y247422D01*
X485558Y277917D01*
D02*
G37*
G36*
X272558D02*
X242062Y277917D01*
X242062Y247422D01*
X272558Y247422D01*
X272558Y277917D01*
D02*
G37*
G36*
X485558Y112917D02*
X455062Y112917D01*
X455062Y82422D01*
X485558Y82422D01*
X485558Y112917D01*
D02*
G37*
G36*
X272558D02*
X242062Y112917D01*
X242062Y82422D01*
X272558Y82422D01*
X272558Y112917D01*
D02*
G37*
%LPD*%
D20*
X462310Y97669D02*
G03*
X462310Y97669I-4000J0D01*
G01*
X474310Y85669D02*
G03*
X474310Y85669I-4000J0D01*
G01*
X486310Y97669D02*
G03*
X486310Y97669I-4000J0D01*
G01*
Y85669D02*
G03*
X486310Y85669I-4000J0D01*
G01*
X462310D02*
G03*
X462310Y85669I-4000J0D01*
G01*
X474310Y97669D02*
G03*
X474310Y97669I-4000J0D01*
G01*
X486310Y109670D02*
G03*
X486310Y109670I-4000J0D01*
G01*
X474310D02*
G03*
X474310Y109670I-4000J0D01*
G01*
X462310D02*
G03*
X462310Y109670I-4000J0D01*
G01*
X249310D02*
G03*
X249310Y109670I-4000J0D01*
G01*
X261310D02*
G03*
X261310Y109670I-4000J0D01*
G01*
X273310D02*
G03*
X273310Y109670I-4000J0D01*
G01*
X261310Y97669D02*
G03*
X261310Y97669I-4000J0D01*
G01*
X249310Y85669D02*
G03*
X249310Y85669I-4000J0D01*
G01*
X273310D02*
G03*
X273310Y85669I-4000J0D01*
G01*
Y97669D02*
G03*
X273310Y97669I-4000J0D01*
G01*
X261310Y85669D02*
G03*
X261310Y85669I-4000J0D01*
G01*
X249310Y97669D02*
G03*
X249310Y97669I-4000J0D01*
G01*
Y922670D02*
G03*
X249310Y922670I-4000J0D01*
G01*
X261310Y910670D02*
G03*
X261310Y910670I-4000J0D01*
G01*
X273310Y922670D02*
G03*
X273310Y922670I-4000J0D01*
G01*
Y910670D02*
G03*
X273310Y910670I-4000J0D01*
G01*
X249310D02*
G03*
X249310Y910670I-4000J0D01*
G01*
X261310Y922670D02*
G03*
X261310Y922670I-4000J0D01*
G01*
X273310Y934670D02*
G03*
X273310Y934670I-4000J0D01*
G01*
X261310D02*
G03*
X261310Y934670I-4000J0D01*
G01*
X249310D02*
G03*
X249310Y934670I-4000J0D01*
G01*
X462310D02*
G03*
X462310Y934670I-4000J0D01*
G01*
X474310D02*
G03*
X474310Y934670I-4000J0D01*
G01*
X486310D02*
G03*
X486310Y934670I-4000J0D01*
G01*
X474310Y922670D02*
G03*
X474310Y922670I-4000J0D01*
G01*
X462310Y910670D02*
G03*
X462310Y910670I-4000J0D01*
G01*
X486310D02*
G03*
X486310Y910670I-4000J0D01*
G01*
Y922670D02*
G03*
X486310Y922670I-4000J0D01*
G01*
X474310Y910670D02*
G03*
X474310Y910670I-4000J0D01*
G01*
X462310Y922670D02*
G03*
X462310Y922670I-4000J0D01*
G01*
X249310Y757670D02*
G03*
X249310Y757670I-4000J0D01*
G01*
X261310Y745670D02*
G03*
X261310Y745670I-4000J0D01*
G01*
X273310Y757670D02*
G03*
X273310Y757670I-4000J0D01*
G01*
Y745670D02*
G03*
X273310Y745670I-4000J0D01*
G01*
X249310D02*
G03*
X249310Y745670I-4000J0D01*
G01*
X261310Y757670D02*
G03*
X261310Y757670I-4000J0D01*
G01*
X273310Y769670D02*
G03*
X273310Y769670I-4000J0D01*
G01*
X261310D02*
G03*
X261310Y769670I-4000J0D01*
G01*
X249310D02*
G03*
X249310Y769670I-4000J0D01*
G01*
X462310D02*
G03*
X462310Y769670I-4000J0D01*
G01*
X474310D02*
G03*
X474310Y769670I-4000J0D01*
G01*
X486310D02*
G03*
X486310Y769670I-4000J0D01*
G01*
X474310Y757670D02*
G03*
X474310Y757670I-4000J0D01*
G01*
X462310Y745670D02*
G03*
X462310Y745670I-4000J0D01*
G01*
X486310D02*
G03*
X486310Y745670I-4000J0D01*
G01*
Y757670D02*
G03*
X486310Y757670I-4000J0D01*
G01*
X474310Y745670D02*
G03*
X474310Y745670I-4000J0D01*
G01*
X462310Y757670D02*
G03*
X462310Y757670I-4000J0D01*
G01*
X249310Y592670D02*
G03*
X249310Y592670I-4000J0D01*
G01*
X261310Y580670D02*
G03*
X261310Y580670I-4000J0D01*
G01*
X273310Y592670D02*
G03*
X273310Y592670I-4000J0D01*
G01*
Y580670D02*
G03*
X273310Y580670I-4000J0D01*
G01*
X249310D02*
G03*
X249310Y580670I-4000J0D01*
G01*
X261310Y592670D02*
G03*
X261310Y592670I-4000J0D01*
G01*
X273310Y604670D02*
G03*
X273310Y604670I-4000J0D01*
G01*
X261310D02*
G03*
X261310Y604670I-4000J0D01*
G01*
X249310D02*
G03*
X249310Y604670I-4000J0D01*
G01*
X462310D02*
G03*
X462310Y604670I-4000J0D01*
G01*
X474310D02*
G03*
X474310Y604670I-4000J0D01*
G01*
X486310D02*
G03*
X486310Y604670I-4000J0D01*
G01*
X474310Y592670D02*
G03*
X474310Y592670I-4000J0D01*
G01*
X462310Y580670D02*
G03*
X462310Y580670I-4000J0D01*
G01*
X486310D02*
G03*
X486310Y580670I-4000J0D01*
G01*
Y592670D02*
G03*
X486310Y592670I-4000J0D01*
G01*
X474310Y580670D02*
G03*
X474310Y580670I-4000J0D01*
G01*
X462310Y592670D02*
G03*
X462310Y592670I-4000J0D01*
G01*
X249310Y427670D02*
G03*
X249310Y427670I-4000J0D01*
G01*
X261310Y415670D02*
G03*
X261310Y415670I-4000J0D01*
G01*
X273310Y427670D02*
G03*
X273310Y427670I-4000J0D01*
G01*
Y415670D02*
G03*
X273310Y415670I-4000J0D01*
G01*
X249310D02*
G03*
X249310Y415670I-4000J0D01*
G01*
X261310Y427670D02*
G03*
X261310Y427670I-4000J0D01*
G01*
X273310Y439670D02*
G03*
X273310Y439670I-4000J0D01*
G01*
X261310D02*
G03*
X261310Y439670I-4000J0D01*
G01*
X249310D02*
G03*
X249310Y439670I-4000J0D01*
G01*
X462310D02*
G03*
X462310Y439670I-4000J0D01*
G01*
X474310D02*
G03*
X474310Y439670I-4000J0D01*
G01*
X486310D02*
G03*
X486310Y439670I-4000J0D01*
G01*
X474310Y427670D02*
G03*
X474310Y427670I-4000J0D01*
G01*
X462310Y415670D02*
G03*
X462310Y415670I-4000J0D01*
G01*
X486310D02*
G03*
X486310Y415670I-4000J0D01*
G01*
Y427670D02*
G03*
X486310Y427670I-4000J0D01*
G01*
X474310Y415670D02*
G03*
X474310Y415670I-4000J0D01*
G01*
X462310Y427670D02*
G03*
X462310Y427670I-4000J0D01*
G01*
X249310Y262670D02*
G03*
X249310Y262670I-4000J0D01*
G01*
X261310Y250670D02*
G03*
X261310Y250670I-4000J0D01*
G01*
X273310Y262670D02*
G03*
X273310Y262670I-4000J0D01*
G01*
Y250670D02*
G03*
X273310Y250670I-4000J0D01*
G01*
X249310D02*
G03*
X249310Y250670I-4000J0D01*
G01*
X261310Y262670D02*
G03*
X261310Y262670I-4000J0D01*
G01*
X273310Y274670D02*
G03*
X273310Y274670I-4000J0D01*
G01*
X261310D02*
G03*
X261310Y274670I-4000J0D01*
G01*
X249310D02*
G03*
X249310Y274670I-4000J0D01*
G01*
X462310D02*
G03*
X462310Y274670I-4000J0D01*
G01*
X474310D02*
G03*
X474310Y274670I-4000J0D01*
G01*
X486310D02*
G03*
X486310Y274670I-4000J0D01*
G01*
X474310Y262670D02*
G03*
X474310Y262670I-4000J0D01*
G01*
X462310Y250670D02*
G03*
X462310Y250670I-4000J0D01*
G01*
X486310D02*
G03*
X486310Y250670I-4000J0D01*
G01*
Y262670D02*
G03*
X486310Y262670I-4000J0D01*
G01*
X474310Y250670D02*
G03*
X474310Y250670I-4000J0D01*
G01*
X462310Y262670D02*
G03*
X462310Y262670I-4000J0D01*
G01*
D42*
X476310Y97669D02*
D03*
X464310D02*
D03*
X251310D02*
D03*
X263310D02*
D03*
Y922670D02*
D03*
X251310D02*
D03*
X464310D02*
D03*
X476310D02*
D03*
X263310Y757670D02*
D03*
X251310D02*
D03*
X464310D02*
D03*
X476310D02*
D03*
X263310Y592670D02*
D03*
X251310D02*
D03*
X464310D02*
D03*
X476310D02*
D03*
X263310Y427670D02*
D03*
X251310D02*
D03*
X464310D02*
D03*
X476310D02*
D03*
X263310Y262670D02*
D03*
X251310D02*
D03*
X464310D02*
D03*
X476310D02*
D03*
D43*
X470310Y91669D02*
D03*
Y103670D02*
D03*
X257310D02*
D03*
Y91669D02*
D03*
Y916670D02*
D03*
Y928670D02*
D03*
X470310D02*
D03*
Y916670D02*
D03*
X257310Y751670D02*
D03*
Y763670D02*
D03*
X470310D02*
D03*
Y751670D02*
D03*
X257310Y586670D02*
D03*
Y598670D02*
D03*
X470310D02*
D03*
Y586670D02*
D03*
X257310Y421670D02*
D03*
Y433670D02*
D03*
X470310D02*
D03*
Y421670D02*
D03*
X257310Y256670D02*
D03*
Y268669D02*
D03*
X470310D02*
D03*
Y256670D02*
D03*
D44*
X495060Y85169D02*
D03*
Y90169D02*
D03*
Y95169D02*
D03*
Y100169D02*
D03*
Y105169D02*
D03*
Y110169D02*
D03*
Y80169D02*
D03*
Y115169D02*
D03*
X445560D02*
D03*
Y110169D02*
D03*
Y105169D02*
D03*
Y100169D02*
D03*
Y95169D02*
D03*
Y90169D02*
D03*
Y85169D02*
D03*
Y80169D02*
D03*
X232560D02*
D03*
Y85169D02*
D03*
Y90169D02*
D03*
Y95169D02*
D03*
Y100169D02*
D03*
Y105169D02*
D03*
Y110169D02*
D03*
Y115169D02*
D03*
X282060D02*
D03*
Y80169D02*
D03*
Y110169D02*
D03*
Y105169D02*
D03*
Y100169D02*
D03*
Y95169D02*
D03*
Y90169D02*
D03*
Y85169D02*
D03*
Y910170D02*
D03*
Y915170D02*
D03*
Y920170D02*
D03*
Y925170D02*
D03*
Y930170D02*
D03*
Y935170D02*
D03*
Y905170D02*
D03*
Y940170D02*
D03*
X232560D02*
D03*
Y935170D02*
D03*
Y930170D02*
D03*
Y925170D02*
D03*
Y920170D02*
D03*
Y915170D02*
D03*
Y910170D02*
D03*
Y905170D02*
D03*
X445560D02*
D03*
Y910170D02*
D03*
Y915170D02*
D03*
Y920170D02*
D03*
Y925170D02*
D03*
Y930170D02*
D03*
Y935170D02*
D03*
Y940170D02*
D03*
X495060D02*
D03*
Y905170D02*
D03*
Y935170D02*
D03*
Y930170D02*
D03*
Y925170D02*
D03*
Y920170D02*
D03*
Y915170D02*
D03*
Y910170D02*
D03*
X282060Y745170D02*
D03*
Y750170D02*
D03*
Y755170D02*
D03*
Y760170D02*
D03*
Y765170D02*
D03*
Y770170D02*
D03*
Y740170D02*
D03*
Y775170D02*
D03*
X232560D02*
D03*
Y770170D02*
D03*
Y765170D02*
D03*
Y760170D02*
D03*
Y755170D02*
D03*
Y750170D02*
D03*
Y745170D02*
D03*
Y740170D02*
D03*
X445560D02*
D03*
Y745170D02*
D03*
Y750170D02*
D03*
Y755170D02*
D03*
Y760170D02*
D03*
Y765170D02*
D03*
Y770170D02*
D03*
Y775170D02*
D03*
X495060D02*
D03*
Y740170D02*
D03*
Y770170D02*
D03*
Y765170D02*
D03*
Y760170D02*
D03*
Y755170D02*
D03*
Y750170D02*
D03*
Y745170D02*
D03*
X282060Y580170D02*
D03*
Y585170D02*
D03*
Y590170D02*
D03*
Y595170D02*
D03*
Y600170D02*
D03*
Y605170D02*
D03*
Y575170D02*
D03*
Y610170D02*
D03*
X232560D02*
D03*
Y605170D02*
D03*
Y600170D02*
D03*
Y595170D02*
D03*
Y590170D02*
D03*
Y585170D02*
D03*
Y580170D02*
D03*
Y575170D02*
D03*
X445560D02*
D03*
Y580170D02*
D03*
Y585170D02*
D03*
Y590170D02*
D03*
Y595170D02*
D03*
Y600170D02*
D03*
Y605170D02*
D03*
Y610170D02*
D03*
X495060D02*
D03*
Y575170D02*
D03*
Y605170D02*
D03*
Y600170D02*
D03*
Y595170D02*
D03*
Y590170D02*
D03*
Y585170D02*
D03*
Y580170D02*
D03*
X282060Y415170D02*
D03*
Y420170D02*
D03*
Y425170D02*
D03*
Y430170D02*
D03*
Y435170D02*
D03*
Y440170D02*
D03*
Y410170D02*
D03*
Y445170D02*
D03*
X232560D02*
D03*
Y440170D02*
D03*
Y435170D02*
D03*
Y430170D02*
D03*
Y425170D02*
D03*
Y420170D02*
D03*
Y415170D02*
D03*
Y410170D02*
D03*
X445560D02*
D03*
Y415170D02*
D03*
Y420170D02*
D03*
Y425170D02*
D03*
Y430170D02*
D03*
Y435170D02*
D03*
Y440170D02*
D03*
Y445170D02*
D03*
X495060D02*
D03*
Y410170D02*
D03*
Y440170D02*
D03*
Y435170D02*
D03*
Y430170D02*
D03*
Y425170D02*
D03*
Y420170D02*
D03*
Y415170D02*
D03*
X282060Y250170D02*
D03*
Y255170D02*
D03*
Y260170D02*
D03*
Y265170D02*
D03*
Y270170D02*
D03*
Y275170D02*
D03*
Y245170D02*
D03*
Y280170D02*
D03*
X232560D02*
D03*
Y275170D02*
D03*
Y270170D02*
D03*
Y265170D02*
D03*
Y260170D02*
D03*
Y255170D02*
D03*
Y250170D02*
D03*
Y245170D02*
D03*
X445560D02*
D03*
Y250170D02*
D03*
Y255170D02*
D03*
Y260170D02*
D03*
Y265170D02*
D03*
Y270170D02*
D03*
Y275170D02*
D03*
Y280170D02*
D03*
X495060D02*
D03*
Y245170D02*
D03*
Y275170D02*
D03*
Y270170D02*
D03*
Y265170D02*
D03*
Y260170D02*
D03*
Y255170D02*
D03*
Y250170D02*
D03*
D45*
X487810Y122420D02*
D03*
X482810D02*
D03*
X477810D02*
D03*
X472810D02*
D03*
X467810D02*
D03*
X462810D02*
D03*
X457810D02*
D03*
X452810D02*
D03*
Y72920D02*
D03*
X457810D02*
D03*
X462810D02*
D03*
X467810D02*
D03*
X472810D02*
D03*
X477810D02*
D03*
X482810D02*
D03*
X487810D02*
D03*
X274810D02*
D03*
X269810D02*
D03*
X264810D02*
D03*
X259810D02*
D03*
X254810D02*
D03*
X249810D02*
D03*
X244810D02*
D03*
X239810D02*
D03*
Y122420D02*
D03*
X244810D02*
D03*
X249810D02*
D03*
X254810D02*
D03*
X259810D02*
D03*
X264810D02*
D03*
X269810D02*
D03*
X274810D02*
D03*
Y947420D02*
D03*
X269810D02*
D03*
X264810D02*
D03*
X259810D02*
D03*
X254810D02*
D03*
X249810D02*
D03*
X244810D02*
D03*
X239810D02*
D03*
Y897920D02*
D03*
X244810D02*
D03*
X249810D02*
D03*
X254810D02*
D03*
X259810D02*
D03*
X264810D02*
D03*
X269810D02*
D03*
X274810D02*
D03*
X487810D02*
D03*
X482810D02*
D03*
X477810D02*
D03*
X472810D02*
D03*
X467810D02*
D03*
X462810D02*
D03*
X457810D02*
D03*
X452810D02*
D03*
Y947420D02*
D03*
X457810D02*
D03*
X462810D02*
D03*
X467810D02*
D03*
X472810D02*
D03*
X477810D02*
D03*
X482810D02*
D03*
X487810D02*
D03*
X274810Y782420D02*
D03*
X269810D02*
D03*
X264810D02*
D03*
X259810D02*
D03*
X254810D02*
D03*
X249810D02*
D03*
X244810D02*
D03*
X239810D02*
D03*
Y732920D02*
D03*
X244810D02*
D03*
X249810D02*
D03*
X254810D02*
D03*
X259810D02*
D03*
X264810D02*
D03*
X269810D02*
D03*
X274810D02*
D03*
X487810D02*
D03*
X482810D02*
D03*
X477810D02*
D03*
X472810D02*
D03*
X467810D02*
D03*
X462810D02*
D03*
X457810D02*
D03*
X452810D02*
D03*
Y782420D02*
D03*
X457810D02*
D03*
X462810D02*
D03*
X467810D02*
D03*
X472810D02*
D03*
X477810D02*
D03*
X482810D02*
D03*
X487810D02*
D03*
X274810Y617420D02*
D03*
X269810D02*
D03*
X264810D02*
D03*
X259810D02*
D03*
X254810D02*
D03*
X249810D02*
D03*
X244810D02*
D03*
X239810D02*
D03*
Y567920D02*
D03*
X244810D02*
D03*
X249810D02*
D03*
X254810D02*
D03*
X259810D02*
D03*
X264810D02*
D03*
X269810D02*
D03*
X274810D02*
D03*
X487810D02*
D03*
X482810D02*
D03*
X477810D02*
D03*
X472810D02*
D03*
X467810D02*
D03*
X462810D02*
D03*
X457810D02*
D03*
X452810D02*
D03*
Y617420D02*
D03*
X457810D02*
D03*
X462810D02*
D03*
X467810D02*
D03*
X472810D02*
D03*
X477810D02*
D03*
X482810D02*
D03*
X487810D02*
D03*
X274810Y452420D02*
D03*
X269810D02*
D03*
X264810D02*
D03*
X259810D02*
D03*
X254810D02*
D03*
X249810D02*
D03*
X244810D02*
D03*
X239810D02*
D03*
Y402920D02*
D03*
X244810D02*
D03*
X249810D02*
D03*
X254810D02*
D03*
X259810D02*
D03*
X264810D02*
D03*
X269810D02*
D03*
X274810D02*
D03*
X487810D02*
D03*
X482810D02*
D03*
X477810D02*
D03*
X472810D02*
D03*
X467810D02*
D03*
X462810D02*
D03*
X457810D02*
D03*
X452810D02*
D03*
Y452420D02*
D03*
X457810D02*
D03*
X462810D02*
D03*
X467810D02*
D03*
X472810D02*
D03*
X477810D02*
D03*
X482810D02*
D03*
X487810D02*
D03*
X274810Y287420D02*
D03*
X269810D02*
D03*
X264810D02*
D03*
X259810D02*
D03*
X254810D02*
D03*
X249810D02*
D03*
X244810D02*
D03*
X239810D02*
D03*
Y237920D02*
D03*
X244810D02*
D03*
X249810D02*
D03*
X254810D02*
D03*
X259810D02*
D03*
X264810D02*
D03*
X269810D02*
D03*
X274810D02*
D03*
X487810D02*
D03*
X482810D02*
D03*
X477810D02*
D03*
X472810D02*
D03*
X467810D02*
D03*
X462810D02*
D03*
X457810D02*
D03*
X452810D02*
D03*
Y287420D02*
D03*
X457810D02*
D03*
X462810D02*
D03*
X467810D02*
D03*
X472810D02*
D03*
X477810D02*
D03*
X482810D02*
D03*
X487810D02*
D03*
D46*
X121110Y548520D02*
D03*
Y532520D02*
D03*
X-26228Y378820D02*
D03*
Y362820D02*
D03*
X-69227Y362820D02*
D03*
Y378820D02*
D03*
X-47727Y362820D02*
D03*
Y378820D02*
D03*
X83010Y548520D02*
D03*
Y532520D02*
D03*
X249810Y863920D02*
D03*
Y879920D02*
D03*
X462810Y863920D02*
D03*
Y879920D02*
D03*
X249810Y714920D02*
D03*
Y698920D02*
D03*
X462810Y714920D02*
D03*
Y698920D02*
D03*
X249810Y549920D02*
D03*
Y533920D02*
D03*
X462810Y549920D02*
D03*
Y533920D02*
D03*
X249810Y384920D02*
D03*
Y368920D02*
D03*
X462810Y384920D02*
D03*
Y368920D02*
D03*
X249810Y219920D02*
D03*
Y203920D02*
D03*
X462810Y219920D02*
D03*
Y203920D02*
D03*
Y38920D02*
D03*
Y54920D02*
D03*
X249810Y38920D02*
D03*
Y54920D02*
D03*
D47*
X-124528Y672420D02*
D03*
Y664420D02*
D03*
Y656420D02*
D03*
Y648420D02*
D03*
Y640420D02*
D03*
Y632420D02*
D03*
Y624420D02*
D03*
Y616420D02*
D03*
Y608420D02*
D03*
Y600420D02*
D03*
Y592420D02*
D03*
Y584420D02*
D03*
Y576420D02*
D03*
Y568420D02*
D03*
Y560420D02*
D03*
Y552420D02*
D03*
Y544420D02*
D03*
Y536420D02*
D03*
Y528420D02*
D03*
Y520420D02*
D03*
Y512420D02*
D03*
Y504420D02*
D03*
Y464420D02*
D03*
Y456420D02*
D03*
Y448420D02*
D03*
Y440420D02*
D03*
Y432420D02*
D03*
Y424420D02*
D03*
Y416420D02*
D03*
Y408420D02*
D03*
Y400420D02*
D03*
Y392420D02*
D03*
Y384420D02*
D03*
Y376420D02*
D03*
Y368420D02*
D03*
Y360420D02*
D03*
Y352420D02*
D03*
Y344420D02*
D03*
Y336420D02*
D03*
Y328420D02*
D03*
D48*
X121010Y601420D02*
D03*
Y580420D02*
D03*
X83010Y601420D02*
D03*
Y580420D02*
D03*
D49*
X233810Y880920D02*
D03*
X219810D02*
D03*
X233810Y864920D02*
D03*
X219810D02*
D03*
X446810D02*
D03*
X432810D02*
D03*
X446810Y880920D02*
D03*
X432810D02*
D03*
X219810Y699920D02*
D03*
X233810D02*
D03*
X219810Y715920D02*
D03*
X233810D02*
D03*
X432810Y699920D02*
D03*
X446810D02*
D03*
X432810Y715920D02*
D03*
X446810D02*
D03*
X219810Y534920D02*
D03*
X233810D02*
D03*
X219810Y550920D02*
D03*
X233810D02*
D03*
X432810Y534920D02*
D03*
X446810D02*
D03*
X432810Y550920D02*
D03*
X446810D02*
D03*
X219810Y369920D02*
D03*
X233810D02*
D03*
X219810Y385920D02*
D03*
X233810D02*
D03*
X432810Y369920D02*
D03*
X446810D02*
D03*
X432810Y385920D02*
D03*
X446810D02*
D03*
X219810Y204920D02*
D03*
X233810D02*
D03*
X219810Y220920D02*
D03*
X233810D02*
D03*
X432810Y204920D02*
D03*
X446810D02*
D03*
X432810Y220920D02*
D03*
X446810D02*
D03*
Y55919D02*
D03*
X432810D02*
D03*
X446810Y39920D02*
D03*
X432810D02*
D03*
X233810Y55919D02*
D03*
X219810D02*
D03*
X233810Y39920D02*
D03*
X219810D02*
D03*
D50*
X194810Y935920D02*
D03*
Y921920D02*
D03*
X211810Y935920D02*
D03*
Y921920D02*
D03*
X177810Y935920D02*
D03*
Y921920D02*
D03*
X390810Y935920D02*
D03*
Y921920D02*
D03*
X407810Y935920D02*
D03*
Y921920D02*
D03*
X424810Y935920D02*
D03*
Y921920D02*
D03*
X177810Y770920D02*
D03*
Y756920D02*
D03*
X194810Y770920D02*
D03*
Y756920D02*
D03*
X211810Y770920D02*
D03*
Y756920D02*
D03*
X390810Y770920D02*
D03*
Y756920D02*
D03*
X407810Y770920D02*
D03*
Y756920D02*
D03*
X424810Y770920D02*
D03*
Y756920D02*
D03*
X177810Y605920D02*
D03*
Y591920D02*
D03*
X194810Y605920D02*
D03*
Y591920D02*
D03*
X211810Y605920D02*
D03*
Y591920D02*
D03*
X390810Y605920D02*
D03*
Y591920D02*
D03*
X407810Y605920D02*
D03*
Y591920D02*
D03*
X424810Y605920D02*
D03*
Y591920D02*
D03*
X177810Y440920D02*
D03*
Y426920D02*
D03*
X194810Y440920D02*
D03*
Y426920D02*
D03*
X211810Y440920D02*
D03*
Y426920D02*
D03*
X390810Y440920D02*
D03*
Y426920D02*
D03*
X407810Y440920D02*
D03*
Y426920D02*
D03*
X424810Y440920D02*
D03*
Y426920D02*
D03*
X177810Y275919D02*
D03*
Y261920D02*
D03*
X194810Y275920D02*
D03*
Y261920D02*
D03*
X211810Y275919D02*
D03*
Y261920D02*
D03*
X390810Y275919D02*
D03*
Y261920D02*
D03*
X407810Y275920D02*
D03*
Y261920D02*
D03*
X424810Y275919D02*
D03*
Y261920D02*
D03*
Y96919D02*
D03*
Y110920D02*
D03*
X407810Y96919D02*
D03*
Y110920D02*
D03*
X390810Y96919D02*
D03*
Y110920D02*
D03*
X211810Y96919D02*
D03*
Y110920D02*
D03*
X194810Y96919D02*
D03*
Y110920D02*
D03*
X177810Y96919D02*
D03*
Y110920D02*
D03*
D51*
X163810Y881920D02*
D03*
X179810D02*
D03*
X376810D02*
D03*
X392810D02*
D03*
X163810Y716920D02*
D03*
X179810D02*
D03*
X376810D02*
D03*
X392810D02*
D03*
X163810Y551920D02*
D03*
X179810D02*
D03*
X376810D02*
D03*
X392810D02*
D03*
X163810Y386920D02*
D03*
X179810D02*
D03*
X376810D02*
D03*
X392810D02*
D03*
X163810Y221920D02*
D03*
X179810D02*
D03*
X376810D02*
D03*
X392810D02*
D03*
Y56919D02*
D03*
X376810D02*
D03*
X179810D02*
D03*
X163810D02*
D03*
D52*
X54610Y952420D02*
D03*
X80010D02*
D03*
X105410D02*
D03*
D53*
X722410Y811270D02*
D03*
Y798570D02*
D03*
Y785870D02*
D03*
Y773170D02*
D03*
Y760470D02*
D03*
Y747770D02*
D03*
Y735070D02*
D03*
Y722370D02*
D03*
Y709670D02*
D03*
Y696970D02*
D03*
Y684270D02*
D03*
Y671570D02*
D03*
Y658870D02*
D03*
Y646170D02*
D03*
Y633470D02*
D03*
Y620770D02*
D03*
Y608070D02*
D03*
Y595370D02*
D03*
Y582670D02*
D03*
Y569970D02*
D03*
Y557270D02*
D03*
Y544570D02*
D03*
Y531870D02*
D03*
Y519170D02*
D03*
Y506470D02*
D03*
Y493770D02*
D03*
Y481070D02*
D03*
Y468370D02*
D03*
Y455670D02*
D03*
Y442970D02*
D03*
Y430270D02*
D03*
Y417570D02*
D03*
Y404870D02*
D03*
Y392170D02*
D03*
Y379470D02*
D03*
Y366770D02*
D03*
Y354070D02*
D03*
Y341370D02*
D03*
Y328670D02*
D03*
Y315970D02*
D03*
Y303270D02*
D03*
Y290570D02*
D03*
Y277870D02*
D03*
Y265170D02*
D03*
Y252470D02*
D03*
Y239770D02*
D03*
Y227070D02*
D03*
Y214370D02*
D03*
Y201670D02*
D03*
Y188970D02*
D03*
X697010Y811270D02*
D03*
Y798570D02*
D03*
Y785870D02*
D03*
Y773170D02*
D03*
Y760470D02*
D03*
Y747770D02*
D03*
Y735070D02*
D03*
Y722370D02*
D03*
Y709670D02*
D03*
Y696970D02*
D03*
Y684270D02*
D03*
Y671570D02*
D03*
Y658870D02*
D03*
Y646170D02*
D03*
Y633470D02*
D03*
Y620770D02*
D03*
Y608070D02*
D03*
Y595370D02*
D03*
Y582670D02*
D03*
Y569970D02*
D03*
Y557270D02*
D03*
Y544570D02*
D03*
Y531870D02*
D03*
Y519170D02*
D03*
Y506470D02*
D03*
Y493770D02*
D03*
Y481070D02*
D03*
Y468370D02*
D03*
Y455670D02*
D03*
Y442970D02*
D03*
Y430270D02*
D03*
Y417570D02*
D03*
Y404870D02*
D03*
Y392170D02*
D03*
Y379470D02*
D03*
Y366770D02*
D03*
Y354070D02*
D03*
Y341370D02*
D03*
Y328670D02*
D03*
Y315970D02*
D03*
Y303270D02*
D03*
Y290570D02*
D03*
Y277870D02*
D03*
Y265170D02*
D03*
Y252470D02*
D03*
Y239770D02*
D03*
Y227070D02*
D03*
Y214370D02*
D03*
Y201670D02*
D03*
X1019455Y811270D02*
D03*
Y798570D02*
D03*
Y785870D02*
D03*
Y773170D02*
D03*
Y760470D02*
D03*
Y747770D02*
D03*
Y735070D02*
D03*
Y722370D02*
D03*
Y709670D02*
D03*
Y696970D02*
D03*
Y684270D02*
D03*
Y671570D02*
D03*
Y658870D02*
D03*
Y646170D02*
D03*
Y633470D02*
D03*
Y620770D02*
D03*
Y608070D02*
D03*
Y595370D02*
D03*
Y582670D02*
D03*
Y569970D02*
D03*
Y557270D02*
D03*
Y544570D02*
D03*
Y531870D02*
D03*
Y519170D02*
D03*
Y506470D02*
D03*
Y493770D02*
D03*
Y481070D02*
D03*
Y468370D02*
D03*
Y455670D02*
D03*
Y442970D02*
D03*
Y430270D02*
D03*
Y417570D02*
D03*
Y404870D02*
D03*
Y392170D02*
D03*
Y379470D02*
D03*
Y366770D02*
D03*
Y354070D02*
D03*
Y341370D02*
D03*
Y328670D02*
D03*
Y315970D02*
D03*
Y303270D02*
D03*
Y290570D02*
D03*
Y277870D02*
D03*
Y265170D02*
D03*
Y252470D02*
D03*
Y239770D02*
D03*
Y227070D02*
D03*
Y214370D02*
D03*
Y201670D02*
D03*
Y188970D02*
D03*
X994055Y811270D02*
D03*
Y798570D02*
D03*
Y785870D02*
D03*
Y773170D02*
D03*
Y760470D02*
D03*
Y747770D02*
D03*
Y735070D02*
D03*
Y722370D02*
D03*
Y709670D02*
D03*
Y696970D02*
D03*
Y684270D02*
D03*
Y671570D02*
D03*
Y658870D02*
D03*
Y646170D02*
D03*
Y633470D02*
D03*
Y620770D02*
D03*
Y608070D02*
D03*
Y595370D02*
D03*
Y582670D02*
D03*
Y569970D02*
D03*
Y557270D02*
D03*
Y544570D02*
D03*
Y531870D02*
D03*
Y519170D02*
D03*
Y506470D02*
D03*
Y493770D02*
D03*
Y481070D02*
D03*
Y468370D02*
D03*
Y455670D02*
D03*
Y442970D02*
D03*
Y430270D02*
D03*
Y417570D02*
D03*
Y404870D02*
D03*
Y392170D02*
D03*
Y379470D02*
D03*
Y366770D02*
D03*
Y354070D02*
D03*
Y341370D02*
D03*
Y328670D02*
D03*
Y315970D02*
D03*
Y303270D02*
D03*
Y290570D02*
D03*
Y277870D02*
D03*
Y265170D02*
D03*
Y252470D02*
D03*
Y239770D02*
D03*
Y227070D02*
D03*
Y214370D02*
D03*
Y201670D02*
D03*
X1316500Y811070D02*
D03*
Y798370D02*
D03*
Y785670D02*
D03*
Y772970D02*
D03*
Y760270D02*
D03*
Y747570D02*
D03*
Y734870D02*
D03*
Y722170D02*
D03*
Y709470D02*
D03*
Y696770D02*
D03*
Y684070D02*
D03*
Y671370D02*
D03*
Y658670D02*
D03*
Y645970D02*
D03*
Y633270D02*
D03*
Y620570D02*
D03*
Y607870D02*
D03*
Y595170D02*
D03*
Y582470D02*
D03*
Y569770D02*
D03*
Y557070D02*
D03*
Y544370D02*
D03*
Y531670D02*
D03*
Y518970D02*
D03*
Y506270D02*
D03*
Y493570D02*
D03*
Y480870D02*
D03*
Y468170D02*
D03*
Y455470D02*
D03*
Y442770D02*
D03*
Y430070D02*
D03*
Y417370D02*
D03*
Y404670D02*
D03*
Y391970D02*
D03*
Y379270D02*
D03*
Y366570D02*
D03*
Y353870D02*
D03*
Y341170D02*
D03*
Y328470D02*
D03*
Y315770D02*
D03*
Y303070D02*
D03*
Y290370D02*
D03*
Y277670D02*
D03*
Y264970D02*
D03*
Y252270D02*
D03*
Y239570D02*
D03*
Y226870D02*
D03*
Y214170D02*
D03*
Y201470D02*
D03*
Y188770D02*
D03*
X1291100Y811070D02*
D03*
Y798370D02*
D03*
Y785670D02*
D03*
Y772970D02*
D03*
Y760270D02*
D03*
Y747570D02*
D03*
Y734870D02*
D03*
Y722170D02*
D03*
Y709470D02*
D03*
Y696770D02*
D03*
Y684070D02*
D03*
Y671370D02*
D03*
Y658670D02*
D03*
Y645970D02*
D03*
Y633270D02*
D03*
Y620570D02*
D03*
Y607870D02*
D03*
Y595170D02*
D03*
Y582470D02*
D03*
Y569770D02*
D03*
Y557070D02*
D03*
Y544370D02*
D03*
Y531670D02*
D03*
Y518970D02*
D03*
Y506270D02*
D03*
Y493570D02*
D03*
Y480870D02*
D03*
Y468170D02*
D03*
Y455470D02*
D03*
Y442770D02*
D03*
Y430070D02*
D03*
Y417370D02*
D03*
Y404670D02*
D03*
Y391970D02*
D03*
Y379270D02*
D03*
Y366570D02*
D03*
Y353870D02*
D03*
Y341170D02*
D03*
Y328470D02*
D03*
Y315770D02*
D03*
Y303070D02*
D03*
Y290370D02*
D03*
Y277670D02*
D03*
Y264970D02*
D03*
Y252270D02*
D03*
Y239570D02*
D03*
Y226870D02*
D03*
Y214170D02*
D03*
Y201470D02*
D03*
D54*
X697010Y188970D02*
D03*
X994055Y188970D02*
D03*
X1291100Y188770D02*
D03*
D55*
X134610Y787220D02*
D03*
Y825720D02*
D03*
X83610D02*
D03*
Y787220D02*
D03*
X470410Y97769D02*
D03*
X257410D02*
D03*
Y922770D02*
D03*
X470410D02*
D03*
X257410Y757770D02*
D03*
X470410D02*
D03*
X257410Y592770D02*
D03*
X470410D02*
D03*
X257410Y427770D02*
D03*
X470410D02*
D03*
X257410Y262770D02*
D03*
X470410D02*
D03*
X46210Y901220D02*
D03*
X101410Y601420D02*
D03*
X139410D02*
D03*
X154310Y922420D02*
D03*
X-69227Y348120D02*
D03*
X-47727D02*
D03*
X-93228Y350720D02*
D03*
X-93028Y368420D02*
D03*
Y392420D02*
D03*
Y416420D02*
D03*
X-53927Y640920D02*
D03*
X-78927Y630220D02*
D03*
X462810Y850919D02*
D03*
Y685919D02*
D03*
Y520919D02*
D03*
X462810Y356021D02*
D03*
Y191021D02*
D03*
Y26021D02*
D03*
X-48830Y425530D02*
D03*
X-48440Y440975D02*
D03*
X-48680Y456420D02*
D03*
D56*
X482310Y633420D02*
D03*
X488310D02*
D03*
X269310D02*
D03*
X275310D02*
D03*
X472310Y377920D02*
D03*
X478310D02*
D03*
X259310Y47920D02*
D03*
X265310D02*
D03*
X259310Y212920D02*
D03*
X265310D02*
D03*
X259310Y377920D02*
D03*
X265310D02*
D03*
Y542920D02*
D03*
X259310D02*
D03*
X269310Y559420D02*
D03*
X275310D02*
D03*
X259310Y707920D02*
D03*
X265310D02*
D03*
X472810Y295949D02*
D03*
X462810D02*
D03*
X302060Y429670D02*
D03*
Y435670D02*
D03*
X245310Y467420D02*
D03*
X239310D02*
D03*
X292060Y445670D02*
D03*
Y439670D02*
D03*
X302060Y409670D02*
D03*
Y415670D02*
D03*
X292060Y425670D02*
D03*
Y419670D02*
D03*
X269310Y468420D02*
D03*
X275310D02*
D03*
X292060Y584670D02*
D03*
Y590670D02*
D03*
X302060Y580670D02*
D03*
Y574670D02*
D03*
X488310Y394420D02*
D03*
X482310D02*
D03*
X505060Y419670D02*
D03*
Y425670D02*
D03*
X515060Y415670D02*
D03*
Y409670D02*
D03*
X239310Y632420D02*
D03*
X245310D02*
D03*
X302060Y594670D02*
D03*
Y600670D02*
D03*
X462810Y955950D02*
D03*
X472810D02*
D03*
X249810D02*
D03*
X259810D02*
D03*
X249810Y790950D02*
D03*
X259810D02*
D03*
X462810D02*
D03*
X472810D02*
D03*
X249810Y625950D02*
D03*
X259810D02*
D03*
X462810D02*
D03*
X472810D02*
D03*
X249810Y460950D02*
D03*
X259810D02*
D03*
X462810D02*
D03*
X472810D02*
D03*
X249810Y295949D02*
D03*
X259810D02*
D03*
X462810Y130949D02*
D03*
X472810D02*
D03*
X249810D02*
D03*
X259810D02*
D03*
X302060Y79669D02*
D03*
Y85669D02*
D03*
X292060Y95669D02*
D03*
Y89670D02*
D03*
X275310Y64419D02*
D03*
X269310D02*
D03*
Y889420D02*
D03*
X275310D02*
D03*
X292060Y914670D02*
D03*
Y920670D02*
D03*
X265310Y872920D02*
D03*
X259310D02*
D03*
X302060Y910670D02*
D03*
Y904670D02*
D03*
X269310Y394420D02*
D03*
X275310D02*
D03*
X292060Y254670D02*
D03*
Y260670D02*
D03*
X302060Y739670D02*
D03*
Y745670D02*
D03*
X292060Y755670D02*
D03*
Y749670D02*
D03*
X275310Y724420D02*
D03*
X269310D02*
D03*
X302060Y250670D02*
D03*
Y244670D02*
D03*
X275310Y229420D02*
D03*
X269310D02*
D03*
X505060Y594670D02*
D03*
Y600670D02*
D03*
X515060Y610670D02*
D03*
Y604670D02*
D03*
X292060D02*
D03*
Y610670D02*
D03*
X458310Y632420D02*
D03*
X452310D02*
D03*
D57*
X455810Y724920D02*
D03*
Y889920D02*
D03*
Y559919D02*
D03*
Y394919D02*
D03*
Y229919D02*
D03*
Y64919D02*
D03*
X242810D02*
D03*
Y229919D02*
D03*
Y394919D02*
D03*
Y559919D02*
D03*
Y724920D02*
D03*
X435810Y600170D02*
D03*
Y435170D02*
D03*
Y270170D02*
D03*
Y105169D02*
D03*
X222810D02*
D03*
Y270170D02*
D03*
Y435170D02*
D03*
Y600170D02*
D03*
Y765170D02*
D03*
X435810D02*
D03*
Y930170D02*
D03*
X223810Y921920D02*
D03*
Y426920D02*
D03*
Y261920D02*
D03*
Y96919D02*
D03*
X436810D02*
D03*
Y261920D02*
D03*
Y426920D02*
D03*
Y591920D02*
D03*
X223810D02*
D03*
Y756920D02*
D03*
X436810D02*
D03*
Y921920D02*
D03*
X-100227Y648420D02*
D03*
Y656420D02*
D03*
Y664420D02*
D03*
Y672420D02*
D03*
X426810Y243569D02*
D03*
Y249919D02*
D03*
X439810Y288919D02*
D03*
X436810Y279919D02*
D03*
X472810Y303150D02*
D03*
X426810Y237219D02*
D03*
X-92038Y440420D02*
D03*
X-70020Y464420D02*
D03*
X-97227Y632420D02*
D03*
X242810Y889920D02*
D03*
X222810Y930170D02*
D03*
X472810Y963150D02*
D03*
X439810Y948920D02*
D03*
X436810Y939920D02*
D03*
X426810Y909920D02*
D03*
Y903569D02*
D03*
Y897219D02*
D03*
X442560Y898429D02*
D03*
X213810Y579919D02*
D03*
Y243569D02*
D03*
Y78569D02*
D03*
X259810Y963150D02*
D03*
X226810Y948920D02*
D03*
X223810Y939920D02*
D03*
X213810Y909920D02*
D03*
Y903569D02*
D03*
Y897219D02*
D03*
X229560Y898429D02*
D03*
X259810Y798150D02*
D03*
X226810Y783920D02*
D03*
X223810Y774920D02*
D03*
X213810Y744920D02*
D03*
Y738569D02*
D03*
Y732219D02*
D03*
X229560Y733429D02*
D03*
X472810Y798150D02*
D03*
X439810Y783920D02*
D03*
X436810Y774920D02*
D03*
X426810Y744920D02*
D03*
Y738569D02*
D03*
Y732219D02*
D03*
X442560Y733429D02*
D03*
X259810Y633150D02*
D03*
X226810Y618919D02*
D03*
X223810Y609919D02*
D03*
X213810Y573569D02*
D03*
Y567219D02*
D03*
X229560Y568429D02*
D03*
X472810Y633150D02*
D03*
X439810Y618919D02*
D03*
X436810Y609919D02*
D03*
X426810Y579919D02*
D03*
Y573569D02*
D03*
Y567219D02*
D03*
X442560Y568429D02*
D03*
X259810Y468150D02*
D03*
X226810Y453919D02*
D03*
X223810Y444919D02*
D03*
X213810Y414919D02*
D03*
Y408569D02*
D03*
Y402219D02*
D03*
X229560Y403429D02*
D03*
X472810Y468150D02*
D03*
X439810Y453919D02*
D03*
X436810Y444919D02*
D03*
X426810Y414919D02*
D03*
Y408569D02*
D03*
Y402219D02*
D03*
X442560Y403429D02*
D03*
X259810Y303150D02*
D03*
X226810Y288919D02*
D03*
X223810Y279919D02*
D03*
X213810Y249919D02*
D03*
Y237219D02*
D03*
X229560Y238429D02*
D03*
X442560D02*
D03*
X472810Y138149D02*
D03*
X439810Y123919D02*
D03*
X436810Y114919D02*
D03*
X426810Y84919D02*
D03*
Y78569D02*
D03*
Y72219D02*
D03*
X442560Y73429D02*
D03*
X259810Y138149D02*
D03*
X226810Y123919D02*
D03*
X223810Y114919D02*
D03*
X213810Y84919D02*
D03*
Y72219D02*
D03*
X229560Y73429D02*
D03*
D58*
X482310Y85669D02*
D03*
X470310D02*
D03*
X458410Y85770D02*
D03*
Y97769D02*
D03*
X482410D02*
D03*
Y109769D02*
D03*
X470410D02*
D03*
X458410D02*
D03*
X245410D02*
D03*
X257410D02*
D03*
X269410D02*
D03*
Y97769D02*
D03*
X245410D02*
D03*
Y85770D02*
D03*
X257310Y85669D02*
D03*
X269310D02*
D03*
Y910670D02*
D03*
X257310D02*
D03*
X245410Y910770D02*
D03*
Y922770D02*
D03*
X269410D02*
D03*
Y934770D02*
D03*
X257410D02*
D03*
X245410D02*
D03*
X458410D02*
D03*
X470410D02*
D03*
X482410D02*
D03*
Y922770D02*
D03*
X458410D02*
D03*
Y910770D02*
D03*
X470310Y910670D02*
D03*
X482310D02*
D03*
X269310Y745670D02*
D03*
X257310D02*
D03*
X245410Y745770D02*
D03*
Y757770D02*
D03*
X269410D02*
D03*
Y769770D02*
D03*
X257410D02*
D03*
X245410D02*
D03*
X458410D02*
D03*
X470410D02*
D03*
X482410D02*
D03*
Y757770D02*
D03*
X458410D02*
D03*
Y745770D02*
D03*
X470310Y745670D02*
D03*
X482310D02*
D03*
X269310Y580670D02*
D03*
X257310D02*
D03*
X245410Y580770D02*
D03*
Y592770D02*
D03*
X269410D02*
D03*
Y604770D02*
D03*
X257410D02*
D03*
X245410D02*
D03*
X458410D02*
D03*
X470410D02*
D03*
X482410D02*
D03*
Y592770D02*
D03*
X458410D02*
D03*
Y580770D02*
D03*
X470310Y580670D02*
D03*
X482310D02*
D03*
X269310Y415670D02*
D03*
X257310D02*
D03*
X245410Y415770D02*
D03*
Y427770D02*
D03*
X269410D02*
D03*
Y439770D02*
D03*
X257410D02*
D03*
X245410D02*
D03*
X458410D02*
D03*
X470410D02*
D03*
X482410D02*
D03*
Y427770D02*
D03*
X458410D02*
D03*
Y415770D02*
D03*
X470310Y415670D02*
D03*
X482310D02*
D03*
X269310Y250670D02*
D03*
X257310D02*
D03*
X245410Y250770D02*
D03*
Y262770D02*
D03*
X269410D02*
D03*
Y274770D02*
D03*
X257410D02*
D03*
X245410D02*
D03*
X458410D02*
D03*
X470410D02*
D03*
X482410D02*
D03*
Y262770D02*
D03*
X458410D02*
D03*
Y250770D02*
D03*
X470310Y250670D02*
D03*
X482310D02*
D03*
X163708Y703920D02*
D03*
X179608Y703920D02*
D03*
X163708Y538920D02*
D03*
X179608Y538920D02*
D03*
X163708Y373920D02*
D03*
X179608Y373920D02*
D03*
X163708Y208920D02*
D03*
X179608Y208920D02*
D03*
X163708Y43920D02*
D03*
X179608Y43920D02*
D03*
X376708Y43920D02*
D03*
X392607Y43920D02*
D03*
X376708Y208920D02*
D03*
X392607Y208920D02*
D03*
X376708Y373920D02*
D03*
X392607Y373920D02*
D03*
X376708Y538920D02*
D03*
X392607Y538920D02*
D03*
X376708Y703920D02*
D03*
X392607Y703920D02*
D03*
X376708Y868920D02*
D03*
X392607Y868920D02*
D03*
X179709Y868920D02*
D03*
X163810Y868920D02*
D03*
X102710Y532420D02*
D03*
X-67828Y328420D02*
D03*
X-91427Y544420D02*
D03*
Y568420D02*
D03*
Y592420D02*
D03*
X21272Y744920D02*
D03*
X41653Y738569D02*
D03*
X67123Y732219D02*
D03*
Y567219D02*
D03*
X41653Y573569D02*
D03*
X21272Y579919D02*
D03*
X67123Y237219D02*
D03*
X41653Y243569D02*
D03*
X21272Y249919D02*
D03*
X67123Y72219D02*
D03*
X41653Y78569D02*
D03*
X21272Y84919D02*
D03*
D59*
X-91427Y520420D02*
D03*
X-52190Y623919D02*
D03*
M02*
